G04 #@! TF.GenerationSoftware,KiCad,Pcbnew,(5.1.0)-1*
G04 #@! TF.CreationDate,2020-10-05T07:23:46+02:00*
G04 #@! TF.ProjectId,Waage,57616167-652e-46b6-9963-61645f706362,rev?*
G04 #@! TF.SameCoordinates,Original*
G04 #@! TF.FileFunction,Copper,L2,Bot*
G04 #@! TF.FilePolarity,Positive*
%FSLAX46Y46*%
G04 Gerber Fmt 4.6, Leading zero omitted, Abs format (unit mm)*
G04 Created by KiCad (PCBNEW (5.1.0)-1) date 2020-10-05 07:23:46*
%MOMM*%
%LPD*%
G04 APERTURE LIST*
%ADD10O,1.700000X1.700000*%
%ADD11R,1.700000X1.700000*%
%ADD12C,3.500000*%
%ADD13C,1.700000*%
%ADD14C,1.440000*%
%ADD15C,1.800000*%
%ADD16R,1.800000X1.800000*%
%ADD17C,1.000000*%
%ADD18C,0.800000*%
%ADD19C,0.300000*%
%ADD20C,0.500000*%
%ADD21C,0.250000*%
%ADD22C,0.400000*%
%ADD23C,0.254000*%
G04 APERTURE END LIST*
D10*
X145150000Y-82660000D03*
X145150000Y-80120000D03*
X145150000Y-77580000D03*
D11*
X145150000Y-75040000D03*
D10*
X125120000Y-62250000D03*
X122580000Y-62250000D03*
X120040000Y-62250000D03*
D11*
X117500000Y-62250000D03*
D10*
X112870000Y-62250000D03*
X110330000Y-62250000D03*
X107790000Y-62250000D03*
D11*
X105250000Y-62250000D03*
D12*
X146510000Y-119745000D03*
X146510000Y-107705000D03*
D13*
X143800000Y-112475000D03*
X143800000Y-114975000D03*
X141800000Y-114975000D03*
D11*
X141800000Y-112475000D03*
D14*
X84000000Y-91500000D03*
X86540000Y-88960000D03*
X84000000Y-86420000D03*
D15*
X114730000Y-108500000D03*
D16*
X117270000Y-108500000D03*
D15*
X100730000Y-108500000D03*
D16*
X103270000Y-108500000D03*
D15*
X86730000Y-108500000D03*
D16*
X89270000Y-108500000D03*
D17*
X123890000Y-91000000D03*
X122620000Y-91000000D03*
X121350000Y-91000000D03*
X120080000Y-91000000D03*
X118810000Y-91000000D03*
X117540000Y-91000000D03*
X116270000Y-91000000D03*
X115000000Y-91000000D03*
X113730000Y-91000000D03*
X112460000Y-91000000D03*
X111190000Y-91000000D03*
X109920000Y-91000000D03*
X108650000Y-91000000D03*
X107380000Y-91000000D03*
X106110000Y-91000000D03*
D18*
X137500000Y-70250000D03*
X115337500Y-64762500D03*
X117587500Y-64762500D03*
X126500000Y-69700000D03*
X128500000Y-69700000D03*
X117300000Y-69585216D03*
X140500000Y-76050000D03*
X136550000Y-80250000D03*
X117062500Y-73712500D03*
X106987500Y-85762500D03*
X126100000Y-85775000D03*
X112025000Y-83900000D03*
X129830000Y-109220000D03*
X108650000Y-75600000D03*
X114600000Y-76325000D03*
X113728962Y-79426432D03*
X145350000Y-92100000D03*
X142650000Y-92050000D03*
X139850000Y-92050000D03*
X137000000Y-92050000D03*
X108775000Y-89575000D03*
X148000000Y-104225000D03*
X145350000Y-104250000D03*
X142650000Y-104225000D03*
X139850000Y-104225000D03*
X137000000Y-104225000D03*
X148000000Y-92050000D03*
X127290000Y-94360000D03*
X136240000Y-94970000D03*
X114550000Y-73525000D03*
X120025000Y-72375000D03*
X130500000Y-72450000D03*
X141725000Y-100750000D03*
X141225000Y-92075000D03*
X126775000Y-83550000D03*
X129700000Y-83525000D03*
X113278977Y-81028977D03*
X108027500Y-68000702D03*
X127225000Y-80975000D03*
X107587500Y-82100000D03*
X126550000Y-80150000D03*
X103775010Y-81975010D03*
X131470000Y-102170000D03*
X131420000Y-81250000D03*
X133410000Y-105450000D03*
X130327500Y-80252500D03*
X122200000Y-81600000D03*
X121350000Y-80875000D03*
X106981059Y-86781364D03*
X109950000Y-67250000D03*
X122200000Y-67250000D03*
X110682500Y-68007108D03*
X122932500Y-68007108D03*
X111317500Y-68827650D03*
X123567500Y-68835216D03*
X132200000Y-87900000D03*
X131860000Y-76580000D03*
X131630000Y-75410000D03*
D19*
X117300000Y-73475000D02*
X117062500Y-73712500D01*
X117300000Y-69585216D02*
X117300000Y-73475000D01*
X114600000Y-76325000D02*
X114600000Y-78555394D01*
X114600000Y-78555394D02*
X113728962Y-79426432D01*
D20*
X145350000Y-104275000D02*
X145350000Y-92100000D01*
X142650000Y-104225000D02*
X142650000Y-92050000D01*
X139850000Y-104225000D02*
X139850000Y-92050000D01*
D21*
X108775000Y-89575000D02*
X107650000Y-89575000D01*
X107380000Y-89845000D02*
X107380000Y-91000000D01*
X107650000Y-89575000D02*
X107380000Y-89845000D01*
D20*
X148000000Y-104225000D02*
X148000000Y-92050000D01*
X107380000Y-92705000D02*
X108425000Y-93750000D01*
X107380000Y-91000000D02*
X107380000Y-92705000D01*
X137000000Y-93450000D02*
X137000000Y-92050000D01*
X126680000Y-93750000D02*
X127290000Y-94360000D01*
X125160000Y-93750000D02*
X126680000Y-93750000D01*
X108425000Y-93750000D02*
X125160000Y-93750000D01*
D22*
X137000000Y-94210000D02*
X137000000Y-93880000D01*
X136240000Y-94970000D02*
X137000000Y-94210000D01*
D20*
X137000000Y-104225000D02*
X137000000Y-93880000D01*
X137000000Y-93880000D02*
X137000000Y-93450000D01*
X120100000Y-72450000D02*
X120025000Y-72375000D01*
X130500000Y-72450000D02*
X120100000Y-72450000D01*
X141725000Y-100750000D02*
X141725000Y-92575000D01*
X141725000Y-92575000D02*
X141225000Y-92075000D01*
D22*
X129675000Y-83550000D02*
X129700000Y-83525000D01*
X126775000Y-83550000D02*
X129675000Y-83550000D01*
D20*
X114949999Y-73924999D02*
X115724999Y-73924999D01*
X114550000Y-73525000D02*
X114949999Y-73924999D01*
X115724999Y-73924999D02*
X117100000Y-75300000D01*
X117100000Y-75300000D02*
X119500000Y-75300000D01*
X120025000Y-74775000D02*
X120025000Y-72375000D01*
X119500000Y-75300000D02*
X120025000Y-74775000D01*
X115569990Y-75330010D02*
X115569990Y-80705010D01*
X115569990Y-80705010D02*
X115246023Y-81028977D01*
X115039980Y-74800000D02*
X115569990Y-75330010D01*
X113100000Y-74800000D02*
X115039980Y-74800000D01*
X108027500Y-68000702D02*
X108027500Y-70227500D01*
X108027500Y-70227500D02*
X108900000Y-71100000D01*
X115246023Y-81028977D02*
X113278977Y-81028977D01*
X111400000Y-71100000D02*
X112100000Y-71800000D01*
X112100000Y-71800000D02*
X112100000Y-73800000D01*
X108900000Y-71100000D02*
X111400000Y-71100000D01*
X112100000Y-73800000D02*
X113100000Y-74800000D01*
D21*
X119400000Y-81700000D02*
X119400000Y-81875000D01*
X120125000Y-79925000D02*
X119400000Y-80650000D01*
X127225000Y-80975000D02*
X123625000Y-80975000D01*
X122575000Y-79925000D02*
X120125000Y-79925000D01*
X118574989Y-82700011D02*
X108187511Y-82700011D01*
X123625000Y-80975000D02*
X122575000Y-79925000D01*
X119400000Y-81875000D02*
X118574989Y-82700011D01*
X108187511Y-82700011D02*
X107587500Y-82100000D01*
X119400000Y-80650000D02*
X119400000Y-81700000D01*
X126550000Y-80150000D02*
X123925000Y-80150000D01*
X123925000Y-80150000D02*
X123000000Y-79225000D01*
X123000000Y-79225000D02*
X119800000Y-79225000D01*
X119800000Y-79225000D02*
X118775000Y-80250000D01*
X118775000Y-80975000D02*
X118775000Y-81475000D01*
X118775000Y-80250000D02*
X118775000Y-80975000D01*
X118775000Y-81475000D02*
X118200000Y-82050000D01*
X118200000Y-82050000D02*
X109825000Y-82050000D01*
X109825000Y-82050000D02*
X109150000Y-81375000D01*
X109150000Y-81375000D02*
X104375020Y-81375000D01*
X104375020Y-81375000D02*
X103775010Y-81975010D01*
D22*
X131470000Y-95490000D02*
X131470000Y-94940000D01*
X131470000Y-94940000D02*
X133380000Y-93030000D01*
X133380000Y-93030000D02*
X133380000Y-83180000D01*
X133380000Y-83180000D02*
X131420000Y-81220000D01*
X131420000Y-81220000D02*
X131420000Y-81250000D01*
X131470000Y-95490000D02*
X131470000Y-102170000D01*
X133410000Y-94300000D02*
X134180000Y-93530000D01*
X134180000Y-93530000D02*
X134180000Y-82480000D01*
X134180000Y-82480000D02*
X132160000Y-80460000D01*
X132160000Y-80460000D02*
X132160000Y-80450000D01*
X131952500Y-80252500D02*
X130327500Y-80252500D01*
X132160000Y-80460000D02*
X131952500Y-80252500D01*
X133410000Y-95100000D02*
X133410000Y-105450000D01*
X133410000Y-95100000D02*
X133410000Y-94300000D01*
X133410000Y-95560000D02*
X133410000Y-95100000D01*
D21*
X122200000Y-81600000D02*
X122200000Y-87775000D01*
X122200000Y-87775000D02*
X121000000Y-88975000D01*
X121000000Y-88975000D02*
X118325000Y-88975000D01*
X117540000Y-89760000D02*
X117540000Y-91000000D01*
X118325000Y-88975000D02*
X117540000Y-89760000D01*
X116270000Y-91000000D02*
X116270000Y-89480000D01*
X116270000Y-89480000D02*
X117450000Y-88300000D01*
X117450000Y-88300000D02*
X120675000Y-88300000D01*
X120675000Y-88300000D02*
X121350000Y-87625000D01*
X121350000Y-87625000D02*
X121350000Y-80875000D01*
X86540000Y-88960000D02*
X106390000Y-88960000D01*
X106390000Y-88960000D02*
X106715000Y-88960000D01*
X106715000Y-88960000D02*
X106981059Y-88693941D01*
X106981059Y-88693941D02*
X106981059Y-86781364D01*
D19*
X122200000Y-67250000D02*
X110950000Y-67250000D01*
X110950000Y-67250000D02*
X109950000Y-67250000D01*
X111542892Y-68007108D02*
X110682500Y-68007108D01*
X122932500Y-68007108D02*
X111542892Y-68007108D01*
X111325066Y-68835216D02*
X111317500Y-68827650D01*
X123567500Y-68835216D02*
X112325066Y-68835216D01*
X112317500Y-68827650D02*
X111317500Y-68827650D01*
X112325066Y-68835216D02*
X112317500Y-68827650D01*
D22*
X125220000Y-87900000D02*
X132200000Y-87900000D01*
X123890000Y-89230000D02*
X125220000Y-87900000D01*
X123890000Y-91000000D02*
X123890000Y-89230000D01*
X143947919Y-80120000D02*
X143080000Y-79252081D01*
X145150000Y-80120000D02*
X143947919Y-80120000D01*
X143080000Y-75960000D02*
X142050000Y-74930000D01*
X143080000Y-79252081D02*
X143080000Y-75960000D01*
X135150000Y-74930000D02*
X142050000Y-74930000D01*
X131860000Y-76580000D02*
X133510000Y-74930000D01*
X133510000Y-74930000D02*
X135150000Y-74930000D01*
X143947919Y-77580000D02*
X145150000Y-77580000D01*
X143830000Y-77462081D02*
X143947919Y-77580000D01*
X143830000Y-75800000D02*
X143830000Y-77462081D01*
X142230000Y-74200000D02*
X143830000Y-75800000D01*
X132840000Y-74200000D02*
X142230000Y-74200000D01*
X131630000Y-75410000D02*
X132840000Y-74200000D01*
D23*
G36*
X97858149Y-60234636D02*
G01*
X97640915Y-60559750D01*
X97491282Y-60920997D01*
X97415000Y-61304495D01*
X97415000Y-61695505D01*
X97491282Y-62079003D01*
X97640915Y-62440250D01*
X97858149Y-62765364D01*
X98134636Y-63041851D01*
X98459750Y-63259085D01*
X98820997Y-63408718D01*
X99204495Y-63485000D01*
X99595505Y-63485000D01*
X99979003Y-63408718D01*
X100340250Y-63259085D01*
X100665364Y-63041851D01*
X100941851Y-62765364D01*
X101159085Y-62440250D01*
X101308718Y-62079003D01*
X101385000Y-61695505D01*
X101385000Y-61400000D01*
X103761928Y-61400000D01*
X103761928Y-63100000D01*
X103774188Y-63224482D01*
X103810498Y-63344180D01*
X103869463Y-63454494D01*
X103948815Y-63551185D01*
X104045506Y-63630537D01*
X104155820Y-63689502D01*
X104275518Y-63725812D01*
X104400000Y-63738072D01*
X106100000Y-63738072D01*
X106224482Y-63725812D01*
X106344180Y-63689502D01*
X106454494Y-63630537D01*
X106551185Y-63551185D01*
X106630537Y-63454494D01*
X106689502Y-63344180D01*
X106710393Y-63275313D01*
X106734866Y-63305134D01*
X106960986Y-63490706D01*
X107218966Y-63628599D01*
X107498889Y-63713513D01*
X107717050Y-63735000D01*
X107862950Y-63735000D01*
X108081111Y-63713513D01*
X108361034Y-63628599D01*
X108619014Y-63490706D01*
X108845134Y-63305134D01*
X109030706Y-63079014D01*
X109065201Y-63014477D01*
X109134822Y-63131355D01*
X109329731Y-63347588D01*
X109563080Y-63521641D01*
X109825901Y-63646825D01*
X109973110Y-63691476D01*
X110203000Y-63570155D01*
X110203000Y-62377000D01*
X110183000Y-62377000D01*
X110183000Y-62123000D01*
X110203000Y-62123000D01*
X110203000Y-60929845D01*
X110457000Y-60929845D01*
X110457000Y-62123000D01*
X110477000Y-62123000D01*
X110477000Y-62377000D01*
X110457000Y-62377000D01*
X110457000Y-63570155D01*
X110686890Y-63691476D01*
X110834099Y-63646825D01*
X111096920Y-63521641D01*
X111330269Y-63347588D01*
X111525178Y-63131355D01*
X111594799Y-63014477D01*
X111629294Y-63079014D01*
X111814866Y-63305134D01*
X112040986Y-63490706D01*
X112298966Y-63628599D01*
X112578889Y-63713513D01*
X112797050Y-63735000D01*
X112942950Y-63735000D01*
X113161111Y-63713513D01*
X113441034Y-63628599D01*
X113699014Y-63490706D01*
X113925134Y-63305134D01*
X114110706Y-63079014D01*
X114248599Y-62821034D01*
X114333513Y-62541111D01*
X114362185Y-62250000D01*
X114333513Y-61958889D01*
X114248599Y-61678966D01*
X114110706Y-61420986D01*
X114093484Y-61400000D01*
X116011928Y-61400000D01*
X116011928Y-63100000D01*
X116024188Y-63224482D01*
X116060498Y-63344180D01*
X116119463Y-63454494D01*
X116198815Y-63551185D01*
X116295506Y-63630537D01*
X116405820Y-63689502D01*
X116525518Y-63725812D01*
X116650000Y-63738072D01*
X118350000Y-63738072D01*
X118474482Y-63725812D01*
X118594180Y-63689502D01*
X118704494Y-63630537D01*
X118801185Y-63551185D01*
X118880537Y-63454494D01*
X118939502Y-63344180D01*
X118960393Y-63275313D01*
X118984866Y-63305134D01*
X119210986Y-63490706D01*
X119468966Y-63628599D01*
X119748889Y-63713513D01*
X119967050Y-63735000D01*
X120112950Y-63735000D01*
X120331111Y-63713513D01*
X120611034Y-63628599D01*
X120869014Y-63490706D01*
X121095134Y-63305134D01*
X121280706Y-63079014D01*
X121315201Y-63014477D01*
X121384822Y-63131355D01*
X121579731Y-63347588D01*
X121813080Y-63521641D01*
X122075901Y-63646825D01*
X122223110Y-63691476D01*
X122453000Y-63570155D01*
X122453000Y-62377000D01*
X122433000Y-62377000D01*
X122433000Y-62123000D01*
X122453000Y-62123000D01*
X122453000Y-60929845D01*
X122707000Y-60929845D01*
X122707000Y-62123000D01*
X122727000Y-62123000D01*
X122727000Y-62377000D01*
X122707000Y-62377000D01*
X122707000Y-63570155D01*
X122936890Y-63691476D01*
X123084099Y-63646825D01*
X123346920Y-63521641D01*
X123580269Y-63347588D01*
X123775178Y-63131355D01*
X123844799Y-63014477D01*
X123879294Y-63079014D01*
X124064866Y-63305134D01*
X124290986Y-63490706D01*
X124548966Y-63628599D01*
X124828889Y-63713513D01*
X125047050Y-63735000D01*
X125192950Y-63735000D01*
X125411111Y-63713513D01*
X125691034Y-63628599D01*
X125949014Y-63490706D01*
X126175134Y-63305134D01*
X126360706Y-63079014D01*
X126498599Y-62821034D01*
X126583513Y-62541111D01*
X126612185Y-62250000D01*
X126583513Y-61958889D01*
X126498599Y-61678966D01*
X126360706Y-61420986D01*
X126175134Y-61194866D01*
X125949014Y-61009294D01*
X125691034Y-60871401D01*
X125411111Y-60786487D01*
X125192950Y-60765000D01*
X125047050Y-60765000D01*
X124828889Y-60786487D01*
X124548966Y-60871401D01*
X124290986Y-61009294D01*
X124064866Y-61194866D01*
X123879294Y-61420986D01*
X123844799Y-61485523D01*
X123775178Y-61368645D01*
X123580269Y-61152412D01*
X123346920Y-60978359D01*
X123084099Y-60853175D01*
X122936890Y-60808524D01*
X122707000Y-60929845D01*
X122453000Y-60929845D01*
X122223110Y-60808524D01*
X122075901Y-60853175D01*
X121813080Y-60978359D01*
X121579731Y-61152412D01*
X121384822Y-61368645D01*
X121315201Y-61485523D01*
X121280706Y-61420986D01*
X121095134Y-61194866D01*
X120869014Y-61009294D01*
X120611034Y-60871401D01*
X120331111Y-60786487D01*
X120112950Y-60765000D01*
X119967050Y-60765000D01*
X119748889Y-60786487D01*
X119468966Y-60871401D01*
X119210986Y-61009294D01*
X118984866Y-61194866D01*
X118960393Y-61224687D01*
X118939502Y-61155820D01*
X118880537Y-61045506D01*
X118801185Y-60948815D01*
X118704494Y-60869463D01*
X118594180Y-60810498D01*
X118474482Y-60774188D01*
X118350000Y-60761928D01*
X116650000Y-60761928D01*
X116525518Y-60774188D01*
X116405820Y-60810498D01*
X116295506Y-60869463D01*
X116198815Y-60948815D01*
X116119463Y-61045506D01*
X116060498Y-61155820D01*
X116024188Y-61275518D01*
X116011928Y-61400000D01*
X114093484Y-61400000D01*
X113925134Y-61194866D01*
X113699014Y-61009294D01*
X113441034Y-60871401D01*
X113161111Y-60786487D01*
X112942950Y-60765000D01*
X112797050Y-60765000D01*
X112578889Y-60786487D01*
X112298966Y-60871401D01*
X112040986Y-61009294D01*
X111814866Y-61194866D01*
X111629294Y-61420986D01*
X111594799Y-61485523D01*
X111525178Y-61368645D01*
X111330269Y-61152412D01*
X111096920Y-60978359D01*
X110834099Y-60853175D01*
X110686890Y-60808524D01*
X110457000Y-60929845D01*
X110203000Y-60929845D01*
X109973110Y-60808524D01*
X109825901Y-60853175D01*
X109563080Y-60978359D01*
X109329731Y-61152412D01*
X109134822Y-61368645D01*
X109065201Y-61485523D01*
X109030706Y-61420986D01*
X108845134Y-61194866D01*
X108619014Y-61009294D01*
X108361034Y-60871401D01*
X108081111Y-60786487D01*
X107862950Y-60765000D01*
X107717050Y-60765000D01*
X107498889Y-60786487D01*
X107218966Y-60871401D01*
X106960986Y-61009294D01*
X106734866Y-61194866D01*
X106710393Y-61224687D01*
X106689502Y-61155820D01*
X106630537Y-61045506D01*
X106551185Y-60948815D01*
X106454494Y-60869463D01*
X106344180Y-60810498D01*
X106224482Y-60774188D01*
X106100000Y-60761928D01*
X104400000Y-60761928D01*
X104275518Y-60774188D01*
X104155820Y-60810498D01*
X104045506Y-60869463D01*
X103948815Y-60948815D01*
X103869463Y-61045506D01*
X103810498Y-61155820D01*
X103774188Y-61275518D01*
X103761928Y-61400000D01*
X101385000Y-61400000D01*
X101385000Y-61304495D01*
X101308718Y-60920997D01*
X101159085Y-60559750D01*
X100941851Y-60234636D01*
X100867215Y-60160000D01*
X129132785Y-60160000D01*
X129058149Y-60234636D01*
X128840915Y-60559750D01*
X128691282Y-60920997D01*
X128615000Y-61304495D01*
X128615000Y-61695505D01*
X128691282Y-62079003D01*
X128840915Y-62440250D01*
X129058149Y-62765364D01*
X129334636Y-63041851D01*
X129659750Y-63259085D01*
X130020997Y-63408718D01*
X130404495Y-63485000D01*
X130795505Y-63485000D01*
X131179003Y-63408718D01*
X131540250Y-63259085D01*
X131865364Y-63041851D01*
X132141851Y-62765364D01*
X132359085Y-62440250D01*
X132508718Y-62079003D01*
X132585000Y-61695505D01*
X132585000Y-61304495D01*
X132508718Y-60920997D01*
X132359085Y-60559750D01*
X132141851Y-60234636D01*
X132067215Y-60160000D01*
X141373000Y-60160000D01*
X141373000Y-68000000D01*
X141375440Y-68024776D01*
X141382667Y-68048601D01*
X141394403Y-68070557D01*
X141410197Y-68089803D01*
X141429443Y-68105597D01*
X141451399Y-68117333D01*
X141475224Y-68124560D01*
X141500000Y-68127000D01*
X149340000Y-68127000D01*
X149340001Y-121340000D01*
X148284608Y-121340000D01*
X148179610Y-121235002D01*
X148520766Y-121048927D01*
X148736513Y-120631591D01*
X148866696Y-120180185D01*
X148906313Y-119712054D01*
X148853842Y-119245189D01*
X148711297Y-118797532D01*
X148520766Y-118441073D01*
X148179609Y-118254997D01*
X146689605Y-119745000D01*
X146703748Y-119759142D01*
X146524142Y-119938748D01*
X146510000Y-119924605D01*
X146495858Y-119938748D01*
X146316252Y-119759142D01*
X146330395Y-119745000D01*
X144840391Y-118254997D01*
X144499234Y-118441073D01*
X144283487Y-118858409D01*
X144153304Y-119309815D01*
X144113687Y-119777946D01*
X144166158Y-120244811D01*
X144308703Y-120692468D01*
X144499234Y-121048927D01*
X144840390Y-121235002D01*
X144735392Y-121340000D01*
X134127000Y-121340000D01*
X134127000Y-118075391D01*
X145019997Y-118075391D01*
X146510000Y-119565395D01*
X148000003Y-118075391D01*
X147813927Y-117734234D01*
X147396591Y-117518487D01*
X146945185Y-117388304D01*
X146477054Y-117348687D01*
X146010189Y-117401158D01*
X145562532Y-117543703D01*
X145206073Y-117734234D01*
X145019997Y-118075391D01*
X134127000Y-118075391D01*
X134127000Y-114000000D01*
X134124560Y-113975224D01*
X134117333Y-113951399D01*
X134105597Y-113929443D01*
X134089803Y-113910197D01*
X134070557Y-113894403D01*
X134048601Y-113882667D01*
X134024776Y-113875440D01*
X134000000Y-113873000D01*
X125500000Y-113873000D01*
X125475224Y-113875440D01*
X125451399Y-113882667D01*
X125429443Y-113894403D01*
X125410197Y-113910197D01*
X125394403Y-113929443D01*
X125382667Y-113951399D01*
X125375440Y-113975224D01*
X125373000Y-114000000D01*
X125373000Y-121340000D01*
X88627000Y-121340000D01*
X88627000Y-114000000D01*
X88624560Y-113975224D01*
X88617333Y-113951399D01*
X88605597Y-113929443D01*
X88589803Y-113910197D01*
X88570557Y-113894403D01*
X88548601Y-113882667D01*
X88524776Y-113875440D01*
X88500000Y-113873000D01*
X80660000Y-113873000D01*
X80660000Y-111625000D01*
X140311928Y-111625000D01*
X140311928Y-113325000D01*
X140324188Y-113449482D01*
X140360498Y-113569180D01*
X140419463Y-113679494D01*
X140498815Y-113776185D01*
X140595506Y-113855537D01*
X140705820Y-113914502D01*
X140747690Y-113927203D01*
X140646525Y-114028368D01*
X140484010Y-114271589D01*
X140372068Y-114541842D01*
X140315000Y-114828740D01*
X140315000Y-115121260D01*
X140372068Y-115408158D01*
X140484010Y-115678411D01*
X140646525Y-115921632D01*
X140853368Y-116128475D01*
X141096589Y-116290990D01*
X141366842Y-116402932D01*
X141653740Y-116460000D01*
X141946260Y-116460000D01*
X142233158Y-116402932D01*
X142503411Y-116290990D01*
X142746632Y-116128475D01*
X142800000Y-116075107D01*
X142853368Y-116128475D01*
X143096589Y-116290990D01*
X143366842Y-116402932D01*
X143653740Y-116460000D01*
X143946260Y-116460000D01*
X144233158Y-116402932D01*
X144503411Y-116290990D01*
X144746632Y-116128475D01*
X144953475Y-115921632D01*
X145115990Y-115678411D01*
X145227932Y-115408158D01*
X145285000Y-115121260D01*
X145285000Y-114828740D01*
X145227932Y-114541842D01*
X145115990Y-114271589D01*
X144953475Y-114028368D01*
X144746632Y-113821525D01*
X144583590Y-113712584D01*
X144648792Y-113503397D01*
X143800000Y-112654605D01*
X143785858Y-112668748D01*
X143606253Y-112489143D01*
X143620395Y-112475000D01*
X143979605Y-112475000D01*
X144828397Y-113323792D01*
X145077472Y-113246157D01*
X145203371Y-112982117D01*
X145275339Y-112698589D01*
X145290611Y-112406469D01*
X145248599Y-112116981D01*
X145150919Y-111841253D01*
X145077472Y-111703843D01*
X144828397Y-111626208D01*
X143979605Y-112475000D01*
X143620395Y-112475000D01*
X143606253Y-112460858D01*
X143785858Y-112281253D01*
X143800000Y-112295395D01*
X144648792Y-111446603D01*
X144571157Y-111197528D01*
X144307117Y-111071629D01*
X144023589Y-110999661D01*
X143731469Y-110984389D01*
X143441981Y-111026401D01*
X143166253Y-111124081D01*
X143090150Y-111164759D01*
X143004494Y-111094463D01*
X142894180Y-111035498D01*
X142774482Y-110999188D01*
X142650000Y-110986928D01*
X140950000Y-110986928D01*
X140825518Y-110999188D01*
X140705820Y-111035498D01*
X140595506Y-111094463D01*
X140498815Y-111173815D01*
X140419463Y-111270506D01*
X140360498Y-111380820D01*
X140324188Y-111500518D01*
X140311928Y-111625000D01*
X80660000Y-111625000D01*
X80660000Y-108348816D01*
X85195000Y-108348816D01*
X85195000Y-108651184D01*
X85253989Y-108947743D01*
X85369701Y-109227095D01*
X85537688Y-109478505D01*
X85751495Y-109692312D01*
X86002905Y-109860299D01*
X86282257Y-109976011D01*
X86578816Y-110035000D01*
X86881184Y-110035000D01*
X87177743Y-109976011D01*
X87457095Y-109860299D01*
X87708505Y-109692312D01*
X87774944Y-109625873D01*
X87780498Y-109644180D01*
X87839463Y-109754494D01*
X87918815Y-109851185D01*
X88015506Y-109930537D01*
X88125820Y-109989502D01*
X88245518Y-110025812D01*
X88370000Y-110038072D01*
X90170000Y-110038072D01*
X90294482Y-110025812D01*
X90414180Y-109989502D01*
X90524494Y-109930537D01*
X90621185Y-109851185D01*
X90700537Y-109754494D01*
X90759502Y-109644180D01*
X90795812Y-109524482D01*
X90808072Y-109400000D01*
X90808072Y-108348816D01*
X99195000Y-108348816D01*
X99195000Y-108651184D01*
X99253989Y-108947743D01*
X99369701Y-109227095D01*
X99537688Y-109478505D01*
X99751495Y-109692312D01*
X100002905Y-109860299D01*
X100282257Y-109976011D01*
X100578816Y-110035000D01*
X100881184Y-110035000D01*
X101177743Y-109976011D01*
X101457095Y-109860299D01*
X101708505Y-109692312D01*
X101774944Y-109625873D01*
X101780498Y-109644180D01*
X101839463Y-109754494D01*
X101918815Y-109851185D01*
X102015506Y-109930537D01*
X102125820Y-109989502D01*
X102245518Y-110025812D01*
X102370000Y-110038072D01*
X104170000Y-110038072D01*
X104294482Y-110025812D01*
X104414180Y-109989502D01*
X104524494Y-109930537D01*
X104621185Y-109851185D01*
X104700537Y-109754494D01*
X104759502Y-109644180D01*
X104795812Y-109524482D01*
X104808072Y-109400000D01*
X104808072Y-108348816D01*
X113195000Y-108348816D01*
X113195000Y-108651184D01*
X113253989Y-108947743D01*
X113369701Y-109227095D01*
X113537688Y-109478505D01*
X113751495Y-109692312D01*
X114002905Y-109860299D01*
X114282257Y-109976011D01*
X114578816Y-110035000D01*
X114881184Y-110035000D01*
X115177743Y-109976011D01*
X115457095Y-109860299D01*
X115708505Y-109692312D01*
X115774944Y-109625873D01*
X115780498Y-109644180D01*
X115839463Y-109754494D01*
X115918815Y-109851185D01*
X116015506Y-109930537D01*
X116125820Y-109989502D01*
X116245518Y-110025812D01*
X116370000Y-110038072D01*
X118170000Y-110038072D01*
X118294482Y-110025812D01*
X118414180Y-109989502D01*
X118524494Y-109930537D01*
X118621185Y-109851185D01*
X118700537Y-109754494D01*
X118759502Y-109644180D01*
X118795812Y-109524482D01*
X118808072Y-109400000D01*
X118808072Y-109374609D01*
X145019997Y-109374609D01*
X145206073Y-109715766D01*
X145623409Y-109931513D01*
X146074815Y-110061696D01*
X146542946Y-110101313D01*
X147009811Y-110048842D01*
X147457468Y-109906297D01*
X147813927Y-109715766D01*
X148000003Y-109374609D01*
X146510000Y-107884605D01*
X145019997Y-109374609D01*
X118808072Y-109374609D01*
X118808072Y-107737946D01*
X144113687Y-107737946D01*
X144166158Y-108204811D01*
X144308703Y-108652468D01*
X144499234Y-109008927D01*
X144840391Y-109195003D01*
X146330395Y-107705000D01*
X146689605Y-107705000D01*
X148179609Y-109195003D01*
X148520766Y-109008927D01*
X148736513Y-108591591D01*
X148866696Y-108140185D01*
X148906313Y-107672054D01*
X148853842Y-107205189D01*
X148711297Y-106757532D01*
X148520766Y-106401073D01*
X148179609Y-106214997D01*
X146689605Y-107705000D01*
X146330395Y-107705000D01*
X144840391Y-106214997D01*
X144499234Y-106401073D01*
X144283487Y-106818409D01*
X144153304Y-107269815D01*
X144113687Y-107737946D01*
X118808072Y-107737946D01*
X118808072Y-107600000D01*
X118795812Y-107475518D01*
X118759502Y-107355820D01*
X118700537Y-107245506D01*
X118621185Y-107148815D01*
X118524494Y-107069463D01*
X118414180Y-107010498D01*
X118294482Y-106974188D01*
X118170000Y-106961928D01*
X116370000Y-106961928D01*
X116245518Y-106974188D01*
X116125820Y-107010498D01*
X116015506Y-107069463D01*
X115918815Y-107148815D01*
X115839463Y-107245506D01*
X115780498Y-107355820D01*
X115774944Y-107374127D01*
X115708505Y-107307688D01*
X115457095Y-107139701D01*
X115177743Y-107023989D01*
X114881184Y-106965000D01*
X114578816Y-106965000D01*
X114282257Y-107023989D01*
X114002905Y-107139701D01*
X113751495Y-107307688D01*
X113537688Y-107521495D01*
X113369701Y-107772905D01*
X113253989Y-108052257D01*
X113195000Y-108348816D01*
X104808072Y-108348816D01*
X104808072Y-107600000D01*
X104795812Y-107475518D01*
X104759502Y-107355820D01*
X104700537Y-107245506D01*
X104621185Y-107148815D01*
X104524494Y-107069463D01*
X104414180Y-107010498D01*
X104294482Y-106974188D01*
X104170000Y-106961928D01*
X102370000Y-106961928D01*
X102245518Y-106974188D01*
X102125820Y-107010498D01*
X102015506Y-107069463D01*
X101918815Y-107148815D01*
X101839463Y-107245506D01*
X101780498Y-107355820D01*
X101774944Y-107374127D01*
X101708505Y-107307688D01*
X101457095Y-107139701D01*
X101177743Y-107023989D01*
X100881184Y-106965000D01*
X100578816Y-106965000D01*
X100282257Y-107023989D01*
X100002905Y-107139701D01*
X99751495Y-107307688D01*
X99537688Y-107521495D01*
X99369701Y-107772905D01*
X99253989Y-108052257D01*
X99195000Y-108348816D01*
X90808072Y-108348816D01*
X90808072Y-107600000D01*
X90795812Y-107475518D01*
X90759502Y-107355820D01*
X90700537Y-107245506D01*
X90621185Y-107148815D01*
X90524494Y-107069463D01*
X90414180Y-107010498D01*
X90294482Y-106974188D01*
X90170000Y-106961928D01*
X88370000Y-106961928D01*
X88245518Y-106974188D01*
X88125820Y-107010498D01*
X88015506Y-107069463D01*
X87918815Y-107148815D01*
X87839463Y-107245506D01*
X87780498Y-107355820D01*
X87774944Y-107374127D01*
X87708505Y-107307688D01*
X87457095Y-107139701D01*
X87177743Y-107023989D01*
X86881184Y-106965000D01*
X86578816Y-106965000D01*
X86282257Y-107023989D01*
X86002905Y-107139701D01*
X85751495Y-107307688D01*
X85537688Y-107521495D01*
X85369701Y-107772905D01*
X85253989Y-108052257D01*
X85195000Y-108348816D01*
X80660000Y-108348816D01*
X80660000Y-91366544D01*
X82645000Y-91366544D01*
X82645000Y-91633456D01*
X82697072Y-91895239D01*
X82799215Y-92141833D01*
X82947503Y-92363762D01*
X83136238Y-92552497D01*
X83358167Y-92700785D01*
X83604761Y-92802928D01*
X83866544Y-92855000D01*
X84133456Y-92855000D01*
X84395239Y-92802928D01*
X84641833Y-92700785D01*
X84863762Y-92552497D01*
X85052497Y-92363762D01*
X85200785Y-92141833D01*
X85302928Y-91895239D01*
X85355000Y-91633456D01*
X85355000Y-91366544D01*
X85302928Y-91104761D01*
X85200785Y-90858167D01*
X85052497Y-90636238D01*
X84863762Y-90447503D01*
X84641833Y-90299215D01*
X84395239Y-90197072D01*
X84133456Y-90145000D01*
X83866544Y-90145000D01*
X83604761Y-90197072D01*
X83358167Y-90299215D01*
X83136238Y-90447503D01*
X82947503Y-90636238D01*
X82799215Y-90858167D01*
X82697072Y-91104761D01*
X82645000Y-91366544D01*
X80660000Y-91366544D01*
X80660000Y-88826544D01*
X85185000Y-88826544D01*
X85185000Y-89093456D01*
X85237072Y-89355239D01*
X85339215Y-89601833D01*
X85487503Y-89823762D01*
X85676238Y-90012497D01*
X85898167Y-90160785D01*
X86144761Y-90262928D01*
X86406544Y-90315000D01*
X86673456Y-90315000D01*
X86935239Y-90262928D01*
X87181833Y-90160785D01*
X87403762Y-90012497D01*
X87592497Y-89823762D01*
X87661828Y-89720000D01*
X98510243Y-89720000D01*
X98459750Y-89740915D01*
X98134636Y-89958149D01*
X97858149Y-90234636D01*
X97640915Y-90559750D01*
X97491282Y-90920997D01*
X97415000Y-91304495D01*
X97415000Y-91695505D01*
X97491282Y-92079003D01*
X97640915Y-92440250D01*
X97858149Y-92765364D01*
X98134636Y-93041851D01*
X98459750Y-93259085D01*
X98820997Y-93408718D01*
X99204495Y-93485000D01*
X99595505Y-93485000D01*
X99979003Y-93408718D01*
X100340250Y-93259085D01*
X100665364Y-93041851D01*
X100941851Y-92765364D01*
X101159085Y-92440250D01*
X101308718Y-92079003D01*
X101385000Y-91695505D01*
X101385000Y-91304495D01*
X101340825Y-91082406D01*
X104972489Y-91082406D01*
X105010423Y-91302740D01*
X105090613Y-91511440D01*
X105118412Y-91563450D01*
X105331834Y-91598561D01*
X105930395Y-91000000D01*
X105331834Y-90401439D01*
X105118412Y-90436550D01*
X105027542Y-90640826D01*
X104978269Y-90858905D01*
X104972489Y-91082406D01*
X101340825Y-91082406D01*
X101308718Y-90920997D01*
X101159085Y-90559750D01*
X100941851Y-90234636D01*
X100665364Y-89958149D01*
X100340250Y-89740915D01*
X100289757Y-89720000D01*
X106628635Y-89720000D01*
X106620000Y-89807668D01*
X106620000Y-89807678D01*
X106616324Y-89845000D01*
X106620000Y-89882323D01*
X106620000Y-89984635D01*
X106469174Y-89917542D01*
X106251095Y-89868269D01*
X106027594Y-89862489D01*
X105807260Y-89900423D01*
X105598560Y-89980613D01*
X105546550Y-90008412D01*
X105511439Y-90221834D01*
X106110000Y-90820395D01*
X106124143Y-90806253D01*
X106245000Y-90927110D01*
X106245000Y-91072890D01*
X106124143Y-91193748D01*
X106110000Y-91179605D01*
X105511439Y-91778166D01*
X105546550Y-91991588D01*
X105750826Y-92082458D01*
X105968905Y-92131731D01*
X106192406Y-92137511D01*
X106412740Y-92099577D01*
X106495001Y-92067970D01*
X106495001Y-92661521D01*
X106490719Y-92705000D01*
X106507805Y-92878490D01*
X106558412Y-93045313D01*
X106640590Y-93199059D01*
X106723468Y-93300046D01*
X106723471Y-93300049D01*
X106751184Y-93333817D01*
X106784951Y-93361529D01*
X107768470Y-94345049D01*
X107796183Y-94378817D01*
X107829951Y-94406530D01*
X107829953Y-94406532D01*
X107832438Y-94408571D01*
X107930941Y-94489411D01*
X108084687Y-94571589D01*
X108251510Y-94622195D01*
X108381523Y-94635000D01*
X108381533Y-94635000D01*
X108424999Y-94639281D01*
X108468465Y-94635000D01*
X126289424Y-94635000D01*
X126294774Y-94661898D01*
X126372795Y-94850256D01*
X126486063Y-95019774D01*
X126630226Y-95163937D01*
X126799744Y-95277205D01*
X126988102Y-95355226D01*
X127188061Y-95395000D01*
X127391939Y-95395000D01*
X127591898Y-95355226D01*
X127780256Y-95277205D01*
X127949774Y-95163937D01*
X128093937Y-95019774D01*
X128207205Y-94850256D01*
X128285226Y-94661898D01*
X128325000Y-94461939D01*
X128325000Y-94258061D01*
X128285226Y-94058102D01*
X128207205Y-93869744D01*
X128093937Y-93700226D01*
X127949774Y-93556063D01*
X127780256Y-93442795D01*
X127591898Y-93364774D01*
X127535043Y-93353465D01*
X127336534Y-93154956D01*
X127308817Y-93121183D01*
X127174059Y-93010589D01*
X127020313Y-92928411D01*
X126853490Y-92877805D01*
X126723477Y-92865000D01*
X126723469Y-92865000D01*
X126680000Y-92860719D01*
X126636531Y-92865000D01*
X108791579Y-92865000D01*
X108265000Y-92338422D01*
X108265000Y-92069043D01*
X108318933Y-92091383D01*
X108538212Y-92135000D01*
X108761788Y-92135000D01*
X108981067Y-92091383D01*
X109187624Y-92005824D01*
X109285000Y-91940759D01*
X109382376Y-92005824D01*
X109588933Y-92091383D01*
X109808212Y-92135000D01*
X110031788Y-92135000D01*
X110251067Y-92091383D01*
X110457624Y-92005824D01*
X110555000Y-91940759D01*
X110652376Y-92005824D01*
X110858933Y-92091383D01*
X111078212Y-92135000D01*
X111301788Y-92135000D01*
X111521067Y-92091383D01*
X111727624Y-92005824D01*
X111825000Y-91940759D01*
X111922376Y-92005824D01*
X112128933Y-92091383D01*
X112348212Y-92135000D01*
X112571788Y-92135000D01*
X112791067Y-92091383D01*
X112997624Y-92005824D01*
X113095000Y-91940759D01*
X113192376Y-92005824D01*
X113398933Y-92091383D01*
X113618212Y-92135000D01*
X113841788Y-92135000D01*
X114061067Y-92091383D01*
X114267624Y-92005824D01*
X114365000Y-91940759D01*
X114462376Y-92005824D01*
X114668933Y-92091383D01*
X114888212Y-92135000D01*
X115111788Y-92135000D01*
X115331067Y-92091383D01*
X115537624Y-92005824D01*
X115635000Y-91940759D01*
X115732376Y-92005824D01*
X115938933Y-92091383D01*
X116158212Y-92135000D01*
X116381788Y-92135000D01*
X116601067Y-92091383D01*
X116807624Y-92005824D01*
X116905000Y-91940759D01*
X117002376Y-92005824D01*
X117208933Y-92091383D01*
X117428212Y-92135000D01*
X117651788Y-92135000D01*
X117871067Y-92091383D01*
X118077624Y-92005824D01*
X118175000Y-91940759D01*
X118272376Y-92005824D01*
X118478933Y-92091383D01*
X118698212Y-92135000D01*
X118921788Y-92135000D01*
X119141067Y-92091383D01*
X119347624Y-92005824D01*
X119445000Y-91940759D01*
X119542376Y-92005824D01*
X119748933Y-92091383D01*
X119968212Y-92135000D01*
X120191788Y-92135000D01*
X120411067Y-92091383D01*
X120617624Y-92005824D01*
X120715000Y-91940759D01*
X120812376Y-92005824D01*
X121018933Y-92091383D01*
X121238212Y-92135000D01*
X121461788Y-92135000D01*
X121681067Y-92091383D01*
X121887624Y-92005824D01*
X121985000Y-91940759D01*
X122082376Y-92005824D01*
X122288933Y-92091383D01*
X122508212Y-92135000D01*
X122731788Y-92135000D01*
X122951067Y-92091383D01*
X123157624Y-92005824D01*
X123255000Y-91940759D01*
X123352376Y-92005824D01*
X123558933Y-92091383D01*
X123778212Y-92135000D01*
X124001788Y-92135000D01*
X124221067Y-92091383D01*
X124427624Y-92005824D01*
X124613520Y-91881612D01*
X124771612Y-91723520D01*
X124895824Y-91537624D01*
X124981383Y-91331067D01*
X125025000Y-91111788D01*
X125025000Y-90888212D01*
X124981383Y-90668933D01*
X124895824Y-90462376D01*
X124771612Y-90276480D01*
X124725000Y-90229868D01*
X124725000Y-89575867D01*
X125565868Y-88735000D01*
X131586715Y-88735000D01*
X131709744Y-88817205D01*
X131898102Y-88895226D01*
X132098061Y-88935000D01*
X132301939Y-88935000D01*
X132501898Y-88895226D01*
X132545000Y-88877372D01*
X132545000Y-91103401D01*
X132508718Y-90920997D01*
X132359085Y-90559750D01*
X132141851Y-90234636D01*
X131865364Y-89958149D01*
X131540250Y-89740915D01*
X131179003Y-89591282D01*
X130795505Y-89515000D01*
X130404495Y-89515000D01*
X130020997Y-89591282D01*
X129659750Y-89740915D01*
X129334636Y-89958149D01*
X129058149Y-90234636D01*
X128840915Y-90559750D01*
X128691282Y-90920997D01*
X128615000Y-91304495D01*
X128615000Y-91695505D01*
X128691282Y-92079003D01*
X128840915Y-92440250D01*
X129058149Y-92765364D01*
X129334636Y-93041851D01*
X129659750Y-93259085D01*
X130020997Y-93408718D01*
X130404495Y-93485000D01*
X130795505Y-93485000D01*
X131179003Y-93408718D01*
X131540250Y-93259085D01*
X131865364Y-93041851D01*
X132141851Y-92765364D01*
X132359085Y-92440250D01*
X132508718Y-92079003D01*
X132545000Y-91896599D01*
X132545000Y-92684131D01*
X130908574Y-94320559D01*
X130876710Y-94346709D01*
X130850562Y-94378571D01*
X130772364Y-94473855D01*
X130741773Y-94531086D01*
X130694828Y-94618913D01*
X130648563Y-94771430D01*
X130647082Y-94776312D01*
X130630960Y-94940000D01*
X130635000Y-94981018D01*
X130635000Y-95448982D01*
X130635001Y-101556714D01*
X130552795Y-101679744D01*
X130474774Y-101868102D01*
X130435000Y-102068061D01*
X130435000Y-102271939D01*
X130474774Y-102471898D01*
X130552795Y-102660256D01*
X130666063Y-102829774D01*
X130810226Y-102973937D01*
X130979744Y-103087205D01*
X131168102Y-103165226D01*
X131368061Y-103205000D01*
X131571939Y-103205000D01*
X131771898Y-103165226D01*
X131960256Y-103087205D01*
X132129774Y-102973937D01*
X132273937Y-102829774D01*
X132387205Y-102660256D01*
X132465226Y-102471898D01*
X132505000Y-102271939D01*
X132505000Y-102068061D01*
X132465226Y-101868102D01*
X132387205Y-101679744D01*
X132305000Y-101556715D01*
X132305000Y-95285867D01*
X132575000Y-95015868D01*
X132575000Y-95058982D01*
X132575001Y-104836714D01*
X132492795Y-104959744D01*
X132414774Y-105148102D01*
X132375000Y-105348061D01*
X132375000Y-105551939D01*
X132414774Y-105751898D01*
X132492795Y-105940256D01*
X132606063Y-106109774D01*
X132750226Y-106253937D01*
X132919744Y-106367205D01*
X133108102Y-106445226D01*
X133308061Y-106485000D01*
X133511939Y-106485000D01*
X133711898Y-106445226D01*
X133900256Y-106367205D01*
X134069774Y-106253937D01*
X134213937Y-106109774D01*
X134263637Y-106035391D01*
X145019997Y-106035391D01*
X146510000Y-107525395D01*
X148000003Y-106035391D01*
X147813927Y-105694234D01*
X147396591Y-105478487D01*
X146945185Y-105348304D01*
X146477054Y-105308687D01*
X146010189Y-105361158D01*
X145562532Y-105503703D01*
X145206073Y-105694234D01*
X145019997Y-106035391D01*
X134263637Y-106035391D01*
X134327205Y-105940256D01*
X134405226Y-105751898D01*
X134445000Y-105551939D01*
X134445000Y-105348061D01*
X134405226Y-105148102D01*
X134327205Y-104959744D01*
X134245000Y-104836715D01*
X134245000Y-94868061D01*
X135205000Y-94868061D01*
X135205000Y-95071939D01*
X135244774Y-95271898D01*
X135322795Y-95460256D01*
X135436063Y-95629774D01*
X135580226Y-95773937D01*
X135749744Y-95887205D01*
X135938102Y-95965226D01*
X136115001Y-96000413D01*
X136115000Y-103686546D01*
X136082795Y-103734744D01*
X136004774Y-103923102D01*
X135965000Y-104123061D01*
X135965000Y-104326939D01*
X136004774Y-104526898D01*
X136082795Y-104715256D01*
X136196063Y-104884774D01*
X136340226Y-105028937D01*
X136509744Y-105142205D01*
X136698102Y-105220226D01*
X136898061Y-105260000D01*
X137101939Y-105260000D01*
X137301898Y-105220226D01*
X137490256Y-105142205D01*
X137659774Y-105028937D01*
X137803937Y-104884774D01*
X137917205Y-104715256D01*
X137995226Y-104526898D01*
X138035000Y-104326939D01*
X138035000Y-104123061D01*
X137995226Y-103923102D01*
X137917205Y-103734744D01*
X137885000Y-103686546D01*
X137885000Y-92588454D01*
X137917205Y-92540256D01*
X137995226Y-92351898D01*
X138035000Y-92151939D01*
X138035000Y-91948061D01*
X138815000Y-91948061D01*
X138815000Y-92151939D01*
X138854774Y-92351898D01*
X138932795Y-92540256D01*
X138965001Y-92588456D01*
X138965000Y-103686546D01*
X138932795Y-103734744D01*
X138854774Y-103923102D01*
X138815000Y-104123061D01*
X138815000Y-104326939D01*
X138854774Y-104526898D01*
X138932795Y-104715256D01*
X139046063Y-104884774D01*
X139190226Y-105028937D01*
X139359744Y-105142205D01*
X139548102Y-105220226D01*
X139748061Y-105260000D01*
X139951939Y-105260000D01*
X140151898Y-105220226D01*
X140340256Y-105142205D01*
X140509774Y-105028937D01*
X140653937Y-104884774D01*
X140767205Y-104715256D01*
X140845226Y-104526898D01*
X140885000Y-104326939D01*
X140885000Y-104123061D01*
X140845226Y-103923102D01*
X140767205Y-103734744D01*
X140735000Y-103686546D01*
X140735000Y-101064515D01*
X140807795Y-101240256D01*
X140921063Y-101409774D01*
X141065226Y-101553937D01*
X141234744Y-101667205D01*
X141423102Y-101745226D01*
X141623061Y-101785000D01*
X141765000Y-101785000D01*
X141765000Y-103686546D01*
X141732795Y-103734744D01*
X141654774Y-103923102D01*
X141615000Y-104123061D01*
X141615000Y-104326939D01*
X141654774Y-104526898D01*
X141732795Y-104715256D01*
X141846063Y-104884774D01*
X141990226Y-105028937D01*
X142159744Y-105142205D01*
X142348102Y-105220226D01*
X142548061Y-105260000D01*
X142751939Y-105260000D01*
X142951898Y-105220226D01*
X143140256Y-105142205D01*
X143309774Y-105028937D01*
X143453937Y-104884774D01*
X143567205Y-104715256D01*
X143645226Y-104526898D01*
X143685000Y-104326939D01*
X143685000Y-104123061D01*
X143645226Y-103923102D01*
X143567205Y-103734744D01*
X143535000Y-103686546D01*
X143535000Y-92588454D01*
X143567205Y-92540256D01*
X143645226Y-92351898D01*
X143685000Y-92151939D01*
X143685000Y-91998061D01*
X144315000Y-91998061D01*
X144315000Y-92201939D01*
X144354774Y-92401898D01*
X144432795Y-92590256D01*
X144465001Y-92638456D01*
X144465000Y-103711546D01*
X144432795Y-103759744D01*
X144354774Y-103948102D01*
X144315000Y-104148061D01*
X144315000Y-104351939D01*
X144354774Y-104551898D01*
X144432795Y-104740256D01*
X144546063Y-104909774D01*
X144690226Y-105053937D01*
X144859744Y-105167205D01*
X145048102Y-105245226D01*
X145248061Y-105285000D01*
X145451939Y-105285000D01*
X145651898Y-105245226D01*
X145840256Y-105167205D01*
X146009774Y-105053937D01*
X146153937Y-104909774D01*
X146267205Y-104740256D01*
X146345226Y-104551898D01*
X146385000Y-104351939D01*
X146385000Y-104148061D01*
X146345226Y-103948102D01*
X146267205Y-103759744D01*
X146235000Y-103711546D01*
X146235000Y-92638454D01*
X146267205Y-92590256D01*
X146345226Y-92401898D01*
X146385000Y-92201939D01*
X146385000Y-91998061D01*
X146375055Y-91948061D01*
X146965000Y-91948061D01*
X146965000Y-92151939D01*
X147004774Y-92351898D01*
X147082795Y-92540256D01*
X147115001Y-92588456D01*
X147115000Y-103686546D01*
X147082795Y-103734744D01*
X147004774Y-103923102D01*
X146965000Y-104123061D01*
X146965000Y-104326939D01*
X147004774Y-104526898D01*
X147082795Y-104715256D01*
X147196063Y-104884774D01*
X147340226Y-105028937D01*
X147509744Y-105142205D01*
X147698102Y-105220226D01*
X147898061Y-105260000D01*
X148101939Y-105260000D01*
X148301898Y-105220226D01*
X148490256Y-105142205D01*
X148659774Y-105028937D01*
X148803937Y-104884774D01*
X148917205Y-104715256D01*
X148995226Y-104526898D01*
X149035000Y-104326939D01*
X149035000Y-104123061D01*
X148995226Y-103923102D01*
X148917205Y-103734744D01*
X148885000Y-103686546D01*
X148885000Y-92588454D01*
X148917205Y-92540256D01*
X148995226Y-92351898D01*
X149035000Y-92151939D01*
X149035000Y-91948061D01*
X148995226Y-91748102D01*
X148917205Y-91559744D01*
X148803937Y-91390226D01*
X148659774Y-91246063D01*
X148490256Y-91132795D01*
X148301898Y-91054774D01*
X148101939Y-91015000D01*
X147898061Y-91015000D01*
X147698102Y-91054774D01*
X147509744Y-91132795D01*
X147340226Y-91246063D01*
X147196063Y-91390226D01*
X147082795Y-91559744D01*
X147004774Y-91748102D01*
X146965000Y-91948061D01*
X146375055Y-91948061D01*
X146345226Y-91798102D01*
X146267205Y-91609744D01*
X146153937Y-91440226D01*
X146009774Y-91296063D01*
X145840256Y-91182795D01*
X145651898Y-91104774D01*
X145451939Y-91065000D01*
X145248061Y-91065000D01*
X145048102Y-91104774D01*
X144859744Y-91182795D01*
X144690226Y-91296063D01*
X144546063Y-91440226D01*
X144432795Y-91609744D01*
X144354774Y-91798102D01*
X144315000Y-91998061D01*
X143685000Y-91998061D01*
X143685000Y-91948061D01*
X143645226Y-91748102D01*
X143567205Y-91559744D01*
X143453937Y-91390226D01*
X143309774Y-91246063D01*
X143140256Y-91132795D01*
X142951898Y-91054774D01*
X142751939Y-91015000D01*
X142548061Y-91015000D01*
X142348102Y-91054774D01*
X142159744Y-91132795D01*
X141990226Y-91246063D01*
X141925000Y-91311289D01*
X141884774Y-91271063D01*
X141715256Y-91157795D01*
X141526898Y-91079774D01*
X141326939Y-91040000D01*
X141123061Y-91040000D01*
X140923102Y-91079774D01*
X140734744Y-91157795D01*
X140565226Y-91271063D01*
X140550000Y-91286289D01*
X140509774Y-91246063D01*
X140340256Y-91132795D01*
X140151898Y-91054774D01*
X139951939Y-91015000D01*
X139748061Y-91015000D01*
X139548102Y-91054774D01*
X139359744Y-91132795D01*
X139190226Y-91246063D01*
X139046063Y-91390226D01*
X138932795Y-91559744D01*
X138854774Y-91748102D01*
X138815000Y-91948061D01*
X138035000Y-91948061D01*
X137995226Y-91748102D01*
X137917205Y-91559744D01*
X137803937Y-91390226D01*
X137659774Y-91246063D01*
X137490256Y-91132795D01*
X137301898Y-91054774D01*
X137101939Y-91015000D01*
X136898061Y-91015000D01*
X136698102Y-91054774D01*
X136509744Y-91132795D01*
X136340226Y-91246063D01*
X136196063Y-91390226D01*
X136082795Y-91559744D01*
X136004774Y-91748102D01*
X135965000Y-91948061D01*
X135965000Y-92151939D01*
X136004774Y-92351898D01*
X136082795Y-92540256D01*
X136115001Y-92588455D01*
X136115000Y-93406522D01*
X136115000Y-93914132D01*
X136083225Y-93945907D01*
X135938102Y-93974774D01*
X135749744Y-94052795D01*
X135580226Y-94166063D01*
X135436063Y-94310226D01*
X135322795Y-94479744D01*
X135244774Y-94668102D01*
X135205000Y-94868061D01*
X134245000Y-94868061D01*
X134245000Y-94645867D01*
X134741427Y-94149440D01*
X134773291Y-94123291D01*
X134877636Y-93996146D01*
X134955172Y-93851087D01*
X135002918Y-93693689D01*
X135015000Y-93571019D01*
X135015000Y-93571009D01*
X135019039Y-93530001D01*
X135015000Y-93488993D01*
X135015000Y-82521007D01*
X135019039Y-82479999D01*
X135015000Y-82438991D01*
X135015000Y-82438981D01*
X135002918Y-82316311D01*
X134955172Y-82158913D01*
X134877636Y-82013854D01*
X134773291Y-81886709D01*
X134741427Y-81860559D01*
X132825208Y-79944341D01*
X132753291Y-79856709D01*
X132665656Y-79784789D01*
X132571946Y-79691079D01*
X132545791Y-79659209D01*
X132418646Y-79554864D01*
X132273587Y-79477328D01*
X132116189Y-79429582D01*
X131993519Y-79417500D01*
X131993518Y-79417500D01*
X131952500Y-79413460D01*
X131911482Y-79417500D01*
X130940785Y-79417500D01*
X130817756Y-79335295D01*
X130629398Y-79257274D01*
X130429439Y-79217500D01*
X130225561Y-79217500D01*
X130025602Y-79257274D01*
X129837244Y-79335295D01*
X129667726Y-79448563D01*
X129523563Y-79592726D01*
X129410295Y-79762244D01*
X129332274Y-79950602D01*
X129292500Y-80150561D01*
X129292500Y-80354439D01*
X129332274Y-80554398D01*
X129410295Y-80742756D01*
X129523563Y-80912274D01*
X129667726Y-81056437D01*
X129837244Y-81169705D01*
X130025602Y-81247726D01*
X130225561Y-81287500D01*
X130385000Y-81287500D01*
X130385000Y-81351939D01*
X130424774Y-81551898D01*
X130502795Y-81740256D01*
X130616063Y-81909774D01*
X130760226Y-82053937D01*
X130929744Y-82167205D01*
X131118102Y-82245226D01*
X131300674Y-82281542D01*
X132545001Y-83525870D01*
X132545001Y-86922628D01*
X132501898Y-86904774D01*
X132301939Y-86865000D01*
X132098061Y-86865000D01*
X131898102Y-86904774D01*
X131709744Y-86982795D01*
X131586715Y-87065000D01*
X125261018Y-87065000D01*
X125219999Y-87060960D01*
X125178981Y-87065000D01*
X125056311Y-87077082D01*
X124898913Y-87124828D01*
X124753854Y-87202364D01*
X124626709Y-87306709D01*
X124600558Y-87338574D01*
X123328574Y-88610559D01*
X123296710Y-88636709D01*
X123219103Y-88731274D01*
X123192364Y-88763855D01*
X123114828Y-88908914D01*
X123067082Y-89066312D01*
X123050960Y-89230000D01*
X123055001Y-89271028D01*
X123055001Y-89951668D01*
X122951067Y-89908617D01*
X122731788Y-89865000D01*
X122508212Y-89865000D01*
X122288933Y-89908617D01*
X122082376Y-89994176D01*
X121985000Y-90059241D01*
X121887624Y-89994176D01*
X121681067Y-89908617D01*
X121461788Y-89865000D01*
X121238212Y-89865000D01*
X121018933Y-89908617D01*
X120812376Y-89994176D01*
X120715000Y-90059241D01*
X120617624Y-89994176D01*
X120411067Y-89908617D01*
X120191788Y-89865000D01*
X119968212Y-89865000D01*
X119748933Y-89908617D01*
X119542376Y-89994176D01*
X119445000Y-90059241D01*
X119347624Y-89994176D01*
X119141067Y-89908617D01*
X118921788Y-89865000D01*
X118698212Y-89865000D01*
X118478933Y-89908617D01*
X118457170Y-89917632D01*
X118639802Y-89735000D01*
X120962678Y-89735000D01*
X121000000Y-89738676D01*
X121037322Y-89735000D01*
X121037333Y-89735000D01*
X121148986Y-89724003D01*
X121292247Y-89680546D01*
X121424276Y-89609974D01*
X121540001Y-89515001D01*
X121563804Y-89485997D01*
X122711003Y-88338799D01*
X122740001Y-88315001D01*
X122834974Y-88199276D01*
X122905546Y-88067247D01*
X122949003Y-87923986D01*
X122960000Y-87812333D01*
X122960000Y-87812324D01*
X122963676Y-87775001D01*
X122960000Y-87737678D01*
X122960000Y-83448061D01*
X125740000Y-83448061D01*
X125740000Y-83651939D01*
X125779774Y-83851898D01*
X125857795Y-84040256D01*
X125971063Y-84209774D01*
X126115226Y-84353937D01*
X126284744Y-84467205D01*
X126473102Y-84545226D01*
X126673061Y-84585000D01*
X126876939Y-84585000D01*
X127076898Y-84545226D01*
X127265256Y-84467205D01*
X127388285Y-84385000D01*
X129124130Y-84385000D01*
X129209744Y-84442205D01*
X129398102Y-84520226D01*
X129598061Y-84560000D01*
X129801939Y-84560000D01*
X130001898Y-84520226D01*
X130190256Y-84442205D01*
X130359774Y-84328937D01*
X130503937Y-84184774D01*
X130617205Y-84015256D01*
X130695226Y-83826898D01*
X130735000Y-83626939D01*
X130735000Y-83423061D01*
X130695226Y-83223102D01*
X130617205Y-83034744D01*
X130503937Y-82865226D01*
X130359774Y-82721063D01*
X130190256Y-82607795D01*
X130001898Y-82529774D01*
X129801939Y-82490000D01*
X129598061Y-82490000D01*
X129398102Y-82529774D01*
X129209744Y-82607795D01*
X129049300Y-82715000D01*
X127388285Y-82715000D01*
X127265256Y-82632795D01*
X127076898Y-82554774D01*
X126876939Y-82515000D01*
X126673061Y-82515000D01*
X126473102Y-82554774D01*
X126284744Y-82632795D01*
X126115226Y-82746063D01*
X125971063Y-82890226D01*
X125857795Y-83059744D01*
X125779774Y-83248102D01*
X125740000Y-83448061D01*
X122960000Y-83448061D01*
X122960000Y-82303711D01*
X123003937Y-82259774D01*
X123117205Y-82090256D01*
X123195226Y-81901898D01*
X123235000Y-81701939D01*
X123235000Y-81628295D01*
X123332753Y-81680546D01*
X123476014Y-81724003D01*
X123587667Y-81735000D01*
X123587676Y-81735000D01*
X123624999Y-81738676D01*
X123662322Y-81735000D01*
X126521289Y-81735000D01*
X126565226Y-81778937D01*
X126734744Y-81892205D01*
X126923102Y-81970226D01*
X127123061Y-82010000D01*
X127326939Y-82010000D01*
X127526898Y-81970226D01*
X127715256Y-81892205D01*
X127884774Y-81778937D01*
X128028937Y-81634774D01*
X128142205Y-81465256D01*
X128220226Y-81276898D01*
X128260000Y-81076939D01*
X128260000Y-80873061D01*
X128220226Y-80673102D01*
X128142205Y-80484744D01*
X128028937Y-80315226D01*
X127884774Y-80171063D01*
X127715256Y-80057795D01*
X127575414Y-79999870D01*
X127545226Y-79848102D01*
X127467205Y-79659744D01*
X127353937Y-79490226D01*
X127209774Y-79346063D01*
X127040256Y-79232795D01*
X126851898Y-79154774D01*
X126651939Y-79115000D01*
X126448061Y-79115000D01*
X126248102Y-79154774D01*
X126059744Y-79232795D01*
X125890226Y-79346063D01*
X125846289Y-79390000D01*
X124239802Y-79390000D01*
X123563803Y-78714002D01*
X123540001Y-78684999D01*
X123424276Y-78590026D01*
X123292247Y-78519454D01*
X123148986Y-78475997D01*
X123037333Y-78465000D01*
X123037322Y-78465000D01*
X123000000Y-78461324D01*
X122962678Y-78465000D01*
X119837323Y-78465000D01*
X119800000Y-78461324D01*
X119762677Y-78465000D01*
X119762667Y-78465000D01*
X119651014Y-78475997D01*
X119507753Y-78519454D01*
X119375723Y-78590026D01*
X119294741Y-78656487D01*
X119259999Y-78684999D01*
X119236201Y-78713997D01*
X118264002Y-79686196D01*
X118234999Y-79709999D01*
X118180822Y-79776014D01*
X118140026Y-79825724D01*
X118086962Y-79925000D01*
X118069454Y-79957754D01*
X118025997Y-80101015D01*
X118015000Y-80212668D01*
X118015000Y-80212678D01*
X118011324Y-80250000D01*
X118015000Y-80287322D01*
X118015000Y-81160198D01*
X117885199Y-81290000D01*
X116234775Y-81290000D01*
X116309401Y-81199069D01*
X116391579Y-81045323D01*
X116442185Y-80878500D01*
X116454990Y-80748487D01*
X116454990Y-80748479D01*
X116459271Y-80705010D01*
X116454990Y-80661541D01*
X116454990Y-75909086D01*
X116471183Y-75928817D01*
X116504951Y-75956530D01*
X116504953Y-75956532D01*
X116561928Y-76003290D01*
X116605941Y-76039411D01*
X116759687Y-76121589D01*
X116926510Y-76172195D01*
X117056523Y-76185000D01*
X117056533Y-76185000D01*
X117099999Y-76189281D01*
X117143466Y-76185000D01*
X119456531Y-76185000D01*
X119500000Y-76189281D01*
X119543469Y-76185000D01*
X119543477Y-76185000D01*
X119673490Y-76172195D01*
X119840313Y-76121589D01*
X119994059Y-76039411D01*
X120128817Y-75928817D01*
X120156534Y-75895044D01*
X120620045Y-75431533D01*
X120653817Y-75403817D01*
X120732402Y-75308061D01*
X130595000Y-75308061D01*
X130595000Y-75511939D01*
X130634774Y-75711898D01*
X130712795Y-75900256D01*
X130826063Y-76069774D01*
X130914454Y-76158165D01*
X130864774Y-76278102D01*
X130825000Y-76478061D01*
X130825000Y-76681939D01*
X130864774Y-76881898D01*
X130942795Y-77070256D01*
X131056063Y-77239774D01*
X131200226Y-77383937D01*
X131369744Y-77497205D01*
X131558102Y-77575226D01*
X131758061Y-77615000D01*
X131961939Y-77615000D01*
X132161898Y-77575226D01*
X132350256Y-77497205D01*
X132519774Y-77383937D01*
X132663937Y-77239774D01*
X132777205Y-77070256D01*
X132855226Y-76881898D01*
X132884093Y-76736775D01*
X133855868Y-75765000D01*
X141704133Y-75765000D01*
X142245001Y-76305869D01*
X142245000Y-79211062D01*
X142240960Y-79252081D01*
X142251707Y-79361201D01*
X142257082Y-79415769D01*
X142304828Y-79573167D01*
X142382364Y-79718226D01*
X142486709Y-79845372D01*
X142518578Y-79871526D01*
X143328482Y-80681432D01*
X143354628Y-80713291D01*
X143386487Y-80739437D01*
X143386489Y-80739439D01*
X143455486Y-80796063D01*
X143481773Y-80817636D01*
X143626832Y-80895172D01*
X143784230Y-80942918D01*
X143896108Y-80953937D01*
X143914849Y-80955783D01*
X144094866Y-81175134D01*
X144320986Y-81360706D01*
X144375791Y-81390000D01*
X144320986Y-81419294D01*
X144094866Y-81604866D01*
X143909294Y-81830986D01*
X143771401Y-82088966D01*
X143686487Y-82368889D01*
X143657815Y-82660000D01*
X143686487Y-82951111D01*
X143771401Y-83231034D01*
X143909294Y-83489014D01*
X144094866Y-83715134D01*
X144320986Y-83900706D01*
X144578966Y-84038599D01*
X144858889Y-84123513D01*
X145077050Y-84145000D01*
X145222950Y-84145000D01*
X145441111Y-84123513D01*
X145721034Y-84038599D01*
X145979014Y-83900706D01*
X146205134Y-83715134D01*
X146390706Y-83489014D01*
X146528599Y-83231034D01*
X146613513Y-82951111D01*
X146642185Y-82660000D01*
X146613513Y-82368889D01*
X146528599Y-82088966D01*
X146390706Y-81830986D01*
X146205134Y-81604866D01*
X145979014Y-81419294D01*
X145924209Y-81390000D01*
X145979014Y-81360706D01*
X146205134Y-81175134D01*
X146390706Y-80949014D01*
X146528599Y-80691034D01*
X146613513Y-80411111D01*
X146642185Y-80120000D01*
X146613513Y-79828889D01*
X146528599Y-79548966D01*
X146390706Y-79290986D01*
X146205134Y-79064866D01*
X145979014Y-78879294D01*
X145924209Y-78850000D01*
X145979014Y-78820706D01*
X146205134Y-78635134D01*
X146390706Y-78409014D01*
X146528599Y-78151034D01*
X146613513Y-77871111D01*
X146642185Y-77580000D01*
X146613513Y-77288889D01*
X146528599Y-77008966D01*
X146390706Y-76750986D01*
X146205134Y-76524866D01*
X146175313Y-76500393D01*
X146244180Y-76479502D01*
X146354494Y-76420537D01*
X146451185Y-76341185D01*
X146530537Y-76244494D01*
X146589502Y-76134180D01*
X146625812Y-76014482D01*
X146638072Y-75890000D01*
X146635000Y-75325750D01*
X146476250Y-75167000D01*
X145277000Y-75167000D01*
X145277000Y-75187000D01*
X145023000Y-75187000D01*
X145023000Y-75167000D01*
X145003000Y-75167000D01*
X145003000Y-74913000D01*
X145023000Y-74913000D01*
X145023000Y-73713750D01*
X145277000Y-73713750D01*
X145277000Y-74913000D01*
X146476250Y-74913000D01*
X146635000Y-74754250D01*
X146638072Y-74190000D01*
X146625812Y-74065518D01*
X146589502Y-73945820D01*
X146530537Y-73835506D01*
X146451185Y-73738815D01*
X146354494Y-73659463D01*
X146244180Y-73600498D01*
X146124482Y-73564188D01*
X146000000Y-73551928D01*
X145435750Y-73555000D01*
X145277000Y-73713750D01*
X145023000Y-73713750D01*
X144864250Y-73555000D01*
X144300000Y-73551928D01*
X144175518Y-73564188D01*
X144055820Y-73600498D01*
X143945506Y-73659463D01*
X143848815Y-73738815D01*
X143769463Y-73835506D01*
X143710498Y-73945820D01*
X143674188Y-74065518D01*
X143661928Y-74190000D01*
X143663357Y-74452489D01*
X142849446Y-73638579D01*
X142823291Y-73606709D01*
X142696146Y-73502364D01*
X142551087Y-73424828D01*
X142393689Y-73377082D01*
X142271019Y-73365000D01*
X142271018Y-73365000D01*
X142230000Y-73360960D01*
X142188982Y-73365000D01*
X132881007Y-73365000D01*
X132839999Y-73360961D01*
X132798991Y-73365000D01*
X132798981Y-73365000D01*
X132676311Y-73377082D01*
X132518913Y-73424828D01*
X132373854Y-73502364D01*
X132246709Y-73606709D01*
X132220558Y-73638574D01*
X131473225Y-74385907D01*
X131328102Y-74414774D01*
X131139744Y-74492795D01*
X130970226Y-74606063D01*
X130826063Y-74750226D01*
X130712795Y-74919744D01*
X130634774Y-75108102D01*
X130595000Y-75308061D01*
X120732402Y-75308061D01*
X120764411Y-75269059D01*
X120846589Y-75115313D01*
X120897195Y-74948490D01*
X120910000Y-74818477D01*
X120910000Y-74818467D01*
X120914281Y-74775001D01*
X120910000Y-74731535D01*
X120910000Y-73335000D01*
X129961546Y-73335000D01*
X130009744Y-73367205D01*
X130198102Y-73445226D01*
X130398061Y-73485000D01*
X130601939Y-73485000D01*
X130801898Y-73445226D01*
X130990256Y-73367205D01*
X131159774Y-73253937D01*
X131303937Y-73109774D01*
X131417205Y-72940256D01*
X131495226Y-72751898D01*
X131535000Y-72551939D01*
X131535000Y-72348061D01*
X131495226Y-72148102D01*
X131417205Y-71959744D01*
X131303937Y-71790226D01*
X131159774Y-71646063D01*
X130990256Y-71532795D01*
X130801898Y-71454774D01*
X130601939Y-71415000D01*
X130398061Y-71415000D01*
X130198102Y-71454774D01*
X130009744Y-71532795D01*
X129961546Y-71565000D01*
X120675700Y-71565000D01*
X120515256Y-71457795D01*
X120326898Y-71379774D01*
X120126939Y-71340000D01*
X119923061Y-71340000D01*
X119723102Y-71379774D01*
X119534744Y-71457795D01*
X119365226Y-71571063D01*
X119221063Y-71715226D01*
X119107795Y-71884744D01*
X119029774Y-72073102D01*
X118990000Y-72273061D01*
X118990000Y-72476939D01*
X119029774Y-72676898D01*
X119107795Y-72865256D01*
X119140001Y-72913455D01*
X119140000Y-74408422D01*
X119133422Y-74415000D01*
X117466579Y-74415000D01*
X116381531Y-73329953D01*
X116353816Y-73296182D01*
X116219058Y-73185588D01*
X116065312Y-73103410D01*
X115898489Y-73052804D01*
X115768476Y-73039999D01*
X115768468Y-73039999D01*
X115724999Y-73035718D01*
X115681530Y-73039999D01*
X115469382Y-73039999D01*
X115467205Y-73034744D01*
X115353937Y-72865226D01*
X115209774Y-72721063D01*
X115040256Y-72607795D01*
X114851898Y-72529774D01*
X114651939Y-72490000D01*
X114448061Y-72490000D01*
X114248102Y-72529774D01*
X114059744Y-72607795D01*
X113890226Y-72721063D01*
X113746063Y-72865226D01*
X113632795Y-73034744D01*
X113554774Y-73223102D01*
X113515000Y-73423061D01*
X113515000Y-73626939D01*
X113554774Y-73826898D01*
X113591267Y-73915000D01*
X113466579Y-73915000D01*
X112985000Y-73433422D01*
X112985000Y-71843465D01*
X112989281Y-71799999D01*
X112985000Y-71756532D01*
X112985000Y-71756523D01*
X112972195Y-71626510D01*
X112921589Y-71459687D01*
X112839411Y-71305941D01*
X112728817Y-71171183D01*
X112695050Y-71143471D01*
X112056534Y-70504956D01*
X112028817Y-70471183D01*
X111894059Y-70360589D01*
X111740313Y-70278411D01*
X111573490Y-70227805D01*
X111443477Y-70215000D01*
X111443469Y-70215000D01*
X111400000Y-70210719D01*
X111356531Y-70215000D01*
X109266579Y-70215000D01*
X108912500Y-69860922D01*
X108912500Y-68539156D01*
X108944705Y-68490958D01*
X109022726Y-68302600D01*
X109062500Y-68102641D01*
X109062500Y-67898763D01*
X109029286Y-67731785D01*
X109032795Y-67740256D01*
X109146063Y-67909774D01*
X109290226Y-68053937D01*
X109459744Y-68167205D01*
X109648102Y-68245226D01*
X109675679Y-68250711D01*
X109687274Y-68309006D01*
X109765295Y-68497364D01*
X109878563Y-68666882D01*
X110022726Y-68811045D01*
X110192244Y-68924313D01*
X110289460Y-68964582D01*
X110322274Y-69129548D01*
X110400295Y-69317906D01*
X110513563Y-69487424D01*
X110657726Y-69631587D01*
X110827244Y-69744855D01*
X111015602Y-69822876D01*
X111215561Y-69862650D01*
X111419439Y-69862650D01*
X111619398Y-69822876D01*
X111807756Y-69744855D01*
X111977274Y-69631587D01*
X111996211Y-69612650D01*
X112209685Y-69612650D01*
X112242115Y-69615844D01*
X112286505Y-69620216D01*
X112286511Y-69620216D01*
X112325066Y-69624013D01*
X112363621Y-69620216D01*
X122888789Y-69620216D01*
X122907726Y-69639153D01*
X123077244Y-69752421D01*
X123265602Y-69830442D01*
X123465561Y-69870216D01*
X123669439Y-69870216D01*
X123869398Y-69830442D01*
X124057756Y-69752421D01*
X124227274Y-69639153D01*
X124371437Y-69494990D01*
X124484705Y-69325472D01*
X124562726Y-69137114D01*
X124602500Y-68937155D01*
X124602500Y-68733277D01*
X124562726Y-68533318D01*
X124484705Y-68344960D01*
X124371437Y-68175442D01*
X124227274Y-68031279D01*
X124057756Y-67918011D01*
X123962180Y-67878422D01*
X123927726Y-67705210D01*
X123849705Y-67516852D01*
X123736437Y-67347334D01*
X123592274Y-67203171D01*
X123422756Y-67089903D01*
X123234398Y-67011882D01*
X123206821Y-67006397D01*
X123195226Y-66948102D01*
X123117205Y-66759744D01*
X123003937Y-66590226D01*
X122859774Y-66446063D01*
X122690256Y-66332795D01*
X122501898Y-66254774D01*
X122301939Y-66215000D01*
X122098061Y-66215000D01*
X121898102Y-66254774D01*
X121709744Y-66332795D01*
X121540226Y-66446063D01*
X121521289Y-66465000D01*
X110628711Y-66465000D01*
X110609774Y-66446063D01*
X110440256Y-66332795D01*
X110251898Y-66254774D01*
X110051939Y-66215000D01*
X109848061Y-66215000D01*
X109648102Y-66254774D01*
X109459744Y-66332795D01*
X109290226Y-66446063D01*
X109146063Y-66590226D01*
X109032795Y-66759744D01*
X108954774Y-66948102D01*
X108915000Y-67148061D01*
X108915000Y-67351939D01*
X108948214Y-67518917D01*
X108944705Y-67510446D01*
X108831437Y-67340928D01*
X108687274Y-67196765D01*
X108517756Y-67083497D01*
X108329398Y-67005476D01*
X108129439Y-66965702D01*
X107925561Y-66965702D01*
X107725602Y-67005476D01*
X107537244Y-67083497D01*
X107367726Y-67196765D01*
X107223563Y-67340928D01*
X107110295Y-67510446D01*
X107032274Y-67698804D01*
X106992500Y-67898763D01*
X106992500Y-68102641D01*
X107032274Y-68302600D01*
X107110295Y-68490958D01*
X107142500Y-68539157D01*
X107142501Y-70184021D01*
X107138219Y-70227500D01*
X107155305Y-70400990D01*
X107205912Y-70567813D01*
X107288090Y-70721559D01*
X107370968Y-70822546D01*
X107370971Y-70822549D01*
X107398684Y-70856317D01*
X107432451Y-70884029D01*
X108243470Y-71695049D01*
X108271183Y-71728817D01*
X108304951Y-71756530D01*
X108304953Y-71756532D01*
X108346009Y-71790226D01*
X108405941Y-71839411D01*
X108559687Y-71921589D01*
X108726510Y-71972195D01*
X108856523Y-71985000D01*
X108856533Y-71985000D01*
X108899999Y-71989281D01*
X108943465Y-71985000D01*
X111033422Y-71985000D01*
X111215000Y-72166579D01*
X111215001Y-73756521D01*
X111210719Y-73800000D01*
X111227805Y-73973490D01*
X111278412Y-74140313D01*
X111360590Y-74294059D01*
X111443468Y-74395046D01*
X111443471Y-74395049D01*
X111471184Y-74428817D01*
X111504951Y-74456529D01*
X112443470Y-75395049D01*
X112471183Y-75428817D01*
X112504951Y-75456530D01*
X112504953Y-75456532D01*
X112605941Y-75539411D01*
X112759686Y-75621589D01*
X112844097Y-75647195D01*
X112926510Y-75672195D01*
X113056523Y-75685000D01*
X113056531Y-75685000D01*
X113100000Y-75689281D01*
X113143469Y-75685000D01*
X113782850Y-75685000D01*
X113682795Y-75834744D01*
X113604774Y-76023102D01*
X113565000Y-76223061D01*
X113565000Y-76426939D01*
X113604774Y-76626898D01*
X113682795Y-76815256D01*
X113796063Y-76984774D01*
X113815000Y-77003711D01*
X113815001Y-78230236D01*
X113653805Y-78391432D01*
X113627023Y-78391432D01*
X113427064Y-78431206D01*
X113238706Y-78509227D01*
X113069188Y-78622495D01*
X112925025Y-78766658D01*
X112811757Y-78936176D01*
X112733736Y-79124534D01*
X112693962Y-79324493D01*
X112693962Y-79528371D01*
X112733736Y-79728330D01*
X112811757Y-79916688D01*
X112908857Y-80062009D01*
X112788721Y-80111772D01*
X112619203Y-80225040D01*
X112475040Y-80369203D01*
X112361772Y-80538721D01*
X112283751Y-80727079D01*
X112243977Y-80927038D01*
X112243977Y-81130916D01*
X112275621Y-81290000D01*
X110139802Y-81290000D01*
X109713803Y-80864002D01*
X109690001Y-80834999D01*
X109574276Y-80740026D01*
X109442247Y-80669454D01*
X109298986Y-80625997D01*
X109187333Y-80615000D01*
X109187322Y-80615000D01*
X109150000Y-80611324D01*
X109112678Y-80615000D01*
X104412342Y-80615000D01*
X104375019Y-80611324D01*
X104337696Y-80615000D01*
X104337687Y-80615000D01*
X104226034Y-80625997D01*
X104082773Y-80669454D01*
X103950744Y-80740026D01*
X103835019Y-80834999D01*
X103811220Y-80863998D01*
X103735208Y-80940010D01*
X103673071Y-80940010D01*
X103473112Y-80979784D01*
X103284754Y-81057805D01*
X103115236Y-81171073D01*
X102971073Y-81315236D01*
X102857805Y-81484754D01*
X102779784Y-81673112D01*
X102740010Y-81873071D01*
X102740010Y-82076949D01*
X102779784Y-82276908D01*
X102857805Y-82465266D01*
X102971073Y-82634784D01*
X103115236Y-82778947D01*
X103284754Y-82892215D01*
X103473112Y-82970236D01*
X103673071Y-83010010D01*
X103876949Y-83010010D01*
X104076908Y-82970236D01*
X104265266Y-82892215D01*
X104434784Y-82778947D01*
X104578947Y-82634784D01*
X104692215Y-82465266D01*
X104770236Y-82276908D01*
X104798463Y-82135000D01*
X106552500Y-82135000D01*
X106552500Y-82201939D01*
X106592274Y-82401898D01*
X106670295Y-82590256D01*
X106783563Y-82759774D01*
X106927726Y-82903937D01*
X107097244Y-83017205D01*
X107285602Y-83095226D01*
X107485561Y-83135000D01*
X107547698Y-83135000D01*
X107623711Y-83211013D01*
X107647510Y-83240012D01*
X107763235Y-83334985D01*
X107895264Y-83405557D01*
X108038525Y-83449014D01*
X108150178Y-83460011D01*
X108150186Y-83460011D01*
X108187511Y-83463687D01*
X108224836Y-83460011D01*
X118537667Y-83460011D01*
X118574989Y-83463687D01*
X118612311Y-83460011D01*
X118612322Y-83460011D01*
X118723975Y-83449014D01*
X118867236Y-83405557D01*
X118999265Y-83334985D01*
X119114990Y-83240012D01*
X119138792Y-83211009D01*
X119911002Y-82438799D01*
X119940001Y-82415001D01*
X120034974Y-82299276D01*
X120052089Y-82267256D01*
X120105546Y-82167247D01*
X120149003Y-82023986D01*
X120151556Y-81998061D01*
X120160000Y-81912332D01*
X120160000Y-81912325D01*
X120163676Y-81875000D01*
X120160000Y-81837675D01*
X120160000Y-80964801D01*
X120315000Y-80809802D01*
X120315000Y-80976939D01*
X120354774Y-81176898D01*
X120432795Y-81365256D01*
X120546063Y-81534774D01*
X120590001Y-81578712D01*
X120590000Y-87310198D01*
X120360199Y-87540000D01*
X117487322Y-87540000D01*
X117449999Y-87536324D01*
X117412677Y-87540000D01*
X117412667Y-87540000D01*
X117301014Y-87550997D01*
X117157753Y-87594454D01*
X117025723Y-87665026D01*
X116942083Y-87733668D01*
X116909999Y-87759999D01*
X116886201Y-87788997D01*
X115758998Y-88916201D01*
X115730000Y-88939999D01*
X115706202Y-88968997D01*
X115706201Y-88968998D01*
X115635026Y-89055724D01*
X115564454Y-89187754D01*
X115544891Y-89252247D01*
X115528890Y-89304999D01*
X115520998Y-89331015D01*
X115506324Y-89480000D01*
X115510001Y-89517332D01*
X115510001Y-89982734D01*
X115331067Y-89908617D01*
X115111788Y-89865000D01*
X114888212Y-89865000D01*
X114668933Y-89908617D01*
X114462376Y-89994176D01*
X114365000Y-90059241D01*
X114267624Y-89994176D01*
X114061067Y-89908617D01*
X113841788Y-89865000D01*
X113618212Y-89865000D01*
X113398933Y-89908617D01*
X113192376Y-89994176D01*
X113095000Y-90059241D01*
X112997624Y-89994176D01*
X112791067Y-89908617D01*
X112571788Y-89865000D01*
X112348212Y-89865000D01*
X112128933Y-89908617D01*
X111922376Y-89994176D01*
X111825000Y-90059241D01*
X111727624Y-89994176D01*
X111521067Y-89908617D01*
X111301788Y-89865000D01*
X111078212Y-89865000D01*
X110858933Y-89908617D01*
X110652376Y-89994176D01*
X110555000Y-90059241D01*
X110457624Y-89994176D01*
X110251067Y-89908617D01*
X110031788Y-89865000D01*
X109808212Y-89865000D01*
X109771125Y-89872377D01*
X109810000Y-89676939D01*
X109810000Y-89473061D01*
X109770226Y-89273102D01*
X109692205Y-89084744D01*
X109578937Y-88915226D01*
X109434774Y-88771063D01*
X109265256Y-88657795D01*
X109076898Y-88579774D01*
X108876939Y-88540000D01*
X108673061Y-88540000D01*
X108473102Y-88579774D01*
X108284744Y-88657795D01*
X108115226Y-88771063D01*
X108071289Y-88815000D01*
X107732813Y-88815000D01*
X107741059Y-88731274D01*
X107741059Y-88731265D01*
X107744735Y-88693942D01*
X107741059Y-88656619D01*
X107741059Y-87485075D01*
X107784996Y-87441138D01*
X107898264Y-87271620D01*
X107976285Y-87083262D01*
X108016059Y-86883303D01*
X108016059Y-86679425D01*
X107976285Y-86479466D01*
X107898264Y-86291108D01*
X107784996Y-86121590D01*
X107640833Y-85977427D01*
X107471315Y-85864159D01*
X107282957Y-85786138D01*
X107082998Y-85746364D01*
X106879120Y-85746364D01*
X106679161Y-85786138D01*
X106490803Y-85864159D01*
X106321285Y-85977427D01*
X106177122Y-86121590D01*
X106063854Y-86291108D01*
X105985833Y-86479466D01*
X105946059Y-86679425D01*
X105946059Y-86883303D01*
X105985833Y-87083262D01*
X106063854Y-87271620D01*
X106177122Y-87441138D01*
X106221060Y-87485076D01*
X106221059Y-88200000D01*
X87661828Y-88200000D01*
X87592497Y-88096238D01*
X87403762Y-87907503D01*
X87181833Y-87759215D01*
X86935239Y-87657072D01*
X86673456Y-87605000D01*
X86406544Y-87605000D01*
X86144761Y-87657072D01*
X85898167Y-87759215D01*
X85676238Y-87907503D01*
X85487503Y-88096238D01*
X85339215Y-88318167D01*
X85237072Y-88564761D01*
X85185000Y-88826544D01*
X80660000Y-88826544D01*
X80660000Y-87355560D01*
X83244045Y-87355560D01*
X83305932Y-87591368D01*
X83547790Y-87704266D01*
X83807027Y-87767811D01*
X84073680Y-87779561D01*
X84337501Y-87739063D01*
X84588353Y-87647875D01*
X84694068Y-87591368D01*
X84755955Y-87355560D01*
X84000000Y-86599605D01*
X83244045Y-87355560D01*
X80660000Y-87355560D01*
X80660000Y-86493680D01*
X82640439Y-86493680D01*
X82680937Y-86757501D01*
X82772125Y-87008353D01*
X82828632Y-87114068D01*
X83064440Y-87175955D01*
X83820395Y-86420000D01*
X84179605Y-86420000D01*
X84935560Y-87175955D01*
X85171368Y-87114068D01*
X85284266Y-86872210D01*
X85347811Y-86612973D01*
X85359561Y-86346320D01*
X85319063Y-86082499D01*
X85227875Y-85831647D01*
X85171368Y-85725932D01*
X84935560Y-85664045D01*
X84179605Y-86420000D01*
X83820395Y-86420000D01*
X83064440Y-85664045D01*
X82828632Y-85725932D01*
X82715734Y-85967790D01*
X82652189Y-86227027D01*
X82640439Y-86493680D01*
X80660000Y-86493680D01*
X80660000Y-85484440D01*
X83244045Y-85484440D01*
X84000000Y-86240395D01*
X84755955Y-85484440D01*
X84694068Y-85248632D01*
X84452210Y-85135734D01*
X84192973Y-85072189D01*
X83926320Y-85060439D01*
X83662499Y-85100937D01*
X83411647Y-85192125D01*
X83305932Y-85248632D01*
X83244045Y-85484440D01*
X80660000Y-85484440D01*
X80660000Y-68627000D01*
X88000000Y-68627000D01*
X88024776Y-68624560D01*
X88048601Y-68617333D01*
X88070557Y-68605597D01*
X88089803Y-68589803D01*
X88105597Y-68570557D01*
X88117333Y-68548601D01*
X88124560Y-68524776D01*
X88127000Y-68500000D01*
X88127000Y-60160000D01*
X97932785Y-60160000D01*
X97858149Y-60234636D01*
X97858149Y-60234636D01*
G37*
X97858149Y-60234636D02*
X97640915Y-60559750D01*
X97491282Y-60920997D01*
X97415000Y-61304495D01*
X97415000Y-61695505D01*
X97491282Y-62079003D01*
X97640915Y-62440250D01*
X97858149Y-62765364D01*
X98134636Y-63041851D01*
X98459750Y-63259085D01*
X98820997Y-63408718D01*
X99204495Y-63485000D01*
X99595505Y-63485000D01*
X99979003Y-63408718D01*
X100340250Y-63259085D01*
X100665364Y-63041851D01*
X100941851Y-62765364D01*
X101159085Y-62440250D01*
X101308718Y-62079003D01*
X101385000Y-61695505D01*
X101385000Y-61400000D01*
X103761928Y-61400000D01*
X103761928Y-63100000D01*
X103774188Y-63224482D01*
X103810498Y-63344180D01*
X103869463Y-63454494D01*
X103948815Y-63551185D01*
X104045506Y-63630537D01*
X104155820Y-63689502D01*
X104275518Y-63725812D01*
X104400000Y-63738072D01*
X106100000Y-63738072D01*
X106224482Y-63725812D01*
X106344180Y-63689502D01*
X106454494Y-63630537D01*
X106551185Y-63551185D01*
X106630537Y-63454494D01*
X106689502Y-63344180D01*
X106710393Y-63275313D01*
X106734866Y-63305134D01*
X106960986Y-63490706D01*
X107218966Y-63628599D01*
X107498889Y-63713513D01*
X107717050Y-63735000D01*
X107862950Y-63735000D01*
X108081111Y-63713513D01*
X108361034Y-63628599D01*
X108619014Y-63490706D01*
X108845134Y-63305134D01*
X109030706Y-63079014D01*
X109065201Y-63014477D01*
X109134822Y-63131355D01*
X109329731Y-63347588D01*
X109563080Y-63521641D01*
X109825901Y-63646825D01*
X109973110Y-63691476D01*
X110203000Y-63570155D01*
X110203000Y-62377000D01*
X110183000Y-62377000D01*
X110183000Y-62123000D01*
X110203000Y-62123000D01*
X110203000Y-60929845D01*
X110457000Y-60929845D01*
X110457000Y-62123000D01*
X110477000Y-62123000D01*
X110477000Y-62377000D01*
X110457000Y-62377000D01*
X110457000Y-63570155D01*
X110686890Y-63691476D01*
X110834099Y-63646825D01*
X111096920Y-63521641D01*
X111330269Y-63347588D01*
X111525178Y-63131355D01*
X111594799Y-63014477D01*
X111629294Y-63079014D01*
X111814866Y-63305134D01*
X112040986Y-63490706D01*
X112298966Y-63628599D01*
X112578889Y-63713513D01*
X112797050Y-63735000D01*
X112942950Y-63735000D01*
X113161111Y-63713513D01*
X113441034Y-63628599D01*
X113699014Y-63490706D01*
X113925134Y-63305134D01*
X114110706Y-63079014D01*
X114248599Y-62821034D01*
X114333513Y-62541111D01*
X114362185Y-62250000D01*
X114333513Y-61958889D01*
X114248599Y-61678966D01*
X114110706Y-61420986D01*
X114093484Y-61400000D01*
X116011928Y-61400000D01*
X116011928Y-63100000D01*
X116024188Y-63224482D01*
X116060498Y-63344180D01*
X116119463Y-63454494D01*
X116198815Y-63551185D01*
X116295506Y-63630537D01*
X116405820Y-63689502D01*
X116525518Y-63725812D01*
X116650000Y-63738072D01*
X118350000Y-63738072D01*
X118474482Y-63725812D01*
X118594180Y-63689502D01*
X118704494Y-63630537D01*
X118801185Y-63551185D01*
X118880537Y-63454494D01*
X118939502Y-63344180D01*
X118960393Y-63275313D01*
X118984866Y-63305134D01*
X119210986Y-63490706D01*
X119468966Y-63628599D01*
X119748889Y-63713513D01*
X119967050Y-63735000D01*
X120112950Y-63735000D01*
X120331111Y-63713513D01*
X120611034Y-63628599D01*
X120869014Y-63490706D01*
X121095134Y-63305134D01*
X121280706Y-63079014D01*
X121315201Y-63014477D01*
X121384822Y-63131355D01*
X121579731Y-63347588D01*
X121813080Y-63521641D01*
X122075901Y-63646825D01*
X122223110Y-63691476D01*
X122453000Y-63570155D01*
X122453000Y-62377000D01*
X122433000Y-62377000D01*
X122433000Y-62123000D01*
X122453000Y-62123000D01*
X122453000Y-60929845D01*
X122707000Y-60929845D01*
X122707000Y-62123000D01*
X122727000Y-62123000D01*
X122727000Y-62377000D01*
X122707000Y-62377000D01*
X122707000Y-63570155D01*
X122936890Y-63691476D01*
X123084099Y-63646825D01*
X123346920Y-63521641D01*
X123580269Y-63347588D01*
X123775178Y-63131355D01*
X123844799Y-63014477D01*
X123879294Y-63079014D01*
X124064866Y-63305134D01*
X124290986Y-63490706D01*
X124548966Y-63628599D01*
X124828889Y-63713513D01*
X125047050Y-63735000D01*
X125192950Y-63735000D01*
X125411111Y-63713513D01*
X125691034Y-63628599D01*
X125949014Y-63490706D01*
X126175134Y-63305134D01*
X126360706Y-63079014D01*
X126498599Y-62821034D01*
X126583513Y-62541111D01*
X126612185Y-62250000D01*
X126583513Y-61958889D01*
X126498599Y-61678966D01*
X126360706Y-61420986D01*
X126175134Y-61194866D01*
X125949014Y-61009294D01*
X125691034Y-60871401D01*
X125411111Y-60786487D01*
X125192950Y-60765000D01*
X125047050Y-60765000D01*
X124828889Y-60786487D01*
X124548966Y-60871401D01*
X124290986Y-61009294D01*
X124064866Y-61194866D01*
X123879294Y-61420986D01*
X123844799Y-61485523D01*
X123775178Y-61368645D01*
X123580269Y-61152412D01*
X123346920Y-60978359D01*
X123084099Y-60853175D01*
X122936890Y-60808524D01*
X122707000Y-60929845D01*
X122453000Y-60929845D01*
X122223110Y-60808524D01*
X122075901Y-60853175D01*
X121813080Y-60978359D01*
X121579731Y-61152412D01*
X121384822Y-61368645D01*
X121315201Y-61485523D01*
X121280706Y-61420986D01*
X121095134Y-61194866D01*
X120869014Y-61009294D01*
X120611034Y-60871401D01*
X120331111Y-60786487D01*
X120112950Y-60765000D01*
X119967050Y-60765000D01*
X119748889Y-60786487D01*
X119468966Y-60871401D01*
X119210986Y-61009294D01*
X118984866Y-61194866D01*
X118960393Y-61224687D01*
X118939502Y-61155820D01*
X118880537Y-61045506D01*
X118801185Y-60948815D01*
X118704494Y-60869463D01*
X118594180Y-60810498D01*
X118474482Y-60774188D01*
X118350000Y-60761928D01*
X116650000Y-60761928D01*
X116525518Y-60774188D01*
X116405820Y-60810498D01*
X116295506Y-60869463D01*
X116198815Y-60948815D01*
X116119463Y-61045506D01*
X116060498Y-61155820D01*
X116024188Y-61275518D01*
X116011928Y-61400000D01*
X114093484Y-61400000D01*
X113925134Y-61194866D01*
X113699014Y-61009294D01*
X113441034Y-60871401D01*
X113161111Y-60786487D01*
X112942950Y-60765000D01*
X112797050Y-60765000D01*
X112578889Y-60786487D01*
X112298966Y-60871401D01*
X112040986Y-61009294D01*
X111814866Y-61194866D01*
X111629294Y-61420986D01*
X111594799Y-61485523D01*
X111525178Y-61368645D01*
X111330269Y-61152412D01*
X111096920Y-60978359D01*
X110834099Y-60853175D01*
X110686890Y-60808524D01*
X110457000Y-60929845D01*
X110203000Y-60929845D01*
X109973110Y-60808524D01*
X109825901Y-60853175D01*
X109563080Y-60978359D01*
X109329731Y-61152412D01*
X109134822Y-61368645D01*
X109065201Y-61485523D01*
X109030706Y-61420986D01*
X108845134Y-61194866D01*
X108619014Y-61009294D01*
X108361034Y-60871401D01*
X108081111Y-60786487D01*
X107862950Y-60765000D01*
X107717050Y-60765000D01*
X107498889Y-60786487D01*
X107218966Y-60871401D01*
X106960986Y-61009294D01*
X106734866Y-61194866D01*
X106710393Y-61224687D01*
X106689502Y-61155820D01*
X106630537Y-61045506D01*
X106551185Y-60948815D01*
X106454494Y-60869463D01*
X106344180Y-60810498D01*
X106224482Y-60774188D01*
X106100000Y-60761928D01*
X104400000Y-60761928D01*
X104275518Y-60774188D01*
X104155820Y-60810498D01*
X104045506Y-60869463D01*
X103948815Y-60948815D01*
X103869463Y-61045506D01*
X103810498Y-61155820D01*
X103774188Y-61275518D01*
X103761928Y-61400000D01*
X101385000Y-61400000D01*
X101385000Y-61304495D01*
X101308718Y-60920997D01*
X101159085Y-60559750D01*
X100941851Y-60234636D01*
X100867215Y-60160000D01*
X129132785Y-60160000D01*
X129058149Y-60234636D01*
X128840915Y-60559750D01*
X128691282Y-60920997D01*
X128615000Y-61304495D01*
X128615000Y-61695505D01*
X128691282Y-62079003D01*
X128840915Y-62440250D01*
X129058149Y-62765364D01*
X129334636Y-63041851D01*
X129659750Y-63259085D01*
X130020997Y-63408718D01*
X130404495Y-63485000D01*
X130795505Y-63485000D01*
X131179003Y-63408718D01*
X131540250Y-63259085D01*
X131865364Y-63041851D01*
X132141851Y-62765364D01*
X132359085Y-62440250D01*
X132508718Y-62079003D01*
X132585000Y-61695505D01*
X132585000Y-61304495D01*
X132508718Y-60920997D01*
X132359085Y-60559750D01*
X132141851Y-60234636D01*
X132067215Y-60160000D01*
X141373000Y-60160000D01*
X141373000Y-68000000D01*
X141375440Y-68024776D01*
X141382667Y-68048601D01*
X141394403Y-68070557D01*
X141410197Y-68089803D01*
X141429443Y-68105597D01*
X141451399Y-68117333D01*
X141475224Y-68124560D01*
X141500000Y-68127000D01*
X149340000Y-68127000D01*
X149340001Y-121340000D01*
X148284608Y-121340000D01*
X148179610Y-121235002D01*
X148520766Y-121048927D01*
X148736513Y-120631591D01*
X148866696Y-120180185D01*
X148906313Y-119712054D01*
X148853842Y-119245189D01*
X148711297Y-118797532D01*
X148520766Y-118441073D01*
X148179609Y-118254997D01*
X146689605Y-119745000D01*
X146703748Y-119759142D01*
X146524142Y-119938748D01*
X146510000Y-119924605D01*
X146495858Y-119938748D01*
X146316252Y-119759142D01*
X146330395Y-119745000D01*
X144840391Y-118254997D01*
X144499234Y-118441073D01*
X144283487Y-118858409D01*
X144153304Y-119309815D01*
X144113687Y-119777946D01*
X144166158Y-120244811D01*
X144308703Y-120692468D01*
X144499234Y-121048927D01*
X144840390Y-121235002D01*
X144735392Y-121340000D01*
X134127000Y-121340000D01*
X134127000Y-118075391D01*
X145019997Y-118075391D01*
X146510000Y-119565395D01*
X148000003Y-118075391D01*
X147813927Y-117734234D01*
X147396591Y-117518487D01*
X146945185Y-117388304D01*
X146477054Y-117348687D01*
X146010189Y-117401158D01*
X145562532Y-117543703D01*
X145206073Y-117734234D01*
X145019997Y-118075391D01*
X134127000Y-118075391D01*
X134127000Y-114000000D01*
X134124560Y-113975224D01*
X134117333Y-113951399D01*
X134105597Y-113929443D01*
X134089803Y-113910197D01*
X134070557Y-113894403D01*
X134048601Y-113882667D01*
X134024776Y-113875440D01*
X134000000Y-113873000D01*
X125500000Y-113873000D01*
X125475224Y-113875440D01*
X125451399Y-113882667D01*
X125429443Y-113894403D01*
X125410197Y-113910197D01*
X125394403Y-113929443D01*
X125382667Y-113951399D01*
X125375440Y-113975224D01*
X125373000Y-114000000D01*
X125373000Y-121340000D01*
X88627000Y-121340000D01*
X88627000Y-114000000D01*
X88624560Y-113975224D01*
X88617333Y-113951399D01*
X88605597Y-113929443D01*
X88589803Y-113910197D01*
X88570557Y-113894403D01*
X88548601Y-113882667D01*
X88524776Y-113875440D01*
X88500000Y-113873000D01*
X80660000Y-113873000D01*
X80660000Y-111625000D01*
X140311928Y-111625000D01*
X140311928Y-113325000D01*
X140324188Y-113449482D01*
X140360498Y-113569180D01*
X140419463Y-113679494D01*
X140498815Y-113776185D01*
X140595506Y-113855537D01*
X140705820Y-113914502D01*
X140747690Y-113927203D01*
X140646525Y-114028368D01*
X140484010Y-114271589D01*
X140372068Y-114541842D01*
X140315000Y-114828740D01*
X140315000Y-115121260D01*
X140372068Y-115408158D01*
X140484010Y-115678411D01*
X140646525Y-115921632D01*
X140853368Y-116128475D01*
X141096589Y-116290990D01*
X141366842Y-116402932D01*
X141653740Y-116460000D01*
X141946260Y-116460000D01*
X142233158Y-116402932D01*
X142503411Y-116290990D01*
X142746632Y-116128475D01*
X142800000Y-116075107D01*
X142853368Y-116128475D01*
X143096589Y-116290990D01*
X143366842Y-116402932D01*
X143653740Y-116460000D01*
X143946260Y-116460000D01*
X144233158Y-116402932D01*
X144503411Y-116290990D01*
X144746632Y-116128475D01*
X144953475Y-115921632D01*
X145115990Y-115678411D01*
X145227932Y-115408158D01*
X145285000Y-115121260D01*
X145285000Y-114828740D01*
X145227932Y-114541842D01*
X145115990Y-114271589D01*
X144953475Y-114028368D01*
X144746632Y-113821525D01*
X144583590Y-113712584D01*
X144648792Y-113503397D01*
X143800000Y-112654605D01*
X143785858Y-112668748D01*
X143606253Y-112489143D01*
X143620395Y-112475000D01*
X143979605Y-112475000D01*
X144828397Y-113323792D01*
X145077472Y-113246157D01*
X145203371Y-112982117D01*
X145275339Y-112698589D01*
X145290611Y-112406469D01*
X145248599Y-112116981D01*
X145150919Y-111841253D01*
X145077472Y-111703843D01*
X144828397Y-111626208D01*
X143979605Y-112475000D01*
X143620395Y-112475000D01*
X143606253Y-112460858D01*
X143785858Y-112281253D01*
X143800000Y-112295395D01*
X144648792Y-111446603D01*
X144571157Y-111197528D01*
X144307117Y-111071629D01*
X144023589Y-110999661D01*
X143731469Y-110984389D01*
X143441981Y-111026401D01*
X143166253Y-111124081D01*
X143090150Y-111164759D01*
X143004494Y-111094463D01*
X142894180Y-111035498D01*
X142774482Y-110999188D01*
X142650000Y-110986928D01*
X140950000Y-110986928D01*
X140825518Y-110999188D01*
X140705820Y-111035498D01*
X140595506Y-111094463D01*
X140498815Y-111173815D01*
X140419463Y-111270506D01*
X140360498Y-111380820D01*
X140324188Y-111500518D01*
X140311928Y-111625000D01*
X80660000Y-111625000D01*
X80660000Y-108348816D01*
X85195000Y-108348816D01*
X85195000Y-108651184D01*
X85253989Y-108947743D01*
X85369701Y-109227095D01*
X85537688Y-109478505D01*
X85751495Y-109692312D01*
X86002905Y-109860299D01*
X86282257Y-109976011D01*
X86578816Y-110035000D01*
X86881184Y-110035000D01*
X87177743Y-109976011D01*
X87457095Y-109860299D01*
X87708505Y-109692312D01*
X87774944Y-109625873D01*
X87780498Y-109644180D01*
X87839463Y-109754494D01*
X87918815Y-109851185D01*
X88015506Y-109930537D01*
X88125820Y-109989502D01*
X88245518Y-110025812D01*
X88370000Y-110038072D01*
X90170000Y-110038072D01*
X90294482Y-110025812D01*
X90414180Y-109989502D01*
X90524494Y-109930537D01*
X90621185Y-109851185D01*
X90700537Y-109754494D01*
X90759502Y-109644180D01*
X90795812Y-109524482D01*
X90808072Y-109400000D01*
X90808072Y-108348816D01*
X99195000Y-108348816D01*
X99195000Y-108651184D01*
X99253989Y-108947743D01*
X99369701Y-109227095D01*
X99537688Y-109478505D01*
X99751495Y-109692312D01*
X100002905Y-109860299D01*
X100282257Y-109976011D01*
X100578816Y-110035000D01*
X100881184Y-110035000D01*
X101177743Y-109976011D01*
X101457095Y-109860299D01*
X101708505Y-109692312D01*
X101774944Y-109625873D01*
X101780498Y-109644180D01*
X101839463Y-109754494D01*
X101918815Y-109851185D01*
X102015506Y-109930537D01*
X102125820Y-109989502D01*
X102245518Y-110025812D01*
X102370000Y-110038072D01*
X104170000Y-110038072D01*
X104294482Y-110025812D01*
X104414180Y-109989502D01*
X104524494Y-109930537D01*
X104621185Y-109851185D01*
X104700537Y-109754494D01*
X104759502Y-109644180D01*
X104795812Y-109524482D01*
X104808072Y-109400000D01*
X104808072Y-108348816D01*
X113195000Y-108348816D01*
X113195000Y-108651184D01*
X113253989Y-108947743D01*
X113369701Y-109227095D01*
X113537688Y-109478505D01*
X113751495Y-109692312D01*
X114002905Y-109860299D01*
X114282257Y-109976011D01*
X114578816Y-110035000D01*
X114881184Y-110035000D01*
X115177743Y-109976011D01*
X115457095Y-109860299D01*
X115708505Y-109692312D01*
X115774944Y-109625873D01*
X115780498Y-109644180D01*
X115839463Y-109754494D01*
X115918815Y-109851185D01*
X116015506Y-109930537D01*
X116125820Y-109989502D01*
X116245518Y-110025812D01*
X116370000Y-110038072D01*
X118170000Y-110038072D01*
X118294482Y-110025812D01*
X118414180Y-109989502D01*
X118524494Y-109930537D01*
X118621185Y-109851185D01*
X118700537Y-109754494D01*
X118759502Y-109644180D01*
X118795812Y-109524482D01*
X118808072Y-109400000D01*
X118808072Y-109374609D01*
X145019997Y-109374609D01*
X145206073Y-109715766D01*
X145623409Y-109931513D01*
X146074815Y-110061696D01*
X146542946Y-110101313D01*
X147009811Y-110048842D01*
X147457468Y-109906297D01*
X147813927Y-109715766D01*
X148000003Y-109374609D01*
X146510000Y-107884605D01*
X145019997Y-109374609D01*
X118808072Y-109374609D01*
X118808072Y-107737946D01*
X144113687Y-107737946D01*
X144166158Y-108204811D01*
X144308703Y-108652468D01*
X144499234Y-109008927D01*
X144840391Y-109195003D01*
X146330395Y-107705000D01*
X146689605Y-107705000D01*
X148179609Y-109195003D01*
X148520766Y-109008927D01*
X148736513Y-108591591D01*
X148866696Y-108140185D01*
X148906313Y-107672054D01*
X148853842Y-107205189D01*
X148711297Y-106757532D01*
X148520766Y-106401073D01*
X148179609Y-106214997D01*
X146689605Y-107705000D01*
X146330395Y-107705000D01*
X144840391Y-106214997D01*
X144499234Y-106401073D01*
X144283487Y-106818409D01*
X144153304Y-107269815D01*
X144113687Y-107737946D01*
X118808072Y-107737946D01*
X118808072Y-107600000D01*
X118795812Y-107475518D01*
X118759502Y-107355820D01*
X118700537Y-107245506D01*
X118621185Y-107148815D01*
X118524494Y-107069463D01*
X118414180Y-107010498D01*
X118294482Y-106974188D01*
X118170000Y-106961928D01*
X116370000Y-106961928D01*
X116245518Y-106974188D01*
X116125820Y-107010498D01*
X116015506Y-107069463D01*
X115918815Y-107148815D01*
X115839463Y-107245506D01*
X115780498Y-107355820D01*
X115774944Y-107374127D01*
X115708505Y-107307688D01*
X115457095Y-107139701D01*
X115177743Y-107023989D01*
X114881184Y-106965000D01*
X114578816Y-106965000D01*
X114282257Y-107023989D01*
X114002905Y-107139701D01*
X113751495Y-107307688D01*
X113537688Y-107521495D01*
X113369701Y-107772905D01*
X113253989Y-108052257D01*
X113195000Y-108348816D01*
X104808072Y-108348816D01*
X104808072Y-107600000D01*
X104795812Y-107475518D01*
X104759502Y-107355820D01*
X104700537Y-107245506D01*
X104621185Y-107148815D01*
X104524494Y-107069463D01*
X104414180Y-107010498D01*
X104294482Y-106974188D01*
X104170000Y-106961928D01*
X102370000Y-106961928D01*
X102245518Y-106974188D01*
X102125820Y-107010498D01*
X102015506Y-107069463D01*
X101918815Y-107148815D01*
X101839463Y-107245506D01*
X101780498Y-107355820D01*
X101774944Y-107374127D01*
X101708505Y-107307688D01*
X101457095Y-107139701D01*
X101177743Y-107023989D01*
X100881184Y-106965000D01*
X100578816Y-106965000D01*
X100282257Y-107023989D01*
X100002905Y-107139701D01*
X99751495Y-107307688D01*
X99537688Y-107521495D01*
X99369701Y-107772905D01*
X99253989Y-108052257D01*
X99195000Y-108348816D01*
X90808072Y-108348816D01*
X90808072Y-107600000D01*
X90795812Y-107475518D01*
X90759502Y-107355820D01*
X90700537Y-107245506D01*
X90621185Y-107148815D01*
X90524494Y-107069463D01*
X90414180Y-107010498D01*
X90294482Y-106974188D01*
X90170000Y-106961928D01*
X88370000Y-106961928D01*
X88245518Y-106974188D01*
X88125820Y-107010498D01*
X88015506Y-107069463D01*
X87918815Y-107148815D01*
X87839463Y-107245506D01*
X87780498Y-107355820D01*
X87774944Y-107374127D01*
X87708505Y-107307688D01*
X87457095Y-107139701D01*
X87177743Y-107023989D01*
X86881184Y-106965000D01*
X86578816Y-106965000D01*
X86282257Y-107023989D01*
X86002905Y-107139701D01*
X85751495Y-107307688D01*
X85537688Y-107521495D01*
X85369701Y-107772905D01*
X85253989Y-108052257D01*
X85195000Y-108348816D01*
X80660000Y-108348816D01*
X80660000Y-91366544D01*
X82645000Y-91366544D01*
X82645000Y-91633456D01*
X82697072Y-91895239D01*
X82799215Y-92141833D01*
X82947503Y-92363762D01*
X83136238Y-92552497D01*
X83358167Y-92700785D01*
X83604761Y-92802928D01*
X83866544Y-92855000D01*
X84133456Y-92855000D01*
X84395239Y-92802928D01*
X84641833Y-92700785D01*
X84863762Y-92552497D01*
X85052497Y-92363762D01*
X85200785Y-92141833D01*
X85302928Y-91895239D01*
X85355000Y-91633456D01*
X85355000Y-91366544D01*
X85302928Y-91104761D01*
X85200785Y-90858167D01*
X85052497Y-90636238D01*
X84863762Y-90447503D01*
X84641833Y-90299215D01*
X84395239Y-90197072D01*
X84133456Y-90145000D01*
X83866544Y-90145000D01*
X83604761Y-90197072D01*
X83358167Y-90299215D01*
X83136238Y-90447503D01*
X82947503Y-90636238D01*
X82799215Y-90858167D01*
X82697072Y-91104761D01*
X82645000Y-91366544D01*
X80660000Y-91366544D01*
X80660000Y-88826544D01*
X85185000Y-88826544D01*
X85185000Y-89093456D01*
X85237072Y-89355239D01*
X85339215Y-89601833D01*
X85487503Y-89823762D01*
X85676238Y-90012497D01*
X85898167Y-90160785D01*
X86144761Y-90262928D01*
X86406544Y-90315000D01*
X86673456Y-90315000D01*
X86935239Y-90262928D01*
X87181833Y-90160785D01*
X87403762Y-90012497D01*
X87592497Y-89823762D01*
X87661828Y-89720000D01*
X98510243Y-89720000D01*
X98459750Y-89740915D01*
X98134636Y-89958149D01*
X97858149Y-90234636D01*
X97640915Y-90559750D01*
X97491282Y-90920997D01*
X97415000Y-91304495D01*
X97415000Y-91695505D01*
X97491282Y-92079003D01*
X97640915Y-92440250D01*
X97858149Y-92765364D01*
X98134636Y-93041851D01*
X98459750Y-93259085D01*
X98820997Y-93408718D01*
X99204495Y-93485000D01*
X99595505Y-93485000D01*
X99979003Y-93408718D01*
X100340250Y-93259085D01*
X100665364Y-93041851D01*
X100941851Y-92765364D01*
X101159085Y-92440250D01*
X101308718Y-92079003D01*
X101385000Y-91695505D01*
X101385000Y-91304495D01*
X101340825Y-91082406D01*
X104972489Y-91082406D01*
X105010423Y-91302740D01*
X105090613Y-91511440D01*
X105118412Y-91563450D01*
X105331834Y-91598561D01*
X105930395Y-91000000D01*
X105331834Y-90401439D01*
X105118412Y-90436550D01*
X105027542Y-90640826D01*
X104978269Y-90858905D01*
X104972489Y-91082406D01*
X101340825Y-91082406D01*
X101308718Y-90920997D01*
X101159085Y-90559750D01*
X100941851Y-90234636D01*
X100665364Y-89958149D01*
X100340250Y-89740915D01*
X100289757Y-89720000D01*
X106628635Y-89720000D01*
X106620000Y-89807668D01*
X106620000Y-89807678D01*
X106616324Y-89845000D01*
X106620000Y-89882323D01*
X106620000Y-89984635D01*
X106469174Y-89917542D01*
X106251095Y-89868269D01*
X106027594Y-89862489D01*
X105807260Y-89900423D01*
X105598560Y-89980613D01*
X105546550Y-90008412D01*
X105511439Y-90221834D01*
X106110000Y-90820395D01*
X106124143Y-90806253D01*
X106245000Y-90927110D01*
X106245000Y-91072890D01*
X106124143Y-91193748D01*
X106110000Y-91179605D01*
X105511439Y-91778166D01*
X105546550Y-91991588D01*
X105750826Y-92082458D01*
X105968905Y-92131731D01*
X106192406Y-92137511D01*
X106412740Y-92099577D01*
X106495001Y-92067970D01*
X106495001Y-92661521D01*
X106490719Y-92705000D01*
X106507805Y-92878490D01*
X106558412Y-93045313D01*
X106640590Y-93199059D01*
X106723468Y-93300046D01*
X106723471Y-93300049D01*
X106751184Y-93333817D01*
X106784951Y-93361529D01*
X107768470Y-94345049D01*
X107796183Y-94378817D01*
X107829951Y-94406530D01*
X107829953Y-94406532D01*
X107832438Y-94408571D01*
X107930941Y-94489411D01*
X108084687Y-94571589D01*
X108251510Y-94622195D01*
X108381523Y-94635000D01*
X108381533Y-94635000D01*
X108424999Y-94639281D01*
X108468465Y-94635000D01*
X126289424Y-94635000D01*
X126294774Y-94661898D01*
X126372795Y-94850256D01*
X126486063Y-95019774D01*
X126630226Y-95163937D01*
X126799744Y-95277205D01*
X126988102Y-95355226D01*
X127188061Y-95395000D01*
X127391939Y-95395000D01*
X127591898Y-95355226D01*
X127780256Y-95277205D01*
X127949774Y-95163937D01*
X128093937Y-95019774D01*
X128207205Y-94850256D01*
X128285226Y-94661898D01*
X128325000Y-94461939D01*
X128325000Y-94258061D01*
X128285226Y-94058102D01*
X128207205Y-93869744D01*
X128093937Y-93700226D01*
X127949774Y-93556063D01*
X127780256Y-93442795D01*
X127591898Y-93364774D01*
X127535043Y-93353465D01*
X127336534Y-93154956D01*
X127308817Y-93121183D01*
X127174059Y-93010589D01*
X127020313Y-92928411D01*
X126853490Y-92877805D01*
X126723477Y-92865000D01*
X126723469Y-92865000D01*
X126680000Y-92860719D01*
X126636531Y-92865000D01*
X108791579Y-92865000D01*
X108265000Y-92338422D01*
X108265000Y-92069043D01*
X108318933Y-92091383D01*
X108538212Y-92135000D01*
X108761788Y-92135000D01*
X108981067Y-92091383D01*
X109187624Y-92005824D01*
X109285000Y-91940759D01*
X109382376Y-92005824D01*
X109588933Y-92091383D01*
X109808212Y-92135000D01*
X110031788Y-92135000D01*
X110251067Y-92091383D01*
X110457624Y-92005824D01*
X110555000Y-91940759D01*
X110652376Y-92005824D01*
X110858933Y-92091383D01*
X111078212Y-92135000D01*
X111301788Y-92135000D01*
X111521067Y-92091383D01*
X111727624Y-92005824D01*
X111825000Y-91940759D01*
X111922376Y-92005824D01*
X112128933Y-92091383D01*
X112348212Y-92135000D01*
X112571788Y-92135000D01*
X112791067Y-92091383D01*
X112997624Y-92005824D01*
X113095000Y-91940759D01*
X113192376Y-92005824D01*
X113398933Y-92091383D01*
X113618212Y-92135000D01*
X113841788Y-92135000D01*
X114061067Y-92091383D01*
X114267624Y-92005824D01*
X114365000Y-91940759D01*
X114462376Y-92005824D01*
X114668933Y-92091383D01*
X114888212Y-92135000D01*
X115111788Y-92135000D01*
X115331067Y-92091383D01*
X115537624Y-92005824D01*
X115635000Y-91940759D01*
X115732376Y-92005824D01*
X115938933Y-92091383D01*
X116158212Y-92135000D01*
X116381788Y-92135000D01*
X116601067Y-92091383D01*
X116807624Y-92005824D01*
X116905000Y-91940759D01*
X117002376Y-92005824D01*
X117208933Y-92091383D01*
X117428212Y-92135000D01*
X117651788Y-92135000D01*
X117871067Y-92091383D01*
X118077624Y-92005824D01*
X118175000Y-91940759D01*
X118272376Y-92005824D01*
X118478933Y-92091383D01*
X118698212Y-92135000D01*
X118921788Y-92135000D01*
X119141067Y-92091383D01*
X119347624Y-92005824D01*
X119445000Y-91940759D01*
X119542376Y-92005824D01*
X119748933Y-92091383D01*
X119968212Y-92135000D01*
X120191788Y-92135000D01*
X120411067Y-92091383D01*
X120617624Y-92005824D01*
X120715000Y-91940759D01*
X120812376Y-92005824D01*
X121018933Y-92091383D01*
X121238212Y-92135000D01*
X121461788Y-92135000D01*
X121681067Y-92091383D01*
X121887624Y-92005824D01*
X121985000Y-91940759D01*
X122082376Y-92005824D01*
X122288933Y-92091383D01*
X122508212Y-92135000D01*
X122731788Y-92135000D01*
X122951067Y-92091383D01*
X123157624Y-92005824D01*
X123255000Y-91940759D01*
X123352376Y-92005824D01*
X123558933Y-92091383D01*
X123778212Y-92135000D01*
X124001788Y-92135000D01*
X124221067Y-92091383D01*
X124427624Y-92005824D01*
X124613520Y-91881612D01*
X124771612Y-91723520D01*
X124895824Y-91537624D01*
X124981383Y-91331067D01*
X125025000Y-91111788D01*
X125025000Y-90888212D01*
X124981383Y-90668933D01*
X124895824Y-90462376D01*
X124771612Y-90276480D01*
X124725000Y-90229868D01*
X124725000Y-89575867D01*
X125565868Y-88735000D01*
X131586715Y-88735000D01*
X131709744Y-88817205D01*
X131898102Y-88895226D01*
X132098061Y-88935000D01*
X132301939Y-88935000D01*
X132501898Y-88895226D01*
X132545000Y-88877372D01*
X132545000Y-91103401D01*
X132508718Y-90920997D01*
X132359085Y-90559750D01*
X132141851Y-90234636D01*
X131865364Y-89958149D01*
X131540250Y-89740915D01*
X131179003Y-89591282D01*
X130795505Y-89515000D01*
X130404495Y-89515000D01*
X130020997Y-89591282D01*
X129659750Y-89740915D01*
X129334636Y-89958149D01*
X129058149Y-90234636D01*
X128840915Y-90559750D01*
X128691282Y-90920997D01*
X128615000Y-91304495D01*
X128615000Y-91695505D01*
X128691282Y-92079003D01*
X128840915Y-92440250D01*
X129058149Y-92765364D01*
X129334636Y-93041851D01*
X129659750Y-93259085D01*
X130020997Y-93408718D01*
X130404495Y-93485000D01*
X130795505Y-93485000D01*
X131179003Y-93408718D01*
X131540250Y-93259085D01*
X131865364Y-93041851D01*
X132141851Y-92765364D01*
X132359085Y-92440250D01*
X132508718Y-92079003D01*
X132545000Y-91896599D01*
X132545000Y-92684131D01*
X130908574Y-94320559D01*
X130876710Y-94346709D01*
X130850562Y-94378571D01*
X130772364Y-94473855D01*
X130741773Y-94531086D01*
X130694828Y-94618913D01*
X130648563Y-94771430D01*
X130647082Y-94776312D01*
X130630960Y-94940000D01*
X130635000Y-94981018D01*
X130635000Y-95448982D01*
X130635001Y-101556714D01*
X130552795Y-101679744D01*
X130474774Y-101868102D01*
X130435000Y-102068061D01*
X130435000Y-102271939D01*
X130474774Y-102471898D01*
X130552795Y-102660256D01*
X130666063Y-102829774D01*
X130810226Y-102973937D01*
X130979744Y-103087205D01*
X131168102Y-103165226D01*
X131368061Y-103205000D01*
X131571939Y-103205000D01*
X131771898Y-103165226D01*
X131960256Y-103087205D01*
X132129774Y-102973937D01*
X132273937Y-102829774D01*
X132387205Y-102660256D01*
X132465226Y-102471898D01*
X132505000Y-102271939D01*
X132505000Y-102068061D01*
X132465226Y-101868102D01*
X132387205Y-101679744D01*
X132305000Y-101556715D01*
X132305000Y-95285867D01*
X132575000Y-95015868D01*
X132575000Y-95058982D01*
X132575001Y-104836714D01*
X132492795Y-104959744D01*
X132414774Y-105148102D01*
X132375000Y-105348061D01*
X132375000Y-105551939D01*
X132414774Y-105751898D01*
X132492795Y-105940256D01*
X132606063Y-106109774D01*
X132750226Y-106253937D01*
X132919744Y-106367205D01*
X133108102Y-106445226D01*
X133308061Y-106485000D01*
X133511939Y-106485000D01*
X133711898Y-106445226D01*
X133900256Y-106367205D01*
X134069774Y-106253937D01*
X134213937Y-106109774D01*
X134263637Y-106035391D01*
X145019997Y-106035391D01*
X146510000Y-107525395D01*
X148000003Y-106035391D01*
X147813927Y-105694234D01*
X147396591Y-105478487D01*
X146945185Y-105348304D01*
X146477054Y-105308687D01*
X146010189Y-105361158D01*
X145562532Y-105503703D01*
X145206073Y-105694234D01*
X145019997Y-106035391D01*
X134263637Y-106035391D01*
X134327205Y-105940256D01*
X134405226Y-105751898D01*
X134445000Y-105551939D01*
X134445000Y-105348061D01*
X134405226Y-105148102D01*
X134327205Y-104959744D01*
X134245000Y-104836715D01*
X134245000Y-94868061D01*
X135205000Y-94868061D01*
X135205000Y-95071939D01*
X135244774Y-95271898D01*
X135322795Y-95460256D01*
X135436063Y-95629774D01*
X135580226Y-95773937D01*
X135749744Y-95887205D01*
X135938102Y-95965226D01*
X136115001Y-96000413D01*
X136115000Y-103686546D01*
X136082795Y-103734744D01*
X136004774Y-103923102D01*
X135965000Y-104123061D01*
X135965000Y-104326939D01*
X136004774Y-104526898D01*
X136082795Y-104715256D01*
X136196063Y-104884774D01*
X136340226Y-105028937D01*
X136509744Y-105142205D01*
X136698102Y-105220226D01*
X136898061Y-105260000D01*
X137101939Y-105260000D01*
X137301898Y-105220226D01*
X137490256Y-105142205D01*
X137659774Y-105028937D01*
X137803937Y-104884774D01*
X137917205Y-104715256D01*
X137995226Y-104526898D01*
X138035000Y-104326939D01*
X138035000Y-104123061D01*
X137995226Y-103923102D01*
X137917205Y-103734744D01*
X137885000Y-103686546D01*
X137885000Y-92588454D01*
X137917205Y-92540256D01*
X137995226Y-92351898D01*
X138035000Y-92151939D01*
X138035000Y-91948061D01*
X138815000Y-91948061D01*
X138815000Y-92151939D01*
X138854774Y-92351898D01*
X138932795Y-92540256D01*
X138965001Y-92588456D01*
X138965000Y-103686546D01*
X138932795Y-103734744D01*
X138854774Y-103923102D01*
X138815000Y-104123061D01*
X138815000Y-104326939D01*
X138854774Y-104526898D01*
X138932795Y-104715256D01*
X139046063Y-104884774D01*
X139190226Y-105028937D01*
X139359744Y-105142205D01*
X139548102Y-105220226D01*
X139748061Y-105260000D01*
X139951939Y-105260000D01*
X140151898Y-105220226D01*
X140340256Y-105142205D01*
X140509774Y-105028937D01*
X140653937Y-104884774D01*
X140767205Y-104715256D01*
X140845226Y-104526898D01*
X140885000Y-104326939D01*
X140885000Y-104123061D01*
X140845226Y-103923102D01*
X140767205Y-103734744D01*
X140735000Y-103686546D01*
X140735000Y-101064515D01*
X140807795Y-101240256D01*
X140921063Y-101409774D01*
X141065226Y-101553937D01*
X141234744Y-101667205D01*
X141423102Y-101745226D01*
X141623061Y-101785000D01*
X141765000Y-101785000D01*
X141765000Y-103686546D01*
X141732795Y-103734744D01*
X141654774Y-103923102D01*
X141615000Y-104123061D01*
X141615000Y-104326939D01*
X141654774Y-104526898D01*
X141732795Y-104715256D01*
X141846063Y-104884774D01*
X141990226Y-105028937D01*
X142159744Y-105142205D01*
X142348102Y-105220226D01*
X142548061Y-105260000D01*
X142751939Y-105260000D01*
X142951898Y-105220226D01*
X143140256Y-105142205D01*
X143309774Y-105028937D01*
X143453937Y-104884774D01*
X143567205Y-104715256D01*
X143645226Y-104526898D01*
X143685000Y-104326939D01*
X143685000Y-104123061D01*
X143645226Y-103923102D01*
X143567205Y-103734744D01*
X143535000Y-103686546D01*
X143535000Y-92588454D01*
X143567205Y-92540256D01*
X143645226Y-92351898D01*
X143685000Y-92151939D01*
X143685000Y-91998061D01*
X144315000Y-91998061D01*
X144315000Y-92201939D01*
X144354774Y-92401898D01*
X144432795Y-92590256D01*
X144465001Y-92638456D01*
X144465000Y-103711546D01*
X144432795Y-103759744D01*
X144354774Y-103948102D01*
X144315000Y-104148061D01*
X144315000Y-104351939D01*
X144354774Y-104551898D01*
X144432795Y-104740256D01*
X144546063Y-104909774D01*
X144690226Y-105053937D01*
X144859744Y-105167205D01*
X145048102Y-105245226D01*
X145248061Y-105285000D01*
X145451939Y-105285000D01*
X145651898Y-105245226D01*
X145840256Y-105167205D01*
X146009774Y-105053937D01*
X146153937Y-104909774D01*
X146267205Y-104740256D01*
X146345226Y-104551898D01*
X146385000Y-104351939D01*
X146385000Y-104148061D01*
X146345226Y-103948102D01*
X146267205Y-103759744D01*
X146235000Y-103711546D01*
X146235000Y-92638454D01*
X146267205Y-92590256D01*
X146345226Y-92401898D01*
X146385000Y-92201939D01*
X146385000Y-91998061D01*
X146375055Y-91948061D01*
X146965000Y-91948061D01*
X146965000Y-92151939D01*
X147004774Y-92351898D01*
X147082795Y-92540256D01*
X147115001Y-92588456D01*
X147115000Y-103686546D01*
X147082795Y-103734744D01*
X147004774Y-103923102D01*
X146965000Y-104123061D01*
X146965000Y-104326939D01*
X147004774Y-104526898D01*
X147082795Y-104715256D01*
X147196063Y-104884774D01*
X147340226Y-105028937D01*
X147509744Y-105142205D01*
X147698102Y-105220226D01*
X147898061Y-105260000D01*
X148101939Y-105260000D01*
X148301898Y-105220226D01*
X148490256Y-105142205D01*
X148659774Y-105028937D01*
X148803937Y-104884774D01*
X148917205Y-104715256D01*
X148995226Y-104526898D01*
X149035000Y-104326939D01*
X149035000Y-104123061D01*
X148995226Y-103923102D01*
X148917205Y-103734744D01*
X148885000Y-103686546D01*
X148885000Y-92588454D01*
X148917205Y-92540256D01*
X148995226Y-92351898D01*
X149035000Y-92151939D01*
X149035000Y-91948061D01*
X148995226Y-91748102D01*
X148917205Y-91559744D01*
X148803937Y-91390226D01*
X148659774Y-91246063D01*
X148490256Y-91132795D01*
X148301898Y-91054774D01*
X148101939Y-91015000D01*
X147898061Y-91015000D01*
X147698102Y-91054774D01*
X147509744Y-91132795D01*
X147340226Y-91246063D01*
X147196063Y-91390226D01*
X147082795Y-91559744D01*
X147004774Y-91748102D01*
X146965000Y-91948061D01*
X146375055Y-91948061D01*
X146345226Y-91798102D01*
X146267205Y-91609744D01*
X146153937Y-91440226D01*
X146009774Y-91296063D01*
X145840256Y-91182795D01*
X145651898Y-91104774D01*
X145451939Y-91065000D01*
X145248061Y-91065000D01*
X145048102Y-91104774D01*
X144859744Y-91182795D01*
X144690226Y-91296063D01*
X144546063Y-91440226D01*
X144432795Y-91609744D01*
X144354774Y-91798102D01*
X144315000Y-91998061D01*
X143685000Y-91998061D01*
X143685000Y-91948061D01*
X143645226Y-91748102D01*
X143567205Y-91559744D01*
X143453937Y-91390226D01*
X143309774Y-91246063D01*
X143140256Y-91132795D01*
X142951898Y-91054774D01*
X142751939Y-91015000D01*
X142548061Y-91015000D01*
X142348102Y-91054774D01*
X142159744Y-91132795D01*
X141990226Y-91246063D01*
X141925000Y-91311289D01*
X141884774Y-91271063D01*
X141715256Y-91157795D01*
X141526898Y-91079774D01*
X141326939Y-91040000D01*
X141123061Y-91040000D01*
X140923102Y-91079774D01*
X140734744Y-91157795D01*
X140565226Y-91271063D01*
X140550000Y-91286289D01*
X140509774Y-91246063D01*
X140340256Y-91132795D01*
X140151898Y-91054774D01*
X139951939Y-91015000D01*
X139748061Y-91015000D01*
X139548102Y-91054774D01*
X139359744Y-91132795D01*
X139190226Y-91246063D01*
X139046063Y-91390226D01*
X138932795Y-91559744D01*
X138854774Y-91748102D01*
X138815000Y-91948061D01*
X138035000Y-91948061D01*
X137995226Y-91748102D01*
X137917205Y-91559744D01*
X137803937Y-91390226D01*
X137659774Y-91246063D01*
X137490256Y-91132795D01*
X137301898Y-91054774D01*
X137101939Y-91015000D01*
X136898061Y-91015000D01*
X136698102Y-91054774D01*
X136509744Y-91132795D01*
X136340226Y-91246063D01*
X136196063Y-91390226D01*
X136082795Y-91559744D01*
X136004774Y-91748102D01*
X135965000Y-91948061D01*
X135965000Y-92151939D01*
X136004774Y-92351898D01*
X136082795Y-92540256D01*
X136115001Y-92588455D01*
X136115000Y-93406522D01*
X136115000Y-93914132D01*
X136083225Y-93945907D01*
X135938102Y-93974774D01*
X135749744Y-94052795D01*
X135580226Y-94166063D01*
X135436063Y-94310226D01*
X135322795Y-94479744D01*
X135244774Y-94668102D01*
X135205000Y-94868061D01*
X134245000Y-94868061D01*
X134245000Y-94645867D01*
X134741427Y-94149440D01*
X134773291Y-94123291D01*
X134877636Y-93996146D01*
X134955172Y-93851087D01*
X135002918Y-93693689D01*
X135015000Y-93571019D01*
X135015000Y-93571009D01*
X135019039Y-93530001D01*
X135015000Y-93488993D01*
X135015000Y-82521007D01*
X135019039Y-82479999D01*
X135015000Y-82438991D01*
X135015000Y-82438981D01*
X135002918Y-82316311D01*
X134955172Y-82158913D01*
X134877636Y-82013854D01*
X134773291Y-81886709D01*
X134741427Y-81860559D01*
X132825208Y-79944341D01*
X132753291Y-79856709D01*
X132665656Y-79784789D01*
X132571946Y-79691079D01*
X132545791Y-79659209D01*
X132418646Y-79554864D01*
X132273587Y-79477328D01*
X132116189Y-79429582D01*
X131993519Y-79417500D01*
X131993518Y-79417500D01*
X131952500Y-79413460D01*
X131911482Y-79417500D01*
X130940785Y-79417500D01*
X130817756Y-79335295D01*
X130629398Y-79257274D01*
X130429439Y-79217500D01*
X130225561Y-79217500D01*
X130025602Y-79257274D01*
X129837244Y-79335295D01*
X129667726Y-79448563D01*
X129523563Y-79592726D01*
X129410295Y-79762244D01*
X129332274Y-79950602D01*
X129292500Y-80150561D01*
X129292500Y-80354439D01*
X129332274Y-80554398D01*
X129410295Y-80742756D01*
X129523563Y-80912274D01*
X129667726Y-81056437D01*
X129837244Y-81169705D01*
X130025602Y-81247726D01*
X130225561Y-81287500D01*
X130385000Y-81287500D01*
X130385000Y-81351939D01*
X130424774Y-81551898D01*
X130502795Y-81740256D01*
X130616063Y-81909774D01*
X130760226Y-82053937D01*
X130929744Y-82167205D01*
X131118102Y-82245226D01*
X131300674Y-82281542D01*
X132545001Y-83525870D01*
X132545001Y-86922628D01*
X132501898Y-86904774D01*
X132301939Y-86865000D01*
X132098061Y-86865000D01*
X131898102Y-86904774D01*
X131709744Y-86982795D01*
X131586715Y-87065000D01*
X125261018Y-87065000D01*
X125219999Y-87060960D01*
X125178981Y-87065000D01*
X125056311Y-87077082D01*
X124898913Y-87124828D01*
X124753854Y-87202364D01*
X124626709Y-87306709D01*
X124600558Y-87338574D01*
X123328574Y-88610559D01*
X123296710Y-88636709D01*
X123219103Y-88731274D01*
X123192364Y-88763855D01*
X123114828Y-88908914D01*
X123067082Y-89066312D01*
X123050960Y-89230000D01*
X123055001Y-89271028D01*
X123055001Y-89951668D01*
X122951067Y-89908617D01*
X122731788Y-89865000D01*
X122508212Y-89865000D01*
X122288933Y-89908617D01*
X122082376Y-89994176D01*
X121985000Y-90059241D01*
X121887624Y-89994176D01*
X121681067Y-89908617D01*
X121461788Y-89865000D01*
X121238212Y-89865000D01*
X121018933Y-89908617D01*
X120812376Y-89994176D01*
X120715000Y-90059241D01*
X120617624Y-89994176D01*
X120411067Y-89908617D01*
X120191788Y-89865000D01*
X119968212Y-89865000D01*
X119748933Y-89908617D01*
X119542376Y-89994176D01*
X119445000Y-90059241D01*
X119347624Y-89994176D01*
X119141067Y-89908617D01*
X118921788Y-89865000D01*
X118698212Y-89865000D01*
X118478933Y-89908617D01*
X118457170Y-89917632D01*
X118639802Y-89735000D01*
X120962678Y-89735000D01*
X121000000Y-89738676D01*
X121037322Y-89735000D01*
X121037333Y-89735000D01*
X121148986Y-89724003D01*
X121292247Y-89680546D01*
X121424276Y-89609974D01*
X121540001Y-89515001D01*
X121563804Y-89485997D01*
X122711003Y-88338799D01*
X122740001Y-88315001D01*
X122834974Y-88199276D01*
X122905546Y-88067247D01*
X122949003Y-87923986D01*
X122960000Y-87812333D01*
X122960000Y-87812324D01*
X122963676Y-87775001D01*
X122960000Y-87737678D01*
X122960000Y-83448061D01*
X125740000Y-83448061D01*
X125740000Y-83651939D01*
X125779774Y-83851898D01*
X125857795Y-84040256D01*
X125971063Y-84209774D01*
X126115226Y-84353937D01*
X126284744Y-84467205D01*
X126473102Y-84545226D01*
X126673061Y-84585000D01*
X126876939Y-84585000D01*
X127076898Y-84545226D01*
X127265256Y-84467205D01*
X127388285Y-84385000D01*
X129124130Y-84385000D01*
X129209744Y-84442205D01*
X129398102Y-84520226D01*
X129598061Y-84560000D01*
X129801939Y-84560000D01*
X130001898Y-84520226D01*
X130190256Y-84442205D01*
X130359774Y-84328937D01*
X130503937Y-84184774D01*
X130617205Y-84015256D01*
X130695226Y-83826898D01*
X130735000Y-83626939D01*
X130735000Y-83423061D01*
X130695226Y-83223102D01*
X130617205Y-83034744D01*
X130503937Y-82865226D01*
X130359774Y-82721063D01*
X130190256Y-82607795D01*
X130001898Y-82529774D01*
X129801939Y-82490000D01*
X129598061Y-82490000D01*
X129398102Y-82529774D01*
X129209744Y-82607795D01*
X129049300Y-82715000D01*
X127388285Y-82715000D01*
X127265256Y-82632795D01*
X127076898Y-82554774D01*
X126876939Y-82515000D01*
X126673061Y-82515000D01*
X126473102Y-82554774D01*
X126284744Y-82632795D01*
X126115226Y-82746063D01*
X125971063Y-82890226D01*
X125857795Y-83059744D01*
X125779774Y-83248102D01*
X125740000Y-83448061D01*
X122960000Y-83448061D01*
X122960000Y-82303711D01*
X123003937Y-82259774D01*
X123117205Y-82090256D01*
X123195226Y-81901898D01*
X123235000Y-81701939D01*
X123235000Y-81628295D01*
X123332753Y-81680546D01*
X123476014Y-81724003D01*
X123587667Y-81735000D01*
X123587676Y-81735000D01*
X123624999Y-81738676D01*
X123662322Y-81735000D01*
X126521289Y-81735000D01*
X126565226Y-81778937D01*
X126734744Y-81892205D01*
X126923102Y-81970226D01*
X127123061Y-82010000D01*
X127326939Y-82010000D01*
X127526898Y-81970226D01*
X127715256Y-81892205D01*
X127884774Y-81778937D01*
X128028937Y-81634774D01*
X128142205Y-81465256D01*
X128220226Y-81276898D01*
X128260000Y-81076939D01*
X128260000Y-80873061D01*
X128220226Y-80673102D01*
X128142205Y-80484744D01*
X128028937Y-80315226D01*
X127884774Y-80171063D01*
X127715256Y-80057795D01*
X127575414Y-79999870D01*
X127545226Y-79848102D01*
X127467205Y-79659744D01*
X127353937Y-79490226D01*
X127209774Y-79346063D01*
X127040256Y-79232795D01*
X126851898Y-79154774D01*
X126651939Y-79115000D01*
X126448061Y-79115000D01*
X126248102Y-79154774D01*
X126059744Y-79232795D01*
X125890226Y-79346063D01*
X125846289Y-79390000D01*
X124239802Y-79390000D01*
X123563803Y-78714002D01*
X123540001Y-78684999D01*
X123424276Y-78590026D01*
X123292247Y-78519454D01*
X123148986Y-78475997D01*
X123037333Y-78465000D01*
X123037322Y-78465000D01*
X123000000Y-78461324D01*
X122962678Y-78465000D01*
X119837323Y-78465000D01*
X119800000Y-78461324D01*
X119762677Y-78465000D01*
X119762667Y-78465000D01*
X119651014Y-78475997D01*
X119507753Y-78519454D01*
X119375723Y-78590026D01*
X119294741Y-78656487D01*
X119259999Y-78684999D01*
X119236201Y-78713997D01*
X118264002Y-79686196D01*
X118234999Y-79709999D01*
X118180822Y-79776014D01*
X118140026Y-79825724D01*
X118086962Y-79925000D01*
X118069454Y-79957754D01*
X118025997Y-80101015D01*
X118015000Y-80212668D01*
X118015000Y-80212678D01*
X118011324Y-80250000D01*
X118015000Y-80287322D01*
X118015000Y-81160198D01*
X117885199Y-81290000D01*
X116234775Y-81290000D01*
X116309401Y-81199069D01*
X116391579Y-81045323D01*
X116442185Y-80878500D01*
X116454990Y-80748487D01*
X116454990Y-80748479D01*
X116459271Y-80705010D01*
X116454990Y-80661541D01*
X116454990Y-75909086D01*
X116471183Y-75928817D01*
X116504951Y-75956530D01*
X116504953Y-75956532D01*
X116561928Y-76003290D01*
X116605941Y-76039411D01*
X116759687Y-76121589D01*
X116926510Y-76172195D01*
X117056523Y-76185000D01*
X117056533Y-76185000D01*
X117099999Y-76189281D01*
X117143466Y-76185000D01*
X119456531Y-76185000D01*
X119500000Y-76189281D01*
X119543469Y-76185000D01*
X119543477Y-76185000D01*
X119673490Y-76172195D01*
X119840313Y-76121589D01*
X119994059Y-76039411D01*
X120128817Y-75928817D01*
X120156534Y-75895044D01*
X120620045Y-75431533D01*
X120653817Y-75403817D01*
X120732402Y-75308061D01*
X130595000Y-75308061D01*
X130595000Y-75511939D01*
X130634774Y-75711898D01*
X130712795Y-75900256D01*
X130826063Y-76069774D01*
X130914454Y-76158165D01*
X130864774Y-76278102D01*
X130825000Y-76478061D01*
X130825000Y-76681939D01*
X130864774Y-76881898D01*
X130942795Y-77070256D01*
X131056063Y-77239774D01*
X131200226Y-77383937D01*
X131369744Y-77497205D01*
X131558102Y-77575226D01*
X131758061Y-77615000D01*
X131961939Y-77615000D01*
X132161898Y-77575226D01*
X132350256Y-77497205D01*
X132519774Y-77383937D01*
X132663937Y-77239774D01*
X132777205Y-77070256D01*
X132855226Y-76881898D01*
X132884093Y-76736775D01*
X133855868Y-75765000D01*
X141704133Y-75765000D01*
X142245001Y-76305869D01*
X142245000Y-79211062D01*
X142240960Y-79252081D01*
X142251707Y-79361201D01*
X142257082Y-79415769D01*
X142304828Y-79573167D01*
X142382364Y-79718226D01*
X142486709Y-79845372D01*
X142518578Y-79871526D01*
X143328482Y-80681432D01*
X143354628Y-80713291D01*
X143386487Y-80739437D01*
X143386489Y-80739439D01*
X143455486Y-80796063D01*
X143481773Y-80817636D01*
X143626832Y-80895172D01*
X143784230Y-80942918D01*
X143896108Y-80953937D01*
X143914849Y-80955783D01*
X144094866Y-81175134D01*
X144320986Y-81360706D01*
X144375791Y-81390000D01*
X144320986Y-81419294D01*
X144094866Y-81604866D01*
X143909294Y-81830986D01*
X143771401Y-82088966D01*
X143686487Y-82368889D01*
X143657815Y-82660000D01*
X143686487Y-82951111D01*
X143771401Y-83231034D01*
X143909294Y-83489014D01*
X144094866Y-83715134D01*
X144320986Y-83900706D01*
X144578966Y-84038599D01*
X144858889Y-84123513D01*
X145077050Y-84145000D01*
X145222950Y-84145000D01*
X145441111Y-84123513D01*
X145721034Y-84038599D01*
X145979014Y-83900706D01*
X146205134Y-83715134D01*
X146390706Y-83489014D01*
X146528599Y-83231034D01*
X146613513Y-82951111D01*
X146642185Y-82660000D01*
X146613513Y-82368889D01*
X146528599Y-82088966D01*
X146390706Y-81830986D01*
X146205134Y-81604866D01*
X145979014Y-81419294D01*
X145924209Y-81390000D01*
X145979014Y-81360706D01*
X146205134Y-81175134D01*
X146390706Y-80949014D01*
X146528599Y-80691034D01*
X146613513Y-80411111D01*
X146642185Y-80120000D01*
X146613513Y-79828889D01*
X146528599Y-79548966D01*
X146390706Y-79290986D01*
X146205134Y-79064866D01*
X145979014Y-78879294D01*
X145924209Y-78850000D01*
X145979014Y-78820706D01*
X146205134Y-78635134D01*
X146390706Y-78409014D01*
X146528599Y-78151034D01*
X146613513Y-77871111D01*
X146642185Y-77580000D01*
X146613513Y-77288889D01*
X146528599Y-77008966D01*
X146390706Y-76750986D01*
X146205134Y-76524866D01*
X146175313Y-76500393D01*
X146244180Y-76479502D01*
X146354494Y-76420537D01*
X146451185Y-76341185D01*
X146530537Y-76244494D01*
X146589502Y-76134180D01*
X146625812Y-76014482D01*
X146638072Y-75890000D01*
X146635000Y-75325750D01*
X146476250Y-75167000D01*
X145277000Y-75167000D01*
X145277000Y-75187000D01*
X145023000Y-75187000D01*
X145023000Y-75167000D01*
X145003000Y-75167000D01*
X145003000Y-74913000D01*
X145023000Y-74913000D01*
X145023000Y-73713750D01*
X145277000Y-73713750D01*
X145277000Y-74913000D01*
X146476250Y-74913000D01*
X146635000Y-74754250D01*
X146638072Y-74190000D01*
X146625812Y-74065518D01*
X146589502Y-73945820D01*
X146530537Y-73835506D01*
X146451185Y-73738815D01*
X146354494Y-73659463D01*
X146244180Y-73600498D01*
X146124482Y-73564188D01*
X146000000Y-73551928D01*
X145435750Y-73555000D01*
X145277000Y-73713750D01*
X145023000Y-73713750D01*
X144864250Y-73555000D01*
X144300000Y-73551928D01*
X144175518Y-73564188D01*
X144055820Y-73600498D01*
X143945506Y-73659463D01*
X143848815Y-73738815D01*
X143769463Y-73835506D01*
X143710498Y-73945820D01*
X143674188Y-74065518D01*
X143661928Y-74190000D01*
X143663357Y-74452489D01*
X142849446Y-73638579D01*
X142823291Y-73606709D01*
X142696146Y-73502364D01*
X142551087Y-73424828D01*
X142393689Y-73377082D01*
X142271019Y-73365000D01*
X142271018Y-73365000D01*
X142230000Y-73360960D01*
X142188982Y-73365000D01*
X132881007Y-73365000D01*
X132839999Y-73360961D01*
X132798991Y-73365000D01*
X132798981Y-73365000D01*
X132676311Y-73377082D01*
X132518913Y-73424828D01*
X132373854Y-73502364D01*
X132246709Y-73606709D01*
X132220558Y-73638574D01*
X131473225Y-74385907D01*
X131328102Y-74414774D01*
X131139744Y-74492795D01*
X130970226Y-74606063D01*
X130826063Y-74750226D01*
X130712795Y-74919744D01*
X130634774Y-75108102D01*
X130595000Y-75308061D01*
X120732402Y-75308061D01*
X120764411Y-75269059D01*
X120846589Y-75115313D01*
X120897195Y-74948490D01*
X120910000Y-74818477D01*
X120910000Y-74818467D01*
X120914281Y-74775001D01*
X120910000Y-74731535D01*
X120910000Y-73335000D01*
X129961546Y-73335000D01*
X130009744Y-73367205D01*
X130198102Y-73445226D01*
X130398061Y-73485000D01*
X130601939Y-73485000D01*
X130801898Y-73445226D01*
X130990256Y-73367205D01*
X131159774Y-73253937D01*
X131303937Y-73109774D01*
X131417205Y-72940256D01*
X131495226Y-72751898D01*
X131535000Y-72551939D01*
X131535000Y-72348061D01*
X131495226Y-72148102D01*
X131417205Y-71959744D01*
X131303937Y-71790226D01*
X131159774Y-71646063D01*
X130990256Y-71532795D01*
X130801898Y-71454774D01*
X130601939Y-71415000D01*
X130398061Y-71415000D01*
X130198102Y-71454774D01*
X130009744Y-71532795D01*
X129961546Y-71565000D01*
X120675700Y-71565000D01*
X120515256Y-71457795D01*
X120326898Y-71379774D01*
X120126939Y-71340000D01*
X119923061Y-71340000D01*
X119723102Y-71379774D01*
X119534744Y-71457795D01*
X119365226Y-71571063D01*
X119221063Y-71715226D01*
X119107795Y-71884744D01*
X119029774Y-72073102D01*
X118990000Y-72273061D01*
X118990000Y-72476939D01*
X119029774Y-72676898D01*
X119107795Y-72865256D01*
X119140001Y-72913455D01*
X119140000Y-74408422D01*
X119133422Y-74415000D01*
X117466579Y-74415000D01*
X116381531Y-73329953D01*
X116353816Y-73296182D01*
X116219058Y-73185588D01*
X116065312Y-73103410D01*
X115898489Y-73052804D01*
X115768476Y-73039999D01*
X115768468Y-73039999D01*
X115724999Y-73035718D01*
X115681530Y-73039999D01*
X115469382Y-73039999D01*
X115467205Y-73034744D01*
X115353937Y-72865226D01*
X115209774Y-72721063D01*
X115040256Y-72607795D01*
X114851898Y-72529774D01*
X114651939Y-72490000D01*
X114448061Y-72490000D01*
X114248102Y-72529774D01*
X114059744Y-72607795D01*
X113890226Y-72721063D01*
X113746063Y-72865226D01*
X113632795Y-73034744D01*
X113554774Y-73223102D01*
X113515000Y-73423061D01*
X113515000Y-73626939D01*
X113554774Y-73826898D01*
X113591267Y-73915000D01*
X113466579Y-73915000D01*
X112985000Y-73433422D01*
X112985000Y-71843465D01*
X112989281Y-71799999D01*
X112985000Y-71756532D01*
X112985000Y-71756523D01*
X112972195Y-71626510D01*
X112921589Y-71459687D01*
X112839411Y-71305941D01*
X112728817Y-71171183D01*
X112695050Y-71143471D01*
X112056534Y-70504956D01*
X112028817Y-70471183D01*
X111894059Y-70360589D01*
X111740313Y-70278411D01*
X111573490Y-70227805D01*
X111443477Y-70215000D01*
X111443469Y-70215000D01*
X111400000Y-70210719D01*
X111356531Y-70215000D01*
X109266579Y-70215000D01*
X108912500Y-69860922D01*
X108912500Y-68539156D01*
X108944705Y-68490958D01*
X109022726Y-68302600D01*
X109062500Y-68102641D01*
X109062500Y-67898763D01*
X109029286Y-67731785D01*
X109032795Y-67740256D01*
X109146063Y-67909774D01*
X109290226Y-68053937D01*
X109459744Y-68167205D01*
X109648102Y-68245226D01*
X109675679Y-68250711D01*
X109687274Y-68309006D01*
X109765295Y-68497364D01*
X109878563Y-68666882D01*
X110022726Y-68811045D01*
X110192244Y-68924313D01*
X110289460Y-68964582D01*
X110322274Y-69129548D01*
X110400295Y-69317906D01*
X110513563Y-69487424D01*
X110657726Y-69631587D01*
X110827244Y-69744855D01*
X111015602Y-69822876D01*
X111215561Y-69862650D01*
X111419439Y-69862650D01*
X111619398Y-69822876D01*
X111807756Y-69744855D01*
X111977274Y-69631587D01*
X111996211Y-69612650D01*
X112209685Y-69612650D01*
X112242115Y-69615844D01*
X112286505Y-69620216D01*
X112286511Y-69620216D01*
X112325066Y-69624013D01*
X112363621Y-69620216D01*
X122888789Y-69620216D01*
X122907726Y-69639153D01*
X123077244Y-69752421D01*
X123265602Y-69830442D01*
X123465561Y-69870216D01*
X123669439Y-69870216D01*
X123869398Y-69830442D01*
X124057756Y-69752421D01*
X124227274Y-69639153D01*
X124371437Y-69494990D01*
X124484705Y-69325472D01*
X124562726Y-69137114D01*
X124602500Y-68937155D01*
X124602500Y-68733277D01*
X124562726Y-68533318D01*
X124484705Y-68344960D01*
X124371437Y-68175442D01*
X124227274Y-68031279D01*
X124057756Y-67918011D01*
X123962180Y-67878422D01*
X123927726Y-67705210D01*
X123849705Y-67516852D01*
X123736437Y-67347334D01*
X123592274Y-67203171D01*
X123422756Y-67089903D01*
X123234398Y-67011882D01*
X123206821Y-67006397D01*
X123195226Y-66948102D01*
X123117205Y-66759744D01*
X123003937Y-66590226D01*
X122859774Y-66446063D01*
X122690256Y-66332795D01*
X122501898Y-66254774D01*
X122301939Y-66215000D01*
X122098061Y-66215000D01*
X121898102Y-66254774D01*
X121709744Y-66332795D01*
X121540226Y-66446063D01*
X121521289Y-66465000D01*
X110628711Y-66465000D01*
X110609774Y-66446063D01*
X110440256Y-66332795D01*
X110251898Y-66254774D01*
X110051939Y-66215000D01*
X109848061Y-66215000D01*
X109648102Y-66254774D01*
X109459744Y-66332795D01*
X109290226Y-66446063D01*
X109146063Y-66590226D01*
X109032795Y-66759744D01*
X108954774Y-66948102D01*
X108915000Y-67148061D01*
X108915000Y-67351939D01*
X108948214Y-67518917D01*
X108944705Y-67510446D01*
X108831437Y-67340928D01*
X108687274Y-67196765D01*
X108517756Y-67083497D01*
X108329398Y-67005476D01*
X108129439Y-66965702D01*
X107925561Y-66965702D01*
X107725602Y-67005476D01*
X107537244Y-67083497D01*
X107367726Y-67196765D01*
X107223563Y-67340928D01*
X107110295Y-67510446D01*
X107032274Y-67698804D01*
X106992500Y-67898763D01*
X106992500Y-68102641D01*
X107032274Y-68302600D01*
X107110295Y-68490958D01*
X107142500Y-68539157D01*
X107142501Y-70184021D01*
X107138219Y-70227500D01*
X107155305Y-70400990D01*
X107205912Y-70567813D01*
X107288090Y-70721559D01*
X107370968Y-70822546D01*
X107370971Y-70822549D01*
X107398684Y-70856317D01*
X107432451Y-70884029D01*
X108243470Y-71695049D01*
X108271183Y-71728817D01*
X108304951Y-71756530D01*
X108304953Y-71756532D01*
X108346009Y-71790226D01*
X108405941Y-71839411D01*
X108559687Y-71921589D01*
X108726510Y-71972195D01*
X108856523Y-71985000D01*
X108856533Y-71985000D01*
X108899999Y-71989281D01*
X108943465Y-71985000D01*
X111033422Y-71985000D01*
X111215000Y-72166579D01*
X111215001Y-73756521D01*
X111210719Y-73800000D01*
X111227805Y-73973490D01*
X111278412Y-74140313D01*
X111360590Y-74294059D01*
X111443468Y-74395046D01*
X111443471Y-74395049D01*
X111471184Y-74428817D01*
X111504951Y-74456529D01*
X112443470Y-75395049D01*
X112471183Y-75428817D01*
X112504951Y-75456530D01*
X112504953Y-75456532D01*
X112605941Y-75539411D01*
X112759686Y-75621589D01*
X112844097Y-75647195D01*
X112926510Y-75672195D01*
X113056523Y-75685000D01*
X113056531Y-75685000D01*
X113100000Y-75689281D01*
X113143469Y-75685000D01*
X113782850Y-75685000D01*
X113682795Y-75834744D01*
X113604774Y-76023102D01*
X113565000Y-76223061D01*
X113565000Y-76426939D01*
X113604774Y-76626898D01*
X113682795Y-76815256D01*
X113796063Y-76984774D01*
X113815000Y-77003711D01*
X113815001Y-78230236D01*
X113653805Y-78391432D01*
X113627023Y-78391432D01*
X113427064Y-78431206D01*
X113238706Y-78509227D01*
X113069188Y-78622495D01*
X112925025Y-78766658D01*
X112811757Y-78936176D01*
X112733736Y-79124534D01*
X112693962Y-79324493D01*
X112693962Y-79528371D01*
X112733736Y-79728330D01*
X112811757Y-79916688D01*
X112908857Y-80062009D01*
X112788721Y-80111772D01*
X112619203Y-80225040D01*
X112475040Y-80369203D01*
X112361772Y-80538721D01*
X112283751Y-80727079D01*
X112243977Y-80927038D01*
X112243977Y-81130916D01*
X112275621Y-81290000D01*
X110139802Y-81290000D01*
X109713803Y-80864002D01*
X109690001Y-80834999D01*
X109574276Y-80740026D01*
X109442247Y-80669454D01*
X109298986Y-80625997D01*
X109187333Y-80615000D01*
X109187322Y-80615000D01*
X109150000Y-80611324D01*
X109112678Y-80615000D01*
X104412342Y-80615000D01*
X104375019Y-80611324D01*
X104337696Y-80615000D01*
X104337687Y-80615000D01*
X104226034Y-80625997D01*
X104082773Y-80669454D01*
X103950744Y-80740026D01*
X103835019Y-80834999D01*
X103811220Y-80863998D01*
X103735208Y-80940010D01*
X103673071Y-80940010D01*
X103473112Y-80979784D01*
X103284754Y-81057805D01*
X103115236Y-81171073D01*
X102971073Y-81315236D01*
X102857805Y-81484754D01*
X102779784Y-81673112D01*
X102740010Y-81873071D01*
X102740010Y-82076949D01*
X102779784Y-82276908D01*
X102857805Y-82465266D01*
X102971073Y-82634784D01*
X103115236Y-82778947D01*
X103284754Y-82892215D01*
X103473112Y-82970236D01*
X103673071Y-83010010D01*
X103876949Y-83010010D01*
X104076908Y-82970236D01*
X104265266Y-82892215D01*
X104434784Y-82778947D01*
X104578947Y-82634784D01*
X104692215Y-82465266D01*
X104770236Y-82276908D01*
X104798463Y-82135000D01*
X106552500Y-82135000D01*
X106552500Y-82201939D01*
X106592274Y-82401898D01*
X106670295Y-82590256D01*
X106783563Y-82759774D01*
X106927726Y-82903937D01*
X107097244Y-83017205D01*
X107285602Y-83095226D01*
X107485561Y-83135000D01*
X107547698Y-83135000D01*
X107623711Y-83211013D01*
X107647510Y-83240012D01*
X107763235Y-83334985D01*
X107895264Y-83405557D01*
X108038525Y-83449014D01*
X108150178Y-83460011D01*
X108150186Y-83460011D01*
X108187511Y-83463687D01*
X108224836Y-83460011D01*
X118537667Y-83460011D01*
X118574989Y-83463687D01*
X118612311Y-83460011D01*
X118612322Y-83460011D01*
X118723975Y-83449014D01*
X118867236Y-83405557D01*
X118999265Y-83334985D01*
X119114990Y-83240012D01*
X119138792Y-83211009D01*
X119911002Y-82438799D01*
X119940001Y-82415001D01*
X120034974Y-82299276D01*
X120052089Y-82267256D01*
X120105546Y-82167247D01*
X120149003Y-82023986D01*
X120151556Y-81998061D01*
X120160000Y-81912332D01*
X120160000Y-81912325D01*
X120163676Y-81875000D01*
X120160000Y-81837675D01*
X120160000Y-80964801D01*
X120315000Y-80809802D01*
X120315000Y-80976939D01*
X120354774Y-81176898D01*
X120432795Y-81365256D01*
X120546063Y-81534774D01*
X120590001Y-81578712D01*
X120590000Y-87310198D01*
X120360199Y-87540000D01*
X117487322Y-87540000D01*
X117449999Y-87536324D01*
X117412677Y-87540000D01*
X117412667Y-87540000D01*
X117301014Y-87550997D01*
X117157753Y-87594454D01*
X117025723Y-87665026D01*
X116942083Y-87733668D01*
X116909999Y-87759999D01*
X116886201Y-87788997D01*
X115758998Y-88916201D01*
X115730000Y-88939999D01*
X115706202Y-88968997D01*
X115706201Y-88968998D01*
X115635026Y-89055724D01*
X115564454Y-89187754D01*
X115544891Y-89252247D01*
X115528890Y-89304999D01*
X115520998Y-89331015D01*
X115506324Y-89480000D01*
X115510001Y-89517332D01*
X115510001Y-89982734D01*
X115331067Y-89908617D01*
X115111788Y-89865000D01*
X114888212Y-89865000D01*
X114668933Y-89908617D01*
X114462376Y-89994176D01*
X114365000Y-90059241D01*
X114267624Y-89994176D01*
X114061067Y-89908617D01*
X113841788Y-89865000D01*
X113618212Y-89865000D01*
X113398933Y-89908617D01*
X113192376Y-89994176D01*
X113095000Y-90059241D01*
X112997624Y-89994176D01*
X112791067Y-89908617D01*
X112571788Y-89865000D01*
X112348212Y-89865000D01*
X112128933Y-89908617D01*
X111922376Y-89994176D01*
X111825000Y-90059241D01*
X111727624Y-89994176D01*
X111521067Y-89908617D01*
X111301788Y-89865000D01*
X111078212Y-89865000D01*
X110858933Y-89908617D01*
X110652376Y-89994176D01*
X110555000Y-90059241D01*
X110457624Y-89994176D01*
X110251067Y-89908617D01*
X110031788Y-89865000D01*
X109808212Y-89865000D01*
X109771125Y-89872377D01*
X109810000Y-89676939D01*
X109810000Y-89473061D01*
X109770226Y-89273102D01*
X109692205Y-89084744D01*
X109578937Y-88915226D01*
X109434774Y-88771063D01*
X109265256Y-88657795D01*
X109076898Y-88579774D01*
X108876939Y-88540000D01*
X108673061Y-88540000D01*
X108473102Y-88579774D01*
X108284744Y-88657795D01*
X108115226Y-88771063D01*
X108071289Y-88815000D01*
X107732813Y-88815000D01*
X107741059Y-88731274D01*
X107741059Y-88731265D01*
X107744735Y-88693942D01*
X107741059Y-88656619D01*
X107741059Y-87485075D01*
X107784996Y-87441138D01*
X107898264Y-87271620D01*
X107976285Y-87083262D01*
X108016059Y-86883303D01*
X108016059Y-86679425D01*
X107976285Y-86479466D01*
X107898264Y-86291108D01*
X107784996Y-86121590D01*
X107640833Y-85977427D01*
X107471315Y-85864159D01*
X107282957Y-85786138D01*
X107082998Y-85746364D01*
X106879120Y-85746364D01*
X106679161Y-85786138D01*
X106490803Y-85864159D01*
X106321285Y-85977427D01*
X106177122Y-86121590D01*
X106063854Y-86291108D01*
X105985833Y-86479466D01*
X105946059Y-86679425D01*
X105946059Y-86883303D01*
X105985833Y-87083262D01*
X106063854Y-87271620D01*
X106177122Y-87441138D01*
X106221060Y-87485076D01*
X106221059Y-88200000D01*
X87661828Y-88200000D01*
X87592497Y-88096238D01*
X87403762Y-87907503D01*
X87181833Y-87759215D01*
X86935239Y-87657072D01*
X86673456Y-87605000D01*
X86406544Y-87605000D01*
X86144761Y-87657072D01*
X85898167Y-87759215D01*
X85676238Y-87907503D01*
X85487503Y-88096238D01*
X85339215Y-88318167D01*
X85237072Y-88564761D01*
X85185000Y-88826544D01*
X80660000Y-88826544D01*
X80660000Y-87355560D01*
X83244045Y-87355560D01*
X83305932Y-87591368D01*
X83547790Y-87704266D01*
X83807027Y-87767811D01*
X84073680Y-87779561D01*
X84337501Y-87739063D01*
X84588353Y-87647875D01*
X84694068Y-87591368D01*
X84755955Y-87355560D01*
X84000000Y-86599605D01*
X83244045Y-87355560D01*
X80660000Y-87355560D01*
X80660000Y-86493680D01*
X82640439Y-86493680D01*
X82680937Y-86757501D01*
X82772125Y-87008353D01*
X82828632Y-87114068D01*
X83064440Y-87175955D01*
X83820395Y-86420000D01*
X84179605Y-86420000D01*
X84935560Y-87175955D01*
X85171368Y-87114068D01*
X85284266Y-86872210D01*
X85347811Y-86612973D01*
X85359561Y-86346320D01*
X85319063Y-86082499D01*
X85227875Y-85831647D01*
X85171368Y-85725932D01*
X84935560Y-85664045D01*
X84179605Y-86420000D01*
X83820395Y-86420000D01*
X83064440Y-85664045D01*
X82828632Y-85725932D01*
X82715734Y-85967790D01*
X82652189Y-86227027D01*
X82640439Y-86493680D01*
X80660000Y-86493680D01*
X80660000Y-85484440D01*
X83244045Y-85484440D01*
X84000000Y-86240395D01*
X84755955Y-85484440D01*
X84694068Y-85248632D01*
X84452210Y-85135734D01*
X84192973Y-85072189D01*
X83926320Y-85060439D01*
X83662499Y-85100937D01*
X83411647Y-85192125D01*
X83305932Y-85248632D01*
X83244045Y-85484440D01*
X80660000Y-85484440D01*
X80660000Y-68627000D01*
X88000000Y-68627000D01*
X88024776Y-68624560D01*
X88048601Y-68617333D01*
X88070557Y-68605597D01*
X88089803Y-68589803D01*
X88105597Y-68570557D01*
X88117333Y-68548601D01*
X88124560Y-68524776D01*
X88127000Y-68500000D01*
X88127000Y-60160000D01*
X97932785Y-60160000D01*
X97858149Y-60234636D01*
M02*
