M48
; DRILL file {KiCad (5.1.0)-1} date 05.10.2020 07:23:53
; FORMAT={-:-/ absolute / metric / decimal}
; #@! TF.CreationDate,2020-10-05T07:23:53+02:00
; #@! TF.GenerationSoftware,Kicad,Pcbnew,(5.1.0)-1
; #@! TF.FileFunction,Plated,1,2,PTH
FMAT,2
METRIC
T1C0.400
T2C0.500
T3C0.800
T4C0.900
T5C0.920
T6C1.000
T7C2.330
%
G90
G05
T1
X103.775Y-81.975
X106.981Y-86.781
X106.987Y-85.763
X107.587Y-82.1
X108.027Y-68.001
X108.65Y-75.6
X108.775Y-89.575
X109.95Y-67.25
X110.682Y-68.007
X111.317Y-68.828
X112.025Y-83.9
X113.279Y-81.029
X113.729Y-79.426
X114.55Y-73.525
X114.6Y-76.325
X115.337Y-64.763
X117.062Y-73.712
X117.3Y-69.585
X117.587Y-64.763
X120.025Y-72.375
X121.35Y-80.875
X122.2Y-67.25
X122.2Y-81.6
X122.932Y-68.007
X123.567Y-68.835
X126.1Y-85.775
X126.5Y-69.7
X126.55Y-80.15
X126.775Y-83.55
X127.225Y-80.975
X127.29Y-94.36
X128.5Y-69.7
X129.7Y-83.525
X129.83Y-109.22
X130.327Y-80.252
X130.5Y-72.45
X131.42Y-81.25
X131.47Y-102.17
X131.63Y-75.41
X131.86Y-76.58
X132.2Y-87.9
X133.41Y-105.45
X136.24Y-94.97
X136.55Y-80.25
X137.0Y-92.05
X137.0Y-104.225
X137.5Y-70.25
X139.85Y-92.05
X139.85Y-104.225
X140.5Y-76.05
X141.225Y-92.075
X141.725Y-100.75
X142.65Y-92.05
X142.65Y-104.225
X145.35Y-92.1
X145.35Y-104.25
X148.0Y-92.05
X148.0Y-104.225
T2
X106.11Y-91.0
X107.38Y-91.0
X108.65Y-91.0
X109.92Y-91.0
X111.19Y-91.0
X112.46Y-91.0
X113.73Y-91.0
X115.0Y-91.0
X116.27Y-91.0
X117.54Y-91.0
X118.81Y-91.0
X120.08Y-91.0
X121.35Y-91.0
X122.62Y-91.0
X123.89Y-91.0
T3
X84.0Y-86.42
X84.0Y-91.5
X86.54Y-88.96
T4
X100.73Y-108.5
X103.27Y-108.5
X86.73Y-108.5
X89.27Y-108.5
X114.73Y-108.5
X117.27Y-108.5
T5
X141.8Y-112.475
X141.8Y-114.975
X143.8Y-112.475
X143.8Y-114.975
T6
X105.25Y-62.25
X107.79Y-62.25
X110.33Y-62.25
X112.87Y-62.25
X145.15Y-75.04
X145.15Y-77.58
X145.15Y-80.12
X145.15Y-82.66
X117.5Y-62.25
X120.04Y-62.25
X122.58Y-62.25
X125.12Y-62.25
T7
X146.51Y-107.705
X146.51Y-119.745
T0
M30
