G04 #@! TF.GenerationSoftware,KiCad,Pcbnew,(5.1.0)-1*
G04 #@! TF.CreationDate,2020-10-05T07:23:46+02:00*
G04 #@! TF.ProjectId,Waage,57616167-652e-46b6-9963-61645f706362,rev?*
G04 #@! TF.SameCoordinates,Original*
G04 #@! TF.FileFunction,Soldermask,Bot*
G04 #@! TF.FilePolarity,Negative*
%FSLAX46Y46*%
G04 Gerber Fmt 4.6, Leading zero omitted, Abs format (unit mm)*
G04 Created by KiCad (PCBNEW (5.1.0)-1) date 2020-10-05 07:23:46*
%MOMM*%
%LPD*%
G04 APERTURE LIST*
%ADD10C,0.100000*%
G04 APERTURE END LIST*
D10*
G36*
X147035331Y-118013211D02*
G01*
X147363092Y-118148974D01*
X147658070Y-118346072D01*
X147908928Y-118596930D01*
X148106026Y-118891908D01*
X148241789Y-119219669D01*
X148311000Y-119567616D01*
X148311000Y-119922384D01*
X148241789Y-120270331D01*
X148106026Y-120598092D01*
X147908928Y-120893070D01*
X147658070Y-121143928D01*
X147363092Y-121341026D01*
X147035331Y-121476789D01*
X146687384Y-121546000D01*
X146332616Y-121546000D01*
X145984669Y-121476789D01*
X145656908Y-121341026D01*
X145361930Y-121143928D01*
X145111072Y-120893070D01*
X144913974Y-120598092D01*
X144778211Y-120270331D01*
X144709000Y-119922384D01*
X144709000Y-119567616D01*
X144778211Y-119219669D01*
X144913974Y-118891908D01*
X145111072Y-118596930D01*
X145361930Y-118346072D01*
X145656908Y-118148974D01*
X145984669Y-118013211D01*
X146332616Y-117944000D01*
X146687384Y-117944000D01*
X147035331Y-118013211D01*
X147035331Y-118013211D01*
G37*
G36*
X130375256Y-116391298D02*
G01*
X130481579Y-116412447D01*
X130782042Y-116536903D01*
X131052451Y-116717585D01*
X131282415Y-116947549D01*
X131463097Y-117217958D01*
X131587553Y-117518421D01*
X131651000Y-117837391D01*
X131651000Y-118162609D01*
X131587553Y-118481579D01*
X131463097Y-118782042D01*
X131282415Y-119052451D01*
X131052451Y-119282415D01*
X130782042Y-119463097D01*
X130481579Y-119587553D01*
X130375256Y-119608702D01*
X130162611Y-119651000D01*
X129837389Y-119651000D01*
X129624744Y-119608702D01*
X129518421Y-119587553D01*
X129217958Y-119463097D01*
X128947549Y-119282415D01*
X128717585Y-119052451D01*
X128536903Y-118782042D01*
X128412447Y-118481579D01*
X128349000Y-118162609D01*
X128349000Y-117837391D01*
X128412447Y-117518421D01*
X128536903Y-117217958D01*
X128717585Y-116947549D01*
X128947549Y-116717585D01*
X129217958Y-116536903D01*
X129518421Y-116412447D01*
X129624744Y-116391298D01*
X129837389Y-116349000D01*
X130162611Y-116349000D01*
X130375256Y-116391298D01*
X130375256Y-116391298D01*
G37*
G36*
X84375256Y-116391298D02*
G01*
X84481579Y-116412447D01*
X84782042Y-116536903D01*
X85052451Y-116717585D01*
X85282415Y-116947549D01*
X85463097Y-117217958D01*
X85587553Y-117518421D01*
X85651000Y-117837391D01*
X85651000Y-118162609D01*
X85587553Y-118481579D01*
X85463097Y-118782042D01*
X85282415Y-119052451D01*
X85052451Y-119282415D01*
X84782042Y-119463097D01*
X84481579Y-119587553D01*
X84375256Y-119608702D01*
X84162611Y-119651000D01*
X83837389Y-119651000D01*
X83624744Y-119608702D01*
X83518421Y-119587553D01*
X83217958Y-119463097D01*
X82947549Y-119282415D01*
X82717585Y-119052451D01*
X82536903Y-118782042D01*
X82412447Y-118481579D01*
X82349000Y-118162609D01*
X82349000Y-117837391D01*
X82412447Y-117518421D01*
X82536903Y-117217958D01*
X82717585Y-116947549D01*
X82947549Y-116717585D01*
X83217958Y-116536903D01*
X83518421Y-116412447D01*
X83624744Y-116391298D01*
X83837389Y-116349000D01*
X84162611Y-116349000D01*
X84375256Y-116391298D01*
X84375256Y-116391298D01*
G37*
G36*
X141913512Y-114078927D02*
G01*
X142062812Y-114108624D01*
X142226784Y-114176544D01*
X142374354Y-114275147D01*
X142499853Y-114400646D01*
X142598456Y-114548216D01*
X142666376Y-114712188D01*
X142677405Y-114767638D01*
X142684516Y-114791078D01*
X142696067Y-114812689D01*
X142711613Y-114831631D01*
X142730555Y-114847176D01*
X142752165Y-114858727D01*
X142775614Y-114865840D01*
X142800000Y-114868242D01*
X142824387Y-114865840D01*
X142847835Y-114858727D01*
X142869446Y-114847176D01*
X142888388Y-114831630D01*
X142903933Y-114812688D01*
X142915484Y-114791078D01*
X142922595Y-114767638D01*
X142933624Y-114712188D01*
X143001544Y-114548216D01*
X143100147Y-114400646D01*
X143225646Y-114275147D01*
X143373216Y-114176544D01*
X143537188Y-114108624D01*
X143686488Y-114078927D01*
X143711258Y-114074000D01*
X143888742Y-114074000D01*
X143913512Y-114078927D01*
X144062812Y-114108624D01*
X144226784Y-114176544D01*
X144374354Y-114275147D01*
X144499853Y-114400646D01*
X144598456Y-114548216D01*
X144666376Y-114712188D01*
X144701000Y-114886259D01*
X144701000Y-115063741D01*
X144666376Y-115237812D01*
X144598456Y-115401784D01*
X144499853Y-115549354D01*
X144374354Y-115674853D01*
X144226784Y-115773456D01*
X144062812Y-115841376D01*
X143913512Y-115871073D01*
X143888742Y-115876000D01*
X143711258Y-115876000D01*
X143686488Y-115871073D01*
X143537188Y-115841376D01*
X143373216Y-115773456D01*
X143225646Y-115674853D01*
X143100147Y-115549354D01*
X143001544Y-115401784D01*
X142933624Y-115237812D01*
X142922595Y-115182362D01*
X142915484Y-115158922D01*
X142903933Y-115137311D01*
X142888387Y-115118369D01*
X142869445Y-115102824D01*
X142847835Y-115091273D01*
X142824386Y-115084160D01*
X142800000Y-115081758D01*
X142775613Y-115084160D01*
X142752165Y-115091273D01*
X142730554Y-115102824D01*
X142711612Y-115118370D01*
X142696067Y-115137312D01*
X142684516Y-115158922D01*
X142677405Y-115182362D01*
X142666376Y-115237812D01*
X142598456Y-115401784D01*
X142499853Y-115549354D01*
X142374354Y-115674853D01*
X142226784Y-115773456D01*
X142062812Y-115841376D01*
X141913512Y-115871073D01*
X141888742Y-115876000D01*
X141711258Y-115876000D01*
X141686488Y-115871073D01*
X141537188Y-115841376D01*
X141373216Y-115773456D01*
X141225646Y-115674853D01*
X141100147Y-115549354D01*
X141001544Y-115401784D01*
X140933624Y-115237812D01*
X140899000Y-115063741D01*
X140899000Y-114886259D01*
X140933624Y-114712188D01*
X141001544Y-114548216D01*
X141100147Y-114400646D01*
X141225646Y-114275147D01*
X141373216Y-114176544D01*
X141537188Y-114108624D01*
X141686488Y-114078927D01*
X141711258Y-114074000D01*
X141888742Y-114074000D01*
X141913512Y-114078927D01*
X141913512Y-114078927D01*
G37*
G36*
X142701000Y-112145383D02*
G01*
X142703402Y-112169769D01*
X142710515Y-112193218D01*
X142722066Y-112214829D01*
X142737611Y-112233771D01*
X142756553Y-112249316D01*
X142778164Y-112260867D01*
X142801613Y-112267980D01*
X142825999Y-112270382D01*
X142850385Y-112267980D01*
X142873834Y-112260867D01*
X142895445Y-112249316D01*
X142914387Y-112233771D01*
X142929932Y-112214829D01*
X142941477Y-112193229D01*
X143001544Y-112048216D01*
X143100147Y-111900646D01*
X143225646Y-111775147D01*
X143373216Y-111676544D01*
X143537188Y-111608624D01*
X143686488Y-111578927D01*
X143711258Y-111574000D01*
X143888742Y-111574000D01*
X143913512Y-111578927D01*
X144062812Y-111608624D01*
X144226784Y-111676544D01*
X144374354Y-111775147D01*
X144499853Y-111900646D01*
X144598456Y-112048216D01*
X144666376Y-112212188D01*
X144701000Y-112386259D01*
X144701000Y-112563741D01*
X144666376Y-112737812D01*
X144598456Y-112901784D01*
X144499853Y-113049354D01*
X144374354Y-113174853D01*
X144226784Y-113273456D01*
X144062812Y-113341376D01*
X143913512Y-113371073D01*
X143888742Y-113376000D01*
X143711258Y-113376000D01*
X143686488Y-113371073D01*
X143537188Y-113341376D01*
X143373216Y-113273456D01*
X143225646Y-113174853D01*
X143100147Y-113049354D01*
X143001544Y-112901784D01*
X142941477Y-112756771D01*
X142929932Y-112735171D01*
X142914387Y-112716229D01*
X142895445Y-112700684D01*
X142873834Y-112689133D01*
X142850385Y-112682020D01*
X142825999Y-112679618D01*
X142801613Y-112682020D01*
X142778164Y-112689133D01*
X142756553Y-112700684D01*
X142737611Y-112716229D01*
X142722066Y-112735171D01*
X142710515Y-112756782D01*
X142703402Y-112780231D01*
X142701000Y-112804617D01*
X142701000Y-113376000D01*
X140899000Y-113376000D01*
X140899000Y-111574000D01*
X142701000Y-111574000D01*
X142701000Y-112145383D01*
X142701000Y-112145383D01*
G37*
G36*
X147035331Y-105973211D02*
G01*
X147363092Y-106108974D01*
X147658070Y-106306072D01*
X147908928Y-106556930D01*
X148106026Y-106851908D01*
X148241789Y-107179669D01*
X148311000Y-107527616D01*
X148311000Y-107882384D01*
X148241789Y-108230331D01*
X148106026Y-108558092D01*
X147908928Y-108853070D01*
X147658070Y-109103928D01*
X147363092Y-109301026D01*
X147035331Y-109436789D01*
X146687384Y-109506000D01*
X146332616Y-109506000D01*
X145984669Y-109436789D01*
X145656908Y-109301026D01*
X145361930Y-109103928D01*
X145111072Y-108853070D01*
X144913974Y-108558092D01*
X144778211Y-108230331D01*
X144709000Y-107882384D01*
X144709000Y-107527616D01*
X144778211Y-107179669D01*
X144913974Y-106851908D01*
X145111072Y-106556930D01*
X145361930Y-106306072D01*
X145656908Y-106108974D01*
X145984669Y-105973211D01*
X146332616Y-105904000D01*
X146687384Y-105904000D01*
X147035331Y-105973211D01*
X147035331Y-105973211D01*
G37*
G36*
X101007395Y-107585546D02*
G01*
X101180466Y-107657234D01*
X101180467Y-107657235D01*
X101336227Y-107761310D01*
X101468690Y-107893773D01*
X101468691Y-107893775D01*
X101572766Y-108049534D01*
X101644454Y-108222605D01*
X101681000Y-108406333D01*
X101681000Y-108593667D01*
X101644454Y-108777395D01*
X101572766Y-108950466D01*
X101572765Y-108950467D01*
X101468690Y-109106227D01*
X101336227Y-109238690D01*
X101257818Y-109291081D01*
X101180466Y-109342766D01*
X101007395Y-109414454D01*
X100823667Y-109451000D01*
X100636333Y-109451000D01*
X100452605Y-109414454D01*
X100279534Y-109342766D01*
X100202182Y-109291081D01*
X100123773Y-109238690D01*
X99991310Y-109106227D01*
X99887235Y-108950467D01*
X99887234Y-108950466D01*
X99815546Y-108777395D01*
X99779000Y-108593667D01*
X99779000Y-108406333D01*
X99815546Y-108222605D01*
X99887234Y-108049534D01*
X99991309Y-107893775D01*
X99991310Y-107893773D01*
X100123773Y-107761310D01*
X100279533Y-107657235D01*
X100279534Y-107657234D01*
X100452605Y-107585546D01*
X100636333Y-107549000D01*
X100823667Y-107549000D01*
X101007395Y-107585546D01*
X101007395Y-107585546D01*
G37*
G36*
X115007395Y-107585546D02*
G01*
X115180466Y-107657234D01*
X115180467Y-107657235D01*
X115336227Y-107761310D01*
X115468690Y-107893773D01*
X115468691Y-107893775D01*
X115572766Y-108049534D01*
X115644454Y-108222605D01*
X115681000Y-108406333D01*
X115681000Y-108593667D01*
X115644454Y-108777395D01*
X115572766Y-108950466D01*
X115572765Y-108950467D01*
X115468690Y-109106227D01*
X115336227Y-109238690D01*
X115257818Y-109291081D01*
X115180466Y-109342766D01*
X115007395Y-109414454D01*
X114823667Y-109451000D01*
X114636333Y-109451000D01*
X114452605Y-109414454D01*
X114279534Y-109342766D01*
X114202182Y-109291081D01*
X114123773Y-109238690D01*
X113991310Y-109106227D01*
X113887235Y-108950467D01*
X113887234Y-108950466D01*
X113815546Y-108777395D01*
X113779000Y-108593667D01*
X113779000Y-108406333D01*
X113815546Y-108222605D01*
X113887234Y-108049534D01*
X113991309Y-107893775D01*
X113991310Y-107893773D01*
X114123773Y-107761310D01*
X114279533Y-107657235D01*
X114279534Y-107657234D01*
X114452605Y-107585546D01*
X114636333Y-107549000D01*
X114823667Y-107549000D01*
X115007395Y-107585546D01*
X115007395Y-107585546D01*
G37*
G36*
X118221000Y-109451000D02*
G01*
X116319000Y-109451000D01*
X116319000Y-107549000D01*
X118221000Y-107549000D01*
X118221000Y-109451000D01*
X118221000Y-109451000D01*
G37*
G36*
X87007395Y-107585546D02*
G01*
X87180466Y-107657234D01*
X87180467Y-107657235D01*
X87336227Y-107761310D01*
X87468690Y-107893773D01*
X87468691Y-107893775D01*
X87572766Y-108049534D01*
X87644454Y-108222605D01*
X87681000Y-108406333D01*
X87681000Y-108593667D01*
X87644454Y-108777395D01*
X87572766Y-108950466D01*
X87572765Y-108950467D01*
X87468690Y-109106227D01*
X87336227Y-109238690D01*
X87257818Y-109291081D01*
X87180466Y-109342766D01*
X87007395Y-109414454D01*
X86823667Y-109451000D01*
X86636333Y-109451000D01*
X86452605Y-109414454D01*
X86279534Y-109342766D01*
X86202182Y-109291081D01*
X86123773Y-109238690D01*
X85991310Y-109106227D01*
X85887235Y-108950467D01*
X85887234Y-108950466D01*
X85815546Y-108777395D01*
X85779000Y-108593667D01*
X85779000Y-108406333D01*
X85815546Y-108222605D01*
X85887234Y-108049534D01*
X85991309Y-107893775D01*
X85991310Y-107893773D01*
X86123773Y-107761310D01*
X86279533Y-107657235D01*
X86279534Y-107657234D01*
X86452605Y-107585546D01*
X86636333Y-107549000D01*
X86823667Y-107549000D01*
X87007395Y-107585546D01*
X87007395Y-107585546D01*
G37*
G36*
X90221000Y-109451000D02*
G01*
X88319000Y-109451000D01*
X88319000Y-107549000D01*
X90221000Y-107549000D01*
X90221000Y-109451000D01*
X90221000Y-109451000D01*
G37*
G36*
X104221000Y-109451000D02*
G01*
X102319000Y-109451000D01*
X102319000Y-107549000D01*
X104221000Y-107549000D01*
X104221000Y-109451000D01*
X104221000Y-109451000D01*
G37*
G36*
X99718433Y-90134893D02*
G01*
X99808657Y-90152839D01*
X99914267Y-90196585D01*
X100063621Y-90258449D01*
X100063622Y-90258450D01*
X100293086Y-90411772D01*
X100488228Y-90606914D01*
X100516187Y-90648758D01*
X100641551Y-90836379D01*
X100686846Y-90945730D01*
X100731805Y-91054270D01*
X100747161Y-91091344D01*
X100801000Y-91362012D01*
X100801000Y-91637988D01*
X100747161Y-91908656D01*
X100641551Y-92163621D01*
X100641550Y-92163622D01*
X100488228Y-92393086D01*
X100293086Y-92588228D01*
X100139763Y-92690675D01*
X100063621Y-92741551D01*
X99914267Y-92803415D01*
X99808657Y-92847161D01*
X99718433Y-92865107D01*
X99537988Y-92901000D01*
X99262012Y-92901000D01*
X99081567Y-92865107D01*
X98991343Y-92847161D01*
X98885733Y-92803415D01*
X98736379Y-92741551D01*
X98660237Y-92690675D01*
X98506914Y-92588228D01*
X98311772Y-92393086D01*
X98158450Y-92163622D01*
X98158449Y-92163621D01*
X98052839Y-91908656D01*
X97999000Y-91637988D01*
X97999000Y-91362012D01*
X98052839Y-91091344D01*
X98068196Y-91054270D01*
X98113154Y-90945730D01*
X98158449Y-90836379D01*
X98283813Y-90648758D01*
X98311772Y-90606914D01*
X98506914Y-90411772D01*
X98736378Y-90258450D01*
X98736379Y-90258449D01*
X98885733Y-90196585D01*
X98991343Y-90152839D01*
X99081567Y-90134893D01*
X99262012Y-90099000D01*
X99537988Y-90099000D01*
X99718433Y-90134893D01*
X99718433Y-90134893D01*
G37*
G36*
X130918433Y-90134893D02*
G01*
X131008657Y-90152839D01*
X131114267Y-90196585D01*
X131263621Y-90258449D01*
X131263622Y-90258450D01*
X131493086Y-90411772D01*
X131688228Y-90606914D01*
X131716187Y-90648758D01*
X131841551Y-90836379D01*
X131886846Y-90945730D01*
X131931805Y-91054270D01*
X131947161Y-91091344D01*
X132001000Y-91362012D01*
X132001000Y-91637988D01*
X131947161Y-91908656D01*
X131841551Y-92163621D01*
X131841550Y-92163622D01*
X131688228Y-92393086D01*
X131493086Y-92588228D01*
X131339763Y-92690675D01*
X131263621Y-92741551D01*
X131114267Y-92803415D01*
X131008657Y-92847161D01*
X130918433Y-92865107D01*
X130737988Y-92901000D01*
X130462012Y-92901000D01*
X130281567Y-92865107D01*
X130191343Y-92847161D01*
X130085733Y-92803415D01*
X129936379Y-92741551D01*
X129860237Y-92690675D01*
X129706914Y-92588228D01*
X129511772Y-92393086D01*
X129358450Y-92163622D01*
X129358449Y-92163621D01*
X129252839Y-91908656D01*
X129199000Y-91637988D01*
X129199000Y-91362012D01*
X129252839Y-91091344D01*
X129268196Y-91054270D01*
X129313154Y-90945730D01*
X129358449Y-90836379D01*
X129483813Y-90648758D01*
X129511772Y-90606914D01*
X129706914Y-90411772D01*
X129936378Y-90258450D01*
X129936379Y-90258449D01*
X130085733Y-90196585D01*
X130191343Y-90152839D01*
X130281567Y-90134893D01*
X130462012Y-90099000D01*
X130737988Y-90099000D01*
X130918433Y-90134893D01*
X130918433Y-90134893D01*
G37*
G36*
X84125589Y-90738876D02*
G01*
X84224893Y-90758629D01*
X84365206Y-90816748D01*
X84491484Y-90901125D01*
X84598875Y-91008516D01*
X84683252Y-91134794D01*
X84741371Y-91275107D01*
X84771000Y-91424063D01*
X84771000Y-91575937D01*
X84741371Y-91724893D01*
X84683252Y-91865206D01*
X84598875Y-91991484D01*
X84491484Y-92098875D01*
X84365206Y-92183252D01*
X84224893Y-92241371D01*
X84125589Y-92261124D01*
X84075938Y-92271000D01*
X83924062Y-92271000D01*
X83874411Y-92261124D01*
X83775107Y-92241371D01*
X83634794Y-92183252D01*
X83508516Y-92098875D01*
X83401125Y-91991484D01*
X83316748Y-91865206D01*
X83258629Y-91724893D01*
X83229000Y-91575937D01*
X83229000Y-91424063D01*
X83258629Y-91275107D01*
X83316748Y-91134794D01*
X83401125Y-91008516D01*
X83508516Y-90901125D01*
X83634794Y-90816748D01*
X83775107Y-90758629D01*
X83874411Y-90738876D01*
X83924062Y-90729000D01*
X84075938Y-90729000D01*
X84125589Y-90738876D01*
X84125589Y-90738876D01*
G37*
G36*
X106270721Y-90470174D02*
G01*
X106370995Y-90511709D01*
X106370996Y-90511710D01*
X106461242Y-90572010D01*
X106537990Y-90648758D01*
X106537991Y-90648760D01*
X106598291Y-90739005D01*
X106629516Y-90814389D01*
X106641067Y-90836000D01*
X106656612Y-90854941D01*
X106675554Y-90870487D01*
X106697165Y-90882038D01*
X106720614Y-90889151D01*
X106745000Y-90891553D01*
X106769386Y-90889151D01*
X106792835Y-90882038D01*
X106814446Y-90870487D01*
X106833387Y-90854942D01*
X106848933Y-90836000D01*
X106860484Y-90814389D01*
X106891709Y-90739005D01*
X106952009Y-90648760D01*
X106952010Y-90648758D01*
X107028758Y-90572010D01*
X107119004Y-90511710D01*
X107119005Y-90511709D01*
X107219279Y-90470174D01*
X107325730Y-90449000D01*
X107434270Y-90449000D01*
X107540721Y-90470174D01*
X107640995Y-90511709D01*
X107640996Y-90511710D01*
X107731242Y-90572010D01*
X107807990Y-90648758D01*
X107807991Y-90648760D01*
X107868291Y-90739005D01*
X107899516Y-90814389D01*
X107911067Y-90836000D01*
X107926612Y-90854941D01*
X107945554Y-90870487D01*
X107967165Y-90882038D01*
X107990614Y-90889151D01*
X108015000Y-90891553D01*
X108039386Y-90889151D01*
X108062835Y-90882038D01*
X108084446Y-90870487D01*
X108103387Y-90854942D01*
X108118933Y-90836000D01*
X108130484Y-90814389D01*
X108161709Y-90739005D01*
X108222009Y-90648760D01*
X108222010Y-90648758D01*
X108298758Y-90572010D01*
X108389004Y-90511710D01*
X108389005Y-90511709D01*
X108489279Y-90470174D01*
X108595730Y-90449000D01*
X108704270Y-90449000D01*
X108810721Y-90470174D01*
X108910995Y-90511709D01*
X108910996Y-90511710D01*
X109001242Y-90572010D01*
X109077990Y-90648758D01*
X109077991Y-90648760D01*
X109138291Y-90739005D01*
X109169516Y-90814389D01*
X109181067Y-90836000D01*
X109196612Y-90854941D01*
X109215554Y-90870487D01*
X109237165Y-90882038D01*
X109260614Y-90889151D01*
X109285000Y-90891553D01*
X109309386Y-90889151D01*
X109332835Y-90882038D01*
X109354446Y-90870487D01*
X109373387Y-90854942D01*
X109388933Y-90836000D01*
X109400484Y-90814389D01*
X109431709Y-90739005D01*
X109492009Y-90648760D01*
X109492010Y-90648758D01*
X109568758Y-90572010D01*
X109659004Y-90511710D01*
X109659005Y-90511709D01*
X109759279Y-90470174D01*
X109865730Y-90449000D01*
X109974270Y-90449000D01*
X110080721Y-90470174D01*
X110180995Y-90511709D01*
X110180996Y-90511710D01*
X110271242Y-90572010D01*
X110347990Y-90648758D01*
X110347991Y-90648760D01*
X110408291Y-90739005D01*
X110439516Y-90814389D01*
X110451067Y-90836000D01*
X110466612Y-90854941D01*
X110485554Y-90870487D01*
X110507165Y-90882038D01*
X110530614Y-90889151D01*
X110555000Y-90891553D01*
X110579386Y-90889151D01*
X110602835Y-90882038D01*
X110624446Y-90870487D01*
X110643387Y-90854942D01*
X110658933Y-90836000D01*
X110670484Y-90814389D01*
X110701709Y-90739005D01*
X110762009Y-90648760D01*
X110762010Y-90648758D01*
X110838758Y-90572010D01*
X110929004Y-90511710D01*
X110929005Y-90511709D01*
X111029279Y-90470174D01*
X111135730Y-90449000D01*
X111244270Y-90449000D01*
X111350721Y-90470174D01*
X111450995Y-90511709D01*
X111450996Y-90511710D01*
X111541242Y-90572010D01*
X111617990Y-90648758D01*
X111617991Y-90648760D01*
X111678291Y-90739005D01*
X111709516Y-90814389D01*
X111721067Y-90836000D01*
X111736612Y-90854941D01*
X111755554Y-90870487D01*
X111777165Y-90882038D01*
X111800614Y-90889151D01*
X111825000Y-90891553D01*
X111849386Y-90889151D01*
X111872835Y-90882038D01*
X111894446Y-90870487D01*
X111913387Y-90854942D01*
X111928933Y-90836000D01*
X111940484Y-90814389D01*
X111971709Y-90739005D01*
X112032009Y-90648760D01*
X112032010Y-90648758D01*
X112108758Y-90572010D01*
X112199004Y-90511710D01*
X112199005Y-90511709D01*
X112299279Y-90470174D01*
X112405730Y-90449000D01*
X112514270Y-90449000D01*
X112620721Y-90470174D01*
X112720995Y-90511709D01*
X112720996Y-90511710D01*
X112811242Y-90572010D01*
X112887990Y-90648758D01*
X112887991Y-90648760D01*
X112948291Y-90739005D01*
X112979516Y-90814389D01*
X112991067Y-90836000D01*
X113006612Y-90854941D01*
X113025554Y-90870487D01*
X113047165Y-90882038D01*
X113070614Y-90889151D01*
X113095000Y-90891553D01*
X113119386Y-90889151D01*
X113142835Y-90882038D01*
X113164446Y-90870487D01*
X113183387Y-90854942D01*
X113198933Y-90836000D01*
X113210484Y-90814389D01*
X113241709Y-90739005D01*
X113302009Y-90648760D01*
X113302010Y-90648758D01*
X113378758Y-90572010D01*
X113469004Y-90511710D01*
X113469005Y-90511709D01*
X113569279Y-90470174D01*
X113675730Y-90449000D01*
X113784270Y-90449000D01*
X113890721Y-90470174D01*
X113990995Y-90511709D01*
X113990996Y-90511710D01*
X114081242Y-90572010D01*
X114157990Y-90648758D01*
X114157991Y-90648760D01*
X114218291Y-90739005D01*
X114249516Y-90814389D01*
X114261067Y-90836000D01*
X114276612Y-90854941D01*
X114295554Y-90870487D01*
X114317165Y-90882038D01*
X114340614Y-90889151D01*
X114365000Y-90891553D01*
X114389386Y-90889151D01*
X114412835Y-90882038D01*
X114434446Y-90870487D01*
X114453387Y-90854942D01*
X114468933Y-90836000D01*
X114480484Y-90814389D01*
X114511709Y-90739005D01*
X114572009Y-90648760D01*
X114572010Y-90648758D01*
X114648758Y-90572010D01*
X114739004Y-90511710D01*
X114739005Y-90511709D01*
X114839279Y-90470174D01*
X114945730Y-90449000D01*
X115054270Y-90449000D01*
X115160721Y-90470174D01*
X115260995Y-90511709D01*
X115260996Y-90511710D01*
X115351242Y-90572010D01*
X115427990Y-90648758D01*
X115427991Y-90648760D01*
X115488291Y-90739005D01*
X115519516Y-90814389D01*
X115531067Y-90836000D01*
X115546612Y-90854941D01*
X115565554Y-90870487D01*
X115587165Y-90882038D01*
X115610614Y-90889151D01*
X115635000Y-90891553D01*
X115659386Y-90889151D01*
X115682835Y-90882038D01*
X115704446Y-90870487D01*
X115723387Y-90854942D01*
X115738933Y-90836000D01*
X115750484Y-90814389D01*
X115781709Y-90739005D01*
X115842009Y-90648760D01*
X115842010Y-90648758D01*
X115918758Y-90572010D01*
X116009004Y-90511710D01*
X116009005Y-90511709D01*
X116109279Y-90470174D01*
X116215730Y-90449000D01*
X116324270Y-90449000D01*
X116430721Y-90470174D01*
X116530995Y-90511709D01*
X116530996Y-90511710D01*
X116621242Y-90572010D01*
X116697990Y-90648758D01*
X116697991Y-90648760D01*
X116758291Y-90739005D01*
X116789516Y-90814389D01*
X116801067Y-90836000D01*
X116816612Y-90854941D01*
X116835554Y-90870487D01*
X116857165Y-90882038D01*
X116880614Y-90889151D01*
X116905000Y-90891553D01*
X116929386Y-90889151D01*
X116952835Y-90882038D01*
X116974446Y-90870487D01*
X116993387Y-90854942D01*
X117008933Y-90836000D01*
X117020484Y-90814389D01*
X117051709Y-90739005D01*
X117112009Y-90648760D01*
X117112010Y-90648758D01*
X117188758Y-90572010D01*
X117279004Y-90511710D01*
X117279005Y-90511709D01*
X117379279Y-90470174D01*
X117485730Y-90449000D01*
X117594270Y-90449000D01*
X117700721Y-90470174D01*
X117800995Y-90511709D01*
X117800996Y-90511710D01*
X117891242Y-90572010D01*
X117967990Y-90648758D01*
X117967991Y-90648760D01*
X118028291Y-90739005D01*
X118059516Y-90814389D01*
X118071067Y-90836000D01*
X118086612Y-90854941D01*
X118105554Y-90870487D01*
X118127165Y-90882038D01*
X118150614Y-90889151D01*
X118175000Y-90891553D01*
X118199386Y-90889151D01*
X118222835Y-90882038D01*
X118244446Y-90870487D01*
X118263387Y-90854942D01*
X118278933Y-90836000D01*
X118290484Y-90814389D01*
X118321709Y-90739005D01*
X118382009Y-90648760D01*
X118382010Y-90648758D01*
X118458758Y-90572010D01*
X118549004Y-90511710D01*
X118549005Y-90511709D01*
X118649279Y-90470174D01*
X118755730Y-90449000D01*
X118864270Y-90449000D01*
X118970721Y-90470174D01*
X119070995Y-90511709D01*
X119070996Y-90511710D01*
X119161242Y-90572010D01*
X119237990Y-90648758D01*
X119237991Y-90648760D01*
X119298291Y-90739005D01*
X119329516Y-90814389D01*
X119341067Y-90836000D01*
X119356612Y-90854941D01*
X119375554Y-90870487D01*
X119397165Y-90882038D01*
X119420614Y-90889151D01*
X119445000Y-90891553D01*
X119469386Y-90889151D01*
X119492835Y-90882038D01*
X119514446Y-90870487D01*
X119533387Y-90854942D01*
X119548933Y-90836000D01*
X119560484Y-90814389D01*
X119591709Y-90739005D01*
X119652009Y-90648760D01*
X119652010Y-90648758D01*
X119728758Y-90572010D01*
X119819004Y-90511710D01*
X119819005Y-90511709D01*
X119919279Y-90470174D01*
X120025730Y-90449000D01*
X120134270Y-90449000D01*
X120240721Y-90470174D01*
X120340995Y-90511709D01*
X120340996Y-90511710D01*
X120431242Y-90572010D01*
X120507990Y-90648758D01*
X120507991Y-90648760D01*
X120568291Y-90739005D01*
X120599516Y-90814389D01*
X120611067Y-90836000D01*
X120626612Y-90854941D01*
X120645554Y-90870487D01*
X120667165Y-90882038D01*
X120690614Y-90889151D01*
X120715000Y-90891553D01*
X120739386Y-90889151D01*
X120762835Y-90882038D01*
X120784446Y-90870487D01*
X120803387Y-90854942D01*
X120818933Y-90836000D01*
X120830484Y-90814389D01*
X120861709Y-90739005D01*
X120922009Y-90648760D01*
X120922010Y-90648758D01*
X120998758Y-90572010D01*
X121089004Y-90511710D01*
X121089005Y-90511709D01*
X121189279Y-90470174D01*
X121295730Y-90449000D01*
X121404270Y-90449000D01*
X121510721Y-90470174D01*
X121610995Y-90511709D01*
X121610996Y-90511710D01*
X121701242Y-90572010D01*
X121777990Y-90648758D01*
X121777991Y-90648760D01*
X121838291Y-90739005D01*
X121869516Y-90814389D01*
X121881067Y-90836000D01*
X121896612Y-90854941D01*
X121915554Y-90870487D01*
X121937165Y-90882038D01*
X121960614Y-90889151D01*
X121985000Y-90891553D01*
X122009386Y-90889151D01*
X122032835Y-90882038D01*
X122054446Y-90870487D01*
X122073387Y-90854942D01*
X122088933Y-90836000D01*
X122100484Y-90814389D01*
X122131709Y-90739005D01*
X122192009Y-90648760D01*
X122192010Y-90648758D01*
X122268758Y-90572010D01*
X122359004Y-90511710D01*
X122359005Y-90511709D01*
X122459279Y-90470174D01*
X122565730Y-90449000D01*
X122674270Y-90449000D01*
X122780721Y-90470174D01*
X122880995Y-90511709D01*
X122880996Y-90511710D01*
X122971242Y-90572010D01*
X123047990Y-90648758D01*
X123047991Y-90648760D01*
X123108291Y-90739005D01*
X123139516Y-90814389D01*
X123151067Y-90836000D01*
X123166612Y-90854941D01*
X123185554Y-90870487D01*
X123207165Y-90882038D01*
X123230614Y-90889151D01*
X123255000Y-90891553D01*
X123279386Y-90889151D01*
X123302835Y-90882038D01*
X123324446Y-90870487D01*
X123343387Y-90854942D01*
X123358933Y-90836000D01*
X123370484Y-90814389D01*
X123401709Y-90739005D01*
X123462009Y-90648760D01*
X123462010Y-90648758D01*
X123538758Y-90572010D01*
X123629004Y-90511710D01*
X123629005Y-90511709D01*
X123729279Y-90470174D01*
X123835730Y-90449000D01*
X123944270Y-90449000D01*
X124050721Y-90470174D01*
X124150995Y-90511709D01*
X124150996Y-90511710D01*
X124241242Y-90572010D01*
X124317990Y-90648758D01*
X124317991Y-90648760D01*
X124378291Y-90739005D01*
X124419826Y-90839279D01*
X124441000Y-90945730D01*
X124441000Y-91054270D01*
X124419826Y-91160721D01*
X124378291Y-91260995D01*
X124368860Y-91275109D01*
X124317990Y-91351242D01*
X124241242Y-91427990D01*
X124195812Y-91458345D01*
X124150995Y-91488291D01*
X124050721Y-91529826D01*
X123944270Y-91551000D01*
X123835730Y-91551000D01*
X123729279Y-91529826D01*
X123629005Y-91488291D01*
X123584188Y-91458345D01*
X123538758Y-91427990D01*
X123462010Y-91351242D01*
X123411140Y-91275109D01*
X123401709Y-91260995D01*
X123370484Y-91185611D01*
X123358933Y-91164000D01*
X123343388Y-91145059D01*
X123324446Y-91129513D01*
X123302835Y-91117962D01*
X123279386Y-91110849D01*
X123255000Y-91108447D01*
X123230614Y-91110849D01*
X123207165Y-91117962D01*
X123185554Y-91129513D01*
X123166613Y-91145058D01*
X123151067Y-91164000D01*
X123139516Y-91185611D01*
X123108291Y-91260995D01*
X123098860Y-91275109D01*
X123047990Y-91351242D01*
X122971242Y-91427990D01*
X122925812Y-91458345D01*
X122880995Y-91488291D01*
X122780721Y-91529826D01*
X122674270Y-91551000D01*
X122565730Y-91551000D01*
X122459279Y-91529826D01*
X122359005Y-91488291D01*
X122314188Y-91458345D01*
X122268758Y-91427990D01*
X122192010Y-91351242D01*
X122141140Y-91275109D01*
X122131709Y-91260995D01*
X122100484Y-91185611D01*
X122088933Y-91164000D01*
X122073388Y-91145059D01*
X122054446Y-91129513D01*
X122032835Y-91117962D01*
X122009386Y-91110849D01*
X121985000Y-91108447D01*
X121960614Y-91110849D01*
X121937165Y-91117962D01*
X121915554Y-91129513D01*
X121896613Y-91145058D01*
X121881067Y-91164000D01*
X121869516Y-91185611D01*
X121838291Y-91260995D01*
X121828860Y-91275109D01*
X121777990Y-91351242D01*
X121701242Y-91427990D01*
X121655812Y-91458345D01*
X121610995Y-91488291D01*
X121510721Y-91529826D01*
X121404270Y-91551000D01*
X121295730Y-91551000D01*
X121189279Y-91529826D01*
X121089005Y-91488291D01*
X121044188Y-91458345D01*
X120998758Y-91427990D01*
X120922010Y-91351242D01*
X120871140Y-91275109D01*
X120861709Y-91260995D01*
X120830484Y-91185611D01*
X120818933Y-91164000D01*
X120803388Y-91145059D01*
X120784446Y-91129513D01*
X120762835Y-91117962D01*
X120739386Y-91110849D01*
X120715000Y-91108447D01*
X120690614Y-91110849D01*
X120667165Y-91117962D01*
X120645554Y-91129513D01*
X120626613Y-91145058D01*
X120611067Y-91164000D01*
X120599516Y-91185611D01*
X120568291Y-91260995D01*
X120558860Y-91275109D01*
X120507990Y-91351242D01*
X120431242Y-91427990D01*
X120385812Y-91458345D01*
X120340995Y-91488291D01*
X120240721Y-91529826D01*
X120134270Y-91551000D01*
X120025730Y-91551000D01*
X119919279Y-91529826D01*
X119819005Y-91488291D01*
X119774188Y-91458345D01*
X119728758Y-91427990D01*
X119652010Y-91351242D01*
X119601140Y-91275109D01*
X119591709Y-91260995D01*
X119560484Y-91185611D01*
X119548933Y-91164000D01*
X119533388Y-91145059D01*
X119514446Y-91129513D01*
X119492835Y-91117962D01*
X119469386Y-91110849D01*
X119445000Y-91108447D01*
X119420614Y-91110849D01*
X119397165Y-91117962D01*
X119375554Y-91129513D01*
X119356613Y-91145058D01*
X119341067Y-91164000D01*
X119329516Y-91185611D01*
X119298291Y-91260995D01*
X119288860Y-91275109D01*
X119237990Y-91351242D01*
X119161242Y-91427990D01*
X119115812Y-91458345D01*
X119070995Y-91488291D01*
X118970721Y-91529826D01*
X118864270Y-91551000D01*
X118755730Y-91551000D01*
X118649279Y-91529826D01*
X118549005Y-91488291D01*
X118504188Y-91458345D01*
X118458758Y-91427990D01*
X118382010Y-91351242D01*
X118331140Y-91275109D01*
X118321709Y-91260995D01*
X118290484Y-91185611D01*
X118278933Y-91164000D01*
X118263388Y-91145059D01*
X118244446Y-91129513D01*
X118222835Y-91117962D01*
X118199386Y-91110849D01*
X118175000Y-91108447D01*
X118150614Y-91110849D01*
X118127165Y-91117962D01*
X118105554Y-91129513D01*
X118086613Y-91145058D01*
X118071067Y-91164000D01*
X118059516Y-91185611D01*
X118028291Y-91260995D01*
X118018860Y-91275109D01*
X117967990Y-91351242D01*
X117891242Y-91427990D01*
X117845812Y-91458345D01*
X117800995Y-91488291D01*
X117700721Y-91529826D01*
X117594270Y-91551000D01*
X117485730Y-91551000D01*
X117379279Y-91529826D01*
X117279005Y-91488291D01*
X117234188Y-91458345D01*
X117188758Y-91427990D01*
X117112010Y-91351242D01*
X117061140Y-91275109D01*
X117051709Y-91260995D01*
X117020484Y-91185611D01*
X117008933Y-91164000D01*
X116993388Y-91145059D01*
X116974446Y-91129513D01*
X116952835Y-91117962D01*
X116929386Y-91110849D01*
X116905000Y-91108447D01*
X116880614Y-91110849D01*
X116857165Y-91117962D01*
X116835554Y-91129513D01*
X116816613Y-91145058D01*
X116801067Y-91164000D01*
X116789516Y-91185611D01*
X116758291Y-91260995D01*
X116748860Y-91275109D01*
X116697990Y-91351242D01*
X116621242Y-91427990D01*
X116575812Y-91458345D01*
X116530995Y-91488291D01*
X116430721Y-91529826D01*
X116324270Y-91551000D01*
X116215730Y-91551000D01*
X116109279Y-91529826D01*
X116009005Y-91488291D01*
X115964188Y-91458345D01*
X115918758Y-91427990D01*
X115842010Y-91351242D01*
X115791140Y-91275109D01*
X115781709Y-91260995D01*
X115750484Y-91185611D01*
X115738933Y-91164000D01*
X115723388Y-91145059D01*
X115704446Y-91129513D01*
X115682835Y-91117962D01*
X115659386Y-91110849D01*
X115635000Y-91108447D01*
X115610614Y-91110849D01*
X115587165Y-91117962D01*
X115565554Y-91129513D01*
X115546613Y-91145058D01*
X115531067Y-91164000D01*
X115519516Y-91185611D01*
X115488291Y-91260995D01*
X115478860Y-91275109D01*
X115427990Y-91351242D01*
X115351242Y-91427990D01*
X115305812Y-91458345D01*
X115260995Y-91488291D01*
X115160721Y-91529826D01*
X115054270Y-91551000D01*
X114945730Y-91551000D01*
X114839279Y-91529826D01*
X114739005Y-91488291D01*
X114694188Y-91458345D01*
X114648758Y-91427990D01*
X114572010Y-91351242D01*
X114521140Y-91275109D01*
X114511709Y-91260995D01*
X114480484Y-91185611D01*
X114468933Y-91164000D01*
X114453388Y-91145059D01*
X114434446Y-91129513D01*
X114412835Y-91117962D01*
X114389386Y-91110849D01*
X114365000Y-91108447D01*
X114340614Y-91110849D01*
X114317165Y-91117962D01*
X114295554Y-91129513D01*
X114276613Y-91145058D01*
X114261067Y-91164000D01*
X114249516Y-91185611D01*
X114218291Y-91260995D01*
X114208860Y-91275109D01*
X114157990Y-91351242D01*
X114081242Y-91427990D01*
X114035812Y-91458345D01*
X113990995Y-91488291D01*
X113890721Y-91529826D01*
X113784270Y-91551000D01*
X113675730Y-91551000D01*
X113569279Y-91529826D01*
X113469005Y-91488291D01*
X113424188Y-91458345D01*
X113378758Y-91427990D01*
X113302010Y-91351242D01*
X113251140Y-91275109D01*
X113241709Y-91260995D01*
X113210484Y-91185611D01*
X113198933Y-91164000D01*
X113183388Y-91145059D01*
X113164446Y-91129513D01*
X113142835Y-91117962D01*
X113119386Y-91110849D01*
X113095000Y-91108447D01*
X113070614Y-91110849D01*
X113047165Y-91117962D01*
X113025554Y-91129513D01*
X113006613Y-91145058D01*
X112991067Y-91164000D01*
X112979516Y-91185611D01*
X112948291Y-91260995D01*
X112938860Y-91275109D01*
X112887990Y-91351242D01*
X112811242Y-91427990D01*
X112765812Y-91458345D01*
X112720995Y-91488291D01*
X112620721Y-91529826D01*
X112514270Y-91551000D01*
X112405730Y-91551000D01*
X112299279Y-91529826D01*
X112199005Y-91488291D01*
X112154188Y-91458345D01*
X112108758Y-91427990D01*
X112032010Y-91351242D01*
X111981140Y-91275109D01*
X111971709Y-91260995D01*
X111940484Y-91185611D01*
X111928933Y-91164000D01*
X111913388Y-91145059D01*
X111894446Y-91129513D01*
X111872835Y-91117962D01*
X111849386Y-91110849D01*
X111825000Y-91108447D01*
X111800614Y-91110849D01*
X111777165Y-91117962D01*
X111755554Y-91129513D01*
X111736613Y-91145058D01*
X111721067Y-91164000D01*
X111709516Y-91185611D01*
X111678291Y-91260995D01*
X111668860Y-91275109D01*
X111617990Y-91351242D01*
X111541242Y-91427990D01*
X111495812Y-91458345D01*
X111450995Y-91488291D01*
X111350721Y-91529826D01*
X111244270Y-91551000D01*
X111135730Y-91551000D01*
X111029279Y-91529826D01*
X110929005Y-91488291D01*
X110884188Y-91458345D01*
X110838758Y-91427990D01*
X110762010Y-91351242D01*
X110711140Y-91275109D01*
X110701709Y-91260995D01*
X110670484Y-91185611D01*
X110658933Y-91164000D01*
X110643388Y-91145059D01*
X110624446Y-91129513D01*
X110602835Y-91117962D01*
X110579386Y-91110849D01*
X110555000Y-91108447D01*
X110530614Y-91110849D01*
X110507165Y-91117962D01*
X110485554Y-91129513D01*
X110466613Y-91145058D01*
X110451067Y-91164000D01*
X110439516Y-91185611D01*
X110408291Y-91260995D01*
X110398860Y-91275109D01*
X110347990Y-91351242D01*
X110271242Y-91427990D01*
X110225812Y-91458345D01*
X110180995Y-91488291D01*
X110080721Y-91529826D01*
X109974270Y-91551000D01*
X109865730Y-91551000D01*
X109759279Y-91529826D01*
X109659005Y-91488291D01*
X109614188Y-91458345D01*
X109568758Y-91427990D01*
X109492010Y-91351242D01*
X109441140Y-91275109D01*
X109431709Y-91260995D01*
X109400484Y-91185611D01*
X109388933Y-91164000D01*
X109373388Y-91145059D01*
X109354446Y-91129513D01*
X109332835Y-91117962D01*
X109309386Y-91110849D01*
X109285000Y-91108447D01*
X109260614Y-91110849D01*
X109237165Y-91117962D01*
X109215554Y-91129513D01*
X109196613Y-91145058D01*
X109181067Y-91164000D01*
X109169516Y-91185611D01*
X109138291Y-91260995D01*
X109128860Y-91275109D01*
X109077990Y-91351242D01*
X109001242Y-91427990D01*
X108955812Y-91458345D01*
X108910995Y-91488291D01*
X108810721Y-91529826D01*
X108704270Y-91551000D01*
X108595730Y-91551000D01*
X108489279Y-91529826D01*
X108389005Y-91488291D01*
X108344188Y-91458345D01*
X108298758Y-91427990D01*
X108222010Y-91351242D01*
X108171140Y-91275109D01*
X108161709Y-91260995D01*
X108130484Y-91185611D01*
X108118933Y-91164000D01*
X108103388Y-91145059D01*
X108084446Y-91129513D01*
X108062835Y-91117962D01*
X108039386Y-91110849D01*
X108015000Y-91108447D01*
X107990614Y-91110849D01*
X107967165Y-91117962D01*
X107945554Y-91129513D01*
X107926613Y-91145058D01*
X107911067Y-91164000D01*
X107899516Y-91185611D01*
X107868291Y-91260995D01*
X107858860Y-91275109D01*
X107807990Y-91351242D01*
X107731242Y-91427990D01*
X107685812Y-91458345D01*
X107640995Y-91488291D01*
X107540721Y-91529826D01*
X107434270Y-91551000D01*
X107325730Y-91551000D01*
X107219279Y-91529826D01*
X107119005Y-91488291D01*
X107074188Y-91458345D01*
X107028758Y-91427990D01*
X106952010Y-91351242D01*
X106901140Y-91275109D01*
X106891709Y-91260995D01*
X106860484Y-91185611D01*
X106848933Y-91164000D01*
X106833388Y-91145059D01*
X106814446Y-91129513D01*
X106792835Y-91117962D01*
X106769386Y-91110849D01*
X106745000Y-91108447D01*
X106720614Y-91110849D01*
X106697165Y-91117962D01*
X106675554Y-91129513D01*
X106656613Y-91145058D01*
X106641067Y-91164000D01*
X106629516Y-91185611D01*
X106598291Y-91260995D01*
X106588860Y-91275109D01*
X106537990Y-91351242D01*
X106461242Y-91427990D01*
X106415812Y-91458345D01*
X106370995Y-91488291D01*
X106270721Y-91529826D01*
X106164270Y-91551000D01*
X106055730Y-91551000D01*
X105949279Y-91529826D01*
X105849005Y-91488291D01*
X105804188Y-91458345D01*
X105758758Y-91427990D01*
X105682010Y-91351242D01*
X105631140Y-91275109D01*
X105621709Y-91260995D01*
X105580174Y-91160721D01*
X105559000Y-91054270D01*
X105559000Y-90945730D01*
X105580174Y-90839279D01*
X105621709Y-90739005D01*
X105682009Y-90648760D01*
X105682010Y-90648758D01*
X105758758Y-90572010D01*
X105849004Y-90511710D01*
X105849005Y-90511709D01*
X105949279Y-90470174D01*
X106055730Y-90449000D01*
X106164270Y-90449000D01*
X106270721Y-90470174D01*
X106270721Y-90470174D01*
G37*
G36*
X86665589Y-88198876D02*
G01*
X86764893Y-88218629D01*
X86905206Y-88276748D01*
X87031484Y-88361125D01*
X87138875Y-88468516D01*
X87223252Y-88594794D01*
X87281371Y-88735107D01*
X87311000Y-88884063D01*
X87311000Y-89035937D01*
X87281371Y-89184893D01*
X87223252Y-89325206D01*
X87138875Y-89451484D01*
X87031484Y-89558875D01*
X86905206Y-89643252D01*
X86764893Y-89701371D01*
X86665589Y-89721124D01*
X86615938Y-89731000D01*
X86464062Y-89731000D01*
X86414411Y-89721124D01*
X86315107Y-89701371D01*
X86174794Y-89643252D01*
X86048516Y-89558875D01*
X85941125Y-89451484D01*
X85856748Y-89325206D01*
X85798629Y-89184893D01*
X85769000Y-89035937D01*
X85769000Y-88884063D01*
X85798629Y-88735107D01*
X85856748Y-88594794D01*
X85941125Y-88468516D01*
X86048516Y-88361125D01*
X86174794Y-88276748D01*
X86315107Y-88218629D01*
X86414411Y-88198876D01*
X86464062Y-88189000D01*
X86615938Y-88189000D01*
X86665589Y-88198876D01*
X86665589Y-88198876D01*
G37*
G36*
X84125589Y-85658876D02*
G01*
X84224893Y-85678629D01*
X84365206Y-85736748D01*
X84491484Y-85821125D01*
X84598875Y-85928516D01*
X84683252Y-86054794D01*
X84741371Y-86195107D01*
X84771000Y-86344063D01*
X84771000Y-86495937D01*
X84741371Y-86644893D01*
X84683252Y-86785206D01*
X84598875Y-86911484D01*
X84491484Y-87018875D01*
X84365206Y-87103252D01*
X84224893Y-87161371D01*
X84125589Y-87181124D01*
X84075938Y-87191000D01*
X83924062Y-87191000D01*
X83874411Y-87181124D01*
X83775107Y-87161371D01*
X83634794Y-87103252D01*
X83508516Y-87018875D01*
X83401125Y-86911484D01*
X83316748Y-86785206D01*
X83258629Y-86644893D01*
X83229000Y-86495937D01*
X83229000Y-86344063D01*
X83258629Y-86195107D01*
X83316748Y-86054794D01*
X83401125Y-85928516D01*
X83508516Y-85821125D01*
X83634794Y-85736748D01*
X83775107Y-85678629D01*
X83874411Y-85658876D01*
X83924062Y-85649000D01*
X84075938Y-85649000D01*
X84125589Y-85658876D01*
X84125589Y-85658876D01*
G37*
G36*
X145260442Y-81765518D02*
G01*
X145326627Y-81772037D01*
X145496466Y-81823557D01*
X145652991Y-81907222D01*
X145688729Y-81936552D01*
X145790186Y-82019814D01*
X145873448Y-82121271D01*
X145902778Y-82157009D01*
X145986443Y-82313534D01*
X146037963Y-82483373D01*
X146055359Y-82660000D01*
X146037963Y-82836627D01*
X145986443Y-83006466D01*
X145902778Y-83162991D01*
X145873448Y-83198729D01*
X145790186Y-83300186D01*
X145688729Y-83383448D01*
X145652991Y-83412778D01*
X145496466Y-83496443D01*
X145326627Y-83547963D01*
X145260442Y-83554482D01*
X145194260Y-83561000D01*
X145105740Y-83561000D01*
X145039558Y-83554482D01*
X144973373Y-83547963D01*
X144803534Y-83496443D01*
X144647009Y-83412778D01*
X144611271Y-83383448D01*
X144509814Y-83300186D01*
X144426552Y-83198729D01*
X144397222Y-83162991D01*
X144313557Y-83006466D01*
X144262037Y-82836627D01*
X144244641Y-82660000D01*
X144262037Y-82483373D01*
X144313557Y-82313534D01*
X144397222Y-82157009D01*
X144426552Y-82121271D01*
X144509814Y-82019814D01*
X144611271Y-81936552D01*
X144647009Y-81907222D01*
X144803534Y-81823557D01*
X144973373Y-81772037D01*
X145039558Y-81765518D01*
X145105740Y-81759000D01*
X145194260Y-81759000D01*
X145260442Y-81765518D01*
X145260442Y-81765518D01*
G37*
G36*
X145260442Y-79225518D02*
G01*
X145326627Y-79232037D01*
X145496466Y-79283557D01*
X145652991Y-79367222D01*
X145688729Y-79396552D01*
X145790186Y-79479814D01*
X145873448Y-79581271D01*
X145902778Y-79617009D01*
X145986443Y-79773534D01*
X146037963Y-79943373D01*
X146055359Y-80120000D01*
X146037963Y-80296627D01*
X145986443Y-80466466D01*
X145902778Y-80622991D01*
X145873448Y-80658729D01*
X145790186Y-80760186D01*
X145688729Y-80843448D01*
X145652991Y-80872778D01*
X145496466Y-80956443D01*
X145326627Y-81007963D01*
X145260442Y-81014482D01*
X145194260Y-81021000D01*
X145105740Y-81021000D01*
X145039558Y-81014482D01*
X144973373Y-81007963D01*
X144803534Y-80956443D01*
X144647009Y-80872778D01*
X144611271Y-80843448D01*
X144509814Y-80760186D01*
X144426552Y-80658729D01*
X144397222Y-80622991D01*
X144313557Y-80466466D01*
X144262037Y-80296627D01*
X144244641Y-80120000D01*
X144262037Y-79943373D01*
X144313557Y-79773534D01*
X144397222Y-79617009D01*
X144426552Y-79581271D01*
X144509814Y-79479814D01*
X144611271Y-79396552D01*
X144647009Y-79367222D01*
X144803534Y-79283557D01*
X144973373Y-79232037D01*
X145039558Y-79225518D01*
X145105740Y-79219000D01*
X145194260Y-79219000D01*
X145260442Y-79225518D01*
X145260442Y-79225518D01*
G37*
G36*
X145260442Y-76685518D02*
G01*
X145326627Y-76692037D01*
X145496466Y-76743557D01*
X145652991Y-76827222D01*
X145688729Y-76856552D01*
X145790186Y-76939814D01*
X145873448Y-77041271D01*
X145902778Y-77077009D01*
X145986443Y-77233534D01*
X146037963Y-77403373D01*
X146055359Y-77580000D01*
X146037963Y-77756627D01*
X145986443Y-77926466D01*
X145902778Y-78082991D01*
X145873448Y-78118729D01*
X145790186Y-78220186D01*
X145688729Y-78303448D01*
X145652991Y-78332778D01*
X145496466Y-78416443D01*
X145326627Y-78467963D01*
X145260443Y-78474481D01*
X145194260Y-78481000D01*
X145105740Y-78481000D01*
X145039557Y-78474481D01*
X144973373Y-78467963D01*
X144803534Y-78416443D01*
X144647009Y-78332778D01*
X144611271Y-78303448D01*
X144509814Y-78220186D01*
X144426552Y-78118729D01*
X144397222Y-78082991D01*
X144313557Y-77926466D01*
X144262037Y-77756627D01*
X144244641Y-77580000D01*
X144262037Y-77403373D01*
X144313557Y-77233534D01*
X144397222Y-77077009D01*
X144426552Y-77041271D01*
X144509814Y-76939814D01*
X144611271Y-76856552D01*
X144647009Y-76827222D01*
X144803534Y-76743557D01*
X144973373Y-76692037D01*
X145039558Y-76685518D01*
X145105740Y-76679000D01*
X145194260Y-76679000D01*
X145260442Y-76685518D01*
X145260442Y-76685518D01*
G37*
G36*
X146051000Y-75941000D02*
G01*
X144249000Y-75941000D01*
X144249000Y-74139000D01*
X146051000Y-74139000D01*
X146051000Y-75941000D01*
X146051000Y-75941000D01*
G37*
G36*
X146375256Y-62391298D02*
G01*
X146481579Y-62412447D01*
X146782042Y-62536903D01*
X147052451Y-62717585D01*
X147282415Y-62947549D01*
X147463097Y-63217958D01*
X147587553Y-63518421D01*
X147651000Y-63837391D01*
X147651000Y-64162609D01*
X147587553Y-64481579D01*
X147463097Y-64782042D01*
X147282415Y-65052451D01*
X147052451Y-65282415D01*
X146782042Y-65463097D01*
X146481579Y-65587553D01*
X146375256Y-65608702D01*
X146162611Y-65651000D01*
X145837389Y-65651000D01*
X145624744Y-65608702D01*
X145518421Y-65587553D01*
X145217958Y-65463097D01*
X144947549Y-65282415D01*
X144717585Y-65052451D01*
X144536903Y-64782042D01*
X144412447Y-64481579D01*
X144349000Y-64162609D01*
X144349000Y-63837391D01*
X144412447Y-63518421D01*
X144536903Y-63217958D01*
X144717585Y-62947549D01*
X144947549Y-62717585D01*
X145217958Y-62536903D01*
X145518421Y-62412447D01*
X145624744Y-62391298D01*
X145837389Y-62349000D01*
X146162611Y-62349000D01*
X146375256Y-62391298D01*
X146375256Y-62391298D01*
G37*
G36*
X84375256Y-62391298D02*
G01*
X84481579Y-62412447D01*
X84782042Y-62536903D01*
X85052451Y-62717585D01*
X85282415Y-62947549D01*
X85463097Y-63217958D01*
X85587553Y-63518421D01*
X85651000Y-63837391D01*
X85651000Y-64162609D01*
X85587553Y-64481579D01*
X85463097Y-64782042D01*
X85282415Y-65052451D01*
X85052451Y-65282415D01*
X84782042Y-65463097D01*
X84481579Y-65587553D01*
X84375256Y-65608702D01*
X84162611Y-65651000D01*
X83837389Y-65651000D01*
X83624744Y-65608702D01*
X83518421Y-65587553D01*
X83217958Y-65463097D01*
X82947549Y-65282415D01*
X82717585Y-65052451D01*
X82536903Y-64782042D01*
X82412447Y-64481579D01*
X82349000Y-64162609D01*
X82349000Y-63837391D01*
X82412447Y-63518421D01*
X82536903Y-63217958D01*
X82717585Y-62947549D01*
X82947549Y-62717585D01*
X83217958Y-62536903D01*
X83518421Y-62412447D01*
X83624744Y-62391298D01*
X83837389Y-62349000D01*
X84162611Y-62349000D01*
X84375256Y-62391298D01*
X84375256Y-62391298D01*
G37*
G36*
X118401000Y-63151000D02*
G01*
X116599000Y-63151000D01*
X116599000Y-61349000D01*
X118401000Y-61349000D01*
X118401000Y-63151000D01*
X118401000Y-63151000D01*
G37*
G36*
X106151000Y-63151000D02*
G01*
X104349000Y-63151000D01*
X104349000Y-61349000D01*
X106151000Y-61349000D01*
X106151000Y-63151000D01*
X106151000Y-63151000D01*
G37*
G36*
X125230442Y-61355518D02*
G01*
X125296627Y-61362037D01*
X125466466Y-61413557D01*
X125622991Y-61497222D01*
X125658729Y-61526552D01*
X125760186Y-61609814D01*
X125843448Y-61711271D01*
X125872778Y-61747009D01*
X125956443Y-61903534D01*
X126007963Y-62073373D01*
X126025359Y-62250000D01*
X126007963Y-62426627D01*
X125956443Y-62596466D01*
X125872778Y-62752991D01*
X125843448Y-62788729D01*
X125760186Y-62890186D01*
X125658729Y-62973448D01*
X125622991Y-63002778D01*
X125466466Y-63086443D01*
X125296627Y-63137963D01*
X125230443Y-63144481D01*
X125164260Y-63151000D01*
X125075740Y-63151000D01*
X125009557Y-63144481D01*
X124943373Y-63137963D01*
X124773534Y-63086443D01*
X124617009Y-63002778D01*
X124581271Y-62973448D01*
X124479814Y-62890186D01*
X124396552Y-62788729D01*
X124367222Y-62752991D01*
X124283557Y-62596466D01*
X124232037Y-62426627D01*
X124214641Y-62250000D01*
X124232037Y-62073373D01*
X124283557Y-61903534D01*
X124367222Y-61747009D01*
X124396552Y-61711271D01*
X124479814Y-61609814D01*
X124581271Y-61526552D01*
X124617009Y-61497222D01*
X124773534Y-61413557D01*
X124943373Y-61362037D01*
X125009558Y-61355518D01*
X125075740Y-61349000D01*
X125164260Y-61349000D01*
X125230442Y-61355518D01*
X125230442Y-61355518D01*
G37*
G36*
X122690442Y-61355518D02*
G01*
X122756627Y-61362037D01*
X122926466Y-61413557D01*
X123082991Y-61497222D01*
X123118729Y-61526552D01*
X123220186Y-61609814D01*
X123303448Y-61711271D01*
X123332778Y-61747009D01*
X123416443Y-61903534D01*
X123467963Y-62073373D01*
X123485359Y-62250000D01*
X123467963Y-62426627D01*
X123416443Y-62596466D01*
X123332778Y-62752991D01*
X123303448Y-62788729D01*
X123220186Y-62890186D01*
X123118729Y-62973448D01*
X123082991Y-63002778D01*
X122926466Y-63086443D01*
X122756627Y-63137963D01*
X122690443Y-63144481D01*
X122624260Y-63151000D01*
X122535740Y-63151000D01*
X122469557Y-63144481D01*
X122403373Y-63137963D01*
X122233534Y-63086443D01*
X122077009Y-63002778D01*
X122041271Y-62973448D01*
X121939814Y-62890186D01*
X121856552Y-62788729D01*
X121827222Y-62752991D01*
X121743557Y-62596466D01*
X121692037Y-62426627D01*
X121674641Y-62250000D01*
X121692037Y-62073373D01*
X121743557Y-61903534D01*
X121827222Y-61747009D01*
X121856552Y-61711271D01*
X121939814Y-61609814D01*
X122041271Y-61526552D01*
X122077009Y-61497222D01*
X122233534Y-61413557D01*
X122403373Y-61362037D01*
X122469558Y-61355518D01*
X122535740Y-61349000D01*
X122624260Y-61349000D01*
X122690442Y-61355518D01*
X122690442Y-61355518D01*
G37*
G36*
X120150442Y-61355518D02*
G01*
X120216627Y-61362037D01*
X120386466Y-61413557D01*
X120542991Y-61497222D01*
X120578729Y-61526552D01*
X120680186Y-61609814D01*
X120763448Y-61711271D01*
X120792778Y-61747009D01*
X120876443Y-61903534D01*
X120927963Y-62073373D01*
X120945359Y-62250000D01*
X120927963Y-62426627D01*
X120876443Y-62596466D01*
X120792778Y-62752991D01*
X120763448Y-62788729D01*
X120680186Y-62890186D01*
X120578729Y-62973448D01*
X120542991Y-63002778D01*
X120386466Y-63086443D01*
X120216627Y-63137963D01*
X120150443Y-63144481D01*
X120084260Y-63151000D01*
X119995740Y-63151000D01*
X119929557Y-63144481D01*
X119863373Y-63137963D01*
X119693534Y-63086443D01*
X119537009Y-63002778D01*
X119501271Y-62973448D01*
X119399814Y-62890186D01*
X119316552Y-62788729D01*
X119287222Y-62752991D01*
X119203557Y-62596466D01*
X119152037Y-62426627D01*
X119134641Y-62250000D01*
X119152037Y-62073373D01*
X119203557Y-61903534D01*
X119287222Y-61747009D01*
X119316552Y-61711271D01*
X119399814Y-61609814D01*
X119501271Y-61526552D01*
X119537009Y-61497222D01*
X119693534Y-61413557D01*
X119863373Y-61362037D01*
X119929558Y-61355518D01*
X119995740Y-61349000D01*
X120084260Y-61349000D01*
X120150442Y-61355518D01*
X120150442Y-61355518D01*
G37*
G36*
X112980442Y-61355518D02*
G01*
X113046627Y-61362037D01*
X113216466Y-61413557D01*
X113372991Y-61497222D01*
X113408729Y-61526552D01*
X113510186Y-61609814D01*
X113593448Y-61711271D01*
X113622778Y-61747009D01*
X113706443Y-61903534D01*
X113757963Y-62073373D01*
X113775359Y-62250000D01*
X113757963Y-62426627D01*
X113706443Y-62596466D01*
X113622778Y-62752991D01*
X113593448Y-62788729D01*
X113510186Y-62890186D01*
X113408729Y-62973448D01*
X113372991Y-63002778D01*
X113216466Y-63086443D01*
X113046627Y-63137963D01*
X112980443Y-63144481D01*
X112914260Y-63151000D01*
X112825740Y-63151000D01*
X112759557Y-63144481D01*
X112693373Y-63137963D01*
X112523534Y-63086443D01*
X112367009Y-63002778D01*
X112331271Y-62973448D01*
X112229814Y-62890186D01*
X112146552Y-62788729D01*
X112117222Y-62752991D01*
X112033557Y-62596466D01*
X111982037Y-62426627D01*
X111964641Y-62250000D01*
X111982037Y-62073373D01*
X112033557Y-61903534D01*
X112117222Y-61747009D01*
X112146552Y-61711271D01*
X112229814Y-61609814D01*
X112331271Y-61526552D01*
X112367009Y-61497222D01*
X112523534Y-61413557D01*
X112693373Y-61362037D01*
X112759558Y-61355518D01*
X112825740Y-61349000D01*
X112914260Y-61349000D01*
X112980442Y-61355518D01*
X112980442Y-61355518D01*
G37*
G36*
X110440442Y-61355518D02*
G01*
X110506627Y-61362037D01*
X110676466Y-61413557D01*
X110832991Y-61497222D01*
X110868729Y-61526552D01*
X110970186Y-61609814D01*
X111053448Y-61711271D01*
X111082778Y-61747009D01*
X111166443Y-61903534D01*
X111217963Y-62073373D01*
X111235359Y-62250000D01*
X111217963Y-62426627D01*
X111166443Y-62596466D01*
X111082778Y-62752991D01*
X111053448Y-62788729D01*
X110970186Y-62890186D01*
X110868729Y-62973448D01*
X110832991Y-63002778D01*
X110676466Y-63086443D01*
X110506627Y-63137963D01*
X110440443Y-63144481D01*
X110374260Y-63151000D01*
X110285740Y-63151000D01*
X110219557Y-63144481D01*
X110153373Y-63137963D01*
X109983534Y-63086443D01*
X109827009Y-63002778D01*
X109791271Y-62973448D01*
X109689814Y-62890186D01*
X109606552Y-62788729D01*
X109577222Y-62752991D01*
X109493557Y-62596466D01*
X109442037Y-62426627D01*
X109424641Y-62250000D01*
X109442037Y-62073373D01*
X109493557Y-61903534D01*
X109577222Y-61747009D01*
X109606552Y-61711271D01*
X109689814Y-61609814D01*
X109791271Y-61526552D01*
X109827009Y-61497222D01*
X109983534Y-61413557D01*
X110153373Y-61362037D01*
X110219558Y-61355518D01*
X110285740Y-61349000D01*
X110374260Y-61349000D01*
X110440442Y-61355518D01*
X110440442Y-61355518D01*
G37*
G36*
X107900442Y-61355518D02*
G01*
X107966627Y-61362037D01*
X108136466Y-61413557D01*
X108292991Y-61497222D01*
X108328729Y-61526552D01*
X108430186Y-61609814D01*
X108513448Y-61711271D01*
X108542778Y-61747009D01*
X108626443Y-61903534D01*
X108677963Y-62073373D01*
X108695359Y-62250000D01*
X108677963Y-62426627D01*
X108626443Y-62596466D01*
X108542778Y-62752991D01*
X108513448Y-62788729D01*
X108430186Y-62890186D01*
X108328729Y-62973448D01*
X108292991Y-63002778D01*
X108136466Y-63086443D01*
X107966627Y-63137963D01*
X107900443Y-63144481D01*
X107834260Y-63151000D01*
X107745740Y-63151000D01*
X107679557Y-63144481D01*
X107613373Y-63137963D01*
X107443534Y-63086443D01*
X107287009Y-63002778D01*
X107251271Y-62973448D01*
X107149814Y-62890186D01*
X107066552Y-62788729D01*
X107037222Y-62752991D01*
X106953557Y-62596466D01*
X106902037Y-62426627D01*
X106884641Y-62250000D01*
X106902037Y-62073373D01*
X106953557Y-61903534D01*
X107037222Y-61747009D01*
X107066552Y-61711271D01*
X107149814Y-61609814D01*
X107251271Y-61526552D01*
X107287009Y-61497222D01*
X107443534Y-61413557D01*
X107613373Y-61362037D01*
X107679558Y-61355518D01*
X107745740Y-61349000D01*
X107834260Y-61349000D01*
X107900442Y-61355518D01*
X107900442Y-61355518D01*
G37*
G36*
X130918433Y-60134893D02*
G01*
X131008657Y-60152839D01*
X131114267Y-60196585D01*
X131263621Y-60258449D01*
X131263622Y-60258450D01*
X131493086Y-60411772D01*
X131688228Y-60606914D01*
X131790675Y-60760237D01*
X131841551Y-60836379D01*
X131947161Y-61091344D01*
X132001000Y-61362012D01*
X132001000Y-61637988D01*
X131947161Y-61908656D01*
X131841551Y-62163621D01*
X131841550Y-62163622D01*
X131688228Y-62393086D01*
X131493086Y-62588228D01*
X131339763Y-62690675D01*
X131263621Y-62741551D01*
X131114267Y-62803415D01*
X131008657Y-62847161D01*
X130918433Y-62865107D01*
X130737988Y-62901000D01*
X130462012Y-62901000D01*
X130281567Y-62865107D01*
X130191343Y-62847161D01*
X130085733Y-62803415D01*
X129936379Y-62741551D01*
X129860237Y-62690675D01*
X129706914Y-62588228D01*
X129511772Y-62393086D01*
X129358450Y-62163622D01*
X129358449Y-62163621D01*
X129252839Y-61908656D01*
X129199000Y-61637988D01*
X129199000Y-61362012D01*
X129252839Y-61091344D01*
X129358449Y-60836379D01*
X129409325Y-60760237D01*
X129511772Y-60606914D01*
X129706914Y-60411772D01*
X129936378Y-60258450D01*
X129936379Y-60258449D01*
X130085733Y-60196585D01*
X130191343Y-60152839D01*
X130281567Y-60134893D01*
X130462012Y-60099000D01*
X130737988Y-60099000D01*
X130918433Y-60134893D01*
X130918433Y-60134893D01*
G37*
G36*
X99718433Y-60134893D02*
G01*
X99808657Y-60152839D01*
X99914267Y-60196585D01*
X100063621Y-60258449D01*
X100063622Y-60258450D01*
X100293086Y-60411772D01*
X100488228Y-60606914D01*
X100590675Y-60760237D01*
X100641551Y-60836379D01*
X100747161Y-61091344D01*
X100801000Y-61362012D01*
X100801000Y-61637988D01*
X100747161Y-61908656D01*
X100641551Y-62163621D01*
X100641550Y-62163622D01*
X100488228Y-62393086D01*
X100293086Y-62588228D01*
X100139763Y-62690675D01*
X100063621Y-62741551D01*
X99914267Y-62803415D01*
X99808657Y-62847161D01*
X99718433Y-62865107D01*
X99537988Y-62901000D01*
X99262012Y-62901000D01*
X99081567Y-62865107D01*
X98991343Y-62847161D01*
X98885733Y-62803415D01*
X98736379Y-62741551D01*
X98660237Y-62690675D01*
X98506914Y-62588228D01*
X98311772Y-62393086D01*
X98158450Y-62163622D01*
X98158449Y-62163621D01*
X98052839Y-61908656D01*
X97999000Y-61637988D01*
X97999000Y-61362012D01*
X98052839Y-61091344D01*
X98158449Y-60836379D01*
X98209325Y-60760237D01*
X98311772Y-60606914D01*
X98506914Y-60411772D01*
X98736378Y-60258450D01*
X98736379Y-60258449D01*
X98885733Y-60196585D01*
X98991343Y-60152839D01*
X99081567Y-60134893D01*
X99262012Y-60099000D01*
X99537988Y-60099000D01*
X99718433Y-60134893D01*
X99718433Y-60134893D01*
G37*
M02*
