G04 #@! TF.GenerationSoftware,KiCad,Pcbnew,(5.1.0)-1*
G04 #@! TF.CreationDate,2020-10-05T07:23:46+02:00*
G04 #@! TF.ProjectId,Waage,57616167-652e-46b6-9963-61645f706362,rev?*
G04 #@! TF.SameCoordinates,Original*
G04 #@! TF.FileFunction,Paste,Top*
G04 #@! TF.FilePolarity,Positive*
%FSLAX46Y46*%
G04 Gerber Fmt 4.6, Leading zero omitted, Abs format (unit mm)*
G04 Created by KiCad (PCBNEW (5.1.0)-1) date 2020-10-05 07:23:46*
%MOMM*%
%LPD*%
G04 APERTURE LIST*
%ADD10C,0.100000*%
%ADD11C,0.875000*%
%ADD12C,1.250000*%
%ADD13R,3.300000X3.500000*%
%ADD14R,0.600000X1.550000*%
%ADD15R,0.800000X0.900000*%
%ADD16R,0.450000X1.450000*%
%ADD17R,0.410000X1.600000*%
%ADD18R,1.550000X1.300000*%
%ADD19C,0.500000*%
%ADD20C,0.975000*%
%ADD21R,0.650000X1.060000*%
G04 APERTURE END LIST*
D10*
G36*
X99302691Y-67226053D02*
G01*
X99323926Y-67229203D01*
X99344750Y-67234419D01*
X99364962Y-67241651D01*
X99384368Y-67250830D01*
X99402781Y-67261866D01*
X99420024Y-67274654D01*
X99435930Y-67289070D01*
X99450346Y-67304976D01*
X99463134Y-67322219D01*
X99474170Y-67340632D01*
X99483349Y-67360038D01*
X99490581Y-67380250D01*
X99495797Y-67401074D01*
X99498947Y-67422309D01*
X99500000Y-67443750D01*
X99500000Y-67956250D01*
X99498947Y-67977691D01*
X99495797Y-67998926D01*
X99490581Y-68019750D01*
X99483349Y-68039962D01*
X99474170Y-68059368D01*
X99463134Y-68077781D01*
X99450346Y-68095024D01*
X99435930Y-68110930D01*
X99420024Y-68125346D01*
X99402781Y-68138134D01*
X99384368Y-68149170D01*
X99364962Y-68158349D01*
X99344750Y-68165581D01*
X99323926Y-68170797D01*
X99302691Y-68173947D01*
X99281250Y-68175000D01*
X98843750Y-68175000D01*
X98822309Y-68173947D01*
X98801074Y-68170797D01*
X98780250Y-68165581D01*
X98760038Y-68158349D01*
X98740632Y-68149170D01*
X98722219Y-68138134D01*
X98704976Y-68125346D01*
X98689070Y-68110930D01*
X98674654Y-68095024D01*
X98661866Y-68077781D01*
X98650830Y-68059368D01*
X98641651Y-68039962D01*
X98634419Y-68019750D01*
X98629203Y-67998926D01*
X98626053Y-67977691D01*
X98625000Y-67956250D01*
X98625000Y-67443750D01*
X98626053Y-67422309D01*
X98629203Y-67401074D01*
X98634419Y-67380250D01*
X98641651Y-67360038D01*
X98650830Y-67340632D01*
X98661866Y-67322219D01*
X98674654Y-67304976D01*
X98689070Y-67289070D01*
X98704976Y-67274654D01*
X98722219Y-67261866D01*
X98740632Y-67250830D01*
X98760038Y-67241651D01*
X98780250Y-67234419D01*
X98801074Y-67229203D01*
X98822309Y-67226053D01*
X98843750Y-67225000D01*
X99281250Y-67225000D01*
X99302691Y-67226053D01*
X99302691Y-67226053D01*
G37*
D11*
X99062500Y-67700000D03*
D10*
G36*
X100877691Y-67226053D02*
G01*
X100898926Y-67229203D01*
X100919750Y-67234419D01*
X100939962Y-67241651D01*
X100959368Y-67250830D01*
X100977781Y-67261866D01*
X100995024Y-67274654D01*
X101010930Y-67289070D01*
X101025346Y-67304976D01*
X101038134Y-67322219D01*
X101049170Y-67340632D01*
X101058349Y-67360038D01*
X101065581Y-67380250D01*
X101070797Y-67401074D01*
X101073947Y-67422309D01*
X101075000Y-67443750D01*
X101075000Y-67956250D01*
X101073947Y-67977691D01*
X101070797Y-67998926D01*
X101065581Y-68019750D01*
X101058349Y-68039962D01*
X101049170Y-68059368D01*
X101038134Y-68077781D01*
X101025346Y-68095024D01*
X101010930Y-68110930D01*
X100995024Y-68125346D01*
X100977781Y-68138134D01*
X100959368Y-68149170D01*
X100939962Y-68158349D01*
X100919750Y-68165581D01*
X100898926Y-68170797D01*
X100877691Y-68173947D01*
X100856250Y-68175000D01*
X100418750Y-68175000D01*
X100397309Y-68173947D01*
X100376074Y-68170797D01*
X100355250Y-68165581D01*
X100335038Y-68158349D01*
X100315632Y-68149170D01*
X100297219Y-68138134D01*
X100279976Y-68125346D01*
X100264070Y-68110930D01*
X100249654Y-68095024D01*
X100236866Y-68077781D01*
X100225830Y-68059368D01*
X100216651Y-68039962D01*
X100209419Y-68019750D01*
X100204203Y-67998926D01*
X100201053Y-67977691D01*
X100200000Y-67956250D01*
X100200000Y-67443750D01*
X100201053Y-67422309D01*
X100204203Y-67401074D01*
X100209419Y-67380250D01*
X100216651Y-67360038D01*
X100225830Y-67340632D01*
X100236866Y-67322219D01*
X100249654Y-67304976D01*
X100264070Y-67289070D01*
X100279976Y-67274654D01*
X100297219Y-67261866D01*
X100315632Y-67250830D01*
X100335038Y-67241651D01*
X100355250Y-67234419D01*
X100376074Y-67229203D01*
X100397309Y-67226053D01*
X100418750Y-67225000D01*
X100856250Y-67225000D01*
X100877691Y-67226053D01*
X100877691Y-67226053D01*
G37*
D11*
X100637500Y-67700000D03*
D10*
G36*
X106677691Y-73751053D02*
G01*
X106698926Y-73754203D01*
X106719750Y-73759419D01*
X106739962Y-73766651D01*
X106759368Y-73775830D01*
X106777781Y-73786866D01*
X106795024Y-73799654D01*
X106810930Y-73814070D01*
X106825346Y-73829976D01*
X106838134Y-73847219D01*
X106849170Y-73865632D01*
X106858349Y-73885038D01*
X106865581Y-73905250D01*
X106870797Y-73926074D01*
X106873947Y-73947309D01*
X106875000Y-73968750D01*
X106875000Y-74406250D01*
X106873947Y-74427691D01*
X106870797Y-74448926D01*
X106865581Y-74469750D01*
X106858349Y-74489962D01*
X106849170Y-74509368D01*
X106838134Y-74527781D01*
X106825346Y-74545024D01*
X106810930Y-74560930D01*
X106795024Y-74575346D01*
X106777781Y-74588134D01*
X106759368Y-74599170D01*
X106739962Y-74608349D01*
X106719750Y-74615581D01*
X106698926Y-74620797D01*
X106677691Y-74623947D01*
X106656250Y-74625000D01*
X106143750Y-74625000D01*
X106122309Y-74623947D01*
X106101074Y-74620797D01*
X106080250Y-74615581D01*
X106060038Y-74608349D01*
X106040632Y-74599170D01*
X106022219Y-74588134D01*
X106004976Y-74575346D01*
X105989070Y-74560930D01*
X105974654Y-74545024D01*
X105961866Y-74527781D01*
X105950830Y-74509368D01*
X105941651Y-74489962D01*
X105934419Y-74469750D01*
X105929203Y-74448926D01*
X105926053Y-74427691D01*
X105925000Y-74406250D01*
X105925000Y-73968750D01*
X105926053Y-73947309D01*
X105929203Y-73926074D01*
X105934419Y-73905250D01*
X105941651Y-73885038D01*
X105950830Y-73865632D01*
X105961866Y-73847219D01*
X105974654Y-73829976D01*
X105989070Y-73814070D01*
X106004976Y-73799654D01*
X106022219Y-73786866D01*
X106040632Y-73775830D01*
X106060038Y-73766651D01*
X106080250Y-73759419D01*
X106101074Y-73754203D01*
X106122309Y-73751053D01*
X106143750Y-73750000D01*
X106656250Y-73750000D01*
X106677691Y-73751053D01*
X106677691Y-73751053D01*
G37*
D11*
X106400000Y-74187500D03*
D10*
G36*
X106677691Y-72176053D02*
G01*
X106698926Y-72179203D01*
X106719750Y-72184419D01*
X106739962Y-72191651D01*
X106759368Y-72200830D01*
X106777781Y-72211866D01*
X106795024Y-72224654D01*
X106810930Y-72239070D01*
X106825346Y-72254976D01*
X106838134Y-72272219D01*
X106849170Y-72290632D01*
X106858349Y-72310038D01*
X106865581Y-72330250D01*
X106870797Y-72351074D01*
X106873947Y-72372309D01*
X106875000Y-72393750D01*
X106875000Y-72831250D01*
X106873947Y-72852691D01*
X106870797Y-72873926D01*
X106865581Y-72894750D01*
X106858349Y-72914962D01*
X106849170Y-72934368D01*
X106838134Y-72952781D01*
X106825346Y-72970024D01*
X106810930Y-72985930D01*
X106795024Y-73000346D01*
X106777781Y-73013134D01*
X106759368Y-73024170D01*
X106739962Y-73033349D01*
X106719750Y-73040581D01*
X106698926Y-73045797D01*
X106677691Y-73048947D01*
X106656250Y-73050000D01*
X106143750Y-73050000D01*
X106122309Y-73048947D01*
X106101074Y-73045797D01*
X106080250Y-73040581D01*
X106060038Y-73033349D01*
X106040632Y-73024170D01*
X106022219Y-73013134D01*
X106004976Y-73000346D01*
X105989070Y-72985930D01*
X105974654Y-72970024D01*
X105961866Y-72952781D01*
X105950830Y-72934368D01*
X105941651Y-72914962D01*
X105934419Y-72894750D01*
X105929203Y-72873926D01*
X105926053Y-72852691D01*
X105925000Y-72831250D01*
X105925000Y-72393750D01*
X105926053Y-72372309D01*
X105929203Y-72351074D01*
X105934419Y-72330250D01*
X105941651Y-72310038D01*
X105950830Y-72290632D01*
X105961866Y-72272219D01*
X105974654Y-72254976D01*
X105989070Y-72239070D01*
X106004976Y-72224654D01*
X106022219Y-72211866D01*
X106040632Y-72200830D01*
X106060038Y-72191651D01*
X106080250Y-72184419D01*
X106101074Y-72179203D01*
X106122309Y-72176053D01*
X106143750Y-72175000D01*
X106656250Y-72175000D01*
X106677691Y-72176053D01*
X106677691Y-72176053D01*
G37*
D11*
X106400000Y-72612500D03*
D10*
G36*
X106399504Y-76951204D02*
G01*
X106423773Y-76954804D01*
X106447571Y-76960765D01*
X106470671Y-76969030D01*
X106492849Y-76979520D01*
X106513893Y-76992133D01*
X106533598Y-77006747D01*
X106551777Y-77023223D01*
X106568253Y-77041402D01*
X106582867Y-77061107D01*
X106595480Y-77082151D01*
X106605970Y-77104329D01*
X106614235Y-77127429D01*
X106620196Y-77151227D01*
X106623796Y-77175496D01*
X106625000Y-77200000D01*
X106625000Y-77950000D01*
X106623796Y-77974504D01*
X106620196Y-77998773D01*
X106614235Y-78022571D01*
X106605970Y-78045671D01*
X106595480Y-78067849D01*
X106582867Y-78088893D01*
X106568253Y-78108598D01*
X106551777Y-78126777D01*
X106533598Y-78143253D01*
X106513893Y-78157867D01*
X106492849Y-78170480D01*
X106470671Y-78180970D01*
X106447571Y-78189235D01*
X106423773Y-78195196D01*
X106399504Y-78198796D01*
X106375000Y-78200000D01*
X105125000Y-78200000D01*
X105100496Y-78198796D01*
X105076227Y-78195196D01*
X105052429Y-78189235D01*
X105029329Y-78180970D01*
X105007151Y-78170480D01*
X104986107Y-78157867D01*
X104966402Y-78143253D01*
X104948223Y-78126777D01*
X104931747Y-78108598D01*
X104917133Y-78088893D01*
X104904520Y-78067849D01*
X104894030Y-78045671D01*
X104885765Y-78022571D01*
X104879804Y-77998773D01*
X104876204Y-77974504D01*
X104875000Y-77950000D01*
X104875000Y-77200000D01*
X104876204Y-77175496D01*
X104879804Y-77151227D01*
X104885765Y-77127429D01*
X104894030Y-77104329D01*
X104904520Y-77082151D01*
X104917133Y-77061107D01*
X104931747Y-77041402D01*
X104948223Y-77023223D01*
X104966402Y-77006747D01*
X104986107Y-76992133D01*
X105007151Y-76979520D01*
X105029329Y-76969030D01*
X105052429Y-76960765D01*
X105076227Y-76954804D01*
X105100496Y-76951204D01*
X105125000Y-76950000D01*
X106375000Y-76950000D01*
X106399504Y-76951204D01*
X106399504Y-76951204D01*
G37*
D12*
X105750000Y-77575000D03*
D10*
G36*
X106399504Y-79751204D02*
G01*
X106423773Y-79754804D01*
X106447571Y-79760765D01*
X106470671Y-79769030D01*
X106492849Y-79779520D01*
X106513893Y-79792133D01*
X106533598Y-79806747D01*
X106551777Y-79823223D01*
X106568253Y-79841402D01*
X106582867Y-79861107D01*
X106595480Y-79882151D01*
X106605970Y-79904329D01*
X106614235Y-79927429D01*
X106620196Y-79951227D01*
X106623796Y-79975496D01*
X106625000Y-80000000D01*
X106625000Y-80750000D01*
X106623796Y-80774504D01*
X106620196Y-80798773D01*
X106614235Y-80822571D01*
X106605970Y-80845671D01*
X106595480Y-80867849D01*
X106582867Y-80888893D01*
X106568253Y-80908598D01*
X106551777Y-80926777D01*
X106533598Y-80943253D01*
X106513893Y-80957867D01*
X106492849Y-80970480D01*
X106470671Y-80980970D01*
X106447571Y-80989235D01*
X106423773Y-80995196D01*
X106399504Y-80998796D01*
X106375000Y-81000000D01*
X105125000Y-81000000D01*
X105100496Y-80998796D01*
X105076227Y-80995196D01*
X105052429Y-80989235D01*
X105029329Y-80980970D01*
X105007151Y-80970480D01*
X104986107Y-80957867D01*
X104966402Y-80943253D01*
X104948223Y-80926777D01*
X104931747Y-80908598D01*
X104917133Y-80888893D01*
X104904520Y-80867849D01*
X104894030Y-80845671D01*
X104885765Y-80822571D01*
X104879804Y-80798773D01*
X104876204Y-80774504D01*
X104875000Y-80750000D01*
X104875000Y-80000000D01*
X104876204Y-79975496D01*
X104879804Y-79951227D01*
X104885765Y-79927429D01*
X104894030Y-79904329D01*
X104904520Y-79882151D01*
X104917133Y-79861107D01*
X104931747Y-79841402D01*
X104948223Y-79823223D01*
X104966402Y-79806747D01*
X104986107Y-79792133D01*
X105007151Y-79779520D01*
X105029329Y-79769030D01*
X105052429Y-79760765D01*
X105076227Y-79754804D01*
X105100496Y-79751204D01*
X105125000Y-79750000D01*
X106375000Y-79750000D01*
X106399504Y-79751204D01*
X106399504Y-79751204D01*
G37*
D12*
X105750000Y-80375000D03*
D10*
G36*
X103249504Y-85876204D02*
G01*
X103273773Y-85879804D01*
X103297571Y-85885765D01*
X103320671Y-85894030D01*
X103342849Y-85904520D01*
X103363893Y-85917133D01*
X103383598Y-85931747D01*
X103401777Y-85948223D01*
X103418253Y-85966402D01*
X103432867Y-85986107D01*
X103445480Y-86007151D01*
X103455970Y-86029329D01*
X103464235Y-86052429D01*
X103470196Y-86076227D01*
X103473796Y-86100496D01*
X103475000Y-86125000D01*
X103475000Y-86875000D01*
X103473796Y-86899504D01*
X103470196Y-86923773D01*
X103464235Y-86947571D01*
X103455970Y-86970671D01*
X103445480Y-86992849D01*
X103432867Y-87013893D01*
X103418253Y-87033598D01*
X103401777Y-87051777D01*
X103383598Y-87068253D01*
X103363893Y-87082867D01*
X103342849Y-87095480D01*
X103320671Y-87105970D01*
X103297571Y-87114235D01*
X103273773Y-87120196D01*
X103249504Y-87123796D01*
X103225000Y-87125000D01*
X101975000Y-87125000D01*
X101950496Y-87123796D01*
X101926227Y-87120196D01*
X101902429Y-87114235D01*
X101879329Y-87105970D01*
X101857151Y-87095480D01*
X101836107Y-87082867D01*
X101816402Y-87068253D01*
X101798223Y-87051777D01*
X101781747Y-87033598D01*
X101767133Y-87013893D01*
X101754520Y-86992849D01*
X101744030Y-86970671D01*
X101735765Y-86947571D01*
X101729804Y-86923773D01*
X101726204Y-86899504D01*
X101725000Y-86875000D01*
X101725000Y-86125000D01*
X101726204Y-86100496D01*
X101729804Y-86076227D01*
X101735765Y-86052429D01*
X101744030Y-86029329D01*
X101754520Y-86007151D01*
X101767133Y-85986107D01*
X101781747Y-85966402D01*
X101798223Y-85948223D01*
X101816402Y-85931747D01*
X101836107Y-85917133D01*
X101857151Y-85904520D01*
X101879329Y-85894030D01*
X101902429Y-85885765D01*
X101926227Y-85879804D01*
X101950496Y-85876204D01*
X101975000Y-85875000D01*
X103225000Y-85875000D01*
X103249504Y-85876204D01*
X103249504Y-85876204D01*
G37*
D12*
X102600000Y-86500000D03*
D10*
G36*
X103249504Y-83076204D02*
G01*
X103273773Y-83079804D01*
X103297571Y-83085765D01*
X103320671Y-83094030D01*
X103342849Y-83104520D01*
X103363893Y-83117133D01*
X103383598Y-83131747D01*
X103401777Y-83148223D01*
X103418253Y-83166402D01*
X103432867Y-83186107D01*
X103445480Y-83207151D01*
X103455970Y-83229329D01*
X103464235Y-83252429D01*
X103470196Y-83276227D01*
X103473796Y-83300496D01*
X103475000Y-83325000D01*
X103475000Y-84075000D01*
X103473796Y-84099504D01*
X103470196Y-84123773D01*
X103464235Y-84147571D01*
X103455970Y-84170671D01*
X103445480Y-84192849D01*
X103432867Y-84213893D01*
X103418253Y-84233598D01*
X103401777Y-84251777D01*
X103383598Y-84268253D01*
X103363893Y-84282867D01*
X103342849Y-84295480D01*
X103320671Y-84305970D01*
X103297571Y-84314235D01*
X103273773Y-84320196D01*
X103249504Y-84323796D01*
X103225000Y-84325000D01*
X101975000Y-84325000D01*
X101950496Y-84323796D01*
X101926227Y-84320196D01*
X101902429Y-84314235D01*
X101879329Y-84305970D01*
X101857151Y-84295480D01*
X101836107Y-84282867D01*
X101816402Y-84268253D01*
X101798223Y-84251777D01*
X101781747Y-84233598D01*
X101767133Y-84213893D01*
X101754520Y-84192849D01*
X101744030Y-84170671D01*
X101735765Y-84147571D01*
X101729804Y-84123773D01*
X101726204Y-84099504D01*
X101725000Y-84075000D01*
X101725000Y-83325000D01*
X101726204Y-83300496D01*
X101729804Y-83276227D01*
X101735765Y-83252429D01*
X101744030Y-83229329D01*
X101754520Y-83207151D01*
X101767133Y-83186107D01*
X101781747Y-83166402D01*
X101798223Y-83148223D01*
X101816402Y-83131747D01*
X101836107Y-83117133D01*
X101857151Y-83104520D01*
X101879329Y-83094030D01*
X101902429Y-83085765D01*
X101926227Y-83079804D01*
X101950496Y-83076204D01*
X101975000Y-83075000D01*
X103225000Y-83075000D01*
X103249504Y-83076204D01*
X103249504Y-83076204D01*
G37*
D12*
X102600000Y-83700000D03*
D13*
X95250000Y-84550000D03*
X95250000Y-68750000D03*
D14*
X106355000Y-70750000D03*
X105085000Y-70750000D03*
X103815000Y-70750000D03*
X102545000Y-70750000D03*
X102545000Y-65350000D03*
X103815000Y-65350000D03*
X105085000Y-65350000D03*
X106355000Y-65350000D03*
D10*
G36*
X127299504Y-106926204D02*
G01*
X127323773Y-106929804D01*
X127347571Y-106935765D01*
X127370671Y-106944030D01*
X127392849Y-106954520D01*
X127413893Y-106967133D01*
X127433598Y-106981747D01*
X127451777Y-106998223D01*
X127468253Y-107016402D01*
X127482867Y-107036107D01*
X127495480Y-107057151D01*
X127505970Y-107079329D01*
X127514235Y-107102429D01*
X127520196Y-107126227D01*
X127523796Y-107150496D01*
X127525000Y-107175000D01*
X127525000Y-107925000D01*
X127523796Y-107949504D01*
X127520196Y-107973773D01*
X127514235Y-107997571D01*
X127505970Y-108020671D01*
X127495480Y-108042849D01*
X127482867Y-108063893D01*
X127468253Y-108083598D01*
X127451777Y-108101777D01*
X127433598Y-108118253D01*
X127413893Y-108132867D01*
X127392849Y-108145480D01*
X127370671Y-108155970D01*
X127347571Y-108164235D01*
X127323773Y-108170196D01*
X127299504Y-108173796D01*
X127275000Y-108175000D01*
X126025000Y-108175000D01*
X126000496Y-108173796D01*
X125976227Y-108170196D01*
X125952429Y-108164235D01*
X125929329Y-108155970D01*
X125907151Y-108145480D01*
X125886107Y-108132867D01*
X125866402Y-108118253D01*
X125848223Y-108101777D01*
X125831747Y-108083598D01*
X125817133Y-108063893D01*
X125804520Y-108042849D01*
X125794030Y-108020671D01*
X125785765Y-107997571D01*
X125779804Y-107973773D01*
X125776204Y-107949504D01*
X125775000Y-107925000D01*
X125775000Y-107175000D01*
X125776204Y-107150496D01*
X125779804Y-107126227D01*
X125785765Y-107102429D01*
X125794030Y-107079329D01*
X125804520Y-107057151D01*
X125817133Y-107036107D01*
X125831747Y-107016402D01*
X125848223Y-106998223D01*
X125866402Y-106981747D01*
X125886107Y-106967133D01*
X125907151Y-106954520D01*
X125929329Y-106944030D01*
X125952429Y-106935765D01*
X125976227Y-106929804D01*
X126000496Y-106926204D01*
X126025000Y-106925000D01*
X127275000Y-106925000D01*
X127299504Y-106926204D01*
X127299504Y-106926204D01*
G37*
D12*
X126650000Y-107550000D03*
D10*
G36*
X127299504Y-109726204D02*
G01*
X127323773Y-109729804D01*
X127347571Y-109735765D01*
X127370671Y-109744030D01*
X127392849Y-109754520D01*
X127413893Y-109767133D01*
X127433598Y-109781747D01*
X127451777Y-109798223D01*
X127468253Y-109816402D01*
X127482867Y-109836107D01*
X127495480Y-109857151D01*
X127505970Y-109879329D01*
X127514235Y-109902429D01*
X127520196Y-109926227D01*
X127523796Y-109950496D01*
X127525000Y-109975000D01*
X127525000Y-110725000D01*
X127523796Y-110749504D01*
X127520196Y-110773773D01*
X127514235Y-110797571D01*
X127505970Y-110820671D01*
X127495480Y-110842849D01*
X127482867Y-110863893D01*
X127468253Y-110883598D01*
X127451777Y-110901777D01*
X127433598Y-110918253D01*
X127413893Y-110932867D01*
X127392849Y-110945480D01*
X127370671Y-110955970D01*
X127347571Y-110964235D01*
X127323773Y-110970196D01*
X127299504Y-110973796D01*
X127275000Y-110975000D01*
X126025000Y-110975000D01*
X126000496Y-110973796D01*
X125976227Y-110970196D01*
X125952429Y-110964235D01*
X125929329Y-110955970D01*
X125907151Y-110945480D01*
X125886107Y-110932867D01*
X125866402Y-110918253D01*
X125848223Y-110901777D01*
X125831747Y-110883598D01*
X125817133Y-110863893D01*
X125804520Y-110842849D01*
X125794030Y-110820671D01*
X125785765Y-110797571D01*
X125779804Y-110773773D01*
X125776204Y-110749504D01*
X125775000Y-110725000D01*
X125775000Y-109975000D01*
X125776204Y-109950496D01*
X125779804Y-109926227D01*
X125785765Y-109902429D01*
X125794030Y-109879329D01*
X125804520Y-109857151D01*
X125817133Y-109836107D01*
X125831747Y-109816402D01*
X125848223Y-109798223D01*
X125866402Y-109781747D01*
X125886107Y-109767133D01*
X125907151Y-109754520D01*
X125929329Y-109744030D01*
X125952429Y-109735765D01*
X125976227Y-109729804D01*
X126000496Y-109726204D01*
X126025000Y-109725000D01*
X127275000Y-109725000D01*
X127299504Y-109726204D01*
X127299504Y-109726204D01*
G37*
D12*
X126650000Y-110350000D03*
D10*
G36*
X141699504Y-80426204D02*
G01*
X141723773Y-80429804D01*
X141747571Y-80435765D01*
X141770671Y-80444030D01*
X141792849Y-80454520D01*
X141813893Y-80467133D01*
X141833598Y-80481747D01*
X141851777Y-80498223D01*
X141868253Y-80516402D01*
X141882867Y-80536107D01*
X141895480Y-80557151D01*
X141905970Y-80579329D01*
X141914235Y-80602429D01*
X141920196Y-80626227D01*
X141923796Y-80650496D01*
X141925000Y-80675000D01*
X141925000Y-81425000D01*
X141923796Y-81449504D01*
X141920196Y-81473773D01*
X141914235Y-81497571D01*
X141905970Y-81520671D01*
X141895480Y-81542849D01*
X141882867Y-81563893D01*
X141868253Y-81583598D01*
X141851777Y-81601777D01*
X141833598Y-81618253D01*
X141813893Y-81632867D01*
X141792849Y-81645480D01*
X141770671Y-81655970D01*
X141747571Y-81664235D01*
X141723773Y-81670196D01*
X141699504Y-81673796D01*
X141675000Y-81675000D01*
X140425000Y-81675000D01*
X140400496Y-81673796D01*
X140376227Y-81670196D01*
X140352429Y-81664235D01*
X140329329Y-81655970D01*
X140307151Y-81645480D01*
X140286107Y-81632867D01*
X140266402Y-81618253D01*
X140248223Y-81601777D01*
X140231747Y-81583598D01*
X140217133Y-81563893D01*
X140204520Y-81542849D01*
X140194030Y-81520671D01*
X140185765Y-81497571D01*
X140179804Y-81473773D01*
X140176204Y-81449504D01*
X140175000Y-81425000D01*
X140175000Y-80675000D01*
X140176204Y-80650496D01*
X140179804Y-80626227D01*
X140185765Y-80602429D01*
X140194030Y-80579329D01*
X140204520Y-80557151D01*
X140217133Y-80536107D01*
X140231747Y-80516402D01*
X140248223Y-80498223D01*
X140266402Y-80481747D01*
X140286107Y-80467133D01*
X140307151Y-80454520D01*
X140329329Y-80444030D01*
X140352429Y-80435765D01*
X140376227Y-80429804D01*
X140400496Y-80426204D01*
X140425000Y-80425000D01*
X141675000Y-80425000D01*
X141699504Y-80426204D01*
X141699504Y-80426204D01*
G37*
D12*
X141050000Y-81050000D03*
D10*
G36*
X141699504Y-83226204D02*
G01*
X141723773Y-83229804D01*
X141747571Y-83235765D01*
X141770671Y-83244030D01*
X141792849Y-83254520D01*
X141813893Y-83267133D01*
X141833598Y-83281747D01*
X141851777Y-83298223D01*
X141868253Y-83316402D01*
X141882867Y-83336107D01*
X141895480Y-83357151D01*
X141905970Y-83379329D01*
X141914235Y-83402429D01*
X141920196Y-83426227D01*
X141923796Y-83450496D01*
X141925000Y-83475000D01*
X141925000Y-84225000D01*
X141923796Y-84249504D01*
X141920196Y-84273773D01*
X141914235Y-84297571D01*
X141905970Y-84320671D01*
X141895480Y-84342849D01*
X141882867Y-84363893D01*
X141868253Y-84383598D01*
X141851777Y-84401777D01*
X141833598Y-84418253D01*
X141813893Y-84432867D01*
X141792849Y-84445480D01*
X141770671Y-84455970D01*
X141747571Y-84464235D01*
X141723773Y-84470196D01*
X141699504Y-84473796D01*
X141675000Y-84475000D01*
X140425000Y-84475000D01*
X140400496Y-84473796D01*
X140376227Y-84470196D01*
X140352429Y-84464235D01*
X140329329Y-84455970D01*
X140307151Y-84445480D01*
X140286107Y-84432867D01*
X140266402Y-84418253D01*
X140248223Y-84401777D01*
X140231747Y-84383598D01*
X140217133Y-84363893D01*
X140204520Y-84342849D01*
X140194030Y-84320671D01*
X140185765Y-84297571D01*
X140179804Y-84273773D01*
X140176204Y-84249504D01*
X140175000Y-84225000D01*
X140175000Y-83475000D01*
X140176204Y-83450496D01*
X140179804Y-83426227D01*
X140185765Y-83402429D01*
X140194030Y-83379329D01*
X140204520Y-83357151D01*
X140217133Y-83336107D01*
X140231747Y-83316402D01*
X140248223Y-83298223D01*
X140266402Y-83281747D01*
X140286107Y-83267133D01*
X140307151Y-83254520D01*
X140329329Y-83244030D01*
X140352429Y-83235765D01*
X140376227Y-83229804D01*
X140400496Y-83226204D01*
X140425000Y-83225000D01*
X141675000Y-83225000D01*
X141699504Y-83226204D01*
X141699504Y-83226204D01*
G37*
D12*
X141050000Y-83850000D03*
D10*
G36*
X125127691Y-85351053D02*
G01*
X125148926Y-85354203D01*
X125169750Y-85359419D01*
X125189962Y-85366651D01*
X125209368Y-85375830D01*
X125227781Y-85386866D01*
X125245024Y-85399654D01*
X125260930Y-85414070D01*
X125275346Y-85429976D01*
X125288134Y-85447219D01*
X125299170Y-85465632D01*
X125308349Y-85485038D01*
X125315581Y-85505250D01*
X125320797Y-85526074D01*
X125323947Y-85547309D01*
X125325000Y-85568750D01*
X125325000Y-86006250D01*
X125323947Y-86027691D01*
X125320797Y-86048926D01*
X125315581Y-86069750D01*
X125308349Y-86089962D01*
X125299170Y-86109368D01*
X125288134Y-86127781D01*
X125275346Y-86145024D01*
X125260930Y-86160930D01*
X125245024Y-86175346D01*
X125227781Y-86188134D01*
X125209368Y-86199170D01*
X125189962Y-86208349D01*
X125169750Y-86215581D01*
X125148926Y-86220797D01*
X125127691Y-86223947D01*
X125106250Y-86225000D01*
X124593750Y-86225000D01*
X124572309Y-86223947D01*
X124551074Y-86220797D01*
X124530250Y-86215581D01*
X124510038Y-86208349D01*
X124490632Y-86199170D01*
X124472219Y-86188134D01*
X124454976Y-86175346D01*
X124439070Y-86160930D01*
X124424654Y-86145024D01*
X124411866Y-86127781D01*
X124400830Y-86109368D01*
X124391651Y-86089962D01*
X124384419Y-86069750D01*
X124379203Y-86048926D01*
X124376053Y-86027691D01*
X124375000Y-86006250D01*
X124375000Y-85568750D01*
X124376053Y-85547309D01*
X124379203Y-85526074D01*
X124384419Y-85505250D01*
X124391651Y-85485038D01*
X124400830Y-85465632D01*
X124411866Y-85447219D01*
X124424654Y-85429976D01*
X124439070Y-85414070D01*
X124454976Y-85399654D01*
X124472219Y-85386866D01*
X124490632Y-85375830D01*
X124510038Y-85366651D01*
X124530250Y-85359419D01*
X124551074Y-85354203D01*
X124572309Y-85351053D01*
X124593750Y-85350000D01*
X125106250Y-85350000D01*
X125127691Y-85351053D01*
X125127691Y-85351053D01*
G37*
D11*
X124850000Y-85787500D03*
D10*
G36*
X125127691Y-83776053D02*
G01*
X125148926Y-83779203D01*
X125169750Y-83784419D01*
X125189962Y-83791651D01*
X125209368Y-83800830D01*
X125227781Y-83811866D01*
X125245024Y-83824654D01*
X125260930Y-83839070D01*
X125275346Y-83854976D01*
X125288134Y-83872219D01*
X125299170Y-83890632D01*
X125308349Y-83910038D01*
X125315581Y-83930250D01*
X125320797Y-83951074D01*
X125323947Y-83972309D01*
X125325000Y-83993750D01*
X125325000Y-84431250D01*
X125323947Y-84452691D01*
X125320797Y-84473926D01*
X125315581Y-84494750D01*
X125308349Y-84514962D01*
X125299170Y-84534368D01*
X125288134Y-84552781D01*
X125275346Y-84570024D01*
X125260930Y-84585930D01*
X125245024Y-84600346D01*
X125227781Y-84613134D01*
X125209368Y-84624170D01*
X125189962Y-84633349D01*
X125169750Y-84640581D01*
X125148926Y-84645797D01*
X125127691Y-84648947D01*
X125106250Y-84650000D01*
X124593750Y-84650000D01*
X124572309Y-84648947D01*
X124551074Y-84645797D01*
X124530250Y-84640581D01*
X124510038Y-84633349D01*
X124490632Y-84624170D01*
X124472219Y-84613134D01*
X124454976Y-84600346D01*
X124439070Y-84585930D01*
X124424654Y-84570024D01*
X124411866Y-84552781D01*
X124400830Y-84534368D01*
X124391651Y-84514962D01*
X124384419Y-84494750D01*
X124379203Y-84473926D01*
X124376053Y-84452691D01*
X124375000Y-84431250D01*
X124375000Y-83993750D01*
X124376053Y-83972309D01*
X124379203Y-83951074D01*
X124384419Y-83930250D01*
X124391651Y-83910038D01*
X124400830Y-83890632D01*
X124411866Y-83872219D01*
X124424654Y-83854976D01*
X124439070Y-83839070D01*
X124454976Y-83824654D01*
X124472219Y-83811866D01*
X124490632Y-83800830D01*
X124510038Y-83791651D01*
X124530250Y-83784419D01*
X124551074Y-83779203D01*
X124572309Y-83776053D01*
X124593750Y-83775000D01*
X125106250Y-83775000D01*
X125127691Y-83776053D01*
X125127691Y-83776053D01*
G37*
D11*
X124850000Y-84212500D03*
D15*
X137500000Y-72500000D03*
X138450000Y-74500000D03*
X136550000Y-74500000D03*
D16*
X108375000Y-88100000D03*
X107725000Y-88100000D03*
X107075000Y-88100000D03*
X106425000Y-88100000D03*
X106425000Y-83700000D03*
X107075000Y-83700000D03*
X107725000Y-83700000D03*
X108375000Y-83700000D03*
D15*
X137500000Y-77000000D03*
X138450000Y-79000000D03*
X136550000Y-79000000D03*
D17*
X124722500Y-70404300D03*
X124087500Y-70404300D03*
X123452500Y-70404300D03*
X122817500Y-70404300D03*
X122182500Y-70404300D03*
X121547500Y-70404300D03*
X120912500Y-70404300D03*
X120277500Y-70404300D03*
X120277500Y-65095700D03*
X120912500Y-65095700D03*
X121547500Y-65095700D03*
X122182500Y-65095700D03*
X122817500Y-65095700D03*
X123452500Y-65095700D03*
X124087500Y-65095700D03*
X124722500Y-65095700D03*
X112472500Y-70404300D03*
X111837500Y-70404300D03*
X111202500Y-70404300D03*
X110567500Y-70404300D03*
X109932500Y-70404300D03*
X109297500Y-70404300D03*
X108662500Y-70404300D03*
X108027500Y-70404300D03*
X108027500Y-65095700D03*
X108662500Y-65095700D03*
X109297500Y-65095700D03*
X109932500Y-65095700D03*
X110567500Y-65095700D03*
X111202500Y-65095700D03*
X111837500Y-65095700D03*
X112472500Y-65095700D03*
D18*
X147980000Y-100750000D03*
X147980000Y-96250000D03*
X140020000Y-96250000D03*
X140020000Y-100750000D03*
X133980000Y-100750000D03*
X133980000Y-96250000D03*
X126020000Y-96250000D03*
X126020000Y-100750000D03*
X119980000Y-100750000D03*
X119980000Y-96250000D03*
X112020000Y-96250000D03*
X112020000Y-100750000D03*
X105980000Y-100750000D03*
X105980000Y-96250000D03*
X98020000Y-96250000D03*
X98020000Y-100750000D03*
X91980000Y-100750000D03*
X91980000Y-96250000D03*
X84020000Y-96250000D03*
X84020000Y-100750000D03*
D10*
G36*
X108799504Y-79751204D02*
G01*
X108823773Y-79754804D01*
X108847571Y-79760765D01*
X108870671Y-79769030D01*
X108892849Y-79779520D01*
X108913893Y-79792133D01*
X108933598Y-79806747D01*
X108951777Y-79823223D01*
X108968253Y-79841402D01*
X108982867Y-79861107D01*
X108995480Y-79882151D01*
X109005970Y-79904329D01*
X109014235Y-79927429D01*
X109020196Y-79951227D01*
X109023796Y-79975496D01*
X109025000Y-80000000D01*
X109025000Y-80750000D01*
X109023796Y-80774504D01*
X109020196Y-80798773D01*
X109014235Y-80822571D01*
X109005970Y-80845671D01*
X108995480Y-80867849D01*
X108982867Y-80888893D01*
X108968253Y-80908598D01*
X108951777Y-80926777D01*
X108933598Y-80943253D01*
X108913893Y-80957867D01*
X108892849Y-80970480D01*
X108870671Y-80980970D01*
X108847571Y-80989235D01*
X108823773Y-80995196D01*
X108799504Y-80998796D01*
X108775000Y-81000000D01*
X107525000Y-81000000D01*
X107500496Y-80998796D01*
X107476227Y-80995196D01*
X107452429Y-80989235D01*
X107429329Y-80980970D01*
X107407151Y-80970480D01*
X107386107Y-80957867D01*
X107366402Y-80943253D01*
X107348223Y-80926777D01*
X107331747Y-80908598D01*
X107317133Y-80888893D01*
X107304520Y-80867849D01*
X107294030Y-80845671D01*
X107285765Y-80822571D01*
X107279804Y-80798773D01*
X107276204Y-80774504D01*
X107275000Y-80750000D01*
X107275000Y-80000000D01*
X107276204Y-79975496D01*
X107279804Y-79951227D01*
X107285765Y-79927429D01*
X107294030Y-79904329D01*
X107304520Y-79882151D01*
X107317133Y-79861107D01*
X107331747Y-79841402D01*
X107348223Y-79823223D01*
X107366402Y-79806747D01*
X107386107Y-79792133D01*
X107407151Y-79779520D01*
X107429329Y-79769030D01*
X107452429Y-79760765D01*
X107476227Y-79754804D01*
X107500496Y-79751204D01*
X107525000Y-79750000D01*
X108775000Y-79750000D01*
X108799504Y-79751204D01*
X108799504Y-79751204D01*
G37*
D12*
X108150000Y-80375000D03*
D10*
G36*
X108799504Y-76951204D02*
G01*
X108823773Y-76954804D01*
X108847571Y-76960765D01*
X108870671Y-76969030D01*
X108892849Y-76979520D01*
X108913893Y-76992133D01*
X108933598Y-77006747D01*
X108951777Y-77023223D01*
X108968253Y-77041402D01*
X108982867Y-77061107D01*
X108995480Y-77082151D01*
X109005970Y-77104329D01*
X109014235Y-77127429D01*
X109020196Y-77151227D01*
X109023796Y-77175496D01*
X109025000Y-77200000D01*
X109025000Y-77950000D01*
X109023796Y-77974504D01*
X109020196Y-77998773D01*
X109014235Y-78022571D01*
X109005970Y-78045671D01*
X108995480Y-78067849D01*
X108982867Y-78088893D01*
X108968253Y-78108598D01*
X108951777Y-78126777D01*
X108933598Y-78143253D01*
X108913893Y-78157867D01*
X108892849Y-78170480D01*
X108870671Y-78180970D01*
X108847571Y-78189235D01*
X108823773Y-78195196D01*
X108799504Y-78198796D01*
X108775000Y-78200000D01*
X107525000Y-78200000D01*
X107500496Y-78198796D01*
X107476227Y-78195196D01*
X107452429Y-78189235D01*
X107429329Y-78180970D01*
X107407151Y-78170480D01*
X107386107Y-78157867D01*
X107366402Y-78143253D01*
X107348223Y-78126777D01*
X107331747Y-78108598D01*
X107317133Y-78088893D01*
X107304520Y-78067849D01*
X107294030Y-78045671D01*
X107285765Y-78022571D01*
X107279804Y-77998773D01*
X107276204Y-77974504D01*
X107275000Y-77950000D01*
X107275000Y-77200000D01*
X107276204Y-77175496D01*
X107279804Y-77151227D01*
X107285765Y-77127429D01*
X107294030Y-77104329D01*
X107304520Y-77082151D01*
X107317133Y-77061107D01*
X107331747Y-77041402D01*
X107348223Y-77023223D01*
X107366402Y-77006747D01*
X107386107Y-76992133D01*
X107407151Y-76979520D01*
X107429329Y-76969030D01*
X107452429Y-76960765D01*
X107476227Y-76954804D01*
X107500496Y-76951204D01*
X107525000Y-76950000D01*
X108775000Y-76950000D01*
X108799504Y-76951204D01*
X108799504Y-76951204D01*
G37*
D12*
X108150000Y-77575000D03*
D10*
G36*
X104877691Y-84676053D02*
G01*
X104898926Y-84679203D01*
X104919750Y-84684419D01*
X104939962Y-84691651D01*
X104959368Y-84700830D01*
X104977781Y-84711866D01*
X104995024Y-84724654D01*
X105010930Y-84739070D01*
X105025346Y-84754976D01*
X105038134Y-84772219D01*
X105049170Y-84790632D01*
X105058349Y-84810038D01*
X105065581Y-84830250D01*
X105070797Y-84851074D01*
X105073947Y-84872309D01*
X105075000Y-84893750D01*
X105075000Y-85331250D01*
X105073947Y-85352691D01*
X105070797Y-85373926D01*
X105065581Y-85394750D01*
X105058349Y-85414962D01*
X105049170Y-85434368D01*
X105038134Y-85452781D01*
X105025346Y-85470024D01*
X105010930Y-85485930D01*
X104995024Y-85500346D01*
X104977781Y-85513134D01*
X104959368Y-85524170D01*
X104939962Y-85533349D01*
X104919750Y-85540581D01*
X104898926Y-85545797D01*
X104877691Y-85548947D01*
X104856250Y-85550000D01*
X104343750Y-85550000D01*
X104322309Y-85548947D01*
X104301074Y-85545797D01*
X104280250Y-85540581D01*
X104260038Y-85533349D01*
X104240632Y-85524170D01*
X104222219Y-85513134D01*
X104204976Y-85500346D01*
X104189070Y-85485930D01*
X104174654Y-85470024D01*
X104161866Y-85452781D01*
X104150830Y-85434368D01*
X104141651Y-85414962D01*
X104134419Y-85394750D01*
X104129203Y-85373926D01*
X104126053Y-85352691D01*
X104125000Y-85331250D01*
X104125000Y-84893750D01*
X104126053Y-84872309D01*
X104129203Y-84851074D01*
X104134419Y-84830250D01*
X104141651Y-84810038D01*
X104150830Y-84790632D01*
X104161866Y-84772219D01*
X104174654Y-84754976D01*
X104189070Y-84739070D01*
X104204976Y-84724654D01*
X104222219Y-84711866D01*
X104240632Y-84700830D01*
X104260038Y-84691651D01*
X104280250Y-84684419D01*
X104301074Y-84679203D01*
X104322309Y-84676053D01*
X104343750Y-84675000D01*
X104856250Y-84675000D01*
X104877691Y-84676053D01*
X104877691Y-84676053D01*
G37*
D11*
X104600000Y-85112500D03*
D10*
G36*
X104877691Y-86251053D02*
G01*
X104898926Y-86254203D01*
X104919750Y-86259419D01*
X104939962Y-86266651D01*
X104959368Y-86275830D01*
X104977781Y-86286866D01*
X104995024Y-86299654D01*
X105010930Y-86314070D01*
X105025346Y-86329976D01*
X105038134Y-86347219D01*
X105049170Y-86365632D01*
X105058349Y-86385038D01*
X105065581Y-86405250D01*
X105070797Y-86426074D01*
X105073947Y-86447309D01*
X105075000Y-86468750D01*
X105075000Y-86906250D01*
X105073947Y-86927691D01*
X105070797Y-86948926D01*
X105065581Y-86969750D01*
X105058349Y-86989962D01*
X105049170Y-87009368D01*
X105038134Y-87027781D01*
X105025346Y-87045024D01*
X105010930Y-87060930D01*
X104995024Y-87075346D01*
X104977781Y-87088134D01*
X104959368Y-87099170D01*
X104939962Y-87108349D01*
X104919750Y-87115581D01*
X104898926Y-87120797D01*
X104877691Y-87123947D01*
X104856250Y-87125000D01*
X104343750Y-87125000D01*
X104322309Y-87123947D01*
X104301074Y-87120797D01*
X104280250Y-87115581D01*
X104260038Y-87108349D01*
X104240632Y-87099170D01*
X104222219Y-87088134D01*
X104204976Y-87075346D01*
X104189070Y-87060930D01*
X104174654Y-87045024D01*
X104161866Y-87027781D01*
X104150830Y-87009368D01*
X104141651Y-86989962D01*
X104134419Y-86969750D01*
X104129203Y-86948926D01*
X104126053Y-86927691D01*
X104125000Y-86906250D01*
X104125000Y-86468750D01*
X104126053Y-86447309D01*
X104129203Y-86426074D01*
X104134419Y-86405250D01*
X104141651Y-86385038D01*
X104150830Y-86365632D01*
X104161866Y-86347219D01*
X104174654Y-86329976D01*
X104189070Y-86314070D01*
X104204976Y-86299654D01*
X104222219Y-86286866D01*
X104240632Y-86275830D01*
X104260038Y-86266651D01*
X104280250Y-86259419D01*
X104301074Y-86254203D01*
X104322309Y-86251053D01*
X104343750Y-86250000D01*
X104856250Y-86250000D01*
X104877691Y-86251053D01*
X104877691Y-86251053D01*
G37*
D11*
X104600000Y-86687500D03*
D10*
G36*
X140777691Y-76776053D02*
G01*
X140798926Y-76779203D01*
X140819750Y-76784419D01*
X140839962Y-76791651D01*
X140859368Y-76800830D01*
X140877781Y-76811866D01*
X140895024Y-76824654D01*
X140910930Y-76839070D01*
X140925346Y-76854976D01*
X140938134Y-76872219D01*
X140949170Y-76890632D01*
X140958349Y-76910038D01*
X140965581Y-76930250D01*
X140970797Y-76951074D01*
X140973947Y-76972309D01*
X140975000Y-76993750D01*
X140975000Y-77431250D01*
X140973947Y-77452691D01*
X140970797Y-77473926D01*
X140965581Y-77494750D01*
X140958349Y-77514962D01*
X140949170Y-77534368D01*
X140938134Y-77552781D01*
X140925346Y-77570024D01*
X140910930Y-77585930D01*
X140895024Y-77600346D01*
X140877781Y-77613134D01*
X140859368Y-77624170D01*
X140839962Y-77633349D01*
X140819750Y-77640581D01*
X140798926Y-77645797D01*
X140777691Y-77648947D01*
X140756250Y-77650000D01*
X140243750Y-77650000D01*
X140222309Y-77648947D01*
X140201074Y-77645797D01*
X140180250Y-77640581D01*
X140160038Y-77633349D01*
X140140632Y-77624170D01*
X140122219Y-77613134D01*
X140104976Y-77600346D01*
X140089070Y-77585930D01*
X140074654Y-77570024D01*
X140061866Y-77552781D01*
X140050830Y-77534368D01*
X140041651Y-77514962D01*
X140034419Y-77494750D01*
X140029203Y-77473926D01*
X140026053Y-77452691D01*
X140025000Y-77431250D01*
X140025000Y-76993750D01*
X140026053Y-76972309D01*
X140029203Y-76951074D01*
X140034419Y-76930250D01*
X140041651Y-76910038D01*
X140050830Y-76890632D01*
X140061866Y-76872219D01*
X140074654Y-76854976D01*
X140089070Y-76839070D01*
X140104976Y-76824654D01*
X140122219Y-76811866D01*
X140140632Y-76800830D01*
X140160038Y-76791651D01*
X140180250Y-76784419D01*
X140201074Y-76779203D01*
X140222309Y-76776053D01*
X140243750Y-76775000D01*
X140756250Y-76775000D01*
X140777691Y-76776053D01*
X140777691Y-76776053D01*
G37*
D11*
X140500000Y-77212500D03*
D10*
G36*
X140777691Y-78351053D02*
G01*
X140798926Y-78354203D01*
X140819750Y-78359419D01*
X140839962Y-78366651D01*
X140859368Y-78375830D01*
X140877781Y-78386866D01*
X140895024Y-78399654D01*
X140910930Y-78414070D01*
X140925346Y-78429976D01*
X140938134Y-78447219D01*
X140949170Y-78465632D01*
X140958349Y-78485038D01*
X140965581Y-78505250D01*
X140970797Y-78526074D01*
X140973947Y-78547309D01*
X140975000Y-78568750D01*
X140975000Y-79006250D01*
X140973947Y-79027691D01*
X140970797Y-79048926D01*
X140965581Y-79069750D01*
X140958349Y-79089962D01*
X140949170Y-79109368D01*
X140938134Y-79127781D01*
X140925346Y-79145024D01*
X140910930Y-79160930D01*
X140895024Y-79175346D01*
X140877781Y-79188134D01*
X140859368Y-79199170D01*
X140839962Y-79208349D01*
X140819750Y-79215581D01*
X140798926Y-79220797D01*
X140777691Y-79223947D01*
X140756250Y-79225000D01*
X140243750Y-79225000D01*
X140222309Y-79223947D01*
X140201074Y-79220797D01*
X140180250Y-79215581D01*
X140160038Y-79208349D01*
X140140632Y-79199170D01*
X140122219Y-79188134D01*
X140104976Y-79175346D01*
X140089070Y-79160930D01*
X140074654Y-79145024D01*
X140061866Y-79127781D01*
X140050830Y-79109368D01*
X140041651Y-79089962D01*
X140034419Y-79069750D01*
X140029203Y-79048926D01*
X140026053Y-79027691D01*
X140025000Y-79006250D01*
X140025000Y-78568750D01*
X140026053Y-78547309D01*
X140029203Y-78526074D01*
X140034419Y-78505250D01*
X140041651Y-78485038D01*
X140050830Y-78465632D01*
X140061866Y-78447219D01*
X140074654Y-78429976D01*
X140089070Y-78414070D01*
X140104976Y-78399654D01*
X140122219Y-78386866D01*
X140140632Y-78375830D01*
X140160038Y-78366651D01*
X140180250Y-78359419D01*
X140201074Y-78354203D01*
X140222309Y-78351053D01*
X140243750Y-78350000D01*
X140756250Y-78350000D01*
X140777691Y-78351053D01*
X140777691Y-78351053D01*
G37*
D11*
X140500000Y-78787500D03*
D10*
G36*
X119177691Y-64326053D02*
G01*
X119198926Y-64329203D01*
X119219750Y-64334419D01*
X119239962Y-64341651D01*
X119259368Y-64350830D01*
X119277781Y-64361866D01*
X119295024Y-64374654D01*
X119310930Y-64389070D01*
X119325346Y-64404976D01*
X119338134Y-64422219D01*
X119349170Y-64440632D01*
X119358349Y-64460038D01*
X119365581Y-64480250D01*
X119370797Y-64501074D01*
X119373947Y-64522309D01*
X119375000Y-64543750D01*
X119375000Y-64981250D01*
X119373947Y-65002691D01*
X119370797Y-65023926D01*
X119365581Y-65044750D01*
X119358349Y-65064962D01*
X119349170Y-65084368D01*
X119338134Y-65102781D01*
X119325346Y-65120024D01*
X119310930Y-65135930D01*
X119295024Y-65150346D01*
X119277781Y-65163134D01*
X119259368Y-65174170D01*
X119239962Y-65183349D01*
X119219750Y-65190581D01*
X119198926Y-65195797D01*
X119177691Y-65198947D01*
X119156250Y-65200000D01*
X118643750Y-65200000D01*
X118622309Y-65198947D01*
X118601074Y-65195797D01*
X118580250Y-65190581D01*
X118560038Y-65183349D01*
X118540632Y-65174170D01*
X118522219Y-65163134D01*
X118504976Y-65150346D01*
X118489070Y-65135930D01*
X118474654Y-65120024D01*
X118461866Y-65102781D01*
X118450830Y-65084368D01*
X118441651Y-65064962D01*
X118434419Y-65044750D01*
X118429203Y-65023926D01*
X118426053Y-65002691D01*
X118425000Y-64981250D01*
X118425000Y-64543750D01*
X118426053Y-64522309D01*
X118429203Y-64501074D01*
X118434419Y-64480250D01*
X118441651Y-64460038D01*
X118450830Y-64440632D01*
X118461866Y-64422219D01*
X118474654Y-64404976D01*
X118489070Y-64389070D01*
X118504976Y-64374654D01*
X118522219Y-64361866D01*
X118540632Y-64350830D01*
X118560038Y-64341651D01*
X118580250Y-64334419D01*
X118601074Y-64329203D01*
X118622309Y-64326053D01*
X118643750Y-64325000D01*
X119156250Y-64325000D01*
X119177691Y-64326053D01*
X119177691Y-64326053D01*
G37*
D11*
X118900000Y-64762500D03*
D10*
G36*
X119177691Y-65901053D02*
G01*
X119198926Y-65904203D01*
X119219750Y-65909419D01*
X119239962Y-65916651D01*
X119259368Y-65925830D01*
X119277781Y-65936866D01*
X119295024Y-65949654D01*
X119310930Y-65964070D01*
X119325346Y-65979976D01*
X119338134Y-65997219D01*
X119349170Y-66015632D01*
X119358349Y-66035038D01*
X119365581Y-66055250D01*
X119370797Y-66076074D01*
X119373947Y-66097309D01*
X119375000Y-66118750D01*
X119375000Y-66556250D01*
X119373947Y-66577691D01*
X119370797Y-66598926D01*
X119365581Y-66619750D01*
X119358349Y-66639962D01*
X119349170Y-66659368D01*
X119338134Y-66677781D01*
X119325346Y-66695024D01*
X119310930Y-66710930D01*
X119295024Y-66725346D01*
X119277781Y-66738134D01*
X119259368Y-66749170D01*
X119239962Y-66758349D01*
X119219750Y-66765581D01*
X119198926Y-66770797D01*
X119177691Y-66773947D01*
X119156250Y-66775000D01*
X118643750Y-66775000D01*
X118622309Y-66773947D01*
X118601074Y-66770797D01*
X118580250Y-66765581D01*
X118560038Y-66758349D01*
X118540632Y-66749170D01*
X118522219Y-66738134D01*
X118504976Y-66725346D01*
X118489070Y-66710930D01*
X118474654Y-66695024D01*
X118461866Y-66677781D01*
X118450830Y-66659368D01*
X118441651Y-66639962D01*
X118434419Y-66619750D01*
X118429203Y-66598926D01*
X118426053Y-66577691D01*
X118425000Y-66556250D01*
X118425000Y-66118750D01*
X118426053Y-66097309D01*
X118429203Y-66076074D01*
X118434419Y-66055250D01*
X118441651Y-66035038D01*
X118450830Y-66015632D01*
X118461866Y-65997219D01*
X118474654Y-65979976D01*
X118489070Y-65964070D01*
X118504976Y-65949654D01*
X118522219Y-65936866D01*
X118540632Y-65925830D01*
X118560038Y-65916651D01*
X118580250Y-65909419D01*
X118601074Y-65904203D01*
X118622309Y-65901053D01*
X118643750Y-65900000D01*
X119156250Y-65900000D01*
X119177691Y-65901053D01*
X119177691Y-65901053D01*
G37*
D11*
X118900000Y-66337500D03*
D10*
G36*
X134777691Y-78351053D02*
G01*
X134798926Y-78354203D01*
X134819750Y-78359419D01*
X134839962Y-78366651D01*
X134859368Y-78375830D01*
X134877781Y-78386866D01*
X134895024Y-78399654D01*
X134910930Y-78414070D01*
X134925346Y-78429976D01*
X134938134Y-78447219D01*
X134949170Y-78465632D01*
X134958349Y-78485038D01*
X134965581Y-78505250D01*
X134970797Y-78526074D01*
X134973947Y-78547309D01*
X134975000Y-78568750D01*
X134975000Y-79006250D01*
X134973947Y-79027691D01*
X134970797Y-79048926D01*
X134965581Y-79069750D01*
X134958349Y-79089962D01*
X134949170Y-79109368D01*
X134938134Y-79127781D01*
X134925346Y-79145024D01*
X134910930Y-79160930D01*
X134895024Y-79175346D01*
X134877781Y-79188134D01*
X134859368Y-79199170D01*
X134839962Y-79208349D01*
X134819750Y-79215581D01*
X134798926Y-79220797D01*
X134777691Y-79223947D01*
X134756250Y-79225000D01*
X134243750Y-79225000D01*
X134222309Y-79223947D01*
X134201074Y-79220797D01*
X134180250Y-79215581D01*
X134160038Y-79208349D01*
X134140632Y-79199170D01*
X134122219Y-79188134D01*
X134104976Y-79175346D01*
X134089070Y-79160930D01*
X134074654Y-79145024D01*
X134061866Y-79127781D01*
X134050830Y-79109368D01*
X134041651Y-79089962D01*
X134034419Y-79069750D01*
X134029203Y-79048926D01*
X134026053Y-79027691D01*
X134025000Y-79006250D01*
X134025000Y-78568750D01*
X134026053Y-78547309D01*
X134029203Y-78526074D01*
X134034419Y-78505250D01*
X134041651Y-78485038D01*
X134050830Y-78465632D01*
X134061866Y-78447219D01*
X134074654Y-78429976D01*
X134089070Y-78414070D01*
X134104976Y-78399654D01*
X134122219Y-78386866D01*
X134140632Y-78375830D01*
X134160038Y-78366651D01*
X134180250Y-78359419D01*
X134201074Y-78354203D01*
X134222309Y-78351053D01*
X134243750Y-78350000D01*
X134756250Y-78350000D01*
X134777691Y-78351053D01*
X134777691Y-78351053D01*
G37*
D11*
X134500000Y-78787500D03*
D10*
G36*
X134777691Y-76776053D02*
G01*
X134798926Y-76779203D01*
X134819750Y-76784419D01*
X134839962Y-76791651D01*
X134859368Y-76800830D01*
X134877781Y-76811866D01*
X134895024Y-76824654D01*
X134910930Y-76839070D01*
X134925346Y-76854976D01*
X134938134Y-76872219D01*
X134949170Y-76890632D01*
X134958349Y-76910038D01*
X134965581Y-76930250D01*
X134970797Y-76951074D01*
X134973947Y-76972309D01*
X134975000Y-76993750D01*
X134975000Y-77431250D01*
X134973947Y-77452691D01*
X134970797Y-77473926D01*
X134965581Y-77494750D01*
X134958349Y-77514962D01*
X134949170Y-77534368D01*
X134938134Y-77552781D01*
X134925346Y-77570024D01*
X134910930Y-77585930D01*
X134895024Y-77600346D01*
X134877781Y-77613134D01*
X134859368Y-77624170D01*
X134839962Y-77633349D01*
X134819750Y-77640581D01*
X134798926Y-77645797D01*
X134777691Y-77648947D01*
X134756250Y-77650000D01*
X134243750Y-77650000D01*
X134222309Y-77648947D01*
X134201074Y-77645797D01*
X134180250Y-77640581D01*
X134160038Y-77633349D01*
X134140632Y-77624170D01*
X134122219Y-77613134D01*
X134104976Y-77600346D01*
X134089070Y-77585930D01*
X134074654Y-77570024D01*
X134061866Y-77552781D01*
X134050830Y-77534368D01*
X134041651Y-77514962D01*
X134034419Y-77494750D01*
X134029203Y-77473926D01*
X134026053Y-77452691D01*
X134025000Y-77431250D01*
X134025000Y-76993750D01*
X134026053Y-76972309D01*
X134029203Y-76951074D01*
X134034419Y-76930250D01*
X134041651Y-76910038D01*
X134050830Y-76890632D01*
X134061866Y-76872219D01*
X134074654Y-76854976D01*
X134089070Y-76839070D01*
X134104976Y-76824654D01*
X134122219Y-76811866D01*
X134140632Y-76800830D01*
X134160038Y-76791651D01*
X134180250Y-76784419D01*
X134201074Y-76779203D01*
X134222309Y-76776053D01*
X134243750Y-76775000D01*
X134756250Y-76775000D01*
X134777691Y-76776053D01*
X134777691Y-76776053D01*
G37*
D11*
X134500000Y-77212500D03*
D10*
G36*
X119177691Y-70301053D02*
G01*
X119198926Y-70304203D01*
X119219750Y-70309419D01*
X119239962Y-70316651D01*
X119259368Y-70325830D01*
X119277781Y-70336866D01*
X119295024Y-70349654D01*
X119310930Y-70364070D01*
X119325346Y-70379976D01*
X119338134Y-70397219D01*
X119349170Y-70415632D01*
X119358349Y-70435038D01*
X119365581Y-70455250D01*
X119370797Y-70476074D01*
X119373947Y-70497309D01*
X119375000Y-70518750D01*
X119375000Y-70956250D01*
X119373947Y-70977691D01*
X119370797Y-70998926D01*
X119365581Y-71019750D01*
X119358349Y-71039962D01*
X119349170Y-71059368D01*
X119338134Y-71077781D01*
X119325346Y-71095024D01*
X119310930Y-71110930D01*
X119295024Y-71125346D01*
X119277781Y-71138134D01*
X119259368Y-71149170D01*
X119239962Y-71158349D01*
X119219750Y-71165581D01*
X119198926Y-71170797D01*
X119177691Y-71173947D01*
X119156250Y-71175000D01*
X118643750Y-71175000D01*
X118622309Y-71173947D01*
X118601074Y-71170797D01*
X118580250Y-71165581D01*
X118560038Y-71158349D01*
X118540632Y-71149170D01*
X118522219Y-71138134D01*
X118504976Y-71125346D01*
X118489070Y-71110930D01*
X118474654Y-71095024D01*
X118461866Y-71077781D01*
X118450830Y-71059368D01*
X118441651Y-71039962D01*
X118434419Y-71019750D01*
X118429203Y-70998926D01*
X118426053Y-70977691D01*
X118425000Y-70956250D01*
X118425000Y-70518750D01*
X118426053Y-70497309D01*
X118429203Y-70476074D01*
X118434419Y-70455250D01*
X118441651Y-70435038D01*
X118450830Y-70415632D01*
X118461866Y-70397219D01*
X118474654Y-70379976D01*
X118489070Y-70364070D01*
X118504976Y-70349654D01*
X118522219Y-70336866D01*
X118540632Y-70325830D01*
X118560038Y-70316651D01*
X118580250Y-70309419D01*
X118601074Y-70304203D01*
X118622309Y-70301053D01*
X118643750Y-70300000D01*
X119156250Y-70300000D01*
X119177691Y-70301053D01*
X119177691Y-70301053D01*
G37*
D11*
X118900000Y-70737500D03*
D10*
G36*
X119177691Y-68726053D02*
G01*
X119198926Y-68729203D01*
X119219750Y-68734419D01*
X119239962Y-68741651D01*
X119259368Y-68750830D01*
X119277781Y-68761866D01*
X119295024Y-68774654D01*
X119310930Y-68789070D01*
X119325346Y-68804976D01*
X119338134Y-68822219D01*
X119349170Y-68840632D01*
X119358349Y-68860038D01*
X119365581Y-68880250D01*
X119370797Y-68901074D01*
X119373947Y-68922309D01*
X119375000Y-68943750D01*
X119375000Y-69381250D01*
X119373947Y-69402691D01*
X119370797Y-69423926D01*
X119365581Y-69444750D01*
X119358349Y-69464962D01*
X119349170Y-69484368D01*
X119338134Y-69502781D01*
X119325346Y-69520024D01*
X119310930Y-69535930D01*
X119295024Y-69550346D01*
X119277781Y-69563134D01*
X119259368Y-69574170D01*
X119239962Y-69583349D01*
X119219750Y-69590581D01*
X119198926Y-69595797D01*
X119177691Y-69598947D01*
X119156250Y-69600000D01*
X118643750Y-69600000D01*
X118622309Y-69598947D01*
X118601074Y-69595797D01*
X118580250Y-69590581D01*
X118560038Y-69583349D01*
X118540632Y-69574170D01*
X118522219Y-69563134D01*
X118504976Y-69550346D01*
X118489070Y-69535930D01*
X118474654Y-69520024D01*
X118461866Y-69502781D01*
X118450830Y-69484368D01*
X118441651Y-69464962D01*
X118434419Y-69444750D01*
X118429203Y-69423926D01*
X118426053Y-69402691D01*
X118425000Y-69381250D01*
X118425000Y-68943750D01*
X118426053Y-68922309D01*
X118429203Y-68901074D01*
X118434419Y-68880250D01*
X118441651Y-68860038D01*
X118450830Y-68840632D01*
X118461866Y-68822219D01*
X118474654Y-68804976D01*
X118489070Y-68789070D01*
X118504976Y-68774654D01*
X118522219Y-68761866D01*
X118540632Y-68750830D01*
X118560038Y-68741651D01*
X118580250Y-68734419D01*
X118601074Y-68729203D01*
X118622309Y-68726053D01*
X118643750Y-68725000D01*
X119156250Y-68725000D01*
X119177691Y-68726053D01*
X119177691Y-68726053D01*
G37*
D11*
X118900000Y-69162500D03*
D10*
G36*
X121419504Y-106476204D02*
G01*
X121443773Y-106479804D01*
X121467571Y-106485765D01*
X121490671Y-106494030D01*
X121512849Y-106504520D01*
X121533893Y-106517133D01*
X121553598Y-106531747D01*
X121571777Y-106548223D01*
X121588253Y-106566402D01*
X121602867Y-106586107D01*
X121615480Y-106607151D01*
X121625970Y-106629329D01*
X121634235Y-106652429D01*
X121640196Y-106676227D01*
X121643796Y-106700496D01*
X121645000Y-106725000D01*
X121645000Y-107475000D01*
X121643796Y-107499504D01*
X121640196Y-107523773D01*
X121634235Y-107547571D01*
X121625970Y-107570671D01*
X121615480Y-107592849D01*
X121602867Y-107613893D01*
X121588253Y-107633598D01*
X121571777Y-107651777D01*
X121553598Y-107668253D01*
X121533893Y-107682867D01*
X121512849Y-107695480D01*
X121490671Y-107705970D01*
X121467571Y-107714235D01*
X121443773Y-107720196D01*
X121419504Y-107723796D01*
X121395000Y-107725000D01*
X120145000Y-107725000D01*
X120120496Y-107723796D01*
X120096227Y-107720196D01*
X120072429Y-107714235D01*
X120049329Y-107705970D01*
X120027151Y-107695480D01*
X120006107Y-107682867D01*
X119986402Y-107668253D01*
X119968223Y-107651777D01*
X119951747Y-107633598D01*
X119937133Y-107613893D01*
X119924520Y-107592849D01*
X119914030Y-107570671D01*
X119905765Y-107547571D01*
X119899804Y-107523773D01*
X119896204Y-107499504D01*
X119895000Y-107475000D01*
X119895000Y-106725000D01*
X119896204Y-106700496D01*
X119899804Y-106676227D01*
X119905765Y-106652429D01*
X119914030Y-106629329D01*
X119924520Y-106607151D01*
X119937133Y-106586107D01*
X119951747Y-106566402D01*
X119968223Y-106548223D01*
X119986402Y-106531747D01*
X120006107Y-106517133D01*
X120027151Y-106504520D01*
X120049329Y-106494030D01*
X120072429Y-106485765D01*
X120096227Y-106479804D01*
X120120496Y-106476204D01*
X120145000Y-106475000D01*
X121395000Y-106475000D01*
X121419504Y-106476204D01*
X121419504Y-106476204D01*
G37*
D12*
X120770000Y-107100000D03*
D10*
G36*
X121419504Y-109276204D02*
G01*
X121443773Y-109279804D01*
X121467571Y-109285765D01*
X121490671Y-109294030D01*
X121512849Y-109304520D01*
X121533893Y-109317133D01*
X121553598Y-109331747D01*
X121571777Y-109348223D01*
X121588253Y-109366402D01*
X121602867Y-109386107D01*
X121615480Y-109407151D01*
X121625970Y-109429329D01*
X121634235Y-109452429D01*
X121640196Y-109476227D01*
X121643796Y-109500496D01*
X121645000Y-109525000D01*
X121645000Y-110275000D01*
X121643796Y-110299504D01*
X121640196Y-110323773D01*
X121634235Y-110347571D01*
X121625970Y-110370671D01*
X121615480Y-110392849D01*
X121602867Y-110413893D01*
X121588253Y-110433598D01*
X121571777Y-110451777D01*
X121553598Y-110468253D01*
X121533893Y-110482867D01*
X121512849Y-110495480D01*
X121490671Y-110505970D01*
X121467571Y-110514235D01*
X121443773Y-110520196D01*
X121419504Y-110523796D01*
X121395000Y-110525000D01*
X120145000Y-110525000D01*
X120120496Y-110523796D01*
X120096227Y-110520196D01*
X120072429Y-110514235D01*
X120049329Y-110505970D01*
X120027151Y-110495480D01*
X120006107Y-110482867D01*
X119986402Y-110468253D01*
X119968223Y-110451777D01*
X119951747Y-110433598D01*
X119937133Y-110413893D01*
X119924520Y-110392849D01*
X119914030Y-110370671D01*
X119905765Y-110347571D01*
X119899804Y-110323773D01*
X119896204Y-110299504D01*
X119895000Y-110275000D01*
X119895000Y-109525000D01*
X119896204Y-109500496D01*
X119899804Y-109476227D01*
X119905765Y-109452429D01*
X119914030Y-109429329D01*
X119924520Y-109407151D01*
X119937133Y-109386107D01*
X119951747Y-109366402D01*
X119968223Y-109348223D01*
X119986402Y-109331747D01*
X120006107Y-109317133D01*
X120027151Y-109304520D01*
X120049329Y-109294030D01*
X120072429Y-109285765D01*
X120096227Y-109279804D01*
X120120496Y-109276204D01*
X120145000Y-109275000D01*
X121395000Y-109275000D01*
X121419504Y-109276204D01*
X121419504Y-109276204D01*
G37*
D12*
X120770000Y-109900000D03*
D10*
G36*
X107419504Y-106476204D02*
G01*
X107443773Y-106479804D01*
X107467571Y-106485765D01*
X107490671Y-106494030D01*
X107512849Y-106504520D01*
X107533893Y-106517133D01*
X107553598Y-106531747D01*
X107571777Y-106548223D01*
X107588253Y-106566402D01*
X107602867Y-106586107D01*
X107615480Y-106607151D01*
X107625970Y-106629329D01*
X107634235Y-106652429D01*
X107640196Y-106676227D01*
X107643796Y-106700496D01*
X107645000Y-106725000D01*
X107645000Y-107475000D01*
X107643796Y-107499504D01*
X107640196Y-107523773D01*
X107634235Y-107547571D01*
X107625970Y-107570671D01*
X107615480Y-107592849D01*
X107602867Y-107613893D01*
X107588253Y-107633598D01*
X107571777Y-107651777D01*
X107553598Y-107668253D01*
X107533893Y-107682867D01*
X107512849Y-107695480D01*
X107490671Y-107705970D01*
X107467571Y-107714235D01*
X107443773Y-107720196D01*
X107419504Y-107723796D01*
X107395000Y-107725000D01*
X106145000Y-107725000D01*
X106120496Y-107723796D01*
X106096227Y-107720196D01*
X106072429Y-107714235D01*
X106049329Y-107705970D01*
X106027151Y-107695480D01*
X106006107Y-107682867D01*
X105986402Y-107668253D01*
X105968223Y-107651777D01*
X105951747Y-107633598D01*
X105937133Y-107613893D01*
X105924520Y-107592849D01*
X105914030Y-107570671D01*
X105905765Y-107547571D01*
X105899804Y-107523773D01*
X105896204Y-107499504D01*
X105895000Y-107475000D01*
X105895000Y-106725000D01*
X105896204Y-106700496D01*
X105899804Y-106676227D01*
X105905765Y-106652429D01*
X105914030Y-106629329D01*
X105924520Y-106607151D01*
X105937133Y-106586107D01*
X105951747Y-106566402D01*
X105968223Y-106548223D01*
X105986402Y-106531747D01*
X106006107Y-106517133D01*
X106027151Y-106504520D01*
X106049329Y-106494030D01*
X106072429Y-106485765D01*
X106096227Y-106479804D01*
X106120496Y-106476204D01*
X106145000Y-106475000D01*
X107395000Y-106475000D01*
X107419504Y-106476204D01*
X107419504Y-106476204D01*
G37*
D12*
X106770000Y-107100000D03*
D10*
G36*
X107419504Y-109276204D02*
G01*
X107443773Y-109279804D01*
X107467571Y-109285765D01*
X107490671Y-109294030D01*
X107512849Y-109304520D01*
X107533893Y-109317133D01*
X107553598Y-109331747D01*
X107571777Y-109348223D01*
X107588253Y-109366402D01*
X107602867Y-109386107D01*
X107615480Y-109407151D01*
X107625970Y-109429329D01*
X107634235Y-109452429D01*
X107640196Y-109476227D01*
X107643796Y-109500496D01*
X107645000Y-109525000D01*
X107645000Y-110275000D01*
X107643796Y-110299504D01*
X107640196Y-110323773D01*
X107634235Y-110347571D01*
X107625970Y-110370671D01*
X107615480Y-110392849D01*
X107602867Y-110413893D01*
X107588253Y-110433598D01*
X107571777Y-110451777D01*
X107553598Y-110468253D01*
X107533893Y-110482867D01*
X107512849Y-110495480D01*
X107490671Y-110505970D01*
X107467571Y-110514235D01*
X107443773Y-110520196D01*
X107419504Y-110523796D01*
X107395000Y-110525000D01*
X106145000Y-110525000D01*
X106120496Y-110523796D01*
X106096227Y-110520196D01*
X106072429Y-110514235D01*
X106049329Y-110505970D01*
X106027151Y-110495480D01*
X106006107Y-110482867D01*
X105986402Y-110468253D01*
X105968223Y-110451777D01*
X105951747Y-110433598D01*
X105937133Y-110413893D01*
X105924520Y-110392849D01*
X105914030Y-110370671D01*
X105905765Y-110347571D01*
X105899804Y-110323773D01*
X105896204Y-110299504D01*
X105895000Y-110275000D01*
X105895000Y-109525000D01*
X105896204Y-109500496D01*
X105899804Y-109476227D01*
X105905765Y-109452429D01*
X105914030Y-109429329D01*
X105924520Y-109407151D01*
X105937133Y-109386107D01*
X105951747Y-109366402D01*
X105968223Y-109348223D01*
X105986402Y-109331747D01*
X106006107Y-109317133D01*
X106027151Y-109304520D01*
X106049329Y-109294030D01*
X106072429Y-109285765D01*
X106096227Y-109279804D01*
X106120496Y-109276204D01*
X106145000Y-109275000D01*
X107395000Y-109275000D01*
X107419504Y-109276204D01*
X107419504Y-109276204D01*
G37*
D12*
X106770000Y-109900000D03*
D10*
G36*
X93419504Y-106476204D02*
G01*
X93443773Y-106479804D01*
X93467571Y-106485765D01*
X93490671Y-106494030D01*
X93512849Y-106504520D01*
X93533893Y-106517133D01*
X93553598Y-106531747D01*
X93571777Y-106548223D01*
X93588253Y-106566402D01*
X93602867Y-106586107D01*
X93615480Y-106607151D01*
X93625970Y-106629329D01*
X93634235Y-106652429D01*
X93640196Y-106676227D01*
X93643796Y-106700496D01*
X93645000Y-106725000D01*
X93645000Y-107475000D01*
X93643796Y-107499504D01*
X93640196Y-107523773D01*
X93634235Y-107547571D01*
X93625970Y-107570671D01*
X93615480Y-107592849D01*
X93602867Y-107613893D01*
X93588253Y-107633598D01*
X93571777Y-107651777D01*
X93553598Y-107668253D01*
X93533893Y-107682867D01*
X93512849Y-107695480D01*
X93490671Y-107705970D01*
X93467571Y-107714235D01*
X93443773Y-107720196D01*
X93419504Y-107723796D01*
X93395000Y-107725000D01*
X92145000Y-107725000D01*
X92120496Y-107723796D01*
X92096227Y-107720196D01*
X92072429Y-107714235D01*
X92049329Y-107705970D01*
X92027151Y-107695480D01*
X92006107Y-107682867D01*
X91986402Y-107668253D01*
X91968223Y-107651777D01*
X91951747Y-107633598D01*
X91937133Y-107613893D01*
X91924520Y-107592849D01*
X91914030Y-107570671D01*
X91905765Y-107547571D01*
X91899804Y-107523773D01*
X91896204Y-107499504D01*
X91895000Y-107475000D01*
X91895000Y-106725000D01*
X91896204Y-106700496D01*
X91899804Y-106676227D01*
X91905765Y-106652429D01*
X91914030Y-106629329D01*
X91924520Y-106607151D01*
X91937133Y-106586107D01*
X91951747Y-106566402D01*
X91968223Y-106548223D01*
X91986402Y-106531747D01*
X92006107Y-106517133D01*
X92027151Y-106504520D01*
X92049329Y-106494030D01*
X92072429Y-106485765D01*
X92096227Y-106479804D01*
X92120496Y-106476204D01*
X92145000Y-106475000D01*
X93395000Y-106475000D01*
X93419504Y-106476204D01*
X93419504Y-106476204D01*
G37*
D12*
X92770000Y-107100000D03*
D10*
G36*
X93419504Y-109276204D02*
G01*
X93443773Y-109279804D01*
X93467571Y-109285765D01*
X93490671Y-109294030D01*
X93512849Y-109304520D01*
X93533893Y-109317133D01*
X93553598Y-109331747D01*
X93571777Y-109348223D01*
X93588253Y-109366402D01*
X93602867Y-109386107D01*
X93615480Y-109407151D01*
X93625970Y-109429329D01*
X93634235Y-109452429D01*
X93640196Y-109476227D01*
X93643796Y-109500496D01*
X93645000Y-109525000D01*
X93645000Y-110275000D01*
X93643796Y-110299504D01*
X93640196Y-110323773D01*
X93634235Y-110347571D01*
X93625970Y-110370671D01*
X93615480Y-110392849D01*
X93602867Y-110413893D01*
X93588253Y-110433598D01*
X93571777Y-110451777D01*
X93553598Y-110468253D01*
X93533893Y-110482867D01*
X93512849Y-110495480D01*
X93490671Y-110505970D01*
X93467571Y-110514235D01*
X93443773Y-110520196D01*
X93419504Y-110523796D01*
X93395000Y-110525000D01*
X92145000Y-110525000D01*
X92120496Y-110523796D01*
X92096227Y-110520196D01*
X92072429Y-110514235D01*
X92049329Y-110505970D01*
X92027151Y-110495480D01*
X92006107Y-110482867D01*
X91986402Y-110468253D01*
X91968223Y-110451777D01*
X91951747Y-110433598D01*
X91937133Y-110413893D01*
X91924520Y-110392849D01*
X91914030Y-110370671D01*
X91905765Y-110347571D01*
X91899804Y-110323773D01*
X91896204Y-110299504D01*
X91895000Y-110275000D01*
X91895000Y-109525000D01*
X91896204Y-109500496D01*
X91899804Y-109476227D01*
X91905765Y-109452429D01*
X91914030Y-109429329D01*
X91924520Y-109407151D01*
X91937133Y-109386107D01*
X91951747Y-109366402D01*
X91968223Y-109348223D01*
X91986402Y-109331747D01*
X92006107Y-109317133D01*
X92027151Y-109304520D01*
X92049329Y-109294030D01*
X92072429Y-109285765D01*
X92096227Y-109279804D01*
X92120496Y-109276204D01*
X92145000Y-109275000D01*
X93395000Y-109275000D01*
X93419504Y-109276204D01*
X93419504Y-109276204D01*
G37*
D12*
X92770000Y-109900000D03*
D10*
G36*
X138149504Y-99276204D02*
G01*
X138173773Y-99279804D01*
X138197571Y-99285765D01*
X138220671Y-99294030D01*
X138242849Y-99304520D01*
X138263893Y-99317133D01*
X138283598Y-99331747D01*
X138301777Y-99348223D01*
X138318253Y-99366402D01*
X138332867Y-99386107D01*
X138345480Y-99407151D01*
X138355970Y-99429329D01*
X138364235Y-99452429D01*
X138370196Y-99476227D01*
X138373796Y-99500496D01*
X138375000Y-99525000D01*
X138375000Y-100275000D01*
X138373796Y-100299504D01*
X138370196Y-100323773D01*
X138364235Y-100347571D01*
X138355970Y-100370671D01*
X138345480Y-100392849D01*
X138332867Y-100413893D01*
X138318253Y-100433598D01*
X138301777Y-100451777D01*
X138283598Y-100468253D01*
X138263893Y-100482867D01*
X138242849Y-100495480D01*
X138220671Y-100505970D01*
X138197571Y-100514235D01*
X138173773Y-100520196D01*
X138149504Y-100523796D01*
X138125000Y-100525000D01*
X136875000Y-100525000D01*
X136850496Y-100523796D01*
X136826227Y-100520196D01*
X136802429Y-100514235D01*
X136779329Y-100505970D01*
X136757151Y-100495480D01*
X136736107Y-100482867D01*
X136716402Y-100468253D01*
X136698223Y-100451777D01*
X136681747Y-100433598D01*
X136667133Y-100413893D01*
X136654520Y-100392849D01*
X136644030Y-100370671D01*
X136635765Y-100347571D01*
X136629804Y-100323773D01*
X136626204Y-100299504D01*
X136625000Y-100275000D01*
X136625000Y-99525000D01*
X136626204Y-99500496D01*
X136629804Y-99476227D01*
X136635765Y-99452429D01*
X136644030Y-99429329D01*
X136654520Y-99407151D01*
X136667133Y-99386107D01*
X136681747Y-99366402D01*
X136698223Y-99348223D01*
X136716402Y-99331747D01*
X136736107Y-99317133D01*
X136757151Y-99304520D01*
X136779329Y-99294030D01*
X136802429Y-99285765D01*
X136826227Y-99279804D01*
X136850496Y-99276204D01*
X136875000Y-99275000D01*
X138125000Y-99275000D01*
X138149504Y-99276204D01*
X138149504Y-99276204D01*
G37*
D12*
X137500000Y-99900000D03*
D10*
G36*
X138149504Y-96476204D02*
G01*
X138173773Y-96479804D01*
X138197571Y-96485765D01*
X138220671Y-96494030D01*
X138242849Y-96504520D01*
X138263893Y-96517133D01*
X138283598Y-96531747D01*
X138301777Y-96548223D01*
X138318253Y-96566402D01*
X138332867Y-96586107D01*
X138345480Y-96607151D01*
X138355970Y-96629329D01*
X138364235Y-96652429D01*
X138370196Y-96676227D01*
X138373796Y-96700496D01*
X138375000Y-96725000D01*
X138375000Y-97475000D01*
X138373796Y-97499504D01*
X138370196Y-97523773D01*
X138364235Y-97547571D01*
X138355970Y-97570671D01*
X138345480Y-97592849D01*
X138332867Y-97613893D01*
X138318253Y-97633598D01*
X138301777Y-97651777D01*
X138283598Y-97668253D01*
X138263893Y-97682867D01*
X138242849Y-97695480D01*
X138220671Y-97705970D01*
X138197571Y-97714235D01*
X138173773Y-97720196D01*
X138149504Y-97723796D01*
X138125000Y-97725000D01*
X136875000Y-97725000D01*
X136850496Y-97723796D01*
X136826227Y-97720196D01*
X136802429Y-97714235D01*
X136779329Y-97705970D01*
X136757151Y-97695480D01*
X136736107Y-97682867D01*
X136716402Y-97668253D01*
X136698223Y-97651777D01*
X136681747Y-97633598D01*
X136667133Y-97613893D01*
X136654520Y-97592849D01*
X136644030Y-97570671D01*
X136635765Y-97547571D01*
X136629804Y-97523773D01*
X136626204Y-97499504D01*
X136625000Y-97475000D01*
X136625000Y-96725000D01*
X136626204Y-96700496D01*
X136629804Y-96676227D01*
X136635765Y-96652429D01*
X136644030Y-96629329D01*
X136654520Y-96607151D01*
X136667133Y-96586107D01*
X136681747Y-96566402D01*
X136698223Y-96548223D01*
X136716402Y-96531747D01*
X136736107Y-96517133D01*
X136757151Y-96504520D01*
X136779329Y-96494030D01*
X136802429Y-96485765D01*
X136826227Y-96479804D01*
X136850496Y-96476204D01*
X136875000Y-96475000D01*
X138125000Y-96475000D01*
X138149504Y-96476204D01*
X138149504Y-96476204D01*
G37*
D12*
X137500000Y-97100000D03*
D10*
G36*
X124149504Y-99276204D02*
G01*
X124173773Y-99279804D01*
X124197571Y-99285765D01*
X124220671Y-99294030D01*
X124242849Y-99304520D01*
X124263893Y-99317133D01*
X124283598Y-99331747D01*
X124301777Y-99348223D01*
X124318253Y-99366402D01*
X124332867Y-99386107D01*
X124345480Y-99407151D01*
X124355970Y-99429329D01*
X124364235Y-99452429D01*
X124370196Y-99476227D01*
X124373796Y-99500496D01*
X124375000Y-99525000D01*
X124375000Y-100275000D01*
X124373796Y-100299504D01*
X124370196Y-100323773D01*
X124364235Y-100347571D01*
X124355970Y-100370671D01*
X124345480Y-100392849D01*
X124332867Y-100413893D01*
X124318253Y-100433598D01*
X124301777Y-100451777D01*
X124283598Y-100468253D01*
X124263893Y-100482867D01*
X124242849Y-100495480D01*
X124220671Y-100505970D01*
X124197571Y-100514235D01*
X124173773Y-100520196D01*
X124149504Y-100523796D01*
X124125000Y-100525000D01*
X122875000Y-100525000D01*
X122850496Y-100523796D01*
X122826227Y-100520196D01*
X122802429Y-100514235D01*
X122779329Y-100505970D01*
X122757151Y-100495480D01*
X122736107Y-100482867D01*
X122716402Y-100468253D01*
X122698223Y-100451777D01*
X122681747Y-100433598D01*
X122667133Y-100413893D01*
X122654520Y-100392849D01*
X122644030Y-100370671D01*
X122635765Y-100347571D01*
X122629804Y-100323773D01*
X122626204Y-100299504D01*
X122625000Y-100275000D01*
X122625000Y-99525000D01*
X122626204Y-99500496D01*
X122629804Y-99476227D01*
X122635765Y-99452429D01*
X122644030Y-99429329D01*
X122654520Y-99407151D01*
X122667133Y-99386107D01*
X122681747Y-99366402D01*
X122698223Y-99348223D01*
X122716402Y-99331747D01*
X122736107Y-99317133D01*
X122757151Y-99304520D01*
X122779329Y-99294030D01*
X122802429Y-99285765D01*
X122826227Y-99279804D01*
X122850496Y-99276204D01*
X122875000Y-99275000D01*
X124125000Y-99275000D01*
X124149504Y-99276204D01*
X124149504Y-99276204D01*
G37*
D12*
X123500000Y-99900000D03*
D10*
G36*
X124149504Y-96476204D02*
G01*
X124173773Y-96479804D01*
X124197571Y-96485765D01*
X124220671Y-96494030D01*
X124242849Y-96504520D01*
X124263893Y-96517133D01*
X124283598Y-96531747D01*
X124301777Y-96548223D01*
X124318253Y-96566402D01*
X124332867Y-96586107D01*
X124345480Y-96607151D01*
X124355970Y-96629329D01*
X124364235Y-96652429D01*
X124370196Y-96676227D01*
X124373796Y-96700496D01*
X124375000Y-96725000D01*
X124375000Y-97475000D01*
X124373796Y-97499504D01*
X124370196Y-97523773D01*
X124364235Y-97547571D01*
X124355970Y-97570671D01*
X124345480Y-97592849D01*
X124332867Y-97613893D01*
X124318253Y-97633598D01*
X124301777Y-97651777D01*
X124283598Y-97668253D01*
X124263893Y-97682867D01*
X124242849Y-97695480D01*
X124220671Y-97705970D01*
X124197571Y-97714235D01*
X124173773Y-97720196D01*
X124149504Y-97723796D01*
X124125000Y-97725000D01*
X122875000Y-97725000D01*
X122850496Y-97723796D01*
X122826227Y-97720196D01*
X122802429Y-97714235D01*
X122779329Y-97705970D01*
X122757151Y-97695480D01*
X122736107Y-97682867D01*
X122716402Y-97668253D01*
X122698223Y-97651777D01*
X122681747Y-97633598D01*
X122667133Y-97613893D01*
X122654520Y-97592849D01*
X122644030Y-97570671D01*
X122635765Y-97547571D01*
X122629804Y-97523773D01*
X122626204Y-97499504D01*
X122625000Y-97475000D01*
X122625000Y-96725000D01*
X122626204Y-96700496D01*
X122629804Y-96676227D01*
X122635765Y-96652429D01*
X122644030Y-96629329D01*
X122654520Y-96607151D01*
X122667133Y-96586107D01*
X122681747Y-96566402D01*
X122698223Y-96548223D01*
X122716402Y-96531747D01*
X122736107Y-96517133D01*
X122757151Y-96504520D01*
X122779329Y-96494030D01*
X122802429Y-96485765D01*
X122826227Y-96479804D01*
X122850496Y-96476204D01*
X122875000Y-96475000D01*
X124125000Y-96475000D01*
X124149504Y-96476204D01*
X124149504Y-96476204D01*
G37*
D12*
X123500000Y-97100000D03*
D10*
G36*
X110149504Y-99276204D02*
G01*
X110173773Y-99279804D01*
X110197571Y-99285765D01*
X110220671Y-99294030D01*
X110242849Y-99304520D01*
X110263893Y-99317133D01*
X110283598Y-99331747D01*
X110301777Y-99348223D01*
X110318253Y-99366402D01*
X110332867Y-99386107D01*
X110345480Y-99407151D01*
X110355970Y-99429329D01*
X110364235Y-99452429D01*
X110370196Y-99476227D01*
X110373796Y-99500496D01*
X110375000Y-99525000D01*
X110375000Y-100275000D01*
X110373796Y-100299504D01*
X110370196Y-100323773D01*
X110364235Y-100347571D01*
X110355970Y-100370671D01*
X110345480Y-100392849D01*
X110332867Y-100413893D01*
X110318253Y-100433598D01*
X110301777Y-100451777D01*
X110283598Y-100468253D01*
X110263893Y-100482867D01*
X110242849Y-100495480D01*
X110220671Y-100505970D01*
X110197571Y-100514235D01*
X110173773Y-100520196D01*
X110149504Y-100523796D01*
X110125000Y-100525000D01*
X108875000Y-100525000D01*
X108850496Y-100523796D01*
X108826227Y-100520196D01*
X108802429Y-100514235D01*
X108779329Y-100505970D01*
X108757151Y-100495480D01*
X108736107Y-100482867D01*
X108716402Y-100468253D01*
X108698223Y-100451777D01*
X108681747Y-100433598D01*
X108667133Y-100413893D01*
X108654520Y-100392849D01*
X108644030Y-100370671D01*
X108635765Y-100347571D01*
X108629804Y-100323773D01*
X108626204Y-100299504D01*
X108625000Y-100275000D01*
X108625000Y-99525000D01*
X108626204Y-99500496D01*
X108629804Y-99476227D01*
X108635765Y-99452429D01*
X108644030Y-99429329D01*
X108654520Y-99407151D01*
X108667133Y-99386107D01*
X108681747Y-99366402D01*
X108698223Y-99348223D01*
X108716402Y-99331747D01*
X108736107Y-99317133D01*
X108757151Y-99304520D01*
X108779329Y-99294030D01*
X108802429Y-99285765D01*
X108826227Y-99279804D01*
X108850496Y-99276204D01*
X108875000Y-99275000D01*
X110125000Y-99275000D01*
X110149504Y-99276204D01*
X110149504Y-99276204D01*
G37*
D12*
X109500000Y-99900000D03*
D10*
G36*
X110149504Y-96476204D02*
G01*
X110173773Y-96479804D01*
X110197571Y-96485765D01*
X110220671Y-96494030D01*
X110242849Y-96504520D01*
X110263893Y-96517133D01*
X110283598Y-96531747D01*
X110301777Y-96548223D01*
X110318253Y-96566402D01*
X110332867Y-96586107D01*
X110345480Y-96607151D01*
X110355970Y-96629329D01*
X110364235Y-96652429D01*
X110370196Y-96676227D01*
X110373796Y-96700496D01*
X110375000Y-96725000D01*
X110375000Y-97475000D01*
X110373796Y-97499504D01*
X110370196Y-97523773D01*
X110364235Y-97547571D01*
X110355970Y-97570671D01*
X110345480Y-97592849D01*
X110332867Y-97613893D01*
X110318253Y-97633598D01*
X110301777Y-97651777D01*
X110283598Y-97668253D01*
X110263893Y-97682867D01*
X110242849Y-97695480D01*
X110220671Y-97705970D01*
X110197571Y-97714235D01*
X110173773Y-97720196D01*
X110149504Y-97723796D01*
X110125000Y-97725000D01*
X108875000Y-97725000D01*
X108850496Y-97723796D01*
X108826227Y-97720196D01*
X108802429Y-97714235D01*
X108779329Y-97705970D01*
X108757151Y-97695480D01*
X108736107Y-97682867D01*
X108716402Y-97668253D01*
X108698223Y-97651777D01*
X108681747Y-97633598D01*
X108667133Y-97613893D01*
X108654520Y-97592849D01*
X108644030Y-97570671D01*
X108635765Y-97547571D01*
X108629804Y-97523773D01*
X108626204Y-97499504D01*
X108625000Y-97475000D01*
X108625000Y-96725000D01*
X108626204Y-96700496D01*
X108629804Y-96676227D01*
X108635765Y-96652429D01*
X108644030Y-96629329D01*
X108654520Y-96607151D01*
X108667133Y-96586107D01*
X108681747Y-96566402D01*
X108698223Y-96548223D01*
X108716402Y-96531747D01*
X108736107Y-96517133D01*
X108757151Y-96504520D01*
X108779329Y-96494030D01*
X108802429Y-96485765D01*
X108826227Y-96479804D01*
X108850496Y-96476204D01*
X108875000Y-96475000D01*
X110125000Y-96475000D01*
X110149504Y-96476204D01*
X110149504Y-96476204D01*
G37*
D12*
X109500000Y-97100000D03*
D10*
G36*
X96149504Y-99276204D02*
G01*
X96173773Y-99279804D01*
X96197571Y-99285765D01*
X96220671Y-99294030D01*
X96242849Y-99304520D01*
X96263893Y-99317133D01*
X96283598Y-99331747D01*
X96301777Y-99348223D01*
X96318253Y-99366402D01*
X96332867Y-99386107D01*
X96345480Y-99407151D01*
X96355970Y-99429329D01*
X96364235Y-99452429D01*
X96370196Y-99476227D01*
X96373796Y-99500496D01*
X96375000Y-99525000D01*
X96375000Y-100275000D01*
X96373796Y-100299504D01*
X96370196Y-100323773D01*
X96364235Y-100347571D01*
X96355970Y-100370671D01*
X96345480Y-100392849D01*
X96332867Y-100413893D01*
X96318253Y-100433598D01*
X96301777Y-100451777D01*
X96283598Y-100468253D01*
X96263893Y-100482867D01*
X96242849Y-100495480D01*
X96220671Y-100505970D01*
X96197571Y-100514235D01*
X96173773Y-100520196D01*
X96149504Y-100523796D01*
X96125000Y-100525000D01*
X94875000Y-100525000D01*
X94850496Y-100523796D01*
X94826227Y-100520196D01*
X94802429Y-100514235D01*
X94779329Y-100505970D01*
X94757151Y-100495480D01*
X94736107Y-100482867D01*
X94716402Y-100468253D01*
X94698223Y-100451777D01*
X94681747Y-100433598D01*
X94667133Y-100413893D01*
X94654520Y-100392849D01*
X94644030Y-100370671D01*
X94635765Y-100347571D01*
X94629804Y-100323773D01*
X94626204Y-100299504D01*
X94625000Y-100275000D01*
X94625000Y-99525000D01*
X94626204Y-99500496D01*
X94629804Y-99476227D01*
X94635765Y-99452429D01*
X94644030Y-99429329D01*
X94654520Y-99407151D01*
X94667133Y-99386107D01*
X94681747Y-99366402D01*
X94698223Y-99348223D01*
X94716402Y-99331747D01*
X94736107Y-99317133D01*
X94757151Y-99304520D01*
X94779329Y-99294030D01*
X94802429Y-99285765D01*
X94826227Y-99279804D01*
X94850496Y-99276204D01*
X94875000Y-99275000D01*
X96125000Y-99275000D01*
X96149504Y-99276204D01*
X96149504Y-99276204D01*
G37*
D12*
X95500000Y-99900000D03*
D10*
G36*
X96149504Y-96476204D02*
G01*
X96173773Y-96479804D01*
X96197571Y-96485765D01*
X96220671Y-96494030D01*
X96242849Y-96504520D01*
X96263893Y-96517133D01*
X96283598Y-96531747D01*
X96301777Y-96548223D01*
X96318253Y-96566402D01*
X96332867Y-96586107D01*
X96345480Y-96607151D01*
X96355970Y-96629329D01*
X96364235Y-96652429D01*
X96370196Y-96676227D01*
X96373796Y-96700496D01*
X96375000Y-96725000D01*
X96375000Y-97475000D01*
X96373796Y-97499504D01*
X96370196Y-97523773D01*
X96364235Y-97547571D01*
X96355970Y-97570671D01*
X96345480Y-97592849D01*
X96332867Y-97613893D01*
X96318253Y-97633598D01*
X96301777Y-97651777D01*
X96283598Y-97668253D01*
X96263893Y-97682867D01*
X96242849Y-97695480D01*
X96220671Y-97705970D01*
X96197571Y-97714235D01*
X96173773Y-97720196D01*
X96149504Y-97723796D01*
X96125000Y-97725000D01*
X94875000Y-97725000D01*
X94850496Y-97723796D01*
X94826227Y-97720196D01*
X94802429Y-97714235D01*
X94779329Y-97705970D01*
X94757151Y-97695480D01*
X94736107Y-97682867D01*
X94716402Y-97668253D01*
X94698223Y-97651777D01*
X94681747Y-97633598D01*
X94667133Y-97613893D01*
X94654520Y-97592849D01*
X94644030Y-97570671D01*
X94635765Y-97547571D01*
X94629804Y-97523773D01*
X94626204Y-97499504D01*
X94625000Y-97475000D01*
X94625000Y-96725000D01*
X94626204Y-96700496D01*
X94629804Y-96676227D01*
X94635765Y-96652429D01*
X94644030Y-96629329D01*
X94654520Y-96607151D01*
X94667133Y-96586107D01*
X94681747Y-96566402D01*
X94698223Y-96548223D01*
X94716402Y-96531747D01*
X94736107Y-96517133D01*
X94757151Y-96504520D01*
X94779329Y-96494030D01*
X94802429Y-96485765D01*
X94826227Y-96479804D01*
X94850496Y-96476204D01*
X94875000Y-96475000D01*
X96125000Y-96475000D01*
X96149504Y-96476204D01*
X96149504Y-96476204D01*
G37*
D12*
X95500000Y-97100000D03*
D10*
G36*
X82149504Y-99276204D02*
G01*
X82173773Y-99279804D01*
X82197571Y-99285765D01*
X82220671Y-99294030D01*
X82242849Y-99304520D01*
X82263893Y-99317133D01*
X82283598Y-99331747D01*
X82301777Y-99348223D01*
X82318253Y-99366402D01*
X82332867Y-99386107D01*
X82345480Y-99407151D01*
X82355970Y-99429329D01*
X82364235Y-99452429D01*
X82370196Y-99476227D01*
X82373796Y-99500496D01*
X82375000Y-99525000D01*
X82375000Y-100275000D01*
X82373796Y-100299504D01*
X82370196Y-100323773D01*
X82364235Y-100347571D01*
X82355970Y-100370671D01*
X82345480Y-100392849D01*
X82332867Y-100413893D01*
X82318253Y-100433598D01*
X82301777Y-100451777D01*
X82283598Y-100468253D01*
X82263893Y-100482867D01*
X82242849Y-100495480D01*
X82220671Y-100505970D01*
X82197571Y-100514235D01*
X82173773Y-100520196D01*
X82149504Y-100523796D01*
X82125000Y-100525000D01*
X80875000Y-100525000D01*
X80850496Y-100523796D01*
X80826227Y-100520196D01*
X80802429Y-100514235D01*
X80779329Y-100505970D01*
X80757151Y-100495480D01*
X80736107Y-100482867D01*
X80716402Y-100468253D01*
X80698223Y-100451777D01*
X80681747Y-100433598D01*
X80667133Y-100413893D01*
X80654520Y-100392849D01*
X80644030Y-100370671D01*
X80635765Y-100347571D01*
X80629804Y-100323773D01*
X80626204Y-100299504D01*
X80625000Y-100275000D01*
X80625000Y-99525000D01*
X80626204Y-99500496D01*
X80629804Y-99476227D01*
X80635765Y-99452429D01*
X80644030Y-99429329D01*
X80654520Y-99407151D01*
X80667133Y-99386107D01*
X80681747Y-99366402D01*
X80698223Y-99348223D01*
X80716402Y-99331747D01*
X80736107Y-99317133D01*
X80757151Y-99304520D01*
X80779329Y-99294030D01*
X80802429Y-99285765D01*
X80826227Y-99279804D01*
X80850496Y-99276204D01*
X80875000Y-99275000D01*
X82125000Y-99275000D01*
X82149504Y-99276204D01*
X82149504Y-99276204D01*
G37*
D12*
X81500000Y-99900000D03*
D10*
G36*
X82149504Y-96476204D02*
G01*
X82173773Y-96479804D01*
X82197571Y-96485765D01*
X82220671Y-96494030D01*
X82242849Y-96504520D01*
X82263893Y-96517133D01*
X82283598Y-96531747D01*
X82301777Y-96548223D01*
X82318253Y-96566402D01*
X82332867Y-96586107D01*
X82345480Y-96607151D01*
X82355970Y-96629329D01*
X82364235Y-96652429D01*
X82370196Y-96676227D01*
X82373796Y-96700496D01*
X82375000Y-96725000D01*
X82375000Y-97475000D01*
X82373796Y-97499504D01*
X82370196Y-97523773D01*
X82364235Y-97547571D01*
X82355970Y-97570671D01*
X82345480Y-97592849D01*
X82332867Y-97613893D01*
X82318253Y-97633598D01*
X82301777Y-97651777D01*
X82283598Y-97668253D01*
X82263893Y-97682867D01*
X82242849Y-97695480D01*
X82220671Y-97705970D01*
X82197571Y-97714235D01*
X82173773Y-97720196D01*
X82149504Y-97723796D01*
X82125000Y-97725000D01*
X80875000Y-97725000D01*
X80850496Y-97723796D01*
X80826227Y-97720196D01*
X80802429Y-97714235D01*
X80779329Y-97705970D01*
X80757151Y-97695480D01*
X80736107Y-97682867D01*
X80716402Y-97668253D01*
X80698223Y-97651777D01*
X80681747Y-97633598D01*
X80667133Y-97613893D01*
X80654520Y-97592849D01*
X80644030Y-97570671D01*
X80635765Y-97547571D01*
X80629804Y-97523773D01*
X80626204Y-97499504D01*
X80625000Y-97475000D01*
X80625000Y-96725000D01*
X80626204Y-96700496D01*
X80629804Y-96676227D01*
X80635765Y-96652429D01*
X80644030Y-96629329D01*
X80654520Y-96607151D01*
X80667133Y-96586107D01*
X80681747Y-96566402D01*
X80698223Y-96548223D01*
X80716402Y-96531747D01*
X80736107Y-96517133D01*
X80757151Y-96504520D01*
X80779329Y-96494030D01*
X80802429Y-96485765D01*
X80826227Y-96479804D01*
X80850496Y-96476204D01*
X80875000Y-96475000D01*
X82125000Y-96475000D01*
X82149504Y-96476204D01*
X82149504Y-96476204D01*
G37*
D12*
X81500000Y-97100000D03*
D10*
G36*
X113649504Y-75701204D02*
G01*
X113673773Y-75704804D01*
X113697571Y-75710765D01*
X113720671Y-75719030D01*
X113742849Y-75729520D01*
X113763893Y-75742133D01*
X113783598Y-75756747D01*
X113801777Y-75773223D01*
X113818253Y-75791402D01*
X113832867Y-75811107D01*
X113845480Y-75832151D01*
X113855970Y-75854329D01*
X113864235Y-75877429D01*
X113870196Y-75901227D01*
X113873796Y-75925496D01*
X113875000Y-75950000D01*
X113875000Y-76700000D01*
X113873796Y-76724504D01*
X113870196Y-76748773D01*
X113864235Y-76772571D01*
X113855970Y-76795671D01*
X113845480Y-76817849D01*
X113832867Y-76838893D01*
X113818253Y-76858598D01*
X113801777Y-76876777D01*
X113783598Y-76893253D01*
X113763893Y-76907867D01*
X113742849Y-76920480D01*
X113720671Y-76930970D01*
X113697571Y-76939235D01*
X113673773Y-76945196D01*
X113649504Y-76948796D01*
X113625000Y-76950000D01*
X112375000Y-76950000D01*
X112350496Y-76948796D01*
X112326227Y-76945196D01*
X112302429Y-76939235D01*
X112279329Y-76930970D01*
X112257151Y-76920480D01*
X112236107Y-76907867D01*
X112216402Y-76893253D01*
X112198223Y-76876777D01*
X112181747Y-76858598D01*
X112167133Y-76838893D01*
X112154520Y-76817849D01*
X112144030Y-76795671D01*
X112135765Y-76772571D01*
X112129804Y-76748773D01*
X112126204Y-76724504D01*
X112125000Y-76700000D01*
X112125000Y-75950000D01*
X112126204Y-75925496D01*
X112129804Y-75901227D01*
X112135765Y-75877429D01*
X112144030Y-75854329D01*
X112154520Y-75832151D01*
X112167133Y-75811107D01*
X112181747Y-75791402D01*
X112198223Y-75773223D01*
X112216402Y-75756747D01*
X112236107Y-75742133D01*
X112257151Y-75729520D01*
X112279329Y-75719030D01*
X112302429Y-75710765D01*
X112326227Y-75704804D01*
X112350496Y-75701204D01*
X112375000Y-75700000D01*
X113625000Y-75700000D01*
X113649504Y-75701204D01*
X113649504Y-75701204D01*
G37*
D12*
X113000000Y-76325000D03*
D10*
G36*
X113649504Y-72901204D02*
G01*
X113673773Y-72904804D01*
X113697571Y-72910765D01*
X113720671Y-72919030D01*
X113742849Y-72929520D01*
X113763893Y-72942133D01*
X113783598Y-72956747D01*
X113801777Y-72973223D01*
X113818253Y-72991402D01*
X113832867Y-73011107D01*
X113845480Y-73032151D01*
X113855970Y-73054329D01*
X113864235Y-73077429D01*
X113870196Y-73101227D01*
X113873796Y-73125496D01*
X113875000Y-73150000D01*
X113875000Y-73900000D01*
X113873796Y-73924504D01*
X113870196Y-73948773D01*
X113864235Y-73972571D01*
X113855970Y-73995671D01*
X113845480Y-74017849D01*
X113832867Y-74038893D01*
X113818253Y-74058598D01*
X113801777Y-74076777D01*
X113783598Y-74093253D01*
X113763893Y-74107867D01*
X113742849Y-74120480D01*
X113720671Y-74130970D01*
X113697571Y-74139235D01*
X113673773Y-74145196D01*
X113649504Y-74148796D01*
X113625000Y-74150000D01*
X112375000Y-74150000D01*
X112350496Y-74148796D01*
X112326227Y-74145196D01*
X112302429Y-74139235D01*
X112279329Y-74130970D01*
X112257151Y-74120480D01*
X112236107Y-74107867D01*
X112216402Y-74093253D01*
X112198223Y-74076777D01*
X112181747Y-74058598D01*
X112167133Y-74038893D01*
X112154520Y-74017849D01*
X112144030Y-73995671D01*
X112135765Y-73972571D01*
X112129804Y-73948773D01*
X112126204Y-73924504D01*
X112125000Y-73900000D01*
X112125000Y-73150000D01*
X112126204Y-73125496D01*
X112129804Y-73101227D01*
X112135765Y-73077429D01*
X112144030Y-73054329D01*
X112154520Y-73032151D01*
X112167133Y-73011107D01*
X112181747Y-72991402D01*
X112198223Y-72973223D01*
X112216402Y-72956747D01*
X112236107Y-72942133D01*
X112257151Y-72929520D01*
X112279329Y-72919030D01*
X112302429Y-72910765D01*
X112326227Y-72904804D01*
X112350496Y-72901204D01*
X112375000Y-72900000D01*
X113625000Y-72900000D01*
X113649504Y-72901204D01*
X113649504Y-72901204D01*
G37*
D12*
X113000000Y-73525000D03*
D10*
G36*
X117687252Y-74825602D02*
G01*
X117699386Y-74827402D01*
X117711286Y-74830382D01*
X117722835Y-74834515D01*
X117733925Y-74839760D01*
X117744446Y-74846066D01*
X117754299Y-74853374D01*
X117763388Y-74861612D01*
X117771626Y-74870701D01*
X117778934Y-74880554D01*
X117785240Y-74891075D01*
X117790485Y-74902165D01*
X117794618Y-74913714D01*
X117797598Y-74925614D01*
X117799398Y-74937748D01*
X117800000Y-74950000D01*
X117800000Y-76200000D01*
X117799398Y-76212252D01*
X117797598Y-76224386D01*
X117794618Y-76236286D01*
X117790485Y-76247835D01*
X117785240Y-76258925D01*
X117778934Y-76269446D01*
X117771626Y-76279299D01*
X117763388Y-76288388D01*
X117754299Y-76296626D01*
X117744446Y-76303934D01*
X117733925Y-76310240D01*
X117722835Y-76315485D01*
X117711286Y-76319618D01*
X117699386Y-76322598D01*
X117687252Y-76324398D01*
X117675000Y-76325000D01*
X117425000Y-76325000D01*
X117412748Y-76324398D01*
X117400614Y-76322598D01*
X117388714Y-76319618D01*
X117377165Y-76315485D01*
X117366075Y-76310240D01*
X117355554Y-76303934D01*
X117345701Y-76296626D01*
X117336612Y-76288388D01*
X117328374Y-76279299D01*
X117321066Y-76269446D01*
X117314760Y-76258925D01*
X117309515Y-76247835D01*
X117305382Y-76236286D01*
X117302402Y-76224386D01*
X117300602Y-76212252D01*
X117300000Y-76200000D01*
X117300000Y-74950000D01*
X117300602Y-74937748D01*
X117302402Y-74925614D01*
X117305382Y-74913714D01*
X117309515Y-74902165D01*
X117314760Y-74891075D01*
X117321066Y-74880554D01*
X117328374Y-74870701D01*
X117336612Y-74861612D01*
X117345701Y-74853374D01*
X117355554Y-74846066D01*
X117366075Y-74839760D01*
X117377165Y-74834515D01*
X117388714Y-74830382D01*
X117400614Y-74827402D01*
X117412748Y-74825602D01*
X117425000Y-74825000D01*
X117675000Y-74825000D01*
X117687252Y-74825602D01*
X117687252Y-74825602D01*
G37*
D19*
X117550000Y-75575000D03*
D10*
G36*
X118487252Y-74825602D02*
G01*
X118499386Y-74827402D01*
X118511286Y-74830382D01*
X118522835Y-74834515D01*
X118533925Y-74839760D01*
X118544446Y-74846066D01*
X118554299Y-74853374D01*
X118563388Y-74861612D01*
X118571626Y-74870701D01*
X118578934Y-74880554D01*
X118585240Y-74891075D01*
X118590485Y-74902165D01*
X118594618Y-74913714D01*
X118597598Y-74925614D01*
X118599398Y-74937748D01*
X118600000Y-74950000D01*
X118600000Y-76200000D01*
X118599398Y-76212252D01*
X118597598Y-76224386D01*
X118594618Y-76236286D01*
X118590485Y-76247835D01*
X118585240Y-76258925D01*
X118578934Y-76269446D01*
X118571626Y-76279299D01*
X118563388Y-76288388D01*
X118554299Y-76296626D01*
X118544446Y-76303934D01*
X118533925Y-76310240D01*
X118522835Y-76315485D01*
X118511286Y-76319618D01*
X118499386Y-76322598D01*
X118487252Y-76324398D01*
X118475000Y-76325000D01*
X118225000Y-76325000D01*
X118212748Y-76324398D01*
X118200614Y-76322598D01*
X118188714Y-76319618D01*
X118177165Y-76315485D01*
X118166075Y-76310240D01*
X118155554Y-76303934D01*
X118145701Y-76296626D01*
X118136612Y-76288388D01*
X118128374Y-76279299D01*
X118121066Y-76269446D01*
X118114760Y-76258925D01*
X118109515Y-76247835D01*
X118105382Y-76236286D01*
X118102402Y-76224386D01*
X118100602Y-76212252D01*
X118100000Y-76200000D01*
X118100000Y-74950000D01*
X118100602Y-74937748D01*
X118102402Y-74925614D01*
X118105382Y-74913714D01*
X118109515Y-74902165D01*
X118114760Y-74891075D01*
X118121066Y-74880554D01*
X118128374Y-74870701D01*
X118136612Y-74861612D01*
X118145701Y-74853374D01*
X118155554Y-74846066D01*
X118166075Y-74839760D01*
X118177165Y-74834515D01*
X118188714Y-74830382D01*
X118200614Y-74827402D01*
X118212748Y-74825602D01*
X118225000Y-74825000D01*
X118475000Y-74825000D01*
X118487252Y-74825602D01*
X118487252Y-74825602D01*
G37*
D19*
X118350000Y-75575000D03*
D10*
G36*
X119287252Y-74825602D02*
G01*
X119299386Y-74827402D01*
X119311286Y-74830382D01*
X119322835Y-74834515D01*
X119333925Y-74839760D01*
X119344446Y-74846066D01*
X119354299Y-74853374D01*
X119363388Y-74861612D01*
X119371626Y-74870701D01*
X119378934Y-74880554D01*
X119385240Y-74891075D01*
X119390485Y-74902165D01*
X119394618Y-74913714D01*
X119397598Y-74925614D01*
X119399398Y-74937748D01*
X119400000Y-74950000D01*
X119400000Y-76200000D01*
X119399398Y-76212252D01*
X119397598Y-76224386D01*
X119394618Y-76236286D01*
X119390485Y-76247835D01*
X119385240Y-76258925D01*
X119378934Y-76269446D01*
X119371626Y-76279299D01*
X119363388Y-76288388D01*
X119354299Y-76296626D01*
X119344446Y-76303934D01*
X119333925Y-76310240D01*
X119322835Y-76315485D01*
X119311286Y-76319618D01*
X119299386Y-76322598D01*
X119287252Y-76324398D01*
X119275000Y-76325000D01*
X119025000Y-76325000D01*
X119012748Y-76324398D01*
X119000614Y-76322598D01*
X118988714Y-76319618D01*
X118977165Y-76315485D01*
X118966075Y-76310240D01*
X118955554Y-76303934D01*
X118945701Y-76296626D01*
X118936612Y-76288388D01*
X118928374Y-76279299D01*
X118921066Y-76269446D01*
X118914760Y-76258925D01*
X118909515Y-76247835D01*
X118905382Y-76236286D01*
X118902402Y-76224386D01*
X118900602Y-76212252D01*
X118900000Y-76200000D01*
X118900000Y-74950000D01*
X118900602Y-74937748D01*
X118902402Y-74925614D01*
X118905382Y-74913714D01*
X118909515Y-74902165D01*
X118914760Y-74891075D01*
X118921066Y-74880554D01*
X118928374Y-74870701D01*
X118936612Y-74861612D01*
X118945701Y-74853374D01*
X118955554Y-74846066D01*
X118966075Y-74839760D01*
X118977165Y-74834515D01*
X118988714Y-74830382D01*
X119000614Y-74827402D01*
X119012748Y-74825602D01*
X119025000Y-74825000D01*
X119275000Y-74825000D01*
X119287252Y-74825602D01*
X119287252Y-74825602D01*
G37*
D19*
X119150000Y-75575000D03*
D10*
G36*
X120087252Y-74825602D02*
G01*
X120099386Y-74827402D01*
X120111286Y-74830382D01*
X120122835Y-74834515D01*
X120133925Y-74839760D01*
X120144446Y-74846066D01*
X120154299Y-74853374D01*
X120163388Y-74861612D01*
X120171626Y-74870701D01*
X120178934Y-74880554D01*
X120185240Y-74891075D01*
X120190485Y-74902165D01*
X120194618Y-74913714D01*
X120197598Y-74925614D01*
X120199398Y-74937748D01*
X120200000Y-74950000D01*
X120200000Y-76200000D01*
X120199398Y-76212252D01*
X120197598Y-76224386D01*
X120194618Y-76236286D01*
X120190485Y-76247835D01*
X120185240Y-76258925D01*
X120178934Y-76269446D01*
X120171626Y-76279299D01*
X120163388Y-76288388D01*
X120154299Y-76296626D01*
X120144446Y-76303934D01*
X120133925Y-76310240D01*
X120122835Y-76315485D01*
X120111286Y-76319618D01*
X120099386Y-76322598D01*
X120087252Y-76324398D01*
X120075000Y-76325000D01*
X119825000Y-76325000D01*
X119812748Y-76324398D01*
X119800614Y-76322598D01*
X119788714Y-76319618D01*
X119777165Y-76315485D01*
X119766075Y-76310240D01*
X119755554Y-76303934D01*
X119745701Y-76296626D01*
X119736612Y-76288388D01*
X119728374Y-76279299D01*
X119721066Y-76269446D01*
X119714760Y-76258925D01*
X119709515Y-76247835D01*
X119705382Y-76236286D01*
X119702402Y-76224386D01*
X119700602Y-76212252D01*
X119700000Y-76200000D01*
X119700000Y-74950000D01*
X119700602Y-74937748D01*
X119702402Y-74925614D01*
X119705382Y-74913714D01*
X119709515Y-74902165D01*
X119714760Y-74891075D01*
X119721066Y-74880554D01*
X119728374Y-74870701D01*
X119736612Y-74861612D01*
X119745701Y-74853374D01*
X119755554Y-74846066D01*
X119766075Y-74839760D01*
X119777165Y-74834515D01*
X119788714Y-74830382D01*
X119800614Y-74827402D01*
X119812748Y-74825602D01*
X119825000Y-74825000D01*
X120075000Y-74825000D01*
X120087252Y-74825602D01*
X120087252Y-74825602D01*
G37*
D19*
X119950000Y-75575000D03*
D10*
G36*
X120887252Y-74825602D02*
G01*
X120899386Y-74827402D01*
X120911286Y-74830382D01*
X120922835Y-74834515D01*
X120933925Y-74839760D01*
X120944446Y-74846066D01*
X120954299Y-74853374D01*
X120963388Y-74861612D01*
X120971626Y-74870701D01*
X120978934Y-74880554D01*
X120985240Y-74891075D01*
X120990485Y-74902165D01*
X120994618Y-74913714D01*
X120997598Y-74925614D01*
X120999398Y-74937748D01*
X121000000Y-74950000D01*
X121000000Y-76200000D01*
X120999398Y-76212252D01*
X120997598Y-76224386D01*
X120994618Y-76236286D01*
X120990485Y-76247835D01*
X120985240Y-76258925D01*
X120978934Y-76269446D01*
X120971626Y-76279299D01*
X120963388Y-76288388D01*
X120954299Y-76296626D01*
X120944446Y-76303934D01*
X120933925Y-76310240D01*
X120922835Y-76315485D01*
X120911286Y-76319618D01*
X120899386Y-76322598D01*
X120887252Y-76324398D01*
X120875000Y-76325000D01*
X120625000Y-76325000D01*
X120612748Y-76324398D01*
X120600614Y-76322598D01*
X120588714Y-76319618D01*
X120577165Y-76315485D01*
X120566075Y-76310240D01*
X120555554Y-76303934D01*
X120545701Y-76296626D01*
X120536612Y-76288388D01*
X120528374Y-76279299D01*
X120521066Y-76269446D01*
X120514760Y-76258925D01*
X120509515Y-76247835D01*
X120505382Y-76236286D01*
X120502402Y-76224386D01*
X120500602Y-76212252D01*
X120500000Y-76200000D01*
X120500000Y-74950000D01*
X120500602Y-74937748D01*
X120502402Y-74925614D01*
X120505382Y-74913714D01*
X120509515Y-74902165D01*
X120514760Y-74891075D01*
X120521066Y-74880554D01*
X120528374Y-74870701D01*
X120536612Y-74861612D01*
X120545701Y-74853374D01*
X120555554Y-74846066D01*
X120566075Y-74839760D01*
X120577165Y-74834515D01*
X120588714Y-74830382D01*
X120600614Y-74827402D01*
X120612748Y-74825602D01*
X120625000Y-74825000D01*
X120875000Y-74825000D01*
X120887252Y-74825602D01*
X120887252Y-74825602D01*
G37*
D19*
X120750000Y-75575000D03*
D10*
G36*
X121687252Y-74825602D02*
G01*
X121699386Y-74827402D01*
X121711286Y-74830382D01*
X121722835Y-74834515D01*
X121733925Y-74839760D01*
X121744446Y-74846066D01*
X121754299Y-74853374D01*
X121763388Y-74861612D01*
X121771626Y-74870701D01*
X121778934Y-74880554D01*
X121785240Y-74891075D01*
X121790485Y-74902165D01*
X121794618Y-74913714D01*
X121797598Y-74925614D01*
X121799398Y-74937748D01*
X121800000Y-74950000D01*
X121800000Y-76200000D01*
X121799398Y-76212252D01*
X121797598Y-76224386D01*
X121794618Y-76236286D01*
X121790485Y-76247835D01*
X121785240Y-76258925D01*
X121778934Y-76269446D01*
X121771626Y-76279299D01*
X121763388Y-76288388D01*
X121754299Y-76296626D01*
X121744446Y-76303934D01*
X121733925Y-76310240D01*
X121722835Y-76315485D01*
X121711286Y-76319618D01*
X121699386Y-76322598D01*
X121687252Y-76324398D01*
X121675000Y-76325000D01*
X121425000Y-76325000D01*
X121412748Y-76324398D01*
X121400614Y-76322598D01*
X121388714Y-76319618D01*
X121377165Y-76315485D01*
X121366075Y-76310240D01*
X121355554Y-76303934D01*
X121345701Y-76296626D01*
X121336612Y-76288388D01*
X121328374Y-76279299D01*
X121321066Y-76269446D01*
X121314760Y-76258925D01*
X121309515Y-76247835D01*
X121305382Y-76236286D01*
X121302402Y-76224386D01*
X121300602Y-76212252D01*
X121300000Y-76200000D01*
X121300000Y-74950000D01*
X121300602Y-74937748D01*
X121302402Y-74925614D01*
X121305382Y-74913714D01*
X121309515Y-74902165D01*
X121314760Y-74891075D01*
X121321066Y-74880554D01*
X121328374Y-74870701D01*
X121336612Y-74861612D01*
X121345701Y-74853374D01*
X121355554Y-74846066D01*
X121366075Y-74839760D01*
X121377165Y-74834515D01*
X121388714Y-74830382D01*
X121400614Y-74827402D01*
X121412748Y-74825602D01*
X121425000Y-74825000D01*
X121675000Y-74825000D01*
X121687252Y-74825602D01*
X121687252Y-74825602D01*
G37*
D19*
X121550000Y-75575000D03*
D10*
G36*
X122487252Y-74825602D02*
G01*
X122499386Y-74827402D01*
X122511286Y-74830382D01*
X122522835Y-74834515D01*
X122533925Y-74839760D01*
X122544446Y-74846066D01*
X122554299Y-74853374D01*
X122563388Y-74861612D01*
X122571626Y-74870701D01*
X122578934Y-74880554D01*
X122585240Y-74891075D01*
X122590485Y-74902165D01*
X122594618Y-74913714D01*
X122597598Y-74925614D01*
X122599398Y-74937748D01*
X122600000Y-74950000D01*
X122600000Y-76200000D01*
X122599398Y-76212252D01*
X122597598Y-76224386D01*
X122594618Y-76236286D01*
X122590485Y-76247835D01*
X122585240Y-76258925D01*
X122578934Y-76269446D01*
X122571626Y-76279299D01*
X122563388Y-76288388D01*
X122554299Y-76296626D01*
X122544446Y-76303934D01*
X122533925Y-76310240D01*
X122522835Y-76315485D01*
X122511286Y-76319618D01*
X122499386Y-76322598D01*
X122487252Y-76324398D01*
X122475000Y-76325000D01*
X122225000Y-76325000D01*
X122212748Y-76324398D01*
X122200614Y-76322598D01*
X122188714Y-76319618D01*
X122177165Y-76315485D01*
X122166075Y-76310240D01*
X122155554Y-76303934D01*
X122145701Y-76296626D01*
X122136612Y-76288388D01*
X122128374Y-76279299D01*
X122121066Y-76269446D01*
X122114760Y-76258925D01*
X122109515Y-76247835D01*
X122105382Y-76236286D01*
X122102402Y-76224386D01*
X122100602Y-76212252D01*
X122100000Y-76200000D01*
X122100000Y-74950000D01*
X122100602Y-74937748D01*
X122102402Y-74925614D01*
X122105382Y-74913714D01*
X122109515Y-74902165D01*
X122114760Y-74891075D01*
X122121066Y-74880554D01*
X122128374Y-74870701D01*
X122136612Y-74861612D01*
X122145701Y-74853374D01*
X122155554Y-74846066D01*
X122166075Y-74839760D01*
X122177165Y-74834515D01*
X122188714Y-74830382D01*
X122200614Y-74827402D01*
X122212748Y-74825602D01*
X122225000Y-74825000D01*
X122475000Y-74825000D01*
X122487252Y-74825602D01*
X122487252Y-74825602D01*
G37*
D19*
X122350000Y-75575000D03*
D10*
G36*
X123287252Y-74825602D02*
G01*
X123299386Y-74827402D01*
X123311286Y-74830382D01*
X123322835Y-74834515D01*
X123333925Y-74839760D01*
X123344446Y-74846066D01*
X123354299Y-74853374D01*
X123363388Y-74861612D01*
X123371626Y-74870701D01*
X123378934Y-74880554D01*
X123385240Y-74891075D01*
X123390485Y-74902165D01*
X123394618Y-74913714D01*
X123397598Y-74925614D01*
X123399398Y-74937748D01*
X123400000Y-74950000D01*
X123400000Y-76200000D01*
X123399398Y-76212252D01*
X123397598Y-76224386D01*
X123394618Y-76236286D01*
X123390485Y-76247835D01*
X123385240Y-76258925D01*
X123378934Y-76269446D01*
X123371626Y-76279299D01*
X123363388Y-76288388D01*
X123354299Y-76296626D01*
X123344446Y-76303934D01*
X123333925Y-76310240D01*
X123322835Y-76315485D01*
X123311286Y-76319618D01*
X123299386Y-76322598D01*
X123287252Y-76324398D01*
X123275000Y-76325000D01*
X123025000Y-76325000D01*
X123012748Y-76324398D01*
X123000614Y-76322598D01*
X122988714Y-76319618D01*
X122977165Y-76315485D01*
X122966075Y-76310240D01*
X122955554Y-76303934D01*
X122945701Y-76296626D01*
X122936612Y-76288388D01*
X122928374Y-76279299D01*
X122921066Y-76269446D01*
X122914760Y-76258925D01*
X122909515Y-76247835D01*
X122905382Y-76236286D01*
X122902402Y-76224386D01*
X122900602Y-76212252D01*
X122900000Y-76200000D01*
X122900000Y-74950000D01*
X122900602Y-74937748D01*
X122902402Y-74925614D01*
X122905382Y-74913714D01*
X122909515Y-74902165D01*
X122914760Y-74891075D01*
X122921066Y-74880554D01*
X122928374Y-74870701D01*
X122936612Y-74861612D01*
X122945701Y-74853374D01*
X122955554Y-74846066D01*
X122966075Y-74839760D01*
X122977165Y-74834515D01*
X122988714Y-74830382D01*
X123000614Y-74827402D01*
X123012748Y-74825602D01*
X123025000Y-74825000D01*
X123275000Y-74825000D01*
X123287252Y-74825602D01*
X123287252Y-74825602D01*
G37*
D19*
X123150000Y-75575000D03*
D10*
G36*
X125162252Y-76700602D02*
G01*
X125174386Y-76702402D01*
X125186286Y-76705382D01*
X125197835Y-76709515D01*
X125208925Y-76714760D01*
X125219446Y-76721066D01*
X125229299Y-76728374D01*
X125238388Y-76736612D01*
X125246626Y-76745701D01*
X125253934Y-76755554D01*
X125260240Y-76766075D01*
X125265485Y-76777165D01*
X125269618Y-76788714D01*
X125272598Y-76800614D01*
X125274398Y-76812748D01*
X125275000Y-76825000D01*
X125275000Y-77075000D01*
X125274398Y-77087252D01*
X125272598Y-77099386D01*
X125269618Y-77111286D01*
X125265485Y-77122835D01*
X125260240Y-77133925D01*
X125253934Y-77144446D01*
X125246626Y-77154299D01*
X125238388Y-77163388D01*
X125229299Y-77171626D01*
X125219446Y-77178934D01*
X125208925Y-77185240D01*
X125197835Y-77190485D01*
X125186286Y-77194618D01*
X125174386Y-77197598D01*
X125162252Y-77199398D01*
X125150000Y-77200000D01*
X123900000Y-77200000D01*
X123887748Y-77199398D01*
X123875614Y-77197598D01*
X123863714Y-77194618D01*
X123852165Y-77190485D01*
X123841075Y-77185240D01*
X123830554Y-77178934D01*
X123820701Y-77171626D01*
X123811612Y-77163388D01*
X123803374Y-77154299D01*
X123796066Y-77144446D01*
X123789760Y-77133925D01*
X123784515Y-77122835D01*
X123780382Y-77111286D01*
X123777402Y-77099386D01*
X123775602Y-77087252D01*
X123775000Y-77075000D01*
X123775000Y-76825000D01*
X123775602Y-76812748D01*
X123777402Y-76800614D01*
X123780382Y-76788714D01*
X123784515Y-76777165D01*
X123789760Y-76766075D01*
X123796066Y-76755554D01*
X123803374Y-76745701D01*
X123811612Y-76736612D01*
X123820701Y-76728374D01*
X123830554Y-76721066D01*
X123841075Y-76714760D01*
X123852165Y-76709515D01*
X123863714Y-76705382D01*
X123875614Y-76702402D01*
X123887748Y-76700602D01*
X123900000Y-76700000D01*
X125150000Y-76700000D01*
X125162252Y-76700602D01*
X125162252Y-76700602D01*
G37*
D19*
X124525000Y-76950000D03*
D10*
G36*
X125162252Y-77500602D02*
G01*
X125174386Y-77502402D01*
X125186286Y-77505382D01*
X125197835Y-77509515D01*
X125208925Y-77514760D01*
X125219446Y-77521066D01*
X125229299Y-77528374D01*
X125238388Y-77536612D01*
X125246626Y-77545701D01*
X125253934Y-77555554D01*
X125260240Y-77566075D01*
X125265485Y-77577165D01*
X125269618Y-77588714D01*
X125272598Y-77600614D01*
X125274398Y-77612748D01*
X125275000Y-77625000D01*
X125275000Y-77875000D01*
X125274398Y-77887252D01*
X125272598Y-77899386D01*
X125269618Y-77911286D01*
X125265485Y-77922835D01*
X125260240Y-77933925D01*
X125253934Y-77944446D01*
X125246626Y-77954299D01*
X125238388Y-77963388D01*
X125229299Y-77971626D01*
X125219446Y-77978934D01*
X125208925Y-77985240D01*
X125197835Y-77990485D01*
X125186286Y-77994618D01*
X125174386Y-77997598D01*
X125162252Y-77999398D01*
X125150000Y-78000000D01*
X123900000Y-78000000D01*
X123887748Y-77999398D01*
X123875614Y-77997598D01*
X123863714Y-77994618D01*
X123852165Y-77990485D01*
X123841075Y-77985240D01*
X123830554Y-77978934D01*
X123820701Y-77971626D01*
X123811612Y-77963388D01*
X123803374Y-77954299D01*
X123796066Y-77944446D01*
X123789760Y-77933925D01*
X123784515Y-77922835D01*
X123780382Y-77911286D01*
X123777402Y-77899386D01*
X123775602Y-77887252D01*
X123775000Y-77875000D01*
X123775000Y-77625000D01*
X123775602Y-77612748D01*
X123777402Y-77600614D01*
X123780382Y-77588714D01*
X123784515Y-77577165D01*
X123789760Y-77566075D01*
X123796066Y-77555554D01*
X123803374Y-77545701D01*
X123811612Y-77536612D01*
X123820701Y-77528374D01*
X123830554Y-77521066D01*
X123841075Y-77514760D01*
X123852165Y-77509515D01*
X123863714Y-77505382D01*
X123875614Y-77502402D01*
X123887748Y-77500602D01*
X123900000Y-77500000D01*
X125150000Y-77500000D01*
X125162252Y-77500602D01*
X125162252Y-77500602D01*
G37*
D19*
X124525000Y-77750000D03*
D10*
G36*
X125162252Y-78300602D02*
G01*
X125174386Y-78302402D01*
X125186286Y-78305382D01*
X125197835Y-78309515D01*
X125208925Y-78314760D01*
X125219446Y-78321066D01*
X125229299Y-78328374D01*
X125238388Y-78336612D01*
X125246626Y-78345701D01*
X125253934Y-78355554D01*
X125260240Y-78366075D01*
X125265485Y-78377165D01*
X125269618Y-78388714D01*
X125272598Y-78400614D01*
X125274398Y-78412748D01*
X125275000Y-78425000D01*
X125275000Y-78675000D01*
X125274398Y-78687252D01*
X125272598Y-78699386D01*
X125269618Y-78711286D01*
X125265485Y-78722835D01*
X125260240Y-78733925D01*
X125253934Y-78744446D01*
X125246626Y-78754299D01*
X125238388Y-78763388D01*
X125229299Y-78771626D01*
X125219446Y-78778934D01*
X125208925Y-78785240D01*
X125197835Y-78790485D01*
X125186286Y-78794618D01*
X125174386Y-78797598D01*
X125162252Y-78799398D01*
X125150000Y-78800000D01*
X123900000Y-78800000D01*
X123887748Y-78799398D01*
X123875614Y-78797598D01*
X123863714Y-78794618D01*
X123852165Y-78790485D01*
X123841075Y-78785240D01*
X123830554Y-78778934D01*
X123820701Y-78771626D01*
X123811612Y-78763388D01*
X123803374Y-78754299D01*
X123796066Y-78744446D01*
X123789760Y-78733925D01*
X123784515Y-78722835D01*
X123780382Y-78711286D01*
X123777402Y-78699386D01*
X123775602Y-78687252D01*
X123775000Y-78675000D01*
X123775000Y-78425000D01*
X123775602Y-78412748D01*
X123777402Y-78400614D01*
X123780382Y-78388714D01*
X123784515Y-78377165D01*
X123789760Y-78366075D01*
X123796066Y-78355554D01*
X123803374Y-78345701D01*
X123811612Y-78336612D01*
X123820701Y-78328374D01*
X123830554Y-78321066D01*
X123841075Y-78314760D01*
X123852165Y-78309515D01*
X123863714Y-78305382D01*
X123875614Y-78302402D01*
X123887748Y-78300602D01*
X123900000Y-78300000D01*
X125150000Y-78300000D01*
X125162252Y-78300602D01*
X125162252Y-78300602D01*
G37*
D19*
X124525000Y-78550000D03*
D10*
G36*
X125162252Y-79100602D02*
G01*
X125174386Y-79102402D01*
X125186286Y-79105382D01*
X125197835Y-79109515D01*
X125208925Y-79114760D01*
X125219446Y-79121066D01*
X125229299Y-79128374D01*
X125238388Y-79136612D01*
X125246626Y-79145701D01*
X125253934Y-79155554D01*
X125260240Y-79166075D01*
X125265485Y-79177165D01*
X125269618Y-79188714D01*
X125272598Y-79200614D01*
X125274398Y-79212748D01*
X125275000Y-79225000D01*
X125275000Y-79475000D01*
X125274398Y-79487252D01*
X125272598Y-79499386D01*
X125269618Y-79511286D01*
X125265485Y-79522835D01*
X125260240Y-79533925D01*
X125253934Y-79544446D01*
X125246626Y-79554299D01*
X125238388Y-79563388D01*
X125229299Y-79571626D01*
X125219446Y-79578934D01*
X125208925Y-79585240D01*
X125197835Y-79590485D01*
X125186286Y-79594618D01*
X125174386Y-79597598D01*
X125162252Y-79599398D01*
X125150000Y-79600000D01*
X123900000Y-79600000D01*
X123887748Y-79599398D01*
X123875614Y-79597598D01*
X123863714Y-79594618D01*
X123852165Y-79590485D01*
X123841075Y-79585240D01*
X123830554Y-79578934D01*
X123820701Y-79571626D01*
X123811612Y-79563388D01*
X123803374Y-79554299D01*
X123796066Y-79544446D01*
X123789760Y-79533925D01*
X123784515Y-79522835D01*
X123780382Y-79511286D01*
X123777402Y-79499386D01*
X123775602Y-79487252D01*
X123775000Y-79475000D01*
X123775000Y-79225000D01*
X123775602Y-79212748D01*
X123777402Y-79200614D01*
X123780382Y-79188714D01*
X123784515Y-79177165D01*
X123789760Y-79166075D01*
X123796066Y-79155554D01*
X123803374Y-79145701D01*
X123811612Y-79136612D01*
X123820701Y-79128374D01*
X123830554Y-79121066D01*
X123841075Y-79114760D01*
X123852165Y-79109515D01*
X123863714Y-79105382D01*
X123875614Y-79102402D01*
X123887748Y-79100602D01*
X123900000Y-79100000D01*
X125150000Y-79100000D01*
X125162252Y-79100602D01*
X125162252Y-79100602D01*
G37*
D19*
X124525000Y-79350000D03*
D10*
G36*
X125162252Y-79900602D02*
G01*
X125174386Y-79902402D01*
X125186286Y-79905382D01*
X125197835Y-79909515D01*
X125208925Y-79914760D01*
X125219446Y-79921066D01*
X125229299Y-79928374D01*
X125238388Y-79936612D01*
X125246626Y-79945701D01*
X125253934Y-79955554D01*
X125260240Y-79966075D01*
X125265485Y-79977165D01*
X125269618Y-79988714D01*
X125272598Y-80000614D01*
X125274398Y-80012748D01*
X125275000Y-80025000D01*
X125275000Y-80275000D01*
X125274398Y-80287252D01*
X125272598Y-80299386D01*
X125269618Y-80311286D01*
X125265485Y-80322835D01*
X125260240Y-80333925D01*
X125253934Y-80344446D01*
X125246626Y-80354299D01*
X125238388Y-80363388D01*
X125229299Y-80371626D01*
X125219446Y-80378934D01*
X125208925Y-80385240D01*
X125197835Y-80390485D01*
X125186286Y-80394618D01*
X125174386Y-80397598D01*
X125162252Y-80399398D01*
X125150000Y-80400000D01*
X123900000Y-80400000D01*
X123887748Y-80399398D01*
X123875614Y-80397598D01*
X123863714Y-80394618D01*
X123852165Y-80390485D01*
X123841075Y-80385240D01*
X123830554Y-80378934D01*
X123820701Y-80371626D01*
X123811612Y-80363388D01*
X123803374Y-80354299D01*
X123796066Y-80344446D01*
X123789760Y-80333925D01*
X123784515Y-80322835D01*
X123780382Y-80311286D01*
X123777402Y-80299386D01*
X123775602Y-80287252D01*
X123775000Y-80275000D01*
X123775000Y-80025000D01*
X123775602Y-80012748D01*
X123777402Y-80000614D01*
X123780382Y-79988714D01*
X123784515Y-79977165D01*
X123789760Y-79966075D01*
X123796066Y-79955554D01*
X123803374Y-79945701D01*
X123811612Y-79936612D01*
X123820701Y-79928374D01*
X123830554Y-79921066D01*
X123841075Y-79914760D01*
X123852165Y-79909515D01*
X123863714Y-79905382D01*
X123875614Y-79902402D01*
X123887748Y-79900602D01*
X123900000Y-79900000D01*
X125150000Y-79900000D01*
X125162252Y-79900602D01*
X125162252Y-79900602D01*
G37*
D19*
X124525000Y-80150000D03*
D10*
G36*
X125162252Y-80700602D02*
G01*
X125174386Y-80702402D01*
X125186286Y-80705382D01*
X125197835Y-80709515D01*
X125208925Y-80714760D01*
X125219446Y-80721066D01*
X125229299Y-80728374D01*
X125238388Y-80736612D01*
X125246626Y-80745701D01*
X125253934Y-80755554D01*
X125260240Y-80766075D01*
X125265485Y-80777165D01*
X125269618Y-80788714D01*
X125272598Y-80800614D01*
X125274398Y-80812748D01*
X125275000Y-80825000D01*
X125275000Y-81075000D01*
X125274398Y-81087252D01*
X125272598Y-81099386D01*
X125269618Y-81111286D01*
X125265485Y-81122835D01*
X125260240Y-81133925D01*
X125253934Y-81144446D01*
X125246626Y-81154299D01*
X125238388Y-81163388D01*
X125229299Y-81171626D01*
X125219446Y-81178934D01*
X125208925Y-81185240D01*
X125197835Y-81190485D01*
X125186286Y-81194618D01*
X125174386Y-81197598D01*
X125162252Y-81199398D01*
X125150000Y-81200000D01*
X123900000Y-81200000D01*
X123887748Y-81199398D01*
X123875614Y-81197598D01*
X123863714Y-81194618D01*
X123852165Y-81190485D01*
X123841075Y-81185240D01*
X123830554Y-81178934D01*
X123820701Y-81171626D01*
X123811612Y-81163388D01*
X123803374Y-81154299D01*
X123796066Y-81144446D01*
X123789760Y-81133925D01*
X123784515Y-81122835D01*
X123780382Y-81111286D01*
X123777402Y-81099386D01*
X123775602Y-81087252D01*
X123775000Y-81075000D01*
X123775000Y-80825000D01*
X123775602Y-80812748D01*
X123777402Y-80800614D01*
X123780382Y-80788714D01*
X123784515Y-80777165D01*
X123789760Y-80766075D01*
X123796066Y-80755554D01*
X123803374Y-80745701D01*
X123811612Y-80736612D01*
X123820701Y-80728374D01*
X123830554Y-80721066D01*
X123841075Y-80714760D01*
X123852165Y-80709515D01*
X123863714Y-80705382D01*
X123875614Y-80702402D01*
X123887748Y-80700602D01*
X123900000Y-80700000D01*
X125150000Y-80700000D01*
X125162252Y-80700602D01*
X125162252Y-80700602D01*
G37*
D19*
X124525000Y-80950000D03*
D10*
G36*
X125162252Y-81500602D02*
G01*
X125174386Y-81502402D01*
X125186286Y-81505382D01*
X125197835Y-81509515D01*
X125208925Y-81514760D01*
X125219446Y-81521066D01*
X125229299Y-81528374D01*
X125238388Y-81536612D01*
X125246626Y-81545701D01*
X125253934Y-81555554D01*
X125260240Y-81566075D01*
X125265485Y-81577165D01*
X125269618Y-81588714D01*
X125272598Y-81600614D01*
X125274398Y-81612748D01*
X125275000Y-81625000D01*
X125275000Y-81875000D01*
X125274398Y-81887252D01*
X125272598Y-81899386D01*
X125269618Y-81911286D01*
X125265485Y-81922835D01*
X125260240Y-81933925D01*
X125253934Y-81944446D01*
X125246626Y-81954299D01*
X125238388Y-81963388D01*
X125229299Y-81971626D01*
X125219446Y-81978934D01*
X125208925Y-81985240D01*
X125197835Y-81990485D01*
X125186286Y-81994618D01*
X125174386Y-81997598D01*
X125162252Y-81999398D01*
X125150000Y-82000000D01*
X123900000Y-82000000D01*
X123887748Y-81999398D01*
X123875614Y-81997598D01*
X123863714Y-81994618D01*
X123852165Y-81990485D01*
X123841075Y-81985240D01*
X123830554Y-81978934D01*
X123820701Y-81971626D01*
X123811612Y-81963388D01*
X123803374Y-81954299D01*
X123796066Y-81944446D01*
X123789760Y-81933925D01*
X123784515Y-81922835D01*
X123780382Y-81911286D01*
X123777402Y-81899386D01*
X123775602Y-81887252D01*
X123775000Y-81875000D01*
X123775000Y-81625000D01*
X123775602Y-81612748D01*
X123777402Y-81600614D01*
X123780382Y-81588714D01*
X123784515Y-81577165D01*
X123789760Y-81566075D01*
X123796066Y-81555554D01*
X123803374Y-81545701D01*
X123811612Y-81536612D01*
X123820701Y-81528374D01*
X123830554Y-81521066D01*
X123841075Y-81514760D01*
X123852165Y-81509515D01*
X123863714Y-81505382D01*
X123875614Y-81502402D01*
X123887748Y-81500602D01*
X123900000Y-81500000D01*
X125150000Y-81500000D01*
X125162252Y-81500602D01*
X125162252Y-81500602D01*
G37*
D19*
X124525000Y-81750000D03*
D10*
G36*
X125162252Y-82300602D02*
G01*
X125174386Y-82302402D01*
X125186286Y-82305382D01*
X125197835Y-82309515D01*
X125208925Y-82314760D01*
X125219446Y-82321066D01*
X125229299Y-82328374D01*
X125238388Y-82336612D01*
X125246626Y-82345701D01*
X125253934Y-82355554D01*
X125260240Y-82366075D01*
X125265485Y-82377165D01*
X125269618Y-82388714D01*
X125272598Y-82400614D01*
X125274398Y-82412748D01*
X125275000Y-82425000D01*
X125275000Y-82675000D01*
X125274398Y-82687252D01*
X125272598Y-82699386D01*
X125269618Y-82711286D01*
X125265485Y-82722835D01*
X125260240Y-82733925D01*
X125253934Y-82744446D01*
X125246626Y-82754299D01*
X125238388Y-82763388D01*
X125229299Y-82771626D01*
X125219446Y-82778934D01*
X125208925Y-82785240D01*
X125197835Y-82790485D01*
X125186286Y-82794618D01*
X125174386Y-82797598D01*
X125162252Y-82799398D01*
X125150000Y-82800000D01*
X123900000Y-82800000D01*
X123887748Y-82799398D01*
X123875614Y-82797598D01*
X123863714Y-82794618D01*
X123852165Y-82790485D01*
X123841075Y-82785240D01*
X123830554Y-82778934D01*
X123820701Y-82771626D01*
X123811612Y-82763388D01*
X123803374Y-82754299D01*
X123796066Y-82744446D01*
X123789760Y-82733925D01*
X123784515Y-82722835D01*
X123780382Y-82711286D01*
X123777402Y-82699386D01*
X123775602Y-82687252D01*
X123775000Y-82675000D01*
X123775000Y-82425000D01*
X123775602Y-82412748D01*
X123777402Y-82400614D01*
X123780382Y-82388714D01*
X123784515Y-82377165D01*
X123789760Y-82366075D01*
X123796066Y-82355554D01*
X123803374Y-82345701D01*
X123811612Y-82336612D01*
X123820701Y-82328374D01*
X123830554Y-82321066D01*
X123841075Y-82314760D01*
X123852165Y-82309515D01*
X123863714Y-82305382D01*
X123875614Y-82302402D01*
X123887748Y-82300602D01*
X123900000Y-82300000D01*
X125150000Y-82300000D01*
X125162252Y-82300602D01*
X125162252Y-82300602D01*
G37*
D19*
X124525000Y-82550000D03*
D10*
G36*
X123287252Y-83175602D02*
G01*
X123299386Y-83177402D01*
X123311286Y-83180382D01*
X123322835Y-83184515D01*
X123333925Y-83189760D01*
X123344446Y-83196066D01*
X123354299Y-83203374D01*
X123363388Y-83211612D01*
X123371626Y-83220701D01*
X123378934Y-83230554D01*
X123385240Y-83241075D01*
X123390485Y-83252165D01*
X123394618Y-83263714D01*
X123397598Y-83275614D01*
X123399398Y-83287748D01*
X123400000Y-83300000D01*
X123400000Y-84550000D01*
X123399398Y-84562252D01*
X123397598Y-84574386D01*
X123394618Y-84586286D01*
X123390485Y-84597835D01*
X123385240Y-84608925D01*
X123378934Y-84619446D01*
X123371626Y-84629299D01*
X123363388Y-84638388D01*
X123354299Y-84646626D01*
X123344446Y-84653934D01*
X123333925Y-84660240D01*
X123322835Y-84665485D01*
X123311286Y-84669618D01*
X123299386Y-84672598D01*
X123287252Y-84674398D01*
X123275000Y-84675000D01*
X123025000Y-84675000D01*
X123012748Y-84674398D01*
X123000614Y-84672598D01*
X122988714Y-84669618D01*
X122977165Y-84665485D01*
X122966075Y-84660240D01*
X122955554Y-84653934D01*
X122945701Y-84646626D01*
X122936612Y-84638388D01*
X122928374Y-84629299D01*
X122921066Y-84619446D01*
X122914760Y-84608925D01*
X122909515Y-84597835D01*
X122905382Y-84586286D01*
X122902402Y-84574386D01*
X122900602Y-84562252D01*
X122900000Y-84550000D01*
X122900000Y-83300000D01*
X122900602Y-83287748D01*
X122902402Y-83275614D01*
X122905382Y-83263714D01*
X122909515Y-83252165D01*
X122914760Y-83241075D01*
X122921066Y-83230554D01*
X122928374Y-83220701D01*
X122936612Y-83211612D01*
X122945701Y-83203374D01*
X122955554Y-83196066D01*
X122966075Y-83189760D01*
X122977165Y-83184515D01*
X122988714Y-83180382D01*
X123000614Y-83177402D01*
X123012748Y-83175602D01*
X123025000Y-83175000D01*
X123275000Y-83175000D01*
X123287252Y-83175602D01*
X123287252Y-83175602D01*
G37*
D19*
X123150000Y-83925000D03*
D10*
G36*
X122487252Y-83175602D02*
G01*
X122499386Y-83177402D01*
X122511286Y-83180382D01*
X122522835Y-83184515D01*
X122533925Y-83189760D01*
X122544446Y-83196066D01*
X122554299Y-83203374D01*
X122563388Y-83211612D01*
X122571626Y-83220701D01*
X122578934Y-83230554D01*
X122585240Y-83241075D01*
X122590485Y-83252165D01*
X122594618Y-83263714D01*
X122597598Y-83275614D01*
X122599398Y-83287748D01*
X122600000Y-83300000D01*
X122600000Y-84550000D01*
X122599398Y-84562252D01*
X122597598Y-84574386D01*
X122594618Y-84586286D01*
X122590485Y-84597835D01*
X122585240Y-84608925D01*
X122578934Y-84619446D01*
X122571626Y-84629299D01*
X122563388Y-84638388D01*
X122554299Y-84646626D01*
X122544446Y-84653934D01*
X122533925Y-84660240D01*
X122522835Y-84665485D01*
X122511286Y-84669618D01*
X122499386Y-84672598D01*
X122487252Y-84674398D01*
X122475000Y-84675000D01*
X122225000Y-84675000D01*
X122212748Y-84674398D01*
X122200614Y-84672598D01*
X122188714Y-84669618D01*
X122177165Y-84665485D01*
X122166075Y-84660240D01*
X122155554Y-84653934D01*
X122145701Y-84646626D01*
X122136612Y-84638388D01*
X122128374Y-84629299D01*
X122121066Y-84619446D01*
X122114760Y-84608925D01*
X122109515Y-84597835D01*
X122105382Y-84586286D01*
X122102402Y-84574386D01*
X122100602Y-84562252D01*
X122100000Y-84550000D01*
X122100000Y-83300000D01*
X122100602Y-83287748D01*
X122102402Y-83275614D01*
X122105382Y-83263714D01*
X122109515Y-83252165D01*
X122114760Y-83241075D01*
X122121066Y-83230554D01*
X122128374Y-83220701D01*
X122136612Y-83211612D01*
X122145701Y-83203374D01*
X122155554Y-83196066D01*
X122166075Y-83189760D01*
X122177165Y-83184515D01*
X122188714Y-83180382D01*
X122200614Y-83177402D01*
X122212748Y-83175602D01*
X122225000Y-83175000D01*
X122475000Y-83175000D01*
X122487252Y-83175602D01*
X122487252Y-83175602D01*
G37*
D19*
X122350000Y-83925000D03*
D10*
G36*
X121687252Y-83175602D02*
G01*
X121699386Y-83177402D01*
X121711286Y-83180382D01*
X121722835Y-83184515D01*
X121733925Y-83189760D01*
X121744446Y-83196066D01*
X121754299Y-83203374D01*
X121763388Y-83211612D01*
X121771626Y-83220701D01*
X121778934Y-83230554D01*
X121785240Y-83241075D01*
X121790485Y-83252165D01*
X121794618Y-83263714D01*
X121797598Y-83275614D01*
X121799398Y-83287748D01*
X121800000Y-83300000D01*
X121800000Y-84550000D01*
X121799398Y-84562252D01*
X121797598Y-84574386D01*
X121794618Y-84586286D01*
X121790485Y-84597835D01*
X121785240Y-84608925D01*
X121778934Y-84619446D01*
X121771626Y-84629299D01*
X121763388Y-84638388D01*
X121754299Y-84646626D01*
X121744446Y-84653934D01*
X121733925Y-84660240D01*
X121722835Y-84665485D01*
X121711286Y-84669618D01*
X121699386Y-84672598D01*
X121687252Y-84674398D01*
X121675000Y-84675000D01*
X121425000Y-84675000D01*
X121412748Y-84674398D01*
X121400614Y-84672598D01*
X121388714Y-84669618D01*
X121377165Y-84665485D01*
X121366075Y-84660240D01*
X121355554Y-84653934D01*
X121345701Y-84646626D01*
X121336612Y-84638388D01*
X121328374Y-84629299D01*
X121321066Y-84619446D01*
X121314760Y-84608925D01*
X121309515Y-84597835D01*
X121305382Y-84586286D01*
X121302402Y-84574386D01*
X121300602Y-84562252D01*
X121300000Y-84550000D01*
X121300000Y-83300000D01*
X121300602Y-83287748D01*
X121302402Y-83275614D01*
X121305382Y-83263714D01*
X121309515Y-83252165D01*
X121314760Y-83241075D01*
X121321066Y-83230554D01*
X121328374Y-83220701D01*
X121336612Y-83211612D01*
X121345701Y-83203374D01*
X121355554Y-83196066D01*
X121366075Y-83189760D01*
X121377165Y-83184515D01*
X121388714Y-83180382D01*
X121400614Y-83177402D01*
X121412748Y-83175602D01*
X121425000Y-83175000D01*
X121675000Y-83175000D01*
X121687252Y-83175602D01*
X121687252Y-83175602D01*
G37*
D19*
X121550000Y-83925000D03*
D10*
G36*
X120887252Y-83175602D02*
G01*
X120899386Y-83177402D01*
X120911286Y-83180382D01*
X120922835Y-83184515D01*
X120933925Y-83189760D01*
X120944446Y-83196066D01*
X120954299Y-83203374D01*
X120963388Y-83211612D01*
X120971626Y-83220701D01*
X120978934Y-83230554D01*
X120985240Y-83241075D01*
X120990485Y-83252165D01*
X120994618Y-83263714D01*
X120997598Y-83275614D01*
X120999398Y-83287748D01*
X121000000Y-83300000D01*
X121000000Y-84550000D01*
X120999398Y-84562252D01*
X120997598Y-84574386D01*
X120994618Y-84586286D01*
X120990485Y-84597835D01*
X120985240Y-84608925D01*
X120978934Y-84619446D01*
X120971626Y-84629299D01*
X120963388Y-84638388D01*
X120954299Y-84646626D01*
X120944446Y-84653934D01*
X120933925Y-84660240D01*
X120922835Y-84665485D01*
X120911286Y-84669618D01*
X120899386Y-84672598D01*
X120887252Y-84674398D01*
X120875000Y-84675000D01*
X120625000Y-84675000D01*
X120612748Y-84674398D01*
X120600614Y-84672598D01*
X120588714Y-84669618D01*
X120577165Y-84665485D01*
X120566075Y-84660240D01*
X120555554Y-84653934D01*
X120545701Y-84646626D01*
X120536612Y-84638388D01*
X120528374Y-84629299D01*
X120521066Y-84619446D01*
X120514760Y-84608925D01*
X120509515Y-84597835D01*
X120505382Y-84586286D01*
X120502402Y-84574386D01*
X120500602Y-84562252D01*
X120500000Y-84550000D01*
X120500000Y-83300000D01*
X120500602Y-83287748D01*
X120502402Y-83275614D01*
X120505382Y-83263714D01*
X120509515Y-83252165D01*
X120514760Y-83241075D01*
X120521066Y-83230554D01*
X120528374Y-83220701D01*
X120536612Y-83211612D01*
X120545701Y-83203374D01*
X120555554Y-83196066D01*
X120566075Y-83189760D01*
X120577165Y-83184515D01*
X120588714Y-83180382D01*
X120600614Y-83177402D01*
X120612748Y-83175602D01*
X120625000Y-83175000D01*
X120875000Y-83175000D01*
X120887252Y-83175602D01*
X120887252Y-83175602D01*
G37*
D19*
X120750000Y-83925000D03*
D10*
G36*
X120087252Y-83175602D02*
G01*
X120099386Y-83177402D01*
X120111286Y-83180382D01*
X120122835Y-83184515D01*
X120133925Y-83189760D01*
X120144446Y-83196066D01*
X120154299Y-83203374D01*
X120163388Y-83211612D01*
X120171626Y-83220701D01*
X120178934Y-83230554D01*
X120185240Y-83241075D01*
X120190485Y-83252165D01*
X120194618Y-83263714D01*
X120197598Y-83275614D01*
X120199398Y-83287748D01*
X120200000Y-83300000D01*
X120200000Y-84550000D01*
X120199398Y-84562252D01*
X120197598Y-84574386D01*
X120194618Y-84586286D01*
X120190485Y-84597835D01*
X120185240Y-84608925D01*
X120178934Y-84619446D01*
X120171626Y-84629299D01*
X120163388Y-84638388D01*
X120154299Y-84646626D01*
X120144446Y-84653934D01*
X120133925Y-84660240D01*
X120122835Y-84665485D01*
X120111286Y-84669618D01*
X120099386Y-84672598D01*
X120087252Y-84674398D01*
X120075000Y-84675000D01*
X119825000Y-84675000D01*
X119812748Y-84674398D01*
X119800614Y-84672598D01*
X119788714Y-84669618D01*
X119777165Y-84665485D01*
X119766075Y-84660240D01*
X119755554Y-84653934D01*
X119745701Y-84646626D01*
X119736612Y-84638388D01*
X119728374Y-84629299D01*
X119721066Y-84619446D01*
X119714760Y-84608925D01*
X119709515Y-84597835D01*
X119705382Y-84586286D01*
X119702402Y-84574386D01*
X119700602Y-84562252D01*
X119700000Y-84550000D01*
X119700000Y-83300000D01*
X119700602Y-83287748D01*
X119702402Y-83275614D01*
X119705382Y-83263714D01*
X119709515Y-83252165D01*
X119714760Y-83241075D01*
X119721066Y-83230554D01*
X119728374Y-83220701D01*
X119736612Y-83211612D01*
X119745701Y-83203374D01*
X119755554Y-83196066D01*
X119766075Y-83189760D01*
X119777165Y-83184515D01*
X119788714Y-83180382D01*
X119800614Y-83177402D01*
X119812748Y-83175602D01*
X119825000Y-83175000D01*
X120075000Y-83175000D01*
X120087252Y-83175602D01*
X120087252Y-83175602D01*
G37*
D19*
X119950000Y-83925000D03*
D10*
G36*
X119287252Y-83175602D02*
G01*
X119299386Y-83177402D01*
X119311286Y-83180382D01*
X119322835Y-83184515D01*
X119333925Y-83189760D01*
X119344446Y-83196066D01*
X119354299Y-83203374D01*
X119363388Y-83211612D01*
X119371626Y-83220701D01*
X119378934Y-83230554D01*
X119385240Y-83241075D01*
X119390485Y-83252165D01*
X119394618Y-83263714D01*
X119397598Y-83275614D01*
X119399398Y-83287748D01*
X119400000Y-83300000D01*
X119400000Y-84550000D01*
X119399398Y-84562252D01*
X119397598Y-84574386D01*
X119394618Y-84586286D01*
X119390485Y-84597835D01*
X119385240Y-84608925D01*
X119378934Y-84619446D01*
X119371626Y-84629299D01*
X119363388Y-84638388D01*
X119354299Y-84646626D01*
X119344446Y-84653934D01*
X119333925Y-84660240D01*
X119322835Y-84665485D01*
X119311286Y-84669618D01*
X119299386Y-84672598D01*
X119287252Y-84674398D01*
X119275000Y-84675000D01*
X119025000Y-84675000D01*
X119012748Y-84674398D01*
X119000614Y-84672598D01*
X118988714Y-84669618D01*
X118977165Y-84665485D01*
X118966075Y-84660240D01*
X118955554Y-84653934D01*
X118945701Y-84646626D01*
X118936612Y-84638388D01*
X118928374Y-84629299D01*
X118921066Y-84619446D01*
X118914760Y-84608925D01*
X118909515Y-84597835D01*
X118905382Y-84586286D01*
X118902402Y-84574386D01*
X118900602Y-84562252D01*
X118900000Y-84550000D01*
X118900000Y-83300000D01*
X118900602Y-83287748D01*
X118902402Y-83275614D01*
X118905382Y-83263714D01*
X118909515Y-83252165D01*
X118914760Y-83241075D01*
X118921066Y-83230554D01*
X118928374Y-83220701D01*
X118936612Y-83211612D01*
X118945701Y-83203374D01*
X118955554Y-83196066D01*
X118966075Y-83189760D01*
X118977165Y-83184515D01*
X118988714Y-83180382D01*
X119000614Y-83177402D01*
X119012748Y-83175602D01*
X119025000Y-83175000D01*
X119275000Y-83175000D01*
X119287252Y-83175602D01*
X119287252Y-83175602D01*
G37*
D19*
X119150000Y-83925000D03*
D10*
G36*
X118487252Y-83175602D02*
G01*
X118499386Y-83177402D01*
X118511286Y-83180382D01*
X118522835Y-83184515D01*
X118533925Y-83189760D01*
X118544446Y-83196066D01*
X118554299Y-83203374D01*
X118563388Y-83211612D01*
X118571626Y-83220701D01*
X118578934Y-83230554D01*
X118585240Y-83241075D01*
X118590485Y-83252165D01*
X118594618Y-83263714D01*
X118597598Y-83275614D01*
X118599398Y-83287748D01*
X118600000Y-83300000D01*
X118600000Y-84550000D01*
X118599398Y-84562252D01*
X118597598Y-84574386D01*
X118594618Y-84586286D01*
X118590485Y-84597835D01*
X118585240Y-84608925D01*
X118578934Y-84619446D01*
X118571626Y-84629299D01*
X118563388Y-84638388D01*
X118554299Y-84646626D01*
X118544446Y-84653934D01*
X118533925Y-84660240D01*
X118522835Y-84665485D01*
X118511286Y-84669618D01*
X118499386Y-84672598D01*
X118487252Y-84674398D01*
X118475000Y-84675000D01*
X118225000Y-84675000D01*
X118212748Y-84674398D01*
X118200614Y-84672598D01*
X118188714Y-84669618D01*
X118177165Y-84665485D01*
X118166075Y-84660240D01*
X118155554Y-84653934D01*
X118145701Y-84646626D01*
X118136612Y-84638388D01*
X118128374Y-84629299D01*
X118121066Y-84619446D01*
X118114760Y-84608925D01*
X118109515Y-84597835D01*
X118105382Y-84586286D01*
X118102402Y-84574386D01*
X118100602Y-84562252D01*
X118100000Y-84550000D01*
X118100000Y-83300000D01*
X118100602Y-83287748D01*
X118102402Y-83275614D01*
X118105382Y-83263714D01*
X118109515Y-83252165D01*
X118114760Y-83241075D01*
X118121066Y-83230554D01*
X118128374Y-83220701D01*
X118136612Y-83211612D01*
X118145701Y-83203374D01*
X118155554Y-83196066D01*
X118166075Y-83189760D01*
X118177165Y-83184515D01*
X118188714Y-83180382D01*
X118200614Y-83177402D01*
X118212748Y-83175602D01*
X118225000Y-83175000D01*
X118475000Y-83175000D01*
X118487252Y-83175602D01*
X118487252Y-83175602D01*
G37*
D19*
X118350000Y-83925000D03*
D10*
G36*
X117687252Y-83175602D02*
G01*
X117699386Y-83177402D01*
X117711286Y-83180382D01*
X117722835Y-83184515D01*
X117733925Y-83189760D01*
X117744446Y-83196066D01*
X117754299Y-83203374D01*
X117763388Y-83211612D01*
X117771626Y-83220701D01*
X117778934Y-83230554D01*
X117785240Y-83241075D01*
X117790485Y-83252165D01*
X117794618Y-83263714D01*
X117797598Y-83275614D01*
X117799398Y-83287748D01*
X117800000Y-83300000D01*
X117800000Y-84550000D01*
X117799398Y-84562252D01*
X117797598Y-84574386D01*
X117794618Y-84586286D01*
X117790485Y-84597835D01*
X117785240Y-84608925D01*
X117778934Y-84619446D01*
X117771626Y-84629299D01*
X117763388Y-84638388D01*
X117754299Y-84646626D01*
X117744446Y-84653934D01*
X117733925Y-84660240D01*
X117722835Y-84665485D01*
X117711286Y-84669618D01*
X117699386Y-84672598D01*
X117687252Y-84674398D01*
X117675000Y-84675000D01*
X117425000Y-84675000D01*
X117412748Y-84674398D01*
X117400614Y-84672598D01*
X117388714Y-84669618D01*
X117377165Y-84665485D01*
X117366075Y-84660240D01*
X117355554Y-84653934D01*
X117345701Y-84646626D01*
X117336612Y-84638388D01*
X117328374Y-84629299D01*
X117321066Y-84619446D01*
X117314760Y-84608925D01*
X117309515Y-84597835D01*
X117305382Y-84586286D01*
X117302402Y-84574386D01*
X117300602Y-84562252D01*
X117300000Y-84550000D01*
X117300000Y-83300000D01*
X117300602Y-83287748D01*
X117302402Y-83275614D01*
X117305382Y-83263714D01*
X117309515Y-83252165D01*
X117314760Y-83241075D01*
X117321066Y-83230554D01*
X117328374Y-83220701D01*
X117336612Y-83211612D01*
X117345701Y-83203374D01*
X117355554Y-83196066D01*
X117366075Y-83189760D01*
X117377165Y-83184515D01*
X117388714Y-83180382D01*
X117400614Y-83177402D01*
X117412748Y-83175602D01*
X117425000Y-83175000D01*
X117675000Y-83175000D01*
X117687252Y-83175602D01*
X117687252Y-83175602D01*
G37*
D19*
X117550000Y-83925000D03*
D10*
G36*
X116812252Y-82300602D02*
G01*
X116824386Y-82302402D01*
X116836286Y-82305382D01*
X116847835Y-82309515D01*
X116858925Y-82314760D01*
X116869446Y-82321066D01*
X116879299Y-82328374D01*
X116888388Y-82336612D01*
X116896626Y-82345701D01*
X116903934Y-82355554D01*
X116910240Y-82366075D01*
X116915485Y-82377165D01*
X116919618Y-82388714D01*
X116922598Y-82400614D01*
X116924398Y-82412748D01*
X116925000Y-82425000D01*
X116925000Y-82675000D01*
X116924398Y-82687252D01*
X116922598Y-82699386D01*
X116919618Y-82711286D01*
X116915485Y-82722835D01*
X116910240Y-82733925D01*
X116903934Y-82744446D01*
X116896626Y-82754299D01*
X116888388Y-82763388D01*
X116879299Y-82771626D01*
X116869446Y-82778934D01*
X116858925Y-82785240D01*
X116847835Y-82790485D01*
X116836286Y-82794618D01*
X116824386Y-82797598D01*
X116812252Y-82799398D01*
X116800000Y-82800000D01*
X115550000Y-82800000D01*
X115537748Y-82799398D01*
X115525614Y-82797598D01*
X115513714Y-82794618D01*
X115502165Y-82790485D01*
X115491075Y-82785240D01*
X115480554Y-82778934D01*
X115470701Y-82771626D01*
X115461612Y-82763388D01*
X115453374Y-82754299D01*
X115446066Y-82744446D01*
X115439760Y-82733925D01*
X115434515Y-82722835D01*
X115430382Y-82711286D01*
X115427402Y-82699386D01*
X115425602Y-82687252D01*
X115425000Y-82675000D01*
X115425000Y-82425000D01*
X115425602Y-82412748D01*
X115427402Y-82400614D01*
X115430382Y-82388714D01*
X115434515Y-82377165D01*
X115439760Y-82366075D01*
X115446066Y-82355554D01*
X115453374Y-82345701D01*
X115461612Y-82336612D01*
X115470701Y-82328374D01*
X115480554Y-82321066D01*
X115491075Y-82314760D01*
X115502165Y-82309515D01*
X115513714Y-82305382D01*
X115525614Y-82302402D01*
X115537748Y-82300602D01*
X115550000Y-82300000D01*
X116800000Y-82300000D01*
X116812252Y-82300602D01*
X116812252Y-82300602D01*
G37*
D19*
X116175000Y-82550000D03*
D10*
G36*
X116812252Y-81500602D02*
G01*
X116824386Y-81502402D01*
X116836286Y-81505382D01*
X116847835Y-81509515D01*
X116858925Y-81514760D01*
X116869446Y-81521066D01*
X116879299Y-81528374D01*
X116888388Y-81536612D01*
X116896626Y-81545701D01*
X116903934Y-81555554D01*
X116910240Y-81566075D01*
X116915485Y-81577165D01*
X116919618Y-81588714D01*
X116922598Y-81600614D01*
X116924398Y-81612748D01*
X116925000Y-81625000D01*
X116925000Y-81875000D01*
X116924398Y-81887252D01*
X116922598Y-81899386D01*
X116919618Y-81911286D01*
X116915485Y-81922835D01*
X116910240Y-81933925D01*
X116903934Y-81944446D01*
X116896626Y-81954299D01*
X116888388Y-81963388D01*
X116879299Y-81971626D01*
X116869446Y-81978934D01*
X116858925Y-81985240D01*
X116847835Y-81990485D01*
X116836286Y-81994618D01*
X116824386Y-81997598D01*
X116812252Y-81999398D01*
X116800000Y-82000000D01*
X115550000Y-82000000D01*
X115537748Y-81999398D01*
X115525614Y-81997598D01*
X115513714Y-81994618D01*
X115502165Y-81990485D01*
X115491075Y-81985240D01*
X115480554Y-81978934D01*
X115470701Y-81971626D01*
X115461612Y-81963388D01*
X115453374Y-81954299D01*
X115446066Y-81944446D01*
X115439760Y-81933925D01*
X115434515Y-81922835D01*
X115430382Y-81911286D01*
X115427402Y-81899386D01*
X115425602Y-81887252D01*
X115425000Y-81875000D01*
X115425000Y-81625000D01*
X115425602Y-81612748D01*
X115427402Y-81600614D01*
X115430382Y-81588714D01*
X115434515Y-81577165D01*
X115439760Y-81566075D01*
X115446066Y-81555554D01*
X115453374Y-81545701D01*
X115461612Y-81536612D01*
X115470701Y-81528374D01*
X115480554Y-81521066D01*
X115491075Y-81514760D01*
X115502165Y-81509515D01*
X115513714Y-81505382D01*
X115525614Y-81502402D01*
X115537748Y-81500602D01*
X115550000Y-81500000D01*
X116800000Y-81500000D01*
X116812252Y-81500602D01*
X116812252Y-81500602D01*
G37*
D19*
X116175000Y-81750000D03*
D10*
G36*
X116812252Y-80700602D02*
G01*
X116824386Y-80702402D01*
X116836286Y-80705382D01*
X116847835Y-80709515D01*
X116858925Y-80714760D01*
X116869446Y-80721066D01*
X116879299Y-80728374D01*
X116888388Y-80736612D01*
X116896626Y-80745701D01*
X116903934Y-80755554D01*
X116910240Y-80766075D01*
X116915485Y-80777165D01*
X116919618Y-80788714D01*
X116922598Y-80800614D01*
X116924398Y-80812748D01*
X116925000Y-80825000D01*
X116925000Y-81075000D01*
X116924398Y-81087252D01*
X116922598Y-81099386D01*
X116919618Y-81111286D01*
X116915485Y-81122835D01*
X116910240Y-81133925D01*
X116903934Y-81144446D01*
X116896626Y-81154299D01*
X116888388Y-81163388D01*
X116879299Y-81171626D01*
X116869446Y-81178934D01*
X116858925Y-81185240D01*
X116847835Y-81190485D01*
X116836286Y-81194618D01*
X116824386Y-81197598D01*
X116812252Y-81199398D01*
X116800000Y-81200000D01*
X115550000Y-81200000D01*
X115537748Y-81199398D01*
X115525614Y-81197598D01*
X115513714Y-81194618D01*
X115502165Y-81190485D01*
X115491075Y-81185240D01*
X115480554Y-81178934D01*
X115470701Y-81171626D01*
X115461612Y-81163388D01*
X115453374Y-81154299D01*
X115446066Y-81144446D01*
X115439760Y-81133925D01*
X115434515Y-81122835D01*
X115430382Y-81111286D01*
X115427402Y-81099386D01*
X115425602Y-81087252D01*
X115425000Y-81075000D01*
X115425000Y-80825000D01*
X115425602Y-80812748D01*
X115427402Y-80800614D01*
X115430382Y-80788714D01*
X115434515Y-80777165D01*
X115439760Y-80766075D01*
X115446066Y-80755554D01*
X115453374Y-80745701D01*
X115461612Y-80736612D01*
X115470701Y-80728374D01*
X115480554Y-80721066D01*
X115491075Y-80714760D01*
X115502165Y-80709515D01*
X115513714Y-80705382D01*
X115525614Y-80702402D01*
X115537748Y-80700602D01*
X115550000Y-80700000D01*
X116800000Y-80700000D01*
X116812252Y-80700602D01*
X116812252Y-80700602D01*
G37*
D19*
X116175000Y-80950000D03*
D10*
G36*
X116812252Y-79900602D02*
G01*
X116824386Y-79902402D01*
X116836286Y-79905382D01*
X116847835Y-79909515D01*
X116858925Y-79914760D01*
X116869446Y-79921066D01*
X116879299Y-79928374D01*
X116888388Y-79936612D01*
X116896626Y-79945701D01*
X116903934Y-79955554D01*
X116910240Y-79966075D01*
X116915485Y-79977165D01*
X116919618Y-79988714D01*
X116922598Y-80000614D01*
X116924398Y-80012748D01*
X116925000Y-80025000D01*
X116925000Y-80275000D01*
X116924398Y-80287252D01*
X116922598Y-80299386D01*
X116919618Y-80311286D01*
X116915485Y-80322835D01*
X116910240Y-80333925D01*
X116903934Y-80344446D01*
X116896626Y-80354299D01*
X116888388Y-80363388D01*
X116879299Y-80371626D01*
X116869446Y-80378934D01*
X116858925Y-80385240D01*
X116847835Y-80390485D01*
X116836286Y-80394618D01*
X116824386Y-80397598D01*
X116812252Y-80399398D01*
X116800000Y-80400000D01*
X115550000Y-80400000D01*
X115537748Y-80399398D01*
X115525614Y-80397598D01*
X115513714Y-80394618D01*
X115502165Y-80390485D01*
X115491075Y-80385240D01*
X115480554Y-80378934D01*
X115470701Y-80371626D01*
X115461612Y-80363388D01*
X115453374Y-80354299D01*
X115446066Y-80344446D01*
X115439760Y-80333925D01*
X115434515Y-80322835D01*
X115430382Y-80311286D01*
X115427402Y-80299386D01*
X115425602Y-80287252D01*
X115425000Y-80275000D01*
X115425000Y-80025000D01*
X115425602Y-80012748D01*
X115427402Y-80000614D01*
X115430382Y-79988714D01*
X115434515Y-79977165D01*
X115439760Y-79966075D01*
X115446066Y-79955554D01*
X115453374Y-79945701D01*
X115461612Y-79936612D01*
X115470701Y-79928374D01*
X115480554Y-79921066D01*
X115491075Y-79914760D01*
X115502165Y-79909515D01*
X115513714Y-79905382D01*
X115525614Y-79902402D01*
X115537748Y-79900602D01*
X115550000Y-79900000D01*
X116800000Y-79900000D01*
X116812252Y-79900602D01*
X116812252Y-79900602D01*
G37*
D19*
X116175000Y-80150000D03*
D10*
G36*
X116812252Y-79100602D02*
G01*
X116824386Y-79102402D01*
X116836286Y-79105382D01*
X116847835Y-79109515D01*
X116858925Y-79114760D01*
X116869446Y-79121066D01*
X116879299Y-79128374D01*
X116888388Y-79136612D01*
X116896626Y-79145701D01*
X116903934Y-79155554D01*
X116910240Y-79166075D01*
X116915485Y-79177165D01*
X116919618Y-79188714D01*
X116922598Y-79200614D01*
X116924398Y-79212748D01*
X116925000Y-79225000D01*
X116925000Y-79475000D01*
X116924398Y-79487252D01*
X116922598Y-79499386D01*
X116919618Y-79511286D01*
X116915485Y-79522835D01*
X116910240Y-79533925D01*
X116903934Y-79544446D01*
X116896626Y-79554299D01*
X116888388Y-79563388D01*
X116879299Y-79571626D01*
X116869446Y-79578934D01*
X116858925Y-79585240D01*
X116847835Y-79590485D01*
X116836286Y-79594618D01*
X116824386Y-79597598D01*
X116812252Y-79599398D01*
X116800000Y-79600000D01*
X115550000Y-79600000D01*
X115537748Y-79599398D01*
X115525614Y-79597598D01*
X115513714Y-79594618D01*
X115502165Y-79590485D01*
X115491075Y-79585240D01*
X115480554Y-79578934D01*
X115470701Y-79571626D01*
X115461612Y-79563388D01*
X115453374Y-79554299D01*
X115446066Y-79544446D01*
X115439760Y-79533925D01*
X115434515Y-79522835D01*
X115430382Y-79511286D01*
X115427402Y-79499386D01*
X115425602Y-79487252D01*
X115425000Y-79475000D01*
X115425000Y-79225000D01*
X115425602Y-79212748D01*
X115427402Y-79200614D01*
X115430382Y-79188714D01*
X115434515Y-79177165D01*
X115439760Y-79166075D01*
X115446066Y-79155554D01*
X115453374Y-79145701D01*
X115461612Y-79136612D01*
X115470701Y-79128374D01*
X115480554Y-79121066D01*
X115491075Y-79114760D01*
X115502165Y-79109515D01*
X115513714Y-79105382D01*
X115525614Y-79102402D01*
X115537748Y-79100602D01*
X115550000Y-79100000D01*
X116800000Y-79100000D01*
X116812252Y-79100602D01*
X116812252Y-79100602D01*
G37*
D19*
X116175000Y-79350000D03*
D10*
G36*
X116812252Y-78300602D02*
G01*
X116824386Y-78302402D01*
X116836286Y-78305382D01*
X116847835Y-78309515D01*
X116858925Y-78314760D01*
X116869446Y-78321066D01*
X116879299Y-78328374D01*
X116888388Y-78336612D01*
X116896626Y-78345701D01*
X116903934Y-78355554D01*
X116910240Y-78366075D01*
X116915485Y-78377165D01*
X116919618Y-78388714D01*
X116922598Y-78400614D01*
X116924398Y-78412748D01*
X116925000Y-78425000D01*
X116925000Y-78675000D01*
X116924398Y-78687252D01*
X116922598Y-78699386D01*
X116919618Y-78711286D01*
X116915485Y-78722835D01*
X116910240Y-78733925D01*
X116903934Y-78744446D01*
X116896626Y-78754299D01*
X116888388Y-78763388D01*
X116879299Y-78771626D01*
X116869446Y-78778934D01*
X116858925Y-78785240D01*
X116847835Y-78790485D01*
X116836286Y-78794618D01*
X116824386Y-78797598D01*
X116812252Y-78799398D01*
X116800000Y-78800000D01*
X115550000Y-78800000D01*
X115537748Y-78799398D01*
X115525614Y-78797598D01*
X115513714Y-78794618D01*
X115502165Y-78790485D01*
X115491075Y-78785240D01*
X115480554Y-78778934D01*
X115470701Y-78771626D01*
X115461612Y-78763388D01*
X115453374Y-78754299D01*
X115446066Y-78744446D01*
X115439760Y-78733925D01*
X115434515Y-78722835D01*
X115430382Y-78711286D01*
X115427402Y-78699386D01*
X115425602Y-78687252D01*
X115425000Y-78675000D01*
X115425000Y-78425000D01*
X115425602Y-78412748D01*
X115427402Y-78400614D01*
X115430382Y-78388714D01*
X115434515Y-78377165D01*
X115439760Y-78366075D01*
X115446066Y-78355554D01*
X115453374Y-78345701D01*
X115461612Y-78336612D01*
X115470701Y-78328374D01*
X115480554Y-78321066D01*
X115491075Y-78314760D01*
X115502165Y-78309515D01*
X115513714Y-78305382D01*
X115525614Y-78302402D01*
X115537748Y-78300602D01*
X115550000Y-78300000D01*
X116800000Y-78300000D01*
X116812252Y-78300602D01*
X116812252Y-78300602D01*
G37*
D19*
X116175000Y-78550000D03*
D10*
G36*
X116812252Y-77500602D02*
G01*
X116824386Y-77502402D01*
X116836286Y-77505382D01*
X116847835Y-77509515D01*
X116858925Y-77514760D01*
X116869446Y-77521066D01*
X116879299Y-77528374D01*
X116888388Y-77536612D01*
X116896626Y-77545701D01*
X116903934Y-77555554D01*
X116910240Y-77566075D01*
X116915485Y-77577165D01*
X116919618Y-77588714D01*
X116922598Y-77600614D01*
X116924398Y-77612748D01*
X116925000Y-77625000D01*
X116925000Y-77875000D01*
X116924398Y-77887252D01*
X116922598Y-77899386D01*
X116919618Y-77911286D01*
X116915485Y-77922835D01*
X116910240Y-77933925D01*
X116903934Y-77944446D01*
X116896626Y-77954299D01*
X116888388Y-77963388D01*
X116879299Y-77971626D01*
X116869446Y-77978934D01*
X116858925Y-77985240D01*
X116847835Y-77990485D01*
X116836286Y-77994618D01*
X116824386Y-77997598D01*
X116812252Y-77999398D01*
X116800000Y-78000000D01*
X115550000Y-78000000D01*
X115537748Y-77999398D01*
X115525614Y-77997598D01*
X115513714Y-77994618D01*
X115502165Y-77990485D01*
X115491075Y-77985240D01*
X115480554Y-77978934D01*
X115470701Y-77971626D01*
X115461612Y-77963388D01*
X115453374Y-77954299D01*
X115446066Y-77944446D01*
X115439760Y-77933925D01*
X115434515Y-77922835D01*
X115430382Y-77911286D01*
X115427402Y-77899386D01*
X115425602Y-77887252D01*
X115425000Y-77875000D01*
X115425000Y-77625000D01*
X115425602Y-77612748D01*
X115427402Y-77600614D01*
X115430382Y-77588714D01*
X115434515Y-77577165D01*
X115439760Y-77566075D01*
X115446066Y-77555554D01*
X115453374Y-77545701D01*
X115461612Y-77536612D01*
X115470701Y-77528374D01*
X115480554Y-77521066D01*
X115491075Y-77514760D01*
X115502165Y-77509515D01*
X115513714Y-77505382D01*
X115525614Y-77502402D01*
X115537748Y-77500602D01*
X115550000Y-77500000D01*
X116800000Y-77500000D01*
X116812252Y-77500602D01*
X116812252Y-77500602D01*
G37*
D19*
X116175000Y-77750000D03*
D10*
G36*
X116812252Y-76700602D02*
G01*
X116824386Y-76702402D01*
X116836286Y-76705382D01*
X116847835Y-76709515D01*
X116858925Y-76714760D01*
X116869446Y-76721066D01*
X116879299Y-76728374D01*
X116888388Y-76736612D01*
X116896626Y-76745701D01*
X116903934Y-76755554D01*
X116910240Y-76766075D01*
X116915485Y-76777165D01*
X116919618Y-76788714D01*
X116922598Y-76800614D01*
X116924398Y-76812748D01*
X116925000Y-76825000D01*
X116925000Y-77075000D01*
X116924398Y-77087252D01*
X116922598Y-77099386D01*
X116919618Y-77111286D01*
X116915485Y-77122835D01*
X116910240Y-77133925D01*
X116903934Y-77144446D01*
X116896626Y-77154299D01*
X116888388Y-77163388D01*
X116879299Y-77171626D01*
X116869446Y-77178934D01*
X116858925Y-77185240D01*
X116847835Y-77190485D01*
X116836286Y-77194618D01*
X116824386Y-77197598D01*
X116812252Y-77199398D01*
X116800000Y-77200000D01*
X115550000Y-77200000D01*
X115537748Y-77199398D01*
X115525614Y-77197598D01*
X115513714Y-77194618D01*
X115502165Y-77190485D01*
X115491075Y-77185240D01*
X115480554Y-77178934D01*
X115470701Y-77171626D01*
X115461612Y-77163388D01*
X115453374Y-77154299D01*
X115446066Y-77144446D01*
X115439760Y-77133925D01*
X115434515Y-77122835D01*
X115430382Y-77111286D01*
X115427402Y-77099386D01*
X115425602Y-77087252D01*
X115425000Y-77075000D01*
X115425000Y-76825000D01*
X115425602Y-76812748D01*
X115427402Y-76800614D01*
X115430382Y-76788714D01*
X115434515Y-76777165D01*
X115439760Y-76766075D01*
X115446066Y-76755554D01*
X115453374Y-76745701D01*
X115461612Y-76736612D01*
X115470701Y-76728374D01*
X115480554Y-76721066D01*
X115491075Y-76714760D01*
X115502165Y-76709515D01*
X115513714Y-76705382D01*
X115525614Y-76702402D01*
X115537748Y-76700602D01*
X115550000Y-76700000D01*
X116800000Y-76700000D01*
X116812252Y-76700602D01*
X116812252Y-76700602D01*
G37*
D19*
X116175000Y-76950000D03*
D10*
G36*
X131980142Y-66326174D02*
G01*
X132003803Y-66329684D01*
X132027007Y-66335496D01*
X132049529Y-66343554D01*
X132071153Y-66353782D01*
X132091670Y-66366079D01*
X132110883Y-66380329D01*
X132128607Y-66396393D01*
X132144671Y-66414117D01*
X132158921Y-66433330D01*
X132171218Y-66453847D01*
X132181446Y-66475471D01*
X132189504Y-66497993D01*
X132195316Y-66521197D01*
X132198826Y-66544858D01*
X132200000Y-66568750D01*
X132200000Y-67056250D01*
X132198826Y-67080142D01*
X132195316Y-67103803D01*
X132189504Y-67127007D01*
X132181446Y-67149529D01*
X132171218Y-67171153D01*
X132158921Y-67191670D01*
X132144671Y-67210883D01*
X132128607Y-67228607D01*
X132110883Y-67244671D01*
X132091670Y-67258921D01*
X132071153Y-67271218D01*
X132049529Y-67281446D01*
X132027007Y-67289504D01*
X132003803Y-67295316D01*
X131980142Y-67298826D01*
X131956250Y-67300000D01*
X131043750Y-67300000D01*
X131019858Y-67298826D01*
X130996197Y-67295316D01*
X130972993Y-67289504D01*
X130950471Y-67281446D01*
X130928847Y-67271218D01*
X130908330Y-67258921D01*
X130889117Y-67244671D01*
X130871393Y-67228607D01*
X130855329Y-67210883D01*
X130841079Y-67191670D01*
X130828782Y-67171153D01*
X130818554Y-67149529D01*
X130810496Y-67127007D01*
X130804684Y-67103803D01*
X130801174Y-67080142D01*
X130800000Y-67056250D01*
X130800000Y-66568750D01*
X130801174Y-66544858D01*
X130804684Y-66521197D01*
X130810496Y-66497993D01*
X130818554Y-66475471D01*
X130828782Y-66453847D01*
X130841079Y-66433330D01*
X130855329Y-66414117D01*
X130871393Y-66396393D01*
X130889117Y-66380329D01*
X130908330Y-66366079D01*
X130928847Y-66353782D01*
X130950471Y-66343554D01*
X130972993Y-66335496D01*
X130996197Y-66329684D01*
X131019858Y-66326174D01*
X131043750Y-66325000D01*
X131956250Y-66325000D01*
X131980142Y-66326174D01*
X131980142Y-66326174D01*
G37*
D20*
X131500000Y-66812500D03*
D10*
G36*
X131980142Y-68201174D02*
G01*
X132003803Y-68204684D01*
X132027007Y-68210496D01*
X132049529Y-68218554D01*
X132071153Y-68228782D01*
X132091670Y-68241079D01*
X132110883Y-68255329D01*
X132128607Y-68271393D01*
X132144671Y-68289117D01*
X132158921Y-68308330D01*
X132171218Y-68328847D01*
X132181446Y-68350471D01*
X132189504Y-68372993D01*
X132195316Y-68396197D01*
X132198826Y-68419858D01*
X132200000Y-68443750D01*
X132200000Y-68931250D01*
X132198826Y-68955142D01*
X132195316Y-68978803D01*
X132189504Y-69002007D01*
X132181446Y-69024529D01*
X132171218Y-69046153D01*
X132158921Y-69066670D01*
X132144671Y-69085883D01*
X132128607Y-69103607D01*
X132110883Y-69119671D01*
X132091670Y-69133921D01*
X132071153Y-69146218D01*
X132049529Y-69156446D01*
X132027007Y-69164504D01*
X132003803Y-69170316D01*
X131980142Y-69173826D01*
X131956250Y-69175000D01*
X131043750Y-69175000D01*
X131019858Y-69173826D01*
X130996197Y-69170316D01*
X130972993Y-69164504D01*
X130950471Y-69156446D01*
X130928847Y-69146218D01*
X130908330Y-69133921D01*
X130889117Y-69119671D01*
X130871393Y-69103607D01*
X130855329Y-69085883D01*
X130841079Y-69066670D01*
X130828782Y-69046153D01*
X130818554Y-69024529D01*
X130810496Y-69002007D01*
X130804684Y-68978803D01*
X130801174Y-68955142D01*
X130800000Y-68931250D01*
X130800000Y-68443750D01*
X130801174Y-68419858D01*
X130804684Y-68396197D01*
X130810496Y-68372993D01*
X130818554Y-68350471D01*
X130828782Y-68328847D01*
X130841079Y-68308330D01*
X130855329Y-68289117D01*
X130871393Y-68271393D01*
X130889117Y-68255329D01*
X130908330Y-68241079D01*
X130928847Y-68228782D01*
X130950471Y-68218554D01*
X130972993Y-68210496D01*
X130996197Y-68204684D01*
X131019858Y-68201174D01*
X131043750Y-68200000D01*
X131956250Y-68200000D01*
X131980142Y-68201174D01*
X131980142Y-68201174D01*
G37*
D20*
X131500000Y-68687500D03*
D10*
G36*
X114177691Y-64326053D02*
G01*
X114198926Y-64329203D01*
X114219750Y-64334419D01*
X114239962Y-64341651D01*
X114259368Y-64350830D01*
X114277781Y-64361866D01*
X114295024Y-64374654D01*
X114310930Y-64389070D01*
X114325346Y-64404976D01*
X114338134Y-64422219D01*
X114349170Y-64440632D01*
X114358349Y-64460038D01*
X114365581Y-64480250D01*
X114370797Y-64501074D01*
X114373947Y-64522309D01*
X114375000Y-64543750D01*
X114375000Y-64981250D01*
X114373947Y-65002691D01*
X114370797Y-65023926D01*
X114365581Y-65044750D01*
X114358349Y-65064962D01*
X114349170Y-65084368D01*
X114338134Y-65102781D01*
X114325346Y-65120024D01*
X114310930Y-65135930D01*
X114295024Y-65150346D01*
X114277781Y-65163134D01*
X114259368Y-65174170D01*
X114239962Y-65183349D01*
X114219750Y-65190581D01*
X114198926Y-65195797D01*
X114177691Y-65198947D01*
X114156250Y-65200000D01*
X113643750Y-65200000D01*
X113622309Y-65198947D01*
X113601074Y-65195797D01*
X113580250Y-65190581D01*
X113560038Y-65183349D01*
X113540632Y-65174170D01*
X113522219Y-65163134D01*
X113504976Y-65150346D01*
X113489070Y-65135930D01*
X113474654Y-65120024D01*
X113461866Y-65102781D01*
X113450830Y-65084368D01*
X113441651Y-65064962D01*
X113434419Y-65044750D01*
X113429203Y-65023926D01*
X113426053Y-65002691D01*
X113425000Y-64981250D01*
X113425000Y-64543750D01*
X113426053Y-64522309D01*
X113429203Y-64501074D01*
X113434419Y-64480250D01*
X113441651Y-64460038D01*
X113450830Y-64440632D01*
X113461866Y-64422219D01*
X113474654Y-64404976D01*
X113489070Y-64389070D01*
X113504976Y-64374654D01*
X113522219Y-64361866D01*
X113540632Y-64350830D01*
X113560038Y-64341651D01*
X113580250Y-64334419D01*
X113601074Y-64329203D01*
X113622309Y-64326053D01*
X113643750Y-64325000D01*
X114156250Y-64325000D01*
X114177691Y-64326053D01*
X114177691Y-64326053D01*
G37*
D11*
X113900000Y-64762500D03*
D10*
G36*
X114177691Y-65901053D02*
G01*
X114198926Y-65904203D01*
X114219750Y-65909419D01*
X114239962Y-65916651D01*
X114259368Y-65925830D01*
X114277781Y-65936866D01*
X114295024Y-65949654D01*
X114310930Y-65964070D01*
X114325346Y-65979976D01*
X114338134Y-65997219D01*
X114349170Y-66015632D01*
X114358349Y-66035038D01*
X114365581Y-66055250D01*
X114370797Y-66076074D01*
X114373947Y-66097309D01*
X114375000Y-66118750D01*
X114375000Y-66556250D01*
X114373947Y-66577691D01*
X114370797Y-66598926D01*
X114365581Y-66619750D01*
X114358349Y-66639962D01*
X114349170Y-66659368D01*
X114338134Y-66677781D01*
X114325346Y-66695024D01*
X114310930Y-66710930D01*
X114295024Y-66725346D01*
X114277781Y-66738134D01*
X114259368Y-66749170D01*
X114239962Y-66758349D01*
X114219750Y-66765581D01*
X114198926Y-66770797D01*
X114177691Y-66773947D01*
X114156250Y-66775000D01*
X113643750Y-66775000D01*
X113622309Y-66773947D01*
X113601074Y-66770797D01*
X113580250Y-66765581D01*
X113560038Y-66758349D01*
X113540632Y-66749170D01*
X113522219Y-66738134D01*
X113504976Y-66725346D01*
X113489070Y-66710930D01*
X113474654Y-66695024D01*
X113461866Y-66677781D01*
X113450830Y-66659368D01*
X113441651Y-66639962D01*
X113434419Y-66619750D01*
X113429203Y-66598926D01*
X113426053Y-66577691D01*
X113425000Y-66556250D01*
X113425000Y-66118750D01*
X113426053Y-66097309D01*
X113429203Y-66076074D01*
X113434419Y-66055250D01*
X113441651Y-66035038D01*
X113450830Y-66015632D01*
X113461866Y-65997219D01*
X113474654Y-65979976D01*
X113489070Y-65964070D01*
X113504976Y-65949654D01*
X113522219Y-65936866D01*
X113540632Y-65925830D01*
X113560038Y-65916651D01*
X113580250Y-65909419D01*
X113601074Y-65904203D01*
X113622309Y-65901053D01*
X113643750Y-65900000D01*
X114156250Y-65900000D01*
X114177691Y-65901053D01*
X114177691Y-65901053D01*
G37*
D11*
X113900000Y-66337500D03*
D10*
G36*
X108927691Y-72076053D02*
G01*
X108948926Y-72079203D01*
X108969750Y-72084419D01*
X108989962Y-72091651D01*
X109009368Y-72100830D01*
X109027781Y-72111866D01*
X109045024Y-72124654D01*
X109060930Y-72139070D01*
X109075346Y-72154976D01*
X109088134Y-72172219D01*
X109099170Y-72190632D01*
X109108349Y-72210038D01*
X109115581Y-72230250D01*
X109120797Y-72251074D01*
X109123947Y-72272309D01*
X109125000Y-72293750D01*
X109125000Y-72731250D01*
X109123947Y-72752691D01*
X109120797Y-72773926D01*
X109115581Y-72794750D01*
X109108349Y-72814962D01*
X109099170Y-72834368D01*
X109088134Y-72852781D01*
X109075346Y-72870024D01*
X109060930Y-72885930D01*
X109045024Y-72900346D01*
X109027781Y-72913134D01*
X109009368Y-72924170D01*
X108989962Y-72933349D01*
X108969750Y-72940581D01*
X108948926Y-72945797D01*
X108927691Y-72948947D01*
X108906250Y-72950000D01*
X108393750Y-72950000D01*
X108372309Y-72948947D01*
X108351074Y-72945797D01*
X108330250Y-72940581D01*
X108310038Y-72933349D01*
X108290632Y-72924170D01*
X108272219Y-72913134D01*
X108254976Y-72900346D01*
X108239070Y-72885930D01*
X108224654Y-72870024D01*
X108211866Y-72852781D01*
X108200830Y-72834368D01*
X108191651Y-72814962D01*
X108184419Y-72794750D01*
X108179203Y-72773926D01*
X108176053Y-72752691D01*
X108175000Y-72731250D01*
X108175000Y-72293750D01*
X108176053Y-72272309D01*
X108179203Y-72251074D01*
X108184419Y-72230250D01*
X108191651Y-72210038D01*
X108200830Y-72190632D01*
X108211866Y-72172219D01*
X108224654Y-72154976D01*
X108239070Y-72139070D01*
X108254976Y-72124654D01*
X108272219Y-72111866D01*
X108290632Y-72100830D01*
X108310038Y-72091651D01*
X108330250Y-72084419D01*
X108351074Y-72079203D01*
X108372309Y-72076053D01*
X108393750Y-72075000D01*
X108906250Y-72075000D01*
X108927691Y-72076053D01*
X108927691Y-72076053D01*
G37*
D11*
X108650000Y-72512500D03*
D10*
G36*
X108927691Y-73651053D02*
G01*
X108948926Y-73654203D01*
X108969750Y-73659419D01*
X108989962Y-73666651D01*
X109009368Y-73675830D01*
X109027781Y-73686866D01*
X109045024Y-73699654D01*
X109060930Y-73714070D01*
X109075346Y-73729976D01*
X109088134Y-73747219D01*
X109099170Y-73765632D01*
X109108349Y-73785038D01*
X109115581Y-73805250D01*
X109120797Y-73826074D01*
X109123947Y-73847309D01*
X109125000Y-73868750D01*
X109125000Y-74306250D01*
X109123947Y-74327691D01*
X109120797Y-74348926D01*
X109115581Y-74369750D01*
X109108349Y-74389962D01*
X109099170Y-74409368D01*
X109088134Y-74427781D01*
X109075346Y-74445024D01*
X109060930Y-74460930D01*
X109045024Y-74475346D01*
X109027781Y-74488134D01*
X109009368Y-74499170D01*
X108989962Y-74508349D01*
X108969750Y-74515581D01*
X108948926Y-74520797D01*
X108927691Y-74523947D01*
X108906250Y-74525000D01*
X108393750Y-74525000D01*
X108372309Y-74523947D01*
X108351074Y-74520797D01*
X108330250Y-74515581D01*
X108310038Y-74508349D01*
X108290632Y-74499170D01*
X108272219Y-74488134D01*
X108254976Y-74475346D01*
X108239070Y-74460930D01*
X108224654Y-74445024D01*
X108211866Y-74427781D01*
X108200830Y-74409368D01*
X108191651Y-74389962D01*
X108184419Y-74369750D01*
X108179203Y-74348926D01*
X108176053Y-74327691D01*
X108175000Y-74306250D01*
X108175000Y-73868750D01*
X108176053Y-73847309D01*
X108179203Y-73826074D01*
X108184419Y-73805250D01*
X108191651Y-73785038D01*
X108200830Y-73765632D01*
X108211866Y-73747219D01*
X108224654Y-73729976D01*
X108239070Y-73714070D01*
X108254976Y-73699654D01*
X108272219Y-73686866D01*
X108290632Y-73675830D01*
X108310038Y-73666651D01*
X108330250Y-73659419D01*
X108351074Y-73654203D01*
X108372309Y-73651053D01*
X108393750Y-73650000D01*
X108906250Y-73650000D01*
X108927691Y-73651053D01*
X108927691Y-73651053D01*
G37*
D11*
X108650000Y-74087500D03*
D10*
G36*
X128777691Y-68101053D02*
G01*
X128798926Y-68104203D01*
X128819750Y-68109419D01*
X128839962Y-68116651D01*
X128859368Y-68125830D01*
X128877781Y-68136866D01*
X128895024Y-68149654D01*
X128910930Y-68164070D01*
X128925346Y-68179976D01*
X128938134Y-68197219D01*
X128949170Y-68215632D01*
X128958349Y-68235038D01*
X128965581Y-68255250D01*
X128970797Y-68276074D01*
X128973947Y-68297309D01*
X128975000Y-68318750D01*
X128975000Y-68756250D01*
X128973947Y-68777691D01*
X128970797Y-68798926D01*
X128965581Y-68819750D01*
X128958349Y-68839962D01*
X128949170Y-68859368D01*
X128938134Y-68877781D01*
X128925346Y-68895024D01*
X128910930Y-68910930D01*
X128895024Y-68925346D01*
X128877781Y-68938134D01*
X128859368Y-68949170D01*
X128839962Y-68958349D01*
X128819750Y-68965581D01*
X128798926Y-68970797D01*
X128777691Y-68973947D01*
X128756250Y-68975000D01*
X128243750Y-68975000D01*
X128222309Y-68973947D01*
X128201074Y-68970797D01*
X128180250Y-68965581D01*
X128160038Y-68958349D01*
X128140632Y-68949170D01*
X128122219Y-68938134D01*
X128104976Y-68925346D01*
X128089070Y-68910930D01*
X128074654Y-68895024D01*
X128061866Y-68877781D01*
X128050830Y-68859368D01*
X128041651Y-68839962D01*
X128034419Y-68819750D01*
X128029203Y-68798926D01*
X128026053Y-68777691D01*
X128025000Y-68756250D01*
X128025000Y-68318750D01*
X128026053Y-68297309D01*
X128029203Y-68276074D01*
X128034419Y-68255250D01*
X128041651Y-68235038D01*
X128050830Y-68215632D01*
X128061866Y-68197219D01*
X128074654Y-68179976D01*
X128089070Y-68164070D01*
X128104976Y-68149654D01*
X128122219Y-68136866D01*
X128140632Y-68125830D01*
X128160038Y-68116651D01*
X128180250Y-68109419D01*
X128201074Y-68104203D01*
X128222309Y-68101053D01*
X128243750Y-68100000D01*
X128756250Y-68100000D01*
X128777691Y-68101053D01*
X128777691Y-68101053D01*
G37*
D11*
X128500000Y-68537500D03*
D10*
G36*
X128777691Y-66526053D02*
G01*
X128798926Y-66529203D01*
X128819750Y-66534419D01*
X128839962Y-66541651D01*
X128859368Y-66550830D01*
X128877781Y-66561866D01*
X128895024Y-66574654D01*
X128910930Y-66589070D01*
X128925346Y-66604976D01*
X128938134Y-66622219D01*
X128949170Y-66640632D01*
X128958349Y-66660038D01*
X128965581Y-66680250D01*
X128970797Y-66701074D01*
X128973947Y-66722309D01*
X128975000Y-66743750D01*
X128975000Y-67181250D01*
X128973947Y-67202691D01*
X128970797Y-67223926D01*
X128965581Y-67244750D01*
X128958349Y-67264962D01*
X128949170Y-67284368D01*
X128938134Y-67302781D01*
X128925346Y-67320024D01*
X128910930Y-67335930D01*
X128895024Y-67350346D01*
X128877781Y-67363134D01*
X128859368Y-67374170D01*
X128839962Y-67383349D01*
X128819750Y-67390581D01*
X128798926Y-67395797D01*
X128777691Y-67398947D01*
X128756250Y-67400000D01*
X128243750Y-67400000D01*
X128222309Y-67398947D01*
X128201074Y-67395797D01*
X128180250Y-67390581D01*
X128160038Y-67383349D01*
X128140632Y-67374170D01*
X128122219Y-67363134D01*
X128104976Y-67350346D01*
X128089070Y-67335930D01*
X128074654Y-67320024D01*
X128061866Y-67302781D01*
X128050830Y-67284368D01*
X128041651Y-67264962D01*
X128034419Y-67244750D01*
X128029203Y-67223926D01*
X128026053Y-67202691D01*
X128025000Y-67181250D01*
X128025000Y-66743750D01*
X128026053Y-66722309D01*
X128029203Y-66701074D01*
X128034419Y-66680250D01*
X128041651Y-66660038D01*
X128050830Y-66640632D01*
X128061866Y-66622219D01*
X128074654Y-66604976D01*
X128089070Y-66589070D01*
X128104976Y-66574654D01*
X128122219Y-66561866D01*
X128140632Y-66550830D01*
X128160038Y-66541651D01*
X128180250Y-66534419D01*
X128201074Y-66529203D01*
X128222309Y-66526053D01*
X128243750Y-66525000D01*
X128756250Y-66525000D01*
X128777691Y-66526053D01*
X128777691Y-66526053D01*
G37*
D11*
X128500000Y-66962500D03*
D10*
G36*
X126777691Y-68101053D02*
G01*
X126798926Y-68104203D01*
X126819750Y-68109419D01*
X126839962Y-68116651D01*
X126859368Y-68125830D01*
X126877781Y-68136866D01*
X126895024Y-68149654D01*
X126910930Y-68164070D01*
X126925346Y-68179976D01*
X126938134Y-68197219D01*
X126949170Y-68215632D01*
X126958349Y-68235038D01*
X126965581Y-68255250D01*
X126970797Y-68276074D01*
X126973947Y-68297309D01*
X126975000Y-68318750D01*
X126975000Y-68756250D01*
X126973947Y-68777691D01*
X126970797Y-68798926D01*
X126965581Y-68819750D01*
X126958349Y-68839962D01*
X126949170Y-68859368D01*
X126938134Y-68877781D01*
X126925346Y-68895024D01*
X126910930Y-68910930D01*
X126895024Y-68925346D01*
X126877781Y-68938134D01*
X126859368Y-68949170D01*
X126839962Y-68958349D01*
X126819750Y-68965581D01*
X126798926Y-68970797D01*
X126777691Y-68973947D01*
X126756250Y-68975000D01*
X126243750Y-68975000D01*
X126222309Y-68973947D01*
X126201074Y-68970797D01*
X126180250Y-68965581D01*
X126160038Y-68958349D01*
X126140632Y-68949170D01*
X126122219Y-68938134D01*
X126104976Y-68925346D01*
X126089070Y-68910930D01*
X126074654Y-68895024D01*
X126061866Y-68877781D01*
X126050830Y-68859368D01*
X126041651Y-68839962D01*
X126034419Y-68819750D01*
X126029203Y-68798926D01*
X126026053Y-68777691D01*
X126025000Y-68756250D01*
X126025000Y-68318750D01*
X126026053Y-68297309D01*
X126029203Y-68276074D01*
X126034419Y-68255250D01*
X126041651Y-68235038D01*
X126050830Y-68215632D01*
X126061866Y-68197219D01*
X126074654Y-68179976D01*
X126089070Y-68164070D01*
X126104976Y-68149654D01*
X126122219Y-68136866D01*
X126140632Y-68125830D01*
X126160038Y-68116651D01*
X126180250Y-68109419D01*
X126201074Y-68104203D01*
X126222309Y-68101053D01*
X126243750Y-68100000D01*
X126756250Y-68100000D01*
X126777691Y-68101053D01*
X126777691Y-68101053D01*
G37*
D11*
X126500000Y-68537500D03*
D10*
G36*
X126777691Y-66526053D02*
G01*
X126798926Y-66529203D01*
X126819750Y-66534419D01*
X126839962Y-66541651D01*
X126859368Y-66550830D01*
X126877781Y-66561866D01*
X126895024Y-66574654D01*
X126910930Y-66589070D01*
X126925346Y-66604976D01*
X126938134Y-66622219D01*
X126949170Y-66640632D01*
X126958349Y-66660038D01*
X126965581Y-66680250D01*
X126970797Y-66701074D01*
X126973947Y-66722309D01*
X126975000Y-66743750D01*
X126975000Y-67181250D01*
X126973947Y-67202691D01*
X126970797Y-67223926D01*
X126965581Y-67244750D01*
X126958349Y-67264962D01*
X126949170Y-67284368D01*
X126938134Y-67302781D01*
X126925346Y-67320024D01*
X126910930Y-67335930D01*
X126895024Y-67350346D01*
X126877781Y-67363134D01*
X126859368Y-67374170D01*
X126839962Y-67383349D01*
X126819750Y-67390581D01*
X126798926Y-67395797D01*
X126777691Y-67398947D01*
X126756250Y-67400000D01*
X126243750Y-67400000D01*
X126222309Y-67398947D01*
X126201074Y-67395797D01*
X126180250Y-67390581D01*
X126160038Y-67383349D01*
X126140632Y-67374170D01*
X126122219Y-67363134D01*
X126104976Y-67350346D01*
X126089070Y-67335930D01*
X126074654Y-67320024D01*
X126061866Y-67302781D01*
X126050830Y-67284368D01*
X126041651Y-67264962D01*
X126034419Y-67244750D01*
X126029203Y-67223926D01*
X126026053Y-67202691D01*
X126025000Y-67181250D01*
X126025000Y-66743750D01*
X126026053Y-66722309D01*
X126029203Y-66701074D01*
X126034419Y-66680250D01*
X126041651Y-66660038D01*
X126050830Y-66640632D01*
X126061866Y-66622219D01*
X126074654Y-66604976D01*
X126089070Y-66589070D01*
X126104976Y-66574654D01*
X126122219Y-66561866D01*
X126140632Y-66550830D01*
X126160038Y-66541651D01*
X126180250Y-66534419D01*
X126201074Y-66529203D01*
X126222309Y-66526053D01*
X126243750Y-66525000D01*
X126756250Y-66525000D01*
X126777691Y-66526053D01*
X126777691Y-66526053D01*
G37*
D11*
X126500000Y-66962500D03*
D10*
G36*
X116127691Y-73276053D02*
G01*
X116148926Y-73279203D01*
X116169750Y-73284419D01*
X116189962Y-73291651D01*
X116209368Y-73300830D01*
X116227781Y-73311866D01*
X116245024Y-73324654D01*
X116260930Y-73339070D01*
X116275346Y-73354976D01*
X116288134Y-73372219D01*
X116299170Y-73390632D01*
X116308349Y-73410038D01*
X116315581Y-73430250D01*
X116320797Y-73451074D01*
X116323947Y-73472309D01*
X116325000Y-73493750D01*
X116325000Y-73931250D01*
X116323947Y-73952691D01*
X116320797Y-73973926D01*
X116315581Y-73994750D01*
X116308349Y-74014962D01*
X116299170Y-74034368D01*
X116288134Y-74052781D01*
X116275346Y-74070024D01*
X116260930Y-74085930D01*
X116245024Y-74100346D01*
X116227781Y-74113134D01*
X116209368Y-74124170D01*
X116189962Y-74133349D01*
X116169750Y-74140581D01*
X116148926Y-74145797D01*
X116127691Y-74148947D01*
X116106250Y-74150000D01*
X115593750Y-74150000D01*
X115572309Y-74148947D01*
X115551074Y-74145797D01*
X115530250Y-74140581D01*
X115510038Y-74133349D01*
X115490632Y-74124170D01*
X115472219Y-74113134D01*
X115454976Y-74100346D01*
X115439070Y-74085930D01*
X115424654Y-74070024D01*
X115411866Y-74052781D01*
X115400830Y-74034368D01*
X115391651Y-74014962D01*
X115384419Y-73994750D01*
X115379203Y-73973926D01*
X115376053Y-73952691D01*
X115375000Y-73931250D01*
X115375000Y-73493750D01*
X115376053Y-73472309D01*
X115379203Y-73451074D01*
X115384419Y-73430250D01*
X115391651Y-73410038D01*
X115400830Y-73390632D01*
X115411866Y-73372219D01*
X115424654Y-73354976D01*
X115439070Y-73339070D01*
X115454976Y-73324654D01*
X115472219Y-73311866D01*
X115490632Y-73300830D01*
X115510038Y-73291651D01*
X115530250Y-73284419D01*
X115551074Y-73279203D01*
X115572309Y-73276053D01*
X115593750Y-73275000D01*
X116106250Y-73275000D01*
X116127691Y-73276053D01*
X116127691Y-73276053D01*
G37*
D11*
X115850000Y-73712500D03*
D10*
G36*
X116127691Y-74851053D02*
G01*
X116148926Y-74854203D01*
X116169750Y-74859419D01*
X116189962Y-74866651D01*
X116209368Y-74875830D01*
X116227781Y-74886866D01*
X116245024Y-74899654D01*
X116260930Y-74914070D01*
X116275346Y-74929976D01*
X116288134Y-74947219D01*
X116299170Y-74965632D01*
X116308349Y-74985038D01*
X116315581Y-75005250D01*
X116320797Y-75026074D01*
X116323947Y-75047309D01*
X116325000Y-75068750D01*
X116325000Y-75506250D01*
X116323947Y-75527691D01*
X116320797Y-75548926D01*
X116315581Y-75569750D01*
X116308349Y-75589962D01*
X116299170Y-75609368D01*
X116288134Y-75627781D01*
X116275346Y-75645024D01*
X116260930Y-75660930D01*
X116245024Y-75675346D01*
X116227781Y-75688134D01*
X116209368Y-75699170D01*
X116189962Y-75708349D01*
X116169750Y-75715581D01*
X116148926Y-75720797D01*
X116127691Y-75723947D01*
X116106250Y-75725000D01*
X115593750Y-75725000D01*
X115572309Y-75723947D01*
X115551074Y-75720797D01*
X115530250Y-75715581D01*
X115510038Y-75708349D01*
X115490632Y-75699170D01*
X115472219Y-75688134D01*
X115454976Y-75675346D01*
X115439070Y-75660930D01*
X115424654Y-75645024D01*
X115411866Y-75627781D01*
X115400830Y-75609368D01*
X115391651Y-75589962D01*
X115384419Y-75569750D01*
X115379203Y-75548926D01*
X115376053Y-75527691D01*
X115375000Y-75506250D01*
X115375000Y-75068750D01*
X115376053Y-75047309D01*
X115379203Y-75026074D01*
X115384419Y-75005250D01*
X115391651Y-74985038D01*
X115400830Y-74965632D01*
X115411866Y-74947219D01*
X115424654Y-74929976D01*
X115439070Y-74914070D01*
X115454976Y-74899654D01*
X115472219Y-74886866D01*
X115490632Y-74875830D01*
X115510038Y-74866651D01*
X115530250Y-74859419D01*
X115551074Y-74854203D01*
X115572309Y-74851053D01*
X115593750Y-74850000D01*
X116106250Y-74850000D01*
X116127691Y-74851053D01*
X116127691Y-74851053D01*
G37*
D11*
X115850000Y-75287500D03*
D10*
G36*
X112302691Y-80601053D02*
G01*
X112323926Y-80604203D01*
X112344750Y-80609419D01*
X112364962Y-80616651D01*
X112384368Y-80625830D01*
X112402781Y-80636866D01*
X112420024Y-80649654D01*
X112435930Y-80664070D01*
X112450346Y-80679976D01*
X112463134Y-80697219D01*
X112474170Y-80715632D01*
X112483349Y-80735038D01*
X112490581Y-80755250D01*
X112495797Y-80776074D01*
X112498947Y-80797309D01*
X112500000Y-80818750D01*
X112500000Y-81256250D01*
X112498947Y-81277691D01*
X112495797Y-81298926D01*
X112490581Y-81319750D01*
X112483349Y-81339962D01*
X112474170Y-81359368D01*
X112463134Y-81377781D01*
X112450346Y-81395024D01*
X112435930Y-81410930D01*
X112420024Y-81425346D01*
X112402781Y-81438134D01*
X112384368Y-81449170D01*
X112364962Y-81458349D01*
X112344750Y-81465581D01*
X112323926Y-81470797D01*
X112302691Y-81473947D01*
X112281250Y-81475000D01*
X111768750Y-81475000D01*
X111747309Y-81473947D01*
X111726074Y-81470797D01*
X111705250Y-81465581D01*
X111685038Y-81458349D01*
X111665632Y-81449170D01*
X111647219Y-81438134D01*
X111629976Y-81425346D01*
X111614070Y-81410930D01*
X111599654Y-81395024D01*
X111586866Y-81377781D01*
X111575830Y-81359368D01*
X111566651Y-81339962D01*
X111559419Y-81319750D01*
X111554203Y-81298926D01*
X111551053Y-81277691D01*
X111550000Y-81256250D01*
X111550000Y-80818750D01*
X111551053Y-80797309D01*
X111554203Y-80776074D01*
X111559419Y-80755250D01*
X111566651Y-80735038D01*
X111575830Y-80715632D01*
X111586866Y-80697219D01*
X111599654Y-80679976D01*
X111614070Y-80664070D01*
X111629976Y-80649654D01*
X111647219Y-80636866D01*
X111665632Y-80625830D01*
X111685038Y-80616651D01*
X111705250Y-80609419D01*
X111726074Y-80604203D01*
X111747309Y-80601053D01*
X111768750Y-80600000D01*
X112281250Y-80600000D01*
X112302691Y-80601053D01*
X112302691Y-80601053D01*
G37*
D11*
X112025000Y-81037500D03*
D10*
G36*
X112302691Y-82176053D02*
G01*
X112323926Y-82179203D01*
X112344750Y-82184419D01*
X112364962Y-82191651D01*
X112384368Y-82200830D01*
X112402781Y-82211866D01*
X112420024Y-82224654D01*
X112435930Y-82239070D01*
X112450346Y-82254976D01*
X112463134Y-82272219D01*
X112474170Y-82290632D01*
X112483349Y-82310038D01*
X112490581Y-82330250D01*
X112495797Y-82351074D01*
X112498947Y-82372309D01*
X112500000Y-82393750D01*
X112500000Y-82831250D01*
X112498947Y-82852691D01*
X112495797Y-82873926D01*
X112490581Y-82894750D01*
X112483349Y-82914962D01*
X112474170Y-82934368D01*
X112463134Y-82952781D01*
X112450346Y-82970024D01*
X112435930Y-82985930D01*
X112420024Y-83000346D01*
X112402781Y-83013134D01*
X112384368Y-83024170D01*
X112364962Y-83033349D01*
X112344750Y-83040581D01*
X112323926Y-83045797D01*
X112302691Y-83048947D01*
X112281250Y-83050000D01*
X111768750Y-83050000D01*
X111747309Y-83048947D01*
X111726074Y-83045797D01*
X111705250Y-83040581D01*
X111685038Y-83033349D01*
X111665632Y-83024170D01*
X111647219Y-83013134D01*
X111629976Y-83000346D01*
X111614070Y-82985930D01*
X111599654Y-82970024D01*
X111586866Y-82952781D01*
X111575830Y-82934368D01*
X111566651Y-82914962D01*
X111559419Y-82894750D01*
X111554203Y-82873926D01*
X111551053Y-82852691D01*
X111550000Y-82831250D01*
X111550000Y-82393750D01*
X111551053Y-82372309D01*
X111554203Y-82351074D01*
X111559419Y-82330250D01*
X111566651Y-82310038D01*
X111575830Y-82290632D01*
X111586866Y-82272219D01*
X111599654Y-82254976D01*
X111614070Y-82239070D01*
X111629976Y-82224654D01*
X111647219Y-82211866D01*
X111665632Y-82200830D01*
X111685038Y-82191651D01*
X111705250Y-82184419D01*
X111726074Y-82179203D01*
X111747309Y-82176053D01*
X111768750Y-82175000D01*
X112281250Y-82175000D01*
X112302691Y-82176053D01*
X112302691Y-82176053D01*
G37*
D11*
X112025000Y-82612500D03*
D21*
X132400000Y-108150000D03*
X131450000Y-108150000D03*
X133350000Y-108150000D03*
X133350000Y-110350000D03*
X132400000Y-110350000D03*
X131450000Y-110350000D03*
D10*
G36*
X134777691Y-72276053D02*
G01*
X134798926Y-72279203D01*
X134819750Y-72284419D01*
X134839962Y-72291651D01*
X134859368Y-72300830D01*
X134877781Y-72311866D01*
X134895024Y-72324654D01*
X134910930Y-72339070D01*
X134925346Y-72354976D01*
X134938134Y-72372219D01*
X134949170Y-72390632D01*
X134958349Y-72410038D01*
X134965581Y-72430250D01*
X134970797Y-72451074D01*
X134973947Y-72472309D01*
X134975000Y-72493750D01*
X134975000Y-72931250D01*
X134973947Y-72952691D01*
X134970797Y-72973926D01*
X134965581Y-72994750D01*
X134958349Y-73014962D01*
X134949170Y-73034368D01*
X134938134Y-73052781D01*
X134925346Y-73070024D01*
X134910930Y-73085930D01*
X134895024Y-73100346D01*
X134877781Y-73113134D01*
X134859368Y-73124170D01*
X134839962Y-73133349D01*
X134819750Y-73140581D01*
X134798926Y-73145797D01*
X134777691Y-73148947D01*
X134756250Y-73150000D01*
X134243750Y-73150000D01*
X134222309Y-73148947D01*
X134201074Y-73145797D01*
X134180250Y-73140581D01*
X134160038Y-73133349D01*
X134140632Y-73124170D01*
X134122219Y-73113134D01*
X134104976Y-73100346D01*
X134089070Y-73085930D01*
X134074654Y-73070024D01*
X134061866Y-73052781D01*
X134050830Y-73034368D01*
X134041651Y-73014962D01*
X134034419Y-72994750D01*
X134029203Y-72973926D01*
X134026053Y-72952691D01*
X134025000Y-72931250D01*
X134025000Y-72493750D01*
X134026053Y-72472309D01*
X134029203Y-72451074D01*
X134034419Y-72430250D01*
X134041651Y-72410038D01*
X134050830Y-72390632D01*
X134061866Y-72372219D01*
X134074654Y-72354976D01*
X134089070Y-72339070D01*
X134104976Y-72324654D01*
X134122219Y-72311866D01*
X134140632Y-72300830D01*
X134160038Y-72291651D01*
X134180250Y-72284419D01*
X134201074Y-72279203D01*
X134222309Y-72276053D01*
X134243750Y-72275000D01*
X134756250Y-72275000D01*
X134777691Y-72276053D01*
X134777691Y-72276053D01*
G37*
D11*
X134500000Y-72712500D03*
D10*
G36*
X134777691Y-73851053D02*
G01*
X134798926Y-73854203D01*
X134819750Y-73859419D01*
X134839962Y-73866651D01*
X134859368Y-73875830D01*
X134877781Y-73886866D01*
X134895024Y-73899654D01*
X134910930Y-73914070D01*
X134925346Y-73929976D01*
X134938134Y-73947219D01*
X134949170Y-73965632D01*
X134958349Y-73985038D01*
X134965581Y-74005250D01*
X134970797Y-74026074D01*
X134973947Y-74047309D01*
X134975000Y-74068750D01*
X134975000Y-74506250D01*
X134973947Y-74527691D01*
X134970797Y-74548926D01*
X134965581Y-74569750D01*
X134958349Y-74589962D01*
X134949170Y-74609368D01*
X134938134Y-74627781D01*
X134925346Y-74645024D01*
X134910930Y-74660930D01*
X134895024Y-74675346D01*
X134877781Y-74688134D01*
X134859368Y-74699170D01*
X134839962Y-74708349D01*
X134819750Y-74715581D01*
X134798926Y-74720797D01*
X134777691Y-74723947D01*
X134756250Y-74725000D01*
X134243750Y-74725000D01*
X134222309Y-74723947D01*
X134201074Y-74720797D01*
X134180250Y-74715581D01*
X134160038Y-74708349D01*
X134140632Y-74699170D01*
X134122219Y-74688134D01*
X134104976Y-74675346D01*
X134089070Y-74660930D01*
X134074654Y-74645024D01*
X134061866Y-74627781D01*
X134050830Y-74609368D01*
X134041651Y-74589962D01*
X134034419Y-74569750D01*
X134029203Y-74548926D01*
X134026053Y-74527691D01*
X134025000Y-74506250D01*
X134025000Y-74068750D01*
X134026053Y-74047309D01*
X134029203Y-74026074D01*
X134034419Y-74005250D01*
X134041651Y-73985038D01*
X134050830Y-73965632D01*
X134061866Y-73947219D01*
X134074654Y-73929976D01*
X134089070Y-73914070D01*
X134104976Y-73899654D01*
X134122219Y-73886866D01*
X134140632Y-73875830D01*
X134160038Y-73866651D01*
X134180250Y-73859419D01*
X134201074Y-73854203D01*
X134222309Y-73851053D01*
X134243750Y-73850000D01*
X134756250Y-73850000D01*
X134777691Y-73851053D01*
X134777691Y-73851053D01*
G37*
D11*
X134500000Y-74287500D03*
D10*
G36*
X140777691Y-72276053D02*
G01*
X140798926Y-72279203D01*
X140819750Y-72284419D01*
X140839962Y-72291651D01*
X140859368Y-72300830D01*
X140877781Y-72311866D01*
X140895024Y-72324654D01*
X140910930Y-72339070D01*
X140925346Y-72354976D01*
X140938134Y-72372219D01*
X140949170Y-72390632D01*
X140958349Y-72410038D01*
X140965581Y-72430250D01*
X140970797Y-72451074D01*
X140973947Y-72472309D01*
X140975000Y-72493750D01*
X140975000Y-72931250D01*
X140973947Y-72952691D01*
X140970797Y-72973926D01*
X140965581Y-72994750D01*
X140958349Y-73014962D01*
X140949170Y-73034368D01*
X140938134Y-73052781D01*
X140925346Y-73070024D01*
X140910930Y-73085930D01*
X140895024Y-73100346D01*
X140877781Y-73113134D01*
X140859368Y-73124170D01*
X140839962Y-73133349D01*
X140819750Y-73140581D01*
X140798926Y-73145797D01*
X140777691Y-73148947D01*
X140756250Y-73150000D01*
X140243750Y-73150000D01*
X140222309Y-73148947D01*
X140201074Y-73145797D01*
X140180250Y-73140581D01*
X140160038Y-73133349D01*
X140140632Y-73124170D01*
X140122219Y-73113134D01*
X140104976Y-73100346D01*
X140089070Y-73085930D01*
X140074654Y-73070024D01*
X140061866Y-73052781D01*
X140050830Y-73034368D01*
X140041651Y-73014962D01*
X140034419Y-72994750D01*
X140029203Y-72973926D01*
X140026053Y-72952691D01*
X140025000Y-72931250D01*
X140025000Y-72493750D01*
X140026053Y-72472309D01*
X140029203Y-72451074D01*
X140034419Y-72430250D01*
X140041651Y-72410038D01*
X140050830Y-72390632D01*
X140061866Y-72372219D01*
X140074654Y-72354976D01*
X140089070Y-72339070D01*
X140104976Y-72324654D01*
X140122219Y-72311866D01*
X140140632Y-72300830D01*
X140160038Y-72291651D01*
X140180250Y-72284419D01*
X140201074Y-72279203D01*
X140222309Y-72276053D01*
X140243750Y-72275000D01*
X140756250Y-72275000D01*
X140777691Y-72276053D01*
X140777691Y-72276053D01*
G37*
D11*
X140500000Y-72712500D03*
D10*
G36*
X140777691Y-73851053D02*
G01*
X140798926Y-73854203D01*
X140819750Y-73859419D01*
X140839962Y-73866651D01*
X140859368Y-73875830D01*
X140877781Y-73886866D01*
X140895024Y-73899654D01*
X140910930Y-73914070D01*
X140925346Y-73929976D01*
X140938134Y-73947219D01*
X140949170Y-73965632D01*
X140958349Y-73985038D01*
X140965581Y-74005250D01*
X140970797Y-74026074D01*
X140973947Y-74047309D01*
X140975000Y-74068750D01*
X140975000Y-74506250D01*
X140973947Y-74527691D01*
X140970797Y-74548926D01*
X140965581Y-74569750D01*
X140958349Y-74589962D01*
X140949170Y-74609368D01*
X140938134Y-74627781D01*
X140925346Y-74645024D01*
X140910930Y-74660930D01*
X140895024Y-74675346D01*
X140877781Y-74688134D01*
X140859368Y-74699170D01*
X140839962Y-74708349D01*
X140819750Y-74715581D01*
X140798926Y-74720797D01*
X140777691Y-74723947D01*
X140756250Y-74725000D01*
X140243750Y-74725000D01*
X140222309Y-74723947D01*
X140201074Y-74720797D01*
X140180250Y-74715581D01*
X140160038Y-74708349D01*
X140140632Y-74699170D01*
X140122219Y-74688134D01*
X140104976Y-74675346D01*
X140089070Y-74660930D01*
X140074654Y-74645024D01*
X140061866Y-74627781D01*
X140050830Y-74609368D01*
X140041651Y-74589962D01*
X140034419Y-74569750D01*
X140029203Y-74548926D01*
X140026053Y-74527691D01*
X140025000Y-74506250D01*
X140025000Y-74068750D01*
X140026053Y-74047309D01*
X140029203Y-74026074D01*
X140034419Y-74005250D01*
X140041651Y-73985038D01*
X140050830Y-73965632D01*
X140061866Y-73947219D01*
X140074654Y-73929976D01*
X140089070Y-73914070D01*
X140104976Y-73899654D01*
X140122219Y-73886866D01*
X140140632Y-73875830D01*
X140160038Y-73866651D01*
X140180250Y-73859419D01*
X140201074Y-73854203D01*
X140222309Y-73851053D01*
X140243750Y-73850000D01*
X140756250Y-73850000D01*
X140777691Y-73851053D01*
X140777691Y-73851053D01*
G37*
D11*
X140500000Y-74287500D03*
D10*
G36*
X111277691Y-74301053D02*
G01*
X111298926Y-74304203D01*
X111319750Y-74309419D01*
X111339962Y-74316651D01*
X111359368Y-74325830D01*
X111377781Y-74336866D01*
X111395024Y-74349654D01*
X111410930Y-74364070D01*
X111425346Y-74379976D01*
X111438134Y-74397219D01*
X111449170Y-74415632D01*
X111458349Y-74435038D01*
X111465581Y-74455250D01*
X111470797Y-74476074D01*
X111473947Y-74497309D01*
X111475000Y-74518750D01*
X111475000Y-74956250D01*
X111473947Y-74977691D01*
X111470797Y-74998926D01*
X111465581Y-75019750D01*
X111458349Y-75039962D01*
X111449170Y-75059368D01*
X111438134Y-75077781D01*
X111425346Y-75095024D01*
X111410930Y-75110930D01*
X111395024Y-75125346D01*
X111377781Y-75138134D01*
X111359368Y-75149170D01*
X111339962Y-75158349D01*
X111319750Y-75165581D01*
X111298926Y-75170797D01*
X111277691Y-75173947D01*
X111256250Y-75175000D01*
X110743750Y-75175000D01*
X110722309Y-75173947D01*
X110701074Y-75170797D01*
X110680250Y-75165581D01*
X110660038Y-75158349D01*
X110640632Y-75149170D01*
X110622219Y-75138134D01*
X110604976Y-75125346D01*
X110589070Y-75110930D01*
X110574654Y-75095024D01*
X110561866Y-75077781D01*
X110550830Y-75059368D01*
X110541651Y-75039962D01*
X110534419Y-75019750D01*
X110529203Y-74998926D01*
X110526053Y-74977691D01*
X110525000Y-74956250D01*
X110525000Y-74518750D01*
X110526053Y-74497309D01*
X110529203Y-74476074D01*
X110534419Y-74455250D01*
X110541651Y-74435038D01*
X110550830Y-74415632D01*
X110561866Y-74397219D01*
X110574654Y-74379976D01*
X110589070Y-74364070D01*
X110604976Y-74349654D01*
X110622219Y-74336866D01*
X110640632Y-74325830D01*
X110660038Y-74316651D01*
X110680250Y-74309419D01*
X110701074Y-74304203D01*
X110722309Y-74301053D01*
X110743750Y-74300000D01*
X111256250Y-74300000D01*
X111277691Y-74301053D01*
X111277691Y-74301053D01*
G37*
D11*
X111000000Y-74737500D03*
D10*
G36*
X111277691Y-75876053D02*
G01*
X111298926Y-75879203D01*
X111319750Y-75884419D01*
X111339962Y-75891651D01*
X111359368Y-75900830D01*
X111377781Y-75911866D01*
X111395024Y-75924654D01*
X111410930Y-75939070D01*
X111425346Y-75954976D01*
X111438134Y-75972219D01*
X111449170Y-75990632D01*
X111458349Y-76010038D01*
X111465581Y-76030250D01*
X111470797Y-76051074D01*
X111473947Y-76072309D01*
X111475000Y-76093750D01*
X111475000Y-76531250D01*
X111473947Y-76552691D01*
X111470797Y-76573926D01*
X111465581Y-76594750D01*
X111458349Y-76614962D01*
X111449170Y-76634368D01*
X111438134Y-76652781D01*
X111425346Y-76670024D01*
X111410930Y-76685930D01*
X111395024Y-76700346D01*
X111377781Y-76713134D01*
X111359368Y-76724170D01*
X111339962Y-76733349D01*
X111319750Y-76740581D01*
X111298926Y-76745797D01*
X111277691Y-76748947D01*
X111256250Y-76750000D01*
X110743750Y-76750000D01*
X110722309Y-76748947D01*
X110701074Y-76745797D01*
X110680250Y-76740581D01*
X110660038Y-76733349D01*
X110640632Y-76724170D01*
X110622219Y-76713134D01*
X110604976Y-76700346D01*
X110589070Y-76685930D01*
X110574654Y-76670024D01*
X110561866Y-76652781D01*
X110550830Y-76634368D01*
X110541651Y-76614962D01*
X110534419Y-76594750D01*
X110529203Y-76573926D01*
X110526053Y-76552691D01*
X110525000Y-76531250D01*
X110525000Y-76093750D01*
X110526053Y-76072309D01*
X110529203Y-76051074D01*
X110534419Y-76030250D01*
X110541651Y-76010038D01*
X110550830Y-75990632D01*
X110561866Y-75972219D01*
X110574654Y-75954976D01*
X110589070Y-75939070D01*
X110604976Y-75924654D01*
X110622219Y-75911866D01*
X110640632Y-75900830D01*
X110660038Y-75891651D01*
X110680250Y-75884419D01*
X110701074Y-75879203D01*
X110722309Y-75876053D01*
X110743750Y-75875000D01*
X111256250Y-75875000D01*
X111277691Y-75876053D01*
X111277691Y-75876053D01*
G37*
D11*
X111000000Y-76312500D03*
M02*
