G04 #@! TF.GenerationSoftware,KiCad,Pcbnew,(5.1.0)-1*
G04 #@! TF.CreationDate,2020-10-25T22:34:19+01:00*
G04 #@! TF.ProjectId,Waage,57616167-652e-46b6-9963-61645f706362,rev?*
G04 #@! TF.SameCoordinates,Original*
G04 #@! TF.FileFunction,Copper,L2,Bot*
G04 #@! TF.FilePolarity,Positive*
%FSLAX46Y46*%
G04 Gerber Fmt 4.6, Leading zero omitted, Abs format (unit mm)*
G04 Created by KiCad (PCBNEW (5.1.0)-1) date 2020-10-25 22:34:19*
%MOMM*%
%LPD*%
G04 APERTURE LIST*
%ADD10O,1.700000X1.700000*%
%ADD11R,1.700000X1.700000*%
%ADD12C,1.000000*%
%ADD13C,3.500000*%
%ADD14C,1.700000*%
%ADD15C,1.800000*%
%ADD16R,1.800000X1.800000*%
%ADD17C,0.800000*%
%ADD18C,0.500000*%
%ADD19C,0.400000*%
%ADD20C,0.254000*%
G04 APERTURE END LIST*
D10*
X137360000Y-107320000D03*
D11*
X137360000Y-109860000D03*
D12*
X123910000Y-91000000D03*
X122640000Y-91000000D03*
X121370000Y-91000000D03*
X120100000Y-91000000D03*
X118830000Y-91000000D03*
X117560000Y-91000000D03*
X116290000Y-91000000D03*
X115020000Y-91000000D03*
X113750000Y-91000000D03*
X112480000Y-91000000D03*
X111210000Y-91000000D03*
X109940000Y-91000000D03*
X108670000Y-91000000D03*
X107400000Y-91000000D03*
X106130000Y-91000000D03*
D10*
X113770000Y-61900000D03*
X111230000Y-61900000D03*
X108690000Y-61900000D03*
D11*
X106150000Y-61900000D03*
D10*
X125930000Y-61880000D03*
X123390000Y-61880000D03*
X120850000Y-61880000D03*
D11*
X118310000Y-61880000D03*
D10*
X148060000Y-81390000D03*
X148060000Y-78850000D03*
X148060000Y-76310000D03*
D11*
X148060000Y-73770000D03*
D13*
X146510000Y-119745000D03*
X146510000Y-107705000D03*
D14*
X143800000Y-112475000D03*
X143800000Y-114975000D03*
X141800000Y-114975000D03*
D11*
X141800000Y-112475000D03*
D15*
X114730000Y-108500000D03*
D16*
X117270000Y-108500000D03*
D15*
X100730000Y-108500000D03*
D16*
X103270000Y-108500000D03*
D15*
X86730000Y-108500000D03*
D16*
X89270000Y-108500000D03*
D17*
X139610000Y-70320000D03*
X116450000Y-83180000D03*
X117090000Y-69140000D03*
X103460000Y-66840000D03*
X88290000Y-77450000D03*
X106550000Y-80390000D03*
X109350000Y-66960000D03*
X116540000Y-79270000D03*
X123880000Y-75740000D03*
X129620000Y-87970000D03*
X136950000Y-80740000D03*
X120090000Y-88880000D03*
X123490000Y-89050000D03*
X129760000Y-112250000D03*
X139850000Y-92050000D03*
X137000000Y-92050000D03*
X139850000Y-104225000D03*
X137000000Y-104225000D03*
X103490000Y-70200000D03*
X107720000Y-74760000D03*
X136710000Y-75470000D03*
X145230000Y-80260000D03*
X145240000Y-82490000D03*
X144830000Y-75070000D03*
X132952500Y-74357500D03*
X132330000Y-86020000D03*
X109960000Y-84980000D03*
X107960000Y-65590000D03*
X122680000Y-69030000D03*
X127350000Y-79440000D03*
X117990000Y-79190000D03*
X144430000Y-100750000D03*
X115040000Y-78920000D03*
X132896309Y-84190423D03*
X108040000Y-80790000D03*
X108770000Y-78050000D03*
X114210000Y-78040000D03*
X114210000Y-80260000D03*
X132919314Y-83190686D03*
X127040000Y-83870000D03*
X125260000Y-82790000D03*
X133809990Y-89260000D03*
X132790000Y-80220000D03*
X132800000Y-78890000D03*
X132140000Y-104220000D03*
X133650000Y-80950000D03*
X134053407Y-81961900D03*
X133380000Y-106260000D03*
D18*
X139850000Y-104225000D02*
X139850000Y-92050000D01*
X137000000Y-93450000D02*
X137000000Y-92050000D01*
X137000000Y-104225000D02*
X137000000Y-93880000D01*
X137000000Y-93880000D02*
X137000000Y-93450000D01*
D19*
X103490000Y-70200000D02*
X107150000Y-70200000D01*
X107720000Y-70770000D02*
X107720000Y-74760000D01*
X107150000Y-70200000D02*
X107720000Y-70770000D01*
X131922501Y-73557499D02*
X130720000Y-74760000D01*
X135363184Y-73557499D02*
X131922501Y-73557499D01*
X136710000Y-74904315D02*
X135363184Y-73557499D01*
X136710000Y-75470000D02*
X136710000Y-74904315D01*
X107720000Y-74760000D02*
X130720000Y-74760000D01*
X145230000Y-80260000D02*
X145230000Y-82480000D01*
X145230000Y-82480000D02*
X145240000Y-82490000D01*
X144430000Y-75470000D02*
X144830000Y-75070000D01*
X136710000Y-75470000D02*
X144430000Y-75470000D01*
X107960000Y-65590000D02*
X113060000Y-65590000D01*
X113770000Y-64880000D02*
X113770000Y-61900000D01*
X113060000Y-65590000D02*
X113770000Y-64880000D01*
X125930000Y-64530000D02*
X125930000Y-61880000D01*
X124870000Y-65590000D02*
X125930000Y-64530000D01*
X122680000Y-66210000D02*
X123300000Y-65590000D01*
X122680000Y-69030000D02*
X122680000Y-66210000D01*
X113060000Y-65590000D02*
X123300000Y-65590000D01*
X123300000Y-65590000D02*
X124870000Y-65590000D01*
X132952500Y-74357500D02*
X127870000Y-79440000D01*
X127870000Y-79440000D02*
X127350000Y-79440000D01*
X107670000Y-84980000D02*
X109960000Y-84980000D01*
X117990000Y-79190000D02*
X117990000Y-77850000D01*
X117990000Y-77850000D02*
X117379999Y-77239999D01*
X117379999Y-77239999D02*
X106490001Y-77239999D01*
X106490001Y-77239999D02*
X105710000Y-78020000D01*
X105710000Y-78020000D02*
X105710000Y-84320000D01*
X106370000Y-84980000D02*
X107670000Y-84980000D01*
X105710000Y-84320000D02*
X106370000Y-84980000D01*
X148060000Y-81390000D02*
X148060000Y-99330000D01*
X146640000Y-100750000D02*
X144430000Y-100750000D01*
X148060000Y-99330000D02*
X146640000Y-100750000D01*
X132330624Y-84190423D02*
X129390201Y-81250000D01*
X132896309Y-84190423D02*
X132330624Y-84190423D01*
X129390201Y-81250000D02*
X108550000Y-81250000D01*
X108550000Y-81250000D02*
X108090000Y-80790000D01*
X108090000Y-80790000D02*
X108040000Y-80790000D01*
X108780000Y-78040000D02*
X108770000Y-78050000D01*
X114210000Y-78040000D02*
X108780000Y-78040000D01*
X114210000Y-80260000D02*
X114210000Y-78040000D01*
X129988628Y-80260000D02*
X132919314Y-83190686D01*
X114210000Y-80260000D02*
X129988628Y-80260000D01*
X122640000Y-91000000D02*
X122640000Y-84950000D01*
X122640000Y-84950000D02*
X123720000Y-83870000D01*
X123720000Y-83870000D02*
X127040000Y-83870000D01*
X125260000Y-82790000D02*
X123090000Y-82790000D01*
X121370000Y-84510000D02*
X121370000Y-91000000D01*
X123090000Y-82790000D02*
X121370000Y-84510000D01*
X133809990Y-89260000D02*
X124560000Y-89260000D01*
X123910000Y-89910000D02*
X123910000Y-91000000D01*
X124560000Y-89260000D02*
X123910000Y-89910000D01*
X134160000Y-78850000D02*
X135620000Y-78850000D01*
X132790000Y-80220000D02*
X134160000Y-78850000D01*
X135620000Y-78850000D02*
X148060000Y-78850000D01*
X135380000Y-76310000D02*
X148060000Y-76310000D01*
X132800000Y-78890000D02*
X135380000Y-76310000D01*
X133830000Y-102530000D02*
X132140000Y-104220000D01*
X133253406Y-81577899D02*
X133253406Y-82393406D01*
X133250001Y-81574494D02*
X133253406Y-81577899D01*
X133250001Y-81349999D02*
X133250001Y-81574494D01*
X133650000Y-80950000D02*
X133250001Y-81349999D01*
X133540000Y-82670000D02*
X134609990Y-83739990D01*
X133530000Y-82670000D02*
X133540000Y-82670000D01*
X133253406Y-82393406D02*
X133530000Y-82670000D01*
X134609990Y-101750010D02*
X133830000Y-102530000D01*
X134609990Y-83739990D02*
X134609990Y-101750010D01*
X133460000Y-106260000D02*
X133380000Y-106260000D01*
X135210000Y-104510000D02*
X133460000Y-106260000D01*
X134053407Y-81961900D02*
X135210000Y-83118493D01*
X135210000Y-83118493D02*
X135210000Y-104510000D01*
D20*
G36*
X97858149Y-60234636D02*
G01*
X97640915Y-60559750D01*
X97491282Y-60920997D01*
X97415000Y-61304495D01*
X97415000Y-61695505D01*
X97491282Y-62079003D01*
X97640915Y-62440250D01*
X97858149Y-62765364D01*
X98134636Y-63041851D01*
X98459750Y-63259085D01*
X98820997Y-63408718D01*
X99204495Y-63485000D01*
X99595505Y-63485000D01*
X99979003Y-63408718D01*
X100340250Y-63259085D01*
X100665364Y-63041851D01*
X100941851Y-62765364D01*
X101159085Y-62440250D01*
X101308718Y-62079003D01*
X101385000Y-61695505D01*
X101385000Y-61304495D01*
X101334379Y-61050000D01*
X104661928Y-61050000D01*
X104661928Y-62750000D01*
X104674188Y-62874482D01*
X104710498Y-62994180D01*
X104769463Y-63104494D01*
X104848815Y-63201185D01*
X104945506Y-63280537D01*
X105055820Y-63339502D01*
X105175518Y-63375812D01*
X105300000Y-63388072D01*
X107000000Y-63388072D01*
X107124482Y-63375812D01*
X107244180Y-63339502D01*
X107354494Y-63280537D01*
X107451185Y-63201185D01*
X107530537Y-63104494D01*
X107589502Y-62994180D01*
X107610393Y-62925313D01*
X107634866Y-62955134D01*
X107860986Y-63140706D01*
X108118966Y-63278599D01*
X108398889Y-63363513D01*
X108617050Y-63385000D01*
X108762950Y-63385000D01*
X108981111Y-63363513D01*
X109261034Y-63278599D01*
X109519014Y-63140706D01*
X109745134Y-62955134D01*
X109930706Y-62729014D01*
X109965201Y-62664477D01*
X110034822Y-62781355D01*
X110229731Y-62997588D01*
X110463080Y-63171641D01*
X110725901Y-63296825D01*
X110873110Y-63341476D01*
X111103000Y-63220155D01*
X111103000Y-62027000D01*
X111083000Y-62027000D01*
X111083000Y-61773000D01*
X111103000Y-61773000D01*
X111103000Y-60579845D01*
X110873110Y-60458524D01*
X110725901Y-60503175D01*
X110463080Y-60628359D01*
X110229731Y-60802412D01*
X110034822Y-61018645D01*
X109965201Y-61135523D01*
X109930706Y-61070986D01*
X109745134Y-60844866D01*
X109519014Y-60659294D01*
X109261034Y-60521401D01*
X108981111Y-60436487D01*
X108762950Y-60415000D01*
X108617050Y-60415000D01*
X108398889Y-60436487D01*
X108118966Y-60521401D01*
X107860986Y-60659294D01*
X107634866Y-60844866D01*
X107610393Y-60874687D01*
X107589502Y-60805820D01*
X107530537Y-60695506D01*
X107451185Y-60598815D01*
X107354494Y-60519463D01*
X107244180Y-60460498D01*
X107124482Y-60424188D01*
X107000000Y-60411928D01*
X105300000Y-60411928D01*
X105175518Y-60424188D01*
X105055820Y-60460498D01*
X104945506Y-60519463D01*
X104848815Y-60598815D01*
X104769463Y-60695506D01*
X104710498Y-60805820D01*
X104674188Y-60925518D01*
X104661928Y-61050000D01*
X101334379Y-61050000D01*
X101308718Y-60920997D01*
X101159085Y-60559750D01*
X100941851Y-60234636D01*
X100867215Y-60160000D01*
X129132785Y-60160000D01*
X129058149Y-60234636D01*
X128840915Y-60559750D01*
X128691282Y-60920997D01*
X128615000Y-61304495D01*
X128615000Y-61695505D01*
X128691282Y-62079003D01*
X128840915Y-62440250D01*
X129058149Y-62765364D01*
X129334636Y-63041851D01*
X129659750Y-63259085D01*
X130020997Y-63408718D01*
X130404495Y-63485000D01*
X130795505Y-63485000D01*
X131179003Y-63408718D01*
X131540250Y-63259085D01*
X131865364Y-63041851D01*
X132141851Y-62765364D01*
X132359085Y-62440250D01*
X132508718Y-62079003D01*
X132585000Y-61695505D01*
X132585000Y-61304495D01*
X132508718Y-60920997D01*
X132359085Y-60559750D01*
X132141851Y-60234636D01*
X132067215Y-60160000D01*
X141373000Y-60160000D01*
X141373000Y-68000000D01*
X141375440Y-68024776D01*
X141382667Y-68048601D01*
X141394403Y-68070557D01*
X141410197Y-68089803D01*
X141429443Y-68105597D01*
X141451399Y-68117333D01*
X141475224Y-68124560D01*
X141500000Y-68127000D01*
X149340000Y-68127000D01*
X149340000Y-72451429D01*
X149264494Y-72389463D01*
X149154180Y-72330498D01*
X149034482Y-72294188D01*
X148910000Y-72281928D01*
X148345750Y-72285000D01*
X148187000Y-72443750D01*
X148187000Y-73643000D01*
X148207000Y-73643000D01*
X148207000Y-73897000D01*
X148187000Y-73897000D01*
X148187000Y-73917000D01*
X147933000Y-73917000D01*
X147933000Y-73897000D01*
X146733750Y-73897000D01*
X146575000Y-74055750D01*
X146571928Y-74620000D01*
X146584188Y-74744482D01*
X146620498Y-74864180D01*
X146679463Y-74974494D01*
X146758815Y-75071185D01*
X146855506Y-75150537D01*
X146965820Y-75209502D01*
X147034687Y-75230393D01*
X147004866Y-75254866D01*
X146824207Y-75475000D01*
X145782519Y-75475000D01*
X145825226Y-75371898D01*
X145865000Y-75171939D01*
X145865000Y-74968061D01*
X145825226Y-74768102D01*
X145747205Y-74579744D01*
X145633937Y-74410226D01*
X145489774Y-74266063D01*
X145320256Y-74152795D01*
X145131898Y-74074774D01*
X144931939Y-74035000D01*
X144728061Y-74035000D01*
X144528102Y-74074774D01*
X144339744Y-74152795D01*
X144170226Y-74266063D01*
X144026063Y-74410226D01*
X143912795Y-74579744D01*
X143889907Y-74635000D01*
X137500877Y-74635000D01*
X137485172Y-74583228D01*
X137407636Y-74438169D01*
X137303291Y-74311024D01*
X137271426Y-74284873D01*
X135982630Y-72996078D01*
X135956475Y-72964208D01*
X135902608Y-72920000D01*
X146571928Y-72920000D01*
X146575000Y-73484250D01*
X146733750Y-73643000D01*
X147933000Y-73643000D01*
X147933000Y-72443750D01*
X147774250Y-72285000D01*
X147210000Y-72281928D01*
X147085518Y-72294188D01*
X146965820Y-72330498D01*
X146855506Y-72389463D01*
X146758815Y-72468815D01*
X146679463Y-72565506D01*
X146620498Y-72675820D01*
X146584188Y-72795518D01*
X146571928Y-72920000D01*
X135902608Y-72920000D01*
X135829330Y-72859863D01*
X135684271Y-72782327D01*
X135526873Y-72734581D01*
X135404203Y-72722499D01*
X135404202Y-72722499D01*
X135363184Y-72718459D01*
X135322166Y-72722499D01*
X131963516Y-72722499D01*
X131922500Y-72718459D01*
X131881484Y-72722499D01*
X131881482Y-72722499D01*
X131758812Y-72734581D01*
X131601414Y-72782327D01*
X131456355Y-72859863D01*
X131329210Y-72964208D01*
X131303059Y-72996073D01*
X130374133Y-73925000D01*
X108555000Y-73925000D01*
X108555000Y-70811018D01*
X108559040Y-70770000D01*
X108542918Y-70606312D01*
X108495172Y-70448913D01*
X108417636Y-70303854D01*
X108339439Y-70208570D01*
X108339437Y-70208568D01*
X108313291Y-70176709D01*
X108281432Y-70150564D01*
X107769445Y-69638578D01*
X107743291Y-69606709D01*
X107616146Y-69502364D01*
X107471087Y-69424828D01*
X107313689Y-69377082D01*
X107191019Y-69365000D01*
X107191018Y-69365000D01*
X107150000Y-69360960D01*
X107108982Y-69365000D01*
X104103285Y-69365000D01*
X103980256Y-69282795D01*
X103791898Y-69204774D01*
X103591939Y-69165000D01*
X103388061Y-69165000D01*
X103188102Y-69204774D01*
X102999744Y-69282795D01*
X102830226Y-69396063D01*
X102686063Y-69540226D01*
X102572795Y-69709744D01*
X102494774Y-69898102D01*
X102455000Y-70098061D01*
X102455000Y-70301939D01*
X102494774Y-70501898D01*
X102572795Y-70690256D01*
X102686063Y-70859774D01*
X102830226Y-71003937D01*
X102999744Y-71117205D01*
X103188102Y-71195226D01*
X103388061Y-71235000D01*
X103591939Y-71235000D01*
X103791898Y-71195226D01*
X103980256Y-71117205D01*
X104103285Y-71035000D01*
X106804132Y-71035000D01*
X106885000Y-71115868D01*
X106885001Y-74146714D01*
X106802795Y-74269744D01*
X106724774Y-74458102D01*
X106685000Y-74658061D01*
X106685000Y-74861939D01*
X106724774Y-75061898D01*
X106802795Y-75250256D01*
X106916063Y-75419774D01*
X107060226Y-75563937D01*
X107229744Y-75677205D01*
X107418102Y-75755226D01*
X107618061Y-75795000D01*
X107821939Y-75795000D01*
X108021898Y-75755226D01*
X108210256Y-75677205D01*
X108333285Y-75595000D01*
X130534132Y-75595000D01*
X127674851Y-78454282D01*
X127651898Y-78444774D01*
X127451939Y-78405000D01*
X127248061Y-78405000D01*
X127048102Y-78444774D01*
X126859744Y-78522795D01*
X126690226Y-78636063D01*
X126546063Y-78780226D01*
X126432795Y-78949744D01*
X126354774Y-79138102D01*
X126315000Y-79338061D01*
X126315000Y-79425000D01*
X118998533Y-79425000D01*
X119025000Y-79291939D01*
X119025000Y-79088061D01*
X118985226Y-78888102D01*
X118907205Y-78699744D01*
X118825000Y-78576715D01*
X118825000Y-77891018D01*
X118829040Y-77850000D01*
X118812918Y-77686312D01*
X118774932Y-77561086D01*
X118765172Y-77528913D01*
X118687636Y-77383854D01*
X118583291Y-77256709D01*
X118551431Y-77230562D01*
X117999444Y-76678577D01*
X117973290Y-76646708D01*
X117846145Y-76542363D01*
X117701086Y-76464827D01*
X117543688Y-76417081D01*
X117421018Y-76404999D01*
X117421017Y-76404999D01*
X117379999Y-76400959D01*
X117338981Y-76404999D01*
X106531019Y-76404999D01*
X106490001Y-76400959D01*
X106448982Y-76404999D01*
X106326312Y-76417081D01*
X106168914Y-76464827D01*
X106023855Y-76542363D01*
X105896710Y-76646708D01*
X105870559Y-76678573D01*
X105148579Y-77400554D01*
X105116709Y-77426709D01*
X105065941Y-77488571D01*
X105012364Y-77553855D01*
X104934828Y-77698914D01*
X104887082Y-77856312D01*
X104870960Y-78020000D01*
X104875000Y-78061019D01*
X104875001Y-84278972D01*
X104870960Y-84320000D01*
X104887082Y-84483688D01*
X104934828Y-84641086D01*
X105011065Y-84783714D01*
X105012365Y-84786146D01*
X105116710Y-84913291D01*
X105148573Y-84939441D01*
X105750563Y-85541431D01*
X105776709Y-85573291D01*
X105808568Y-85599437D01*
X105808570Y-85599439D01*
X105903854Y-85677636D01*
X106048913Y-85755172D01*
X106206311Y-85802918D01*
X106370000Y-85819040D01*
X106411018Y-85815000D01*
X109346715Y-85815000D01*
X109469744Y-85897205D01*
X109658102Y-85975226D01*
X109858061Y-86015000D01*
X110061939Y-86015000D01*
X110261898Y-85975226D01*
X110450256Y-85897205D01*
X110619774Y-85783937D01*
X110763937Y-85639774D01*
X110877205Y-85470256D01*
X110955226Y-85281898D01*
X110995000Y-85081939D01*
X110995000Y-84878061D01*
X110955226Y-84678102D01*
X110877205Y-84489744D01*
X110763937Y-84320226D01*
X110619774Y-84176063D01*
X110450256Y-84062795D01*
X110261898Y-83984774D01*
X110061939Y-83945000D01*
X109858061Y-83945000D01*
X109658102Y-83984774D01*
X109469744Y-84062795D01*
X109346715Y-84145000D01*
X106715868Y-84145000D01*
X106545000Y-83974132D01*
X106545000Y-78365867D01*
X106835869Y-78074999D01*
X107735000Y-78074999D01*
X107735000Y-78151939D01*
X107774774Y-78351898D01*
X107852795Y-78540256D01*
X107966063Y-78709774D01*
X108110226Y-78853937D01*
X108279744Y-78967205D01*
X108468102Y-79045226D01*
X108668061Y-79085000D01*
X108871939Y-79085000D01*
X109071898Y-79045226D01*
X109260256Y-78967205D01*
X109398251Y-78875000D01*
X113375001Y-78875000D01*
X113375000Y-79646715D01*
X113292795Y-79769744D01*
X113214774Y-79958102D01*
X113175000Y-80158061D01*
X113175000Y-80361939D01*
X113185554Y-80415000D01*
X109004946Y-80415000D01*
X108957205Y-80299744D01*
X108843937Y-80130226D01*
X108699774Y-79986063D01*
X108530256Y-79872795D01*
X108341898Y-79794774D01*
X108141939Y-79755000D01*
X107938061Y-79755000D01*
X107738102Y-79794774D01*
X107549744Y-79872795D01*
X107380226Y-79986063D01*
X107236063Y-80130226D01*
X107122795Y-80299744D01*
X107044774Y-80488102D01*
X107005000Y-80688061D01*
X107005000Y-80891939D01*
X107044774Y-81091898D01*
X107122795Y-81280256D01*
X107236063Y-81449774D01*
X107380226Y-81593937D01*
X107549744Y-81707205D01*
X107738102Y-81785226D01*
X107938061Y-81825000D01*
X107941698Y-81825000D01*
X107956709Y-81843291D01*
X108083854Y-81947636D01*
X108228913Y-82025172D01*
X108386311Y-82072918D01*
X108508981Y-82085000D01*
X108508983Y-82085000D01*
X108549999Y-82089040D01*
X108591015Y-82085000D01*
X122637631Y-82085000D01*
X122623854Y-82092364D01*
X122496709Y-82196709D01*
X122470559Y-82228574D01*
X120808579Y-83890554D01*
X120776709Y-83916709D01*
X120709246Y-83998914D01*
X120672364Y-84043855D01*
X120594828Y-84188914D01*
X120547082Y-84346312D01*
X120530960Y-84510000D01*
X120535000Y-84551019D01*
X120535001Y-89951668D01*
X120431067Y-89908617D01*
X120211788Y-89865000D01*
X119988212Y-89865000D01*
X119768933Y-89908617D01*
X119562376Y-89994176D01*
X119465000Y-90059241D01*
X119367624Y-89994176D01*
X119161067Y-89908617D01*
X118941788Y-89865000D01*
X118718212Y-89865000D01*
X118498933Y-89908617D01*
X118292376Y-89994176D01*
X118195000Y-90059241D01*
X118097624Y-89994176D01*
X117891067Y-89908617D01*
X117671788Y-89865000D01*
X117448212Y-89865000D01*
X117228933Y-89908617D01*
X117022376Y-89994176D01*
X116925000Y-90059241D01*
X116827624Y-89994176D01*
X116621067Y-89908617D01*
X116401788Y-89865000D01*
X116178212Y-89865000D01*
X115958933Y-89908617D01*
X115752376Y-89994176D01*
X115655000Y-90059241D01*
X115557624Y-89994176D01*
X115351067Y-89908617D01*
X115131788Y-89865000D01*
X114908212Y-89865000D01*
X114688933Y-89908617D01*
X114482376Y-89994176D01*
X114385000Y-90059241D01*
X114287624Y-89994176D01*
X114081067Y-89908617D01*
X113861788Y-89865000D01*
X113638212Y-89865000D01*
X113418933Y-89908617D01*
X113212376Y-89994176D01*
X113115000Y-90059241D01*
X113017624Y-89994176D01*
X112811067Y-89908617D01*
X112591788Y-89865000D01*
X112368212Y-89865000D01*
X112148933Y-89908617D01*
X111942376Y-89994176D01*
X111845000Y-90059241D01*
X111747624Y-89994176D01*
X111541067Y-89908617D01*
X111321788Y-89865000D01*
X111098212Y-89865000D01*
X110878933Y-89908617D01*
X110672376Y-89994176D01*
X110575000Y-90059241D01*
X110477624Y-89994176D01*
X110271067Y-89908617D01*
X110051788Y-89865000D01*
X109828212Y-89865000D01*
X109608933Y-89908617D01*
X109402376Y-89994176D01*
X109305000Y-90059241D01*
X109207624Y-89994176D01*
X109001067Y-89908617D01*
X108781788Y-89865000D01*
X108558212Y-89865000D01*
X108338933Y-89908617D01*
X108132376Y-89994176D01*
X108035000Y-90059241D01*
X107937624Y-89994176D01*
X107731067Y-89908617D01*
X107511788Y-89865000D01*
X107288212Y-89865000D01*
X107068933Y-89908617D01*
X106862376Y-89994176D01*
X106708070Y-90097280D01*
X106693450Y-90008412D01*
X106489174Y-89917542D01*
X106271095Y-89868269D01*
X106047594Y-89862489D01*
X105827260Y-89900423D01*
X105618560Y-89980613D01*
X105566550Y-90008412D01*
X105531439Y-90221834D01*
X106130000Y-90820395D01*
X106144143Y-90806253D01*
X106265000Y-90927110D01*
X106265000Y-91072890D01*
X106144143Y-91193748D01*
X106130000Y-91179605D01*
X105531439Y-91778166D01*
X105566550Y-91991588D01*
X105770826Y-92082458D01*
X105988905Y-92131731D01*
X106212406Y-92137511D01*
X106432740Y-92099577D01*
X106641440Y-92019387D01*
X106693450Y-91991588D01*
X106708070Y-91902720D01*
X106862376Y-92005824D01*
X107068933Y-92091383D01*
X107288212Y-92135000D01*
X107511788Y-92135000D01*
X107731067Y-92091383D01*
X107937624Y-92005824D01*
X108035000Y-91940759D01*
X108132376Y-92005824D01*
X108338933Y-92091383D01*
X108558212Y-92135000D01*
X108781788Y-92135000D01*
X109001067Y-92091383D01*
X109207624Y-92005824D01*
X109305000Y-91940759D01*
X109402376Y-92005824D01*
X109608933Y-92091383D01*
X109828212Y-92135000D01*
X110051788Y-92135000D01*
X110271067Y-92091383D01*
X110477624Y-92005824D01*
X110575000Y-91940759D01*
X110672376Y-92005824D01*
X110878933Y-92091383D01*
X111098212Y-92135000D01*
X111321788Y-92135000D01*
X111541067Y-92091383D01*
X111747624Y-92005824D01*
X111845000Y-91940759D01*
X111942376Y-92005824D01*
X112148933Y-92091383D01*
X112368212Y-92135000D01*
X112591788Y-92135000D01*
X112811067Y-92091383D01*
X113017624Y-92005824D01*
X113115000Y-91940759D01*
X113212376Y-92005824D01*
X113418933Y-92091383D01*
X113638212Y-92135000D01*
X113861788Y-92135000D01*
X114081067Y-92091383D01*
X114287624Y-92005824D01*
X114385000Y-91940759D01*
X114482376Y-92005824D01*
X114688933Y-92091383D01*
X114908212Y-92135000D01*
X115131788Y-92135000D01*
X115351067Y-92091383D01*
X115557624Y-92005824D01*
X115655000Y-91940759D01*
X115752376Y-92005824D01*
X115958933Y-92091383D01*
X116178212Y-92135000D01*
X116401788Y-92135000D01*
X116621067Y-92091383D01*
X116827624Y-92005824D01*
X116925000Y-91940759D01*
X117022376Y-92005824D01*
X117228933Y-92091383D01*
X117448212Y-92135000D01*
X117671788Y-92135000D01*
X117891067Y-92091383D01*
X118097624Y-92005824D01*
X118195000Y-91940759D01*
X118292376Y-92005824D01*
X118498933Y-92091383D01*
X118718212Y-92135000D01*
X118941788Y-92135000D01*
X119161067Y-92091383D01*
X119367624Y-92005824D01*
X119465000Y-91940759D01*
X119562376Y-92005824D01*
X119768933Y-92091383D01*
X119988212Y-92135000D01*
X120211788Y-92135000D01*
X120431067Y-92091383D01*
X120637624Y-92005824D01*
X120735000Y-91940759D01*
X120832376Y-92005824D01*
X121038933Y-92091383D01*
X121258212Y-92135000D01*
X121481788Y-92135000D01*
X121701067Y-92091383D01*
X121907624Y-92005824D01*
X122005000Y-91940759D01*
X122102376Y-92005824D01*
X122308933Y-92091383D01*
X122528212Y-92135000D01*
X122751788Y-92135000D01*
X122971067Y-92091383D01*
X123177624Y-92005824D01*
X123275000Y-91940759D01*
X123372376Y-92005824D01*
X123578933Y-92091383D01*
X123798212Y-92135000D01*
X124021788Y-92135000D01*
X124241067Y-92091383D01*
X124447624Y-92005824D01*
X124633520Y-91881612D01*
X124791612Y-91723520D01*
X124915824Y-91537624D01*
X125001383Y-91331067D01*
X125045000Y-91111788D01*
X125045000Y-90888212D01*
X125001383Y-90668933D01*
X124915824Y-90462376D01*
X124791612Y-90276480D01*
X124758000Y-90242868D01*
X124905868Y-90095000D01*
X129197785Y-90095000D01*
X129058149Y-90234636D01*
X128840915Y-90559750D01*
X128691282Y-90920997D01*
X128615000Y-91304495D01*
X128615000Y-91695505D01*
X128691282Y-92079003D01*
X128840915Y-92440250D01*
X129058149Y-92765364D01*
X129334636Y-93041851D01*
X129659750Y-93259085D01*
X130020997Y-93408718D01*
X130404495Y-93485000D01*
X130795505Y-93485000D01*
X131179003Y-93408718D01*
X131540250Y-93259085D01*
X131865364Y-93041851D01*
X132141851Y-92765364D01*
X132359085Y-92440250D01*
X132508718Y-92079003D01*
X132585000Y-91695505D01*
X132585000Y-91304495D01*
X132508718Y-90920997D01*
X132359085Y-90559750D01*
X132141851Y-90234636D01*
X132002215Y-90095000D01*
X133196705Y-90095000D01*
X133319734Y-90177205D01*
X133508092Y-90255226D01*
X133708051Y-90295000D01*
X133774990Y-90295000D01*
X133774991Y-101404141D01*
X133268581Y-101910552D01*
X133268570Y-101910561D01*
X131983225Y-103195907D01*
X131838102Y-103224774D01*
X131649744Y-103302795D01*
X131480226Y-103416063D01*
X131336063Y-103560226D01*
X131222795Y-103729744D01*
X131144774Y-103918102D01*
X131105000Y-104118061D01*
X131105000Y-104321939D01*
X131144774Y-104521898D01*
X131222795Y-104710256D01*
X131336063Y-104879774D01*
X131480226Y-105023937D01*
X131649744Y-105137205D01*
X131838102Y-105215226D01*
X132038061Y-105255000D01*
X132241939Y-105255000D01*
X132441898Y-105215226D01*
X132630256Y-105137205D01*
X132799774Y-105023937D01*
X132943937Y-104879774D01*
X133057205Y-104710256D01*
X133135226Y-104521898D01*
X133164093Y-104376775D01*
X134375001Y-103165868D01*
X134375001Y-104164130D01*
X133314132Y-105225000D01*
X133278061Y-105225000D01*
X133078102Y-105264774D01*
X132889744Y-105342795D01*
X132720226Y-105456063D01*
X132576063Y-105600226D01*
X132462795Y-105769744D01*
X132384774Y-105958102D01*
X132345000Y-106158061D01*
X132345000Y-106361939D01*
X132384774Y-106561898D01*
X132462795Y-106750256D01*
X132576063Y-106919774D01*
X132720226Y-107063937D01*
X132889744Y-107177205D01*
X133078102Y-107255226D01*
X133278061Y-107295000D01*
X133481939Y-107295000D01*
X133681898Y-107255226D01*
X133870256Y-107177205D01*
X134039774Y-107063937D01*
X134183937Y-106919774D01*
X134297205Y-106750256D01*
X134375226Y-106561898D01*
X134384229Y-106516639D01*
X135771432Y-105129437D01*
X135803291Y-105103291D01*
X135907636Y-104976146D01*
X135985172Y-104831087D01*
X136032918Y-104673689D01*
X136039192Y-104609990D01*
X136082795Y-104715256D01*
X136196063Y-104884774D01*
X136340226Y-105028937D01*
X136509744Y-105142205D01*
X136698102Y-105220226D01*
X136898061Y-105260000D01*
X137101939Y-105260000D01*
X137301898Y-105220226D01*
X137490256Y-105142205D01*
X137659774Y-105028937D01*
X137803937Y-104884774D01*
X137917205Y-104715256D01*
X137995226Y-104526898D01*
X138035000Y-104326939D01*
X138035000Y-104123061D01*
X137995226Y-103923102D01*
X137917205Y-103734744D01*
X137885000Y-103686546D01*
X137885000Y-92588454D01*
X137917205Y-92540256D01*
X137995226Y-92351898D01*
X138035000Y-92151939D01*
X138035000Y-91948061D01*
X138815000Y-91948061D01*
X138815000Y-92151939D01*
X138854774Y-92351898D01*
X138932795Y-92540256D01*
X138965001Y-92588456D01*
X138965000Y-103686546D01*
X138932795Y-103734744D01*
X138854774Y-103923102D01*
X138815000Y-104123061D01*
X138815000Y-104326939D01*
X138854774Y-104526898D01*
X138932795Y-104715256D01*
X139046063Y-104884774D01*
X139190226Y-105028937D01*
X139359744Y-105142205D01*
X139548102Y-105220226D01*
X139748061Y-105260000D01*
X139951939Y-105260000D01*
X140151898Y-105220226D01*
X140340256Y-105142205D01*
X140509774Y-105028937D01*
X140653937Y-104884774D01*
X140767205Y-104715256D01*
X140845226Y-104526898D01*
X140885000Y-104326939D01*
X140885000Y-104123061D01*
X140845226Y-103923102D01*
X140767205Y-103734744D01*
X140735000Y-103686546D01*
X140735000Y-92588454D01*
X140767205Y-92540256D01*
X140845226Y-92351898D01*
X140885000Y-92151939D01*
X140885000Y-91948061D01*
X140845226Y-91748102D01*
X140767205Y-91559744D01*
X140653937Y-91390226D01*
X140509774Y-91246063D01*
X140340256Y-91132795D01*
X140151898Y-91054774D01*
X139951939Y-91015000D01*
X139748061Y-91015000D01*
X139548102Y-91054774D01*
X139359744Y-91132795D01*
X139190226Y-91246063D01*
X139046063Y-91390226D01*
X138932795Y-91559744D01*
X138854774Y-91748102D01*
X138815000Y-91948061D01*
X138035000Y-91948061D01*
X137995226Y-91748102D01*
X137917205Y-91559744D01*
X137803937Y-91390226D01*
X137659774Y-91246063D01*
X137490256Y-91132795D01*
X137301898Y-91054774D01*
X137101939Y-91015000D01*
X136898061Y-91015000D01*
X136698102Y-91054774D01*
X136509744Y-91132795D01*
X136340226Y-91246063D01*
X136196063Y-91390226D01*
X136082795Y-91559744D01*
X136045000Y-91650989D01*
X136045000Y-83159511D01*
X136049040Y-83118493D01*
X136037064Y-82996900D01*
X136032918Y-82954804D01*
X135985172Y-82797406D01*
X135907636Y-82652347D01*
X135803291Y-82525202D01*
X135771433Y-82499057D01*
X135077499Y-81805125D01*
X135048633Y-81660002D01*
X134970612Y-81471644D01*
X134857344Y-81302126D01*
X134713181Y-81157963D01*
X134669691Y-81128904D01*
X134685000Y-81051939D01*
X134685000Y-80848061D01*
X134645226Y-80648102D01*
X134567205Y-80459744D01*
X134453937Y-80290226D01*
X134309774Y-80146063D01*
X134150937Y-80039932D01*
X134505869Y-79685000D01*
X144369419Y-79685000D01*
X144312795Y-79769744D01*
X144234774Y-79958102D01*
X144195000Y-80158061D01*
X144195000Y-80361939D01*
X144234774Y-80561898D01*
X144312795Y-80750256D01*
X144395000Y-80873285D01*
X144395001Y-81891680D01*
X144322795Y-81999744D01*
X144244774Y-82188102D01*
X144205000Y-82388061D01*
X144205000Y-82591939D01*
X144244774Y-82791898D01*
X144322795Y-82980256D01*
X144436063Y-83149774D01*
X144580226Y-83293937D01*
X144749744Y-83407205D01*
X144938102Y-83485226D01*
X145138061Y-83525000D01*
X145341939Y-83525000D01*
X145541898Y-83485226D01*
X145730256Y-83407205D01*
X145899774Y-83293937D01*
X146043937Y-83149774D01*
X146157205Y-82980256D01*
X146235226Y-82791898D01*
X146275000Y-82591939D01*
X146275000Y-82388061D01*
X146235226Y-82188102D01*
X146157205Y-81999744D01*
X146065000Y-81861749D01*
X146065000Y-80873285D01*
X146147205Y-80750256D01*
X146225226Y-80561898D01*
X146265000Y-80361939D01*
X146265000Y-80158061D01*
X146225226Y-79958102D01*
X146147205Y-79769744D01*
X146090581Y-79685000D01*
X146824207Y-79685000D01*
X147004866Y-79905134D01*
X147230986Y-80090706D01*
X147285791Y-80120000D01*
X147230986Y-80149294D01*
X147004866Y-80334866D01*
X146819294Y-80560986D01*
X146681401Y-80818966D01*
X146596487Y-81098889D01*
X146567815Y-81390000D01*
X146596487Y-81681111D01*
X146681401Y-81961034D01*
X146819294Y-82219014D01*
X147004866Y-82445134D01*
X147225000Y-82625793D01*
X147225001Y-98984131D01*
X146294133Y-99915000D01*
X145043285Y-99915000D01*
X144920256Y-99832795D01*
X144731898Y-99754774D01*
X144531939Y-99715000D01*
X144328061Y-99715000D01*
X144128102Y-99754774D01*
X143939744Y-99832795D01*
X143770226Y-99946063D01*
X143626063Y-100090226D01*
X143512795Y-100259744D01*
X143434774Y-100448102D01*
X143395000Y-100648061D01*
X143395000Y-100851939D01*
X143434774Y-101051898D01*
X143512795Y-101240256D01*
X143626063Y-101409774D01*
X143770226Y-101553937D01*
X143939744Y-101667205D01*
X144128102Y-101745226D01*
X144328061Y-101785000D01*
X144531939Y-101785000D01*
X144731898Y-101745226D01*
X144920256Y-101667205D01*
X145043285Y-101585000D01*
X146598982Y-101585000D01*
X146640000Y-101589040D01*
X146681018Y-101585000D01*
X146681019Y-101585000D01*
X146803689Y-101572918D01*
X146961087Y-101525172D01*
X147106146Y-101447636D01*
X147233291Y-101343291D01*
X147259446Y-101311421D01*
X148621426Y-99949442D01*
X148653291Y-99923291D01*
X148757636Y-99796146D01*
X148835172Y-99651087D01*
X148882918Y-99493689D01*
X148895000Y-99371019D01*
X148895000Y-99371009D01*
X148899039Y-99330001D01*
X148895000Y-99288993D01*
X148895000Y-82625793D01*
X149115134Y-82445134D01*
X149300706Y-82219014D01*
X149340000Y-82145499D01*
X149340001Y-120967711D01*
X149330420Y-121065424D01*
X149311420Y-121128357D01*
X149280554Y-121186406D01*
X149239011Y-121237343D01*
X149188356Y-121279248D01*
X149130529Y-121310515D01*
X149067728Y-121329956D01*
X148972165Y-121340000D01*
X148284608Y-121340000D01*
X148179610Y-121235002D01*
X148520766Y-121048927D01*
X148736513Y-120631591D01*
X148866696Y-120180185D01*
X148906313Y-119712054D01*
X148853842Y-119245189D01*
X148711297Y-118797532D01*
X148520766Y-118441073D01*
X148179609Y-118254997D01*
X146689605Y-119745000D01*
X146703748Y-119759142D01*
X146524142Y-119938748D01*
X146510000Y-119924605D01*
X146495858Y-119938748D01*
X146316252Y-119759142D01*
X146330395Y-119745000D01*
X144840391Y-118254997D01*
X144499234Y-118441073D01*
X144283487Y-118858409D01*
X144153304Y-119309815D01*
X144113687Y-119777946D01*
X144166158Y-120244811D01*
X144308703Y-120692468D01*
X144499234Y-121048927D01*
X144840390Y-121235002D01*
X144735392Y-121340000D01*
X134127000Y-121340000D01*
X134127000Y-118075391D01*
X145019997Y-118075391D01*
X146510000Y-119565395D01*
X148000003Y-118075391D01*
X147813927Y-117734234D01*
X147396591Y-117518487D01*
X146945185Y-117388304D01*
X146477054Y-117348687D01*
X146010189Y-117401158D01*
X145562532Y-117543703D01*
X145206073Y-117734234D01*
X145019997Y-118075391D01*
X134127000Y-118075391D01*
X134127000Y-114000000D01*
X134124560Y-113975224D01*
X134117333Y-113951399D01*
X134105597Y-113929443D01*
X134089803Y-113910197D01*
X134070557Y-113894403D01*
X134048601Y-113882667D01*
X134024776Y-113875440D01*
X134000000Y-113873000D01*
X125500000Y-113873000D01*
X125475224Y-113875440D01*
X125451399Y-113882667D01*
X125429443Y-113894403D01*
X125410197Y-113910197D01*
X125394403Y-113929443D01*
X125382667Y-113951399D01*
X125375440Y-113975224D01*
X125373000Y-114000000D01*
X125373000Y-121340000D01*
X88627000Y-121340000D01*
X88627000Y-114000000D01*
X88624560Y-113975224D01*
X88617333Y-113951399D01*
X88605597Y-113929443D01*
X88589803Y-113910197D01*
X88570557Y-113894403D01*
X88548601Y-113882667D01*
X88524776Y-113875440D01*
X88500000Y-113873000D01*
X81160000Y-113873000D01*
X81160000Y-111625000D01*
X140311928Y-111625000D01*
X140311928Y-113325000D01*
X140324188Y-113449482D01*
X140360498Y-113569180D01*
X140419463Y-113679494D01*
X140498815Y-113776185D01*
X140595506Y-113855537D01*
X140705820Y-113914502D01*
X140747690Y-113927203D01*
X140646525Y-114028368D01*
X140484010Y-114271589D01*
X140372068Y-114541842D01*
X140315000Y-114828740D01*
X140315000Y-115121260D01*
X140372068Y-115408158D01*
X140484010Y-115678411D01*
X140646525Y-115921632D01*
X140853368Y-116128475D01*
X141096589Y-116290990D01*
X141366842Y-116402932D01*
X141653740Y-116460000D01*
X141946260Y-116460000D01*
X142233158Y-116402932D01*
X142503411Y-116290990D01*
X142746632Y-116128475D01*
X142800000Y-116075107D01*
X142853368Y-116128475D01*
X143096589Y-116290990D01*
X143366842Y-116402932D01*
X143653740Y-116460000D01*
X143946260Y-116460000D01*
X144233158Y-116402932D01*
X144503411Y-116290990D01*
X144746632Y-116128475D01*
X144953475Y-115921632D01*
X145115990Y-115678411D01*
X145227932Y-115408158D01*
X145285000Y-115121260D01*
X145285000Y-114828740D01*
X145227932Y-114541842D01*
X145115990Y-114271589D01*
X144953475Y-114028368D01*
X144746632Y-113821525D01*
X144583590Y-113712584D01*
X144648792Y-113503397D01*
X143800000Y-112654605D01*
X143785858Y-112668748D01*
X143606253Y-112489143D01*
X143620395Y-112475000D01*
X143979605Y-112475000D01*
X144828397Y-113323792D01*
X145077472Y-113246157D01*
X145203371Y-112982117D01*
X145275339Y-112698589D01*
X145290611Y-112406469D01*
X145248599Y-112116981D01*
X145150919Y-111841253D01*
X145077472Y-111703843D01*
X144828397Y-111626208D01*
X143979605Y-112475000D01*
X143620395Y-112475000D01*
X143606253Y-112460858D01*
X143785858Y-112281253D01*
X143800000Y-112295395D01*
X144648792Y-111446603D01*
X144571157Y-111197528D01*
X144307117Y-111071629D01*
X144023589Y-110999661D01*
X143731469Y-110984389D01*
X143441981Y-111026401D01*
X143166253Y-111124081D01*
X143090150Y-111164759D01*
X143004494Y-111094463D01*
X142894180Y-111035498D01*
X142774482Y-110999188D01*
X142650000Y-110986928D01*
X140950000Y-110986928D01*
X140825518Y-110999188D01*
X140705820Y-111035498D01*
X140595506Y-111094463D01*
X140498815Y-111173815D01*
X140419463Y-111270506D01*
X140360498Y-111380820D01*
X140324188Y-111500518D01*
X140311928Y-111625000D01*
X81160000Y-111625000D01*
X81160000Y-108348816D01*
X85195000Y-108348816D01*
X85195000Y-108651184D01*
X85253989Y-108947743D01*
X85369701Y-109227095D01*
X85537688Y-109478505D01*
X85751495Y-109692312D01*
X86002905Y-109860299D01*
X86282257Y-109976011D01*
X86578816Y-110035000D01*
X86881184Y-110035000D01*
X87177743Y-109976011D01*
X87457095Y-109860299D01*
X87708505Y-109692312D01*
X87774944Y-109625873D01*
X87780498Y-109644180D01*
X87839463Y-109754494D01*
X87918815Y-109851185D01*
X88015506Y-109930537D01*
X88125820Y-109989502D01*
X88245518Y-110025812D01*
X88370000Y-110038072D01*
X90170000Y-110038072D01*
X90294482Y-110025812D01*
X90414180Y-109989502D01*
X90524494Y-109930537D01*
X90621185Y-109851185D01*
X90700537Y-109754494D01*
X90759502Y-109644180D01*
X90795812Y-109524482D01*
X90808072Y-109400000D01*
X90808072Y-108348816D01*
X99195000Y-108348816D01*
X99195000Y-108651184D01*
X99253989Y-108947743D01*
X99369701Y-109227095D01*
X99537688Y-109478505D01*
X99751495Y-109692312D01*
X100002905Y-109860299D01*
X100282257Y-109976011D01*
X100578816Y-110035000D01*
X100881184Y-110035000D01*
X101177743Y-109976011D01*
X101457095Y-109860299D01*
X101708505Y-109692312D01*
X101774944Y-109625873D01*
X101780498Y-109644180D01*
X101839463Y-109754494D01*
X101918815Y-109851185D01*
X102015506Y-109930537D01*
X102125820Y-109989502D01*
X102245518Y-110025812D01*
X102370000Y-110038072D01*
X104170000Y-110038072D01*
X104294482Y-110025812D01*
X104414180Y-109989502D01*
X104524494Y-109930537D01*
X104621185Y-109851185D01*
X104700537Y-109754494D01*
X104759502Y-109644180D01*
X104795812Y-109524482D01*
X104808072Y-109400000D01*
X104808072Y-108348816D01*
X113195000Y-108348816D01*
X113195000Y-108651184D01*
X113253989Y-108947743D01*
X113369701Y-109227095D01*
X113537688Y-109478505D01*
X113751495Y-109692312D01*
X114002905Y-109860299D01*
X114282257Y-109976011D01*
X114578816Y-110035000D01*
X114881184Y-110035000D01*
X115177743Y-109976011D01*
X115457095Y-109860299D01*
X115708505Y-109692312D01*
X115774944Y-109625873D01*
X115780498Y-109644180D01*
X115839463Y-109754494D01*
X115918815Y-109851185D01*
X116015506Y-109930537D01*
X116125820Y-109989502D01*
X116245518Y-110025812D01*
X116370000Y-110038072D01*
X118170000Y-110038072D01*
X118294482Y-110025812D01*
X118414180Y-109989502D01*
X118524494Y-109930537D01*
X118621185Y-109851185D01*
X118700537Y-109754494D01*
X118759502Y-109644180D01*
X118795812Y-109524482D01*
X118808072Y-109400000D01*
X118808072Y-107600000D01*
X118795812Y-107475518D01*
X118759502Y-107355820D01*
X118740356Y-107320000D01*
X135867815Y-107320000D01*
X135896487Y-107611111D01*
X135981401Y-107891034D01*
X136119294Y-108149014D01*
X136304866Y-108375134D01*
X136334687Y-108399607D01*
X136265820Y-108420498D01*
X136155506Y-108479463D01*
X136058815Y-108558815D01*
X135979463Y-108655506D01*
X135920498Y-108765820D01*
X135884188Y-108885518D01*
X135871928Y-109010000D01*
X135871928Y-110710000D01*
X135884188Y-110834482D01*
X135920498Y-110954180D01*
X135979463Y-111064494D01*
X136058815Y-111161185D01*
X136155506Y-111240537D01*
X136265820Y-111299502D01*
X136385518Y-111335812D01*
X136510000Y-111348072D01*
X138210000Y-111348072D01*
X138334482Y-111335812D01*
X138454180Y-111299502D01*
X138564494Y-111240537D01*
X138661185Y-111161185D01*
X138740537Y-111064494D01*
X138799502Y-110954180D01*
X138835812Y-110834482D01*
X138848072Y-110710000D01*
X138848072Y-109374609D01*
X145019997Y-109374609D01*
X145206073Y-109715766D01*
X145623409Y-109931513D01*
X146074815Y-110061696D01*
X146542946Y-110101313D01*
X147009811Y-110048842D01*
X147457468Y-109906297D01*
X147813927Y-109715766D01*
X148000003Y-109374609D01*
X146510000Y-107884605D01*
X145019997Y-109374609D01*
X138848072Y-109374609D01*
X138848072Y-109010000D01*
X138835812Y-108885518D01*
X138799502Y-108765820D01*
X138740537Y-108655506D01*
X138661185Y-108558815D01*
X138564494Y-108479463D01*
X138454180Y-108420498D01*
X138385313Y-108399607D01*
X138415134Y-108375134D01*
X138600706Y-108149014D01*
X138738599Y-107891034D01*
X138785037Y-107737946D01*
X144113687Y-107737946D01*
X144166158Y-108204811D01*
X144308703Y-108652468D01*
X144499234Y-109008927D01*
X144840391Y-109195003D01*
X146330395Y-107705000D01*
X146689605Y-107705000D01*
X148179609Y-109195003D01*
X148520766Y-109008927D01*
X148736513Y-108591591D01*
X148866696Y-108140185D01*
X148906313Y-107672054D01*
X148853842Y-107205189D01*
X148711297Y-106757532D01*
X148520766Y-106401073D01*
X148179609Y-106214997D01*
X146689605Y-107705000D01*
X146330395Y-107705000D01*
X144840391Y-106214997D01*
X144499234Y-106401073D01*
X144283487Y-106818409D01*
X144153304Y-107269815D01*
X144113687Y-107737946D01*
X138785037Y-107737946D01*
X138823513Y-107611111D01*
X138852185Y-107320000D01*
X138823513Y-107028889D01*
X138738599Y-106748966D01*
X138600706Y-106490986D01*
X138415134Y-106264866D01*
X138189014Y-106079294D01*
X138106878Y-106035391D01*
X145019997Y-106035391D01*
X146510000Y-107525395D01*
X148000003Y-106035391D01*
X147813927Y-105694234D01*
X147396591Y-105478487D01*
X146945185Y-105348304D01*
X146477054Y-105308687D01*
X146010189Y-105361158D01*
X145562532Y-105503703D01*
X145206073Y-105694234D01*
X145019997Y-106035391D01*
X138106878Y-106035391D01*
X137931034Y-105941401D01*
X137651111Y-105856487D01*
X137432950Y-105835000D01*
X137287050Y-105835000D01*
X137068889Y-105856487D01*
X136788966Y-105941401D01*
X136530986Y-106079294D01*
X136304866Y-106264866D01*
X136119294Y-106490986D01*
X135981401Y-106748966D01*
X135896487Y-107028889D01*
X135867815Y-107320000D01*
X118740356Y-107320000D01*
X118700537Y-107245506D01*
X118621185Y-107148815D01*
X118524494Y-107069463D01*
X118414180Y-107010498D01*
X118294482Y-106974188D01*
X118170000Y-106961928D01*
X116370000Y-106961928D01*
X116245518Y-106974188D01*
X116125820Y-107010498D01*
X116015506Y-107069463D01*
X115918815Y-107148815D01*
X115839463Y-107245506D01*
X115780498Y-107355820D01*
X115774944Y-107374127D01*
X115708505Y-107307688D01*
X115457095Y-107139701D01*
X115177743Y-107023989D01*
X114881184Y-106965000D01*
X114578816Y-106965000D01*
X114282257Y-107023989D01*
X114002905Y-107139701D01*
X113751495Y-107307688D01*
X113537688Y-107521495D01*
X113369701Y-107772905D01*
X113253989Y-108052257D01*
X113195000Y-108348816D01*
X104808072Y-108348816D01*
X104808072Y-107600000D01*
X104795812Y-107475518D01*
X104759502Y-107355820D01*
X104700537Y-107245506D01*
X104621185Y-107148815D01*
X104524494Y-107069463D01*
X104414180Y-107010498D01*
X104294482Y-106974188D01*
X104170000Y-106961928D01*
X102370000Y-106961928D01*
X102245518Y-106974188D01*
X102125820Y-107010498D01*
X102015506Y-107069463D01*
X101918815Y-107148815D01*
X101839463Y-107245506D01*
X101780498Y-107355820D01*
X101774944Y-107374127D01*
X101708505Y-107307688D01*
X101457095Y-107139701D01*
X101177743Y-107023989D01*
X100881184Y-106965000D01*
X100578816Y-106965000D01*
X100282257Y-107023989D01*
X100002905Y-107139701D01*
X99751495Y-107307688D01*
X99537688Y-107521495D01*
X99369701Y-107772905D01*
X99253989Y-108052257D01*
X99195000Y-108348816D01*
X90808072Y-108348816D01*
X90808072Y-107600000D01*
X90795812Y-107475518D01*
X90759502Y-107355820D01*
X90700537Y-107245506D01*
X90621185Y-107148815D01*
X90524494Y-107069463D01*
X90414180Y-107010498D01*
X90294482Y-106974188D01*
X90170000Y-106961928D01*
X88370000Y-106961928D01*
X88245518Y-106974188D01*
X88125820Y-107010498D01*
X88015506Y-107069463D01*
X87918815Y-107148815D01*
X87839463Y-107245506D01*
X87780498Y-107355820D01*
X87774944Y-107374127D01*
X87708505Y-107307688D01*
X87457095Y-107139701D01*
X87177743Y-107023989D01*
X86881184Y-106965000D01*
X86578816Y-106965000D01*
X86282257Y-107023989D01*
X86002905Y-107139701D01*
X85751495Y-107307688D01*
X85537688Y-107521495D01*
X85369701Y-107772905D01*
X85253989Y-108052257D01*
X85195000Y-108348816D01*
X81160000Y-108348816D01*
X81160000Y-91304495D01*
X97415000Y-91304495D01*
X97415000Y-91695505D01*
X97491282Y-92079003D01*
X97640915Y-92440250D01*
X97858149Y-92765364D01*
X98134636Y-93041851D01*
X98459750Y-93259085D01*
X98820997Y-93408718D01*
X99204495Y-93485000D01*
X99595505Y-93485000D01*
X99979003Y-93408718D01*
X100340250Y-93259085D01*
X100665364Y-93041851D01*
X100941851Y-92765364D01*
X101159085Y-92440250D01*
X101308718Y-92079003D01*
X101385000Y-91695505D01*
X101385000Y-91304495D01*
X101340825Y-91082406D01*
X104992489Y-91082406D01*
X105030423Y-91302740D01*
X105110613Y-91511440D01*
X105138412Y-91563450D01*
X105351834Y-91598561D01*
X105950395Y-91000000D01*
X105351834Y-90401439D01*
X105138412Y-90436550D01*
X105047542Y-90640826D01*
X104998269Y-90858905D01*
X104992489Y-91082406D01*
X101340825Y-91082406D01*
X101308718Y-90920997D01*
X101159085Y-90559750D01*
X100941851Y-90234636D01*
X100665364Y-89958149D01*
X100340250Y-89740915D01*
X99979003Y-89591282D01*
X99595505Y-89515000D01*
X99204495Y-89515000D01*
X98820997Y-89591282D01*
X98459750Y-89740915D01*
X98134636Y-89958149D01*
X97858149Y-90234636D01*
X97640915Y-90559750D01*
X97491282Y-90920997D01*
X97415000Y-91304495D01*
X81160000Y-91304495D01*
X81160000Y-68627000D01*
X88000000Y-68627000D01*
X88024776Y-68624560D01*
X88048601Y-68617333D01*
X88070557Y-68605597D01*
X88089803Y-68589803D01*
X88105597Y-68570557D01*
X88117333Y-68548601D01*
X88124560Y-68524776D01*
X88127000Y-68500000D01*
X88127000Y-65488061D01*
X106925000Y-65488061D01*
X106925000Y-65691939D01*
X106964774Y-65891898D01*
X107042795Y-66080256D01*
X107156063Y-66249774D01*
X107300226Y-66393937D01*
X107469744Y-66507205D01*
X107658102Y-66585226D01*
X107858061Y-66625000D01*
X108061939Y-66625000D01*
X108261898Y-66585226D01*
X108450256Y-66507205D01*
X108573285Y-66425000D01*
X113018982Y-66425000D01*
X113060000Y-66429040D01*
X113101018Y-66425000D01*
X121845001Y-66425000D01*
X121845000Y-68416715D01*
X121762795Y-68539744D01*
X121684774Y-68728102D01*
X121645000Y-68928061D01*
X121645000Y-69131939D01*
X121684774Y-69331898D01*
X121762795Y-69520256D01*
X121876063Y-69689774D01*
X122020226Y-69833937D01*
X122189744Y-69947205D01*
X122378102Y-70025226D01*
X122578061Y-70065000D01*
X122781939Y-70065000D01*
X122981898Y-70025226D01*
X123170256Y-69947205D01*
X123339774Y-69833937D01*
X123483937Y-69689774D01*
X123597205Y-69520256D01*
X123675226Y-69331898D01*
X123715000Y-69131939D01*
X123715000Y-68928061D01*
X123675226Y-68728102D01*
X123597205Y-68539744D01*
X123515000Y-68416715D01*
X123515000Y-66555867D01*
X123645868Y-66425000D01*
X124828982Y-66425000D01*
X124870000Y-66429040D01*
X124911018Y-66425000D01*
X124911019Y-66425000D01*
X125033689Y-66412918D01*
X125191087Y-66365172D01*
X125336146Y-66287636D01*
X125463291Y-66183291D01*
X125489446Y-66151421D01*
X126491428Y-65149440D01*
X126523291Y-65123291D01*
X126627636Y-64996146D01*
X126705172Y-64851087D01*
X126752918Y-64693689D01*
X126765000Y-64571019D01*
X126765000Y-64571009D01*
X126769039Y-64530001D01*
X126765000Y-64488993D01*
X126765000Y-63115793D01*
X126985134Y-62935134D01*
X127170706Y-62709014D01*
X127308599Y-62451034D01*
X127393513Y-62171111D01*
X127422185Y-61880000D01*
X127393513Y-61588889D01*
X127308599Y-61308966D01*
X127170706Y-61050986D01*
X126985134Y-60824866D01*
X126759014Y-60639294D01*
X126501034Y-60501401D01*
X126221111Y-60416487D01*
X126002950Y-60395000D01*
X125857050Y-60395000D01*
X125638889Y-60416487D01*
X125358966Y-60501401D01*
X125100986Y-60639294D01*
X124874866Y-60824866D01*
X124689294Y-61050986D01*
X124654799Y-61115523D01*
X124585178Y-60998645D01*
X124390269Y-60782412D01*
X124156920Y-60608359D01*
X123894099Y-60483175D01*
X123746890Y-60438524D01*
X123517000Y-60559845D01*
X123517000Y-61753000D01*
X123537000Y-61753000D01*
X123537000Y-62007000D01*
X123517000Y-62007000D01*
X123517000Y-63200155D01*
X123746890Y-63321476D01*
X123894099Y-63276825D01*
X124156920Y-63151641D01*
X124390269Y-62977588D01*
X124585178Y-62761355D01*
X124654799Y-62644477D01*
X124689294Y-62709014D01*
X124874866Y-62935134D01*
X125095001Y-63115794D01*
X125095000Y-64184132D01*
X124524133Y-64755000D01*
X123341007Y-64755000D01*
X123299999Y-64750961D01*
X123258991Y-64755000D01*
X114605000Y-64755000D01*
X114605000Y-63135793D01*
X114825134Y-62955134D01*
X115010706Y-62729014D01*
X115148599Y-62471034D01*
X115233513Y-62191111D01*
X115262185Y-61900000D01*
X115233513Y-61608889D01*
X115148599Y-61328966D01*
X115010706Y-61070986D01*
X114977070Y-61030000D01*
X116821928Y-61030000D01*
X116821928Y-62730000D01*
X116834188Y-62854482D01*
X116870498Y-62974180D01*
X116929463Y-63084494D01*
X117008815Y-63181185D01*
X117105506Y-63260537D01*
X117215820Y-63319502D01*
X117335518Y-63355812D01*
X117460000Y-63368072D01*
X119160000Y-63368072D01*
X119284482Y-63355812D01*
X119404180Y-63319502D01*
X119514494Y-63260537D01*
X119611185Y-63181185D01*
X119690537Y-63084494D01*
X119749502Y-62974180D01*
X119770393Y-62905313D01*
X119794866Y-62935134D01*
X120020986Y-63120706D01*
X120278966Y-63258599D01*
X120558889Y-63343513D01*
X120777050Y-63365000D01*
X120922950Y-63365000D01*
X121141111Y-63343513D01*
X121421034Y-63258599D01*
X121679014Y-63120706D01*
X121905134Y-62935134D01*
X122090706Y-62709014D01*
X122125201Y-62644477D01*
X122194822Y-62761355D01*
X122389731Y-62977588D01*
X122623080Y-63151641D01*
X122885901Y-63276825D01*
X123033110Y-63321476D01*
X123263000Y-63200155D01*
X123263000Y-62007000D01*
X123243000Y-62007000D01*
X123243000Y-61753000D01*
X123263000Y-61753000D01*
X123263000Y-60559845D01*
X123033110Y-60438524D01*
X122885901Y-60483175D01*
X122623080Y-60608359D01*
X122389731Y-60782412D01*
X122194822Y-60998645D01*
X122125201Y-61115523D01*
X122090706Y-61050986D01*
X121905134Y-60824866D01*
X121679014Y-60639294D01*
X121421034Y-60501401D01*
X121141111Y-60416487D01*
X120922950Y-60395000D01*
X120777050Y-60395000D01*
X120558889Y-60416487D01*
X120278966Y-60501401D01*
X120020986Y-60639294D01*
X119794866Y-60824866D01*
X119770393Y-60854687D01*
X119749502Y-60785820D01*
X119690537Y-60675506D01*
X119611185Y-60578815D01*
X119514494Y-60499463D01*
X119404180Y-60440498D01*
X119284482Y-60404188D01*
X119160000Y-60391928D01*
X117460000Y-60391928D01*
X117335518Y-60404188D01*
X117215820Y-60440498D01*
X117105506Y-60499463D01*
X117008815Y-60578815D01*
X116929463Y-60675506D01*
X116870498Y-60785820D01*
X116834188Y-60905518D01*
X116821928Y-61030000D01*
X114977070Y-61030000D01*
X114825134Y-60844866D01*
X114599014Y-60659294D01*
X114341034Y-60521401D01*
X114061111Y-60436487D01*
X113842950Y-60415000D01*
X113697050Y-60415000D01*
X113478889Y-60436487D01*
X113198966Y-60521401D01*
X112940986Y-60659294D01*
X112714866Y-60844866D01*
X112529294Y-61070986D01*
X112494799Y-61135523D01*
X112425178Y-61018645D01*
X112230269Y-60802412D01*
X111996920Y-60628359D01*
X111734099Y-60503175D01*
X111586890Y-60458524D01*
X111357000Y-60579845D01*
X111357000Y-61773000D01*
X111377000Y-61773000D01*
X111377000Y-62027000D01*
X111357000Y-62027000D01*
X111357000Y-63220155D01*
X111586890Y-63341476D01*
X111734099Y-63296825D01*
X111996920Y-63171641D01*
X112230269Y-62997588D01*
X112425178Y-62781355D01*
X112494799Y-62664477D01*
X112529294Y-62729014D01*
X112714866Y-62955134D01*
X112935001Y-63135794D01*
X112935000Y-64534132D01*
X112714132Y-64755000D01*
X108573285Y-64755000D01*
X108450256Y-64672795D01*
X108261898Y-64594774D01*
X108061939Y-64555000D01*
X107858061Y-64555000D01*
X107658102Y-64594774D01*
X107469744Y-64672795D01*
X107300226Y-64786063D01*
X107156063Y-64930226D01*
X107042795Y-65099744D01*
X106964774Y-65288102D01*
X106925000Y-65488061D01*
X88127000Y-65488061D01*
X88127000Y-60160000D01*
X97932785Y-60160000D01*
X97858149Y-60234636D01*
X97858149Y-60234636D01*
G37*
X97858149Y-60234636D02*
X97640915Y-60559750D01*
X97491282Y-60920997D01*
X97415000Y-61304495D01*
X97415000Y-61695505D01*
X97491282Y-62079003D01*
X97640915Y-62440250D01*
X97858149Y-62765364D01*
X98134636Y-63041851D01*
X98459750Y-63259085D01*
X98820997Y-63408718D01*
X99204495Y-63485000D01*
X99595505Y-63485000D01*
X99979003Y-63408718D01*
X100340250Y-63259085D01*
X100665364Y-63041851D01*
X100941851Y-62765364D01*
X101159085Y-62440250D01*
X101308718Y-62079003D01*
X101385000Y-61695505D01*
X101385000Y-61304495D01*
X101334379Y-61050000D01*
X104661928Y-61050000D01*
X104661928Y-62750000D01*
X104674188Y-62874482D01*
X104710498Y-62994180D01*
X104769463Y-63104494D01*
X104848815Y-63201185D01*
X104945506Y-63280537D01*
X105055820Y-63339502D01*
X105175518Y-63375812D01*
X105300000Y-63388072D01*
X107000000Y-63388072D01*
X107124482Y-63375812D01*
X107244180Y-63339502D01*
X107354494Y-63280537D01*
X107451185Y-63201185D01*
X107530537Y-63104494D01*
X107589502Y-62994180D01*
X107610393Y-62925313D01*
X107634866Y-62955134D01*
X107860986Y-63140706D01*
X108118966Y-63278599D01*
X108398889Y-63363513D01*
X108617050Y-63385000D01*
X108762950Y-63385000D01*
X108981111Y-63363513D01*
X109261034Y-63278599D01*
X109519014Y-63140706D01*
X109745134Y-62955134D01*
X109930706Y-62729014D01*
X109965201Y-62664477D01*
X110034822Y-62781355D01*
X110229731Y-62997588D01*
X110463080Y-63171641D01*
X110725901Y-63296825D01*
X110873110Y-63341476D01*
X111103000Y-63220155D01*
X111103000Y-62027000D01*
X111083000Y-62027000D01*
X111083000Y-61773000D01*
X111103000Y-61773000D01*
X111103000Y-60579845D01*
X110873110Y-60458524D01*
X110725901Y-60503175D01*
X110463080Y-60628359D01*
X110229731Y-60802412D01*
X110034822Y-61018645D01*
X109965201Y-61135523D01*
X109930706Y-61070986D01*
X109745134Y-60844866D01*
X109519014Y-60659294D01*
X109261034Y-60521401D01*
X108981111Y-60436487D01*
X108762950Y-60415000D01*
X108617050Y-60415000D01*
X108398889Y-60436487D01*
X108118966Y-60521401D01*
X107860986Y-60659294D01*
X107634866Y-60844866D01*
X107610393Y-60874687D01*
X107589502Y-60805820D01*
X107530537Y-60695506D01*
X107451185Y-60598815D01*
X107354494Y-60519463D01*
X107244180Y-60460498D01*
X107124482Y-60424188D01*
X107000000Y-60411928D01*
X105300000Y-60411928D01*
X105175518Y-60424188D01*
X105055820Y-60460498D01*
X104945506Y-60519463D01*
X104848815Y-60598815D01*
X104769463Y-60695506D01*
X104710498Y-60805820D01*
X104674188Y-60925518D01*
X104661928Y-61050000D01*
X101334379Y-61050000D01*
X101308718Y-60920997D01*
X101159085Y-60559750D01*
X100941851Y-60234636D01*
X100867215Y-60160000D01*
X129132785Y-60160000D01*
X129058149Y-60234636D01*
X128840915Y-60559750D01*
X128691282Y-60920997D01*
X128615000Y-61304495D01*
X128615000Y-61695505D01*
X128691282Y-62079003D01*
X128840915Y-62440250D01*
X129058149Y-62765364D01*
X129334636Y-63041851D01*
X129659750Y-63259085D01*
X130020997Y-63408718D01*
X130404495Y-63485000D01*
X130795505Y-63485000D01*
X131179003Y-63408718D01*
X131540250Y-63259085D01*
X131865364Y-63041851D01*
X132141851Y-62765364D01*
X132359085Y-62440250D01*
X132508718Y-62079003D01*
X132585000Y-61695505D01*
X132585000Y-61304495D01*
X132508718Y-60920997D01*
X132359085Y-60559750D01*
X132141851Y-60234636D01*
X132067215Y-60160000D01*
X141373000Y-60160000D01*
X141373000Y-68000000D01*
X141375440Y-68024776D01*
X141382667Y-68048601D01*
X141394403Y-68070557D01*
X141410197Y-68089803D01*
X141429443Y-68105597D01*
X141451399Y-68117333D01*
X141475224Y-68124560D01*
X141500000Y-68127000D01*
X149340000Y-68127000D01*
X149340000Y-72451429D01*
X149264494Y-72389463D01*
X149154180Y-72330498D01*
X149034482Y-72294188D01*
X148910000Y-72281928D01*
X148345750Y-72285000D01*
X148187000Y-72443750D01*
X148187000Y-73643000D01*
X148207000Y-73643000D01*
X148207000Y-73897000D01*
X148187000Y-73897000D01*
X148187000Y-73917000D01*
X147933000Y-73917000D01*
X147933000Y-73897000D01*
X146733750Y-73897000D01*
X146575000Y-74055750D01*
X146571928Y-74620000D01*
X146584188Y-74744482D01*
X146620498Y-74864180D01*
X146679463Y-74974494D01*
X146758815Y-75071185D01*
X146855506Y-75150537D01*
X146965820Y-75209502D01*
X147034687Y-75230393D01*
X147004866Y-75254866D01*
X146824207Y-75475000D01*
X145782519Y-75475000D01*
X145825226Y-75371898D01*
X145865000Y-75171939D01*
X145865000Y-74968061D01*
X145825226Y-74768102D01*
X145747205Y-74579744D01*
X145633937Y-74410226D01*
X145489774Y-74266063D01*
X145320256Y-74152795D01*
X145131898Y-74074774D01*
X144931939Y-74035000D01*
X144728061Y-74035000D01*
X144528102Y-74074774D01*
X144339744Y-74152795D01*
X144170226Y-74266063D01*
X144026063Y-74410226D01*
X143912795Y-74579744D01*
X143889907Y-74635000D01*
X137500877Y-74635000D01*
X137485172Y-74583228D01*
X137407636Y-74438169D01*
X137303291Y-74311024D01*
X137271426Y-74284873D01*
X135982630Y-72996078D01*
X135956475Y-72964208D01*
X135902608Y-72920000D01*
X146571928Y-72920000D01*
X146575000Y-73484250D01*
X146733750Y-73643000D01*
X147933000Y-73643000D01*
X147933000Y-72443750D01*
X147774250Y-72285000D01*
X147210000Y-72281928D01*
X147085518Y-72294188D01*
X146965820Y-72330498D01*
X146855506Y-72389463D01*
X146758815Y-72468815D01*
X146679463Y-72565506D01*
X146620498Y-72675820D01*
X146584188Y-72795518D01*
X146571928Y-72920000D01*
X135902608Y-72920000D01*
X135829330Y-72859863D01*
X135684271Y-72782327D01*
X135526873Y-72734581D01*
X135404203Y-72722499D01*
X135404202Y-72722499D01*
X135363184Y-72718459D01*
X135322166Y-72722499D01*
X131963516Y-72722499D01*
X131922500Y-72718459D01*
X131881484Y-72722499D01*
X131881482Y-72722499D01*
X131758812Y-72734581D01*
X131601414Y-72782327D01*
X131456355Y-72859863D01*
X131329210Y-72964208D01*
X131303059Y-72996073D01*
X130374133Y-73925000D01*
X108555000Y-73925000D01*
X108555000Y-70811018D01*
X108559040Y-70770000D01*
X108542918Y-70606312D01*
X108495172Y-70448913D01*
X108417636Y-70303854D01*
X108339439Y-70208570D01*
X108339437Y-70208568D01*
X108313291Y-70176709D01*
X108281432Y-70150564D01*
X107769445Y-69638578D01*
X107743291Y-69606709D01*
X107616146Y-69502364D01*
X107471087Y-69424828D01*
X107313689Y-69377082D01*
X107191019Y-69365000D01*
X107191018Y-69365000D01*
X107150000Y-69360960D01*
X107108982Y-69365000D01*
X104103285Y-69365000D01*
X103980256Y-69282795D01*
X103791898Y-69204774D01*
X103591939Y-69165000D01*
X103388061Y-69165000D01*
X103188102Y-69204774D01*
X102999744Y-69282795D01*
X102830226Y-69396063D01*
X102686063Y-69540226D01*
X102572795Y-69709744D01*
X102494774Y-69898102D01*
X102455000Y-70098061D01*
X102455000Y-70301939D01*
X102494774Y-70501898D01*
X102572795Y-70690256D01*
X102686063Y-70859774D01*
X102830226Y-71003937D01*
X102999744Y-71117205D01*
X103188102Y-71195226D01*
X103388061Y-71235000D01*
X103591939Y-71235000D01*
X103791898Y-71195226D01*
X103980256Y-71117205D01*
X104103285Y-71035000D01*
X106804132Y-71035000D01*
X106885000Y-71115868D01*
X106885001Y-74146714D01*
X106802795Y-74269744D01*
X106724774Y-74458102D01*
X106685000Y-74658061D01*
X106685000Y-74861939D01*
X106724774Y-75061898D01*
X106802795Y-75250256D01*
X106916063Y-75419774D01*
X107060226Y-75563937D01*
X107229744Y-75677205D01*
X107418102Y-75755226D01*
X107618061Y-75795000D01*
X107821939Y-75795000D01*
X108021898Y-75755226D01*
X108210256Y-75677205D01*
X108333285Y-75595000D01*
X130534132Y-75595000D01*
X127674851Y-78454282D01*
X127651898Y-78444774D01*
X127451939Y-78405000D01*
X127248061Y-78405000D01*
X127048102Y-78444774D01*
X126859744Y-78522795D01*
X126690226Y-78636063D01*
X126546063Y-78780226D01*
X126432795Y-78949744D01*
X126354774Y-79138102D01*
X126315000Y-79338061D01*
X126315000Y-79425000D01*
X118998533Y-79425000D01*
X119025000Y-79291939D01*
X119025000Y-79088061D01*
X118985226Y-78888102D01*
X118907205Y-78699744D01*
X118825000Y-78576715D01*
X118825000Y-77891018D01*
X118829040Y-77850000D01*
X118812918Y-77686312D01*
X118774932Y-77561086D01*
X118765172Y-77528913D01*
X118687636Y-77383854D01*
X118583291Y-77256709D01*
X118551431Y-77230562D01*
X117999444Y-76678577D01*
X117973290Y-76646708D01*
X117846145Y-76542363D01*
X117701086Y-76464827D01*
X117543688Y-76417081D01*
X117421018Y-76404999D01*
X117421017Y-76404999D01*
X117379999Y-76400959D01*
X117338981Y-76404999D01*
X106531019Y-76404999D01*
X106490001Y-76400959D01*
X106448982Y-76404999D01*
X106326312Y-76417081D01*
X106168914Y-76464827D01*
X106023855Y-76542363D01*
X105896710Y-76646708D01*
X105870559Y-76678573D01*
X105148579Y-77400554D01*
X105116709Y-77426709D01*
X105065941Y-77488571D01*
X105012364Y-77553855D01*
X104934828Y-77698914D01*
X104887082Y-77856312D01*
X104870960Y-78020000D01*
X104875000Y-78061019D01*
X104875001Y-84278972D01*
X104870960Y-84320000D01*
X104887082Y-84483688D01*
X104934828Y-84641086D01*
X105011065Y-84783714D01*
X105012365Y-84786146D01*
X105116710Y-84913291D01*
X105148573Y-84939441D01*
X105750563Y-85541431D01*
X105776709Y-85573291D01*
X105808568Y-85599437D01*
X105808570Y-85599439D01*
X105903854Y-85677636D01*
X106048913Y-85755172D01*
X106206311Y-85802918D01*
X106370000Y-85819040D01*
X106411018Y-85815000D01*
X109346715Y-85815000D01*
X109469744Y-85897205D01*
X109658102Y-85975226D01*
X109858061Y-86015000D01*
X110061939Y-86015000D01*
X110261898Y-85975226D01*
X110450256Y-85897205D01*
X110619774Y-85783937D01*
X110763937Y-85639774D01*
X110877205Y-85470256D01*
X110955226Y-85281898D01*
X110995000Y-85081939D01*
X110995000Y-84878061D01*
X110955226Y-84678102D01*
X110877205Y-84489744D01*
X110763937Y-84320226D01*
X110619774Y-84176063D01*
X110450256Y-84062795D01*
X110261898Y-83984774D01*
X110061939Y-83945000D01*
X109858061Y-83945000D01*
X109658102Y-83984774D01*
X109469744Y-84062795D01*
X109346715Y-84145000D01*
X106715868Y-84145000D01*
X106545000Y-83974132D01*
X106545000Y-78365867D01*
X106835869Y-78074999D01*
X107735000Y-78074999D01*
X107735000Y-78151939D01*
X107774774Y-78351898D01*
X107852795Y-78540256D01*
X107966063Y-78709774D01*
X108110226Y-78853937D01*
X108279744Y-78967205D01*
X108468102Y-79045226D01*
X108668061Y-79085000D01*
X108871939Y-79085000D01*
X109071898Y-79045226D01*
X109260256Y-78967205D01*
X109398251Y-78875000D01*
X113375001Y-78875000D01*
X113375000Y-79646715D01*
X113292795Y-79769744D01*
X113214774Y-79958102D01*
X113175000Y-80158061D01*
X113175000Y-80361939D01*
X113185554Y-80415000D01*
X109004946Y-80415000D01*
X108957205Y-80299744D01*
X108843937Y-80130226D01*
X108699774Y-79986063D01*
X108530256Y-79872795D01*
X108341898Y-79794774D01*
X108141939Y-79755000D01*
X107938061Y-79755000D01*
X107738102Y-79794774D01*
X107549744Y-79872795D01*
X107380226Y-79986063D01*
X107236063Y-80130226D01*
X107122795Y-80299744D01*
X107044774Y-80488102D01*
X107005000Y-80688061D01*
X107005000Y-80891939D01*
X107044774Y-81091898D01*
X107122795Y-81280256D01*
X107236063Y-81449774D01*
X107380226Y-81593937D01*
X107549744Y-81707205D01*
X107738102Y-81785226D01*
X107938061Y-81825000D01*
X107941698Y-81825000D01*
X107956709Y-81843291D01*
X108083854Y-81947636D01*
X108228913Y-82025172D01*
X108386311Y-82072918D01*
X108508981Y-82085000D01*
X108508983Y-82085000D01*
X108549999Y-82089040D01*
X108591015Y-82085000D01*
X122637631Y-82085000D01*
X122623854Y-82092364D01*
X122496709Y-82196709D01*
X122470559Y-82228574D01*
X120808579Y-83890554D01*
X120776709Y-83916709D01*
X120709246Y-83998914D01*
X120672364Y-84043855D01*
X120594828Y-84188914D01*
X120547082Y-84346312D01*
X120530960Y-84510000D01*
X120535000Y-84551019D01*
X120535001Y-89951668D01*
X120431067Y-89908617D01*
X120211788Y-89865000D01*
X119988212Y-89865000D01*
X119768933Y-89908617D01*
X119562376Y-89994176D01*
X119465000Y-90059241D01*
X119367624Y-89994176D01*
X119161067Y-89908617D01*
X118941788Y-89865000D01*
X118718212Y-89865000D01*
X118498933Y-89908617D01*
X118292376Y-89994176D01*
X118195000Y-90059241D01*
X118097624Y-89994176D01*
X117891067Y-89908617D01*
X117671788Y-89865000D01*
X117448212Y-89865000D01*
X117228933Y-89908617D01*
X117022376Y-89994176D01*
X116925000Y-90059241D01*
X116827624Y-89994176D01*
X116621067Y-89908617D01*
X116401788Y-89865000D01*
X116178212Y-89865000D01*
X115958933Y-89908617D01*
X115752376Y-89994176D01*
X115655000Y-90059241D01*
X115557624Y-89994176D01*
X115351067Y-89908617D01*
X115131788Y-89865000D01*
X114908212Y-89865000D01*
X114688933Y-89908617D01*
X114482376Y-89994176D01*
X114385000Y-90059241D01*
X114287624Y-89994176D01*
X114081067Y-89908617D01*
X113861788Y-89865000D01*
X113638212Y-89865000D01*
X113418933Y-89908617D01*
X113212376Y-89994176D01*
X113115000Y-90059241D01*
X113017624Y-89994176D01*
X112811067Y-89908617D01*
X112591788Y-89865000D01*
X112368212Y-89865000D01*
X112148933Y-89908617D01*
X111942376Y-89994176D01*
X111845000Y-90059241D01*
X111747624Y-89994176D01*
X111541067Y-89908617D01*
X111321788Y-89865000D01*
X111098212Y-89865000D01*
X110878933Y-89908617D01*
X110672376Y-89994176D01*
X110575000Y-90059241D01*
X110477624Y-89994176D01*
X110271067Y-89908617D01*
X110051788Y-89865000D01*
X109828212Y-89865000D01*
X109608933Y-89908617D01*
X109402376Y-89994176D01*
X109305000Y-90059241D01*
X109207624Y-89994176D01*
X109001067Y-89908617D01*
X108781788Y-89865000D01*
X108558212Y-89865000D01*
X108338933Y-89908617D01*
X108132376Y-89994176D01*
X108035000Y-90059241D01*
X107937624Y-89994176D01*
X107731067Y-89908617D01*
X107511788Y-89865000D01*
X107288212Y-89865000D01*
X107068933Y-89908617D01*
X106862376Y-89994176D01*
X106708070Y-90097280D01*
X106693450Y-90008412D01*
X106489174Y-89917542D01*
X106271095Y-89868269D01*
X106047594Y-89862489D01*
X105827260Y-89900423D01*
X105618560Y-89980613D01*
X105566550Y-90008412D01*
X105531439Y-90221834D01*
X106130000Y-90820395D01*
X106144143Y-90806253D01*
X106265000Y-90927110D01*
X106265000Y-91072890D01*
X106144143Y-91193748D01*
X106130000Y-91179605D01*
X105531439Y-91778166D01*
X105566550Y-91991588D01*
X105770826Y-92082458D01*
X105988905Y-92131731D01*
X106212406Y-92137511D01*
X106432740Y-92099577D01*
X106641440Y-92019387D01*
X106693450Y-91991588D01*
X106708070Y-91902720D01*
X106862376Y-92005824D01*
X107068933Y-92091383D01*
X107288212Y-92135000D01*
X107511788Y-92135000D01*
X107731067Y-92091383D01*
X107937624Y-92005824D01*
X108035000Y-91940759D01*
X108132376Y-92005824D01*
X108338933Y-92091383D01*
X108558212Y-92135000D01*
X108781788Y-92135000D01*
X109001067Y-92091383D01*
X109207624Y-92005824D01*
X109305000Y-91940759D01*
X109402376Y-92005824D01*
X109608933Y-92091383D01*
X109828212Y-92135000D01*
X110051788Y-92135000D01*
X110271067Y-92091383D01*
X110477624Y-92005824D01*
X110575000Y-91940759D01*
X110672376Y-92005824D01*
X110878933Y-92091383D01*
X111098212Y-92135000D01*
X111321788Y-92135000D01*
X111541067Y-92091383D01*
X111747624Y-92005824D01*
X111845000Y-91940759D01*
X111942376Y-92005824D01*
X112148933Y-92091383D01*
X112368212Y-92135000D01*
X112591788Y-92135000D01*
X112811067Y-92091383D01*
X113017624Y-92005824D01*
X113115000Y-91940759D01*
X113212376Y-92005824D01*
X113418933Y-92091383D01*
X113638212Y-92135000D01*
X113861788Y-92135000D01*
X114081067Y-92091383D01*
X114287624Y-92005824D01*
X114385000Y-91940759D01*
X114482376Y-92005824D01*
X114688933Y-92091383D01*
X114908212Y-92135000D01*
X115131788Y-92135000D01*
X115351067Y-92091383D01*
X115557624Y-92005824D01*
X115655000Y-91940759D01*
X115752376Y-92005824D01*
X115958933Y-92091383D01*
X116178212Y-92135000D01*
X116401788Y-92135000D01*
X116621067Y-92091383D01*
X116827624Y-92005824D01*
X116925000Y-91940759D01*
X117022376Y-92005824D01*
X117228933Y-92091383D01*
X117448212Y-92135000D01*
X117671788Y-92135000D01*
X117891067Y-92091383D01*
X118097624Y-92005824D01*
X118195000Y-91940759D01*
X118292376Y-92005824D01*
X118498933Y-92091383D01*
X118718212Y-92135000D01*
X118941788Y-92135000D01*
X119161067Y-92091383D01*
X119367624Y-92005824D01*
X119465000Y-91940759D01*
X119562376Y-92005824D01*
X119768933Y-92091383D01*
X119988212Y-92135000D01*
X120211788Y-92135000D01*
X120431067Y-92091383D01*
X120637624Y-92005824D01*
X120735000Y-91940759D01*
X120832376Y-92005824D01*
X121038933Y-92091383D01*
X121258212Y-92135000D01*
X121481788Y-92135000D01*
X121701067Y-92091383D01*
X121907624Y-92005824D01*
X122005000Y-91940759D01*
X122102376Y-92005824D01*
X122308933Y-92091383D01*
X122528212Y-92135000D01*
X122751788Y-92135000D01*
X122971067Y-92091383D01*
X123177624Y-92005824D01*
X123275000Y-91940759D01*
X123372376Y-92005824D01*
X123578933Y-92091383D01*
X123798212Y-92135000D01*
X124021788Y-92135000D01*
X124241067Y-92091383D01*
X124447624Y-92005824D01*
X124633520Y-91881612D01*
X124791612Y-91723520D01*
X124915824Y-91537624D01*
X125001383Y-91331067D01*
X125045000Y-91111788D01*
X125045000Y-90888212D01*
X125001383Y-90668933D01*
X124915824Y-90462376D01*
X124791612Y-90276480D01*
X124758000Y-90242868D01*
X124905868Y-90095000D01*
X129197785Y-90095000D01*
X129058149Y-90234636D01*
X128840915Y-90559750D01*
X128691282Y-90920997D01*
X128615000Y-91304495D01*
X128615000Y-91695505D01*
X128691282Y-92079003D01*
X128840915Y-92440250D01*
X129058149Y-92765364D01*
X129334636Y-93041851D01*
X129659750Y-93259085D01*
X130020997Y-93408718D01*
X130404495Y-93485000D01*
X130795505Y-93485000D01*
X131179003Y-93408718D01*
X131540250Y-93259085D01*
X131865364Y-93041851D01*
X132141851Y-92765364D01*
X132359085Y-92440250D01*
X132508718Y-92079003D01*
X132585000Y-91695505D01*
X132585000Y-91304495D01*
X132508718Y-90920997D01*
X132359085Y-90559750D01*
X132141851Y-90234636D01*
X132002215Y-90095000D01*
X133196705Y-90095000D01*
X133319734Y-90177205D01*
X133508092Y-90255226D01*
X133708051Y-90295000D01*
X133774990Y-90295000D01*
X133774991Y-101404141D01*
X133268581Y-101910552D01*
X133268570Y-101910561D01*
X131983225Y-103195907D01*
X131838102Y-103224774D01*
X131649744Y-103302795D01*
X131480226Y-103416063D01*
X131336063Y-103560226D01*
X131222795Y-103729744D01*
X131144774Y-103918102D01*
X131105000Y-104118061D01*
X131105000Y-104321939D01*
X131144774Y-104521898D01*
X131222795Y-104710256D01*
X131336063Y-104879774D01*
X131480226Y-105023937D01*
X131649744Y-105137205D01*
X131838102Y-105215226D01*
X132038061Y-105255000D01*
X132241939Y-105255000D01*
X132441898Y-105215226D01*
X132630256Y-105137205D01*
X132799774Y-105023937D01*
X132943937Y-104879774D01*
X133057205Y-104710256D01*
X133135226Y-104521898D01*
X133164093Y-104376775D01*
X134375001Y-103165868D01*
X134375001Y-104164130D01*
X133314132Y-105225000D01*
X133278061Y-105225000D01*
X133078102Y-105264774D01*
X132889744Y-105342795D01*
X132720226Y-105456063D01*
X132576063Y-105600226D01*
X132462795Y-105769744D01*
X132384774Y-105958102D01*
X132345000Y-106158061D01*
X132345000Y-106361939D01*
X132384774Y-106561898D01*
X132462795Y-106750256D01*
X132576063Y-106919774D01*
X132720226Y-107063937D01*
X132889744Y-107177205D01*
X133078102Y-107255226D01*
X133278061Y-107295000D01*
X133481939Y-107295000D01*
X133681898Y-107255226D01*
X133870256Y-107177205D01*
X134039774Y-107063937D01*
X134183937Y-106919774D01*
X134297205Y-106750256D01*
X134375226Y-106561898D01*
X134384229Y-106516639D01*
X135771432Y-105129437D01*
X135803291Y-105103291D01*
X135907636Y-104976146D01*
X135985172Y-104831087D01*
X136032918Y-104673689D01*
X136039192Y-104609990D01*
X136082795Y-104715256D01*
X136196063Y-104884774D01*
X136340226Y-105028937D01*
X136509744Y-105142205D01*
X136698102Y-105220226D01*
X136898061Y-105260000D01*
X137101939Y-105260000D01*
X137301898Y-105220226D01*
X137490256Y-105142205D01*
X137659774Y-105028937D01*
X137803937Y-104884774D01*
X137917205Y-104715256D01*
X137995226Y-104526898D01*
X138035000Y-104326939D01*
X138035000Y-104123061D01*
X137995226Y-103923102D01*
X137917205Y-103734744D01*
X137885000Y-103686546D01*
X137885000Y-92588454D01*
X137917205Y-92540256D01*
X137995226Y-92351898D01*
X138035000Y-92151939D01*
X138035000Y-91948061D01*
X138815000Y-91948061D01*
X138815000Y-92151939D01*
X138854774Y-92351898D01*
X138932795Y-92540256D01*
X138965001Y-92588456D01*
X138965000Y-103686546D01*
X138932795Y-103734744D01*
X138854774Y-103923102D01*
X138815000Y-104123061D01*
X138815000Y-104326939D01*
X138854774Y-104526898D01*
X138932795Y-104715256D01*
X139046063Y-104884774D01*
X139190226Y-105028937D01*
X139359744Y-105142205D01*
X139548102Y-105220226D01*
X139748061Y-105260000D01*
X139951939Y-105260000D01*
X140151898Y-105220226D01*
X140340256Y-105142205D01*
X140509774Y-105028937D01*
X140653937Y-104884774D01*
X140767205Y-104715256D01*
X140845226Y-104526898D01*
X140885000Y-104326939D01*
X140885000Y-104123061D01*
X140845226Y-103923102D01*
X140767205Y-103734744D01*
X140735000Y-103686546D01*
X140735000Y-92588454D01*
X140767205Y-92540256D01*
X140845226Y-92351898D01*
X140885000Y-92151939D01*
X140885000Y-91948061D01*
X140845226Y-91748102D01*
X140767205Y-91559744D01*
X140653937Y-91390226D01*
X140509774Y-91246063D01*
X140340256Y-91132795D01*
X140151898Y-91054774D01*
X139951939Y-91015000D01*
X139748061Y-91015000D01*
X139548102Y-91054774D01*
X139359744Y-91132795D01*
X139190226Y-91246063D01*
X139046063Y-91390226D01*
X138932795Y-91559744D01*
X138854774Y-91748102D01*
X138815000Y-91948061D01*
X138035000Y-91948061D01*
X137995226Y-91748102D01*
X137917205Y-91559744D01*
X137803937Y-91390226D01*
X137659774Y-91246063D01*
X137490256Y-91132795D01*
X137301898Y-91054774D01*
X137101939Y-91015000D01*
X136898061Y-91015000D01*
X136698102Y-91054774D01*
X136509744Y-91132795D01*
X136340226Y-91246063D01*
X136196063Y-91390226D01*
X136082795Y-91559744D01*
X136045000Y-91650989D01*
X136045000Y-83159511D01*
X136049040Y-83118493D01*
X136037064Y-82996900D01*
X136032918Y-82954804D01*
X135985172Y-82797406D01*
X135907636Y-82652347D01*
X135803291Y-82525202D01*
X135771433Y-82499057D01*
X135077499Y-81805125D01*
X135048633Y-81660002D01*
X134970612Y-81471644D01*
X134857344Y-81302126D01*
X134713181Y-81157963D01*
X134669691Y-81128904D01*
X134685000Y-81051939D01*
X134685000Y-80848061D01*
X134645226Y-80648102D01*
X134567205Y-80459744D01*
X134453937Y-80290226D01*
X134309774Y-80146063D01*
X134150937Y-80039932D01*
X134505869Y-79685000D01*
X144369419Y-79685000D01*
X144312795Y-79769744D01*
X144234774Y-79958102D01*
X144195000Y-80158061D01*
X144195000Y-80361939D01*
X144234774Y-80561898D01*
X144312795Y-80750256D01*
X144395000Y-80873285D01*
X144395001Y-81891680D01*
X144322795Y-81999744D01*
X144244774Y-82188102D01*
X144205000Y-82388061D01*
X144205000Y-82591939D01*
X144244774Y-82791898D01*
X144322795Y-82980256D01*
X144436063Y-83149774D01*
X144580226Y-83293937D01*
X144749744Y-83407205D01*
X144938102Y-83485226D01*
X145138061Y-83525000D01*
X145341939Y-83525000D01*
X145541898Y-83485226D01*
X145730256Y-83407205D01*
X145899774Y-83293937D01*
X146043937Y-83149774D01*
X146157205Y-82980256D01*
X146235226Y-82791898D01*
X146275000Y-82591939D01*
X146275000Y-82388061D01*
X146235226Y-82188102D01*
X146157205Y-81999744D01*
X146065000Y-81861749D01*
X146065000Y-80873285D01*
X146147205Y-80750256D01*
X146225226Y-80561898D01*
X146265000Y-80361939D01*
X146265000Y-80158061D01*
X146225226Y-79958102D01*
X146147205Y-79769744D01*
X146090581Y-79685000D01*
X146824207Y-79685000D01*
X147004866Y-79905134D01*
X147230986Y-80090706D01*
X147285791Y-80120000D01*
X147230986Y-80149294D01*
X147004866Y-80334866D01*
X146819294Y-80560986D01*
X146681401Y-80818966D01*
X146596487Y-81098889D01*
X146567815Y-81390000D01*
X146596487Y-81681111D01*
X146681401Y-81961034D01*
X146819294Y-82219014D01*
X147004866Y-82445134D01*
X147225000Y-82625793D01*
X147225001Y-98984131D01*
X146294133Y-99915000D01*
X145043285Y-99915000D01*
X144920256Y-99832795D01*
X144731898Y-99754774D01*
X144531939Y-99715000D01*
X144328061Y-99715000D01*
X144128102Y-99754774D01*
X143939744Y-99832795D01*
X143770226Y-99946063D01*
X143626063Y-100090226D01*
X143512795Y-100259744D01*
X143434774Y-100448102D01*
X143395000Y-100648061D01*
X143395000Y-100851939D01*
X143434774Y-101051898D01*
X143512795Y-101240256D01*
X143626063Y-101409774D01*
X143770226Y-101553937D01*
X143939744Y-101667205D01*
X144128102Y-101745226D01*
X144328061Y-101785000D01*
X144531939Y-101785000D01*
X144731898Y-101745226D01*
X144920256Y-101667205D01*
X145043285Y-101585000D01*
X146598982Y-101585000D01*
X146640000Y-101589040D01*
X146681018Y-101585000D01*
X146681019Y-101585000D01*
X146803689Y-101572918D01*
X146961087Y-101525172D01*
X147106146Y-101447636D01*
X147233291Y-101343291D01*
X147259446Y-101311421D01*
X148621426Y-99949442D01*
X148653291Y-99923291D01*
X148757636Y-99796146D01*
X148835172Y-99651087D01*
X148882918Y-99493689D01*
X148895000Y-99371019D01*
X148895000Y-99371009D01*
X148899039Y-99330001D01*
X148895000Y-99288993D01*
X148895000Y-82625793D01*
X149115134Y-82445134D01*
X149300706Y-82219014D01*
X149340000Y-82145499D01*
X149340001Y-120967711D01*
X149330420Y-121065424D01*
X149311420Y-121128357D01*
X149280554Y-121186406D01*
X149239011Y-121237343D01*
X149188356Y-121279248D01*
X149130529Y-121310515D01*
X149067728Y-121329956D01*
X148972165Y-121340000D01*
X148284608Y-121340000D01*
X148179610Y-121235002D01*
X148520766Y-121048927D01*
X148736513Y-120631591D01*
X148866696Y-120180185D01*
X148906313Y-119712054D01*
X148853842Y-119245189D01*
X148711297Y-118797532D01*
X148520766Y-118441073D01*
X148179609Y-118254997D01*
X146689605Y-119745000D01*
X146703748Y-119759142D01*
X146524142Y-119938748D01*
X146510000Y-119924605D01*
X146495858Y-119938748D01*
X146316252Y-119759142D01*
X146330395Y-119745000D01*
X144840391Y-118254997D01*
X144499234Y-118441073D01*
X144283487Y-118858409D01*
X144153304Y-119309815D01*
X144113687Y-119777946D01*
X144166158Y-120244811D01*
X144308703Y-120692468D01*
X144499234Y-121048927D01*
X144840390Y-121235002D01*
X144735392Y-121340000D01*
X134127000Y-121340000D01*
X134127000Y-118075391D01*
X145019997Y-118075391D01*
X146510000Y-119565395D01*
X148000003Y-118075391D01*
X147813927Y-117734234D01*
X147396591Y-117518487D01*
X146945185Y-117388304D01*
X146477054Y-117348687D01*
X146010189Y-117401158D01*
X145562532Y-117543703D01*
X145206073Y-117734234D01*
X145019997Y-118075391D01*
X134127000Y-118075391D01*
X134127000Y-114000000D01*
X134124560Y-113975224D01*
X134117333Y-113951399D01*
X134105597Y-113929443D01*
X134089803Y-113910197D01*
X134070557Y-113894403D01*
X134048601Y-113882667D01*
X134024776Y-113875440D01*
X134000000Y-113873000D01*
X125500000Y-113873000D01*
X125475224Y-113875440D01*
X125451399Y-113882667D01*
X125429443Y-113894403D01*
X125410197Y-113910197D01*
X125394403Y-113929443D01*
X125382667Y-113951399D01*
X125375440Y-113975224D01*
X125373000Y-114000000D01*
X125373000Y-121340000D01*
X88627000Y-121340000D01*
X88627000Y-114000000D01*
X88624560Y-113975224D01*
X88617333Y-113951399D01*
X88605597Y-113929443D01*
X88589803Y-113910197D01*
X88570557Y-113894403D01*
X88548601Y-113882667D01*
X88524776Y-113875440D01*
X88500000Y-113873000D01*
X81160000Y-113873000D01*
X81160000Y-111625000D01*
X140311928Y-111625000D01*
X140311928Y-113325000D01*
X140324188Y-113449482D01*
X140360498Y-113569180D01*
X140419463Y-113679494D01*
X140498815Y-113776185D01*
X140595506Y-113855537D01*
X140705820Y-113914502D01*
X140747690Y-113927203D01*
X140646525Y-114028368D01*
X140484010Y-114271589D01*
X140372068Y-114541842D01*
X140315000Y-114828740D01*
X140315000Y-115121260D01*
X140372068Y-115408158D01*
X140484010Y-115678411D01*
X140646525Y-115921632D01*
X140853368Y-116128475D01*
X141096589Y-116290990D01*
X141366842Y-116402932D01*
X141653740Y-116460000D01*
X141946260Y-116460000D01*
X142233158Y-116402932D01*
X142503411Y-116290990D01*
X142746632Y-116128475D01*
X142800000Y-116075107D01*
X142853368Y-116128475D01*
X143096589Y-116290990D01*
X143366842Y-116402932D01*
X143653740Y-116460000D01*
X143946260Y-116460000D01*
X144233158Y-116402932D01*
X144503411Y-116290990D01*
X144746632Y-116128475D01*
X144953475Y-115921632D01*
X145115990Y-115678411D01*
X145227932Y-115408158D01*
X145285000Y-115121260D01*
X145285000Y-114828740D01*
X145227932Y-114541842D01*
X145115990Y-114271589D01*
X144953475Y-114028368D01*
X144746632Y-113821525D01*
X144583590Y-113712584D01*
X144648792Y-113503397D01*
X143800000Y-112654605D01*
X143785858Y-112668748D01*
X143606253Y-112489143D01*
X143620395Y-112475000D01*
X143979605Y-112475000D01*
X144828397Y-113323792D01*
X145077472Y-113246157D01*
X145203371Y-112982117D01*
X145275339Y-112698589D01*
X145290611Y-112406469D01*
X145248599Y-112116981D01*
X145150919Y-111841253D01*
X145077472Y-111703843D01*
X144828397Y-111626208D01*
X143979605Y-112475000D01*
X143620395Y-112475000D01*
X143606253Y-112460858D01*
X143785858Y-112281253D01*
X143800000Y-112295395D01*
X144648792Y-111446603D01*
X144571157Y-111197528D01*
X144307117Y-111071629D01*
X144023589Y-110999661D01*
X143731469Y-110984389D01*
X143441981Y-111026401D01*
X143166253Y-111124081D01*
X143090150Y-111164759D01*
X143004494Y-111094463D01*
X142894180Y-111035498D01*
X142774482Y-110999188D01*
X142650000Y-110986928D01*
X140950000Y-110986928D01*
X140825518Y-110999188D01*
X140705820Y-111035498D01*
X140595506Y-111094463D01*
X140498815Y-111173815D01*
X140419463Y-111270506D01*
X140360498Y-111380820D01*
X140324188Y-111500518D01*
X140311928Y-111625000D01*
X81160000Y-111625000D01*
X81160000Y-108348816D01*
X85195000Y-108348816D01*
X85195000Y-108651184D01*
X85253989Y-108947743D01*
X85369701Y-109227095D01*
X85537688Y-109478505D01*
X85751495Y-109692312D01*
X86002905Y-109860299D01*
X86282257Y-109976011D01*
X86578816Y-110035000D01*
X86881184Y-110035000D01*
X87177743Y-109976011D01*
X87457095Y-109860299D01*
X87708505Y-109692312D01*
X87774944Y-109625873D01*
X87780498Y-109644180D01*
X87839463Y-109754494D01*
X87918815Y-109851185D01*
X88015506Y-109930537D01*
X88125820Y-109989502D01*
X88245518Y-110025812D01*
X88370000Y-110038072D01*
X90170000Y-110038072D01*
X90294482Y-110025812D01*
X90414180Y-109989502D01*
X90524494Y-109930537D01*
X90621185Y-109851185D01*
X90700537Y-109754494D01*
X90759502Y-109644180D01*
X90795812Y-109524482D01*
X90808072Y-109400000D01*
X90808072Y-108348816D01*
X99195000Y-108348816D01*
X99195000Y-108651184D01*
X99253989Y-108947743D01*
X99369701Y-109227095D01*
X99537688Y-109478505D01*
X99751495Y-109692312D01*
X100002905Y-109860299D01*
X100282257Y-109976011D01*
X100578816Y-110035000D01*
X100881184Y-110035000D01*
X101177743Y-109976011D01*
X101457095Y-109860299D01*
X101708505Y-109692312D01*
X101774944Y-109625873D01*
X101780498Y-109644180D01*
X101839463Y-109754494D01*
X101918815Y-109851185D01*
X102015506Y-109930537D01*
X102125820Y-109989502D01*
X102245518Y-110025812D01*
X102370000Y-110038072D01*
X104170000Y-110038072D01*
X104294482Y-110025812D01*
X104414180Y-109989502D01*
X104524494Y-109930537D01*
X104621185Y-109851185D01*
X104700537Y-109754494D01*
X104759502Y-109644180D01*
X104795812Y-109524482D01*
X104808072Y-109400000D01*
X104808072Y-108348816D01*
X113195000Y-108348816D01*
X113195000Y-108651184D01*
X113253989Y-108947743D01*
X113369701Y-109227095D01*
X113537688Y-109478505D01*
X113751495Y-109692312D01*
X114002905Y-109860299D01*
X114282257Y-109976011D01*
X114578816Y-110035000D01*
X114881184Y-110035000D01*
X115177743Y-109976011D01*
X115457095Y-109860299D01*
X115708505Y-109692312D01*
X115774944Y-109625873D01*
X115780498Y-109644180D01*
X115839463Y-109754494D01*
X115918815Y-109851185D01*
X116015506Y-109930537D01*
X116125820Y-109989502D01*
X116245518Y-110025812D01*
X116370000Y-110038072D01*
X118170000Y-110038072D01*
X118294482Y-110025812D01*
X118414180Y-109989502D01*
X118524494Y-109930537D01*
X118621185Y-109851185D01*
X118700537Y-109754494D01*
X118759502Y-109644180D01*
X118795812Y-109524482D01*
X118808072Y-109400000D01*
X118808072Y-107600000D01*
X118795812Y-107475518D01*
X118759502Y-107355820D01*
X118740356Y-107320000D01*
X135867815Y-107320000D01*
X135896487Y-107611111D01*
X135981401Y-107891034D01*
X136119294Y-108149014D01*
X136304866Y-108375134D01*
X136334687Y-108399607D01*
X136265820Y-108420498D01*
X136155506Y-108479463D01*
X136058815Y-108558815D01*
X135979463Y-108655506D01*
X135920498Y-108765820D01*
X135884188Y-108885518D01*
X135871928Y-109010000D01*
X135871928Y-110710000D01*
X135884188Y-110834482D01*
X135920498Y-110954180D01*
X135979463Y-111064494D01*
X136058815Y-111161185D01*
X136155506Y-111240537D01*
X136265820Y-111299502D01*
X136385518Y-111335812D01*
X136510000Y-111348072D01*
X138210000Y-111348072D01*
X138334482Y-111335812D01*
X138454180Y-111299502D01*
X138564494Y-111240537D01*
X138661185Y-111161185D01*
X138740537Y-111064494D01*
X138799502Y-110954180D01*
X138835812Y-110834482D01*
X138848072Y-110710000D01*
X138848072Y-109374609D01*
X145019997Y-109374609D01*
X145206073Y-109715766D01*
X145623409Y-109931513D01*
X146074815Y-110061696D01*
X146542946Y-110101313D01*
X147009811Y-110048842D01*
X147457468Y-109906297D01*
X147813927Y-109715766D01*
X148000003Y-109374609D01*
X146510000Y-107884605D01*
X145019997Y-109374609D01*
X138848072Y-109374609D01*
X138848072Y-109010000D01*
X138835812Y-108885518D01*
X138799502Y-108765820D01*
X138740537Y-108655506D01*
X138661185Y-108558815D01*
X138564494Y-108479463D01*
X138454180Y-108420498D01*
X138385313Y-108399607D01*
X138415134Y-108375134D01*
X138600706Y-108149014D01*
X138738599Y-107891034D01*
X138785037Y-107737946D01*
X144113687Y-107737946D01*
X144166158Y-108204811D01*
X144308703Y-108652468D01*
X144499234Y-109008927D01*
X144840391Y-109195003D01*
X146330395Y-107705000D01*
X146689605Y-107705000D01*
X148179609Y-109195003D01*
X148520766Y-109008927D01*
X148736513Y-108591591D01*
X148866696Y-108140185D01*
X148906313Y-107672054D01*
X148853842Y-107205189D01*
X148711297Y-106757532D01*
X148520766Y-106401073D01*
X148179609Y-106214997D01*
X146689605Y-107705000D01*
X146330395Y-107705000D01*
X144840391Y-106214997D01*
X144499234Y-106401073D01*
X144283487Y-106818409D01*
X144153304Y-107269815D01*
X144113687Y-107737946D01*
X138785037Y-107737946D01*
X138823513Y-107611111D01*
X138852185Y-107320000D01*
X138823513Y-107028889D01*
X138738599Y-106748966D01*
X138600706Y-106490986D01*
X138415134Y-106264866D01*
X138189014Y-106079294D01*
X138106878Y-106035391D01*
X145019997Y-106035391D01*
X146510000Y-107525395D01*
X148000003Y-106035391D01*
X147813927Y-105694234D01*
X147396591Y-105478487D01*
X146945185Y-105348304D01*
X146477054Y-105308687D01*
X146010189Y-105361158D01*
X145562532Y-105503703D01*
X145206073Y-105694234D01*
X145019997Y-106035391D01*
X138106878Y-106035391D01*
X137931034Y-105941401D01*
X137651111Y-105856487D01*
X137432950Y-105835000D01*
X137287050Y-105835000D01*
X137068889Y-105856487D01*
X136788966Y-105941401D01*
X136530986Y-106079294D01*
X136304866Y-106264866D01*
X136119294Y-106490986D01*
X135981401Y-106748966D01*
X135896487Y-107028889D01*
X135867815Y-107320000D01*
X118740356Y-107320000D01*
X118700537Y-107245506D01*
X118621185Y-107148815D01*
X118524494Y-107069463D01*
X118414180Y-107010498D01*
X118294482Y-106974188D01*
X118170000Y-106961928D01*
X116370000Y-106961928D01*
X116245518Y-106974188D01*
X116125820Y-107010498D01*
X116015506Y-107069463D01*
X115918815Y-107148815D01*
X115839463Y-107245506D01*
X115780498Y-107355820D01*
X115774944Y-107374127D01*
X115708505Y-107307688D01*
X115457095Y-107139701D01*
X115177743Y-107023989D01*
X114881184Y-106965000D01*
X114578816Y-106965000D01*
X114282257Y-107023989D01*
X114002905Y-107139701D01*
X113751495Y-107307688D01*
X113537688Y-107521495D01*
X113369701Y-107772905D01*
X113253989Y-108052257D01*
X113195000Y-108348816D01*
X104808072Y-108348816D01*
X104808072Y-107600000D01*
X104795812Y-107475518D01*
X104759502Y-107355820D01*
X104700537Y-107245506D01*
X104621185Y-107148815D01*
X104524494Y-107069463D01*
X104414180Y-107010498D01*
X104294482Y-106974188D01*
X104170000Y-106961928D01*
X102370000Y-106961928D01*
X102245518Y-106974188D01*
X102125820Y-107010498D01*
X102015506Y-107069463D01*
X101918815Y-107148815D01*
X101839463Y-107245506D01*
X101780498Y-107355820D01*
X101774944Y-107374127D01*
X101708505Y-107307688D01*
X101457095Y-107139701D01*
X101177743Y-107023989D01*
X100881184Y-106965000D01*
X100578816Y-106965000D01*
X100282257Y-107023989D01*
X100002905Y-107139701D01*
X99751495Y-107307688D01*
X99537688Y-107521495D01*
X99369701Y-107772905D01*
X99253989Y-108052257D01*
X99195000Y-108348816D01*
X90808072Y-108348816D01*
X90808072Y-107600000D01*
X90795812Y-107475518D01*
X90759502Y-107355820D01*
X90700537Y-107245506D01*
X90621185Y-107148815D01*
X90524494Y-107069463D01*
X90414180Y-107010498D01*
X90294482Y-106974188D01*
X90170000Y-106961928D01*
X88370000Y-106961928D01*
X88245518Y-106974188D01*
X88125820Y-107010498D01*
X88015506Y-107069463D01*
X87918815Y-107148815D01*
X87839463Y-107245506D01*
X87780498Y-107355820D01*
X87774944Y-107374127D01*
X87708505Y-107307688D01*
X87457095Y-107139701D01*
X87177743Y-107023989D01*
X86881184Y-106965000D01*
X86578816Y-106965000D01*
X86282257Y-107023989D01*
X86002905Y-107139701D01*
X85751495Y-107307688D01*
X85537688Y-107521495D01*
X85369701Y-107772905D01*
X85253989Y-108052257D01*
X85195000Y-108348816D01*
X81160000Y-108348816D01*
X81160000Y-91304495D01*
X97415000Y-91304495D01*
X97415000Y-91695505D01*
X97491282Y-92079003D01*
X97640915Y-92440250D01*
X97858149Y-92765364D01*
X98134636Y-93041851D01*
X98459750Y-93259085D01*
X98820997Y-93408718D01*
X99204495Y-93485000D01*
X99595505Y-93485000D01*
X99979003Y-93408718D01*
X100340250Y-93259085D01*
X100665364Y-93041851D01*
X100941851Y-92765364D01*
X101159085Y-92440250D01*
X101308718Y-92079003D01*
X101385000Y-91695505D01*
X101385000Y-91304495D01*
X101340825Y-91082406D01*
X104992489Y-91082406D01*
X105030423Y-91302740D01*
X105110613Y-91511440D01*
X105138412Y-91563450D01*
X105351834Y-91598561D01*
X105950395Y-91000000D01*
X105351834Y-90401439D01*
X105138412Y-90436550D01*
X105047542Y-90640826D01*
X104998269Y-90858905D01*
X104992489Y-91082406D01*
X101340825Y-91082406D01*
X101308718Y-90920997D01*
X101159085Y-90559750D01*
X100941851Y-90234636D01*
X100665364Y-89958149D01*
X100340250Y-89740915D01*
X99979003Y-89591282D01*
X99595505Y-89515000D01*
X99204495Y-89515000D01*
X98820997Y-89591282D01*
X98459750Y-89740915D01*
X98134636Y-89958149D01*
X97858149Y-90234636D01*
X97640915Y-90559750D01*
X97491282Y-90920997D01*
X97415000Y-91304495D01*
X81160000Y-91304495D01*
X81160000Y-68627000D01*
X88000000Y-68627000D01*
X88024776Y-68624560D01*
X88048601Y-68617333D01*
X88070557Y-68605597D01*
X88089803Y-68589803D01*
X88105597Y-68570557D01*
X88117333Y-68548601D01*
X88124560Y-68524776D01*
X88127000Y-68500000D01*
X88127000Y-65488061D01*
X106925000Y-65488061D01*
X106925000Y-65691939D01*
X106964774Y-65891898D01*
X107042795Y-66080256D01*
X107156063Y-66249774D01*
X107300226Y-66393937D01*
X107469744Y-66507205D01*
X107658102Y-66585226D01*
X107858061Y-66625000D01*
X108061939Y-66625000D01*
X108261898Y-66585226D01*
X108450256Y-66507205D01*
X108573285Y-66425000D01*
X113018982Y-66425000D01*
X113060000Y-66429040D01*
X113101018Y-66425000D01*
X121845001Y-66425000D01*
X121845000Y-68416715D01*
X121762795Y-68539744D01*
X121684774Y-68728102D01*
X121645000Y-68928061D01*
X121645000Y-69131939D01*
X121684774Y-69331898D01*
X121762795Y-69520256D01*
X121876063Y-69689774D01*
X122020226Y-69833937D01*
X122189744Y-69947205D01*
X122378102Y-70025226D01*
X122578061Y-70065000D01*
X122781939Y-70065000D01*
X122981898Y-70025226D01*
X123170256Y-69947205D01*
X123339774Y-69833937D01*
X123483937Y-69689774D01*
X123597205Y-69520256D01*
X123675226Y-69331898D01*
X123715000Y-69131939D01*
X123715000Y-68928061D01*
X123675226Y-68728102D01*
X123597205Y-68539744D01*
X123515000Y-68416715D01*
X123515000Y-66555867D01*
X123645868Y-66425000D01*
X124828982Y-66425000D01*
X124870000Y-66429040D01*
X124911018Y-66425000D01*
X124911019Y-66425000D01*
X125033689Y-66412918D01*
X125191087Y-66365172D01*
X125336146Y-66287636D01*
X125463291Y-66183291D01*
X125489446Y-66151421D01*
X126491428Y-65149440D01*
X126523291Y-65123291D01*
X126627636Y-64996146D01*
X126705172Y-64851087D01*
X126752918Y-64693689D01*
X126765000Y-64571019D01*
X126765000Y-64571009D01*
X126769039Y-64530001D01*
X126765000Y-64488993D01*
X126765000Y-63115793D01*
X126985134Y-62935134D01*
X127170706Y-62709014D01*
X127308599Y-62451034D01*
X127393513Y-62171111D01*
X127422185Y-61880000D01*
X127393513Y-61588889D01*
X127308599Y-61308966D01*
X127170706Y-61050986D01*
X126985134Y-60824866D01*
X126759014Y-60639294D01*
X126501034Y-60501401D01*
X126221111Y-60416487D01*
X126002950Y-60395000D01*
X125857050Y-60395000D01*
X125638889Y-60416487D01*
X125358966Y-60501401D01*
X125100986Y-60639294D01*
X124874866Y-60824866D01*
X124689294Y-61050986D01*
X124654799Y-61115523D01*
X124585178Y-60998645D01*
X124390269Y-60782412D01*
X124156920Y-60608359D01*
X123894099Y-60483175D01*
X123746890Y-60438524D01*
X123517000Y-60559845D01*
X123517000Y-61753000D01*
X123537000Y-61753000D01*
X123537000Y-62007000D01*
X123517000Y-62007000D01*
X123517000Y-63200155D01*
X123746890Y-63321476D01*
X123894099Y-63276825D01*
X124156920Y-63151641D01*
X124390269Y-62977588D01*
X124585178Y-62761355D01*
X124654799Y-62644477D01*
X124689294Y-62709014D01*
X124874866Y-62935134D01*
X125095001Y-63115794D01*
X125095000Y-64184132D01*
X124524133Y-64755000D01*
X123341007Y-64755000D01*
X123299999Y-64750961D01*
X123258991Y-64755000D01*
X114605000Y-64755000D01*
X114605000Y-63135793D01*
X114825134Y-62955134D01*
X115010706Y-62729014D01*
X115148599Y-62471034D01*
X115233513Y-62191111D01*
X115262185Y-61900000D01*
X115233513Y-61608889D01*
X115148599Y-61328966D01*
X115010706Y-61070986D01*
X114977070Y-61030000D01*
X116821928Y-61030000D01*
X116821928Y-62730000D01*
X116834188Y-62854482D01*
X116870498Y-62974180D01*
X116929463Y-63084494D01*
X117008815Y-63181185D01*
X117105506Y-63260537D01*
X117215820Y-63319502D01*
X117335518Y-63355812D01*
X117460000Y-63368072D01*
X119160000Y-63368072D01*
X119284482Y-63355812D01*
X119404180Y-63319502D01*
X119514494Y-63260537D01*
X119611185Y-63181185D01*
X119690537Y-63084494D01*
X119749502Y-62974180D01*
X119770393Y-62905313D01*
X119794866Y-62935134D01*
X120020986Y-63120706D01*
X120278966Y-63258599D01*
X120558889Y-63343513D01*
X120777050Y-63365000D01*
X120922950Y-63365000D01*
X121141111Y-63343513D01*
X121421034Y-63258599D01*
X121679014Y-63120706D01*
X121905134Y-62935134D01*
X122090706Y-62709014D01*
X122125201Y-62644477D01*
X122194822Y-62761355D01*
X122389731Y-62977588D01*
X122623080Y-63151641D01*
X122885901Y-63276825D01*
X123033110Y-63321476D01*
X123263000Y-63200155D01*
X123263000Y-62007000D01*
X123243000Y-62007000D01*
X123243000Y-61753000D01*
X123263000Y-61753000D01*
X123263000Y-60559845D01*
X123033110Y-60438524D01*
X122885901Y-60483175D01*
X122623080Y-60608359D01*
X122389731Y-60782412D01*
X122194822Y-60998645D01*
X122125201Y-61115523D01*
X122090706Y-61050986D01*
X121905134Y-60824866D01*
X121679014Y-60639294D01*
X121421034Y-60501401D01*
X121141111Y-60416487D01*
X120922950Y-60395000D01*
X120777050Y-60395000D01*
X120558889Y-60416487D01*
X120278966Y-60501401D01*
X120020986Y-60639294D01*
X119794866Y-60824866D01*
X119770393Y-60854687D01*
X119749502Y-60785820D01*
X119690537Y-60675506D01*
X119611185Y-60578815D01*
X119514494Y-60499463D01*
X119404180Y-60440498D01*
X119284482Y-60404188D01*
X119160000Y-60391928D01*
X117460000Y-60391928D01*
X117335518Y-60404188D01*
X117215820Y-60440498D01*
X117105506Y-60499463D01*
X117008815Y-60578815D01*
X116929463Y-60675506D01*
X116870498Y-60785820D01*
X116834188Y-60905518D01*
X116821928Y-61030000D01*
X114977070Y-61030000D01*
X114825134Y-60844866D01*
X114599014Y-60659294D01*
X114341034Y-60521401D01*
X114061111Y-60436487D01*
X113842950Y-60415000D01*
X113697050Y-60415000D01*
X113478889Y-60436487D01*
X113198966Y-60521401D01*
X112940986Y-60659294D01*
X112714866Y-60844866D01*
X112529294Y-61070986D01*
X112494799Y-61135523D01*
X112425178Y-61018645D01*
X112230269Y-60802412D01*
X111996920Y-60628359D01*
X111734099Y-60503175D01*
X111586890Y-60458524D01*
X111357000Y-60579845D01*
X111357000Y-61773000D01*
X111377000Y-61773000D01*
X111377000Y-62027000D01*
X111357000Y-62027000D01*
X111357000Y-63220155D01*
X111586890Y-63341476D01*
X111734099Y-63296825D01*
X111996920Y-63171641D01*
X112230269Y-62997588D01*
X112425178Y-62781355D01*
X112494799Y-62664477D01*
X112529294Y-62729014D01*
X112714866Y-62955134D01*
X112935001Y-63135794D01*
X112935000Y-64534132D01*
X112714132Y-64755000D01*
X108573285Y-64755000D01*
X108450256Y-64672795D01*
X108261898Y-64594774D01*
X108061939Y-64555000D01*
X107858061Y-64555000D01*
X107658102Y-64594774D01*
X107469744Y-64672795D01*
X107300226Y-64786063D01*
X107156063Y-64930226D01*
X107042795Y-65099744D01*
X106964774Y-65288102D01*
X106925000Y-65488061D01*
X88127000Y-65488061D01*
X88127000Y-60160000D01*
X97932785Y-60160000D01*
X97858149Y-60234636D01*
G36*
X131711183Y-84751850D02*
G01*
X131737333Y-84783714D01*
X131818343Y-84850197D01*
X131864478Y-84888059D01*
X132009537Y-84965595D01*
X132134716Y-85003567D01*
X132028102Y-85024774D01*
X131839744Y-85102795D01*
X131670226Y-85216063D01*
X131526063Y-85360226D01*
X131412795Y-85529744D01*
X131334774Y-85718102D01*
X131295000Y-85918061D01*
X131295000Y-86121939D01*
X131334774Y-86321898D01*
X131412795Y-86510256D01*
X131526063Y-86679774D01*
X131670226Y-86823937D01*
X131839744Y-86937205D01*
X132028102Y-87015226D01*
X132228061Y-87055000D01*
X132431939Y-87055000D01*
X132631898Y-87015226D01*
X132820256Y-86937205D01*
X132989774Y-86823937D01*
X133133937Y-86679774D01*
X133247205Y-86510256D01*
X133325226Y-86321898D01*
X133365000Y-86121939D01*
X133365000Y-85918061D01*
X133325226Y-85718102D01*
X133247205Y-85529744D01*
X133133937Y-85360226D01*
X132998987Y-85225276D01*
X133198207Y-85185649D01*
X133386565Y-85107628D01*
X133556083Y-84994360D01*
X133700246Y-84850197D01*
X133774990Y-84738334D01*
X133774990Y-88225000D01*
X133708051Y-88225000D01*
X133508092Y-88264774D01*
X133319734Y-88342795D01*
X133196705Y-88425000D01*
X124601018Y-88425000D01*
X124560000Y-88420960D01*
X124518981Y-88425000D01*
X124396311Y-88437082D01*
X124238913Y-88484828D01*
X124093854Y-88562364D01*
X123966709Y-88666709D01*
X123940563Y-88698569D01*
X123475000Y-89164132D01*
X123475000Y-85295867D01*
X124065869Y-84705000D01*
X126426715Y-84705000D01*
X126549744Y-84787205D01*
X126738102Y-84865226D01*
X126938061Y-84905000D01*
X127141939Y-84905000D01*
X127341898Y-84865226D01*
X127530256Y-84787205D01*
X127699774Y-84673937D01*
X127843937Y-84529774D01*
X127957205Y-84360256D01*
X128035226Y-84171898D01*
X128075000Y-83971939D01*
X128075000Y-83768061D01*
X128035226Y-83568102D01*
X127957205Y-83379744D01*
X127843937Y-83210226D01*
X127699774Y-83066063D01*
X127530256Y-82952795D01*
X127341898Y-82874774D01*
X127141939Y-82835000D01*
X126938061Y-82835000D01*
X126738102Y-82874774D01*
X126549744Y-82952795D01*
X126426715Y-83035000D01*
X126266544Y-83035000D01*
X126295000Y-82891939D01*
X126295000Y-82688061D01*
X126255226Y-82488102D01*
X126177205Y-82299744D01*
X126063937Y-82130226D01*
X126018711Y-82085000D01*
X129044334Y-82085000D01*
X131711183Y-84751850D01*
X131711183Y-84751850D01*
G37*
X131711183Y-84751850D02*
X131737333Y-84783714D01*
X131818343Y-84850197D01*
X131864478Y-84888059D01*
X132009537Y-84965595D01*
X132134716Y-85003567D01*
X132028102Y-85024774D01*
X131839744Y-85102795D01*
X131670226Y-85216063D01*
X131526063Y-85360226D01*
X131412795Y-85529744D01*
X131334774Y-85718102D01*
X131295000Y-85918061D01*
X131295000Y-86121939D01*
X131334774Y-86321898D01*
X131412795Y-86510256D01*
X131526063Y-86679774D01*
X131670226Y-86823937D01*
X131839744Y-86937205D01*
X132028102Y-87015226D01*
X132228061Y-87055000D01*
X132431939Y-87055000D01*
X132631898Y-87015226D01*
X132820256Y-86937205D01*
X132989774Y-86823937D01*
X133133937Y-86679774D01*
X133247205Y-86510256D01*
X133325226Y-86321898D01*
X133365000Y-86121939D01*
X133365000Y-85918061D01*
X133325226Y-85718102D01*
X133247205Y-85529744D01*
X133133937Y-85360226D01*
X132998987Y-85225276D01*
X133198207Y-85185649D01*
X133386565Y-85107628D01*
X133556083Y-84994360D01*
X133700246Y-84850197D01*
X133774990Y-84738334D01*
X133774990Y-88225000D01*
X133708051Y-88225000D01*
X133508092Y-88264774D01*
X133319734Y-88342795D01*
X133196705Y-88425000D01*
X124601018Y-88425000D01*
X124560000Y-88420960D01*
X124518981Y-88425000D01*
X124396311Y-88437082D01*
X124238913Y-88484828D01*
X124093854Y-88562364D01*
X123966709Y-88666709D01*
X123940563Y-88698569D01*
X123475000Y-89164132D01*
X123475000Y-85295867D01*
X124065869Y-84705000D01*
X126426715Y-84705000D01*
X126549744Y-84787205D01*
X126738102Y-84865226D01*
X126938061Y-84905000D01*
X127141939Y-84905000D01*
X127341898Y-84865226D01*
X127530256Y-84787205D01*
X127699774Y-84673937D01*
X127843937Y-84529774D01*
X127957205Y-84360256D01*
X128035226Y-84171898D01*
X128075000Y-83971939D01*
X128075000Y-83768061D01*
X128035226Y-83568102D01*
X127957205Y-83379744D01*
X127843937Y-83210226D01*
X127699774Y-83066063D01*
X127530256Y-82952795D01*
X127341898Y-82874774D01*
X127141939Y-82835000D01*
X126938061Y-82835000D01*
X126738102Y-82874774D01*
X126549744Y-82952795D01*
X126426715Y-83035000D01*
X126266544Y-83035000D01*
X126295000Y-82891939D01*
X126295000Y-82688061D01*
X126255226Y-82488102D01*
X126177205Y-82299744D01*
X126063937Y-82130226D01*
X126018711Y-82085000D01*
X129044334Y-82085000D01*
X131711183Y-84751850D01*
G36*
X117155001Y-78195869D02*
G01*
X117155000Y-78576715D01*
X117072795Y-78699744D01*
X116994774Y-78888102D01*
X116955000Y-79088061D01*
X116955000Y-79291939D01*
X116981467Y-79425000D01*
X115947353Y-79425000D01*
X115957205Y-79410256D01*
X116035226Y-79221898D01*
X116075000Y-79021939D01*
X116075000Y-78818061D01*
X116035226Y-78618102D01*
X115957205Y-78429744D01*
X115843937Y-78260226D01*
X115699774Y-78116063D01*
X115638317Y-78074999D01*
X117034131Y-78074999D01*
X117155001Y-78195869D01*
X117155001Y-78195869D01*
G37*
X117155001Y-78195869D02*
X117155000Y-78576715D01*
X117072795Y-78699744D01*
X116994774Y-78888102D01*
X116955000Y-79088061D01*
X116955000Y-79291939D01*
X116981467Y-79425000D01*
X115947353Y-79425000D01*
X115957205Y-79410256D01*
X116035226Y-79221898D01*
X116075000Y-79021939D01*
X116075000Y-78818061D01*
X116035226Y-78618102D01*
X115957205Y-78429744D01*
X115843937Y-78260226D01*
X115699774Y-78116063D01*
X115638317Y-78074999D01*
X117034131Y-78074999D01*
X117155001Y-78195869D01*
M02*
