G04 #@! TF.GenerationSoftware,KiCad,Pcbnew,(5.1.0)-1*
G04 #@! TF.CreationDate,2020-10-25T22:34:19+01:00*
G04 #@! TF.ProjectId,Waage,57616167-652e-46b6-9963-61645f706362,rev?*
G04 #@! TF.SameCoordinates,Original*
G04 #@! TF.FileFunction,Soldermask,Top*
G04 #@! TF.FilePolarity,Negative*
%FSLAX46Y46*%
G04 Gerber Fmt 4.6, Leading zero omitted, Abs format (unit mm)*
G04 Created by KiCad (PCBNEW (5.1.0)-1) date 2020-10-25 22:34:19*
%MOMM*%
%LPD*%
G04 APERTURE LIST*
%ADD10C,0.100000*%
G04 APERTURE END LIST*
D10*
G36*
X147035331Y-118013211D02*
G01*
X147363092Y-118148974D01*
X147658070Y-118346072D01*
X147908928Y-118596930D01*
X148106026Y-118891908D01*
X148241789Y-119219669D01*
X148311000Y-119567616D01*
X148311000Y-119922384D01*
X148241789Y-120270331D01*
X148106026Y-120598092D01*
X147908928Y-120893070D01*
X147658070Y-121143928D01*
X147363092Y-121341026D01*
X147035331Y-121476789D01*
X146687384Y-121546000D01*
X146332616Y-121546000D01*
X145984669Y-121476789D01*
X145656908Y-121341026D01*
X145361930Y-121143928D01*
X145111072Y-120893070D01*
X144913974Y-120598092D01*
X144778211Y-120270331D01*
X144709000Y-119922384D01*
X144709000Y-119567616D01*
X144778211Y-119219669D01*
X144913974Y-118891908D01*
X145111072Y-118596930D01*
X145361930Y-118346072D01*
X145656908Y-118148974D01*
X145984669Y-118013211D01*
X146332616Y-117944000D01*
X146687384Y-117944000D01*
X147035331Y-118013211D01*
X147035331Y-118013211D01*
G37*
G36*
X130375256Y-116391298D02*
G01*
X130481579Y-116412447D01*
X130782042Y-116536903D01*
X131052451Y-116717585D01*
X131282415Y-116947549D01*
X131463097Y-117217958D01*
X131587553Y-117518421D01*
X131651000Y-117837391D01*
X131651000Y-118162609D01*
X131587553Y-118481579D01*
X131463097Y-118782042D01*
X131282415Y-119052451D01*
X131052451Y-119282415D01*
X130782042Y-119463097D01*
X130481579Y-119587553D01*
X130375256Y-119608702D01*
X130162611Y-119651000D01*
X129837389Y-119651000D01*
X129624744Y-119608702D01*
X129518421Y-119587553D01*
X129217958Y-119463097D01*
X128947549Y-119282415D01*
X128717585Y-119052451D01*
X128536903Y-118782042D01*
X128412447Y-118481579D01*
X128349000Y-118162609D01*
X128349000Y-117837391D01*
X128412447Y-117518421D01*
X128536903Y-117217958D01*
X128717585Y-116947549D01*
X128947549Y-116717585D01*
X129217958Y-116536903D01*
X129518421Y-116412447D01*
X129624744Y-116391298D01*
X129837389Y-116349000D01*
X130162611Y-116349000D01*
X130375256Y-116391298D01*
X130375256Y-116391298D01*
G37*
G36*
X84375256Y-116391298D02*
G01*
X84481579Y-116412447D01*
X84782042Y-116536903D01*
X85052451Y-116717585D01*
X85282415Y-116947549D01*
X85463097Y-117217958D01*
X85587553Y-117518421D01*
X85651000Y-117837391D01*
X85651000Y-118162609D01*
X85587553Y-118481579D01*
X85463097Y-118782042D01*
X85282415Y-119052451D01*
X85052451Y-119282415D01*
X84782042Y-119463097D01*
X84481579Y-119587553D01*
X84375256Y-119608702D01*
X84162611Y-119651000D01*
X83837389Y-119651000D01*
X83624744Y-119608702D01*
X83518421Y-119587553D01*
X83217958Y-119463097D01*
X82947549Y-119282415D01*
X82717585Y-119052451D01*
X82536903Y-118782042D01*
X82412447Y-118481579D01*
X82349000Y-118162609D01*
X82349000Y-117837391D01*
X82412447Y-117518421D01*
X82536903Y-117217958D01*
X82717585Y-116947549D01*
X82947549Y-116717585D01*
X83217958Y-116536903D01*
X83518421Y-116412447D01*
X83624744Y-116391298D01*
X83837389Y-116349000D01*
X84162611Y-116349000D01*
X84375256Y-116391298D01*
X84375256Y-116391298D01*
G37*
G36*
X141913512Y-114078927D02*
G01*
X142062812Y-114108624D01*
X142226784Y-114176544D01*
X142374354Y-114275147D01*
X142499853Y-114400646D01*
X142598456Y-114548216D01*
X142666376Y-114712188D01*
X142677405Y-114767638D01*
X142684516Y-114791078D01*
X142696067Y-114812689D01*
X142711613Y-114831631D01*
X142730555Y-114847176D01*
X142752165Y-114858727D01*
X142775614Y-114865840D01*
X142800000Y-114868242D01*
X142824387Y-114865840D01*
X142847835Y-114858727D01*
X142869446Y-114847176D01*
X142888388Y-114831630D01*
X142903933Y-114812688D01*
X142915484Y-114791078D01*
X142922595Y-114767638D01*
X142933624Y-114712188D01*
X143001544Y-114548216D01*
X143100147Y-114400646D01*
X143225646Y-114275147D01*
X143373216Y-114176544D01*
X143537188Y-114108624D01*
X143686488Y-114078927D01*
X143711258Y-114074000D01*
X143888742Y-114074000D01*
X143913512Y-114078927D01*
X144062812Y-114108624D01*
X144226784Y-114176544D01*
X144374354Y-114275147D01*
X144499853Y-114400646D01*
X144598456Y-114548216D01*
X144666376Y-114712188D01*
X144701000Y-114886259D01*
X144701000Y-115063741D01*
X144666376Y-115237812D01*
X144598456Y-115401784D01*
X144499853Y-115549354D01*
X144374354Y-115674853D01*
X144226784Y-115773456D01*
X144062812Y-115841376D01*
X143913512Y-115871073D01*
X143888742Y-115876000D01*
X143711258Y-115876000D01*
X143686488Y-115871073D01*
X143537188Y-115841376D01*
X143373216Y-115773456D01*
X143225646Y-115674853D01*
X143100147Y-115549354D01*
X143001544Y-115401784D01*
X142933624Y-115237812D01*
X142922595Y-115182362D01*
X142915484Y-115158922D01*
X142903933Y-115137311D01*
X142888387Y-115118369D01*
X142869445Y-115102824D01*
X142847835Y-115091273D01*
X142824386Y-115084160D01*
X142800000Y-115081758D01*
X142775613Y-115084160D01*
X142752165Y-115091273D01*
X142730554Y-115102824D01*
X142711612Y-115118370D01*
X142696067Y-115137312D01*
X142684516Y-115158922D01*
X142677405Y-115182362D01*
X142666376Y-115237812D01*
X142598456Y-115401784D01*
X142499853Y-115549354D01*
X142374354Y-115674853D01*
X142226784Y-115773456D01*
X142062812Y-115841376D01*
X141913512Y-115871073D01*
X141888742Y-115876000D01*
X141711258Y-115876000D01*
X141686488Y-115871073D01*
X141537188Y-115841376D01*
X141373216Y-115773456D01*
X141225646Y-115674853D01*
X141100147Y-115549354D01*
X141001544Y-115401784D01*
X140933624Y-115237812D01*
X140899000Y-115063741D01*
X140899000Y-114886259D01*
X140933624Y-114712188D01*
X141001544Y-114548216D01*
X141100147Y-114400646D01*
X141225646Y-114275147D01*
X141373216Y-114176544D01*
X141537188Y-114108624D01*
X141686488Y-114078927D01*
X141711258Y-114074000D01*
X141888742Y-114074000D01*
X141913512Y-114078927D01*
X141913512Y-114078927D01*
G37*
G36*
X142701000Y-112145383D02*
G01*
X142703402Y-112169769D01*
X142710515Y-112193218D01*
X142722066Y-112214829D01*
X142737611Y-112233771D01*
X142756553Y-112249316D01*
X142778164Y-112260867D01*
X142801613Y-112267980D01*
X142825999Y-112270382D01*
X142850385Y-112267980D01*
X142873834Y-112260867D01*
X142895445Y-112249316D01*
X142914387Y-112233771D01*
X142929932Y-112214829D01*
X142941477Y-112193229D01*
X143001544Y-112048216D01*
X143100147Y-111900646D01*
X143225646Y-111775147D01*
X143373216Y-111676544D01*
X143537188Y-111608624D01*
X143686488Y-111578927D01*
X143711258Y-111574000D01*
X143888742Y-111574000D01*
X143913512Y-111578927D01*
X144062812Y-111608624D01*
X144226784Y-111676544D01*
X144374354Y-111775147D01*
X144499853Y-111900646D01*
X144598456Y-112048216D01*
X144666376Y-112212188D01*
X144701000Y-112386259D01*
X144701000Y-112563741D01*
X144666376Y-112737812D01*
X144598456Y-112901784D01*
X144499853Y-113049354D01*
X144374354Y-113174853D01*
X144226784Y-113273456D01*
X144062812Y-113341376D01*
X143913512Y-113371073D01*
X143888742Y-113376000D01*
X143711258Y-113376000D01*
X143686488Y-113371073D01*
X143537188Y-113341376D01*
X143373216Y-113273456D01*
X143225646Y-113174853D01*
X143100147Y-113049354D01*
X143001544Y-112901784D01*
X142941477Y-112756771D01*
X142929932Y-112735171D01*
X142914387Y-112716229D01*
X142895445Y-112700684D01*
X142873834Y-112689133D01*
X142850385Y-112682020D01*
X142825999Y-112679618D01*
X142801613Y-112682020D01*
X142778164Y-112689133D01*
X142756553Y-112700684D01*
X142737611Y-112716229D01*
X142722066Y-112735171D01*
X142710515Y-112756782D01*
X142703402Y-112780231D01*
X142701000Y-112804617D01*
X142701000Y-113376000D01*
X140899000Y-113376000D01*
X140899000Y-111574000D01*
X142701000Y-111574000D01*
X142701000Y-112145383D01*
X142701000Y-112145383D01*
G37*
G36*
X135058604Y-110108347D02*
G01*
X135095144Y-110119432D01*
X135128821Y-110137433D01*
X135158341Y-110161659D01*
X135182567Y-110191179D01*
X135200568Y-110224856D01*
X135211653Y-110261396D01*
X135216000Y-110305538D01*
X135216000Y-111254462D01*
X135211653Y-111298604D01*
X135200568Y-111335144D01*
X135182567Y-111368821D01*
X135158341Y-111398341D01*
X135128821Y-111422567D01*
X135095144Y-111440568D01*
X135058604Y-111451653D01*
X135014462Y-111456000D01*
X133565538Y-111456000D01*
X133521396Y-111451653D01*
X133484856Y-111440568D01*
X133451179Y-111422567D01*
X133421659Y-111398341D01*
X133397433Y-111368821D01*
X133379432Y-111335144D01*
X133368347Y-111298604D01*
X133364000Y-111254462D01*
X133364000Y-110305538D01*
X133368347Y-110261396D01*
X133379432Y-110224856D01*
X133397433Y-110191179D01*
X133421659Y-110161659D01*
X133451179Y-110137433D01*
X133484856Y-110119432D01*
X133521396Y-110108347D01*
X133565538Y-110104000D01*
X135014462Y-110104000D01*
X135058604Y-110108347D01*
X135058604Y-110108347D01*
G37*
G36*
X127418604Y-109678347D02*
G01*
X127455144Y-109689432D01*
X127488821Y-109707433D01*
X127518341Y-109731659D01*
X127542567Y-109761179D01*
X127560568Y-109794856D01*
X127571653Y-109831396D01*
X127576000Y-109875538D01*
X127576000Y-110824462D01*
X127571653Y-110868604D01*
X127560568Y-110905144D01*
X127542567Y-110938821D01*
X127518341Y-110968341D01*
X127488821Y-110992567D01*
X127455144Y-111010568D01*
X127418604Y-111021653D01*
X127374462Y-111026000D01*
X125925538Y-111026000D01*
X125881396Y-111021653D01*
X125844856Y-111010568D01*
X125811179Y-110992567D01*
X125781659Y-110968341D01*
X125757433Y-110938821D01*
X125739432Y-110905144D01*
X125728347Y-110868604D01*
X125724000Y-110824462D01*
X125724000Y-109875538D01*
X125728347Y-109831396D01*
X125739432Y-109794856D01*
X125757433Y-109761179D01*
X125781659Y-109731659D01*
X125811179Y-109707433D01*
X125844856Y-109689432D01*
X125881396Y-109678347D01*
X125925538Y-109674000D01*
X127374462Y-109674000D01*
X127418604Y-109678347D01*
X127418604Y-109678347D01*
G37*
G36*
X131066000Y-110931000D02*
G01*
X128414000Y-110931000D01*
X128414000Y-109769000D01*
X131066000Y-109769000D01*
X131066000Y-110931000D01*
X131066000Y-110931000D01*
G37*
G36*
X138261000Y-110761000D02*
G01*
X136459000Y-110761000D01*
X136459000Y-108959000D01*
X138261000Y-108959000D01*
X138261000Y-110761000D01*
X138261000Y-110761000D01*
G37*
G36*
X107538604Y-109228347D02*
G01*
X107575144Y-109239432D01*
X107608821Y-109257433D01*
X107638341Y-109281659D01*
X107662567Y-109311179D01*
X107680568Y-109344856D01*
X107691653Y-109381396D01*
X107696000Y-109425538D01*
X107696000Y-110374462D01*
X107691653Y-110418604D01*
X107680568Y-110455144D01*
X107662567Y-110488821D01*
X107638341Y-110518341D01*
X107608821Y-110542567D01*
X107575144Y-110560568D01*
X107538604Y-110571653D01*
X107494462Y-110576000D01*
X106045538Y-110576000D01*
X106001396Y-110571653D01*
X105964856Y-110560568D01*
X105931179Y-110542567D01*
X105901659Y-110518341D01*
X105877433Y-110488821D01*
X105859432Y-110455144D01*
X105848347Y-110418604D01*
X105844000Y-110374462D01*
X105844000Y-109425538D01*
X105848347Y-109381396D01*
X105859432Y-109344856D01*
X105877433Y-109311179D01*
X105901659Y-109281659D01*
X105931179Y-109257433D01*
X105964856Y-109239432D01*
X106001396Y-109228347D01*
X106045538Y-109224000D01*
X107494462Y-109224000D01*
X107538604Y-109228347D01*
X107538604Y-109228347D01*
G37*
G36*
X121538604Y-109228347D02*
G01*
X121575144Y-109239432D01*
X121608821Y-109257433D01*
X121638341Y-109281659D01*
X121662567Y-109311179D01*
X121680568Y-109344856D01*
X121691653Y-109381396D01*
X121696000Y-109425538D01*
X121696000Y-110374462D01*
X121691653Y-110418604D01*
X121680568Y-110455144D01*
X121662567Y-110488821D01*
X121638341Y-110518341D01*
X121608821Y-110542567D01*
X121575144Y-110560568D01*
X121538604Y-110571653D01*
X121494462Y-110576000D01*
X120045538Y-110576000D01*
X120001396Y-110571653D01*
X119964856Y-110560568D01*
X119931179Y-110542567D01*
X119901659Y-110518341D01*
X119877433Y-110488821D01*
X119859432Y-110455144D01*
X119848347Y-110418604D01*
X119844000Y-110374462D01*
X119844000Y-109425538D01*
X119848347Y-109381396D01*
X119859432Y-109344856D01*
X119877433Y-109311179D01*
X119901659Y-109281659D01*
X119931179Y-109257433D01*
X119964856Y-109239432D01*
X120001396Y-109228347D01*
X120045538Y-109224000D01*
X121494462Y-109224000D01*
X121538604Y-109228347D01*
X121538604Y-109228347D01*
G37*
G36*
X93538604Y-109228347D02*
G01*
X93575144Y-109239432D01*
X93608821Y-109257433D01*
X93638341Y-109281659D01*
X93662567Y-109311179D01*
X93680568Y-109344856D01*
X93691653Y-109381396D01*
X93696000Y-109425538D01*
X93696000Y-110374462D01*
X93691653Y-110418604D01*
X93680568Y-110455144D01*
X93662567Y-110488821D01*
X93638341Y-110518341D01*
X93608821Y-110542567D01*
X93575144Y-110560568D01*
X93538604Y-110571653D01*
X93494462Y-110576000D01*
X92045538Y-110576000D01*
X92001396Y-110571653D01*
X91964856Y-110560568D01*
X91931179Y-110542567D01*
X91901659Y-110518341D01*
X91877433Y-110488821D01*
X91859432Y-110455144D01*
X91848347Y-110418604D01*
X91844000Y-110374462D01*
X91844000Y-109425538D01*
X91848347Y-109381396D01*
X91859432Y-109344856D01*
X91877433Y-109311179D01*
X91901659Y-109281659D01*
X91931179Y-109257433D01*
X91964856Y-109239432D01*
X92001396Y-109228347D01*
X92045538Y-109224000D01*
X93494462Y-109224000D01*
X93538604Y-109228347D01*
X93538604Y-109228347D01*
G37*
G36*
X147035331Y-105973211D02*
G01*
X147363092Y-106108974D01*
X147658070Y-106306072D01*
X147908928Y-106556930D01*
X148106026Y-106851908D01*
X148241789Y-107179669D01*
X148311000Y-107527616D01*
X148311000Y-107882384D01*
X148241789Y-108230331D01*
X148106026Y-108558092D01*
X147908928Y-108853070D01*
X147658070Y-109103928D01*
X147363092Y-109301026D01*
X147035331Y-109436789D01*
X146687384Y-109506000D01*
X146332616Y-109506000D01*
X145984669Y-109436789D01*
X145656908Y-109301026D01*
X145361930Y-109103928D01*
X145111072Y-108853070D01*
X144913974Y-108558092D01*
X144778211Y-108230331D01*
X144709000Y-107882384D01*
X144709000Y-107527616D01*
X144778211Y-107179669D01*
X144913974Y-106851908D01*
X145111072Y-106556930D01*
X145361930Y-106306072D01*
X145656908Y-106108974D01*
X145984669Y-105973211D01*
X146332616Y-105904000D01*
X146687384Y-105904000D01*
X147035331Y-105973211D01*
X147035331Y-105973211D01*
G37*
G36*
X90221000Y-109451000D02*
G01*
X88319000Y-109451000D01*
X88319000Y-107549000D01*
X90221000Y-107549000D01*
X90221000Y-109451000D01*
X90221000Y-109451000D01*
G37*
G36*
X118221000Y-109451000D02*
G01*
X116319000Y-109451000D01*
X116319000Y-107549000D01*
X118221000Y-107549000D01*
X118221000Y-109451000D01*
X118221000Y-109451000D01*
G37*
G36*
X115007395Y-107585546D02*
G01*
X115180466Y-107657234D01*
X115257818Y-107708919D01*
X115336227Y-107761310D01*
X115468690Y-107893773D01*
X115521081Y-107972182D01*
X115572766Y-108049534D01*
X115644454Y-108222605D01*
X115681000Y-108406333D01*
X115681000Y-108593667D01*
X115644454Y-108777395D01*
X115572766Y-108950466D01*
X115521081Y-109027818D01*
X115468690Y-109106227D01*
X115336227Y-109238690D01*
X115327407Y-109244583D01*
X115180466Y-109342766D01*
X115007395Y-109414454D01*
X114823667Y-109451000D01*
X114636333Y-109451000D01*
X114452605Y-109414454D01*
X114279534Y-109342766D01*
X114132593Y-109244583D01*
X114123773Y-109238690D01*
X113991310Y-109106227D01*
X113938919Y-109027818D01*
X113887234Y-108950466D01*
X113815546Y-108777395D01*
X113779000Y-108593667D01*
X113779000Y-108406333D01*
X113815546Y-108222605D01*
X113887234Y-108049534D01*
X113938919Y-107972182D01*
X113991310Y-107893773D01*
X114123773Y-107761310D01*
X114202182Y-107708919D01*
X114279534Y-107657234D01*
X114452605Y-107585546D01*
X114636333Y-107549000D01*
X114823667Y-107549000D01*
X115007395Y-107585546D01*
X115007395Y-107585546D01*
G37*
G36*
X104221000Y-109451000D02*
G01*
X102319000Y-109451000D01*
X102319000Y-107549000D01*
X104221000Y-107549000D01*
X104221000Y-109451000D01*
X104221000Y-109451000D01*
G37*
G36*
X101007395Y-107585546D02*
G01*
X101180466Y-107657234D01*
X101257818Y-107708919D01*
X101336227Y-107761310D01*
X101468690Y-107893773D01*
X101521081Y-107972182D01*
X101572766Y-108049534D01*
X101644454Y-108222605D01*
X101681000Y-108406333D01*
X101681000Y-108593667D01*
X101644454Y-108777395D01*
X101572766Y-108950466D01*
X101521081Y-109027818D01*
X101468690Y-109106227D01*
X101336227Y-109238690D01*
X101327407Y-109244583D01*
X101180466Y-109342766D01*
X101007395Y-109414454D01*
X100823667Y-109451000D01*
X100636333Y-109451000D01*
X100452605Y-109414454D01*
X100279534Y-109342766D01*
X100132593Y-109244583D01*
X100123773Y-109238690D01*
X99991310Y-109106227D01*
X99938919Y-109027818D01*
X99887234Y-108950466D01*
X99815546Y-108777395D01*
X99779000Y-108593667D01*
X99779000Y-108406333D01*
X99815546Y-108222605D01*
X99887234Y-108049534D01*
X99938919Y-107972182D01*
X99991310Y-107893773D01*
X100123773Y-107761310D01*
X100202182Y-107708919D01*
X100279534Y-107657234D01*
X100452605Y-107585546D01*
X100636333Y-107549000D01*
X100823667Y-107549000D01*
X101007395Y-107585546D01*
X101007395Y-107585546D01*
G37*
G36*
X87007395Y-107585546D02*
G01*
X87180466Y-107657234D01*
X87257818Y-107708919D01*
X87336227Y-107761310D01*
X87468690Y-107893773D01*
X87521081Y-107972182D01*
X87572766Y-108049534D01*
X87644454Y-108222605D01*
X87681000Y-108406333D01*
X87681000Y-108593667D01*
X87644454Y-108777395D01*
X87572766Y-108950466D01*
X87521081Y-109027818D01*
X87468690Y-109106227D01*
X87336227Y-109238690D01*
X87327407Y-109244583D01*
X87180466Y-109342766D01*
X87007395Y-109414454D01*
X86823667Y-109451000D01*
X86636333Y-109451000D01*
X86452605Y-109414454D01*
X86279534Y-109342766D01*
X86132593Y-109244583D01*
X86123773Y-109238690D01*
X85991310Y-109106227D01*
X85938919Y-109027818D01*
X85887234Y-108950466D01*
X85815546Y-108777395D01*
X85779000Y-108593667D01*
X85779000Y-108406333D01*
X85815546Y-108222605D01*
X85887234Y-108049534D01*
X85938919Y-107972182D01*
X85991310Y-107893773D01*
X86123773Y-107761310D01*
X86202182Y-107708919D01*
X86279534Y-107657234D01*
X86452605Y-107585546D01*
X86636333Y-107549000D01*
X86823667Y-107549000D01*
X87007395Y-107585546D01*
X87007395Y-107585546D01*
G37*
G36*
X131066000Y-108731000D02*
G01*
X128414000Y-108731000D01*
X128414000Y-107569000D01*
X131066000Y-107569000D01*
X131066000Y-108731000D01*
X131066000Y-108731000D01*
G37*
G36*
X135058604Y-107308347D02*
G01*
X135095144Y-107319432D01*
X135128821Y-107337433D01*
X135158341Y-107361659D01*
X135182567Y-107391179D01*
X135200568Y-107424856D01*
X135211653Y-107461396D01*
X135216000Y-107505538D01*
X135216000Y-108454462D01*
X135211653Y-108498604D01*
X135200568Y-108535144D01*
X135182567Y-108568821D01*
X135158341Y-108598341D01*
X135128821Y-108622567D01*
X135095144Y-108640568D01*
X135058604Y-108651653D01*
X135014462Y-108656000D01*
X133565538Y-108656000D01*
X133521396Y-108651653D01*
X133484856Y-108640568D01*
X133451179Y-108622567D01*
X133421659Y-108598341D01*
X133397433Y-108568821D01*
X133379432Y-108535144D01*
X133368347Y-108498604D01*
X133364000Y-108454462D01*
X133364000Y-107505538D01*
X133368347Y-107461396D01*
X133379432Y-107424856D01*
X133397433Y-107391179D01*
X133421659Y-107361659D01*
X133451179Y-107337433D01*
X133484856Y-107319432D01*
X133521396Y-107308347D01*
X133565538Y-107304000D01*
X135014462Y-107304000D01*
X135058604Y-107308347D01*
X135058604Y-107308347D01*
G37*
G36*
X127418604Y-106878347D02*
G01*
X127455144Y-106889432D01*
X127488821Y-106907433D01*
X127518341Y-106931659D01*
X127542567Y-106961179D01*
X127560568Y-106994856D01*
X127571653Y-107031396D01*
X127576000Y-107075538D01*
X127576000Y-108024462D01*
X127571653Y-108068604D01*
X127560568Y-108105144D01*
X127542567Y-108138821D01*
X127518341Y-108168341D01*
X127488821Y-108192567D01*
X127455144Y-108210568D01*
X127418604Y-108221653D01*
X127374462Y-108226000D01*
X125925538Y-108226000D01*
X125881396Y-108221653D01*
X125844856Y-108210568D01*
X125811179Y-108192567D01*
X125781659Y-108168341D01*
X125757433Y-108138821D01*
X125739432Y-108105144D01*
X125728347Y-108068604D01*
X125724000Y-108024462D01*
X125724000Y-107075538D01*
X125728347Y-107031396D01*
X125739432Y-106994856D01*
X125757433Y-106961179D01*
X125781659Y-106931659D01*
X125811179Y-106907433D01*
X125844856Y-106889432D01*
X125881396Y-106878347D01*
X125925538Y-106874000D01*
X127374462Y-106874000D01*
X127418604Y-106878347D01*
X127418604Y-106878347D01*
G37*
G36*
X137455025Y-106424000D02*
G01*
X137536627Y-106432037D01*
X137706466Y-106483557D01*
X137706468Y-106483558D01*
X137758143Y-106511179D01*
X137862991Y-106567222D01*
X137880262Y-106581396D01*
X138000186Y-106679814D01*
X138083448Y-106781271D01*
X138112778Y-106817009D01*
X138196443Y-106973534D01*
X138247963Y-107143373D01*
X138265359Y-107320000D01*
X138247963Y-107496627D01*
X138196443Y-107666466D01*
X138112778Y-107822991D01*
X138083448Y-107858729D01*
X138000186Y-107960186D01*
X137921864Y-108024462D01*
X137862991Y-108072778D01*
X137706466Y-108156443D01*
X137536627Y-108207963D01*
X137470443Y-108214481D01*
X137404260Y-108221000D01*
X137315740Y-108221000D01*
X137249557Y-108214481D01*
X137183373Y-108207963D01*
X137013534Y-108156443D01*
X136857009Y-108072778D01*
X136798136Y-108024462D01*
X136719814Y-107960186D01*
X136636552Y-107858729D01*
X136607222Y-107822991D01*
X136523557Y-107666466D01*
X136472037Y-107496627D01*
X136454641Y-107320000D01*
X136472037Y-107143373D01*
X136523557Y-106973534D01*
X136607222Y-106817009D01*
X136636552Y-106781271D01*
X136719814Y-106679814D01*
X136839738Y-106581396D01*
X136857009Y-106567222D01*
X136961857Y-106511179D01*
X137013532Y-106483558D01*
X137013534Y-106483557D01*
X137183373Y-106432037D01*
X137264975Y-106424000D01*
X137315740Y-106419000D01*
X137404260Y-106419000D01*
X137455025Y-106424000D01*
X137455025Y-106424000D01*
G37*
G36*
X93538604Y-106428347D02*
G01*
X93575144Y-106439432D01*
X93608821Y-106457433D01*
X93638341Y-106481659D01*
X93662567Y-106511179D01*
X93680568Y-106544856D01*
X93691653Y-106581396D01*
X93696000Y-106625538D01*
X93696000Y-107574462D01*
X93691653Y-107618604D01*
X93680568Y-107655144D01*
X93662567Y-107688821D01*
X93638341Y-107718341D01*
X93608821Y-107742567D01*
X93575144Y-107760568D01*
X93538604Y-107771653D01*
X93494462Y-107776000D01*
X92045538Y-107776000D01*
X92001396Y-107771653D01*
X91964856Y-107760568D01*
X91931179Y-107742567D01*
X91901659Y-107718341D01*
X91877433Y-107688821D01*
X91859432Y-107655144D01*
X91848347Y-107618604D01*
X91844000Y-107574462D01*
X91844000Y-106625538D01*
X91848347Y-106581396D01*
X91859432Y-106544856D01*
X91877433Y-106511179D01*
X91901659Y-106481659D01*
X91931179Y-106457433D01*
X91964856Y-106439432D01*
X92001396Y-106428347D01*
X92045538Y-106424000D01*
X93494462Y-106424000D01*
X93538604Y-106428347D01*
X93538604Y-106428347D01*
G37*
G36*
X107538604Y-106428347D02*
G01*
X107575144Y-106439432D01*
X107608821Y-106457433D01*
X107638341Y-106481659D01*
X107662567Y-106511179D01*
X107680568Y-106544856D01*
X107691653Y-106581396D01*
X107696000Y-106625538D01*
X107696000Y-107574462D01*
X107691653Y-107618604D01*
X107680568Y-107655144D01*
X107662567Y-107688821D01*
X107638341Y-107718341D01*
X107608821Y-107742567D01*
X107575144Y-107760568D01*
X107538604Y-107771653D01*
X107494462Y-107776000D01*
X106045538Y-107776000D01*
X106001396Y-107771653D01*
X105964856Y-107760568D01*
X105931179Y-107742567D01*
X105901659Y-107718341D01*
X105877433Y-107688821D01*
X105859432Y-107655144D01*
X105848347Y-107618604D01*
X105844000Y-107574462D01*
X105844000Y-106625538D01*
X105848347Y-106581396D01*
X105859432Y-106544856D01*
X105877433Y-106511179D01*
X105901659Y-106481659D01*
X105931179Y-106457433D01*
X105964856Y-106439432D01*
X106001396Y-106428347D01*
X106045538Y-106424000D01*
X107494462Y-106424000D01*
X107538604Y-106428347D01*
X107538604Y-106428347D01*
G37*
G36*
X121538604Y-106428347D02*
G01*
X121575144Y-106439432D01*
X121608821Y-106457433D01*
X121638341Y-106481659D01*
X121662567Y-106511179D01*
X121680568Y-106544856D01*
X121691653Y-106581396D01*
X121696000Y-106625538D01*
X121696000Y-107574462D01*
X121691653Y-107618604D01*
X121680568Y-107655144D01*
X121662567Y-107688821D01*
X121638341Y-107718341D01*
X121608821Y-107742567D01*
X121575144Y-107760568D01*
X121538604Y-107771653D01*
X121494462Y-107776000D01*
X120045538Y-107776000D01*
X120001396Y-107771653D01*
X119964856Y-107760568D01*
X119931179Y-107742567D01*
X119901659Y-107718341D01*
X119877433Y-107688821D01*
X119859432Y-107655144D01*
X119848347Y-107618604D01*
X119844000Y-107574462D01*
X119844000Y-106625538D01*
X119848347Y-106581396D01*
X119859432Y-106544856D01*
X119877433Y-106511179D01*
X119901659Y-106481659D01*
X119931179Y-106457433D01*
X119964856Y-106439432D01*
X120001396Y-106428347D01*
X120045538Y-106424000D01*
X121494462Y-106424000D01*
X121538604Y-106428347D01*
X121538604Y-106428347D01*
G37*
G36*
X98846000Y-101451000D02*
G01*
X97194000Y-101451000D01*
X97194000Y-100049000D01*
X98846000Y-100049000D01*
X98846000Y-101451000D01*
X98846000Y-101451000D01*
G37*
G36*
X148806000Y-101451000D02*
G01*
X147154000Y-101451000D01*
X147154000Y-100049000D01*
X148806000Y-100049000D01*
X148806000Y-101451000D01*
X148806000Y-101451000D01*
G37*
G36*
X140846000Y-101451000D02*
G01*
X139194000Y-101451000D01*
X139194000Y-100049000D01*
X140846000Y-100049000D01*
X140846000Y-101451000D01*
X140846000Y-101451000D01*
G37*
G36*
X134806000Y-101451000D02*
G01*
X133154000Y-101451000D01*
X133154000Y-100049000D01*
X134806000Y-100049000D01*
X134806000Y-101451000D01*
X134806000Y-101451000D01*
G37*
G36*
X126846000Y-101451000D02*
G01*
X125194000Y-101451000D01*
X125194000Y-100049000D01*
X126846000Y-100049000D01*
X126846000Y-101451000D01*
X126846000Y-101451000D01*
G37*
G36*
X120806000Y-101451000D02*
G01*
X119154000Y-101451000D01*
X119154000Y-100049000D01*
X120806000Y-100049000D01*
X120806000Y-101451000D01*
X120806000Y-101451000D01*
G37*
G36*
X106806000Y-101451000D02*
G01*
X105154000Y-101451000D01*
X105154000Y-100049000D01*
X106806000Y-100049000D01*
X106806000Y-101451000D01*
X106806000Y-101451000D01*
G37*
G36*
X112846000Y-101451000D02*
G01*
X111194000Y-101451000D01*
X111194000Y-100049000D01*
X112846000Y-100049000D01*
X112846000Y-101451000D01*
X112846000Y-101451000D01*
G37*
G36*
X92806000Y-101451000D02*
G01*
X91154000Y-101451000D01*
X91154000Y-100049000D01*
X92806000Y-100049000D01*
X92806000Y-101451000D01*
X92806000Y-101451000D01*
G37*
G36*
X84846000Y-101451000D02*
G01*
X83194000Y-101451000D01*
X83194000Y-100049000D01*
X84846000Y-100049000D01*
X84846000Y-101451000D01*
X84846000Y-101451000D01*
G37*
G36*
X96268604Y-99228347D02*
G01*
X96305144Y-99239432D01*
X96338821Y-99257433D01*
X96368341Y-99281659D01*
X96392567Y-99311179D01*
X96410568Y-99344856D01*
X96421653Y-99381396D01*
X96426000Y-99425538D01*
X96426000Y-100374462D01*
X96421653Y-100418604D01*
X96410568Y-100455144D01*
X96392567Y-100488821D01*
X96368341Y-100518341D01*
X96338821Y-100542567D01*
X96305144Y-100560568D01*
X96268604Y-100571653D01*
X96224462Y-100576000D01*
X94775538Y-100576000D01*
X94731396Y-100571653D01*
X94694856Y-100560568D01*
X94661179Y-100542567D01*
X94631659Y-100518341D01*
X94607433Y-100488821D01*
X94589432Y-100455144D01*
X94578347Y-100418604D01*
X94574000Y-100374462D01*
X94574000Y-99425538D01*
X94578347Y-99381396D01*
X94589432Y-99344856D01*
X94607433Y-99311179D01*
X94631659Y-99281659D01*
X94661179Y-99257433D01*
X94694856Y-99239432D01*
X94731396Y-99228347D01*
X94775538Y-99224000D01*
X96224462Y-99224000D01*
X96268604Y-99228347D01*
X96268604Y-99228347D01*
G37*
G36*
X82268604Y-99228347D02*
G01*
X82305144Y-99239432D01*
X82338821Y-99257433D01*
X82368341Y-99281659D01*
X82392567Y-99311179D01*
X82410568Y-99344856D01*
X82421653Y-99381396D01*
X82426000Y-99425538D01*
X82426000Y-100374462D01*
X82421653Y-100418604D01*
X82410568Y-100455144D01*
X82392567Y-100488821D01*
X82368341Y-100518341D01*
X82338821Y-100542567D01*
X82305144Y-100560568D01*
X82268604Y-100571653D01*
X82224462Y-100576000D01*
X80775538Y-100576000D01*
X80731396Y-100571653D01*
X80694856Y-100560568D01*
X80661179Y-100542567D01*
X80631659Y-100518341D01*
X80607433Y-100488821D01*
X80589432Y-100455144D01*
X80578347Y-100418604D01*
X80574000Y-100374462D01*
X80574000Y-99425538D01*
X80578347Y-99381396D01*
X80589432Y-99344856D01*
X80607433Y-99311179D01*
X80631659Y-99281659D01*
X80661179Y-99257433D01*
X80694856Y-99239432D01*
X80731396Y-99228347D01*
X80775538Y-99224000D01*
X82224462Y-99224000D01*
X82268604Y-99228347D01*
X82268604Y-99228347D01*
G37*
G36*
X124268604Y-99228347D02*
G01*
X124305144Y-99239432D01*
X124338821Y-99257433D01*
X124368341Y-99281659D01*
X124392567Y-99311179D01*
X124410568Y-99344856D01*
X124421653Y-99381396D01*
X124426000Y-99425538D01*
X124426000Y-100374462D01*
X124421653Y-100418604D01*
X124410568Y-100455144D01*
X124392567Y-100488821D01*
X124368341Y-100518341D01*
X124338821Y-100542567D01*
X124305144Y-100560568D01*
X124268604Y-100571653D01*
X124224462Y-100576000D01*
X122775538Y-100576000D01*
X122731396Y-100571653D01*
X122694856Y-100560568D01*
X122661179Y-100542567D01*
X122631659Y-100518341D01*
X122607433Y-100488821D01*
X122589432Y-100455144D01*
X122578347Y-100418604D01*
X122574000Y-100374462D01*
X122574000Y-99425538D01*
X122578347Y-99381396D01*
X122589432Y-99344856D01*
X122607433Y-99311179D01*
X122631659Y-99281659D01*
X122661179Y-99257433D01*
X122694856Y-99239432D01*
X122731396Y-99228347D01*
X122775538Y-99224000D01*
X124224462Y-99224000D01*
X124268604Y-99228347D01*
X124268604Y-99228347D01*
G37*
G36*
X110268604Y-99228347D02*
G01*
X110305144Y-99239432D01*
X110338821Y-99257433D01*
X110368341Y-99281659D01*
X110392567Y-99311179D01*
X110410568Y-99344856D01*
X110421653Y-99381396D01*
X110426000Y-99425538D01*
X110426000Y-100374462D01*
X110421653Y-100418604D01*
X110410568Y-100455144D01*
X110392567Y-100488821D01*
X110368341Y-100518341D01*
X110338821Y-100542567D01*
X110305144Y-100560568D01*
X110268604Y-100571653D01*
X110224462Y-100576000D01*
X108775538Y-100576000D01*
X108731396Y-100571653D01*
X108694856Y-100560568D01*
X108661179Y-100542567D01*
X108631659Y-100518341D01*
X108607433Y-100488821D01*
X108589432Y-100455144D01*
X108578347Y-100418604D01*
X108574000Y-100374462D01*
X108574000Y-99425538D01*
X108578347Y-99381396D01*
X108589432Y-99344856D01*
X108607433Y-99311179D01*
X108631659Y-99281659D01*
X108661179Y-99257433D01*
X108694856Y-99239432D01*
X108731396Y-99228347D01*
X108775538Y-99224000D01*
X110224462Y-99224000D01*
X110268604Y-99228347D01*
X110268604Y-99228347D01*
G37*
G36*
X138268604Y-99228347D02*
G01*
X138305144Y-99239432D01*
X138338821Y-99257433D01*
X138368341Y-99281659D01*
X138392567Y-99311179D01*
X138410568Y-99344856D01*
X138421653Y-99381396D01*
X138426000Y-99425538D01*
X138426000Y-100374462D01*
X138421653Y-100418604D01*
X138410568Y-100455144D01*
X138392567Y-100488821D01*
X138368341Y-100518341D01*
X138338821Y-100542567D01*
X138305144Y-100560568D01*
X138268604Y-100571653D01*
X138224462Y-100576000D01*
X136775538Y-100576000D01*
X136731396Y-100571653D01*
X136694856Y-100560568D01*
X136661179Y-100542567D01*
X136631659Y-100518341D01*
X136607433Y-100488821D01*
X136589432Y-100455144D01*
X136578347Y-100418604D01*
X136574000Y-100374462D01*
X136574000Y-99425538D01*
X136578347Y-99381396D01*
X136589432Y-99344856D01*
X136607433Y-99311179D01*
X136631659Y-99281659D01*
X136661179Y-99257433D01*
X136694856Y-99239432D01*
X136731396Y-99228347D01*
X136775538Y-99224000D01*
X138224462Y-99224000D01*
X138268604Y-99228347D01*
X138268604Y-99228347D01*
G37*
G36*
X138268604Y-96428347D02*
G01*
X138305144Y-96439432D01*
X138338821Y-96457433D01*
X138368341Y-96481659D01*
X138392567Y-96511179D01*
X138410568Y-96544856D01*
X138421653Y-96581396D01*
X138426000Y-96625538D01*
X138426000Y-97574462D01*
X138421653Y-97618604D01*
X138410568Y-97655144D01*
X138392567Y-97688821D01*
X138368341Y-97718341D01*
X138338821Y-97742567D01*
X138305144Y-97760568D01*
X138268604Y-97771653D01*
X138224462Y-97776000D01*
X136775538Y-97776000D01*
X136731396Y-97771653D01*
X136694856Y-97760568D01*
X136661179Y-97742567D01*
X136631659Y-97718341D01*
X136607433Y-97688821D01*
X136589432Y-97655144D01*
X136578347Y-97618604D01*
X136574000Y-97574462D01*
X136574000Y-96625538D01*
X136578347Y-96581396D01*
X136589432Y-96544856D01*
X136607433Y-96511179D01*
X136631659Y-96481659D01*
X136661179Y-96457433D01*
X136694856Y-96439432D01*
X136731396Y-96428347D01*
X136775538Y-96424000D01*
X138224462Y-96424000D01*
X138268604Y-96428347D01*
X138268604Y-96428347D01*
G37*
G36*
X124268604Y-96428347D02*
G01*
X124305144Y-96439432D01*
X124338821Y-96457433D01*
X124368341Y-96481659D01*
X124392567Y-96511179D01*
X124410568Y-96544856D01*
X124421653Y-96581396D01*
X124426000Y-96625538D01*
X124426000Y-97574462D01*
X124421653Y-97618604D01*
X124410568Y-97655144D01*
X124392567Y-97688821D01*
X124368341Y-97718341D01*
X124338821Y-97742567D01*
X124305144Y-97760568D01*
X124268604Y-97771653D01*
X124224462Y-97776000D01*
X122775538Y-97776000D01*
X122731396Y-97771653D01*
X122694856Y-97760568D01*
X122661179Y-97742567D01*
X122631659Y-97718341D01*
X122607433Y-97688821D01*
X122589432Y-97655144D01*
X122578347Y-97618604D01*
X122574000Y-97574462D01*
X122574000Y-96625538D01*
X122578347Y-96581396D01*
X122589432Y-96544856D01*
X122607433Y-96511179D01*
X122631659Y-96481659D01*
X122661179Y-96457433D01*
X122694856Y-96439432D01*
X122731396Y-96428347D01*
X122775538Y-96424000D01*
X124224462Y-96424000D01*
X124268604Y-96428347D01*
X124268604Y-96428347D01*
G37*
G36*
X110268604Y-96428347D02*
G01*
X110305144Y-96439432D01*
X110338821Y-96457433D01*
X110368341Y-96481659D01*
X110392567Y-96511179D01*
X110410568Y-96544856D01*
X110421653Y-96581396D01*
X110426000Y-96625538D01*
X110426000Y-97574462D01*
X110421653Y-97618604D01*
X110410568Y-97655144D01*
X110392567Y-97688821D01*
X110368341Y-97718341D01*
X110338821Y-97742567D01*
X110305144Y-97760568D01*
X110268604Y-97771653D01*
X110224462Y-97776000D01*
X108775538Y-97776000D01*
X108731396Y-97771653D01*
X108694856Y-97760568D01*
X108661179Y-97742567D01*
X108631659Y-97718341D01*
X108607433Y-97688821D01*
X108589432Y-97655144D01*
X108578347Y-97618604D01*
X108574000Y-97574462D01*
X108574000Y-96625538D01*
X108578347Y-96581396D01*
X108589432Y-96544856D01*
X108607433Y-96511179D01*
X108631659Y-96481659D01*
X108661179Y-96457433D01*
X108694856Y-96439432D01*
X108731396Y-96428347D01*
X108775538Y-96424000D01*
X110224462Y-96424000D01*
X110268604Y-96428347D01*
X110268604Y-96428347D01*
G37*
G36*
X96268604Y-96428347D02*
G01*
X96305144Y-96439432D01*
X96338821Y-96457433D01*
X96368341Y-96481659D01*
X96392567Y-96511179D01*
X96410568Y-96544856D01*
X96421653Y-96581396D01*
X96426000Y-96625538D01*
X96426000Y-97574462D01*
X96421653Y-97618604D01*
X96410568Y-97655144D01*
X96392567Y-97688821D01*
X96368341Y-97718341D01*
X96338821Y-97742567D01*
X96305144Y-97760568D01*
X96268604Y-97771653D01*
X96224462Y-97776000D01*
X94775538Y-97776000D01*
X94731396Y-97771653D01*
X94694856Y-97760568D01*
X94661179Y-97742567D01*
X94631659Y-97718341D01*
X94607433Y-97688821D01*
X94589432Y-97655144D01*
X94578347Y-97618604D01*
X94574000Y-97574462D01*
X94574000Y-96625538D01*
X94578347Y-96581396D01*
X94589432Y-96544856D01*
X94607433Y-96511179D01*
X94631659Y-96481659D01*
X94661179Y-96457433D01*
X94694856Y-96439432D01*
X94731396Y-96428347D01*
X94775538Y-96424000D01*
X96224462Y-96424000D01*
X96268604Y-96428347D01*
X96268604Y-96428347D01*
G37*
G36*
X82268604Y-96428347D02*
G01*
X82305144Y-96439432D01*
X82338821Y-96457433D01*
X82368341Y-96481659D01*
X82392567Y-96511179D01*
X82410568Y-96544856D01*
X82421653Y-96581396D01*
X82426000Y-96625538D01*
X82426000Y-97574462D01*
X82421653Y-97618604D01*
X82410568Y-97655144D01*
X82392567Y-97688821D01*
X82368341Y-97718341D01*
X82338821Y-97742567D01*
X82305144Y-97760568D01*
X82268604Y-97771653D01*
X82224462Y-97776000D01*
X80775538Y-97776000D01*
X80731396Y-97771653D01*
X80694856Y-97760568D01*
X80661179Y-97742567D01*
X80631659Y-97718341D01*
X80607433Y-97688821D01*
X80589432Y-97655144D01*
X80578347Y-97618604D01*
X80574000Y-97574462D01*
X80574000Y-96625538D01*
X80578347Y-96581396D01*
X80589432Y-96544856D01*
X80607433Y-96511179D01*
X80631659Y-96481659D01*
X80661179Y-96457433D01*
X80694856Y-96439432D01*
X80731396Y-96428347D01*
X80775538Y-96424000D01*
X82224462Y-96424000D01*
X82268604Y-96428347D01*
X82268604Y-96428347D01*
G37*
G36*
X134806000Y-96951000D02*
G01*
X133154000Y-96951000D01*
X133154000Y-95549000D01*
X134806000Y-95549000D01*
X134806000Y-96951000D01*
X134806000Y-96951000D01*
G37*
G36*
X84846000Y-96951000D02*
G01*
X83194000Y-96951000D01*
X83194000Y-95549000D01*
X84846000Y-95549000D01*
X84846000Y-96951000D01*
X84846000Y-96951000D01*
G37*
G36*
X98846000Y-96951000D02*
G01*
X97194000Y-96951000D01*
X97194000Y-95549000D01*
X98846000Y-95549000D01*
X98846000Y-96951000D01*
X98846000Y-96951000D01*
G37*
G36*
X106806000Y-96951000D02*
G01*
X105154000Y-96951000D01*
X105154000Y-95549000D01*
X106806000Y-95549000D01*
X106806000Y-96951000D01*
X106806000Y-96951000D01*
G37*
G36*
X112846000Y-96951000D02*
G01*
X111194000Y-96951000D01*
X111194000Y-95549000D01*
X112846000Y-95549000D01*
X112846000Y-96951000D01*
X112846000Y-96951000D01*
G37*
G36*
X126846000Y-96951000D02*
G01*
X125194000Y-96951000D01*
X125194000Y-95549000D01*
X126846000Y-95549000D01*
X126846000Y-96951000D01*
X126846000Y-96951000D01*
G37*
G36*
X92806000Y-96951000D02*
G01*
X91154000Y-96951000D01*
X91154000Y-95549000D01*
X92806000Y-95549000D01*
X92806000Y-96951000D01*
X92806000Y-96951000D01*
G37*
G36*
X120806000Y-96951000D02*
G01*
X119154000Y-96951000D01*
X119154000Y-95549000D01*
X120806000Y-95549000D01*
X120806000Y-96951000D01*
X120806000Y-96951000D01*
G37*
G36*
X140846000Y-96951000D02*
G01*
X139194000Y-96951000D01*
X139194000Y-95549000D01*
X140846000Y-95549000D01*
X140846000Y-96951000D01*
X140846000Y-96951000D01*
G37*
G36*
X148806000Y-96951000D02*
G01*
X147154000Y-96951000D01*
X147154000Y-95549000D01*
X148806000Y-95549000D01*
X148806000Y-96951000D01*
X148806000Y-96951000D01*
G37*
G36*
X130918433Y-90134893D02*
G01*
X131008657Y-90152839D01*
X131114267Y-90196585D01*
X131263621Y-90258449D01*
X131263622Y-90258450D01*
X131493086Y-90411772D01*
X131688228Y-90606914D01*
X131716187Y-90648758D01*
X131841551Y-90836379D01*
X131886846Y-90945730D01*
X131931805Y-91054270D01*
X131947161Y-91091344D01*
X132001000Y-91362012D01*
X132001000Y-91637988D01*
X131947161Y-91908656D01*
X131841551Y-92163621D01*
X131841550Y-92163622D01*
X131688228Y-92393086D01*
X131493086Y-92588228D01*
X131339763Y-92690675D01*
X131263621Y-92741551D01*
X131114267Y-92803415D01*
X131008657Y-92847161D01*
X130918433Y-92865107D01*
X130737988Y-92901000D01*
X130462012Y-92901000D01*
X130281567Y-92865107D01*
X130191343Y-92847161D01*
X130085733Y-92803415D01*
X129936379Y-92741551D01*
X129860237Y-92690675D01*
X129706914Y-92588228D01*
X129511772Y-92393086D01*
X129358450Y-92163622D01*
X129358449Y-92163621D01*
X129252839Y-91908656D01*
X129199000Y-91637988D01*
X129199000Y-91362012D01*
X129252839Y-91091344D01*
X129268196Y-91054270D01*
X129313154Y-90945730D01*
X129358449Y-90836379D01*
X129483813Y-90648758D01*
X129511772Y-90606914D01*
X129706914Y-90411772D01*
X129936378Y-90258450D01*
X129936379Y-90258449D01*
X130085733Y-90196585D01*
X130191343Y-90152839D01*
X130281567Y-90134893D01*
X130462012Y-90099000D01*
X130737988Y-90099000D01*
X130918433Y-90134893D01*
X130918433Y-90134893D01*
G37*
G36*
X99718433Y-90134893D02*
G01*
X99808657Y-90152839D01*
X99914267Y-90196585D01*
X100063621Y-90258449D01*
X100063622Y-90258450D01*
X100293086Y-90411772D01*
X100488228Y-90606914D01*
X100516187Y-90648758D01*
X100641551Y-90836379D01*
X100686846Y-90945730D01*
X100731805Y-91054270D01*
X100747161Y-91091344D01*
X100801000Y-91362012D01*
X100801000Y-91637988D01*
X100747161Y-91908656D01*
X100641551Y-92163621D01*
X100641550Y-92163622D01*
X100488228Y-92393086D01*
X100293086Y-92588228D01*
X100139763Y-92690675D01*
X100063621Y-92741551D01*
X99914267Y-92803415D01*
X99808657Y-92847161D01*
X99718433Y-92865107D01*
X99537988Y-92901000D01*
X99262012Y-92901000D01*
X99081567Y-92865107D01*
X98991343Y-92847161D01*
X98885733Y-92803415D01*
X98736379Y-92741551D01*
X98660237Y-92690675D01*
X98506914Y-92588228D01*
X98311772Y-92393086D01*
X98158450Y-92163622D01*
X98158449Y-92163621D01*
X98052839Y-91908656D01*
X97999000Y-91637988D01*
X97999000Y-91362012D01*
X98052839Y-91091344D01*
X98068196Y-91054270D01*
X98113154Y-90945730D01*
X98158449Y-90836379D01*
X98283813Y-90648758D01*
X98311772Y-90606914D01*
X98506914Y-90411772D01*
X98736378Y-90258450D01*
X98736379Y-90258449D01*
X98885733Y-90196585D01*
X98991343Y-90152839D01*
X99081567Y-90134893D01*
X99262012Y-90099000D01*
X99537988Y-90099000D01*
X99718433Y-90134893D01*
X99718433Y-90134893D01*
G37*
G36*
X106290721Y-90470174D02*
G01*
X106390995Y-90511709D01*
X106390996Y-90511710D01*
X106481242Y-90572010D01*
X106557990Y-90648758D01*
X106557991Y-90648760D01*
X106618291Y-90739005D01*
X106649516Y-90814389D01*
X106661067Y-90836000D01*
X106676612Y-90854941D01*
X106695554Y-90870487D01*
X106717165Y-90882038D01*
X106740614Y-90889151D01*
X106765000Y-90891553D01*
X106789386Y-90889151D01*
X106812835Y-90882038D01*
X106834446Y-90870487D01*
X106853387Y-90854942D01*
X106868933Y-90836000D01*
X106880484Y-90814389D01*
X106911709Y-90739005D01*
X106972009Y-90648760D01*
X106972010Y-90648758D01*
X107048758Y-90572010D01*
X107139004Y-90511710D01*
X107139005Y-90511709D01*
X107239279Y-90470174D01*
X107345730Y-90449000D01*
X107454270Y-90449000D01*
X107560721Y-90470174D01*
X107660995Y-90511709D01*
X107660996Y-90511710D01*
X107751242Y-90572010D01*
X107827990Y-90648758D01*
X107827991Y-90648760D01*
X107888291Y-90739005D01*
X107919516Y-90814389D01*
X107931067Y-90836000D01*
X107946612Y-90854941D01*
X107965554Y-90870487D01*
X107987165Y-90882038D01*
X108010614Y-90889151D01*
X108035000Y-90891553D01*
X108059386Y-90889151D01*
X108082835Y-90882038D01*
X108104446Y-90870487D01*
X108123387Y-90854942D01*
X108138933Y-90836000D01*
X108150484Y-90814389D01*
X108181709Y-90739005D01*
X108242009Y-90648760D01*
X108242010Y-90648758D01*
X108318758Y-90572010D01*
X108409004Y-90511710D01*
X108409005Y-90511709D01*
X108509279Y-90470174D01*
X108615730Y-90449000D01*
X108724270Y-90449000D01*
X108830721Y-90470174D01*
X108930995Y-90511709D01*
X108930996Y-90511710D01*
X109021242Y-90572010D01*
X109097990Y-90648758D01*
X109097991Y-90648760D01*
X109158291Y-90739005D01*
X109189516Y-90814389D01*
X109201067Y-90836000D01*
X109216612Y-90854941D01*
X109235554Y-90870487D01*
X109257165Y-90882038D01*
X109280614Y-90889151D01*
X109305000Y-90891553D01*
X109329386Y-90889151D01*
X109352835Y-90882038D01*
X109374446Y-90870487D01*
X109393387Y-90854942D01*
X109408933Y-90836000D01*
X109420484Y-90814389D01*
X109451709Y-90739005D01*
X109512009Y-90648760D01*
X109512010Y-90648758D01*
X109588758Y-90572010D01*
X109679004Y-90511710D01*
X109679005Y-90511709D01*
X109779279Y-90470174D01*
X109885730Y-90449000D01*
X109994270Y-90449000D01*
X110100721Y-90470174D01*
X110200995Y-90511709D01*
X110200996Y-90511710D01*
X110291242Y-90572010D01*
X110367990Y-90648758D01*
X110367991Y-90648760D01*
X110428291Y-90739005D01*
X110459516Y-90814389D01*
X110471067Y-90836000D01*
X110486612Y-90854941D01*
X110505554Y-90870487D01*
X110527165Y-90882038D01*
X110550614Y-90889151D01*
X110575000Y-90891553D01*
X110599386Y-90889151D01*
X110622835Y-90882038D01*
X110644446Y-90870487D01*
X110663387Y-90854942D01*
X110678933Y-90836000D01*
X110690484Y-90814389D01*
X110721709Y-90739005D01*
X110782009Y-90648760D01*
X110782010Y-90648758D01*
X110858758Y-90572010D01*
X110949004Y-90511710D01*
X110949005Y-90511709D01*
X111049279Y-90470174D01*
X111155730Y-90449000D01*
X111264270Y-90449000D01*
X111370721Y-90470174D01*
X111470995Y-90511709D01*
X111470996Y-90511710D01*
X111561242Y-90572010D01*
X111637990Y-90648758D01*
X111637991Y-90648760D01*
X111698291Y-90739005D01*
X111729516Y-90814389D01*
X111741067Y-90836000D01*
X111756612Y-90854941D01*
X111775554Y-90870487D01*
X111797165Y-90882038D01*
X111820614Y-90889151D01*
X111845000Y-90891553D01*
X111869386Y-90889151D01*
X111892835Y-90882038D01*
X111914446Y-90870487D01*
X111933387Y-90854942D01*
X111948933Y-90836000D01*
X111960484Y-90814389D01*
X111991709Y-90739005D01*
X112052009Y-90648760D01*
X112052010Y-90648758D01*
X112128758Y-90572010D01*
X112219004Y-90511710D01*
X112219005Y-90511709D01*
X112319279Y-90470174D01*
X112425730Y-90449000D01*
X112534270Y-90449000D01*
X112640721Y-90470174D01*
X112740995Y-90511709D01*
X112740996Y-90511710D01*
X112831242Y-90572010D01*
X112907990Y-90648758D01*
X112907991Y-90648760D01*
X112968291Y-90739005D01*
X112999516Y-90814389D01*
X113011067Y-90836000D01*
X113026612Y-90854941D01*
X113045554Y-90870487D01*
X113067165Y-90882038D01*
X113090614Y-90889151D01*
X113115000Y-90891553D01*
X113139386Y-90889151D01*
X113162835Y-90882038D01*
X113184446Y-90870487D01*
X113203387Y-90854942D01*
X113218933Y-90836000D01*
X113230484Y-90814389D01*
X113261709Y-90739005D01*
X113322009Y-90648760D01*
X113322010Y-90648758D01*
X113398758Y-90572010D01*
X113489004Y-90511710D01*
X113489005Y-90511709D01*
X113589279Y-90470174D01*
X113695730Y-90449000D01*
X113804270Y-90449000D01*
X113910721Y-90470174D01*
X114010995Y-90511709D01*
X114010996Y-90511710D01*
X114101242Y-90572010D01*
X114177990Y-90648758D01*
X114177991Y-90648760D01*
X114238291Y-90739005D01*
X114269516Y-90814389D01*
X114281067Y-90836000D01*
X114296612Y-90854941D01*
X114315554Y-90870487D01*
X114337165Y-90882038D01*
X114360614Y-90889151D01*
X114385000Y-90891553D01*
X114409386Y-90889151D01*
X114432835Y-90882038D01*
X114454446Y-90870487D01*
X114473387Y-90854942D01*
X114488933Y-90836000D01*
X114500484Y-90814389D01*
X114531709Y-90739005D01*
X114592009Y-90648760D01*
X114592010Y-90648758D01*
X114668758Y-90572010D01*
X114759004Y-90511710D01*
X114759005Y-90511709D01*
X114859279Y-90470174D01*
X114965730Y-90449000D01*
X115074270Y-90449000D01*
X115180721Y-90470174D01*
X115280995Y-90511709D01*
X115280996Y-90511710D01*
X115371242Y-90572010D01*
X115447990Y-90648758D01*
X115447991Y-90648760D01*
X115508291Y-90739005D01*
X115539516Y-90814389D01*
X115551067Y-90836000D01*
X115566612Y-90854941D01*
X115585554Y-90870487D01*
X115607165Y-90882038D01*
X115630614Y-90889151D01*
X115655000Y-90891553D01*
X115679386Y-90889151D01*
X115702835Y-90882038D01*
X115724446Y-90870487D01*
X115743387Y-90854942D01*
X115758933Y-90836000D01*
X115770484Y-90814389D01*
X115801709Y-90739005D01*
X115862009Y-90648760D01*
X115862010Y-90648758D01*
X115938758Y-90572010D01*
X116029004Y-90511710D01*
X116029005Y-90511709D01*
X116129279Y-90470174D01*
X116235730Y-90449000D01*
X116344270Y-90449000D01*
X116450721Y-90470174D01*
X116550995Y-90511709D01*
X116550996Y-90511710D01*
X116641242Y-90572010D01*
X116717990Y-90648758D01*
X116717991Y-90648760D01*
X116778291Y-90739005D01*
X116809516Y-90814389D01*
X116821067Y-90836000D01*
X116836612Y-90854941D01*
X116855554Y-90870487D01*
X116877165Y-90882038D01*
X116900614Y-90889151D01*
X116925000Y-90891553D01*
X116949386Y-90889151D01*
X116972835Y-90882038D01*
X116994446Y-90870487D01*
X117013387Y-90854942D01*
X117028933Y-90836000D01*
X117040484Y-90814389D01*
X117071709Y-90739005D01*
X117132009Y-90648760D01*
X117132010Y-90648758D01*
X117208758Y-90572010D01*
X117299004Y-90511710D01*
X117299005Y-90511709D01*
X117399279Y-90470174D01*
X117505730Y-90449000D01*
X117614270Y-90449000D01*
X117720721Y-90470174D01*
X117820995Y-90511709D01*
X117820996Y-90511710D01*
X117911242Y-90572010D01*
X117987990Y-90648758D01*
X117987991Y-90648760D01*
X118048291Y-90739005D01*
X118079516Y-90814389D01*
X118091067Y-90836000D01*
X118106612Y-90854941D01*
X118125554Y-90870487D01*
X118147165Y-90882038D01*
X118170614Y-90889151D01*
X118195000Y-90891553D01*
X118219386Y-90889151D01*
X118242835Y-90882038D01*
X118264446Y-90870487D01*
X118283387Y-90854942D01*
X118298933Y-90836000D01*
X118310484Y-90814389D01*
X118341709Y-90739005D01*
X118402009Y-90648760D01*
X118402010Y-90648758D01*
X118478758Y-90572010D01*
X118569004Y-90511710D01*
X118569005Y-90511709D01*
X118669279Y-90470174D01*
X118775730Y-90449000D01*
X118884270Y-90449000D01*
X118990721Y-90470174D01*
X119090995Y-90511709D01*
X119090996Y-90511710D01*
X119181242Y-90572010D01*
X119257990Y-90648758D01*
X119257991Y-90648760D01*
X119318291Y-90739005D01*
X119349516Y-90814389D01*
X119361067Y-90836000D01*
X119376612Y-90854941D01*
X119395554Y-90870487D01*
X119417165Y-90882038D01*
X119440614Y-90889151D01*
X119465000Y-90891553D01*
X119489386Y-90889151D01*
X119512835Y-90882038D01*
X119534446Y-90870487D01*
X119553387Y-90854942D01*
X119568933Y-90836000D01*
X119580484Y-90814389D01*
X119611709Y-90739005D01*
X119672009Y-90648760D01*
X119672010Y-90648758D01*
X119748758Y-90572010D01*
X119839004Y-90511710D01*
X119839005Y-90511709D01*
X119939279Y-90470174D01*
X120045730Y-90449000D01*
X120154270Y-90449000D01*
X120260721Y-90470174D01*
X120360995Y-90511709D01*
X120360996Y-90511710D01*
X120451242Y-90572010D01*
X120527990Y-90648758D01*
X120527991Y-90648760D01*
X120588291Y-90739005D01*
X120619516Y-90814389D01*
X120631067Y-90836000D01*
X120646612Y-90854941D01*
X120665554Y-90870487D01*
X120687165Y-90882038D01*
X120710614Y-90889151D01*
X120735000Y-90891553D01*
X120759386Y-90889151D01*
X120782835Y-90882038D01*
X120804446Y-90870487D01*
X120823387Y-90854942D01*
X120838933Y-90836000D01*
X120850484Y-90814389D01*
X120881709Y-90739005D01*
X120942009Y-90648760D01*
X120942010Y-90648758D01*
X121018758Y-90572010D01*
X121109004Y-90511710D01*
X121109005Y-90511709D01*
X121209279Y-90470174D01*
X121315730Y-90449000D01*
X121424270Y-90449000D01*
X121530721Y-90470174D01*
X121630995Y-90511709D01*
X121630996Y-90511710D01*
X121721242Y-90572010D01*
X121797990Y-90648758D01*
X121797991Y-90648760D01*
X121858291Y-90739005D01*
X121889516Y-90814389D01*
X121901067Y-90836000D01*
X121916612Y-90854941D01*
X121935554Y-90870487D01*
X121957165Y-90882038D01*
X121980614Y-90889151D01*
X122005000Y-90891553D01*
X122029386Y-90889151D01*
X122052835Y-90882038D01*
X122074446Y-90870487D01*
X122093387Y-90854942D01*
X122108933Y-90836000D01*
X122120484Y-90814389D01*
X122151709Y-90739005D01*
X122212009Y-90648760D01*
X122212010Y-90648758D01*
X122288758Y-90572010D01*
X122379004Y-90511710D01*
X122379005Y-90511709D01*
X122479279Y-90470174D01*
X122585730Y-90449000D01*
X122694270Y-90449000D01*
X122800721Y-90470174D01*
X122900995Y-90511709D01*
X122900996Y-90511710D01*
X122991242Y-90572010D01*
X123067990Y-90648758D01*
X123067991Y-90648760D01*
X123128291Y-90739005D01*
X123159516Y-90814389D01*
X123171067Y-90836000D01*
X123186612Y-90854941D01*
X123205554Y-90870487D01*
X123227165Y-90882038D01*
X123250614Y-90889151D01*
X123275000Y-90891553D01*
X123299386Y-90889151D01*
X123322835Y-90882038D01*
X123344446Y-90870487D01*
X123363387Y-90854942D01*
X123378933Y-90836000D01*
X123390484Y-90814389D01*
X123421709Y-90739005D01*
X123482009Y-90648760D01*
X123482010Y-90648758D01*
X123558758Y-90572010D01*
X123649004Y-90511710D01*
X123649005Y-90511709D01*
X123749279Y-90470174D01*
X123855730Y-90449000D01*
X123964270Y-90449000D01*
X124070721Y-90470174D01*
X124170995Y-90511709D01*
X124170996Y-90511710D01*
X124261242Y-90572010D01*
X124337990Y-90648758D01*
X124337991Y-90648760D01*
X124398291Y-90739005D01*
X124439826Y-90839279D01*
X124461000Y-90945730D01*
X124461000Y-91054270D01*
X124439826Y-91160721D01*
X124398291Y-91260995D01*
X124398290Y-91260996D01*
X124337990Y-91351242D01*
X124261242Y-91427990D01*
X124215812Y-91458345D01*
X124170995Y-91488291D01*
X124070721Y-91529826D01*
X123964270Y-91551000D01*
X123855730Y-91551000D01*
X123749279Y-91529826D01*
X123649005Y-91488291D01*
X123604188Y-91458345D01*
X123558758Y-91427990D01*
X123482010Y-91351242D01*
X123421710Y-91260996D01*
X123421709Y-91260995D01*
X123390484Y-91185611D01*
X123378933Y-91164000D01*
X123363388Y-91145059D01*
X123344446Y-91129513D01*
X123322835Y-91117962D01*
X123299386Y-91110849D01*
X123275000Y-91108447D01*
X123250614Y-91110849D01*
X123227165Y-91117962D01*
X123205554Y-91129513D01*
X123186613Y-91145058D01*
X123171067Y-91164000D01*
X123159516Y-91185611D01*
X123128291Y-91260995D01*
X123128290Y-91260996D01*
X123067990Y-91351242D01*
X122991242Y-91427990D01*
X122945812Y-91458345D01*
X122900995Y-91488291D01*
X122800721Y-91529826D01*
X122694270Y-91551000D01*
X122585730Y-91551000D01*
X122479279Y-91529826D01*
X122379005Y-91488291D01*
X122334188Y-91458345D01*
X122288758Y-91427990D01*
X122212010Y-91351242D01*
X122151710Y-91260996D01*
X122151709Y-91260995D01*
X122120484Y-91185611D01*
X122108933Y-91164000D01*
X122093388Y-91145059D01*
X122074446Y-91129513D01*
X122052835Y-91117962D01*
X122029386Y-91110849D01*
X122005000Y-91108447D01*
X121980614Y-91110849D01*
X121957165Y-91117962D01*
X121935554Y-91129513D01*
X121916613Y-91145058D01*
X121901067Y-91164000D01*
X121889516Y-91185611D01*
X121858291Y-91260995D01*
X121858290Y-91260996D01*
X121797990Y-91351242D01*
X121721242Y-91427990D01*
X121675812Y-91458345D01*
X121630995Y-91488291D01*
X121530721Y-91529826D01*
X121424270Y-91551000D01*
X121315730Y-91551000D01*
X121209279Y-91529826D01*
X121109005Y-91488291D01*
X121064188Y-91458345D01*
X121018758Y-91427990D01*
X120942010Y-91351242D01*
X120881710Y-91260996D01*
X120881709Y-91260995D01*
X120850484Y-91185611D01*
X120838933Y-91164000D01*
X120823388Y-91145059D01*
X120804446Y-91129513D01*
X120782835Y-91117962D01*
X120759386Y-91110849D01*
X120735000Y-91108447D01*
X120710614Y-91110849D01*
X120687165Y-91117962D01*
X120665554Y-91129513D01*
X120646613Y-91145058D01*
X120631067Y-91164000D01*
X120619516Y-91185611D01*
X120588291Y-91260995D01*
X120588290Y-91260996D01*
X120527990Y-91351242D01*
X120451242Y-91427990D01*
X120405812Y-91458345D01*
X120360995Y-91488291D01*
X120260721Y-91529826D01*
X120154270Y-91551000D01*
X120045730Y-91551000D01*
X119939279Y-91529826D01*
X119839005Y-91488291D01*
X119794188Y-91458345D01*
X119748758Y-91427990D01*
X119672010Y-91351242D01*
X119611710Y-91260996D01*
X119611709Y-91260995D01*
X119580484Y-91185611D01*
X119568933Y-91164000D01*
X119553388Y-91145059D01*
X119534446Y-91129513D01*
X119512835Y-91117962D01*
X119489386Y-91110849D01*
X119465000Y-91108447D01*
X119440614Y-91110849D01*
X119417165Y-91117962D01*
X119395554Y-91129513D01*
X119376613Y-91145058D01*
X119361067Y-91164000D01*
X119349516Y-91185611D01*
X119318291Y-91260995D01*
X119318290Y-91260996D01*
X119257990Y-91351242D01*
X119181242Y-91427990D01*
X119135812Y-91458345D01*
X119090995Y-91488291D01*
X118990721Y-91529826D01*
X118884270Y-91551000D01*
X118775730Y-91551000D01*
X118669279Y-91529826D01*
X118569005Y-91488291D01*
X118524188Y-91458345D01*
X118478758Y-91427990D01*
X118402010Y-91351242D01*
X118341710Y-91260996D01*
X118341709Y-91260995D01*
X118310484Y-91185611D01*
X118298933Y-91164000D01*
X118283388Y-91145059D01*
X118264446Y-91129513D01*
X118242835Y-91117962D01*
X118219386Y-91110849D01*
X118195000Y-91108447D01*
X118170614Y-91110849D01*
X118147165Y-91117962D01*
X118125554Y-91129513D01*
X118106613Y-91145058D01*
X118091067Y-91164000D01*
X118079516Y-91185611D01*
X118048291Y-91260995D01*
X118048290Y-91260996D01*
X117987990Y-91351242D01*
X117911242Y-91427990D01*
X117865812Y-91458345D01*
X117820995Y-91488291D01*
X117720721Y-91529826D01*
X117614270Y-91551000D01*
X117505730Y-91551000D01*
X117399279Y-91529826D01*
X117299005Y-91488291D01*
X117254188Y-91458345D01*
X117208758Y-91427990D01*
X117132010Y-91351242D01*
X117071710Y-91260996D01*
X117071709Y-91260995D01*
X117040484Y-91185611D01*
X117028933Y-91164000D01*
X117013388Y-91145059D01*
X116994446Y-91129513D01*
X116972835Y-91117962D01*
X116949386Y-91110849D01*
X116925000Y-91108447D01*
X116900614Y-91110849D01*
X116877165Y-91117962D01*
X116855554Y-91129513D01*
X116836613Y-91145058D01*
X116821067Y-91164000D01*
X116809516Y-91185611D01*
X116778291Y-91260995D01*
X116778290Y-91260996D01*
X116717990Y-91351242D01*
X116641242Y-91427990D01*
X116595812Y-91458345D01*
X116550995Y-91488291D01*
X116450721Y-91529826D01*
X116344270Y-91551000D01*
X116235730Y-91551000D01*
X116129279Y-91529826D01*
X116029005Y-91488291D01*
X115984188Y-91458345D01*
X115938758Y-91427990D01*
X115862010Y-91351242D01*
X115801710Y-91260996D01*
X115801709Y-91260995D01*
X115770484Y-91185611D01*
X115758933Y-91164000D01*
X115743388Y-91145059D01*
X115724446Y-91129513D01*
X115702835Y-91117962D01*
X115679386Y-91110849D01*
X115655000Y-91108447D01*
X115630614Y-91110849D01*
X115607165Y-91117962D01*
X115585554Y-91129513D01*
X115566613Y-91145058D01*
X115551067Y-91164000D01*
X115539516Y-91185611D01*
X115508291Y-91260995D01*
X115508290Y-91260996D01*
X115447990Y-91351242D01*
X115371242Y-91427990D01*
X115325812Y-91458345D01*
X115280995Y-91488291D01*
X115180721Y-91529826D01*
X115074270Y-91551000D01*
X114965730Y-91551000D01*
X114859279Y-91529826D01*
X114759005Y-91488291D01*
X114714188Y-91458345D01*
X114668758Y-91427990D01*
X114592010Y-91351242D01*
X114531710Y-91260996D01*
X114531709Y-91260995D01*
X114500484Y-91185611D01*
X114488933Y-91164000D01*
X114473388Y-91145059D01*
X114454446Y-91129513D01*
X114432835Y-91117962D01*
X114409386Y-91110849D01*
X114385000Y-91108447D01*
X114360614Y-91110849D01*
X114337165Y-91117962D01*
X114315554Y-91129513D01*
X114296613Y-91145058D01*
X114281067Y-91164000D01*
X114269516Y-91185611D01*
X114238291Y-91260995D01*
X114238290Y-91260996D01*
X114177990Y-91351242D01*
X114101242Y-91427990D01*
X114055812Y-91458345D01*
X114010995Y-91488291D01*
X113910721Y-91529826D01*
X113804270Y-91551000D01*
X113695730Y-91551000D01*
X113589279Y-91529826D01*
X113489005Y-91488291D01*
X113444188Y-91458345D01*
X113398758Y-91427990D01*
X113322010Y-91351242D01*
X113261710Y-91260996D01*
X113261709Y-91260995D01*
X113230484Y-91185611D01*
X113218933Y-91164000D01*
X113203388Y-91145059D01*
X113184446Y-91129513D01*
X113162835Y-91117962D01*
X113139386Y-91110849D01*
X113115000Y-91108447D01*
X113090614Y-91110849D01*
X113067165Y-91117962D01*
X113045554Y-91129513D01*
X113026613Y-91145058D01*
X113011067Y-91164000D01*
X112999516Y-91185611D01*
X112968291Y-91260995D01*
X112968290Y-91260996D01*
X112907990Y-91351242D01*
X112831242Y-91427990D01*
X112785812Y-91458345D01*
X112740995Y-91488291D01*
X112640721Y-91529826D01*
X112534270Y-91551000D01*
X112425730Y-91551000D01*
X112319279Y-91529826D01*
X112219005Y-91488291D01*
X112174188Y-91458345D01*
X112128758Y-91427990D01*
X112052010Y-91351242D01*
X111991710Y-91260996D01*
X111991709Y-91260995D01*
X111960484Y-91185611D01*
X111948933Y-91164000D01*
X111933388Y-91145059D01*
X111914446Y-91129513D01*
X111892835Y-91117962D01*
X111869386Y-91110849D01*
X111845000Y-91108447D01*
X111820614Y-91110849D01*
X111797165Y-91117962D01*
X111775554Y-91129513D01*
X111756613Y-91145058D01*
X111741067Y-91164000D01*
X111729516Y-91185611D01*
X111698291Y-91260995D01*
X111698290Y-91260996D01*
X111637990Y-91351242D01*
X111561242Y-91427990D01*
X111515812Y-91458345D01*
X111470995Y-91488291D01*
X111370721Y-91529826D01*
X111264270Y-91551000D01*
X111155730Y-91551000D01*
X111049279Y-91529826D01*
X110949005Y-91488291D01*
X110904188Y-91458345D01*
X110858758Y-91427990D01*
X110782010Y-91351242D01*
X110721710Y-91260996D01*
X110721709Y-91260995D01*
X110690484Y-91185611D01*
X110678933Y-91164000D01*
X110663388Y-91145059D01*
X110644446Y-91129513D01*
X110622835Y-91117962D01*
X110599386Y-91110849D01*
X110575000Y-91108447D01*
X110550614Y-91110849D01*
X110527165Y-91117962D01*
X110505554Y-91129513D01*
X110486613Y-91145058D01*
X110471067Y-91164000D01*
X110459516Y-91185611D01*
X110428291Y-91260995D01*
X110428290Y-91260996D01*
X110367990Y-91351242D01*
X110291242Y-91427990D01*
X110245812Y-91458345D01*
X110200995Y-91488291D01*
X110100721Y-91529826D01*
X109994270Y-91551000D01*
X109885730Y-91551000D01*
X109779279Y-91529826D01*
X109679005Y-91488291D01*
X109634188Y-91458345D01*
X109588758Y-91427990D01*
X109512010Y-91351242D01*
X109451710Y-91260996D01*
X109451709Y-91260995D01*
X109420484Y-91185611D01*
X109408933Y-91164000D01*
X109393388Y-91145059D01*
X109374446Y-91129513D01*
X109352835Y-91117962D01*
X109329386Y-91110849D01*
X109305000Y-91108447D01*
X109280614Y-91110849D01*
X109257165Y-91117962D01*
X109235554Y-91129513D01*
X109216613Y-91145058D01*
X109201067Y-91164000D01*
X109189516Y-91185611D01*
X109158291Y-91260995D01*
X109158290Y-91260996D01*
X109097990Y-91351242D01*
X109021242Y-91427990D01*
X108975812Y-91458345D01*
X108930995Y-91488291D01*
X108830721Y-91529826D01*
X108724270Y-91551000D01*
X108615730Y-91551000D01*
X108509279Y-91529826D01*
X108409005Y-91488291D01*
X108364188Y-91458345D01*
X108318758Y-91427990D01*
X108242010Y-91351242D01*
X108181710Y-91260996D01*
X108181709Y-91260995D01*
X108150484Y-91185611D01*
X108138933Y-91164000D01*
X108123388Y-91145059D01*
X108104446Y-91129513D01*
X108082835Y-91117962D01*
X108059386Y-91110849D01*
X108035000Y-91108447D01*
X108010614Y-91110849D01*
X107987165Y-91117962D01*
X107965554Y-91129513D01*
X107946613Y-91145058D01*
X107931067Y-91164000D01*
X107919516Y-91185611D01*
X107888291Y-91260995D01*
X107888290Y-91260996D01*
X107827990Y-91351242D01*
X107751242Y-91427990D01*
X107705812Y-91458345D01*
X107660995Y-91488291D01*
X107560721Y-91529826D01*
X107454270Y-91551000D01*
X107345730Y-91551000D01*
X107239279Y-91529826D01*
X107139005Y-91488291D01*
X107094188Y-91458345D01*
X107048758Y-91427990D01*
X106972010Y-91351242D01*
X106911710Y-91260996D01*
X106911709Y-91260995D01*
X106880484Y-91185611D01*
X106868933Y-91164000D01*
X106853388Y-91145059D01*
X106834446Y-91129513D01*
X106812835Y-91117962D01*
X106789386Y-91110849D01*
X106765000Y-91108447D01*
X106740614Y-91110849D01*
X106717165Y-91117962D01*
X106695554Y-91129513D01*
X106676613Y-91145058D01*
X106661067Y-91164000D01*
X106649516Y-91185611D01*
X106618291Y-91260995D01*
X106618290Y-91260996D01*
X106557990Y-91351242D01*
X106481242Y-91427990D01*
X106435812Y-91458345D01*
X106390995Y-91488291D01*
X106290721Y-91529826D01*
X106184270Y-91551000D01*
X106075730Y-91551000D01*
X105969279Y-91529826D01*
X105869005Y-91488291D01*
X105824188Y-91458345D01*
X105778758Y-91427990D01*
X105702010Y-91351242D01*
X105641710Y-91260996D01*
X105641709Y-91260995D01*
X105600174Y-91160721D01*
X105579000Y-91054270D01*
X105579000Y-90945730D01*
X105600174Y-90839279D01*
X105641709Y-90739005D01*
X105702009Y-90648760D01*
X105702010Y-90648758D01*
X105778758Y-90572010D01*
X105869004Y-90511710D01*
X105869005Y-90511709D01*
X105969279Y-90470174D01*
X106075730Y-90449000D01*
X106184270Y-90449000D01*
X106290721Y-90470174D01*
X106290721Y-90470174D01*
G37*
G36*
X140708604Y-87068347D02*
G01*
X140745144Y-87079432D01*
X140778821Y-87097433D01*
X140808341Y-87121659D01*
X140832567Y-87151179D01*
X140850568Y-87184856D01*
X140861653Y-87221396D01*
X140866000Y-87265538D01*
X140866000Y-88714462D01*
X140861653Y-88758604D01*
X140850568Y-88795144D01*
X140832567Y-88828821D01*
X140808341Y-88858341D01*
X140778821Y-88882567D01*
X140745144Y-88900568D01*
X140708604Y-88911653D01*
X140664462Y-88916000D01*
X139715538Y-88916000D01*
X139671396Y-88911653D01*
X139634856Y-88900568D01*
X139601179Y-88882567D01*
X139571659Y-88858341D01*
X139547433Y-88828821D01*
X139529432Y-88795144D01*
X139518347Y-88758604D01*
X139514000Y-88714462D01*
X139514000Y-87265538D01*
X139518347Y-87221396D01*
X139529432Y-87184856D01*
X139547433Y-87151179D01*
X139571659Y-87121659D01*
X139601179Y-87097433D01*
X139634856Y-87079432D01*
X139671396Y-87068347D01*
X139715538Y-87064000D01*
X140664462Y-87064000D01*
X140708604Y-87068347D01*
X140708604Y-87068347D01*
G37*
G36*
X143508604Y-87068347D02*
G01*
X143545144Y-87079432D01*
X143578821Y-87097433D01*
X143608341Y-87121659D01*
X143632567Y-87151179D01*
X143650568Y-87184856D01*
X143661653Y-87221396D01*
X143666000Y-87265538D01*
X143666000Y-88714462D01*
X143661653Y-88758604D01*
X143650568Y-88795144D01*
X143632567Y-88828821D01*
X143608341Y-88858341D01*
X143578821Y-88882567D01*
X143545144Y-88900568D01*
X143508604Y-88911653D01*
X143464462Y-88916000D01*
X142515538Y-88916000D01*
X142471396Y-88911653D01*
X142434856Y-88900568D01*
X142401179Y-88882567D01*
X142371659Y-88858341D01*
X142347433Y-88828821D01*
X142329432Y-88795144D01*
X142318347Y-88758604D01*
X142314000Y-88714462D01*
X142314000Y-87265538D01*
X142318347Y-87221396D01*
X142329432Y-87184856D01*
X142347433Y-87151179D01*
X142371659Y-87121659D01*
X142401179Y-87097433D01*
X142434856Y-87079432D01*
X142471396Y-87068347D01*
X142515538Y-87064000D01*
X143464462Y-87064000D01*
X143508604Y-87068347D01*
X143508604Y-87068347D01*
G37*
G36*
X131539591Y-87120585D02*
G01*
X131573569Y-87130893D01*
X131604890Y-87147634D01*
X131632339Y-87170161D01*
X131654866Y-87197610D01*
X131671607Y-87228931D01*
X131681915Y-87262909D01*
X131686000Y-87304390D01*
X131686000Y-87905610D01*
X131681915Y-87947091D01*
X131671607Y-87981069D01*
X131654866Y-88012390D01*
X131632339Y-88039839D01*
X131604890Y-88062366D01*
X131573569Y-88079107D01*
X131539591Y-88089415D01*
X131498110Y-88093500D01*
X130821890Y-88093500D01*
X130780409Y-88089415D01*
X130746431Y-88079107D01*
X130715110Y-88062366D01*
X130687661Y-88039839D01*
X130665134Y-88012390D01*
X130648393Y-87981069D01*
X130638085Y-87947091D01*
X130634000Y-87905610D01*
X130634000Y-87304390D01*
X130638085Y-87262909D01*
X130648393Y-87228931D01*
X130665134Y-87197610D01*
X130687661Y-87170161D01*
X130715110Y-87147634D01*
X130746431Y-87130893D01*
X130780409Y-87120585D01*
X130821890Y-87116500D01*
X131498110Y-87116500D01*
X131539591Y-87120585D01*
X131539591Y-87120585D01*
G37*
G36*
X98301000Y-87151000D02*
G01*
X94899000Y-87151000D01*
X94899000Y-83549000D01*
X98301000Y-83549000D01*
X98301000Y-87151000D01*
X98301000Y-87151000D01*
G37*
G36*
X124110051Y-85406284D02*
G01*
X124126443Y-85411257D01*
X124141555Y-85419334D01*
X124154798Y-85430202D01*
X124165667Y-85443447D01*
X124169761Y-85451106D01*
X124183374Y-85471480D01*
X124200701Y-85488807D01*
X124221076Y-85502421D01*
X124243714Y-85511798D01*
X124267748Y-85516579D01*
X124292252Y-85516579D01*
X124316285Y-85511799D01*
X124338924Y-85502421D01*
X124359298Y-85488808D01*
X124376625Y-85471481D01*
X124390239Y-85451106D01*
X124394333Y-85443447D01*
X124405202Y-85430202D01*
X124418445Y-85419334D01*
X124433557Y-85411257D01*
X124449949Y-85406284D01*
X124473141Y-85404000D01*
X124886859Y-85404000D01*
X124910051Y-85406284D01*
X124926443Y-85411257D01*
X124941555Y-85419334D01*
X124954798Y-85430202D01*
X124965667Y-85443447D01*
X124969761Y-85451106D01*
X124983374Y-85471480D01*
X125000701Y-85488807D01*
X125021076Y-85502421D01*
X125043714Y-85511798D01*
X125067748Y-85516579D01*
X125092252Y-85516579D01*
X125116285Y-85511799D01*
X125138924Y-85502421D01*
X125159298Y-85488808D01*
X125176625Y-85471481D01*
X125190239Y-85451106D01*
X125194333Y-85443447D01*
X125205202Y-85430202D01*
X125218445Y-85419334D01*
X125233557Y-85411257D01*
X125249949Y-85406284D01*
X125273141Y-85404000D01*
X125686859Y-85404000D01*
X125710051Y-85406284D01*
X125726443Y-85411257D01*
X125741555Y-85419334D01*
X125754798Y-85430202D01*
X125765667Y-85443447D01*
X125769761Y-85451106D01*
X125783374Y-85471480D01*
X125800701Y-85488807D01*
X125821076Y-85502421D01*
X125843714Y-85511798D01*
X125867748Y-85516579D01*
X125892252Y-85516579D01*
X125916285Y-85511799D01*
X125938924Y-85502421D01*
X125959298Y-85488808D01*
X125976625Y-85471481D01*
X125990239Y-85451106D01*
X125994333Y-85443447D01*
X126005202Y-85430202D01*
X126018445Y-85419334D01*
X126033557Y-85411257D01*
X126049949Y-85406284D01*
X126073141Y-85404000D01*
X126486859Y-85404000D01*
X126510051Y-85406284D01*
X126526443Y-85411257D01*
X126541555Y-85419334D01*
X126554798Y-85430202D01*
X126565667Y-85443447D01*
X126569761Y-85451106D01*
X126583374Y-85471480D01*
X126600701Y-85488807D01*
X126621076Y-85502421D01*
X126643714Y-85511798D01*
X126667748Y-85516579D01*
X126692252Y-85516579D01*
X126716285Y-85511799D01*
X126738924Y-85502421D01*
X126759298Y-85488808D01*
X126776625Y-85471481D01*
X126790239Y-85451106D01*
X126794333Y-85443447D01*
X126805202Y-85430202D01*
X126818445Y-85419334D01*
X126833557Y-85411257D01*
X126849949Y-85406284D01*
X126873141Y-85404000D01*
X127286859Y-85404000D01*
X127310051Y-85406284D01*
X127326443Y-85411257D01*
X127341555Y-85419334D01*
X127354798Y-85430202D01*
X127365667Y-85443447D01*
X127369761Y-85451106D01*
X127383374Y-85471480D01*
X127400701Y-85488807D01*
X127421076Y-85502421D01*
X127443714Y-85511798D01*
X127467748Y-85516579D01*
X127492252Y-85516579D01*
X127516285Y-85511799D01*
X127538924Y-85502421D01*
X127559298Y-85488808D01*
X127576625Y-85471481D01*
X127590239Y-85451106D01*
X127594333Y-85443447D01*
X127605202Y-85430202D01*
X127618445Y-85419334D01*
X127633557Y-85411257D01*
X127649949Y-85406284D01*
X127673141Y-85404000D01*
X128086859Y-85404000D01*
X128110051Y-85406284D01*
X128126443Y-85411257D01*
X128141555Y-85419334D01*
X128154798Y-85430202D01*
X128165667Y-85443447D01*
X128169761Y-85451106D01*
X128183374Y-85471480D01*
X128200701Y-85488807D01*
X128221076Y-85502421D01*
X128243714Y-85511798D01*
X128267748Y-85516579D01*
X128292252Y-85516579D01*
X128316285Y-85511799D01*
X128338924Y-85502421D01*
X128359298Y-85488808D01*
X128376625Y-85471481D01*
X128390239Y-85451106D01*
X128394333Y-85443447D01*
X128405202Y-85430202D01*
X128418445Y-85419334D01*
X128433557Y-85411257D01*
X128449949Y-85406284D01*
X128473141Y-85404000D01*
X128886859Y-85404000D01*
X128910051Y-85406284D01*
X128926443Y-85411257D01*
X128941555Y-85419334D01*
X128954798Y-85430202D01*
X128965667Y-85443447D01*
X128969761Y-85451106D01*
X128983374Y-85471480D01*
X129000701Y-85488807D01*
X129021076Y-85502421D01*
X129043714Y-85511798D01*
X129067748Y-85516579D01*
X129092252Y-85516579D01*
X129116285Y-85511799D01*
X129138924Y-85502421D01*
X129159298Y-85488808D01*
X129176625Y-85471481D01*
X129190239Y-85451106D01*
X129194333Y-85443447D01*
X129205202Y-85430202D01*
X129218445Y-85419334D01*
X129233557Y-85411257D01*
X129249949Y-85406284D01*
X129273141Y-85404000D01*
X129686859Y-85404000D01*
X129710051Y-85406284D01*
X129726443Y-85411257D01*
X129741555Y-85419334D01*
X129754798Y-85430202D01*
X129765666Y-85443445D01*
X129773743Y-85458557D01*
X129778716Y-85474949D01*
X129781000Y-85498141D01*
X129781000Y-86911859D01*
X129778716Y-86935051D01*
X129773743Y-86951443D01*
X129765666Y-86966555D01*
X129754798Y-86979798D01*
X129741555Y-86990666D01*
X129726443Y-86998743D01*
X129710051Y-87003716D01*
X129686859Y-87006000D01*
X129273141Y-87006000D01*
X129249949Y-87003716D01*
X129233557Y-86998743D01*
X129218445Y-86990666D01*
X129205202Y-86979798D01*
X129194333Y-86966553D01*
X129190239Y-86958894D01*
X129176626Y-86938520D01*
X129159299Y-86921193D01*
X129138924Y-86907579D01*
X129116286Y-86898202D01*
X129092252Y-86893421D01*
X129067748Y-86893421D01*
X129043715Y-86898201D01*
X129021076Y-86907579D01*
X129000702Y-86921192D01*
X128983375Y-86938519D01*
X128969761Y-86958894D01*
X128965667Y-86966553D01*
X128954798Y-86979798D01*
X128941555Y-86990666D01*
X128926443Y-86998743D01*
X128910051Y-87003716D01*
X128886859Y-87006000D01*
X128473141Y-87006000D01*
X128449949Y-87003716D01*
X128433557Y-86998743D01*
X128418445Y-86990666D01*
X128405202Y-86979798D01*
X128394333Y-86966553D01*
X128390239Y-86958894D01*
X128376626Y-86938520D01*
X128359299Y-86921193D01*
X128338924Y-86907579D01*
X128316286Y-86898202D01*
X128292252Y-86893421D01*
X128267748Y-86893421D01*
X128243715Y-86898201D01*
X128221076Y-86907579D01*
X128200702Y-86921192D01*
X128183375Y-86938519D01*
X128169761Y-86958894D01*
X128165667Y-86966553D01*
X128154798Y-86979798D01*
X128141555Y-86990666D01*
X128126443Y-86998743D01*
X128110051Y-87003716D01*
X128086859Y-87006000D01*
X127673141Y-87006000D01*
X127649949Y-87003716D01*
X127633557Y-86998743D01*
X127618445Y-86990666D01*
X127605202Y-86979798D01*
X127594333Y-86966553D01*
X127590239Y-86958894D01*
X127576626Y-86938520D01*
X127559299Y-86921193D01*
X127538924Y-86907579D01*
X127516286Y-86898202D01*
X127492252Y-86893421D01*
X127467748Y-86893421D01*
X127443715Y-86898201D01*
X127421076Y-86907579D01*
X127400702Y-86921192D01*
X127383375Y-86938519D01*
X127369761Y-86958894D01*
X127365667Y-86966553D01*
X127354798Y-86979798D01*
X127341555Y-86990666D01*
X127326443Y-86998743D01*
X127310051Y-87003716D01*
X127286859Y-87006000D01*
X126873141Y-87006000D01*
X126849949Y-87003716D01*
X126833557Y-86998743D01*
X126818445Y-86990666D01*
X126805202Y-86979798D01*
X126794333Y-86966553D01*
X126790239Y-86958894D01*
X126776626Y-86938520D01*
X126759299Y-86921193D01*
X126738924Y-86907579D01*
X126716286Y-86898202D01*
X126692252Y-86893421D01*
X126667748Y-86893421D01*
X126643715Y-86898201D01*
X126621076Y-86907579D01*
X126600702Y-86921192D01*
X126583375Y-86938519D01*
X126569761Y-86958894D01*
X126565667Y-86966553D01*
X126554798Y-86979798D01*
X126541555Y-86990666D01*
X126526443Y-86998743D01*
X126510051Y-87003716D01*
X126486859Y-87006000D01*
X126073141Y-87006000D01*
X126049949Y-87003716D01*
X126033557Y-86998743D01*
X126018445Y-86990666D01*
X126005202Y-86979798D01*
X125994333Y-86966553D01*
X125990239Y-86958894D01*
X125976626Y-86938520D01*
X125959299Y-86921193D01*
X125938924Y-86907579D01*
X125916286Y-86898202D01*
X125892252Y-86893421D01*
X125867748Y-86893421D01*
X125843715Y-86898201D01*
X125821076Y-86907579D01*
X125800702Y-86921192D01*
X125783375Y-86938519D01*
X125769761Y-86958894D01*
X125765667Y-86966553D01*
X125754798Y-86979798D01*
X125741555Y-86990666D01*
X125726443Y-86998743D01*
X125710051Y-87003716D01*
X125686859Y-87006000D01*
X125273141Y-87006000D01*
X125249949Y-87003716D01*
X125233557Y-86998743D01*
X125218445Y-86990666D01*
X125205202Y-86979798D01*
X125194333Y-86966553D01*
X125190239Y-86958894D01*
X125176626Y-86938520D01*
X125159299Y-86921193D01*
X125138924Y-86907579D01*
X125116286Y-86898202D01*
X125092252Y-86893421D01*
X125067748Y-86893421D01*
X125043715Y-86898201D01*
X125021076Y-86907579D01*
X125000702Y-86921192D01*
X124983375Y-86938519D01*
X124969761Y-86958894D01*
X124965667Y-86966553D01*
X124954798Y-86979798D01*
X124941555Y-86990666D01*
X124926443Y-86998743D01*
X124910051Y-87003716D01*
X124886859Y-87006000D01*
X124473141Y-87006000D01*
X124449949Y-87003716D01*
X124433557Y-86998743D01*
X124418445Y-86990666D01*
X124405202Y-86979798D01*
X124394333Y-86966553D01*
X124390239Y-86958894D01*
X124376626Y-86938520D01*
X124359299Y-86921193D01*
X124338924Y-86907579D01*
X124316286Y-86898202D01*
X124292252Y-86893421D01*
X124267748Y-86893421D01*
X124243715Y-86898201D01*
X124221076Y-86907579D01*
X124200702Y-86921192D01*
X124183375Y-86938519D01*
X124169761Y-86958894D01*
X124165667Y-86966553D01*
X124154798Y-86979798D01*
X124141555Y-86990666D01*
X124126443Y-86998743D01*
X124110051Y-87003716D01*
X124086859Y-87006000D01*
X123673141Y-87006000D01*
X123649949Y-87003716D01*
X123633557Y-86998743D01*
X123618445Y-86990666D01*
X123605202Y-86979798D01*
X123594334Y-86966555D01*
X123586257Y-86951443D01*
X123581284Y-86935051D01*
X123579000Y-86911859D01*
X123579000Y-85498141D01*
X123581284Y-85474949D01*
X123586257Y-85458557D01*
X123594334Y-85443445D01*
X123605202Y-85430202D01*
X123618445Y-85419334D01*
X123633557Y-85411257D01*
X123649949Y-85406284D01*
X123673141Y-85404000D01*
X124086859Y-85404000D01*
X124110051Y-85406284D01*
X124110051Y-85406284D01*
G37*
G36*
X131539591Y-85545585D02*
G01*
X131573569Y-85555893D01*
X131604890Y-85572634D01*
X131632339Y-85595161D01*
X131654866Y-85622610D01*
X131671607Y-85653931D01*
X131681915Y-85687909D01*
X131686000Y-85729390D01*
X131686000Y-86330610D01*
X131681915Y-86372091D01*
X131671607Y-86406069D01*
X131654866Y-86437390D01*
X131632339Y-86464839D01*
X131604890Y-86487366D01*
X131573569Y-86504107D01*
X131539591Y-86514415D01*
X131498110Y-86518500D01*
X130821890Y-86518500D01*
X130780409Y-86514415D01*
X130746431Y-86504107D01*
X130715110Y-86487366D01*
X130687661Y-86464839D01*
X130665134Y-86437390D01*
X130648393Y-86406069D01*
X130638085Y-86372091D01*
X130634000Y-86330610D01*
X130634000Y-85729390D01*
X130638085Y-85687909D01*
X130648393Y-85653931D01*
X130665134Y-85622610D01*
X130687661Y-85595161D01*
X130715110Y-85572634D01*
X130746431Y-85555893D01*
X130780409Y-85545585D01*
X130821890Y-85541500D01*
X131498110Y-85541500D01*
X131539591Y-85545585D01*
X131539591Y-85545585D01*
G37*
G36*
X138981000Y-86391000D02*
G01*
X137979000Y-86391000D01*
X137979000Y-85489000D01*
X138981000Y-85489000D01*
X138981000Y-86391000D01*
X138981000Y-86391000D01*
G37*
G36*
X143502307Y-84068498D02*
G01*
X143540318Y-84080029D01*
X143575342Y-84098749D01*
X143606049Y-84123951D01*
X143631251Y-84154658D01*
X143649971Y-84189682D01*
X143661502Y-84227693D01*
X143666000Y-84273363D01*
X143666000Y-85706637D01*
X143661502Y-85752307D01*
X143649971Y-85790318D01*
X143631251Y-85825342D01*
X143606049Y-85856049D01*
X143575342Y-85881251D01*
X143540318Y-85899971D01*
X143502307Y-85911502D01*
X143456637Y-85916000D01*
X142648363Y-85916000D01*
X142602693Y-85911502D01*
X142564682Y-85899971D01*
X142529658Y-85881251D01*
X142498951Y-85856049D01*
X142473749Y-85825342D01*
X142455029Y-85790318D01*
X142443498Y-85752307D01*
X142439000Y-85706637D01*
X142439000Y-84273363D01*
X142443498Y-84227693D01*
X142455029Y-84189682D01*
X142473749Y-84154658D01*
X142498951Y-84123951D01*
X142529658Y-84098749D01*
X142564682Y-84080029D01*
X142602693Y-84068498D01*
X142648363Y-84064000D01*
X143456637Y-84064000D01*
X143502307Y-84068498D01*
X143502307Y-84068498D01*
G37*
G36*
X140577307Y-84068498D02*
G01*
X140615318Y-84080029D01*
X140650342Y-84098749D01*
X140681049Y-84123951D01*
X140706251Y-84154658D01*
X140724971Y-84189682D01*
X140736502Y-84227693D01*
X140741000Y-84273363D01*
X140741000Y-85706637D01*
X140736502Y-85752307D01*
X140724971Y-85790318D01*
X140706251Y-85825342D01*
X140681049Y-85856049D01*
X140650342Y-85881251D01*
X140615318Y-85899971D01*
X140577307Y-85911502D01*
X140531637Y-85916000D01*
X139723363Y-85916000D01*
X139677693Y-85911502D01*
X139639682Y-85899971D01*
X139604658Y-85881251D01*
X139573951Y-85856049D01*
X139548749Y-85825342D01*
X139530029Y-85790318D01*
X139518498Y-85752307D01*
X139514000Y-85706637D01*
X139514000Y-84273363D01*
X139518498Y-84227693D01*
X139530029Y-84189682D01*
X139548749Y-84154658D01*
X139573951Y-84123951D01*
X139604658Y-84098749D01*
X139639682Y-84080029D01*
X139677693Y-84068498D01*
X139723363Y-84064000D01*
X140531637Y-84064000D01*
X140577307Y-84068498D01*
X140577307Y-84068498D01*
G37*
G36*
X136981000Y-85441000D02*
G01*
X135979000Y-85441000D01*
X135979000Y-84539000D01*
X136981000Y-84539000D01*
X136981000Y-85441000D01*
X136981000Y-85441000D01*
G37*
G36*
X123235051Y-78931284D02*
G01*
X123251443Y-78936257D01*
X123266555Y-78944334D01*
X123279798Y-78955202D01*
X123290666Y-78968445D01*
X123298743Y-78983557D01*
X123303716Y-78999949D01*
X123306000Y-79023141D01*
X123306000Y-79436859D01*
X123303716Y-79460051D01*
X123298743Y-79476443D01*
X123290666Y-79491555D01*
X123279798Y-79504798D01*
X123266553Y-79515667D01*
X123258894Y-79519761D01*
X123238520Y-79533374D01*
X123221193Y-79550701D01*
X123207579Y-79571076D01*
X123198202Y-79593714D01*
X123193421Y-79617748D01*
X123193421Y-79642252D01*
X123198201Y-79666285D01*
X123207579Y-79688924D01*
X123221192Y-79709298D01*
X123238519Y-79726625D01*
X123258894Y-79740239D01*
X123266553Y-79744333D01*
X123279798Y-79755202D01*
X123290666Y-79768445D01*
X123298743Y-79783557D01*
X123303716Y-79799949D01*
X123306000Y-79823141D01*
X123306000Y-80236859D01*
X123303716Y-80260051D01*
X123298743Y-80276443D01*
X123290666Y-80291555D01*
X123279798Y-80304798D01*
X123266553Y-80315667D01*
X123258894Y-80319761D01*
X123238520Y-80333374D01*
X123221193Y-80350701D01*
X123207579Y-80371076D01*
X123198202Y-80393714D01*
X123193421Y-80417748D01*
X123193421Y-80442252D01*
X123198201Y-80466285D01*
X123207579Y-80488924D01*
X123221192Y-80509298D01*
X123238519Y-80526625D01*
X123258894Y-80540239D01*
X123266553Y-80544333D01*
X123279798Y-80555202D01*
X123290666Y-80568445D01*
X123298743Y-80583557D01*
X123303716Y-80599949D01*
X123306000Y-80623141D01*
X123306000Y-81036859D01*
X123303716Y-81060051D01*
X123298743Y-81076443D01*
X123290666Y-81091555D01*
X123279798Y-81104798D01*
X123266553Y-81115667D01*
X123258894Y-81119761D01*
X123238520Y-81133374D01*
X123221193Y-81150701D01*
X123207579Y-81171076D01*
X123198202Y-81193714D01*
X123193421Y-81217748D01*
X123193421Y-81242252D01*
X123198201Y-81266285D01*
X123207579Y-81288924D01*
X123221192Y-81309298D01*
X123238519Y-81326625D01*
X123258894Y-81340239D01*
X123266553Y-81344333D01*
X123279798Y-81355202D01*
X123290666Y-81368445D01*
X123298743Y-81383557D01*
X123303716Y-81399949D01*
X123306000Y-81423141D01*
X123306000Y-81836859D01*
X123303716Y-81860051D01*
X123298743Y-81876443D01*
X123290666Y-81891555D01*
X123279798Y-81904798D01*
X123266553Y-81915667D01*
X123258894Y-81919761D01*
X123238520Y-81933374D01*
X123221193Y-81950701D01*
X123207579Y-81971076D01*
X123198202Y-81993714D01*
X123193421Y-82017748D01*
X123193421Y-82042252D01*
X123198201Y-82066285D01*
X123207579Y-82088924D01*
X123221192Y-82109298D01*
X123238519Y-82126625D01*
X123258894Y-82140239D01*
X123266553Y-82144333D01*
X123279798Y-82155202D01*
X123290666Y-82168445D01*
X123298743Y-82183557D01*
X123303716Y-82199949D01*
X123306000Y-82223141D01*
X123306000Y-82636859D01*
X123303716Y-82660051D01*
X123298743Y-82676443D01*
X123290666Y-82691555D01*
X123279798Y-82704798D01*
X123266553Y-82715667D01*
X123258894Y-82719761D01*
X123238520Y-82733374D01*
X123221193Y-82750701D01*
X123207579Y-82771076D01*
X123198202Y-82793714D01*
X123193421Y-82817748D01*
X123193421Y-82842252D01*
X123198201Y-82866285D01*
X123207579Y-82888924D01*
X123221192Y-82909298D01*
X123238519Y-82926625D01*
X123258894Y-82940239D01*
X123266553Y-82944333D01*
X123279798Y-82955202D01*
X123290666Y-82968445D01*
X123298743Y-82983557D01*
X123303716Y-82999949D01*
X123306000Y-83023141D01*
X123306000Y-83436859D01*
X123303716Y-83460051D01*
X123298743Y-83476443D01*
X123290666Y-83491555D01*
X123279798Y-83504798D01*
X123266553Y-83515667D01*
X123258894Y-83519761D01*
X123238520Y-83533374D01*
X123221193Y-83550701D01*
X123207579Y-83571076D01*
X123198202Y-83593714D01*
X123193421Y-83617748D01*
X123193421Y-83642252D01*
X123198201Y-83666285D01*
X123207579Y-83688924D01*
X123221192Y-83709298D01*
X123238519Y-83726625D01*
X123258894Y-83740239D01*
X123266553Y-83744333D01*
X123279798Y-83755202D01*
X123290666Y-83768445D01*
X123298743Y-83783557D01*
X123303716Y-83799949D01*
X123306000Y-83823141D01*
X123306000Y-84236859D01*
X123303716Y-84260051D01*
X123298743Y-84276443D01*
X123290666Y-84291555D01*
X123279798Y-84304798D01*
X123266553Y-84315667D01*
X123258894Y-84319761D01*
X123238520Y-84333374D01*
X123221193Y-84350701D01*
X123207579Y-84371076D01*
X123198202Y-84393714D01*
X123193421Y-84417748D01*
X123193421Y-84442252D01*
X123198201Y-84466285D01*
X123207579Y-84488924D01*
X123221192Y-84509298D01*
X123238519Y-84526625D01*
X123258894Y-84540239D01*
X123266553Y-84544333D01*
X123279798Y-84555202D01*
X123290666Y-84568445D01*
X123298743Y-84583557D01*
X123303716Y-84599949D01*
X123306000Y-84623141D01*
X123306000Y-85036859D01*
X123303716Y-85060051D01*
X123298743Y-85076443D01*
X123290666Y-85091555D01*
X123279798Y-85104798D01*
X123266555Y-85115666D01*
X123251443Y-85123743D01*
X123235051Y-85128716D01*
X123211859Y-85131000D01*
X121798141Y-85131000D01*
X121774949Y-85128716D01*
X121758557Y-85123743D01*
X121743445Y-85115666D01*
X121730202Y-85104798D01*
X121719334Y-85091555D01*
X121711257Y-85076443D01*
X121706284Y-85060051D01*
X121704000Y-85036859D01*
X121704000Y-84623141D01*
X121706284Y-84599949D01*
X121711257Y-84583557D01*
X121719334Y-84568445D01*
X121730202Y-84555202D01*
X121743447Y-84544333D01*
X121751106Y-84540239D01*
X121771480Y-84526626D01*
X121788807Y-84509299D01*
X121802421Y-84488924D01*
X121811798Y-84466286D01*
X121816579Y-84442252D01*
X121816579Y-84417748D01*
X121811799Y-84393715D01*
X121802421Y-84371076D01*
X121788808Y-84350702D01*
X121771481Y-84333375D01*
X121751106Y-84319761D01*
X121743447Y-84315667D01*
X121730202Y-84304798D01*
X121719334Y-84291555D01*
X121711257Y-84276443D01*
X121706284Y-84260051D01*
X121704000Y-84236859D01*
X121704000Y-83823141D01*
X121706284Y-83799949D01*
X121711257Y-83783557D01*
X121719334Y-83768445D01*
X121730202Y-83755202D01*
X121743447Y-83744333D01*
X121751106Y-83740239D01*
X121771480Y-83726626D01*
X121788807Y-83709299D01*
X121802421Y-83688924D01*
X121811798Y-83666286D01*
X121816579Y-83642252D01*
X121816579Y-83617748D01*
X121811799Y-83593715D01*
X121802421Y-83571076D01*
X121788808Y-83550702D01*
X121771481Y-83533375D01*
X121751106Y-83519761D01*
X121743447Y-83515667D01*
X121730202Y-83504798D01*
X121719334Y-83491555D01*
X121711257Y-83476443D01*
X121706284Y-83460051D01*
X121704000Y-83436859D01*
X121704000Y-83023141D01*
X121706284Y-82999949D01*
X121711257Y-82983557D01*
X121719334Y-82968445D01*
X121730202Y-82955202D01*
X121743447Y-82944333D01*
X121751106Y-82940239D01*
X121771480Y-82926626D01*
X121788807Y-82909299D01*
X121802421Y-82888924D01*
X121811798Y-82866286D01*
X121816579Y-82842252D01*
X121816579Y-82817748D01*
X121811799Y-82793715D01*
X121802421Y-82771076D01*
X121788808Y-82750702D01*
X121771481Y-82733375D01*
X121751106Y-82719761D01*
X121743447Y-82715667D01*
X121730202Y-82704798D01*
X121719334Y-82691555D01*
X121711257Y-82676443D01*
X121706284Y-82660051D01*
X121704000Y-82636859D01*
X121704000Y-82223141D01*
X121706284Y-82199949D01*
X121711257Y-82183557D01*
X121719334Y-82168445D01*
X121730202Y-82155202D01*
X121743447Y-82144333D01*
X121751106Y-82140239D01*
X121771480Y-82126626D01*
X121788807Y-82109299D01*
X121802421Y-82088924D01*
X121811798Y-82066286D01*
X121816579Y-82042252D01*
X121816579Y-82017748D01*
X121811799Y-81993715D01*
X121802421Y-81971076D01*
X121788808Y-81950702D01*
X121771481Y-81933375D01*
X121751106Y-81919761D01*
X121743447Y-81915667D01*
X121730202Y-81904798D01*
X121719334Y-81891555D01*
X121711257Y-81876443D01*
X121706284Y-81860051D01*
X121704000Y-81836859D01*
X121704000Y-81423141D01*
X121706284Y-81399949D01*
X121711257Y-81383557D01*
X121719334Y-81368445D01*
X121730202Y-81355202D01*
X121743447Y-81344333D01*
X121751106Y-81340239D01*
X121771480Y-81326626D01*
X121788807Y-81309299D01*
X121802421Y-81288924D01*
X121811798Y-81266286D01*
X121816579Y-81242252D01*
X121816579Y-81217748D01*
X121811799Y-81193715D01*
X121802421Y-81171076D01*
X121788808Y-81150702D01*
X121771481Y-81133375D01*
X121751106Y-81119761D01*
X121743447Y-81115667D01*
X121730202Y-81104798D01*
X121719334Y-81091555D01*
X121711257Y-81076443D01*
X121706284Y-81060051D01*
X121704000Y-81036859D01*
X121704000Y-80623141D01*
X121706284Y-80599949D01*
X121711257Y-80583557D01*
X121719334Y-80568445D01*
X121730202Y-80555202D01*
X121743447Y-80544333D01*
X121751106Y-80540239D01*
X121771480Y-80526626D01*
X121788807Y-80509299D01*
X121802421Y-80488924D01*
X121811798Y-80466286D01*
X121816579Y-80442252D01*
X121816579Y-80417748D01*
X121811799Y-80393715D01*
X121802421Y-80371076D01*
X121788808Y-80350702D01*
X121771481Y-80333375D01*
X121751106Y-80319761D01*
X121743447Y-80315667D01*
X121730202Y-80304798D01*
X121719334Y-80291555D01*
X121711257Y-80276443D01*
X121706284Y-80260051D01*
X121704000Y-80236859D01*
X121704000Y-79823141D01*
X121706284Y-79799949D01*
X121711257Y-79783557D01*
X121719334Y-79768445D01*
X121730202Y-79755202D01*
X121743447Y-79744333D01*
X121751106Y-79740239D01*
X121771480Y-79726626D01*
X121788807Y-79709299D01*
X121802421Y-79688924D01*
X121811798Y-79666286D01*
X121816579Y-79642252D01*
X121816579Y-79617748D01*
X121811799Y-79593715D01*
X121802421Y-79571076D01*
X121788808Y-79550702D01*
X121771481Y-79533375D01*
X121751106Y-79519761D01*
X121743447Y-79515667D01*
X121730202Y-79504798D01*
X121719334Y-79491555D01*
X121711257Y-79476443D01*
X121706284Y-79460051D01*
X121704000Y-79436859D01*
X121704000Y-79023141D01*
X121706284Y-78999949D01*
X121711257Y-78983557D01*
X121719334Y-78968445D01*
X121730202Y-78955202D01*
X121743445Y-78944334D01*
X121758557Y-78936257D01*
X121774949Y-78931284D01*
X121798141Y-78929000D01*
X123211859Y-78929000D01*
X123235051Y-78931284D01*
X123235051Y-78931284D01*
G37*
G36*
X131585051Y-78931284D02*
G01*
X131601443Y-78936257D01*
X131616555Y-78944334D01*
X131629798Y-78955202D01*
X131640666Y-78968445D01*
X131648743Y-78983557D01*
X131653716Y-78999949D01*
X131656000Y-79023141D01*
X131656000Y-79436859D01*
X131653716Y-79460051D01*
X131648743Y-79476443D01*
X131640666Y-79491555D01*
X131629798Y-79504798D01*
X131616553Y-79515667D01*
X131608894Y-79519761D01*
X131588520Y-79533374D01*
X131571193Y-79550701D01*
X131557579Y-79571076D01*
X131548202Y-79593714D01*
X131543421Y-79617748D01*
X131543421Y-79642252D01*
X131548201Y-79666285D01*
X131557579Y-79688924D01*
X131571192Y-79709298D01*
X131588519Y-79726625D01*
X131608894Y-79740239D01*
X131616553Y-79744333D01*
X131629798Y-79755202D01*
X131640666Y-79768445D01*
X131648743Y-79783557D01*
X131653716Y-79799949D01*
X131656000Y-79823141D01*
X131656000Y-80236859D01*
X131653716Y-80260051D01*
X131648743Y-80276443D01*
X131640666Y-80291555D01*
X131629798Y-80304798D01*
X131616553Y-80315667D01*
X131608894Y-80319761D01*
X131588520Y-80333374D01*
X131571193Y-80350701D01*
X131557579Y-80371076D01*
X131548202Y-80393714D01*
X131543421Y-80417748D01*
X131543421Y-80442252D01*
X131548201Y-80466285D01*
X131557579Y-80488924D01*
X131571192Y-80509298D01*
X131588519Y-80526625D01*
X131608894Y-80540239D01*
X131616553Y-80544333D01*
X131629798Y-80555202D01*
X131640666Y-80568445D01*
X131648743Y-80583557D01*
X131653716Y-80599949D01*
X131656000Y-80623141D01*
X131656000Y-81036859D01*
X131653716Y-81060051D01*
X131648743Y-81076443D01*
X131640666Y-81091555D01*
X131629798Y-81104798D01*
X131616553Y-81115667D01*
X131608894Y-81119761D01*
X131588520Y-81133374D01*
X131571193Y-81150701D01*
X131557579Y-81171076D01*
X131548202Y-81193714D01*
X131543421Y-81217748D01*
X131543421Y-81242252D01*
X131548201Y-81266285D01*
X131557579Y-81288924D01*
X131571192Y-81309298D01*
X131588519Y-81326625D01*
X131608894Y-81340239D01*
X131616553Y-81344333D01*
X131629798Y-81355202D01*
X131640666Y-81368445D01*
X131648743Y-81383557D01*
X131653716Y-81399949D01*
X131656000Y-81423141D01*
X131656000Y-81836859D01*
X131653716Y-81860051D01*
X131648743Y-81876443D01*
X131640666Y-81891555D01*
X131629798Y-81904798D01*
X131616553Y-81915667D01*
X131608894Y-81919761D01*
X131588520Y-81933374D01*
X131571193Y-81950701D01*
X131557579Y-81971076D01*
X131548202Y-81993714D01*
X131543421Y-82017748D01*
X131543421Y-82042252D01*
X131548201Y-82066285D01*
X131557579Y-82088924D01*
X131571192Y-82109298D01*
X131588519Y-82126625D01*
X131608894Y-82140239D01*
X131616553Y-82144333D01*
X131629798Y-82155202D01*
X131640666Y-82168445D01*
X131648743Y-82183557D01*
X131653716Y-82199949D01*
X131656000Y-82223141D01*
X131656000Y-82636859D01*
X131653716Y-82660051D01*
X131648743Y-82676443D01*
X131640666Y-82691555D01*
X131629798Y-82704798D01*
X131616553Y-82715667D01*
X131608894Y-82719761D01*
X131588520Y-82733374D01*
X131571193Y-82750701D01*
X131557579Y-82771076D01*
X131548202Y-82793714D01*
X131543421Y-82817748D01*
X131543421Y-82842252D01*
X131548201Y-82866285D01*
X131557579Y-82888924D01*
X131571192Y-82909298D01*
X131588519Y-82926625D01*
X131608894Y-82940239D01*
X131616553Y-82944333D01*
X131629798Y-82955202D01*
X131640666Y-82968445D01*
X131648743Y-82983557D01*
X131653716Y-82999949D01*
X131656000Y-83023141D01*
X131656000Y-83436859D01*
X131653716Y-83460051D01*
X131648743Y-83476443D01*
X131640666Y-83491555D01*
X131629798Y-83504798D01*
X131616553Y-83515667D01*
X131608894Y-83519761D01*
X131588520Y-83533374D01*
X131571193Y-83550701D01*
X131557579Y-83571076D01*
X131548202Y-83593714D01*
X131543421Y-83617748D01*
X131543421Y-83642252D01*
X131548201Y-83666285D01*
X131557579Y-83688924D01*
X131571192Y-83709298D01*
X131588519Y-83726625D01*
X131608894Y-83740239D01*
X131616553Y-83744333D01*
X131629798Y-83755202D01*
X131640666Y-83768445D01*
X131648743Y-83783557D01*
X131653716Y-83799949D01*
X131656000Y-83823141D01*
X131656000Y-84236859D01*
X131653716Y-84260051D01*
X131648743Y-84276443D01*
X131640666Y-84291555D01*
X131629798Y-84304798D01*
X131616553Y-84315667D01*
X131608894Y-84319761D01*
X131588520Y-84333374D01*
X131571193Y-84350701D01*
X131557579Y-84371076D01*
X131548202Y-84393714D01*
X131543421Y-84417748D01*
X131543421Y-84442252D01*
X131548201Y-84466285D01*
X131557579Y-84488924D01*
X131571192Y-84509298D01*
X131588519Y-84526625D01*
X131608894Y-84540239D01*
X131616553Y-84544333D01*
X131629798Y-84555202D01*
X131640666Y-84568445D01*
X131648743Y-84583557D01*
X131653716Y-84599949D01*
X131656000Y-84623141D01*
X131656000Y-85036859D01*
X131653716Y-85060051D01*
X131648743Y-85076443D01*
X131640666Y-85091555D01*
X131629798Y-85104798D01*
X131616555Y-85115666D01*
X131601443Y-85123743D01*
X131585051Y-85128716D01*
X131561859Y-85131000D01*
X130148141Y-85131000D01*
X130124949Y-85128716D01*
X130108557Y-85123743D01*
X130093445Y-85115666D01*
X130080202Y-85104798D01*
X130069334Y-85091555D01*
X130061257Y-85076443D01*
X130056284Y-85060051D01*
X130054000Y-85036859D01*
X130054000Y-84623141D01*
X130056284Y-84599949D01*
X130061257Y-84583557D01*
X130069334Y-84568445D01*
X130080202Y-84555202D01*
X130093447Y-84544333D01*
X130101106Y-84540239D01*
X130121480Y-84526626D01*
X130138807Y-84509299D01*
X130152421Y-84488924D01*
X130161798Y-84466286D01*
X130166579Y-84442252D01*
X130166579Y-84417748D01*
X130161799Y-84393715D01*
X130152421Y-84371076D01*
X130138808Y-84350702D01*
X130121481Y-84333375D01*
X130101106Y-84319761D01*
X130093447Y-84315667D01*
X130080202Y-84304798D01*
X130069334Y-84291555D01*
X130061257Y-84276443D01*
X130056284Y-84260051D01*
X130054000Y-84236859D01*
X130054000Y-83823141D01*
X130056284Y-83799949D01*
X130061257Y-83783557D01*
X130069334Y-83768445D01*
X130080202Y-83755202D01*
X130093447Y-83744333D01*
X130101106Y-83740239D01*
X130121480Y-83726626D01*
X130138807Y-83709299D01*
X130152421Y-83688924D01*
X130161798Y-83666286D01*
X130166579Y-83642252D01*
X130166579Y-83617748D01*
X130161799Y-83593715D01*
X130152421Y-83571076D01*
X130138808Y-83550702D01*
X130121481Y-83533375D01*
X130101106Y-83519761D01*
X130093447Y-83515667D01*
X130080202Y-83504798D01*
X130069334Y-83491555D01*
X130061257Y-83476443D01*
X130056284Y-83460051D01*
X130054000Y-83436859D01*
X130054000Y-83023141D01*
X130056284Y-82999949D01*
X130061257Y-82983557D01*
X130069334Y-82968445D01*
X130080202Y-82955202D01*
X130093447Y-82944333D01*
X130101106Y-82940239D01*
X130121480Y-82926626D01*
X130138807Y-82909299D01*
X130152421Y-82888924D01*
X130161798Y-82866286D01*
X130166579Y-82842252D01*
X130166579Y-82817748D01*
X130161799Y-82793715D01*
X130152421Y-82771076D01*
X130138808Y-82750702D01*
X130121481Y-82733375D01*
X130101106Y-82719761D01*
X130093447Y-82715667D01*
X130080202Y-82704798D01*
X130069334Y-82691555D01*
X130061257Y-82676443D01*
X130056284Y-82660051D01*
X130054000Y-82636859D01*
X130054000Y-82223141D01*
X130056284Y-82199949D01*
X130061257Y-82183557D01*
X130069334Y-82168445D01*
X130080202Y-82155202D01*
X130093447Y-82144333D01*
X130101106Y-82140239D01*
X130121480Y-82126626D01*
X130138807Y-82109299D01*
X130152421Y-82088924D01*
X130161798Y-82066286D01*
X130166579Y-82042252D01*
X130166579Y-82017748D01*
X130161799Y-81993715D01*
X130152421Y-81971076D01*
X130138808Y-81950702D01*
X130121481Y-81933375D01*
X130101106Y-81919761D01*
X130093447Y-81915667D01*
X130080202Y-81904798D01*
X130069334Y-81891555D01*
X130061257Y-81876443D01*
X130056284Y-81860051D01*
X130054000Y-81836859D01*
X130054000Y-81423141D01*
X130056284Y-81399949D01*
X130061257Y-81383557D01*
X130069334Y-81368445D01*
X130080202Y-81355202D01*
X130093447Y-81344333D01*
X130101106Y-81340239D01*
X130121480Y-81326626D01*
X130138807Y-81309299D01*
X130152421Y-81288924D01*
X130161798Y-81266286D01*
X130166579Y-81242252D01*
X130166579Y-81217748D01*
X130161799Y-81193715D01*
X130152421Y-81171076D01*
X130138808Y-81150702D01*
X130121481Y-81133375D01*
X130101106Y-81119761D01*
X130093447Y-81115667D01*
X130080202Y-81104798D01*
X130069334Y-81091555D01*
X130061257Y-81076443D01*
X130056284Y-81060051D01*
X130054000Y-81036859D01*
X130054000Y-80623141D01*
X130056284Y-80599949D01*
X130061257Y-80583557D01*
X130069334Y-80568445D01*
X130080202Y-80555202D01*
X130093447Y-80544333D01*
X130101106Y-80540239D01*
X130121480Y-80526626D01*
X130138807Y-80509299D01*
X130152421Y-80488924D01*
X130161798Y-80466286D01*
X130166579Y-80442252D01*
X130166579Y-80417748D01*
X130161799Y-80393715D01*
X130152421Y-80371076D01*
X130138808Y-80350702D01*
X130121481Y-80333375D01*
X130101106Y-80319761D01*
X130093447Y-80315667D01*
X130080202Y-80304798D01*
X130069334Y-80291555D01*
X130061257Y-80276443D01*
X130056284Y-80260051D01*
X130054000Y-80236859D01*
X130054000Y-79823141D01*
X130056284Y-79799949D01*
X130061257Y-79783557D01*
X130069334Y-79768445D01*
X130080202Y-79755202D01*
X130093447Y-79744333D01*
X130101106Y-79740239D01*
X130121480Y-79726626D01*
X130138807Y-79709299D01*
X130152421Y-79688924D01*
X130161798Y-79666286D01*
X130166579Y-79642252D01*
X130166579Y-79617748D01*
X130161799Y-79593715D01*
X130152421Y-79571076D01*
X130138808Y-79550702D01*
X130121481Y-79533375D01*
X130101106Y-79519761D01*
X130093447Y-79515667D01*
X130080202Y-79504798D01*
X130069334Y-79491555D01*
X130061257Y-79476443D01*
X130056284Y-79460051D01*
X130054000Y-79436859D01*
X130054000Y-79023141D01*
X130056284Y-78999949D01*
X130061257Y-78983557D01*
X130069334Y-78968445D01*
X130080202Y-78955202D01*
X130093445Y-78944334D01*
X130108557Y-78936257D01*
X130124949Y-78931284D01*
X130148141Y-78929000D01*
X131561859Y-78929000D01*
X131585051Y-78931284D01*
X131585051Y-78931284D01*
G37*
G36*
X138981000Y-84491000D02*
G01*
X137979000Y-84491000D01*
X137979000Y-83589000D01*
X138981000Y-83589000D01*
X138981000Y-84491000D01*
X138981000Y-84491000D01*
G37*
G36*
X110728604Y-82898347D02*
G01*
X110765144Y-82909432D01*
X110798821Y-82927433D01*
X110828341Y-82951659D01*
X110852567Y-82981179D01*
X110870568Y-83014856D01*
X110881653Y-83051396D01*
X110886000Y-83095538D01*
X110886000Y-84044462D01*
X110881653Y-84088604D01*
X110870568Y-84125144D01*
X110852567Y-84158821D01*
X110828341Y-84188341D01*
X110798821Y-84212567D01*
X110765144Y-84230568D01*
X110728604Y-84241653D01*
X110684462Y-84246000D01*
X109235538Y-84246000D01*
X109191396Y-84241653D01*
X109154856Y-84230568D01*
X109121179Y-84212567D01*
X109091659Y-84188341D01*
X109067433Y-84158821D01*
X109049432Y-84125144D01*
X109038347Y-84088604D01*
X109034000Y-84044462D01*
X109034000Y-83095538D01*
X109038347Y-83051396D01*
X109049432Y-83014856D01*
X109067433Y-82981179D01*
X109091659Y-82951659D01*
X109121179Y-82927433D01*
X109154856Y-82909432D01*
X109191396Y-82898347D01*
X109235538Y-82894000D01*
X110684462Y-82894000D01*
X110728604Y-82898347D01*
X110728604Y-82898347D01*
G37*
G36*
X113078604Y-82898347D02*
G01*
X113115144Y-82909432D01*
X113148821Y-82927433D01*
X113178341Y-82951659D01*
X113202567Y-82981179D01*
X113220568Y-83014856D01*
X113231653Y-83051396D01*
X113236000Y-83095538D01*
X113236000Y-84044462D01*
X113231653Y-84088604D01*
X113220568Y-84125144D01*
X113202567Y-84158821D01*
X113178341Y-84188341D01*
X113148821Y-84212567D01*
X113115144Y-84230568D01*
X113078604Y-84241653D01*
X113034462Y-84246000D01*
X111585538Y-84246000D01*
X111541396Y-84241653D01*
X111504856Y-84230568D01*
X111471179Y-84212567D01*
X111441659Y-84188341D01*
X111417433Y-84158821D01*
X111399432Y-84125144D01*
X111388347Y-84088604D01*
X111384000Y-84044462D01*
X111384000Y-83095538D01*
X111388347Y-83051396D01*
X111399432Y-83014856D01*
X111417433Y-82981179D01*
X111441659Y-82951659D01*
X111471179Y-82927433D01*
X111504856Y-82909432D01*
X111541396Y-82898347D01*
X111585538Y-82894000D01*
X113034462Y-82894000D01*
X113078604Y-82898347D01*
X113078604Y-82898347D01*
G37*
G36*
X140577307Y-81068498D02*
G01*
X140615318Y-81080029D01*
X140650342Y-81098749D01*
X140681049Y-81123951D01*
X140706251Y-81154658D01*
X140724971Y-81189682D01*
X140736502Y-81227693D01*
X140741000Y-81273363D01*
X140741000Y-82706637D01*
X140736502Y-82752307D01*
X140724971Y-82790318D01*
X140706251Y-82825342D01*
X140681049Y-82856049D01*
X140650342Y-82881251D01*
X140615318Y-82899971D01*
X140577307Y-82911502D01*
X140531637Y-82916000D01*
X139723363Y-82916000D01*
X139677693Y-82911502D01*
X139639682Y-82899971D01*
X139604658Y-82881251D01*
X139573951Y-82856049D01*
X139548749Y-82825342D01*
X139530029Y-82790318D01*
X139518498Y-82752307D01*
X139514000Y-82706637D01*
X139514000Y-81273363D01*
X139518498Y-81227693D01*
X139530029Y-81189682D01*
X139548749Y-81154658D01*
X139573951Y-81123951D01*
X139604658Y-81098749D01*
X139639682Y-81080029D01*
X139677693Y-81068498D01*
X139723363Y-81064000D01*
X140531637Y-81064000D01*
X140577307Y-81068498D01*
X140577307Y-81068498D01*
G37*
G36*
X143502307Y-81068498D02*
G01*
X143540318Y-81080029D01*
X143575342Y-81098749D01*
X143606049Y-81123951D01*
X143631251Y-81154658D01*
X143649971Y-81189682D01*
X143661502Y-81227693D01*
X143666000Y-81273363D01*
X143666000Y-82706637D01*
X143661502Y-82752307D01*
X143649971Y-82790318D01*
X143631251Y-82825342D01*
X143606049Y-82856049D01*
X143575342Y-82881251D01*
X143540318Y-82899971D01*
X143502307Y-82911502D01*
X143456637Y-82916000D01*
X142648363Y-82916000D01*
X142602693Y-82911502D01*
X142564682Y-82899971D01*
X142529658Y-82881251D01*
X142498951Y-82856049D01*
X142473749Y-82825342D01*
X142455029Y-82790318D01*
X142443498Y-82752307D01*
X142439000Y-82706637D01*
X142439000Y-81273363D01*
X142443498Y-81227693D01*
X142455029Y-81189682D01*
X142473749Y-81154658D01*
X142498951Y-81123951D01*
X142529658Y-81098749D01*
X142564682Y-81080029D01*
X142602693Y-81068498D01*
X142648363Y-81064000D01*
X143456637Y-81064000D01*
X143502307Y-81068498D01*
X143502307Y-81068498D01*
G37*
G36*
X120778604Y-81158347D02*
G01*
X120815144Y-81169432D01*
X120848821Y-81187433D01*
X120878341Y-81211659D01*
X120902567Y-81241179D01*
X120920568Y-81274856D01*
X120931653Y-81311396D01*
X120936000Y-81355538D01*
X120936000Y-82304462D01*
X120931653Y-82348604D01*
X120920568Y-82385144D01*
X120902567Y-82418821D01*
X120878341Y-82448341D01*
X120848821Y-82472567D01*
X120815144Y-82490568D01*
X120778604Y-82501653D01*
X120734462Y-82506000D01*
X119285538Y-82506000D01*
X119241396Y-82501653D01*
X119204856Y-82490568D01*
X119171179Y-82472567D01*
X119141659Y-82448341D01*
X119117433Y-82418821D01*
X119099432Y-82385144D01*
X119088347Y-82348604D01*
X119084000Y-82304462D01*
X119084000Y-81355538D01*
X119088347Y-81311396D01*
X119099432Y-81274856D01*
X119117433Y-81241179D01*
X119141659Y-81211659D01*
X119171179Y-81187433D01*
X119204856Y-81169432D01*
X119241396Y-81158347D01*
X119285538Y-81154000D01*
X120734462Y-81154000D01*
X120778604Y-81158347D01*
X120778604Y-81158347D01*
G37*
G36*
X116794591Y-81308085D02*
G01*
X116828569Y-81318393D01*
X116859890Y-81335134D01*
X116887339Y-81357661D01*
X116909866Y-81385110D01*
X116926607Y-81416431D01*
X116936915Y-81450409D01*
X116941000Y-81491890D01*
X116941000Y-82168110D01*
X116936915Y-82209591D01*
X116926607Y-82243569D01*
X116909866Y-82274890D01*
X116887339Y-82302339D01*
X116859890Y-82324866D01*
X116828569Y-82341607D01*
X116794591Y-82351915D01*
X116753110Y-82356000D01*
X116151890Y-82356000D01*
X116110409Y-82351915D01*
X116076431Y-82341607D01*
X116045110Y-82324866D01*
X116017661Y-82302339D01*
X115995134Y-82274890D01*
X115978393Y-82243569D01*
X115968085Y-82209591D01*
X115964000Y-82168110D01*
X115964000Y-81491890D01*
X115968085Y-81450409D01*
X115978393Y-81416431D01*
X115995134Y-81385110D01*
X116017661Y-81357661D01*
X116045110Y-81335134D01*
X116076431Y-81318393D01*
X116110409Y-81308085D01*
X116151890Y-81304000D01*
X116753110Y-81304000D01*
X116794591Y-81308085D01*
X116794591Y-81308085D01*
G37*
G36*
X118369591Y-81308085D02*
G01*
X118403569Y-81318393D01*
X118434890Y-81335134D01*
X118462339Y-81357661D01*
X118484866Y-81385110D01*
X118501607Y-81416431D01*
X118511915Y-81450409D01*
X118516000Y-81491890D01*
X118516000Y-82168110D01*
X118511915Y-82209591D01*
X118501607Y-82243569D01*
X118484866Y-82274890D01*
X118462339Y-82302339D01*
X118434890Y-82324866D01*
X118403569Y-82341607D01*
X118369591Y-82351915D01*
X118328110Y-82356000D01*
X117726890Y-82356000D01*
X117685409Y-82351915D01*
X117651431Y-82341607D01*
X117620110Y-82324866D01*
X117592661Y-82302339D01*
X117570134Y-82274890D01*
X117553393Y-82243569D01*
X117543085Y-82209591D01*
X117539000Y-82168110D01*
X117539000Y-81491890D01*
X117543085Y-81450409D01*
X117553393Y-81416431D01*
X117570134Y-81385110D01*
X117592661Y-81357661D01*
X117620110Y-81335134D01*
X117651431Y-81318393D01*
X117685409Y-81308085D01*
X117726890Y-81304000D01*
X118328110Y-81304000D01*
X118369591Y-81308085D01*
X118369591Y-81308085D01*
G37*
G36*
X148170442Y-80495518D02*
G01*
X148236627Y-80502037D01*
X148406466Y-80553557D01*
X148562991Y-80637222D01*
X148578730Y-80650139D01*
X148700186Y-80749814D01*
X148783448Y-80851271D01*
X148812778Y-80887009D01*
X148896443Y-81043534D01*
X148947963Y-81213373D01*
X148965359Y-81390000D01*
X148947963Y-81566627D01*
X148896443Y-81736466D01*
X148812778Y-81892991D01*
X148803088Y-81904798D01*
X148700186Y-82030186D01*
X148598729Y-82113448D01*
X148562991Y-82142778D01*
X148406466Y-82226443D01*
X148236627Y-82277963D01*
X148170651Y-82284461D01*
X148104260Y-82291000D01*
X148015740Y-82291000D01*
X147949349Y-82284461D01*
X147883373Y-82277963D01*
X147713534Y-82226443D01*
X147557009Y-82142778D01*
X147521271Y-82113448D01*
X147419814Y-82030186D01*
X147316912Y-81904798D01*
X147307222Y-81892991D01*
X147223557Y-81736466D01*
X147172037Y-81566627D01*
X147154641Y-81390000D01*
X147172037Y-81213373D01*
X147223557Y-81043534D01*
X147307222Y-80887009D01*
X147336552Y-80851271D01*
X147419814Y-80749814D01*
X147541270Y-80650139D01*
X147557009Y-80637222D01*
X147713534Y-80553557D01*
X147883373Y-80502037D01*
X147949558Y-80495518D01*
X148015740Y-80489000D01*
X148104260Y-80489000D01*
X148170442Y-80495518D01*
X148170442Y-80495518D01*
G37*
G36*
X110728604Y-80098347D02*
G01*
X110765144Y-80109432D01*
X110798821Y-80127433D01*
X110828341Y-80151659D01*
X110852567Y-80181179D01*
X110870568Y-80214856D01*
X110881653Y-80251396D01*
X110886000Y-80295538D01*
X110886000Y-81244462D01*
X110881653Y-81288604D01*
X110870568Y-81325144D01*
X110852567Y-81358821D01*
X110828341Y-81388341D01*
X110798821Y-81412567D01*
X110765144Y-81430568D01*
X110728604Y-81441653D01*
X110684462Y-81446000D01*
X109235538Y-81446000D01*
X109191396Y-81441653D01*
X109154856Y-81430568D01*
X109121179Y-81412567D01*
X109091659Y-81388341D01*
X109067433Y-81358821D01*
X109049432Y-81325144D01*
X109038347Y-81288604D01*
X109034000Y-81244462D01*
X109034000Y-80295538D01*
X109038347Y-80251396D01*
X109049432Y-80214856D01*
X109067433Y-80181179D01*
X109091659Y-80151659D01*
X109121179Y-80127433D01*
X109154856Y-80109432D01*
X109191396Y-80098347D01*
X109235538Y-80094000D01*
X110684462Y-80094000D01*
X110728604Y-80098347D01*
X110728604Y-80098347D01*
G37*
G36*
X113078604Y-80098347D02*
G01*
X113115144Y-80109432D01*
X113148821Y-80127433D01*
X113178341Y-80151659D01*
X113202567Y-80181179D01*
X113220568Y-80214856D01*
X113231653Y-80251396D01*
X113236000Y-80295538D01*
X113236000Y-81244462D01*
X113231653Y-81288604D01*
X113220568Y-81325144D01*
X113202567Y-81358821D01*
X113178341Y-81388341D01*
X113148821Y-81412567D01*
X113115144Y-81430568D01*
X113078604Y-81441653D01*
X113034462Y-81446000D01*
X111585538Y-81446000D01*
X111541396Y-81441653D01*
X111504856Y-81430568D01*
X111471179Y-81412567D01*
X111441659Y-81388341D01*
X111417433Y-81358821D01*
X111399432Y-81325144D01*
X111388347Y-81288604D01*
X111384000Y-81244462D01*
X111384000Y-80295538D01*
X111388347Y-80251396D01*
X111399432Y-80214856D01*
X111417433Y-80181179D01*
X111441659Y-80151659D01*
X111471179Y-80127433D01*
X111504856Y-80109432D01*
X111541396Y-80098347D01*
X111585538Y-80094000D01*
X113034462Y-80094000D01*
X113078604Y-80098347D01*
X113078604Y-80098347D01*
G37*
G36*
X148170443Y-77955519D02*
G01*
X148236627Y-77962037D01*
X148406466Y-78013557D01*
X148562991Y-78097222D01*
X148598729Y-78126552D01*
X148700186Y-78209814D01*
X148753066Y-78274250D01*
X148812778Y-78347009D01*
X148824763Y-78369432D01*
X148882854Y-78478110D01*
X148896443Y-78503534D01*
X148947963Y-78673373D01*
X148965359Y-78850000D01*
X148947963Y-79026627D01*
X148910720Y-79149401D01*
X148896442Y-79196468D01*
X148859869Y-79264890D01*
X148812778Y-79352991D01*
X148790202Y-79380500D01*
X148700186Y-79490186D01*
X148601712Y-79571000D01*
X148562991Y-79602778D01*
X148562989Y-79602779D01*
X148408386Y-79685417D01*
X148406466Y-79686443D01*
X148236627Y-79737963D01*
X148171950Y-79744333D01*
X148104260Y-79751000D01*
X148015740Y-79751000D01*
X147948050Y-79744333D01*
X147883373Y-79737963D01*
X147713534Y-79686443D01*
X147711615Y-79685417D01*
X147557011Y-79602779D01*
X147557009Y-79602778D01*
X147518288Y-79571000D01*
X147419814Y-79490186D01*
X147329798Y-79380500D01*
X147307222Y-79352991D01*
X147260131Y-79264890D01*
X147223558Y-79196468D01*
X147209280Y-79149401D01*
X147172037Y-79026627D01*
X147154641Y-78850000D01*
X147172037Y-78673373D01*
X147223557Y-78503534D01*
X147237147Y-78478110D01*
X147295237Y-78369432D01*
X147307222Y-78347009D01*
X147366934Y-78274250D01*
X147419814Y-78209814D01*
X147521271Y-78126552D01*
X147557009Y-78097222D01*
X147713534Y-78013557D01*
X147883373Y-77962037D01*
X147949557Y-77955519D01*
X148015740Y-77949000D01*
X148104260Y-77949000D01*
X148170443Y-77955519D01*
X148170443Y-77955519D01*
G37*
G36*
X120778604Y-78358347D02*
G01*
X120815144Y-78369432D01*
X120848821Y-78387433D01*
X120878341Y-78411659D01*
X120902567Y-78441179D01*
X120920568Y-78474856D01*
X120931653Y-78511396D01*
X120936000Y-78555538D01*
X120936000Y-79504462D01*
X120931653Y-79548604D01*
X120920568Y-79585144D01*
X120902567Y-79618821D01*
X120878341Y-79648341D01*
X120848821Y-79672567D01*
X120815144Y-79690568D01*
X120778604Y-79701653D01*
X120734462Y-79706000D01*
X119285538Y-79706000D01*
X119241396Y-79701653D01*
X119204856Y-79690568D01*
X119171179Y-79672567D01*
X119141659Y-79648341D01*
X119117433Y-79618821D01*
X119099432Y-79585144D01*
X119088347Y-79548604D01*
X119084000Y-79504462D01*
X119084000Y-78555538D01*
X119088347Y-78511396D01*
X119099432Y-78474856D01*
X119117433Y-78441179D01*
X119141659Y-78411659D01*
X119171179Y-78387433D01*
X119204856Y-78369432D01*
X119241396Y-78358347D01*
X119285538Y-78354000D01*
X120734462Y-78354000D01*
X120778604Y-78358347D01*
X120778604Y-78358347D01*
G37*
G36*
X139111000Y-79571000D02*
G01*
X138209000Y-79571000D01*
X138209000Y-78569000D01*
X139111000Y-78569000D01*
X139111000Y-79571000D01*
X139111000Y-79571000D01*
G37*
G36*
X141011000Y-79571000D02*
G01*
X140109000Y-79571000D01*
X140109000Y-78569000D01*
X141011000Y-78569000D01*
X141011000Y-79571000D01*
X141011000Y-79571000D01*
G37*
G36*
X98651000Y-79501000D02*
G01*
X94549000Y-79501000D01*
X94549000Y-75399000D01*
X98651000Y-75399000D01*
X98651000Y-79501000D01*
X98651000Y-79501000D01*
G37*
G36*
X136989591Y-78373085D02*
G01*
X137023569Y-78383393D01*
X137054890Y-78400134D01*
X137082339Y-78422661D01*
X137104866Y-78450110D01*
X137121607Y-78481431D01*
X137131915Y-78515409D01*
X137136000Y-78556890D01*
X137136000Y-79158110D01*
X137131915Y-79199591D01*
X137121607Y-79233569D01*
X137104866Y-79264890D01*
X137082339Y-79292339D01*
X137054890Y-79314866D01*
X137023569Y-79331607D01*
X136989591Y-79341915D01*
X136948110Y-79346000D01*
X136271890Y-79346000D01*
X136230409Y-79341915D01*
X136196431Y-79331607D01*
X136165110Y-79314866D01*
X136137661Y-79292339D01*
X136115134Y-79264890D01*
X136098393Y-79233569D01*
X136088085Y-79199591D01*
X136084000Y-79158110D01*
X136084000Y-78556890D01*
X136088085Y-78515409D01*
X136098393Y-78481431D01*
X136115134Y-78450110D01*
X136137661Y-78422661D01*
X136165110Y-78400134D01*
X136196431Y-78383393D01*
X136230409Y-78373085D01*
X136271890Y-78369000D01*
X136948110Y-78369000D01*
X136989591Y-78373085D01*
X136989591Y-78373085D01*
G37*
G36*
X142989591Y-78373085D02*
G01*
X143023569Y-78383393D01*
X143054890Y-78400134D01*
X143082339Y-78422661D01*
X143104866Y-78450110D01*
X143121607Y-78481431D01*
X143131915Y-78515409D01*
X143136000Y-78556890D01*
X143136000Y-79158110D01*
X143131915Y-79199591D01*
X143121607Y-79233569D01*
X143104866Y-79264890D01*
X143082339Y-79292339D01*
X143054890Y-79314866D01*
X143023569Y-79331607D01*
X142989591Y-79341915D01*
X142948110Y-79346000D01*
X142271890Y-79346000D01*
X142230409Y-79341915D01*
X142196431Y-79331607D01*
X142165110Y-79314866D01*
X142137661Y-79292339D01*
X142115134Y-79264890D01*
X142098393Y-79233569D01*
X142088085Y-79199591D01*
X142084000Y-79158110D01*
X142084000Y-78556890D01*
X142088085Y-78515409D01*
X142098393Y-78481431D01*
X142115134Y-78450110D01*
X142137661Y-78422661D01*
X142165110Y-78400134D01*
X142196431Y-78383393D01*
X142230409Y-78373085D01*
X142271890Y-78369000D01*
X142948110Y-78369000D01*
X142989591Y-78373085D01*
X142989591Y-78373085D01*
G37*
G36*
X116904591Y-77618085D02*
G01*
X116938569Y-77628393D01*
X116969890Y-77645134D01*
X116997339Y-77667661D01*
X117019866Y-77695110D01*
X117036607Y-77726431D01*
X117046915Y-77760409D01*
X117051000Y-77801890D01*
X117051000Y-78478110D01*
X117046915Y-78519591D01*
X117036607Y-78553569D01*
X117019866Y-78584890D01*
X116997339Y-78612339D01*
X116969890Y-78634866D01*
X116938569Y-78651607D01*
X116904591Y-78661915D01*
X116863110Y-78666000D01*
X116261890Y-78666000D01*
X116220409Y-78661915D01*
X116186431Y-78651607D01*
X116155110Y-78634866D01*
X116127661Y-78612339D01*
X116105134Y-78584890D01*
X116088393Y-78553569D01*
X116078085Y-78519591D01*
X116074000Y-78478110D01*
X116074000Y-77801890D01*
X116078085Y-77760409D01*
X116088393Y-77726431D01*
X116105134Y-77695110D01*
X116127661Y-77667661D01*
X116155110Y-77645134D01*
X116186431Y-77628393D01*
X116220409Y-77618085D01*
X116261890Y-77614000D01*
X116863110Y-77614000D01*
X116904591Y-77618085D01*
X116904591Y-77618085D01*
G37*
G36*
X118479591Y-77618085D02*
G01*
X118513569Y-77628393D01*
X118544890Y-77645134D01*
X118572339Y-77667661D01*
X118594866Y-77695110D01*
X118611607Y-77726431D01*
X118621915Y-77760409D01*
X118626000Y-77801890D01*
X118626000Y-78478110D01*
X118621915Y-78519591D01*
X118611607Y-78553569D01*
X118594866Y-78584890D01*
X118572339Y-78612339D01*
X118544890Y-78634866D01*
X118513569Y-78651607D01*
X118479591Y-78661915D01*
X118438110Y-78666000D01*
X117836890Y-78666000D01*
X117795409Y-78661915D01*
X117761431Y-78651607D01*
X117730110Y-78634866D01*
X117702661Y-78612339D01*
X117680134Y-78584890D01*
X117663393Y-78553569D01*
X117653085Y-78519591D01*
X117649000Y-78478110D01*
X117649000Y-77801890D01*
X117653085Y-77760409D01*
X117663393Y-77726431D01*
X117680134Y-77695110D01*
X117702661Y-77667661D01*
X117730110Y-77645134D01*
X117761431Y-77628393D01*
X117795409Y-77618085D01*
X117836890Y-77614000D01*
X118438110Y-77614000D01*
X118479591Y-77618085D01*
X118479591Y-77618085D01*
G37*
G36*
X124110051Y-77056284D02*
G01*
X124126443Y-77061257D01*
X124141555Y-77069334D01*
X124154798Y-77080202D01*
X124165667Y-77093447D01*
X124169761Y-77101106D01*
X124183374Y-77121480D01*
X124200701Y-77138807D01*
X124221076Y-77152421D01*
X124243714Y-77161798D01*
X124267748Y-77166579D01*
X124292252Y-77166579D01*
X124316285Y-77161799D01*
X124338924Y-77152421D01*
X124359298Y-77138808D01*
X124376625Y-77121481D01*
X124390239Y-77101106D01*
X124394333Y-77093447D01*
X124405202Y-77080202D01*
X124418445Y-77069334D01*
X124433557Y-77061257D01*
X124449949Y-77056284D01*
X124473141Y-77054000D01*
X124886859Y-77054000D01*
X124910051Y-77056284D01*
X124926443Y-77061257D01*
X124941555Y-77069334D01*
X124954798Y-77080202D01*
X124965667Y-77093447D01*
X124969761Y-77101106D01*
X124983374Y-77121480D01*
X125000701Y-77138807D01*
X125021076Y-77152421D01*
X125043714Y-77161798D01*
X125067748Y-77166579D01*
X125092252Y-77166579D01*
X125116285Y-77161799D01*
X125138924Y-77152421D01*
X125159298Y-77138808D01*
X125176625Y-77121481D01*
X125190239Y-77101106D01*
X125194333Y-77093447D01*
X125205202Y-77080202D01*
X125218445Y-77069334D01*
X125233557Y-77061257D01*
X125249949Y-77056284D01*
X125273141Y-77054000D01*
X125686859Y-77054000D01*
X125710051Y-77056284D01*
X125726443Y-77061257D01*
X125741555Y-77069334D01*
X125754798Y-77080202D01*
X125765667Y-77093447D01*
X125769761Y-77101106D01*
X125783374Y-77121480D01*
X125800701Y-77138807D01*
X125821076Y-77152421D01*
X125843714Y-77161798D01*
X125867748Y-77166579D01*
X125892252Y-77166579D01*
X125916285Y-77161799D01*
X125938924Y-77152421D01*
X125959298Y-77138808D01*
X125976625Y-77121481D01*
X125990239Y-77101106D01*
X125994333Y-77093447D01*
X126005202Y-77080202D01*
X126018445Y-77069334D01*
X126033557Y-77061257D01*
X126049949Y-77056284D01*
X126073141Y-77054000D01*
X126486859Y-77054000D01*
X126510051Y-77056284D01*
X126526443Y-77061257D01*
X126541555Y-77069334D01*
X126554798Y-77080202D01*
X126565667Y-77093447D01*
X126569761Y-77101106D01*
X126583374Y-77121480D01*
X126600701Y-77138807D01*
X126621076Y-77152421D01*
X126643714Y-77161798D01*
X126667748Y-77166579D01*
X126692252Y-77166579D01*
X126716285Y-77161799D01*
X126738924Y-77152421D01*
X126759298Y-77138808D01*
X126776625Y-77121481D01*
X126790239Y-77101106D01*
X126794333Y-77093447D01*
X126805202Y-77080202D01*
X126818445Y-77069334D01*
X126833557Y-77061257D01*
X126849949Y-77056284D01*
X126873141Y-77054000D01*
X127286859Y-77054000D01*
X127310051Y-77056284D01*
X127326443Y-77061257D01*
X127341555Y-77069334D01*
X127354798Y-77080202D01*
X127365667Y-77093447D01*
X127369761Y-77101106D01*
X127383374Y-77121480D01*
X127400701Y-77138807D01*
X127421076Y-77152421D01*
X127443714Y-77161798D01*
X127467748Y-77166579D01*
X127492252Y-77166579D01*
X127516285Y-77161799D01*
X127538924Y-77152421D01*
X127559298Y-77138808D01*
X127576625Y-77121481D01*
X127590239Y-77101106D01*
X127594333Y-77093447D01*
X127605202Y-77080202D01*
X127618445Y-77069334D01*
X127633557Y-77061257D01*
X127649949Y-77056284D01*
X127673141Y-77054000D01*
X128086859Y-77054000D01*
X128110051Y-77056284D01*
X128126443Y-77061257D01*
X128141555Y-77069334D01*
X128154798Y-77080202D01*
X128165667Y-77093447D01*
X128169761Y-77101106D01*
X128183374Y-77121480D01*
X128200701Y-77138807D01*
X128221076Y-77152421D01*
X128243714Y-77161798D01*
X128267748Y-77166579D01*
X128292252Y-77166579D01*
X128316285Y-77161799D01*
X128338924Y-77152421D01*
X128359298Y-77138808D01*
X128376625Y-77121481D01*
X128390239Y-77101106D01*
X128394333Y-77093447D01*
X128405202Y-77080202D01*
X128418445Y-77069334D01*
X128433557Y-77061257D01*
X128449949Y-77056284D01*
X128473141Y-77054000D01*
X128886859Y-77054000D01*
X128910051Y-77056284D01*
X128926443Y-77061257D01*
X128941555Y-77069334D01*
X128954798Y-77080202D01*
X128965667Y-77093447D01*
X128969761Y-77101106D01*
X128983374Y-77121480D01*
X129000701Y-77138807D01*
X129021076Y-77152421D01*
X129043714Y-77161798D01*
X129067748Y-77166579D01*
X129092252Y-77166579D01*
X129116285Y-77161799D01*
X129138924Y-77152421D01*
X129159298Y-77138808D01*
X129176625Y-77121481D01*
X129190239Y-77101106D01*
X129194333Y-77093447D01*
X129205202Y-77080202D01*
X129218445Y-77069334D01*
X129233557Y-77061257D01*
X129249949Y-77056284D01*
X129273141Y-77054000D01*
X129686859Y-77054000D01*
X129710051Y-77056284D01*
X129726443Y-77061257D01*
X129741555Y-77069334D01*
X129754798Y-77080202D01*
X129765666Y-77093445D01*
X129773743Y-77108557D01*
X129778716Y-77124949D01*
X129781000Y-77148141D01*
X129781000Y-78561859D01*
X129778716Y-78585051D01*
X129773743Y-78601443D01*
X129765666Y-78616555D01*
X129754798Y-78629798D01*
X129741555Y-78640666D01*
X129726443Y-78648743D01*
X129710051Y-78653716D01*
X129686859Y-78656000D01*
X129273141Y-78656000D01*
X129249949Y-78653716D01*
X129233557Y-78648743D01*
X129218445Y-78640666D01*
X129205202Y-78629798D01*
X129194333Y-78616553D01*
X129190239Y-78608894D01*
X129176626Y-78588520D01*
X129159299Y-78571193D01*
X129138924Y-78557579D01*
X129116286Y-78548202D01*
X129092252Y-78543421D01*
X129067748Y-78543421D01*
X129043715Y-78548201D01*
X129021076Y-78557579D01*
X129000702Y-78571192D01*
X128983375Y-78588519D01*
X128969761Y-78608894D01*
X128965667Y-78616553D01*
X128954798Y-78629798D01*
X128941555Y-78640666D01*
X128926443Y-78648743D01*
X128910051Y-78653716D01*
X128886859Y-78656000D01*
X128473141Y-78656000D01*
X128449949Y-78653716D01*
X128433557Y-78648743D01*
X128418445Y-78640666D01*
X128405202Y-78629798D01*
X128394333Y-78616553D01*
X128390239Y-78608894D01*
X128376626Y-78588520D01*
X128359299Y-78571193D01*
X128338924Y-78557579D01*
X128316286Y-78548202D01*
X128292252Y-78543421D01*
X128267748Y-78543421D01*
X128243715Y-78548201D01*
X128221076Y-78557579D01*
X128200702Y-78571192D01*
X128183375Y-78588519D01*
X128169761Y-78608894D01*
X128165667Y-78616553D01*
X128154798Y-78629798D01*
X128141555Y-78640666D01*
X128126443Y-78648743D01*
X128110051Y-78653716D01*
X128086859Y-78656000D01*
X127673141Y-78656000D01*
X127649949Y-78653716D01*
X127633557Y-78648743D01*
X127618445Y-78640666D01*
X127605202Y-78629798D01*
X127594333Y-78616553D01*
X127590239Y-78608894D01*
X127576626Y-78588520D01*
X127559299Y-78571193D01*
X127538924Y-78557579D01*
X127516286Y-78548202D01*
X127492252Y-78543421D01*
X127467748Y-78543421D01*
X127443715Y-78548201D01*
X127421076Y-78557579D01*
X127400702Y-78571192D01*
X127383375Y-78588519D01*
X127369761Y-78608894D01*
X127365667Y-78616553D01*
X127354798Y-78629798D01*
X127341555Y-78640666D01*
X127326443Y-78648743D01*
X127310051Y-78653716D01*
X127286859Y-78656000D01*
X126873141Y-78656000D01*
X126849949Y-78653716D01*
X126833557Y-78648743D01*
X126818445Y-78640666D01*
X126805202Y-78629798D01*
X126794333Y-78616553D01*
X126790239Y-78608894D01*
X126776626Y-78588520D01*
X126759299Y-78571193D01*
X126738924Y-78557579D01*
X126716286Y-78548202D01*
X126692252Y-78543421D01*
X126667748Y-78543421D01*
X126643715Y-78548201D01*
X126621076Y-78557579D01*
X126600702Y-78571192D01*
X126583375Y-78588519D01*
X126569761Y-78608894D01*
X126565667Y-78616553D01*
X126554798Y-78629798D01*
X126541555Y-78640666D01*
X126526443Y-78648743D01*
X126510051Y-78653716D01*
X126486859Y-78656000D01*
X126073141Y-78656000D01*
X126049949Y-78653716D01*
X126033557Y-78648743D01*
X126018445Y-78640666D01*
X126005202Y-78629798D01*
X125994333Y-78616553D01*
X125990239Y-78608894D01*
X125976626Y-78588520D01*
X125959299Y-78571193D01*
X125938924Y-78557579D01*
X125916286Y-78548202D01*
X125892252Y-78543421D01*
X125867748Y-78543421D01*
X125843715Y-78548201D01*
X125821076Y-78557579D01*
X125800702Y-78571192D01*
X125783375Y-78588519D01*
X125769761Y-78608894D01*
X125765667Y-78616553D01*
X125754798Y-78629798D01*
X125741555Y-78640666D01*
X125726443Y-78648743D01*
X125710051Y-78653716D01*
X125686859Y-78656000D01*
X125273141Y-78656000D01*
X125249949Y-78653716D01*
X125233557Y-78648743D01*
X125218445Y-78640666D01*
X125205202Y-78629798D01*
X125194333Y-78616553D01*
X125190239Y-78608894D01*
X125176626Y-78588520D01*
X125159299Y-78571193D01*
X125138924Y-78557579D01*
X125116286Y-78548202D01*
X125092252Y-78543421D01*
X125067748Y-78543421D01*
X125043715Y-78548201D01*
X125021076Y-78557579D01*
X125000702Y-78571192D01*
X124983375Y-78588519D01*
X124969761Y-78608894D01*
X124965667Y-78616553D01*
X124954798Y-78629798D01*
X124941555Y-78640666D01*
X124926443Y-78648743D01*
X124910051Y-78653716D01*
X124886859Y-78656000D01*
X124473141Y-78656000D01*
X124449949Y-78653716D01*
X124433557Y-78648743D01*
X124418445Y-78640666D01*
X124405202Y-78629798D01*
X124394333Y-78616553D01*
X124390239Y-78608894D01*
X124376626Y-78588520D01*
X124359299Y-78571193D01*
X124338924Y-78557579D01*
X124316286Y-78548202D01*
X124292252Y-78543421D01*
X124267748Y-78543421D01*
X124243715Y-78548201D01*
X124221076Y-78557579D01*
X124200702Y-78571192D01*
X124183375Y-78588519D01*
X124169761Y-78608894D01*
X124165667Y-78616553D01*
X124154798Y-78629798D01*
X124141555Y-78640666D01*
X124126443Y-78648743D01*
X124110051Y-78653716D01*
X124086859Y-78656000D01*
X123673141Y-78656000D01*
X123649949Y-78653716D01*
X123633557Y-78648743D01*
X123618445Y-78640666D01*
X123605202Y-78629798D01*
X123594334Y-78616555D01*
X123586257Y-78601443D01*
X123581284Y-78585051D01*
X123579000Y-78561859D01*
X123579000Y-77148141D01*
X123581284Y-77124949D01*
X123586257Y-77108557D01*
X123594334Y-77093445D01*
X123605202Y-77080202D01*
X123618445Y-77069334D01*
X123633557Y-77061257D01*
X123649949Y-77056284D01*
X123673141Y-77054000D01*
X124086859Y-77054000D01*
X124110051Y-77056284D01*
X124110051Y-77056284D01*
G37*
G36*
X122579591Y-77545585D02*
G01*
X122613569Y-77555893D01*
X122644890Y-77572634D01*
X122672339Y-77595161D01*
X122694866Y-77622610D01*
X122711607Y-77653931D01*
X122721915Y-77687909D01*
X122726000Y-77729390D01*
X122726000Y-78330610D01*
X122721915Y-78372091D01*
X122711607Y-78406069D01*
X122694866Y-78437390D01*
X122672339Y-78464839D01*
X122644890Y-78487366D01*
X122613569Y-78504107D01*
X122579591Y-78514415D01*
X122538110Y-78518500D01*
X121861890Y-78518500D01*
X121820409Y-78514415D01*
X121786431Y-78504107D01*
X121755110Y-78487366D01*
X121727661Y-78464839D01*
X121705134Y-78437390D01*
X121688393Y-78406069D01*
X121678085Y-78372091D01*
X121674000Y-78330610D01*
X121674000Y-77729390D01*
X121678085Y-77687909D01*
X121688393Y-77653931D01*
X121705134Y-77622610D01*
X121727661Y-77595161D01*
X121755110Y-77572634D01*
X121786431Y-77555893D01*
X121820409Y-77545585D01*
X121861890Y-77541500D01*
X122538110Y-77541500D01*
X122579591Y-77545585D01*
X122579591Y-77545585D01*
G37*
G36*
X136989591Y-76798085D02*
G01*
X137023569Y-76808393D01*
X137054890Y-76825134D01*
X137082339Y-76847661D01*
X137104866Y-76875110D01*
X137121607Y-76906431D01*
X137131915Y-76940409D01*
X137136000Y-76981890D01*
X137136000Y-77583110D01*
X137131915Y-77624591D01*
X137121607Y-77658569D01*
X137104866Y-77689890D01*
X137082339Y-77717339D01*
X137054890Y-77739866D01*
X137023569Y-77756607D01*
X136989591Y-77766915D01*
X136948110Y-77771000D01*
X136271890Y-77771000D01*
X136230409Y-77766915D01*
X136196431Y-77756607D01*
X136165110Y-77739866D01*
X136137661Y-77717339D01*
X136115134Y-77689890D01*
X136098393Y-77658569D01*
X136088085Y-77624591D01*
X136084000Y-77583110D01*
X136084000Y-76981890D01*
X136088085Y-76940409D01*
X136098393Y-76906431D01*
X136115134Y-76875110D01*
X136137661Y-76847661D01*
X136165110Y-76825134D01*
X136196431Y-76808393D01*
X136230409Y-76798085D01*
X136271890Y-76794000D01*
X136948110Y-76794000D01*
X136989591Y-76798085D01*
X136989591Y-76798085D01*
G37*
G36*
X142989591Y-76798085D02*
G01*
X143023569Y-76808393D01*
X143054890Y-76825134D01*
X143082339Y-76847661D01*
X143104866Y-76875110D01*
X143121607Y-76906431D01*
X143131915Y-76940409D01*
X143136000Y-76981890D01*
X143136000Y-77583110D01*
X143131915Y-77624591D01*
X143121607Y-77658569D01*
X143104866Y-77689890D01*
X143082339Y-77717339D01*
X143054890Y-77739866D01*
X143023569Y-77756607D01*
X142989591Y-77766915D01*
X142948110Y-77771000D01*
X142271890Y-77771000D01*
X142230409Y-77766915D01*
X142196431Y-77756607D01*
X142165110Y-77739866D01*
X142137661Y-77717339D01*
X142115134Y-77689890D01*
X142098393Y-77658569D01*
X142088085Y-77624591D01*
X142084000Y-77583110D01*
X142084000Y-76981890D01*
X142088085Y-76940409D01*
X142098393Y-76906431D01*
X142115134Y-76875110D01*
X142137661Y-76847661D01*
X142165110Y-76825134D01*
X142196431Y-76808393D01*
X142230409Y-76798085D01*
X142271890Y-76794000D01*
X142948110Y-76794000D01*
X142989591Y-76798085D01*
X142989591Y-76798085D01*
G37*
G36*
X140061000Y-77571000D02*
G01*
X139159000Y-77571000D01*
X139159000Y-76569000D01*
X140061000Y-76569000D01*
X140061000Y-77571000D01*
X140061000Y-77571000D01*
G37*
G36*
X148170442Y-75415518D02*
G01*
X148236627Y-75422037D01*
X148406466Y-75473557D01*
X148562991Y-75557222D01*
X148598729Y-75586552D01*
X148700186Y-75669814D01*
X148783448Y-75771271D01*
X148812778Y-75807009D01*
X148896443Y-75963534D01*
X148947963Y-76133373D01*
X148965359Y-76310000D01*
X148947963Y-76486627D01*
X148896443Y-76656466D01*
X148812778Y-76812991D01*
X148794758Y-76834948D01*
X148700186Y-76950186D01*
X148599688Y-77032661D01*
X148562991Y-77062778D01*
X148406466Y-77146443D01*
X148236627Y-77197963D01*
X148170443Y-77204481D01*
X148104260Y-77211000D01*
X148015740Y-77211000D01*
X147949557Y-77204481D01*
X147883373Y-77197963D01*
X147713534Y-77146443D01*
X147557009Y-77062778D01*
X147520312Y-77032661D01*
X147419814Y-76950186D01*
X147325242Y-76834948D01*
X147307222Y-76812991D01*
X147223557Y-76656466D01*
X147172037Y-76486627D01*
X147154641Y-76310000D01*
X147172037Y-76133373D01*
X147223557Y-75963534D01*
X147307222Y-75807009D01*
X147336552Y-75771271D01*
X147419814Y-75669814D01*
X147521271Y-75586552D01*
X147557009Y-75557222D01*
X147713534Y-75473557D01*
X147883373Y-75422037D01*
X147949558Y-75415518D01*
X148015740Y-75409000D01*
X148104260Y-75409000D01*
X148170442Y-75415518D01*
X148170442Y-75415518D01*
G37*
G36*
X111646000Y-77196000D02*
G01*
X110944000Y-77196000D01*
X110944000Y-75544000D01*
X111646000Y-75544000D01*
X111646000Y-77196000D01*
X111646000Y-77196000D01*
G37*
G36*
X112916000Y-77196000D02*
G01*
X112214000Y-77196000D01*
X112214000Y-75544000D01*
X112916000Y-75544000D01*
X112916000Y-77196000D01*
X112916000Y-77196000D01*
G37*
G36*
X110376000Y-77196000D02*
G01*
X109674000Y-77196000D01*
X109674000Y-75544000D01*
X110376000Y-75544000D01*
X110376000Y-77196000D01*
X110376000Y-77196000D01*
G37*
G36*
X109106000Y-77196000D02*
G01*
X108404000Y-77196000D01*
X108404000Y-75544000D01*
X109106000Y-75544000D01*
X109106000Y-77196000D01*
X109106000Y-77196000D01*
G37*
G36*
X107291000Y-77176000D02*
G01*
X104789000Y-77176000D01*
X104789000Y-75624000D01*
X107291000Y-75624000D01*
X107291000Y-77176000D01*
X107291000Y-77176000D01*
G37*
G36*
X117014928Y-75291764D02*
G01*
X117036009Y-75298160D01*
X117055445Y-75308548D01*
X117072476Y-75322524D01*
X117086452Y-75339555D01*
X117096840Y-75358991D01*
X117103236Y-75380072D01*
X117106000Y-75408140D01*
X117106000Y-77021860D01*
X117103236Y-77049928D01*
X117096840Y-77071009D01*
X117086452Y-77090445D01*
X117072476Y-77107476D01*
X117055445Y-77121452D01*
X117036009Y-77131840D01*
X117014928Y-77138236D01*
X116986860Y-77141000D01*
X116523140Y-77141000D01*
X116495072Y-77138236D01*
X116473991Y-77131840D01*
X116454555Y-77121452D01*
X116437524Y-77107476D01*
X116423548Y-77090445D01*
X116413160Y-77071009D01*
X116406764Y-77049928D01*
X116404000Y-77021860D01*
X116404000Y-75408140D01*
X116406764Y-75380072D01*
X116413160Y-75358991D01*
X116423548Y-75339555D01*
X116437524Y-75322524D01*
X116454555Y-75308548D01*
X116473991Y-75298160D01*
X116495072Y-75291764D01*
X116523140Y-75289000D01*
X116986860Y-75289000D01*
X117014928Y-75291764D01*
X117014928Y-75291764D01*
G37*
G36*
X118284928Y-75291764D02*
G01*
X118306009Y-75298160D01*
X118325445Y-75308548D01*
X118342476Y-75322524D01*
X118356452Y-75339555D01*
X118366840Y-75358991D01*
X118373236Y-75380072D01*
X118376000Y-75408140D01*
X118376000Y-77021860D01*
X118373236Y-77049928D01*
X118366840Y-77071009D01*
X118356452Y-77090445D01*
X118342476Y-77107476D01*
X118325445Y-77121452D01*
X118306009Y-77131840D01*
X118284928Y-77138236D01*
X118256860Y-77141000D01*
X117793140Y-77141000D01*
X117765072Y-77138236D01*
X117743991Y-77131840D01*
X117724555Y-77121452D01*
X117707524Y-77107476D01*
X117693548Y-77090445D01*
X117683160Y-77071009D01*
X117676764Y-77049928D01*
X117674000Y-77021860D01*
X117674000Y-75408140D01*
X117676764Y-75380072D01*
X117683160Y-75358991D01*
X117693548Y-75339555D01*
X117707524Y-75322524D01*
X117724555Y-75308548D01*
X117743991Y-75298160D01*
X117765072Y-75291764D01*
X117793140Y-75289000D01*
X118256860Y-75289000D01*
X118284928Y-75291764D01*
X118284928Y-75291764D01*
G37*
G36*
X115744928Y-75291764D02*
G01*
X115766009Y-75298160D01*
X115785445Y-75308548D01*
X115802476Y-75322524D01*
X115816452Y-75339555D01*
X115826840Y-75358991D01*
X115833236Y-75380072D01*
X115836000Y-75408140D01*
X115836000Y-77021860D01*
X115833236Y-77049928D01*
X115826840Y-77071009D01*
X115816452Y-77090445D01*
X115802476Y-77107476D01*
X115785445Y-77121452D01*
X115766009Y-77131840D01*
X115744928Y-77138236D01*
X115716860Y-77141000D01*
X115253140Y-77141000D01*
X115225072Y-77138236D01*
X115203991Y-77131840D01*
X115184555Y-77121452D01*
X115167524Y-77107476D01*
X115153548Y-77090445D01*
X115143160Y-77071009D01*
X115136764Y-77049928D01*
X115134000Y-77021860D01*
X115134000Y-75408140D01*
X115136764Y-75380072D01*
X115143160Y-75358991D01*
X115153548Y-75339555D01*
X115167524Y-75322524D01*
X115184555Y-75308548D01*
X115203991Y-75298160D01*
X115225072Y-75291764D01*
X115253140Y-75289000D01*
X115716860Y-75289000D01*
X115744928Y-75291764D01*
X115744928Y-75291764D01*
G37*
G36*
X114474928Y-75291764D02*
G01*
X114496009Y-75298160D01*
X114515445Y-75308548D01*
X114532476Y-75322524D01*
X114546452Y-75339555D01*
X114556840Y-75358991D01*
X114563236Y-75380072D01*
X114566000Y-75408140D01*
X114566000Y-77021860D01*
X114563236Y-77049928D01*
X114556840Y-77071009D01*
X114546452Y-77090445D01*
X114532476Y-77107476D01*
X114515445Y-77121452D01*
X114496009Y-77131840D01*
X114474928Y-77138236D01*
X114446860Y-77141000D01*
X113983140Y-77141000D01*
X113955072Y-77138236D01*
X113933991Y-77131840D01*
X113914555Y-77121452D01*
X113897524Y-77107476D01*
X113883548Y-77090445D01*
X113873160Y-77071009D01*
X113866764Y-77049928D01*
X113864000Y-77021860D01*
X113864000Y-75408140D01*
X113866764Y-75380072D01*
X113873160Y-75358991D01*
X113883548Y-75339555D01*
X113897524Y-75322524D01*
X113914555Y-75308548D01*
X113933991Y-75298160D01*
X113955072Y-75291764D01*
X113983140Y-75289000D01*
X114446860Y-75289000D01*
X114474928Y-75291764D01*
X114474928Y-75291764D01*
G37*
G36*
X120778604Y-75788347D02*
G01*
X120815144Y-75799432D01*
X120848821Y-75817433D01*
X120878341Y-75841659D01*
X120902567Y-75871179D01*
X120920568Y-75904856D01*
X120931653Y-75941396D01*
X120936000Y-75985538D01*
X120936000Y-76934462D01*
X120931653Y-76978604D01*
X120920568Y-77015144D01*
X120902567Y-77048821D01*
X120878341Y-77078341D01*
X120848821Y-77102567D01*
X120815144Y-77120568D01*
X120778604Y-77131653D01*
X120734462Y-77136000D01*
X119285538Y-77136000D01*
X119241396Y-77131653D01*
X119204856Y-77120568D01*
X119171179Y-77102567D01*
X119141659Y-77078341D01*
X119117433Y-77048821D01*
X119099432Y-77015144D01*
X119088347Y-76978604D01*
X119084000Y-76934462D01*
X119084000Y-75985538D01*
X119088347Y-75941396D01*
X119099432Y-75904856D01*
X119117433Y-75871179D01*
X119141659Y-75841659D01*
X119171179Y-75817433D01*
X119204856Y-75799432D01*
X119241396Y-75788347D01*
X119285538Y-75784000D01*
X120734462Y-75784000D01*
X120778604Y-75788347D01*
X120778604Y-75788347D01*
G37*
G36*
X122579591Y-75970585D02*
G01*
X122613569Y-75980893D01*
X122644890Y-75997634D01*
X122672339Y-76020161D01*
X122694866Y-76047610D01*
X122711607Y-76078931D01*
X122721915Y-76112909D01*
X122726000Y-76154390D01*
X122726000Y-76755610D01*
X122721915Y-76797091D01*
X122711607Y-76831069D01*
X122694866Y-76862390D01*
X122672339Y-76889839D01*
X122644890Y-76912366D01*
X122613569Y-76929107D01*
X122579591Y-76939415D01*
X122538110Y-76943500D01*
X121861890Y-76943500D01*
X121820409Y-76939415D01*
X121786431Y-76929107D01*
X121755110Y-76912366D01*
X121727661Y-76889839D01*
X121705134Y-76862390D01*
X121688393Y-76831069D01*
X121678085Y-76797091D01*
X121674000Y-76755610D01*
X121674000Y-76154390D01*
X121678085Y-76112909D01*
X121688393Y-76078931D01*
X121705134Y-76047610D01*
X121727661Y-76020161D01*
X121755110Y-75997634D01*
X121786431Y-75980893D01*
X121820409Y-75970585D01*
X121861890Y-75966500D01*
X122538110Y-75966500D01*
X122579591Y-75970585D01*
X122579591Y-75970585D01*
G37*
G36*
X139111000Y-75071000D02*
G01*
X138209000Y-75071000D01*
X138209000Y-74069000D01*
X139111000Y-74069000D01*
X139111000Y-75071000D01*
X139111000Y-75071000D01*
G37*
G36*
X141011000Y-75071000D02*
G01*
X140109000Y-75071000D01*
X140109000Y-74069000D01*
X141011000Y-74069000D01*
X141011000Y-75071000D01*
X141011000Y-75071000D01*
G37*
G36*
X136989591Y-73873085D02*
G01*
X137023569Y-73883393D01*
X137054890Y-73900134D01*
X137082339Y-73922661D01*
X137104866Y-73950110D01*
X137121607Y-73981431D01*
X137131915Y-74015409D01*
X137136000Y-74056890D01*
X137136000Y-74658110D01*
X137131915Y-74699591D01*
X137121607Y-74733569D01*
X137104866Y-74764890D01*
X137082339Y-74792339D01*
X137054890Y-74814866D01*
X137023569Y-74831607D01*
X136989591Y-74841915D01*
X136948110Y-74846000D01*
X136271890Y-74846000D01*
X136230409Y-74841915D01*
X136196431Y-74831607D01*
X136165110Y-74814866D01*
X136137661Y-74792339D01*
X136115134Y-74764890D01*
X136098393Y-74733569D01*
X136088085Y-74699591D01*
X136084000Y-74658110D01*
X136084000Y-74056890D01*
X136088085Y-74015409D01*
X136098393Y-73981431D01*
X136115134Y-73950110D01*
X136137661Y-73922661D01*
X136165110Y-73900134D01*
X136196431Y-73883393D01*
X136230409Y-73873085D01*
X136271890Y-73869000D01*
X136948110Y-73869000D01*
X136989591Y-73873085D01*
X136989591Y-73873085D01*
G37*
G36*
X142989591Y-73873085D02*
G01*
X143023569Y-73883393D01*
X143054890Y-73900134D01*
X143082339Y-73922661D01*
X143104866Y-73950110D01*
X143121607Y-73981431D01*
X143131915Y-74015409D01*
X143136000Y-74056890D01*
X143136000Y-74658110D01*
X143131915Y-74699591D01*
X143121607Y-74733569D01*
X143104866Y-74764890D01*
X143082339Y-74792339D01*
X143054890Y-74814866D01*
X143023569Y-74831607D01*
X142989591Y-74841915D01*
X142948110Y-74846000D01*
X142271890Y-74846000D01*
X142230409Y-74841915D01*
X142196431Y-74831607D01*
X142165110Y-74814866D01*
X142137661Y-74792339D01*
X142115134Y-74764890D01*
X142098393Y-74733569D01*
X142088085Y-74699591D01*
X142084000Y-74658110D01*
X142084000Y-74056890D01*
X142088085Y-74015409D01*
X142098393Y-73981431D01*
X142115134Y-73950110D01*
X142137661Y-73922661D01*
X142165110Y-73900134D01*
X142196431Y-73883393D01*
X142230409Y-73873085D01*
X142271890Y-73869000D01*
X142948110Y-73869000D01*
X142989591Y-73873085D01*
X142989591Y-73873085D01*
G37*
G36*
X148961000Y-74671000D02*
G01*
X147159000Y-74671000D01*
X147159000Y-72869000D01*
X148961000Y-72869000D01*
X148961000Y-74671000D01*
X148961000Y-74671000D01*
G37*
G36*
X120778604Y-72988347D02*
G01*
X120815144Y-72999432D01*
X120848821Y-73017433D01*
X120878341Y-73041659D01*
X120902567Y-73071179D01*
X120920568Y-73104856D01*
X120931653Y-73141396D01*
X120936000Y-73185538D01*
X120936000Y-74134462D01*
X120931653Y-74178604D01*
X120920568Y-74215144D01*
X120902567Y-74248821D01*
X120878341Y-74278341D01*
X120848821Y-74302567D01*
X120815144Y-74320568D01*
X120778604Y-74331653D01*
X120734462Y-74336000D01*
X119285538Y-74336000D01*
X119241396Y-74331653D01*
X119204856Y-74320568D01*
X119171179Y-74302567D01*
X119141659Y-74278341D01*
X119117433Y-74248821D01*
X119099432Y-74215144D01*
X119088347Y-74178604D01*
X119084000Y-74134462D01*
X119084000Y-73185538D01*
X119088347Y-73141396D01*
X119099432Y-73104856D01*
X119117433Y-73071179D01*
X119141659Y-73041659D01*
X119171179Y-73017433D01*
X119204856Y-72999432D01*
X119241396Y-72988347D01*
X119285538Y-72984000D01*
X120734462Y-72984000D01*
X120778604Y-72988347D01*
X120778604Y-72988347D01*
G37*
G36*
X136989591Y-72298085D02*
G01*
X137023569Y-72308393D01*
X137054890Y-72325134D01*
X137082339Y-72347661D01*
X137104866Y-72375110D01*
X137121607Y-72406431D01*
X137131915Y-72440409D01*
X137136000Y-72481890D01*
X137136000Y-73083110D01*
X137131915Y-73124591D01*
X137121607Y-73158569D01*
X137104866Y-73189890D01*
X137082339Y-73217339D01*
X137054890Y-73239866D01*
X137023569Y-73256607D01*
X136989591Y-73266915D01*
X136948110Y-73271000D01*
X136271890Y-73271000D01*
X136230409Y-73266915D01*
X136196431Y-73256607D01*
X136165110Y-73239866D01*
X136137661Y-73217339D01*
X136115134Y-73189890D01*
X136098393Y-73158569D01*
X136088085Y-73124591D01*
X136084000Y-73083110D01*
X136084000Y-72481890D01*
X136088085Y-72440409D01*
X136098393Y-72406431D01*
X136115134Y-72375110D01*
X136137661Y-72347661D01*
X136165110Y-72325134D01*
X136196431Y-72308393D01*
X136230409Y-72298085D01*
X136271890Y-72294000D01*
X136948110Y-72294000D01*
X136989591Y-72298085D01*
X136989591Y-72298085D01*
G37*
G36*
X142989591Y-72298085D02*
G01*
X143023569Y-72308393D01*
X143054890Y-72325134D01*
X143082339Y-72347661D01*
X143104866Y-72375110D01*
X143121607Y-72406431D01*
X143131915Y-72440409D01*
X143136000Y-72481890D01*
X143136000Y-73083110D01*
X143131915Y-73124591D01*
X143121607Y-73158569D01*
X143104866Y-73189890D01*
X143082339Y-73217339D01*
X143054890Y-73239866D01*
X143023569Y-73256607D01*
X142989591Y-73266915D01*
X142948110Y-73271000D01*
X142271890Y-73271000D01*
X142230409Y-73266915D01*
X142196431Y-73256607D01*
X142165110Y-73239866D01*
X142137661Y-73217339D01*
X142115134Y-73189890D01*
X142098393Y-73158569D01*
X142088085Y-73124591D01*
X142084000Y-73083110D01*
X142084000Y-72481890D01*
X142088085Y-72440409D01*
X142098393Y-72406431D01*
X142115134Y-72375110D01*
X142137661Y-72347661D01*
X142165110Y-72325134D01*
X142196431Y-72308393D01*
X142230409Y-72298085D01*
X142271890Y-72294000D01*
X142948110Y-72294000D01*
X142989591Y-72298085D01*
X142989591Y-72298085D01*
G37*
G36*
X140061000Y-73071000D02*
G01*
X139159000Y-73071000D01*
X139159000Y-72069000D01*
X140061000Y-72069000D01*
X140061000Y-73071000D01*
X140061000Y-73071000D01*
G37*
G36*
X107291000Y-72776000D02*
G01*
X104789000Y-72776000D01*
X104789000Y-71224000D01*
X107291000Y-71224000D01*
X107291000Y-72776000D01*
X107291000Y-72776000D01*
G37*
G36*
X120778604Y-71168347D02*
G01*
X120815144Y-71179432D01*
X120848821Y-71197433D01*
X120878341Y-71221659D01*
X120902567Y-71251179D01*
X120920568Y-71284856D01*
X120931653Y-71321396D01*
X120936000Y-71365538D01*
X120936000Y-72314462D01*
X120931653Y-72358604D01*
X120920568Y-72395144D01*
X120902567Y-72428821D01*
X120878341Y-72458341D01*
X120848821Y-72482567D01*
X120815144Y-72500568D01*
X120778604Y-72511653D01*
X120734462Y-72516000D01*
X119285538Y-72516000D01*
X119241396Y-72511653D01*
X119204856Y-72500568D01*
X119171179Y-72482567D01*
X119141659Y-72458341D01*
X119117433Y-72428821D01*
X119099432Y-72395144D01*
X119088347Y-72358604D01*
X119084000Y-72314462D01*
X119084000Y-71365538D01*
X119088347Y-71321396D01*
X119099432Y-71284856D01*
X119117433Y-71251179D01*
X119141659Y-71221659D01*
X119171179Y-71197433D01*
X119204856Y-71179432D01*
X119241396Y-71168347D01*
X119285538Y-71164000D01*
X120734462Y-71164000D01*
X120778604Y-71168347D01*
X120778604Y-71168347D01*
G37*
G36*
X118284928Y-70141764D02*
G01*
X118306009Y-70148160D01*
X118325445Y-70158548D01*
X118342476Y-70172524D01*
X118356452Y-70189555D01*
X118366840Y-70208991D01*
X118373236Y-70230072D01*
X118376000Y-70258140D01*
X118376000Y-71871860D01*
X118373236Y-71899928D01*
X118366840Y-71921009D01*
X118356452Y-71940445D01*
X118342476Y-71957476D01*
X118325445Y-71971452D01*
X118306009Y-71981840D01*
X118284928Y-71988236D01*
X118256860Y-71991000D01*
X117793140Y-71991000D01*
X117765072Y-71988236D01*
X117743991Y-71981840D01*
X117724555Y-71971452D01*
X117707524Y-71957476D01*
X117693548Y-71940445D01*
X117683160Y-71921009D01*
X117676764Y-71899928D01*
X117674000Y-71871860D01*
X117674000Y-70258140D01*
X117676764Y-70230072D01*
X117683160Y-70208991D01*
X117693548Y-70189555D01*
X117707524Y-70172524D01*
X117724555Y-70158548D01*
X117743991Y-70148160D01*
X117765072Y-70141764D01*
X117793140Y-70139000D01*
X118256860Y-70139000D01*
X118284928Y-70141764D01*
X118284928Y-70141764D01*
G37*
G36*
X117014928Y-70141764D02*
G01*
X117036009Y-70148160D01*
X117055445Y-70158548D01*
X117072476Y-70172524D01*
X117086452Y-70189555D01*
X117096840Y-70208991D01*
X117103236Y-70230072D01*
X117106000Y-70258140D01*
X117106000Y-71871860D01*
X117103236Y-71899928D01*
X117096840Y-71921009D01*
X117086452Y-71940445D01*
X117072476Y-71957476D01*
X117055445Y-71971452D01*
X117036009Y-71981840D01*
X117014928Y-71988236D01*
X116986860Y-71991000D01*
X116523140Y-71991000D01*
X116495072Y-71988236D01*
X116473991Y-71981840D01*
X116454555Y-71971452D01*
X116437524Y-71957476D01*
X116423548Y-71940445D01*
X116413160Y-71921009D01*
X116406764Y-71899928D01*
X116404000Y-71871860D01*
X116404000Y-70258140D01*
X116406764Y-70230072D01*
X116413160Y-70208991D01*
X116423548Y-70189555D01*
X116437524Y-70172524D01*
X116454555Y-70158548D01*
X116473991Y-70148160D01*
X116495072Y-70141764D01*
X116523140Y-70139000D01*
X116986860Y-70139000D01*
X117014928Y-70141764D01*
X117014928Y-70141764D01*
G37*
G36*
X115744928Y-70141764D02*
G01*
X115766009Y-70148160D01*
X115785445Y-70158548D01*
X115802476Y-70172524D01*
X115816452Y-70189555D01*
X115826840Y-70208991D01*
X115833236Y-70230072D01*
X115836000Y-70258140D01*
X115836000Y-71871860D01*
X115833236Y-71899928D01*
X115826840Y-71921009D01*
X115816452Y-71940445D01*
X115802476Y-71957476D01*
X115785445Y-71971452D01*
X115766009Y-71981840D01*
X115744928Y-71988236D01*
X115716860Y-71991000D01*
X115253140Y-71991000D01*
X115225072Y-71988236D01*
X115203991Y-71981840D01*
X115184555Y-71971452D01*
X115167524Y-71957476D01*
X115153548Y-71940445D01*
X115143160Y-71921009D01*
X115136764Y-71899928D01*
X115134000Y-71871860D01*
X115134000Y-70258140D01*
X115136764Y-70230072D01*
X115143160Y-70208991D01*
X115153548Y-70189555D01*
X115167524Y-70172524D01*
X115184555Y-70158548D01*
X115203991Y-70148160D01*
X115225072Y-70141764D01*
X115253140Y-70139000D01*
X115716860Y-70139000D01*
X115744928Y-70141764D01*
X115744928Y-70141764D01*
G37*
G36*
X114474928Y-70141764D02*
G01*
X114496009Y-70148160D01*
X114515445Y-70158548D01*
X114532476Y-70172524D01*
X114546452Y-70189555D01*
X114556840Y-70208991D01*
X114563236Y-70230072D01*
X114566000Y-70258140D01*
X114566000Y-71871860D01*
X114563236Y-71899928D01*
X114556840Y-71921009D01*
X114546452Y-71940445D01*
X114532476Y-71957476D01*
X114515445Y-71971452D01*
X114496009Y-71981840D01*
X114474928Y-71988236D01*
X114446860Y-71991000D01*
X113983140Y-71991000D01*
X113955072Y-71988236D01*
X113933991Y-71981840D01*
X113914555Y-71971452D01*
X113897524Y-71957476D01*
X113883548Y-71940445D01*
X113873160Y-71921009D01*
X113866764Y-71899928D01*
X113864000Y-71871860D01*
X113864000Y-70258140D01*
X113866764Y-70230072D01*
X113873160Y-70208991D01*
X113883548Y-70189555D01*
X113897524Y-70172524D01*
X113914555Y-70158548D01*
X113933991Y-70148160D01*
X113955072Y-70141764D01*
X113983140Y-70139000D01*
X114446860Y-70139000D01*
X114474928Y-70141764D01*
X114474928Y-70141764D01*
G37*
G36*
X110376000Y-71796000D02*
G01*
X109674000Y-71796000D01*
X109674000Y-70144000D01*
X110376000Y-70144000D01*
X110376000Y-71796000D01*
X110376000Y-71796000D01*
G37*
G36*
X109106000Y-71796000D02*
G01*
X108404000Y-71796000D01*
X108404000Y-70144000D01*
X109106000Y-70144000D01*
X109106000Y-71796000D01*
X109106000Y-71796000D01*
G37*
G36*
X111646000Y-71796000D02*
G01*
X110944000Y-71796000D01*
X110944000Y-70144000D01*
X111646000Y-70144000D01*
X111646000Y-71796000D01*
X111646000Y-71796000D01*
G37*
G36*
X112916000Y-71796000D02*
G01*
X112214000Y-71796000D01*
X112214000Y-70144000D01*
X112916000Y-70144000D01*
X112916000Y-71796000D01*
X112916000Y-71796000D01*
G37*
G36*
X98301000Y-71351000D02*
G01*
X94899000Y-71351000D01*
X94899000Y-67749000D01*
X98301000Y-67749000D01*
X98301000Y-71351000D01*
X98301000Y-71351000D01*
G37*
G36*
X106799591Y-69678085D02*
G01*
X106833569Y-69688393D01*
X106864890Y-69705134D01*
X106892339Y-69727661D01*
X106914866Y-69755110D01*
X106931607Y-69786431D01*
X106941915Y-69820409D01*
X106946000Y-69861890D01*
X106946000Y-70538110D01*
X106941915Y-70579591D01*
X106931607Y-70613569D01*
X106914866Y-70644890D01*
X106892339Y-70672339D01*
X106864890Y-70694866D01*
X106833569Y-70711607D01*
X106799591Y-70721915D01*
X106758110Y-70726000D01*
X106156890Y-70726000D01*
X106115409Y-70721915D01*
X106081431Y-70711607D01*
X106050110Y-70694866D01*
X106022661Y-70672339D01*
X106000134Y-70644890D01*
X105983393Y-70613569D01*
X105973085Y-70579591D01*
X105969000Y-70538110D01*
X105969000Y-69861890D01*
X105973085Y-69820409D01*
X105983393Y-69786431D01*
X106000134Y-69755110D01*
X106022661Y-69727661D01*
X106050110Y-69705134D01*
X106081431Y-69688393D01*
X106115409Y-69678085D01*
X106156890Y-69674000D01*
X106758110Y-69674000D01*
X106799591Y-69678085D01*
X106799591Y-69678085D01*
G37*
G36*
X105224591Y-69678085D02*
G01*
X105258569Y-69688393D01*
X105289890Y-69705134D01*
X105317339Y-69727661D01*
X105339866Y-69755110D01*
X105356607Y-69786431D01*
X105366915Y-69820409D01*
X105371000Y-69861890D01*
X105371000Y-70538110D01*
X105366915Y-70579591D01*
X105356607Y-70613569D01*
X105339866Y-70644890D01*
X105317339Y-70672339D01*
X105289890Y-70694866D01*
X105258569Y-70711607D01*
X105224591Y-70721915D01*
X105183110Y-70726000D01*
X104581890Y-70726000D01*
X104540409Y-70721915D01*
X104506431Y-70711607D01*
X104475110Y-70694866D01*
X104447661Y-70672339D01*
X104425134Y-70644890D01*
X104408393Y-70613569D01*
X104398085Y-70579591D01*
X104394000Y-70538110D01*
X104394000Y-69861890D01*
X104398085Y-69820409D01*
X104408393Y-69786431D01*
X104425134Y-69755110D01*
X104447661Y-69727661D01*
X104475110Y-69705134D01*
X104506431Y-69688393D01*
X104540409Y-69678085D01*
X104581890Y-69674000D01*
X105183110Y-69674000D01*
X105224591Y-69678085D01*
X105224591Y-69678085D01*
G37*
G36*
X120778604Y-68368347D02*
G01*
X120815144Y-68379432D01*
X120848821Y-68397433D01*
X120878341Y-68421659D01*
X120902567Y-68451179D01*
X120920568Y-68484856D01*
X120931653Y-68521396D01*
X120936000Y-68565538D01*
X120936000Y-69514462D01*
X120931653Y-69558604D01*
X120920568Y-69595144D01*
X120902567Y-69628821D01*
X120878341Y-69658341D01*
X120848821Y-69682567D01*
X120815144Y-69700568D01*
X120778604Y-69711653D01*
X120734462Y-69716000D01*
X119285538Y-69716000D01*
X119241396Y-69711653D01*
X119204856Y-69700568D01*
X119171179Y-69682567D01*
X119141659Y-69658341D01*
X119117433Y-69628821D01*
X119099432Y-69595144D01*
X119088347Y-69558604D01*
X119084000Y-69514462D01*
X119084000Y-68565538D01*
X119088347Y-68521396D01*
X119099432Y-68484856D01*
X119117433Y-68451179D01*
X119141659Y-68421659D01*
X119171179Y-68397433D01*
X119204856Y-68379432D01*
X119241396Y-68368347D01*
X119285538Y-68364000D01*
X120734462Y-68364000D01*
X120778604Y-68368347D01*
X120778604Y-68368347D01*
G37*
G36*
X113161000Y-69681000D02*
G01*
X112059000Y-69681000D01*
X112059000Y-67779000D01*
X113161000Y-67779000D01*
X113161000Y-69681000D01*
X113161000Y-69681000D01*
G37*
G36*
X110661000Y-69681000D02*
G01*
X109559000Y-69681000D01*
X109559000Y-67779000D01*
X110661000Y-67779000D01*
X110661000Y-69681000D01*
X110661000Y-69681000D01*
G37*
G36*
X116029591Y-68628085D02*
G01*
X116063569Y-68638393D01*
X116094890Y-68655134D01*
X116122339Y-68677661D01*
X116144866Y-68705110D01*
X116161607Y-68736431D01*
X116171915Y-68770409D01*
X116176000Y-68811890D01*
X116176000Y-69488110D01*
X116171915Y-69529591D01*
X116161607Y-69563569D01*
X116144866Y-69594890D01*
X116122339Y-69622339D01*
X116094890Y-69644866D01*
X116063569Y-69661607D01*
X116029591Y-69671915D01*
X115988110Y-69676000D01*
X115386890Y-69676000D01*
X115345409Y-69671915D01*
X115311431Y-69661607D01*
X115280110Y-69644866D01*
X115252661Y-69622339D01*
X115230134Y-69594890D01*
X115213393Y-69563569D01*
X115203085Y-69529591D01*
X115199000Y-69488110D01*
X115199000Y-68811890D01*
X115203085Y-68770409D01*
X115213393Y-68736431D01*
X115230134Y-68705110D01*
X115252661Y-68677661D01*
X115280110Y-68655134D01*
X115311431Y-68638393D01*
X115345409Y-68628085D01*
X115386890Y-68624000D01*
X115988110Y-68624000D01*
X116029591Y-68628085D01*
X116029591Y-68628085D01*
G37*
G36*
X114454591Y-68628085D02*
G01*
X114488569Y-68638393D01*
X114519890Y-68655134D01*
X114547339Y-68677661D01*
X114569866Y-68705110D01*
X114586607Y-68736431D01*
X114596915Y-68770409D01*
X114601000Y-68811890D01*
X114601000Y-69488110D01*
X114596915Y-69529591D01*
X114586607Y-69563569D01*
X114569866Y-69594890D01*
X114547339Y-69622339D01*
X114519890Y-69644866D01*
X114488569Y-69661607D01*
X114454591Y-69671915D01*
X114413110Y-69676000D01*
X113811890Y-69676000D01*
X113770409Y-69671915D01*
X113736431Y-69661607D01*
X113705110Y-69644866D01*
X113677661Y-69622339D01*
X113655134Y-69594890D01*
X113638393Y-69563569D01*
X113628085Y-69529591D01*
X113624000Y-69488110D01*
X113624000Y-68811890D01*
X113628085Y-68770409D01*
X113638393Y-68736431D01*
X113655134Y-68705110D01*
X113677661Y-68677661D01*
X113705110Y-68655134D01*
X113736431Y-68638393D01*
X113770409Y-68628085D01*
X113811890Y-68624000D01*
X114413110Y-68624000D01*
X114454591Y-68628085D01*
X114454591Y-68628085D01*
G37*
G36*
X108349591Y-67923085D02*
G01*
X108383569Y-67933393D01*
X108414890Y-67950134D01*
X108442339Y-67972661D01*
X108464866Y-68000110D01*
X108481607Y-68031431D01*
X108491915Y-68065409D01*
X108496000Y-68106890D01*
X108496000Y-68708110D01*
X108491915Y-68749591D01*
X108481607Y-68783569D01*
X108464866Y-68814890D01*
X108442339Y-68842339D01*
X108414890Y-68864866D01*
X108383569Y-68881607D01*
X108349591Y-68891915D01*
X108308110Y-68896000D01*
X107631890Y-68896000D01*
X107590409Y-68891915D01*
X107556431Y-68881607D01*
X107525110Y-68864866D01*
X107497661Y-68842339D01*
X107475134Y-68814890D01*
X107458393Y-68783569D01*
X107448085Y-68749591D01*
X107444000Y-68708110D01*
X107444000Y-68106890D01*
X107448085Y-68065409D01*
X107458393Y-68031431D01*
X107475134Y-68000110D01*
X107497661Y-67972661D01*
X107525110Y-67950134D01*
X107556431Y-67933393D01*
X107590409Y-67923085D01*
X107631890Y-67919000D01*
X108308110Y-67919000D01*
X108349591Y-67923085D01*
X108349591Y-67923085D01*
G37*
G36*
X106829591Y-67923085D02*
G01*
X106863569Y-67933393D01*
X106894890Y-67950134D01*
X106922339Y-67972661D01*
X106944866Y-68000110D01*
X106961607Y-68031431D01*
X106971915Y-68065409D01*
X106976000Y-68106890D01*
X106976000Y-68708110D01*
X106971915Y-68749591D01*
X106961607Y-68783569D01*
X106944866Y-68814890D01*
X106922339Y-68842339D01*
X106894890Y-68864866D01*
X106863569Y-68881607D01*
X106829591Y-68891915D01*
X106788110Y-68896000D01*
X106111890Y-68896000D01*
X106070409Y-68891915D01*
X106036431Y-68881607D01*
X106005110Y-68864866D01*
X105977661Y-68842339D01*
X105955134Y-68814890D01*
X105938393Y-68783569D01*
X105928085Y-68749591D01*
X105924000Y-68708110D01*
X105924000Y-68106890D01*
X105928085Y-68065409D01*
X105938393Y-68031431D01*
X105955134Y-68000110D01*
X105977661Y-67972661D01*
X106005110Y-67950134D01*
X106036431Y-67933393D01*
X106070409Y-67923085D01*
X106111890Y-67919000D01*
X106788110Y-67919000D01*
X106829591Y-67923085D01*
X106829591Y-67923085D01*
G37*
G36*
X105309591Y-67923085D02*
G01*
X105343569Y-67933393D01*
X105374890Y-67950134D01*
X105402339Y-67972661D01*
X105424866Y-68000110D01*
X105441607Y-68031431D01*
X105451915Y-68065409D01*
X105456000Y-68106890D01*
X105456000Y-68708110D01*
X105451915Y-68749591D01*
X105441607Y-68783569D01*
X105424866Y-68814890D01*
X105402339Y-68842339D01*
X105374890Y-68864866D01*
X105343569Y-68881607D01*
X105309591Y-68891915D01*
X105268110Y-68896000D01*
X104591890Y-68896000D01*
X104550409Y-68891915D01*
X104516431Y-68881607D01*
X104485110Y-68864866D01*
X104457661Y-68842339D01*
X104435134Y-68814890D01*
X104418393Y-68783569D01*
X104408085Y-68749591D01*
X104404000Y-68708110D01*
X104404000Y-68106890D01*
X104408085Y-68065409D01*
X104418393Y-68031431D01*
X104435134Y-68000110D01*
X104457661Y-67972661D01*
X104485110Y-67950134D01*
X104516431Y-67933393D01*
X104550409Y-67923085D01*
X104591890Y-67919000D01*
X105268110Y-67919000D01*
X105309591Y-67923085D01*
X105309591Y-67923085D01*
G37*
G36*
X106829591Y-66348085D02*
G01*
X106863569Y-66358393D01*
X106894890Y-66375134D01*
X106922339Y-66397661D01*
X106944866Y-66425110D01*
X106961607Y-66456431D01*
X106971915Y-66490409D01*
X106976000Y-66531890D01*
X106976000Y-67133110D01*
X106971915Y-67174591D01*
X106961607Y-67208569D01*
X106944866Y-67239890D01*
X106922339Y-67267339D01*
X106894890Y-67289866D01*
X106863569Y-67306607D01*
X106829591Y-67316915D01*
X106788110Y-67321000D01*
X106111890Y-67321000D01*
X106070409Y-67316915D01*
X106036431Y-67306607D01*
X106005110Y-67289866D01*
X105977661Y-67267339D01*
X105955134Y-67239890D01*
X105938393Y-67208569D01*
X105928085Y-67174591D01*
X105924000Y-67133110D01*
X105924000Y-66531890D01*
X105928085Y-66490409D01*
X105938393Y-66456431D01*
X105955134Y-66425110D01*
X105977661Y-66397661D01*
X106005110Y-66375134D01*
X106036431Y-66358393D01*
X106070409Y-66348085D01*
X106111890Y-66344000D01*
X106788110Y-66344000D01*
X106829591Y-66348085D01*
X106829591Y-66348085D01*
G37*
G36*
X108349591Y-66348085D02*
G01*
X108383569Y-66358393D01*
X108414890Y-66375134D01*
X108442339Y-66397661D01*
X108464866Y-66425110D01*
X108481607Y-66456431D01*
X108491915Y-66490409D01*
X108496000Y-66531890D01*
X108496000Y-67133110D01*
X108491915Y-67174591D01*
X108481607Y-67208569D01*
X108464866Y-67239890D01*
X108442339Y-67267339D01*
X108414890Y-67289866D01*
X108383569Y-67306607D01*
X108349591Y-67316915D01*
X108308110Y-67321000D01*
X107631890Y-67321000D01*
X107590409Y-67316915D01*
X107556431Y-67306607D01*
X107525110Y-67289866D01*
X107497661Y-67267339D01*
X107475134Y-67239890D01*
X107458393Y-67208569D01*
X107448085Y-67174591D01*
X107444000Y-67133110D01*
X107444000Y-66531890D01*
X107448085Y-66490409D01*
X107458393Y-66456431D01*
X107475134Y-66425110D01*
X107497661Y-66397661D01*
X107525110Y-66375134D01*
X107556431Y-66358393D01*
X107590409Y-66348085D01*
X107631890Y-66344000D01*
X108308110Y-66344000D01*
X108349591Y-66348085D01*
X108349591Y-66348085D01*
G37*
G36*
X105309591Y-66348085D02*
G01*
X105343569Y-66358393D01*
X105374890Y-66375134D01*
X105402339Y-66397661D01*
X105424866Y-66425110D01*
X105441607Y-66456431D01*
X105451915Y-66490409D01*
X105456000Y-66531890D01*
X105456000Y-67133110D01*
X105451915Y-67174591D01*
X105441607Y-67208569D01*
X105424866Y-67239890D01*
X105402339Y-67267339D01*
X105374890Y-67289866D01*
X105343569Y-67306607D01*
X105309591Y-67316915D01*
X105268110Y-67321000D01*
X104591890Y-67321000D01*
X104550409Y-67316915D01*
X104516431Y-67306607D01*
X104485110Y-67289866D01*
X104457661Y-67267339D01*
X104435134Y-67239890D01*
X104418393Y-67208569D01*
X104408085Y-67174591D01*
X104404000Y-67133110D01*
X104404000Y-66531890D01*
X104408085Y-66490409D01*
X104418393Y-66456431D01*
X104435134Y-66425110D01*
X104457661Y-66397661D01*
X104485110Y-66375134D01*
X104516431Y-66358393D01*
X104550409Y-66348085D01*
X104591890Y-66344000D01*
X105268110Y-66344000D01*
X105309591Y-66348085D01*
X105309591Y-66348085D01*
G37*
G36*
X146333494Y-62382991D02*
G01*
X146481579Y-62412447D01*
X146782042Y-62536903D01*
X147052451Y-62717585D01*
X147282415Y-62947549D01*
X147463097Y-63217958D01*
X147587553Y-63518421D01*
X147651000Y-63837391D01*
X147651000Y-64162609D01*
X147587553Y-64481579D01*
X147463097Y-64782042D01*
X147282415Y-65052451D01*
X147052451Y-65282415D01*
X146782042Y-65463097D01*
X146481579Y-65587553D01*
X146375256Y-65608702D01*
X146162611Y-65651000D01*
X145837389Y-65651000D01*
X145624744Y-65608702D01*
X145518421Y-65587553D01*
X145217958Y-65463097D01*
X144947549Y-65282415D01*
X144717585Y-65052451D01*
X144536903Y-64782042D01*
X144412447Y-64481579D01*
X144349000Y-64162609D01*
X144349000Y-63837391D01*
X144412447Y-63518421D01*
X144536903Y-63217958D01*
X144717585Y-62947549D01*
X144947549Y-62717585D01*
X145217958Y-62536903D01*
X145518421Y-62412447D01*
X145666506Y-62382991D01*
X145837389Y-62349000D01*
X146162611Y-62349000D01*
X146333494Y-62382991D01*
X146333494Y-62382991D01*
G37*
G36*
X84333494Y-62382991D02*
G01*
X84481579Y-62412447D01*
X84782042Y-62536903D01*
X85052451Y-62717585D01*
X85282415Y-62947549D01*
X85463097Y-63217958D01*
X85587553Y-63518421D01*
X85651000Y-63837391D01*
X85651000Y-64162609D01*
X85587553Y-64481579D01*
X85463097Y-64782042D01*
X85282415Y-65052451D01*
X85052451Y-65282415D01*
X84782042Y-65463097D01*
X84481579Y-65587553D01*
X84375256Y-65608702D01*
X84162611Y-65651000D01*
X83837389Y-65651000D01*
X83624744Y-65608702D01*
X83518421Y-65587553D01*
X83217958Y-65463097D01*
X82947549Y-65282415D01*
X82717585Y-65052451D01*
X82536903Y-64782042D01*
X82412447Y-64481579D01*
X82349000Y-64162609D01*
X82349000Y-63837391D01*
X82412447Y-63518421D01*
X82536903Y-63217958D01*
X82717585Y-62947549D01*
X82947549Y-62717585D01*
X83217958Y-62536903D01*
X83518421Y-62412447D01*
X83666506Y-62382991D01*
X83837389Y-62349000D01*
X84162611Y-62349000D01*
X84333494Y-62382991D01*
X84333494Y-62382991D01*
G37*
G36*
X130918433Y-60134893D02*
G01*
X131008657Y-60152839D01*
X131114267Y-60196585D01*
X131263621Y-60258449D01*
X131263622Y-60258450D01*
X131493086Y-60411772D01*
X131688228Y-60606914D01*
X131790675Y-60760237D01*
X131841551Y-60836379D01*
X131900627Y-60979000D01*
X131935652Y-61063557D01*
X131947161Y-61091344D01*
X132001000Y-61362012D01*
X132001000Y-61637988D01*
X131947161Y-61908656D01*
X131841551Y-62163621D01*
X131841550Y-62163622D01*
X131688228Y-62393086D01*
X131493086Y-62588228D01*
X131396478Y-62652779D01*
X131263621Y-62741551D01*
X131120098Y-62801000D01*
X131008657Y-62847161D01*
X130918433Y-62865107D01*
X130737988Y-62901000D01*
X130462012Y-62901000D01*
X130281567Y-62865107D01*
X130191343Y-62847161D01*
X130079902Y-62801000D01*
X129936379Y-62741551D01*
X129803522Y-62652779D01*
X129706914Y-62588228D01*
X129511772Y-62393086D01*
X129358450Y-62163622D01*
X129358449Y-62163621D01*
X129252839Y-61908656D01*
X129199000Y-61637988D01*
X129199000Y-61362012D01*
X129252839Y-61091344D01*
X129264349Y-61063557D01*
X129299373Y-60979000D01*
X129358449Y-60836379D01*
X129409325Y-60760237D01*
X129511772Y-60606914D01*
X129706914Y-60411772D01*
X129936378Y-60258450D01*
X129936379Y-60258449D01*
X130085733Y-60196585D01*
X130191343Y-60152839D01*
X130281567Y-60134893D01*
X130462012Y-60099000D01*
X130737988Y-60099000D01*
X130918433Y-60134893D01*
X130918433Y-60134893D01*
G37*
G36*
X99718433Y-60134893D02*
G01*
X99808657Y-60152839D01*
X99914267Y-60196585D01*
X100063621Y-60258449D01*
X100063622Y-60258450D01*
X100293086Y-60411772D01*
X100488228Y-60606914D01*
X100590675Y-60760237D01*
X100641551Y-60836379D01*
X100700627Y-60979000D01*
X100735652Y-61063557D01*
X100747161Y-61091344D01*
X100801000Y-61362012D01*
X100801000Y-61637988D01*
X100747161Y-61908656D01*
X100641551Y-62163621D01*
X100641550Y-62163622D01*
X100488228Y-62393086D01*
X100293086Y-62588228D01*
X100196478Y-62652779D01*
X100063621Y-62741551D01*
X99920098Y-62801000D01*
X99808657Y-62847161D01*
X99718433Y-62865107D01*
X99537988Y-62901000D01*
X99262012Y-62901000D01*
X99081567Y-62865107D01*
X98991343Y-62847161D01*
X98879902Y-62801000D01*
X98736379Y-62741551D01*
X98603522Y-62652779D01*
X98506914Y-62588228D01*
X98311772Y-62393086D01*
X98158450Y-62163622D01*
X98158449Y-62163621D01*
X98052839Y-61908656D01*
X97999000Y-61637988D01*
X97999000Y-61362012D01*
X98052839Y-61091344D01*
X98064349Y-61063557D01*
X98099373Y-60979000D01*
X98158449Y-60836379D01*
X98209325Y-60760237D01*
X98311772Y-60606914D01*
X98506914Y-60411772D01*
X98736378Y-60258450D01*
X98736379Y-60258449D01*
X98885733Y-60196585D01*
X98991343Y-60152839D01*
X99081567Y-60134893D01*
X99262012Y-60099000D01*
X99537988Y-60099000D01*
X99718433Y-60134893D01*
X99718433Y-60134893D01*
G37*
G36*
X111340443Y-61005519D02*
G01*
X111406627Y-61012037D01*
X111576466Y-61063557D01*
X111732991Y-61147222D01*
X111768729Y-61176552D01*
X111870186Y-61259814D01*
X111953448Y-61361271D01*
X111982778Y-61397009D01*
X112066443Y-61553534D01*
X112117963Y-61723373D01*
X112135359Y-61900000D01*
X112117963Y-62076627D01*
X112066443Y-62246466D01*
X111982778Y-62402991D01*
X111953448Y-62438729D01*
X111870186Y-62540186D01*
X111768729Y-62623448D01*
X111732991Y-62652778D01*
X111732989Y-62652779D01*
X111611749Y-62717584D01*
X111576466Y-62736443D01*
X111406627Y-62787963D01*
X111340442Y-62794482D01*
X111274260Y-62801000D01*
X111185740Y-62801000D01*
X111119558Y-62794482D01*
X111053373Y-62787963D01*
X110883534Y-62736443D01*
X110848252Y-62717584D01*
X110727011Y-62652779D01*
X110727009Y-62652778D01*
X110691271Y-62623448D01*
X110589814Y-62540186D01*
X110506552Y-62438729D01*
X110477222Y-62402991D01*
X110393557Y-62246466D01*
X110342037Y-62076627D01*
X110324641Y-61900000D01*
X110342037Y-61723373D01*
X110393557Y-61553534D01*
X110477222Y-61397009D01*
X110506552Y-61361271D01*
X110589814Y-61259814D01*
X110691271Y-61176552D01*
X110727009Y-61147222D01*
X110883534Y-61063557D01*
X111053373Y-61012037D01*
X111119557Y-61005519D01*
X111185740Y-60999000D01*
X111274260Y-60999000D01*
X111340443Y-61005519D01*
X111340443Y-61005519D01*
G37*
G36*
X107051000Y-62801000D02*
G01*
X105249000Y-62801000D01*
X105249000Y-60999000D01*
X107051000Y-60999000D01*
X107051000Y-62801000D01*
X107051000Y-62801000D01*
G37*
G36*
X108800443Y-61005519D02*
G01*
X108866627Y-61012037D01*
X109036466Y-61063557D01*
X109192991Y-61147222D01*
X109228729Y-61176552D01*
X109330186Y-61259814D01*
X109413448Y-61361271D01*
X109442778Y-61397009D01*
X109526443Y-61553534D01*
X109577963Y-61723373D01*
X109595359Y-61900000D01*
X109577963Y-62076627D01*
X109526443Y-62246466D01*
X109442778Y-62402991D01*
X109413448Y-62438729D01*
X109330186Y-62540186D01*
X109228729Y-62623448D01*
X109192991Y-62652778D01*
X109192989Y-62652779D01*
X109071749Y-62717584D01*
X109036466Y-62736443D01*
X108866627Y-62787963D01*
X108800442Y-62794482D01*
X108734260Y-62801000D01*
X108645740Y-62801000D01*
X108579558Y-62794482D01*
X108513373Y-62787963D01*
X108343534Y-62736443D01*
X108308252Y-62717584D01*
X108187011Y-62652779D01*
X108187009Y-62652778D01*
X108151271Y-62623448D01*
X108049814Y-62540186D01*
X107966552Y-62438729D01*
X107937222Y-62402991D01*
X107853557Y-62246466D01*
X107802037Y-62076627D01*
X107784641Y-61900000D01*
X107802037Y-61723373D01*
X107853557Y-61553534D01*
X107937222Y-61397009D01*
X107966552Y-61361271D01*
X108049814Y-61259814D01*
X108151271Y-61176552D01*
X108187009Y-61147222D01*
X108343534Y-61063557D01*
X108513373Y-61012037D01*
X108579557Y-61005519D01*
X108645740Y-60999000D01*
X108734260Y-60999000D01*
X108800443Y-61005519D01*
X108800443Y-61005519D01*
G37*
G36*
X113880443Y-61005519D02*
G01*
X113946627Y-61012037D01*
X114116466Y-61063557D01*
X114272991Y-61147222D01*
X114308729Y-61176552D01*
X114410186Y-61259814D01*
X114493448Y-61361271D01*
X114522778Y-61397009D01*
X114606443Y-61553534D01*
X114657963Y-61723373D01*
X114675359Y-61900000D01*
X114657963Y-62076627D01*
X114606443Y-62246466D01*
X114522778Y-62402991D01*
X114493448Y-62438729D01*
X114410186Y-62540186D01*
X114308729Y-62623448D01*
X114272991Y-62652778D01*
X114272989Y-62652779D01*
X114151749Y-62717584D01*
X114116466Y-62736443D01*
X113946627Y-62787963D01*
X113880442Y-62794482D01*
X113814260Y-62801000D01*
X113725740Y-62801000D01*
X113659558Y-62794482D01*
X113593373Y-62787963D01*
X113423534Y-62736443D01*
X113388252Y-62717584D01*
X113267011Y-62652779D01*
X113267009Y-62652778D01*
X113231271Y-62623448D01*
X113129814Y-62540186D01*
X113046552Y-62438729D01*
X113017222Y-62402991D01*
X112933557Y-62246466D01*
X112882037Y-62076627D01*
X112864641Y-61900000D01*
X112882037Y-61723373D01*
X112933557Y-61553534D01*
X113017222Y-61397009D01*
X113046552Y-61361271D01*
X113129814Y-61259814D01*
X113231271Y-61176552D01*
X113267009Y-61147222D01*
X113423534Y-61063557D01*
X113593373Y-61012037D01*
X113659557Y-61005519D01*
X113725740Y-60999000D01*
X113814260Y-60999000D01*
X113880443Y-61005519D01*
X113880443Y-61005519D01*
G37*
G36*
X119211000Y-62781000D02*
G01*
X117409000Y-62781000D01*
X117409000Y-60979000D01*
X119211000Y-60979000D01*
X119211000Y-62781000D01*
X119211000Y-62781000D01*
G37*
G36*
X120960443Y-60985519D02*
G01*
X121026627Y-60992037D01*
X121196466Y-61043557D01*
X121352991Y-61127222D01*
X121377361Y-61147222D01*
X121490186Y-61239814D01*
X121573448Y-61341271D01*
X121602778Y-61377009D01*
X121686443Y-61533534D01*
X121737963Y-61703373D01*
X121755359Y-61880000D01*
X121737963Y-62056627D01*
X121686443Y-62226466D01*
X121602778Y-62382991D01*
X121594494Y-62393085D01*
X121490186Y-62520186D01*
X121407275Y-62588228D01*
X121352991Y-62632778D01*
X121196466Y-62716443D01*
X121026627Y-62767963D01*
X120960442Y-62774482D01*
X120894260Y-62781000D01*
X120805740Y-62781000D01*
X120739558Y-62774482D01*
X120673373Y-62767963D01*
X120503534Y-62716443D01*
X120347009Y-62632778D01*
X120292725Y-62588228D01*
X120209814Y-62520186D01*
X120105506Y-62393085D01*
X120097222Y-62382991D01*
X120013557Y-62226466D01*
X119962037Y-62056627D01*
X119944641Y-61880000D01*
X119962037Y-61703373D01*
X120013557Y-61533534D01*
X120097222Y-61377009D01*
X120126552Y-61341271D01*
X120209814Y-61239814D01*
X120322639Y-61147222D01*
X120347009Y-61127222D01*
X120503534Y-61043557D01*
X120673373Y-60992037D01*
X120739557Y-60985519D01*
X120805740Y-60979000D01*
X120894260Y-60979000D01*
X120960443Y-60985519D01*
X120960443Y-60985519D01*
G37*
G36*
X123500443Y-60985519D02*
G01*
X123566627Y-60992037D01*
X123736466Y-61043557D01*
X123892991Y-61127222D01*
X123917361Y-61147222D01*
X124030186Y-61239814D01*
X124113448Y-61341271D01*
X124142778Y-61377009D01*
X124226443Y-61533534D01*
X124277963Y-61703373D01*
X124295359Y-61880000D01*
X124277963Y-62056627D01*
X124226443Y-62226466D01*
X124142778Y-62382991D01*
X124134494Y-62393085D01*
X124030186Y-62520186D01*
X123947275Y-62588228D01*
X123892991Y-62632778D01*
X123736466Y-62716443D01*
X123566627Y-62767963D01*
X123500442Y-62774482D01*
X123434260Y-62781000D01*
X123345740Y-62781000D01*
X123279558Y-62774482D01*
X123213373Y-62767963D01*
X123043534Y-62716443D01*
X122887009Y-62632778D01*
X122832725Y-62588228D01*
X122749814Y-62520186D01*
X122645506Y-62393085D01*
X122637222Y-62382991D01*
X122553557Y-62226466D01*
X122502037Y-62056627D01*
X122484641Y-61880000D01*
X122502037Y-61703373D01*
X122553557Y-61533534D01*
X122637222Y-61377009D01*
X122666552Y-61341271D01*
X122749814Y-61239814D01*
X122862639Y-61147222D01*
X122887009Y-61127222D01*
X123043534Y-61043557D01*
X123213373Y-60992037D01*
X123279557Y-60985519D01*
X123345740Y-60979000D01*
X123434260Y-60979000D01*
X123500443Y-60985519D01*
X123500443Y-60985519D01*
G37*
G36*
X126040443Y-60985519D02*
G01*
X126106627Y-60992037D01*
X126276466Y-61043557D01*
X126432991Y-61127222D01*
X126457361Y-61147222D01*
X126570186Y-61239814D01*
X126653448Y-61341271D01*
X126682778Y-61377009D01*
X126766443Y-61533534D01*
X126817963Y-61703373D01*
X126835359Y-61880000D01*
X126817963Y-62056627D01*
X126766443Y-62226466D01*
X126682778Y-62382991D01*
X126674494Y-62393085D01*
X126570186Y-62520186D01*
X126487275Y-62588228D01*
X126432991Y-62632778D01*
X126276466Y-62716443D01*
X126106627Y-62767963D01*
X126040442Y-62774482D01*
X125974260Y-62781000D01*
X125885740Y-62781000D01*
X125819558Y-62774482D01*
X125753373Y-62767963D01*
X125583534Y-62716443D01*
X125427009Y-62632778D01*
X125372725Y-62588228D01*
X125289814Y-62520186D01*
X125185506Y-62393085D01*
X125177222Y-62382991D01*
X125093557Y-62226466D01*
X125042037Y-62056627D01*
X125024641Y-61880000D01*
X125042037Y-61703373D01*
X125093557Y-61533534D01*
X125177222Y-61377009D01*
X125206552Y-61341271D01*
X125289814Y-61239814D01*
X125402639Y-61147222D01*
X125427009Y-61127222D01*
X125583534Y-61043557D01*
X125753373Y-60992037D01*
X125819557Y-60985519D01*
X125885740Y-60979000D01*
X125974260Y-60979000D01*
X126040443Y-60985519D01*
X126040443Y-60985519D01*
G37*
M02*
