M48
; DRILL file {KiCad (5.1.0)-1} date 25.10.2020 22:34:22
; FORMAT={-:-/ absolute / metric / decimal}
; #@! TF.CreationDate,2020-10-25T22:34:22+01:00
; #@! TF.GenerationSoftware,Kicad,Pcbnew,(5.1.0)-1
; #@! TF.FileFunction,Plated,1,2,PTH
FMAT,2
METRIC
T1C0.400
T2C0.600
T3C0.900
T4C0.920
T5C1.000
T6C2.330
%
G90
G05
T1
X88.29Y-77.45
X103.46Y-66.84
X103.49Y-70.2
X106.55Y-80.39
X107.72Y-74.76
X107.96Y-65.59
X108.04Y-80.79
X108.77Y-78.05
X109.35Y-66.96
X109.96Y-84.98
X114.21Y-78.04
X114.21Y-80.26
X115.04Y-78.92
X116.45Y-83.18
X116.54Y-79.27
X117.09Y-69.14
X117.99Y-79.19
X120.09Y-88.88
X122.68Y-69.03
X123.49Y-89.05
X123.88Y-75.74
X125.26Y-82.79
X127.04Y-83.87
X127.35Y-79.44
X129.62Y-87.97
X129.76Y-112.25
X132.14Y-104.22
X132.33Y-86.02
X132.79Y-80.22
X132.8Y-78.89
X132.896Y-84.19
X132.919Y-83.191
X132.952Y-74.358
X133.38Y-106.26
X133.65Y-80.95
X133.81Y-89.26
X134.053Y-81.962
X136.71Y-75.47
X136.95Y-80.74
X137.0Y-92.05
X137.0Y-104.225
X139.61Y-70.32
X139.85Y-92.05
X139.85Y-104.225
X144.43Y-100.75
X144.83Y-75.07
X145.23Y-80.26
X145.24Y-82.49
T2
X106.13Y-91.0
X107.4Y-91.0
X108.67Y-91.0
X109.94Y-91.0
X111.21Y-91.0
X112.48Y-91.0
X113.75Y-91.0
X115.02Y-91.0
X116.29Y-91.0
X117.56Y-91.0
X118.83Y-91.0
X120.1Y-91.0
X121.37Y-91.0
X122.64Y-91.0
X123.91Y-91.0
T3
X114.73Y-108.5
X117.27Y-108.5
X86.73Y-108.5
X89.27Y-108.5
X100.73Y-108.5
X103.27Y-108.5
T4
X141.8Y-112.475
X141.8Y-114.975
X143.8Y-112.475
X143.8Y-114.975
T5
X118.31Y-61.88
X120.85Y-61.88
X123.39Y-61.88
X125.93Y-61.88
X137.36Y-107.32
X137.36Y-109.86
X106.15Y-61.9
X108.69Y-61.9
X111.23Y-61.9
X113.77Y-61.9
X148.06Y-73.77
X148.06Y-76.31
X148.06Y-78.85
X148.06Y-81.39
T6
X146.51Y-107.705
X146.51Y-119.745
T0
M30
